<svg width="55" height="55" viewBox="0 0 55 55" fill="none" xmlns="http://www.w3.org/2000/svg">
<circle cx="27.026" cy="27.9743" r="2.76724" stroke="white" stroke-width="3"/>
<path fill-rule="evenodd" clip-rule="evenodd" d="M27.2239 30.0695C28.3131 30.0695 29.2182 29.2442 29.4001 28.1582C34.5041 29.5521 38.2711 34.4125 38.2711 40.1943C38.2711 46.5941 33.6556 51.865 27.7205 52.5554C28.3927 52.3442 28.8804 51.7161 28.8804 50.9742C28.8804 50.0589 28.1385 49.317 27.2233 49.317V49.0879C31.341 48.6481 34.7711 44.9676 34.7711 40.1943C34.7711 35.421 31.341 31.7405 27.2233 31.3006V30.0695L27.2239 30.0695ZM25.5678 50.8966H20.3398C22.1128 51.999 24.1831 52.6321 26.3946 52.6321C26.5972 52.6321 26.7986 52.6267 26.9987 52.6163C26.1896 52.5067 25.566 51.8132 25.566 50.9742C25.566 50.9481 25.5666 50.9223 25.5678 50.8966Z" fill="white"/>
<path fill-rule="evenodd" clip-rule="evenodd" d="M27.2215 5.68134C26.3078 5.67946 25.5678 4.93824 25.5678 4.02417C25.5678 3.1877 26.1875 2.49599 26.9929 2.38311C26.7942 2.37254 26.5942 2.36719 26.3931 2.36719C19.8339 2.36719 14.5166 8.05669 14.5166 15.075C14.5166 21.5947 19.1051 26.9676 25.0151 27.6983C25.0566 26.4322 26.0284 25.4193 27.2215 25.4182V24.2369C26.9477 24.2674 26.6712 24.2829 26.3931 24.2829C21.9862 24.2829 18.0166 20.3872 18.0166 15.075C18.0166 9.76285 21.9862 5.86719 26.3931 5.86719C26.6712 5.86719 26.9477 5.88271 27.2215 5.91313V5.68134ZM27.7372 2.44768C29.0329 2.60385 30.2655 2.98308 31.4006 3.54863H28.8129C28.6572 3.02809 28.2526 2.61503 27.7372 2.44768Z" fill="white"/>
<circle cx="27.026" cy="4.26724" r="2.76724" stroke="white" stroke-width="3"/>
<circle cx="27.026" cy="50.7321" r="2.76724" stroke="white" stroke-width="3"/>
<circle cx="4.26724" cy="27.9743" r="2.76724" stroke="white" stroke-width="3"/>
<circle cx="49.7848" cy="27.9743" r="2.76724" stroke="white" stroke-width="3"/>
<path fill-rule="evenodd" clip-rule="evenodd" d="M28.8812 4.02417C28.8812 4.9394 28.1393 5.68135 27.2241 5.68135C26.3088 5.68135 25.5669 4.9394 25.5669 4.02417C25.5669 3.11766 26.2947 2.38116 27.1979 2.36719H12.3672C6.84434 2.36719 2.36719 6.84434 2.36719 12.3672V42.635C2.36719 48.1579 6.84433 52.635 12.3672 52.635H41.5302C47.0531 52.635 51.5302 48.1579 51.5302 42.635V12.3672C51.5302 6.84434 47.0531 2.36719 41.5302 2.36719H27.2502C28.1534 2.38116 28.8812 3.11766 28.8812 4.02417ZM41.5302 5.86719H12.3672C8.77734 5.86719 5.86719 8.77734 5.86719 12.3672V42.635C5.86719 46.2249 8.77733 49.135 12.3672 49.135H41.5302C45.1201 49.135 48.0302 46.2249 48.0302 42.635V12.3672C48.0302 8.77733 45.1201 5.86719 41.5302 5.86719ZM27.2241 52.634C28.1393 52.634 28.8812 51.892 28.8812 50.9768C28.8812 50.0616 28.1393 49.3196 27.2241 49.3196C26.3088 49.3196 25.5669 50.0616 25.5669 50.9768C25.5669 51.892 26.3088 52.634 27.2241 52.634ZM51.5294 27.7774C51.5294 28.6926 50.7875 29.4345 49.8723 29.4345C48.957 29.4345 48.2151 28.6926 48.2151 27.7774C48.2151 26.8621 48.957 26.1202 49.8723 26.1202C50.7875 26.1202 51.5294 26.8621 51.5294 27.7774ZM4.02441 29.4345C4.93965 29.4345 5.68159 28.6926 5.68159 27.7774C5.68159 26.8621 4.93965 26.1202 4.02441 26.1202C3.10917 26.1202 2.36723 26.8621 2.36723 27.7774C2.36723 28.6926 3.10917 29.4345 4.02441 29.4345Z" fill="white"/>
</svg>
