<svg width="360" height="166" viewBox="0 0 360 166" fill="none" xmlns="http://www.w3.org/2000/svg">
<g filter="url(#filter0_d_12_874)">
<rect x="25" y="40.8433" width="286.314" height="89.3529" fill="#4950FE"/>
</g>
<path d="M83.811 96.9805L74.045 71.6345H67.281L57.477 96.9805H63.633L65.229 92.6865H76.097L77.655 96.9805H83.811ZM74.615 87.9365H66.711L70.663 77.0305L74.615 87.9365ZM91.5476 96.9805V87.9745H98.0076C103.48 87.9745 106.52 84.2125 106.52 79.8045C106.52 75.3585 103.518 71.6345 98.0076 71.6345H86.1516V96.9805H91.5476ZM97.2856 83.2245H91.5476V76.3845H97.2856C99.4136 76.3845 101.01 77.6765 101.01 79.8045C101.01 81.8945 99.4136 83.2245 97.2856 83.2245ZM115.26 96.9805V87.9745H121.72C127.192 87.9745 130.232 84.2125 130.232 79.8045C130.232 75.3585 127.23 71.6345 121.72 71.6345H109.864V96.9805H115.26ZM120.998 83.2245H115.26V76.3845H120.998C123.126 76.3845 124.722 77.6765 124.722 79.8045C124.722 81.8945 123.126 83.2245 120.998 83.2245ZM149.689 96.9805V92.2305H138.973V71.6345H133.577V96.9805H149.689ZM161.108 96.9805V86.6065L170.798 71.6345H164.642L158.41 81.8185L152.102 71.6345H145.946L155.712 86.6065V96.9805H161.108ZM205.545 96.9805V71.6345H200.149V87.5565L188.407 71.6345H182.859V96.9805H188.255V80.4505L200.339 96.9805H205.545ZM222.55 97.4365C230.226 97.4365 235.812 91.9645 235.812 84.3265C235.812 76.6885 230.226 71.2165 222.55 71.2165C214.912 71.2165 209.326 76.6885 209.326 84.3265C209.326 91.9645 214.912 97.4365 222.55 97.4365ZM222.55 92.6485C217.876 92.6485 214.874 89.0385 214.874 84.3265C214.874 79.5765 217.876 76.0045 222.55 76.0045C227.224 76.0045 230.264 79.5765 230.264 84.3265C230.264 89.0385 227.224 92.6485 222.55 92.6485ZM263.975 96.9805L271.195 71.6345H265.115L260.707 89.9505L255.919 71.6345H251.701L246.875 89.9505L242.429 71.6345H236.387L243.645 96.9805H249.383L253.791 79.5765L258.237 96.9805H263.975Z" fill="white"/>
<g clip-path="url(#clip0_12_874)">
<path d="M339.697 80.7458L352.411 59.4746C358.261 49.685 355.506 45.1967 345.975 39.5055L320.39 24.2329L294.805 8.96038C285.274 3.26911 280.019 2.97301 274.169 12.7626L261.458 34.0278C255.956 43.2271 257.887 47.6504 266.071 52.8869C266.065 52.8833 266.065 52.8833 266.059 52.8796C267.773 53.9797 269.491 55.074 271.205 56.1741C271.725 56.5038 272.273 56.8422 272.842 57.1857C272.997 57.2813 275.347 58.6839 279.809 61.342C282.598 65.2838 280.117 83.7465 283.563 85.8511C287.259 88.0191 304.01 75.5787 307.691 77.7705C315.138 82.2151 318.85 84.4348 319.044 84.5466C329.125 90.5607 333.853 90.5235 339.697 80.7458Z" fill="#ED5061"/>
<path d="M316.259 40.5839C315.888 38.6538 314.534 36.9707 312.212 35.5769C309.257 33.8087 306.326 34.0776 303.726 36.3421C304.478 32.9684 303.319 30.2636 300.36 28.5014C298.046 27.1209 295.908 26.7203 294.029 27.3104C291.975 27.9725 290.26 29.7895 288.926 32.7211C286.651 37.7344 290.205 49.0525 292.276 53.7427L292.711 54.7177L293.798 54.6496C298.919 54.2554 310.563 52.014 313.902 47.634C315.863 45.0731 316.656 42.7111 316.259 40.5839Z" fill="white"/>
<path d="M332.172 48.8872L330.419 47.8369L330.301 47.9205C329.468 48.4575 328.34 48.8705 326.946 49.1433C325.536 49.4146 324.034 49.4892 322.462 49.3313L322.315 49.315L320.775 51.8887L321.095 51.9554C321.951 52.1145 322.997 52.1933 324.178 52.1995C325.145 52.2053 326.005 52.1449 326.752 52.0146L318.359 66.0522L320.98 67.6144L332.172 48.8872Z" fill="white"/>
</g>
<defs>
<filter id="filter0_d_12_874" x="0" y="25.8433" width="336.313" height="139.353" filterUnits="userSpaceOnUse" color-interpolation-filters="sRGB">
<feFlood flood-opacity="0" result="BackgroundImageFix"/>
<feColorMatrix in="SourceAlpha" type="matrix" values="0 0 0 0 0 0 0 0 0 0 0 0 0 0 0 0 0 0 127 0" result="hardAlpha"/>
<feOffset dy="10"/>
<feGaussianBlur stdDeviation="12.5"/>
<feComposite in2="hardAlpha" operator="out"/>
<feColorMatrix type="matrix" values="0 0 0 0 0.286275 0 0 0 0 0.313726 0 0 0 0 0.996078 0 0 0 1 0"/>
<feBlend mode="normal" in2="BackgroundImageFix" result="effect1_dropShadow_12_874"/>
<feBlend mode="normal" in="SourceGraphic" in2="effect1_dropShadow_12_874" result="shape"/>
</filter>
<clipPath id="clip0_12_874">
<rect width="91.4927" height="72.2311" fill="white" transform="translate(282.043) rotate(31.7085)"/>
</clipPath>
</defs>
</svg>
