<svg width="315" height="338" viewBox="0 0 315 338" fill="none" xmlns="http://www.w3.org/2000/svg">
<rect x="15.5" y="9.5" width="298" height="327" rx="28.5" fill="#00FF34" stroke="#00FF34" stroke-width="3"/>
<rect x="1.5" y="1.5" width="302" height="325" rx="18.5" fill="#242534" stroke="#00FF34" stroke-width="3"/>
<path d="M41.46 51.36C47.52 51.36 51.93 47.04 51.93 41.01C51.93 34.98 47.52 30.66 41.46 30.66C35.43 30.66 31.02 34.98 31.02 41.01C31.02 47.04 35.43 51.36 41.46 51.36ZM41.46 47.58C37.77 47.58 35.4 44.73 35.4 41.01C35.4 37.26 37.77 34.44 41.46 34.44C45.15 34.44 47.55 37.26 47.55 41.01C47.55 44.73 45.15 47.58 41.46 47.58ZM63.9495 51.36C70.0395 51.36 72.9795 47.97 72.9795 42.99V30.99H68.6295V42.87C68.6295 45.66 67.0395 47.58 63.9495 47.58C60.8595 47.58 59.2395 45.66 59.2395 42.87V30.99H54.9195V43.02C54.9195 47.94 57.8595 51.36 63.9495 51.36ZM93.1214 51L88.6214 43.38C90.7814 42.87 93.0014 40.98 93.0014 37.44C93.0014 33.72 90.4514 30.99 86.2814 30.99H76.9214V51H81.1814V43.89H84.3014L88.2314 51H93.1214ZM85.6514 40.14H81.1814V34.74H85.6514C87.3614 34.74 88.6514 35.76 88.6514 37.44C88.6514 39.12 87.3614 40.14 85.6514 40.14ZM108.135 51V30.99H103.875V51H108.135ZM130.017 51V30.99H125.757V43.56L116.487 30.99H112.107V51H116.367V37.95L125.907 51H130.017ZM144.912 51L152.622 30.99H147.762L142.242 46.38L136.692 30.99H131.832L139.572 51H144.912ZM168.63 51V47.25H158.73V42.72H168.42V38.97H158.73V34.74H168.63V30.99H154.47V51H168.63ZM179.07 51.36C184.47 51.36 187.08 48.6 187.08 44.94C187.08 37.47 175.59 39.6 175.59 36.42C175.59 35.22 176.61 34.41 178.44 34.41C180.48 34.41 182.64 35.1 184.26 36.6L186.63 33.48C184.65 31.65 182.01 30.69 178.83 30.69C174.12 30.69 171.24 33.45 171.24 36.78C171.24 44.31 182.76 41.88 182.76 45.42C182.76 46.56 181.62 47.64 179.28 47.64C176.52 47.64 174.33 46.41 172.92 44.94L170.61 48.18C172.47 50.07 175.23 51.36 179.07 51.36ZM198.478 51V34.74H204.298V30.99H188.338V34.74H194.188V51H198.478ZM215.776 51.36C221.836 51.36 226.246 47.04 226.246 41.01C226.246 34.98 221.836 30.66 215.776 30.66C209.746 30.66 205.336 34.98 205.336 41.01C205.336 47.04 209.746 51.36 215.776 51.36ZM215.776 47.58C212.086 47.58 209.716 44.73 209.716 41.01C209.716 37.26 212.086 34.44 215.776 34.44C219.466 34.44 221.866 37.26 221.866 41.01C221.866 44.73 219.466 47.58 215.776 47.58ZM245.436 51L240.936 43.38C243.096 42.87 245.316 40.98 245.316 37.44C245.316 33.72 242.766 30.99 238.596 30.99H229.236V51H233.496V43.89H236.616L240.546 51H245.436ZM237.966 40.14H233.496V34.74H237.966C239.676 34.74 240.966 35.76 240.966 37.44C240.966 39.12 239.676 40.14 237.966 40.14ZM255.623 51.36C261.023 51.36 263.633 48.6 263.633 44.94C263.633 37.47 252.143 39.6 252.143 36.42C252.143 35.22 253.163 34.41 254.993 34.41C257.033 34.41 259.193 35.1 260.813 36.6L263.183 33.48C261.203 31.65 258.563 30.69 255.383 30.69C250.673 30.69 247.793 33.45 247.793 36.78C247.793 44.31 259.313 41.88 259.313 45.42C259.313 46.56 258.173 47.64 255.833 47.64C253.073 47.64 250.883 46.41 249.473 44.94L247.163 48.18C249.023 50.07 251.783 51.36 255.623 51.36ZM50.64 88L42.93 67.99H37.59L29.85 88H34.71L35.97 84.61H44.55L45.78 88H50.64ZM43.38 80.86H37.14L40.26 72.25L43.38 80.86ZM68.6878 88L64.1878 80.38C66.3478 79.87 68.5678 77.98 68.5678 74.44C68.5678 70.72 66.0178 67.99 61.8478 67.99H52.4878V88H56.7478V80.89H59.8678L63.7978 88H68.6878ZM61.2178 77.14H56.7478V71.74H61.2178C62.9278 71.74 64.2178 72.76 64.2178 74.44C64.2178 76.12 62.9278 77.14 61.2178 77.14ZM85.9252 88V84.25H76.0252V79.72H85.7152V75.97H76.0252V71.74H85.9252V67.99H71.7652V88H85.9252ZM107.791 88C111.601 88 113.611 85.6 113.611 82.6C113.611 80.08 111.901 78.01 109.771 77.68C111.661 77.29 113.221 75.61 113.221 73.09C113.221 70.42 111.271 67.99 107.461 67.99H96.9312V88H107.791ZM106.531 76H101.191V71.65H106.531C107.971 71.65 108.871 72.58 108.871 73.84C108.871 75.1 107.971 76 106.531 76ZM106.681 84.31H101.191V79.66H106.681C108.361 79.66 109.261 80.74 109.261 82C109.261 83.44 108.301 84.31 106.681 84.31ZM130.984 88V84.25H121.084V79.72H130.774V75.97H121.084V71.74H130.984V67.99H116.824V88H130.984ZM141.424 88.36C146.824 88.36 149.434 85.6 149.434 81.94C149.434 74.47 137.944 76.6 137.944 73.42C137.944 72.22 138.964 71.41 140.794 71.41C142.834 71.41 144.994 72.1 146.614 73.6L148.984 70.48C147.004 68.65 144.364 67.69 141.184 67.69C136.474 67.69 133.594 70.45 133.594 73.78C133.594 81.31 145.114 78.88 145.114 82.42C145.114 83.56 143.974 84.64 141.634 84.64C138.874 84.64 136.684 83.41 135.274 81.94L132.964 85.18C134.824 87.07 137.584 88.36 141.424 88.36ZM160.831 88V71.74H166.651V67.99H150.691V71.74H156.541V88H160.831ZM36.24 125V116.72H45.93V112.97H36.24V108.74H46.14V104.99H31.98V125H36.24ZM65.3187 125L60.8187 117.38C62.9787 116.87 65.1987 114.98 65.1987 111.44C65.1987 107.72 62.6487 104.99 58.4787 104.99H49.1187V125H53.3787V117.89H56.4987L60.4287 125H65.3187ZM57.8487 114.14H53.3787V108.74H57.8487C59.5587 108.74 60.8487 109.76 60.8487 111.44C60.8487 113.12 59.5587 114.14 57.8487 114.14ZM72.656 125V104.99H68.396V125H72.656ZM90.7884 125V121.25H80.8884V116.72H90.5784V112.97H80.8884V108.74H90.7884V104.99H76.6284V125H90.7884ZM112.029 125V104.99H107.769V117.56L98.4987 104.99H94.1187V125H98.3787V111.95L107.919 125H112.029ZM123.864 125C130.134 125 134.484 121.04 134.484 115.01C134.484 108.98 130.134 104.99 123.864 104.99H115.974V125H123.864ZM123.864 121.25H120.234V108.74H123.864C127.974 108.74 130.134 111.47 130.134 115.01C130.134 118.4 127.824 121.25 123.864 121.25ZM144.617 125.36C150.017 125.36 152.627 122.6 152.627 118.94C152.627 111.47 141.137 113.6 141.137 110.42C141.137 109.22 142.157 108.41 143.987 108.41C146.027 108.41 148.187 109.1 149.807 110.6L152.177 107.48C150.197 105.65 147.557 104.69 144.377 104.69C139.667 104.69 136.787 107.45 136.787 110.78C136.787 118.31 148.307 115.88 148.307 119.42C148.307 120.56 147.167 121.64 144.827 121.64C142.067 121.64 139.877 120.41 138.467 118.94L136.157 122.18C138.017 124.07 140.777 125.36 144.617 125.36ZM183.001 125L188.701 104.99H183.901L180.421 119.45L176.641 104.99H173.311L169.501 119.45L165.991 104.99H161.221L166.951 125H171.481L174.961 111.26L178.471 125H183.001ZM194.97 125V104.99H190.71V125H194.97ZM207.853 125V108.74H213.673V104.99H197.713V108.74H203.563V125H207.853ZM234.404 125V104.99H230.114V112.85H220.664V104.99H216.404V125H220.664V116.6H230.114V125H234.404Z" fill="white"/>
<path d="M33.7 162.24C36.44 162.24 38.4 160.78 38.4 157.62V148.66H35.56V157.58C35.56 158.88 34.74 159.72 33.48 159.72C32.56 159.72 31.88 159.26 31.36 158.76L30.12 160.94C31.08 161.88 32.36 162.24 33.7 162.24ZM49.3266 162V155.76C49.3266 152.98 47.3066 152.1 45.1066 152.1C43.5866 152.1 42.0666 152.58 40.8866 153.62L41.8466 155.32C42.6666 154.56 43.6266 154.18 44.6666 154.18C45.9466 154.18 46.7866 154.82 46.7866 155.8V157.1C46.1466 156.34 45.0066 155.92 43.7266 155.92C42.1866 155.92 40.3666 156.78 40.3666 159.04C40.3666 161.2 42.1866 162.24 43.7266 162.24C44.9866 162.24 46.1266 161.78 46.7866 161V162H49.3266ZM44.7466 160.52C43.7466 160.52 42.9266 160 42.9266 159.1C42.9266 158.16 43.7466 157.64 44.7466 157.64C45.5666 157.64 46.3666 157.92 46.7866 158.48V159.68C46.3666 160.24 45.5666 160.52 44.7466 160.52ZM61.2859 162L57.3459 156.72L61.1659 152.34H58.0459L54.3859 156.64V148.66H51.8459V162H54.3859V159.52L55.5459 158.28L58.1059 162H61.2859ZM66.9719 162.24C68.4719 162.24 69.9919 161.78 70.9519 160.9L69.8319 159.26C69.2119 159.86 68.0719 160.22 67.2519 160.22C65.6119 160.22 64.6319 159.2 64.4719 157.98H71.6519V157.42C71.6519 154.26 69.6919 152.1 66.8119 152.1C63.8719 152.1 61.8119 154.36 61.8119 157.16C61.8119 160.26 64.0319 162.24 66.9719 162.24ZM69.1919 156.26H64.4319C64.5519 155.3 65.2319 154.12 66.8119 154.12C68.4919 154.12 69.1319 155.34 69.1919 156.26ZM81.5038 162V157.26H84.9038C87.7838 157.26 89.3838 155.28 89.3838 152.96C89.3838 150.62 87.8038 148.66 84.9038 148.66H78.6637V162H81.5038ZM84.5238 154.76H81.5038V151.16H84.5238C85.6438 151.16 86.4838 151.84 86.4838 152.96C86.4838 154.06 85.6438 154.76 84.5238 154.76ZM99.0336 162V155.76C99.0336 152.98 97.0136 152.1 94.8136 152.1C93.2936 152.1 91.7736 152.58 90.5936 153.62L91.5536 155.32C92.3736 154.56 93.3336 154.18 94.3736 154.18C95.6536 154.18 96.4936 154.82 96.4936 155.8V157.1C95.8536 156.34 94.7136 155.92 93.4336 155.92C91.8936 155.92 90.0736 156.78 90.0736 159.04C90.0736 161.2 91.8936 162.24 93.4336 162.24C94.6936 162.24 95.8336 161.78 96.4936 161V162H99.0336ZM94.4536 160.52C93.4536 160.52 92.6336 160 92.6336 159.1C92.6336 158.16 93.4536 157.64 94.4536 157.64C95.2736 157.64 96.0736 157.92 96.4936 158.48V159.68C96.0736 160.24 95.2736 160.52 94.4536 160.52ZM110.613 162V152.34H108.073V158.88C107.633 159.44 106.853 159.98 105.873 159.98C104.793 159.98 104.093 159.54 104.093 158.2V152.34H101.553V159.2C101.553 161.08 102.553 162.24 104.673 162.24C106.253 162.24 107.413 161.52 108.073 160.78V162H110.613ZM115.675 162V148.66H113.135V162H115.675Z" fill="#4D57EA"/>
<path d="M131.052 160H129.456L128.868 158.464H125.196L124.608 160H123.012L126.156 151.996H127.908L131.052 160ZM128.472 157.228L127.032 153.412L125.592 157.228H128.472ZM137.062 160H135.802V156.376C135.802 155.576 135.414 155.176 134.638 155.176C134.334 155.176 134.05 155.252 133.786 155.404C133.522 155.556 133.31 155.74 133.15 155.956V160H131.89V154.204H133.15V154.996C133.366 154.74 133.654 154.52 134.014 154.336C134.374 154.152 134.766 154.06 135.19 154.06C135.806 154.06 136.27 154.22 136.582 154.54C136.902 154.86 137.062 155.32 137.062 155.92V160ZM140.439 160.144C139.951 160.144 139.579 160.016 139.323 159.76C139.075 159.504 138.951 159.136 138.951 158.656V155.308H137.991V154.204H138.951V152.62H140.211V154.204H141.387V155.308H140.211V158.344C140.211 158.552 140.259 158.72 140.355 158.848C140.451 158.968 140.587 159.028 140.763 159.028C141.019 159.028 141.207 158.96 141.327 158.824L141.627 159.772C141.363 160.02 140.967 160.144 140.439 160.144ZM143.155 153.496C142.947 153.496 142.763 153.42 142.603 153.268C142.451 153.116 142.375 152.932 142.375 152.716C142.375 152.5 142.451 152.316 142.603 152.164C142.763 152.012 142.947 151.936 143.155 151.936C143.371 151.936 143.555 152.012 143.707 152.164C143.859 152.316 143.935 152.5 143.935 152.716C143.935 152.932 143.859 153.116 143.707 153.268C143.555 153.42 143.371 153.496 143.155 153.496ZM143.791 160H142.531V154.204H143.791V160ZM149.947 160H148.543V151.996H154.027V153.232H149.947V155.308H153.943V156.544H149.947V160ZM160.418 160H159.158V159.232C158.614 159.84 157.93 160.144 157.106 160.144C155.866 160.144 155.246 159.532 155.246 158.308V154.204H156.506V157.852C156.506 158.276 156.606 158.58 156.806 158.764C157.006 158.94 157.294 159.028 157.67 159.028C157.974 159.028 158.258 158.956 158.522 158.812C158.786 158.668 158.998 158.488 159.158 158.272V154.204H160.418V160ZM167.226 160H165.966V156.376C165.966 155.576 165.578 155.176 164.802 155.176C164.498 155.176 164.214 155.252 163.95 155.404C163.686 155.556 163.474 155.74 163.314 155.956V160H162.054V154.204H163.314V154.996C163.53 154.74 163.818 154.52 164.178 154.336C164.538 154.152 164.93 154.06 165.354 154.06C165.97 154.06 166.434 154.22 166.746 154.54C167.066 154.86 167.226 155.32 167.226 155.92V160ZM174.203 160H172.943V159.208C172.463 159.832 171.843 160.144 171.083 160.144C170.323 160.144 169.703 159.872 169.223 159.328C168.743 158.784 168.503 158.044 168.503 157.108C168.503 156.18 168.743 155.44 169.223 154.888C169.703 154.336 170.323 154.06 171.083 154.06C171.843 154.06 172.463 154.376 172.943 155.008V151.996H174.203V160ZM171.443 159.028C171.739 159.028 172.027 158.956 172.307 158.812C172.587 158.668 172.799 158.484 172.943 158.26V155.956C172.799 155.732 172.587 155.548 172.307 155.404C172.027 155.252 171.739 155.176 171.443 155.176C170.947 155.176 170.551 155.356 170.255 155.716C169.959 156.076 169.811 156.54 169.811 157.108C169.811 157.676 169.959 158.14 170.255 158.5C170.551 158.852 170.947 159.028 171.443 159.028Z" fill="#4D57EA" fill-opacity="0.6"/>
<rect x="30" y="167" width="86" height="1" fill="#4D57EA"/>
<path d="M43.76 205L38.62 191.66H35.06L29.9 205H33.14L33.98 202.74H39.7L40.52 205H43.76ZM38.92 200.24H34.76L36.84 194.5L38.92 200.24ZM48.4119 205.24C51.0919 205.24 52.5919 203.9 52.5919 202.14C52.5919 198.24 46.8719 199.44 46.8719 198C46.8719 197.46 47.4719 197.04 48.3919 197.04C49.5719 197.04 50.6719 197.54 51.2519 198.16L52.2719 196.42C51.3119 195.66 50.0119 195.1 48.3719 195.1C45.8319 195.1 44.4119 196.52 44.4119 198.14C44.4119 201.94 50.1519 200.64 50.1519 202.24C50.1519 202.84 49.6319 203.28 48.5319 203.28C47.3319 203.28 45.8919 202.62 45.1919 201.96L44.0919 203.74C45.1119 204.68 46.7319 205.24 48.4119 205.24ZM63.5431 205V198.14C63.5431 196.26 62.5231 195.1 60.4031 195.1C58.8231 195.1 57.6231 195.86 57.0031 196.6V191.66H54.4631V205H57.0031V198.5C57.4431 197.92 58.2231 197.36 59.2031 197.36C60.3031 197.36 61.0031 197.78 61.0031 199.12V205H63.5431ZM69.3047 205.24C70.3647 205.24 71.0447 204.96 71.4247 204.62L70.8847 202.7C70.7447 202.84 70.3847 202.98 70.0047 202.98C69.4447 202.98 69.1247 202.52 69.1247 201.92V197.56H71.0847V195.34H69.1247V192.7H66.5647V195.34H64.9647V197.56H66.5647V202.6C66.5647 204.32 67.5247 205.24 69.3047 205.24ZM77.3025 205.24C80.5025 205.24 82.4225 202.92 82.4225 200.16C82.4225 197.42 80.5025 195.1 77.3025 195.1C74.1225 195.1 72.2025 197.42 72.2025 200.16C72.2025 202.92 74.1225 205.24 77.3025 205.24ZM77.3025 202.98C75.7225 202.98 74.8425 201.68 74.8425 200.16C74.8425 198.66 75.7225 197.36 77.3025 197.36C78.8825 197.36 79.7825 198.66 79.7825 200.16C79.7825 201.68 78.8825 202.98 77.3025 202.98ZM93.3669 205V198.18C93.3669 196.3 92.3469 195.1 90.2269 195.1C88.6469 195.1 87.4669 195.86 86.8469 196.6V195.34H84.3069V205H86.8469V198.5C87.2669 197.92 88.0469 197.36 89.0469 197.36C90.1269 197.36 90.8269 197.82 90.8269 199.16V205H93.3669ZM112.486 205L106.826 197.92L112.126 191.66H108.626L103.906 197.62V191.66H101.066V205H103.906V200.9L104.946 199.66L108.986 205H112.486ZM122.39 205V195.34H119.85V201.88C119.41 202.44 118.63 202.98 117.65 202.98C116.57 202.98 115.87 202.54 115.87 201.2V195.34H113.33V202.2C113.33 204.08 114.33 205.24 116.45 205.24C118.03 205.24 119.19 204.52 119.85 203.78V205H122.39ZM128.152 205.24C129.212 205.24 129.892 204.96 130.272 204.62L129.732 202.7C129.592 202.84 129.232 202.98 128.852 202.98C128.292 202.98 127.972 202.52 127.972 201.92V197.56H129.932V195.34H127.972V192.7H125.412V195.34H123.812V197.56H125.412V202.6C125.412 204.32 126.372 205.24 128.152 205.24ZM136.17 205.24C138.15 205.24 139.35 204.38 139.99 203.48L138.33 201.94C137.87 202.58 137.17 202.98 136.29 202.98C134.75 202.98 133.67 201.84 133.67 200.16C133.67 198.48 134.75 197.36 136.29 197.36C137.17 197.36 137.87 197.72 138.33 198.4L139.99 196.84C139.35 195.96 138.15 195.1 136.17 195.1C133.19 195.1 131.05 197.2 131.05 200.16C131.05 203.14 133.19 205.24 136.17 205.24ZM150.731 205V198.14C150.731 196.26 149.711 195.1 147.591 195.1C146.011 195.1 144.811 195.86 144.191 196.6V191.66H141.651V205H144.191V198.5C144.631 197.92 145.411 197.36 146.391 197.36C147.491 197.36 148.191 197.78 148.191 199.12V205H150.731ZM157.792 205.24C159.292 205.24 160.812 204.78 161.772 203.9L160.652 202.26C160.032 202.86 158.892 203.22 158.072 203.22C156.432 203.22 155.452 202.2 155.292 200.98H162.472V200.42C162.472 197.26 160.512 195.1 157.632 195.1C154.692 195.1 152.632 197.36 152.632 200.16C152.632 203.26 154.852 205.24 157.792 205.24ZM160.012 199.26H155.252C155.372 198.3 156.052 197.12 157.632 197.12C159.312 197.12 159.952 198.34 160.012 199.26ZM166.847 205V198.62C167.267 198 168.387 197.52 169.227 197.52C169.507 197.52 169.747 197.54 169.927 197.58V195.1C168.727 195.1 167.527 195.8 166.847 196.66V195.34H164.307V205H166.847Z" fill="#0074D9"/>
<path d="M180.588 204.144C179.212 204.144 178.128 203.72 177.336 202.872L178.116 201.792C178.804 202.528 179.648 202.896 180.648 202.896C181.184 202.896 181.584 202.788 181.848 202.572C182.12 202.356 182.256 202.1 182.256 201.804C182.256 201.5 182.096 201.26 181.776 201.084C181.456 200.9 181.068 200.756 180.612 200.652C180.156 200.548 179.696 200.424 179.232 200.28C178.776 200.136 178.388 199.892 178.068 199.548C177.748 199.204 177.588 198.76 177.588 198.216C177.588 197.544 177.856 196.988 178.392 196.548C178.936 196.1 179.64 195.876 180.504 195.876C181.736 195.876 182.736 196.248 183.504 196.992L182.7 198.036C182.092 197.428 181.32 197.124 180.384 197.124C179.968 197.124 179.636 197.216 179.388 197.4C179.148 197.576 179.028 197.816 179.028 198.12C179.028 198.32 179.112 198.488 179.28 198.624C179.456 198.76 179.68 198.872 179.952 198.96C180.224 199.04 180.524 199.12 180.852 199.2C181.188 199.28 181.52 199.38 181.848 199.5C182.184 199.612 182.488 199.752 182.76 199.92C183.032 200.088 183.252 200.32 183.42 200.616C183.596 200.912 183.684 201.264 183.684 201.672C183.684 202.392 183.424 202.984 182.904 203.448C182.384 203.912 181.612 204.144 180.588 204.144ZM187.557 204.144C186.661 204.144 185.941 203.852 185.397 203.268C184.853 202.676 184.581 201.952 184.581 201.096C184.581 200.24 184.853 199.52 185.397 198.936C185.941 198.352 186.661 198.06 187.557 198.06C188.461 198.06 189.185 198.352 189.729 198.936C190.273 199.52 190.545 200.24 190.545 201.096C190.545 201.96 190.273 202.684 189.729 203.268C189.185 203.852 188.461 204.144 187.557 204.144ZM187.557 203.028C188.077 203.028 188.485 202.844 188.781 202.476C189.085 202.1 189.237 201.64 189.237 201.096C189.237 200.56 189.085 200.108 188.781 199.74C188.485 199.364 188.077 199.176 187.557 199.176C187.045 199.176 186.637 199.364 186.333 199.74C186.037 200.108 185.889 200.56 185.889 201.096C185.889 201.64 186.037 202.1 186.333 202.476C186.637 202.844 187.045 203.028 187.557 203.028ZM196.992 204H195.732V203.232C195.188 203.84 194.504 204.144 193.68 204.144C192.44 204.144 191.82 203.532 191.82 202.308V198.204H193.08V201.852C193.08 202.276 193.18 202.58 193.38 202.764C193.58 202.94 193.868 203.028 194.244 203.028C194.548 203.028 194.832 202.956 195.096 202.812C195.36 202.668 195.572 202.488 195.732 202.272V198.204H196.992V204ZM203.801 204H202.541V200.376C202.541 199.576 202.153 199.176 201.377 199.176C201.073 199.176 200.789 199.252 200.525 199.404C200.261 199.556 200.049 199.74 199.889 199.956V204H198.629V198.204H199.889V198.996C200.105 198.74 200.393 198.52 200.753 198.336C201.113 198.152 201.505 198.06 201.929 198.06C202.545 198.06 203.009 198.22 203.321 198.54C203.641 198.86 203.801 199.32 203.801 199.92V204ZM210.777 204H209.517V203.208C209.037 203.832 208.417 204.144 207.657 204.144C206.897 204.144 206.277 203.872 205.797 203.328C205.317 202.784 205.077 202.044 205.077 201.108C205.077 200.18 205.317 199.44 205.797 198.888C206.277 198.336 206.897 198.06 207.657 198.06C208.417 198.06 209.037 198.376 209.517 199.008V195.996H210.777V204ZM208.017 203.028C208.313 203.028 208.601 202.956 208.881 202.812C209.161 202.668 209.373 202.484 209.517 202.26V199.956C209.373 199.732 209.161 199.548 208.881 199.404C208.601 199.252 208.313 199.176 208.017 199.176C207.521 199.176 207.125 199.356 206.829 199.716C206.533 200.076 206.385 200.54 206.385 201.108C206.385 201.676 206.533 202.14 206.829 202.5C207.125 202.852 207.521 203.028 208.017 203.028ZM219.584 204H217.832L214.688 195.996H216.284L218.708 202.476L221.132 195.996H222.728L219.584 204ZM225.527 204.144C224.647 204.144 223.919 203.864 223.343 203.304C222.775 202.736 222.491 202 222.491 201.096C222.491 200.248 222.767 199.532 223.319 198.948C223.879 198.356 224.583 198.06 225.431 198.06C226.287 198.06 226.975 198.356 227.495 198.948C228.023 199.54 228.287 200.296 228.287 201.216V201.516H223.811C223.859 201.972 224.047 202.352 224.375 202.656C224.703 202.96 225.131 203.112 225.659 203.112C225.955 203.112 226.251 203.056 226.547 202.944C226.851 202.832 227.103 202.676 227.303 202.476L227.879 203.304C227.295 203.864 226.511 204.144 225.527 204.144ZM227.063 200.628C227.047 200.228 226.899 199.872 226.619 199.56C226.347 199.248 225.951 199.092 225.431 199.092C224.935 199.092 224.547 199.248 224.267 199.56C223.987 199.864 223.831 200.22 223.799 200.628H227.063ZM234.703 204H233.443V200.376C233.443 199.576 233.055 199.176 232.279 199.176C231.975 199.176 231.691 199.252 231.427 199.404C231.163 199.556 230.951 199.74 230.791 199.956V204H229.531V198.204H230.791V198.996C231.007 198.74 231.295 198.52 231.655 198.336C232.015 198.152 232.407 198.06 232.831 198.06C233.447 198.06 233.911 198.22 234.223 198.54C234.543 198.86 234.703 199.32 234.703 199.92V204ZM238.079 204.144C237.591 204.144 237.219 204.016 236.963 203.76C236.715 203.504 236.591 203.136 236.591 202.656V199.308H235.631V198.204H236.591V196.62H237.851V198.204H239.027V199.308H237.851V202.344C237.851 202.552 237.899 202.72 237.995 202.848C238.091 202.968 238.227 203.028 238.403 203.028C238.659 203.028 238.847 202.96 238.967 202.824L239.267 203.772C239.003 204.02 238.607 204.144 238.079 204.144ZM245.343 204H244.083V203.232C243.539 203.84 242.855 204.144 242.031 204.144C240.791 204.144 240.171 203.532 240.171 202.308V198.204H241.431V201.852C241.431 202.276 241.531 202.58 241.731 202.764C241.931 202.94 242.219 203.028 242.595 203.028C242.899 203.028 243.183 202.956 243.447 202.812C243.711 202.668 243.923 202.488 244.083 202.272V198.204H245.343V204ZM248.24 204H246.98V198.204H248.24V199.056C248.464 198.768 248.744 198.532 249.08 198.348C249.416 198.164 249.764 198.072 250.124 198.072V199.32C250.012 199.296 249.88 199.284 249.728 199.284C249.464 199.284 249.18 199.364 248.876 199.524C248.58 199.676 248.368 199.852 248.24 200.052V204ZM253.816 204.144C252.936 204.144 252.208 203.864 251.632 203.304C251.064 202.736 250.78 202 250.78 201.096C250.78 200.248 251.056 199.532 251.608 198.948C252.168 198.356 252.872 198.06 253.72 198.06C254.576 198.06 255.264 198.356 255.784 198.948C256.312 199.54 256.576 200.296 256.576 201.216V201.516H252.1C252.148 201.972 252.336 202.352 252.664 202.656C252.992 202.96 253.42 203.112 253.948 203.112C254.244 203.112 254.54 203.056 254.836 202.944C255.14 202.832 255.392 202.676 255.592 202.476L256.168 203.304C255.584 203.864 254.8 204.144 253.816 204.144ZM255.352 200.628C255.336 200.228 255.188 199.872 254.908 199.56C254.636 199.248 254.24 199.092 253.72 199.092C253.224 199.092 252.836 199.248 252.556 199.56C252.276 199.864 252.12 200.22 252.088 200.628H255.352ZM259.8 204.144C258.76 204.144 257.932 203.844 257.316 203.244L257.892 202.332C258.108 202.556 258.4 202.748 258.768 202.908C259.136 203.068 259.5 203.148 259.86 203.148C260.228 203.148 260.508 203.076 260.7 202.932C260.9 202.788 261 202.6 261 202.368C261 202.16 260.88 202 260.64 201.888C260.4 201.768 260.108 201.676 259.764 201.612C259.42 201.54 259.076 201.456 258.732 201.36C258.388 201.256 258.096 201.076 257.856 200.82C257.616 200.564 257.496 200.232 257.496 199.824C257.496 199.328 257.7 198.912 258.108 198.576C258.516 198.232 259.072 198.06 259.776 198.06C260.664 198.06 261.416 198.332 262.032 198.876L261.504 199.764C261.32 199.556 261.076 199.388 260.772 199.26C260.468 199.132 260.14 199.068 259.788 199.068C259.46 199.068 259.196 199.136 258.996 199.272C258.804 199.4 258.708 199.568 258.708 199.776C258.708 199.936 258.792 200.068 258.96 200.172C259.136 200.268 259.352 200.34 259.608 200.388C259.872 200.436 260.156 200.504 260.46 200.592C260.764 200.672 261.044 200.768 261.3 200.88C261.564 200.992 261.78 201.176 261.948 201.432C262.124 201.68 262.212 201.984 262.212 202.344C262.212 202.872 262 203.304 261.576 203.64C261.152 203.976 260.56 204.144 259.8 204.144Z" fill="#0074D9" fill-opacity="0.6"/>
<rect x="30" y="210" width="140" height="1" fill="#0074D9"/>
<path d="M42.74 248L37.08 240.92L42.38 234.66H38.88L34.16 240.62V234.66H31.32V248H34.16V243.9L35.2 242.66L39.24 248H42.74ZM47.968 248.24C49.468 248.24 50.988 247.78 51.948 246.9L50.828 245.26C50.208 245.86 49.068 246.22 48.248 246.22C46.608 246.22 45.628 245.2 45.468 243.98H52.648V243.42C52.648 240.26 50.688 238.1 47.808 238.1C44.868 238.1 42.808 240.36 42.808 243.16C42.808 246.26 45.028 248.24 47.968 248.24ZM50.188 242.26H45.428C45.548 241.3 46.228 240.12 47.808 240.12C49.488 240.12 50.128 241.34 50.188 242.26ZM59.7227 248L63.6027 238.34H60.8627L58.3427 245.06L55.8227 238.34H53.1027L56.9827 248H59.7227ZM65.9966 237.3C66.8366 237.3 67.5166 236.62 67.5166 235.78C67.5166 234.94 66.8366 234.28 65.9966 234.28C65.1766 234.28 64.4766 234.94 64.4766 235.78C64.4766 236.62 65.1766 237.3 65.9966 237.3ZM67.2766 248V238.34H64.7366V248H67.2766ZM78.8552 248V241.18C78.8552 239.3 77.8352 238.1 75.7152 238.1C74.1352 238.1 72.9552 238.86 72.3352 239.6V238.34H69.7952V248H72.3352V241.5C72.7552 240.92 73.5352 240.36 74.5352 240.36C75.6152 240.36 76.3152 240.82 76.3152 242.16V248H78.8552ZM91.8144 248C95.9944 248 98.8944 245.36 98.8944 241.34C98.8944 237.32 95.9944 234.66 91.8144 234.66H86.5544V248H91.8144ZM91.8144 245.5H89.3944V237.16H91.8144C94.5544 237.16 95.9944 238.98 95.9944 241.34C95.9944 243.6 94.4544 245.5 91.8144 245.5ZM109.91 248V238.34H107.37V244.88C106.93 245.44 106.15 245.98 105.17 245.98C104.09 245.98 103.39 245.54 103.39 244.2V238.34H100.85V245.2C100.85 247.08 101.85 248.24 103.97 248.24C105.55 248.24 106.71 247.52 107.37 246.78V248H109.91ZM114.972 248V241.62C115.392 241 116.512 240.52 117.352 240.52C117.632 240.52 117.872 240.54 118.052 240.58V238.1C116.852 238.1 115.652 238.8 114.972 239.66V238.34H112.432V248H114.972ZM127.979 248V241.76C127.979 238.98 125.959 238.1 123.759 238.1C122.239 238.1 120.719 238.58 119.539 239.62L120.499 241.32C121.319 240.56 122.279 240.18 123.319 240.18C124.599 240.18 125.439 240.82 125.439 241.8V243.1C124.799 242.34 123.659 241.92 122.379 241.92C120.839 241.92 119.019 242.78 119.019 245.04C119.019 247.2 120.839 248.24 122.379 248.24C123.639 248.24 124.779 247.78 125.439 247V248H127.979ZM123.399 246.52C122.399 246.52 121.579 246 121.579 245.1C121.579 244.16 122.399 243.64 123.399 243.64C124.219 243.64 125.019 243.92 125.439 244.48V245.68C125.019 246.24 124.219 246.52 123.399 246.52ZM139.558 248V241.18C139.558 239.3 138.538 238.1 136.418 238.1C134.838 238.1 133.658 238.86 133.038 239.6V238.34H130.498V248H133.038V241.5C133.458 240.92 134.238 240.36 135.238 240.36C136.318 240.36 137.018 240.82 137.018 242.16V248H139.558ZM145.32 248.24C146.38 248.24 147.06 247.96 147.44 247.62L146.9 245.7C146.76 245.84 146.4 245.98 146.02 245.98C145.46 245.98 145.14 245.52 145.14 244.92V240.56H147.1V238.34H145.14V235.7H142.58V238.34H140.98V240.56H142.58V245.6C142.58 247.32 143.54 248.24 145.32 248.24Z" fill="#FFA33D"/>
<path d="M161.164 247H159.76V240.232H157.336V238.996H163.588V240.232H161.164V247ZM169.926 247H168.666V243.352C168.666 242.928 168.562 242.628 168.354 242.452C168.154 242.268 167.866 242.176 167.49 242.176C167.194 242.176 166.914 242.252 166.65 242.404C166.386 242.556 166.17 242.74 166.002 242.956V247H164.742V238.996H166.002V241.996C166.218 241.74 166.506 241.52 166.866 241.336C167.234 241.152 167.63 241.06 168.054 241.06C169.302 241.06 169.926 241.672 169.926 242.896V247ZM172.186 240.496C171.978 240.496 171.794 240.42 171.634 240.268C171.482 240.116 171.406 239.932 171.406 239.716C171.406 239.5 171.482 239.316 171.634 239.164C171.794 239.012 171.978 238.936 172.186 238.936C172.402 238.936 172.586 239.012 172.738 239.164C172.89 239.316 172.966 239.5 172.966 239.716C172.966 239.932 172.89 240.116 172.738 240.268C172.586 240.42 172.402 240.496 172.186 240.496ZM172.822 247H171.562V241.204H172.822V247ZM175.717 247H174.457V241.204H175.717V242.056C175.941 241.768 176.221 241.532 176.557 241.348C176.893 241.164 177.241 241.072 177.601 241.072V242.32C177.489 242.296 177.357 242.284 177.205 242.284C176.941 242.284 176.657 242.364 176.353 242.524C176.057 242.676 175.845 242.852 175.717 243.052V247ZM180.357 247.144C179.869 247.144 179.497 247.016 179.241 246.76C178.993 246.504 178.869 246.136 178.869 245.656V242.308H177.909V241.204H178.869V239.62H180.129V241.204H181.305V242.308H180.129V245.344C180.129 245.552 180.177 245.72 180.273 245.848C180.369 245.968 180.505 246.028 180.681 246.028C180.937 246.028 181.125 245.96 181.245 245.824L181.545 246.772C181.281 247.02 180.885 247.144 180.357 247.144ZM182.197 249.268L182.389 248.14C182.533 248.204 182.693 248.236 182.869 248.236C183.277 248.236 183.553 248.068 183.697 247.732L183.985 247.072L181.609 241.204H182.953L184.645 245.548L186.337 241.204H187.693L184.897 248.044C184.553 248.9 183.889 249.336 182.905 249.352C182.641 249.352 182.405 249.324 182.197 249.268ZM193.006 247H191.602V238.996H197.086V240.232H193.006V242.308H197.002V243.544H193.006V247ZM198.928 240.496C198.72 240.496 198.536 240.42 198.376 240.268C198.224 240.116 198.148 239.932 198.148 239.716C198.148 239.5 198.224 239.316 198.376 239.164C198.536 239.012 198.72 238.936 198.928 238.936C199.144 238.936 199.328 239.012 199.48 239.164C199.632 239.316 199.708 239.5 199.708 239.716C199.708 239.932 199.632 240.116 199.48 240.268C199.328 240.42 199.144 240.496 198.928 240.496ZM199.564 247H198.304V241.204H199.564V247ZM204.079 247H202.723L200.359 241.204H201.703L203.395 245.548L205.087 241.204H206.443L204.079 247ZM209.91 247.144C209.03 247.144 208.302 246.864 207.726 246.304C207.158 245.736 206.874 245 206.874 244.096C206.874 243.248 207.15 242.532 207.702 241.948C208.262 241.356 208.966 241.06 209.814 241.06C210.67 241.06 211.358 241.356 211.878 241.948C212.406 242.54 212.67 243.296 212.67 244.216V244.516H208.194C208.242 244.972 208.43 245.352 208.758 245.656C209.086 245.96 209.514 246.112 210.042 246.112C210.338 246.112 210.634 246.056 210.93 245.944C211.234 245.832 211.486 245.676 211.686 245.476L212.262 246.304C211.678 246.864 210.894 247.144 209.91 247.144ZM211.446 243.628C211.43 243.228 211.282 242.872 211.002 242.56C210.73 242.248 210.334 242.092 209.814 242.092C209.318 242.092 208.93 242.248 208.65 242.56C208.37 242.864 208.214 243.22 208.182 243.628H211.446ZM221.088 247H219.336L216.192 238.996H217.788L220.212 245.476L222.636 238.996H224.232L221.088 247ZM227.031 247.144C226.151 247.144 225.423 246.864 224.847 246.304C224.279 245.736 223.995 245 223.995 244.096C223.995 243.248 224.271 242.532 224.823 241.948C225.383 241.356 226.087 241.06 226.935 241.06C227.791 241.06 228.479 241.356 228.999 241.948C229.527 242.54 229.791 243.296 229.791 244.216V244.516H225.315C225.363 244.972 225.551 245.352 225.879 245.656C226.207 245.96 226.635 246.112 227.163 246.112C227.459 246.112 227.755 246.056 228.051 245.944C228.355 245.832 228.607 245.676 228.807 245.476L229.383 246.304C228.799 246.864 228.015 247.144 227.031 247.144ZM228.567 243.628C228.551 243.228 228.403 242.872 228.123 242.56C227.851 242.248 227.455 242.092 226.935 242.092C226.439 242.092 226.051 242.248 225.771 242.56C225.491 242.864 225.335 243.22 225.303 243.628H228.567ZM236.207 247H234.947V243.376C234.947 242.576 234.559 242.176 233.783 242.176C233.479 242.176 233.195 242.252 232.931 242.404C232.667 242.556 232.455 242.74 232.295 242.956V247H231.035V241.204H232.295V241.996C232.511 241.74 232.799 241.52 233.159 241.336C233.519 241.152 233.911 241.06 234.335 241.06C234.951 241.06 235.415 241.22 235.727 241.54C236.047 241.86 236.207 242.32 236.207 242.92V247ZM239.583 247.144C239.095 247.144 238.723 247.016 238.467 246.76C238.219 246.504 238.095 246.136 238.095 245.656V242.308H237.135V241.204H238.095V239.62H239.355V241.204H240.531V242.308H239.355V245.344C239.355 245.552 239.403 245.72 239.499 245.848C239.595 245.968 239.731 246.028 239.907 246.028C240.163 246.028 240.351 245.96 240.471 245.824L240.771 246.772C240.507 247.02 240.111 247.144 239.583 247.144ZM246.847 247H245.587V246.232C245.043 246.84 244.359 247.144 243.535 247.144C242.295 247.144 241.675 246.532 241.675 245.308V241.204H242.935V244.852C242.935 245.276 243.035 245.58 243.235 245.764C243.435 245.94 243.723 246.028 244.099 246.028C244.403 246.028 244.687 245.956 244.951 245.812C245.215 245.668 245.427 245.488 245.587 245.272V241.204H246.847V247ZM249.744 247H248.484V241.204H249.744V242.056C249.968 241.768 250.248 241.532 250.584 241.348C250.92 241.164 251.268 241.072 251.628 241.072V242.32C251.516 242.296 251.384 242.284 251.232 242.284C250.968 242.284 250.684 242.364 250.38 242.524C250.084 242.676 249.872 242.852 249.744 243.052V247ZM255.32 247.144C254.44 247.144 253.712 246.864 253.136 246.304C252.568 245.736 252.284 245 252.284 244.096C252.284 243.248 252.56 242.532 253.112 241.948C253.672 241.356 254.376 241.06 255.224 241.06C256.08 241.06 256.768 241.356 257.288 241.948C257.816 242.54 258.08 243.296 258.08 244.216V244.516H253.604C253.652 244.972 253.84 245.352 254.168 245.656C254.496 245.96 254.924 246.112 255.452 246.112C255.748 246.112 256.044 246.056 256.34 245.944C256.644 245.832 256.896 245.676 257.096 245.476L257.672 246.304C257.088 246.864 256.304 247.144 255.32 247.144ZM256.856 243.628C256.84 243.228 256.692 242.872 256.412 242.56C256.14 242.248 255.744 242.092 255.224 242.092C254.728 242.092 254.34 242.248 254.06 242.56C253.78 242.864 253.624 243.22 253.592 243.628H256.856ZM261.304 247.144C260.264 247.144 259.436 246.844 258.82 246.244L259.396 245.332C259.612 245.556 259.904 245.748 260.272 245.908C260.64 246.068 261.004 246.148 261.364 246.148C261.732 246.148 262.012 246.076 262.204 245.932C262.404 245.788 262.504 245.6 262.504 245.368C262.504 245.16 262.384 245 262.144 244.888C261.904 244.768 261.612 244.676 261.268 244.612C260.924 244.54 260.58 244.456 260.236 244.36C259.892 244.256 259.6 244.076 259.36 243.82C259.12 243.564 259 243.232 259 242.824C259 242.328 259.204 241.912 259.612 241.576C260.02 241.232 260.576 241.06 261.28 241.06C262.168 241.06 262.92 241.332 263.536 241.876L263.008 242.764C262.824 242.556 262.58 242.388 262.276 242.26C261.972 242.132 261.644 242.068 261.292 242.068C260.964 242.068 260.7 242.136 260.5 242.272C260.308 242.4 260.212 242.568 260.212 242.776C260.212 242.936 260.296 243.068 260.464 243.172C260.64 243.268 260.856 243.34 261.112 243.388C261.376 243.436 261.66 243.504 261.964 243.592C262.268 243.672 262.548 243.768 262.804 243.88C263.068 243.992 263.284 244.176 263.452 244.432C263.628 244.68 263.716 244.984 263.716 245.344C263.716 245.872 263.504 246.304 263.08 246.64C262.656 246.976 262.064 247.144 261.304 247.144Z" fill="#FFA33D"/>
<rect x="30" y="253" width="118" height="1" fill="#FFA33D"/>
<path d="M37.26 291V280.16H41.14V277.66H30.5V280.16H34.4V291H37.26ZM44.0734 291V284.62C44.4934 284 45.6134 283.52 46.4534 283.52C46.7334 283.52 46.9734 283.54 47.1534 283.58V281.1C45.9534 281.1 44.7534 281.8 44.0734 282.66V281.34H41.5334V291H44.0734ZM57.0805 291V284.76C57.0805 281.98 55.0605 281.1 52.8605 281.1C51.3405 281.1 49.8205 281.58 48.6405 282.62L49.6005 284.32C50.4205 283.56 51.3805 283.18 52.4205 283.18C53.7005 283.18 54.5405 283.82 54.5405 284.8V286.1C53.9005 285.34 52.7605 284.92 51.4805 284.92C49.9405 284.92 48.1205 285.78 48.1205 288.04C48.1205 290.2 49.9405 291.24 51.4805 291.24C52.7405 291.24 53.8805 290.78 54.5405 290V291H57.0805ZM52.5005 289.52C51.5005 289.52 50.6805 289 50.6805 288.1C50.6805 287.16 51.5005 286.64 52.5005 286.64C53.3205 286.64 54.1205 286.92 54.5405 287.48V288.68C54.1205 289.24 53.3205 289.52 52.5005 289.52ZM64.8398 291L68.7198 281.34H65.9798L63.4598 288.06L60.9398 281.34H58.2198L62.0998 291H64.8398ZM71.1138 280.3C71.9538 280.3 72.6338 279.62 72.6338 278.78C72.6338 277.94 71.9538 277.28 71.1138 277.28C70.2938 277.28 69.5938 277.94 69.5938 278.78C69.5938 279.62 70.2938 280.3 71.1138 280.3ZM72.3938 291V281.34H69.8538V291H72.3938ZM78.3923 291.24C81.0723 291.24 82.5723 289.9 82.5723 288.14C82.5723 284.24 76.8523 285.44 76.8523 284C76.8523 283.46 77.4523 283.04 78.3723 283.04C79.5523 283.04 80.6523 283.54 81.2323 284.16L82.2523 282.42C81.2923 281.66 79.9923 281.1 78.3523 281.1C75.8123 281.1 74.3923 282.52 74.3923 284.14C74.3923 287.94 80.1323 286.64 80.1323 288.24C80.1323 288.84 79.6123 289.28 78.5123 289.28C77.3123 289.28 75.8723 288.62 75.1723 287.96L74.0723 289.74C75.0923 290.68 76.7123 291.24 78.3923 291.24ZM101.041 291L95.3808 283.92L100.681 277.66H97.1808L92.4608 283.62V277.66H89.6208V291H92.4608V286.9L93.5008 285.66L97.5408 291H101.041ZM110.342 291V284.76C110.342 281.98 108.322 281.1 106.122 281.1C104.602 281.1 103.082 281.58 101.902 282.62L102.862 284.32C103.682 283.56 104.642 283.18 105.682 283.18C106.962 283.18 107.802 283.82 107.802 284.8V286.1C107.162 285.34 106.022 284.92 104.742 284.92C103.202 284.92 101.382 285.78 101.382 288.04C101.382 290.2 103.202 291.24 104.742 291.24C106.002 291.24 107.142 290.78 107.802 290V291H110.342ZM105.762 289.52C104.762 289.52 103.942 289 103.942 288.1C103.942 287.16 104.762 286.64 105.762 286.64C106.582 286.64 107.382 286.92 107.802 287.48V288.68C107.382 289.24 106.582 289.52 105.762 289.52ZM115.402 291V277.66H112.862V291H115.402ZM126.26 291V284.76C126.26 281.98 124.24 281.1 122.04 281.1C120.52 281.1 119 281.58 117.82 282.62L118.78 284.32C119.6 283.56 120.56 283.18 121.6 283.18C122.88 283.18 123.72 283.82 123.72 284.8V286.1C123.08 285.34 121.94 284.92 120.66 284.92C119.12 284.92 117.3 285.78 117.3 288.04C117.3 290.2 119.12 291.24 120.66 291.24C121.92 291.24 123.06 290.78 123.72 290V291H126.26ZM121.68 289.52C120.68 289.52 119.86 289 119.86 288.1C119.86 287.16 120.68 286.64 121.68 286.64C122.5 286.64 123.3 286.92 123.72 287.48V288.68C123.3 289.24 122.5 289.52 121.68 289.52ZM137.84 291V284.18C137.84 282.3 136.82 281.1 134.7 281.1C133.12 281.1 131.94 281.86 131.32 282.6V281.34H128.78V291H131.32V284.5C131.74 283.92 132.52 283.36 133.52 283.36C134.6 283.36 135.3 283.82 135.3 285.16V291H137.84ZM141.622 280.3C142.462 280.3 143.142 279.62 143.142 278.78C143.142 277.94 142.462 277.28 141.622 277.28C140.802 277.28 140.102 277.94 140.102 278.78C140.102 279.62 140.802 280.3 141.622 280.3ZM142.902 291V281.34H140.362V291H142.902ZM149.92 291.24C151.9 291.24 153.1 290.38 153.74 289.48L152.08 287.94C151.62 288.58 150.92 288.98 150.04 288.98C148.5 288.98 147.42 287.84 147.42 286.16C147.42 284.48 148.5 283.36 150.04 283.36C150.92 283.36 151.62 283.72 152.08 284.4L153.74 282.84C153.1 281.96 151.9 281.1 149.92 281.1C146.94 281.1 144.8 283.2 144.8 286.16C144.8 289.14 146.94 291.24 149.92 291.24ZM164.841 291L160.901 285.72L164.721 281.34H161.601L157.941 285.64V277.66H155.401V291H157.941V288.52L159.101 287.28L161.661 291H164.841Z" fill="#FF3D3D"/>
<path d="M178.708 290H177.304V283.82L175.996 285.176L175.18 284.324L177.484 281.996H178.708V290ZM184.695 289.784C184.271 290.024 183.791 290.144 183.255 290.144C182.719 290.144 182.239 290.024 181.815 289.784C181.391 289.544 181.055 289.224 180.807 288.824C180.559 288.424 180.371 287.984 180.243 287.504C180.115 287.024 180.051 286.524 180.051 286.004C180.051 285.484 180.115 284.984 180.243 284.504C180.371 284.024 180.559 283.588 180.807 283.196C181.055 282.796 181.391 282.476 181.815 282.236C182.239 281.996 182.719 281.876 183.255 281.876C183.791 281.876 184.271 281.996 184.695 282.236C185.119 282.476 185.455 282.796 185.703 283.196C185.951 283.588 186.139 284.024 186.267 284.504C186.395 284.984 186.459 285.484 186.459 286.004C186.459 286.524 186.395 287.024 186.267 287.504C186.139 287.984 185.951 288.424 185.703 288.824C185.455 289.224 185.119 289.544 184.695 289.784ZM181.911 288.08C182.199 288.624 182.647 288.896 183.255 288.896C183.863 288.896 184.311 288.624 184.599 288.08C184.887 287.536 185.031 286.844 185.031 286.004C185.031 285.468 184.975 284.992 184.863 284.576C184.759 284.16 184.567 283.816 184.287 283.544C184.015 283.264 183.671 283.124 183.255 283.124C182.839 283.124 182.491 283.264 182.211 283.544C181.939 283.816 181.747 284.16 181.635 284.576C181.531 284.992 181.479 285.468 181.479 286.004C181.479 286.844 181.623 287.536 181.911 288.08ZM190.661 290H189.257V283.82L187.949 285.176L187.133 284.324L189.437 281.996H190.661V290ZM196.648 289.784C196.224 290.024 195.744 290.144 195.208 290.144C194.672 290.144 194.192 290.024 193.768 289.784C193.344 289.544 193.008 289.224 192.76 288.824C192.512 288.424 192.324 287.984 192.196 287.504C192.068 287.024 192.004 286.524 192.004 286.004C192.004 285.484 192.068 284.984 192.196 284.504C192.324 284.024 192.512 283.588 192.76 283.196C193.008 282.796 193.344 282.476 193.768 282.236C194.192 281.996 194.672 281.876 195.208 281.876C195.744 281.876 196.224 281.996 196.648 282.236C197.072 282.476 197.408 282.796 197.656 283.196C197.904 283.588 198.092 284.024 198.22 284.504C198.348 284.984 198.412 285.484 198.412 286.004C198.412 286.524 198.348 287.024 198.22 287.504C198.092 287.984 197.904 288.424 197.656 288.824C197.408 289.224 197.072 289.544 196.648 289.784ZM193.864 288.08C194.152 288.624 194.6 288.896 195.208 288.896C195.816 288.896 196.264 288.624 196.552 288.08C196.84 287.536 196.984 286.844 196.984 286.004C196.984 285.468 196.928 284.992 196.816 284.576C196.712 284.16 196.52 283.816 196.24 283.544C195.968 283.264 195.624 283.124 195.208 283.124C194.792 283.124 194.444 283.264 194.164 283.544C193.892 283.816 193.7 284.16 193.588 284.576C193.484 284.992 193.432 285.468 193.432 286.004C193.432 286.844 193.576 287.536 193.864 288.08ZM204.042 289.784C203.618 290.024 203.138 290.144 202.602 290.144C202.066 290.144 201.586 290.024 201.162 289.784C200.738 289.544 200.402 289.224 200.154 288.824C199.906 288.424 199.718 287.984 199.59 287.504C199.462 287.024 199.398 286.524 199.398 286.004C199.398 285.484 199.462 284.984 199.59 284.504C199.718 284.024 199.906 283.588 200.154 283.196C200.402 282.796 200.738 282.476 201.162 282.236C201.586 281.996 202.066 281.876 202.602 281.876C203.138 281.876 203.618 281.996 204.042 282.236C204.466 282.476 204.802 282.796 205.05 283.196C205.298 283.588 205.486 284.024 205.614 284.504C205.742 284.984 205.806 285.484 205.806 286.004C205.806 286.524 205.742 287.024 205.614 287.504C205.486 287.984 205.298 288.424 205.05 288.824C204.802 289.224 204.466 289.544 204.042 289.784ZM201.258 288.08C201.546 288.624 201.994 288.896 202.602 288.896C203.21 288.896 203.658 288.624 203.946 288.08C204.234 287.536 204.378 286.844 204.378 286.004C204.378 285.468 204.322 284.992 204.21 284.576C204.106 284.16 203.914 283.816 203.634 283.544C203.362 283.264 203.018 283.124 202.602 283.124C202.186 283.124 201.838 283.264 201.558 283.544C201.286 283.816 201.094 284.16 200.982 284.576C200.878 284.992 200.826 285.468 200.826 286.004C200.826 286.844 200.97 287.536 201.258 288.08ZM211.639 290H210.235V281.996H215.719V283.232H211.639V285.308H215.635V286.544H211.639V290ZM222.109 290H220.849V289.232C220.305 289.84 219.621 290.144 218.797 290.144C217.557 290.144 216.937 289.532 216.937 288.308V284.204H218.197V287.852C218.197 288.276 218.297 288.58 218.497 288.764C218.697 288.94 218.985 289.028 219.361 289.028C219.665 289.028 219.949 288.956 220.213 288.812C220.477 288.668 220.689 288.488 220.849 288.272V284.204H222.109V290ZM228.918 290H227.658V286.376C227.658 285.576 227.27 285.176 226.494 285.176C226.19 285.176 225.906 285.252 225.642 285.404C225.378 285.556 225.166 285.74 225.006 285.956V290H223.746V284.204H225.006V284.996C225.222 284.74 225.51 284.52 225.87 284.336C226.23 284.152 226.622 284.06 227.046 284.06C227.662 284.06 228.126 284.22 228.438 284.54C228.758 284.86 228.918 285.32 228.918 285.92V290ZM235.894 290H234.634V289.208C234.154 289.832 233.534 290.144 232.774 290.144C232.014 290.144 231.394 289.872 230.914 289.328C230.434 288.784 230.194 288.044 230.194 287.108C230.194 286.18 230.434 285.44 230.914 284.888C231.394 284.336 232.014 284.06 232.774 284.06C233.534 284.06 234.154 284.376 234.634 285.008V281.996H235.894V290ZM233.134 289.028C233.43 289.028 233.718 288.956 233.998 288.812C234.278 288.668 234.49 288.484 234.634 288.26V285.956C234.49 285.732 234.278 285.548 233.998 285.404C233.718 285.252 233.43 285.176 233.134 285.176C232.638 285.176 232.242 285.356 231.946 285.716C231.65 286.076 231.502 286.54 231.502 287.108C231.502 287.676 231.65 288.14 231.946 288.5C232.242 288.852 232.638 289.028 233.134 289.028Z" fill="#FF3D3D"/>
<rect x="30" y="296" width="136" height="1" fill="#FF3D3D"/>
</svg>
