<svg width="1440" height="900" viewBox="0 0 1440 900" fill="none" xmlns="http://www.w3.org/2000/svg">
<g clip-path="url(#clip0_1381_438)">
<rect width="1440" height="900" fill="#1E1846"/>
<g filter="url(#filter0_f_1381_438)">
<ellipse cx="246.052" cy="934.404" rx="546.807" ry="422.017" transform="rotate(-10.0226 246.052 934.404)" fill="url(#paint0_linear_1381_438)" fill-opacity="0.9"/>
</g>
<g filter="url(#filter1_f_1381_438)">
<ellipse cx="1544.37" cy="906.055" rx="459" ry="296.934" transform="rotate(-79.9311 1544.37 906.055)" fill="url(#paint1_linear_1381_438)" fill-opacity="0.8"/>
</g>
<circle cx="542.5" cy="165.5" r="3.5" fill="#0097EC" fill-opacity="0.6"/>
<circle cx="478.5" cy="192.5" r="3.5" fill="#0097EC" fill-opacity="0.6"/>
<circle cx="125.5" cy="621.5" r="3.5" fill="#0097EC" fill-opacity="0.6"/>
<circle cx="794.5" cy="91.5" r="3.5" fill="#0097EC" fill-opacity="0.6"/>
<circle cx="891.5" cy="578.5" r="3.5" fill="#0097EC" fill-opacity="0.6"/>
<circle cx="852.5" cy="283.5" r="3.5" fill="#0097EC" fill-opacity="0.6"/>
<circle cx="354.5" cy="821.5" r="3.5" fill="#0097EC" fill-opacity="0.6"/>
<circle cx="905.5" cy="824.5" r="3.5" fill="#AF2EBA" fill-opacity="0.6"/>
<circle cx="797.5" cy="568.5" r="3.5" fill="#AF2EBA" fill-opacity="0.6"/>
<circle cx="1236.5" cy="646.5" r="3.5" fill="#AF2EBA" fill-opacity="0.6"/>
<circle cx="912.5" cy="509.5" r="3.5" fill="#AF2EBA" fill-opacity="0.6"/>
<circle cx="418.5" cy="790.5" r="3.5" fill="#AF2EBA" fill-opacity="0.6"/>
<circle cx="298.5" cy="199.5" r="3.5" fill="#AF2EBA" fill-opacity="0.6"/>
<circle cx="291.5" cy="597.5" r="3.5" fill="#AF2EBA" fill-opacity="0.6"/>
<circle cx="797.5" cy="568.5" r="3.5" fill="#AF2EBA" fill-opacity="0.6"/>
<circle cx="619.5" cy="544.5" r="3.5" fill="#AF2EBA" fill-opacity="0.6"/>
<circle cx="616.5" cy="808.5" r="3.5" fill="#AF2EBA" fill-opacity="0.6"/>
<circle cx="643.5" cy="279.5" r="3.5" fill="#AF2EBA" fill-opacity="0.6"/>
<circle cx="972.5" cy="117.5" r="3.5" fill="#AF2EBA" fill-opacity="0.6"/>
</g>
<defs>
<filter id="filter0_f_1381_438" x="-597.46" y="207.977" width="1687.03" height="1452.85" filterUnits="userSpaceOnUse" color-interpolation-filters="sRGB">
<feFlood flood-opacity="0" result="BackgroundImageFix"/>
<feBlend mode="normal" in="SourceGraphic" in2="BackgroundImageFix" result="shape"/>
<feGaussianBlur stdDeviation="150" result="effect1_foregroundBlur_1381_438"/>
</filter>
<filter id="filter1_f_1381_438" x="941.122" y="151.11" width="1206.5" height="1509.89" filterUnits="userSpaceOnUse" color-interpolation-filters="sRGB">
<feFlood flood-opacity="0" result="BackgroundImageFix"/>
<feBlend mode="normal" in="SourceGraphic" in2="BackgroundImageFix" result="shape"/>
<feGaussianBlur stdDeviation="150" result="effect1_foregroundBlur_1381_438"/>
</filter>
<linearGradient id="paint0_linear_1381_438" x1="246.052" y1="512.388" x2="510.588" y2="1439.85" gradientUnits="userSpaceOnUse">
<stop stop-color="#BF2293"/>
<stop offset="1" stop-color="#0086FF"/>
</linearGradient>
<linearGradient id="paint1_linear_1381_438" x1="1544.37" y1="609.121" x2="1703.96" y2="1276.63" gradientUnits="userSpaceOnUse">
<stop stop-color="#BF2293"/>
<stop offset="1" stop-color="#0086FF"/>
</linearGradient>
<clipPath id="clip0_1381_438">
<rect width="1440" height="900" fill="white"/>
</clipPath>
</defs>
</svg>
