<svg width="61" height="61" viewBox="0 0 61 61" fill="none" xmlns="http://www.w3.org/2000/svg">
<path d="M44.0415 39.3389C44.0202 39.4242 44.0309 39.5187 44.0748 39.596C44.1148 39.6652 44.1947 39.7305 44.2733 39.7492C44.4451 39.7878 44.6382 39.6972 44.6835 39.5161C44.7208 39.3629 44.7701 39.2151 44.8287 39.0686C44.8859 38.9367 44.9512 38.8088 45.0258 38.6863C45.1164 38.5371 45.0631 38.3134 44.9059 38.2308C44.7448 38.1456 44.5463 38.1908 44.4504 38.3507C44.2666 38.6557 44.1254 38.9926 44.0415 39.3389Z" fill="white"/>
<path d="M50.97 41.5271C50.9574 41.5215 50.9448 41.5173 50.9378 41.5103C50.9364 41.5103 50.9364 41.5103 50.935 41.5103C50.9476 41.5257 50.9658 41.5299 50.97 41.5271Z" fill="white"/>
<path d="M51.1297 41.6594C51.1297 41.6594 51.1283 41.658 51.1283 41.6566C51.1211 41.6494 51.1111 41.638 51.1039 41.6279C51.1025 41.6337 51.1125 41.6523 51.1297 41.6594Z" fill="white"/>
<path d="M50.8579 41.4861C50.8551 41.4861 50.8537 41.4847 50.8509 41.4847C50.8411 41.4847 50.8327 41.4833 50.8243 41.4819C50.8159 41.4847 50.8327 41.4917 50.8579 41.4861Z" fill="white"/>
<path d="M50.8221 42.3399C50.8336 42.3385 50.8436 42.3385 50.8522 42.3385C50.8522 42.3385 50.8522 42.3385 50.8536 42.3385C50.8393 42.3356 50.8278 42.337 50.8221 42.3399Z" fill="white"/>
<path d="M50.3581 41.834C50.3567 41.8466 50.3553 41.8606 50.3511 41.8704C50.3511 41.8718 50.3511 41.8718 50.3511 41.8732C50.3623 41.855 50.3623 41.834 50.3581 41.834Z" fill="white"/>
<path d="M21.4656 34.5536C21.4566 34.5461 21.4476 34.5401 21.4401 34.5386C21.4506 34.5431 21.4596 34.5476 21.4656 34.5536Z" fill="white"/>
<path d="M21.9964 34.1508C21.995 34.141 21.995 34.1311 21.995 34.1213C21.995 34.1199 21.9936 34.1171 21.9936 34.1157C21.9922 34.1354 21.9936 34.148 21.9964 34.1508Z" fill="white"/>
<path d="M21.8705 34.4844C21.8166 34.5114 21.8435 34.5084 21.8705 34.4844V34.4844Z" fill="white"/>
<path d="M21.3134 33.9224C21.3044 33.9329 21.2954 33.9419 21.2864 33.9494C21.3014 33.9389 21.3104 33.9284 21.3134 33.9224Z" fill="white"/>
<path d="M21.2096 34.1396C21.2278 34.0723 21.2124 34.1087 21.2096 34.1396V34.1396Z" fill="white"/>
<path d="M21.2864 34.4194C21.2924 34.4225 21.297 34.427 21.3031 34.4331C21.2985 34.4286 21.2924 34.424 21.2864 34.4194Z" fill="white"/>
<path d="M21.6445 34.5783C21.653 34.5769 21.6614 34.5769 21.6712 34.5755C21.674 34.5755 21.6754 34.5741 21.6768 34.5741C21.6445 34.5699 21.6319 34.5769 21.6445 34.5783Z" fill="white"/>
<path d="M11.2042 35.4543L11.2042 35.4543C10.644 35.0227 9.87742 34.9864 9.21287 35.1714C8.46474 35.3803 7.81368 35.8474 7.26141 36.4036C6.70375 36.9664 6.23663 37.6096 5.76715 38.256C5.71886 38.3225 5.67055 38.389 5.62211 38.4555C5.10369 39.1669 4.57131 39.8719 3.90417 40.4574C3.90417 40.4574 3.90416 40.4574 3.90416 40.4574L3.87118 40.4198C3.7266 40.5468 3.51746 40.567 3.37429 40.4198L11.2042 35.4543ZM11.2042 35.4543C11.668 35.8112 11.847 36.3796 11.8887 36.9671C10.9333 36.5568 9.79902 36.7561 9.00843 37.4814M11.2042 35.4543L9.57292 38.0659M9.57292 38.0659L9.57288 38.0659C9.41462 38.2109 9.16869 38.2308 9.00638 38.0639C8.93183 37.9873 8.8924 37.8794 8.89063 37.7734C8.88887 37.6673 8.92495 37.5579 9.00843 37.4814M9.57292 38.0659C10.2749 37.4215 11.2975 37.4257 12.0379 37.9993C12.1062 38.0525 12.1896 38.0692 12.2689 38.0605C12.269 38.0605 12.2691 38.0605 12.2692 38.0606L12.2743 38.0612C12.2763 38.0614 12.2795 38.0618 12.2832 38.0618C12.5182 38.0618 12.6686 37.8684 12.684 37.6548C12.749 36.7818 12.6199 35.8445 12.0453 35.1477C11.485 34.4669 10.5577 34.188 9.72186 34.2538L9.72182 34.2538M9.57292 38.0659L9.72182 34.2538M9.00843 37.4814C9.00843 37.4814 9.00844 37.4814 9.00844 37.4814L9.04222 37.5183L9.00841 37.4815C9.00842 37.4815 9.00842 37.4815 9.00843 37.4814ZM9.72182 34.2538C7.7763 34.4088 6.43769 35.9768 5.35796 37.4556L9.72182 34.2538Z" fill="white" stroke="white" stroke-width="0.1"/>
<mask id="path-15-outside-1_1373_1384" maskUnits="userSpaceOnUse" x="1.37206" y="20.5815" width="57" height="33" fill="black">
<rect fill="white" x="1.37206" y="20.5815" width="57" height="33"/>
<path d="M57.0664 42.3899C55.8157 43.7029 54.1342 44.6119 52.3543 44.8499C51.4476 44.9711 50.4903 44.8846 49.7183 44.3449C49.3955 44.1184 49.1288 43.8125 48.9547 43.4533C48.7484 43.0247 48.7245 42.527 48.761 42.0581C48.8396 41.0452 49.2411 40.1073 49.7225 39.2315C50.451 39.6774 51.4013 39.663 52.075 39.0815C52.4231 38.7814 52.666 38.3298 52.7305 37.8681C52.7375 37.819 52.7404 37.7714 52.7432 37.7223C52.8709 37.164 53.3144 36.7023 53.8675 36.6272C54.3728 36.558 54.982 36.786 55.2697 37.2433C55.2852 37.2736 55.3048 37.301 55.3273 37.3256C55.3764 37.3847 55.4368 37.4194 55.4985 37.4338C55.5294 37.4439 55.5603 37.4497 55.5912 37.4497C55.7133 37.4497 55.8031 37.3919 55.8635 37.3054C55.9196 37.2404 55.9519 37.1568 55.9449 37.0644C56.0403 36.2694 56.0979 35.4239 55.6894 34.7039C55.4199 34.2278 54.9118 33.8484 54.37 33.7834C54.363 33.2611 54.0612 32.7605 53.6303 32.4748C53.146 32.1545 52.5438 32.1054 51.9894 32.2309C51.9178 31.889 51.7648 31.5745 51.4841 31.3205C51.1135 30.9858 50.6222 30.8703 50.1422 30.9728C49.8629 31.0334 49.5597 31.1445 49.3169 31.3234C48.6024 30.7434 47.6774 30.5024 46.7706 30.6583C45.927 30.8025 45.1607 31.3292 44.675 32.0491C43.9128 31.7851 43.0819 31.7678 42.3042 31.9756C41.5028 32.1891 40.7785 32.6248 40.1286 33.1442C38.7769 34.2249 37.8224 35.7356 36.4749 36.8177C35.7604 37.3905 34.9365 37.8695 34.0466 38.0701C33.2254 38.1004 32.4071 38.2706 31.6351 38.5505C30.6217 38.9185 29.6897 39.4696 28.832 40.129C26.6171 40.3699 24.186 40.2978 22.2194 39.1075C21.1934 38.487 20.3077 37.5391 19.8908 36.3791C19.4248 35.0834 19.4093 33.5656 19.7841 32.2425C19.9947 31.5009 20.368 30.8429 20.9169 30.3134C21.4559 29.7926 22.1198 29.4174 22.8146 29.1664C22.8202 29.1649 22.8258 29.1606 22.8314 29.1592C23.2876 29.1087 23.748 29.0481 24.113 28.7321C24.12 28.7263 24.1256 28.7191 24.1326 28.7133C24.4358 28.8749 24.6379 29.2212 24.6632 29.6021C24.6997 30.1475 24.4611 30.6381 24.1551 31.068C24.0428 31.2253 24.1298 31.4706 24.2814 31.5615C24.3319 31.5918 24.3825 31.6062 24.433 31.6091C24.4821 31.6192 24.5327 31.6177 24.5818 31.5975C25.5377 31.2296 26.5651 30.7304 27.2248 29.8993C27.5491 29.491 27.7274 29.0105 27.7035 28.4781C27.6838 28.0511 27.5617 27.6341 27.3722 27.2532C27.7638 26.8376 27.9702 26.2446 27.754 25.6733C27.6277 25.3414 27.3975 25.0803 27.0803 24.9302C26.8683 24.8292 26.6395 24.7672 26.4079 24.7455C26.4093 24.5868 26.4023 24.4296 26.3742 24.2708C26.3251 23.9938 26.189 23.7327 25.9953 23.535C25.6654 23.1988 25.1966 23.0618 24.7446 23.118C24.6 22.7227 24.3572 22.3894 24.0007 22.1456C23.529 21.8224 22.9507 21.668 22.3921 21.6045C21.8391 21.5425 21.279 21.6016 20.7695 21.8382C20.3357 22.0388 19.9273 22.336 19.5876 22.6794C19.575 22.6794 19.5623 22.6794 19.5511 22.6794C18.6331 22.6794 17.7081 22.7717 16.8154 22.9925C15.2181 23.3893 13.719 24.2405 12.6746 25.5622C12.0711 26.3269 11.6051 27.1839 11.1461 28.0453C11.1461 28.0467 11.1461 28.0467 11.1447 28.0482C9.98666 28.4132 8.93533 29.1808 8.10858 30.0753C6.79477 31.4965 5.90205 33.2452 4.74404 34.7905C4.11801 35.6259 3.40075 36.4065 2.53469 36.9793C2.15571 37.2303 2.50803 37.8551 2.88841 37.6026C4.45348 36.5666 5.52166 34.9766 6.5379 33.4126C7.54712 31.8601 8.59143 30.2283 10.1944 29.263C11.0464 28.7494 12.0107 28.4623 13.0017 28.5618C13.1912 28.5806 13.3526 28.3829 13.3526 28.2011C13.3526 27.9905 13.1912 27.8592 13.0017 27.8404C12.6817 27.8072 12.3644 27.8144 12.0528 27.8505C12.7125 26.6501 13.4509 25.5059 14.6004 24.7325C15.9311 23.8366 17.5144 23.4629 19.0879 23.4066C19.9862 23.3748 20.9646 23.3763 21.804 23.7529C21.978 23.8308 22.1801 23.8048 22.284 23.623C22.371 23.4701 22.3331 23.2075 22.1577 23.1296C21.6706 22.9103 21.1597 22.7934 20.6389 22.7328C20.7639 22.6505 20.8902 22.5726 21.0235 22.5048C21.4095 22.31 21.8391 22.2769 22.2616 22.31C22.7009 22.3447 23.1613 22.4687 23.5431 22.6996C23.8982 22.9146 24.0723 23.2262 24.1607 23.6331C24.193 23.7832 24.2898 23.8611 24.3993 23.8842C24.4597 23.9058 24.5256 23.9087 24.5916 23.8856C24.6435 23.8669 24.6955 23.851 24.7488 23.8394C24.7713 23.8337 24.805 23.8207 24.8288 23.8236C24.7811 23.8293 24.7769 23.8308 24.8162 23.825C24.8302 23.8236 24.8429 23.8221 24.8569 23.8221C24.9116 23.8178 24.9664 23.8178 25.0197 23.8221C25.0281 23.8221 25.0731 23.8293 25.0815 23.8293C25.0955 23.8322 25.111 23.8351 25.1138 23.8366C25.1334 23.8409 25.2696 23.8669 25.2752 23.8871C25.2611 23.8813 25.2485 23.8755 25.2345 23.8697C25.2485 23.8755 25.2626 23.8827 25.2766 23.8899C25.2976 23.9 25.3187 23.9116 25.3383 23.9246C25.358 23.9375 25.3791 23.9491 25.3987 23.9621C25.4057 23.9664 25.4113 23.9707 25.4184 23.9751C25.4492 23.9981 25.4436 23.9938 25.4043 23.9621C25.438 23.9722 25.4843 24.0328 25.5082 24.0587C25.525 24.0761 25.5391 24.0948 25.5559 24.1121C25.5573 24.1136 25.5573 24.1136 25.5573 24.115C25.5826 24.1554 25.6064 24.1973 25.6289 24.2391C25.6317 24.2434 25.6331 24.2449 25.6345 24.2478C25.6345 24.2492 25.6345 24.2492 25.6345 24.2492C25.6429 24.2752 25.6528 24.2997 25.6598 24.3257C25.6752 24.3776 25.6851 24.431 25.6949 24.4844C25.6949 24.4858 25.6949 24.4858 25.6949 24.4873C25.6949 24.4902 25.6949 24.4916 25.6949 24.4974C25.6963 24.5248 25.6991 24.5522 25.7005 24.5796C25.7033 24.6344 25.7033 24.6907 25.7019 24.7455C25.7005 24.8393 25.6935 24.9345 25.6864 25.0283C25.6822 25.0529 25.6794 25.0788 25.6808 25.1048C25.6724 25.2044 25.7215 25.2996 25.7945 25.3674C25.8563 25.4338 25.9377 25.4756 26.0317 25.4655C26.1567 25.4525 26.2802 25.4525 26.4051 25.4655C26.4178 25.4684 26.4486 25.4727 26.4585 25.4742C26.4907 25.4814 26.523 25.4886 26.5553 25.4972C26.6129 25.5131 26.669 25.5333 26.7252 25.5535C26.7378 25.5593 26.749 25.5651 26.7616 25.5708C26.7911 25.5853 26.8192 25.6011 26.8459 25.6184C26.8683 25.6329 26.8908 25.6473 26.9132 25.6617C26.9175 25.6646 26.9203 25.6661 26.9231 25.6675C26.9259 25.6704 26.9273 25.6733 26.9329 25.679C26.9525 25.7007 26.9736 25.7209 26.9932 25.7425C26.9975 25.7469 27.0003 25.7497 27.0031 25.7526C27.0045 25.7555 27.0059 25.7584 27.0101 25.7642C27.0368 25.8075 27.062 25.8522 27.0831 25.8984C27.0859 25.907 27.0943 25.9301 27.0985 25.946C27.1069 25.9748 27.114 26.0037 27.121 26.0325C27.1224 26.0383 27.1252 26.0614 27.128 26.0773C27.1294 26.096 27.1308 26.1249 27.1308 26.1307C27.1322 26.161 27.1308 26.1912 27.1294 26.2201C27.1294 26.2302 27.128 26.2389 27.128 26.2446C27.1182 26.3009 27.1041 26.3572 27.0859 26.412C27.0803 26.4293 27.062 26.4683 27.0648 26.4639C27.055 26.4841 27.0452 26.5058 27.034 26.526C27.0185 26.5534 27.0031 26.5808 26.9862 26.6068C26.9834 26.6111 26.9624 26.64 26.9539 26.6515C26.9189 26.6948 26.8824 26.7366 26.8417 26.7756C26.8234 26.7944 26.8024 26.8102 26.7841 26.829C26.7799 26.8333 26.7757 26.8362 26.7743 26.8376C26.7645 26.8449 26.7546 26.8521 26.7448 26.8593C26.7111 26.8838 26.683 26.9127 26.6564 26.9458C26.5764 27.0324 26.5371 27.1551 26.5862 27.2864C26.5946 27.3094 26.6044 27.3311 26.6185 27.3527C26.822 27.6889 26.9764 28.0713 26.9946 28.4709C27.0129 28.8792 26.8767 29.2198 26.6058 29.5184C26.2184 29.9455 25.7328 30.2687 25.219 30.5284C25.3398 30.1691 25.3903 29.7882 25.3369 29.3987C25.2626 28.8634 24.965 28.38 24.5214 28.1088C24.6127 27.8678 24.6548 27.6038 24.652 27.3527C24.6407 26.2836 23.9389 25.2909 22.9283 25.0052C22.4524 24.8711 21.9177 24.8956 21.4362 25.0413C21.3618 24.9216 21.2622 24.8162 21.1372 24.7268C20.907 24.5623 20.6277 24.4887 20.3526 24.4613C19.9245 24.4209 19.4978 24.5421 19.137 24.7729C18.7412 24.4512 18.2219 24.2824 17.7179 24.3444C17.1102 24.4209 16.5684 24.7773 16.2525 25.3183C16.1543 25.4857 16.216 25.7137 16.3789 25.8118C16.5445 25.9113 16.7607 25.8493 16.8589 25.6819C16.9516 25.5218 17.0975 25.3645 17.2421 25.2678C17.2898 25.2361 17.339 25.2058 17.3909 25.1798C17.4105 25.1697 17.4316 25.1596 17.4513 25.1495C17.4569 25.1466 17.4751 25.1394 17.4807 25.138C17.5341 25.1192 17.5888 25.1005 17.6436 25.086C17.6688 25.0803 17.6927 25.0745 17.7179 25.0687C17.7236 25.0673 17.7601 25.0615 17.7699 25.0601C17.9959 25.0341 18.1475 25.0586 18.3552 25.1322C18.5307 25.1957 18.7033 25.3169 18.8479 25.4727C18.9139 25.5449 19.0065 25.578 19.0991 25.5766C19.1946 25.5824 19.29 25.5492 19.3714 25.4771C19.3855 25.4655 19.3995 25.4525 19.4136 25.441C19.4178 25.4381 19.4276 25.4309 19.4346 25.4266C19.4725 25.4006 19.5104 25.3746 19.5497 25.3515C19.5932 25.3256 19.6395 25.3025 19.6859 25.2808C19.6873 25.2808 19.6873 25.2808 19.6873 25.2794C19.6901 25.2779 19.6915 25.2779 19.6957 25.2765C19.7167 25.2678 19.7378 25.2606 19.7603 25.2534C19.8473 25.2231 19.9343 25.2058 20.0241 25.1856C20.0255 25.1856 20.0255 25.1856 20.0283 25.1842C20.0298 25.1842 20.0312 25.1842 20.0326 25.1842C20.055 25.1827 20.0775 25.1798 20.0999 25.1784C20.1505 25.1755 20.2024 25.1741 20.2529 25.1755C20.2922 25.1769 20.3315 25.1798 20.3708 25.1842C20.3736 25.1856 20.4452 25.1986 20.4621 25.2029C20.507 25.2145 20.5505 25.2274 20.594 25.2433C20.6024 25.2462 20.6137 25.2505 20.6193 25.252C20.6361 25.2592 20.653 25.2678 20.6684 25.2765C20.7049 25.2953 20.7386 25.3183 20.7723 25.3414C20.7793 25.3472 20.7919 25.3587 20.8004 25.366C20.8158 25.3804 20.8298 25.3963 20.8439 25.4136C20.8439 25.4136 20.8439 25.4136 20.8453 25.415C20.8467 25.4165 20.8467 25.4165 20.8481 25.4193C20.8593 25.4381 20.8677 25.4583 20.8804 25.4756C20.8804 25.4756 20.8804 25.4756 20.8818 25.4771C20.8818 25.4785 20.8818 25.4785 20.8818 25.4785C20.8846 25.4929 20.9014 25.5665 20.8916 25.4929C20.8958 25.5304 20.9056 25.5665 20.9183 25.6026C20.9197 25.6083 20.9225 25.6141 20.9239 25.6199C20.9267 25.6285 20.9309 25.6372 20.9351 25.6444C20.9393 25.6545 20.9421 25.6646 20.9477 25.6733C20.9491 25.6762 20.9519 25.679 20.9548 25.6834C21.0137 25.7873 21.1106 25.8608 21.2439 25.8551C21.2804 25.8536 21.3197 25.8435 21.3562 25.8291C21.3801 25.8219 21.4039 25.8132 21.4278 25.8031C21.8657 25.5997 22.4665 25.578 22.9142 25.7613C23.3241 25.9287 23.6526 26.2778 23.8196 26.6948C23.9824 27.1017 24.0273 27.6081 23.8 27.9991C23.7213 28.1347 23.5796 28.266 23.3901 28.3295C23.1711 28.4031 22.9437 28.4219 22.7163 28.4464C22.6644 28.4522 22.6153 28.4666 22.5704 28.4882C21.2074 28.9932 19.961 29.9239 19.3644 31.3191C18.7707 32.7071 18.6766 34.375 19.0037 35.8481C19.3209 37.278 20.1603 38.4769 21.2972 39.3441C22.2966 40.1045 23.5038 40.5474 24.7221 40.7624C25.7651 40.9471 26.8234 40.9846 27.8761 40.9254C27.7624 41.0293 27.6487 41.1346 27.5379 41.2414C27.1055 41.6584 26.6971 42.0985 26.3012 42.5501C24.0905 42.2875 21.9499 41.3857 20.2136 39.9515C19.7055 39.5317 19.2325 39.07 18.7931 38.5751C18.4885 38.2317 17.9931 38.7424 18.2962 39.0858C19.9118 40.9081 22.0159 42.2456 24.3319 42.8935C24.7993 43.0247 25.2724 43.1229 25.751 43.1979C25.4506 43.56 25.1573 43.9265 24.8667 44.2973C24.6506 44.4301 24.426 44.5498 24.1972 44.6566C23.3101 44.5729 22.4539 44.2973 21.6594 43.8717C20.726 43.3725 19.8346 42.7376 19.0402 42.0278C18.2654 41.3352 17.5804 40.5373 17.0919 39.6038C16.5796 38.6227 16.3059 37.5204 16.1796 36.4195C16.0308 35.1152 16.056 33.7979 16.0883 32.4878C16.0995 32.0232 15.3977 32.0232 15.3865 32.4878C15.3275 34.8843 15.2981 37.3891 16.3101 39.6067C17.2505 41.667 19.0991 43.2065 20.9856 44.3132C21.5738 44.658 22.1928 44.9336 22.8356 45.1226C21.8868 45.3405 20.893 45.3607 19.9315 45.1818C18.8212 44.9769 17.7923 44.5383 16.8505 43.9381C16.8407 43.9236 16.8322 43.9092 16.8196 43.8948C15.7009 42.6107 14.9317 41.0409 14.5738 39.3585C14.4769 38.9055 13.8004 39.0974 13.8972 39.5504C14.1092 40.5489 14.4643 41.5069 14.9401 42.3986C14.3197 41.7983 13.7372 41.1592 13.1589 40.5171C12.8515 40.1766 12.356 40.6874 12.662 41.0279C13.9337 42.4361 15.2405 43.8674 16.8912 44.8124C18.518 45.7445 20.4172 46.2033 22.2728 45.9537C22.8188 45.8801 23.3536 45.7503 23.8701 45.5656C23.4013 46.16 22.9283 46.7501 22.43 47.3201C21.9036 47.9217 21.3506 48.5335 20.6389 48.9043C19.8262 49.3256 18.8745 49.2823 18.0197 49.0269C17.0989 48.7513 16.289 48.2074 15.4763 47.701C15.3725 47.636 15.27 47.6346 15.1844 47.6721C14.3211 47.9924 13.3456 47.978 12.4599 47.7572C11.5854 47.5394 10.8499 46.9088 10.2211 46.2769C10.1776 46.2336 10.1312 46.2062 10.0849 46.1903C10.0217 46.1629 9.94595 46.1557 9.85893 46.1845C9.54872 46.2855 9.21325 46.2408 8.92831 46.0792C8.60687 45.8974 8.42159 45.5872 8.33035 45.2279C8.10717 44.3464 8.51283 43.4691 8.93392 42.7246C9.07709 42.4707 8.8876 42.2326 8.67144 42.1922C8.58441 42.1533 8.48054 42.1475 8.37246 42.2038C8.05664 42.3683 7.60607 42.4967 7.25376 42.3841C6.9239 42.2774 6.96741 41.7738 7.02216 41.5011C7.10918 41.0755 7.31692 40.6975 7.53449 40.3281C7.79135 39.8953 8.05384 39.4653 8.31492 39.0339C8.55354 38.6385 7.94716 38.275 7.70854 38.6703C7.39974 39.1839 7.07549 39.6904 6.78494 40.2141C6.50842 40.7119 6.27963 41.2688 6.28805 41.8517C6.29507 42.4115 6.54913 42.9598 7.12041 43.094C7.39272 43.1575 7.67766 43.1517 7.95558 43.0998C7.61169 43.8847 7.41939 44.7475 7.70293 45.5858C7.86996 46.0778 8.17876 46.5049 8.64056 46.7386C8.89322 46.867 9.16974 46.9435 9.45047 46.9565C9.41959 47.0142 9.3887 47.0719 9.35361 47.1282C9.34098 47.1484 9.21465 47.3518 9.19641 47.3648C9.20623 47.3532 9.2343 47.3143 9.1936 47.3677C9.17956 47.385 9.16693 47.4023 9.15289 47.4182C9.12341 47.4557 9.09113 47.4918 9.06025 47.5278C8.93954 47.6649 8.80759 47.7875 8.66863 47.9044C8.66723 47.9044 8.66723 47.9058 8.66723 47.9058C8.64618 47.9217 8.62652 47.9376 8.60547 47.952C8.57038 47.978 8.53529 48.0025 8.49879 48.0256C8.42019 48.079 8.33878 48.128 8.25596 48.1728C8.09454 48.2622 8.02997 48.5061 8.12963 48.6662C8.23631 48.835 8.43703 48.8913 8.60968 48.7961C9.2736 48.431 9.79296 47.8568 10.1284 47.1729C10.7516 47.7442 11.4661 48.2507 12.276 48.4527C13.0284 48.6402 13.8523 48.7037 14.6299 48.5681C13.8846 49.8768 12.7813 50.9257 11.6977 51.9472C11.3636 52.2617 11.8619 52.7711 12.1946 52.458C13.4284 51.2965 14.6931 50.0831 15.4525 48.5291C16.0855 48.923 16.7228 49.3112 17.419 49.581C18.2359 49.8969 19.13 50.0311 19.9947 49.8782C20.8088 49.7339 21.512 49.2708 22.1114 48.7037C22.7486 48.1021 23.3073 47.4052 23.8589 46.7213C24.2323 46.2581 24.6014 45.7834 24.972 45.3073C24.9832 45.2958 24.9916 45.2828 25.0001 45.2712C26.7252 43.0594 28.5148 40.8187 31.0358 39.5793C32.657 38.7828 34.5673 38.5087 36.2854 39.1262C36.4637 39.1912 36.6686 39.0526 36.7177 38.8737C36.7711 38.6746 36.6517 38.4943 36.4721 38.4293C36.2124 38.3356 35.9485 38.2634 35.6804 38.2071C36.6756 37.6632 37.5403 36.8567 38.3038 36.0184C39.3959 34.8165 40.4795 33.4256 42.0207 32.8239C42.8896 32.4834 43.8174 32.4589 44.6862 32.8167C44.7339 32.8369 44.7831 32.8384 44.8308 32.8297C44.9417 32.8355 45.054 32.785 45.127 32.6551C45.5031 31.977 46.1544 31.5023 46.9012 31.3624C47.6718 31.2166 48.4887 31.4864 49.0502 32.0405C49.0544 32.0448 49.0586 32.0477 49.0628 32.0506C49.0656 32.0549 49.0684 32.0578 49.0726 32.0621C49.1961 32.1891 49.4502 32.2151 49.5695 32.0621C49.5948 32.0289 49.6214 31.9986 49.6509 31.9698C49.6636 31.9568 49.6762 31.9453 49.6902 31.9337C49.6706 31.9481 49.6706 31.9481 49.6902 31.9337C49.7562 31.8847 49.8278 31.8471 49.8994 31.8082C49.9359 31.788 49.9906 31.7678 50.0608 31.7433C50.1296 31.7202 50.1997 31.6985 50.2699 31.6812C50.5422 31.6134 50.8454 31.6855 51.0363 31.8832C51.049 31.8962 51.1009 31.9554 51.0953 31.9467C51.0939 31.9438 51.1416 32.0145 51.1542 32.0347C51.1739 32.0679 51.1921 32.1011 51.209 32.1357C51.2118 32.1415 51.2356 32.1963 51.2399 32.2035C51.2665 32.2713 51.2876 32.3435 51.3044 32.4142C51.3128 32.4517 51.3199 32.4906 51.3283 32.5282C51.3311 32.5469 51.3325 32.5585 51.3339 32.5628C51.3353 32.5772 51.3367 32.5916 51.3381 32.6046C51.3732 33.0202 51.2834 33.4256 51.1949 33.8282C51.1528 34.0186 51.2511 34.2192 51.4406 34.2725C51.6174 34.323 51.8308 34.2119 51.8729 34.02C51.9459 33.6882 52.0147 33.3232 52.0329 32.961C52.1059 32.9408 52.1789 32.9221 52.2547 32.9062C52.2673 32.9033 52.28 32.9019 52.2926 32.899C52.2701 32.9019 52.2715 32.9004 52.2954 32.899C52.3277 32.8946 52.36 32.8918 52.3923 32.8903C52.4582 32.886 52.5242 32.8845 52.5902 32.8874C52.6309 32.8889 52.6716 32.8918 52.7109 32.8961C52.7235 32.8975 52.7347 32.899 52.7474 32.9004C52.7488 32.9004 52.7488 32.9004 52.7502 32.9004C52.8119 32.9105 52.8737 32.9249 52.9341 32.9423C52.9846 32.9567 53.0337 32.974 53.0814 32.9942C53.0941 33 53.1362 33.0202 53.1376 33.0216C53.1629 33.0346 53.1881 33.049 53.212 33.0634C53.2372 33.0779 53.2611 33.0937 53.285 33.1096C53.2892 33.1125 53.3173 33.1341 53.3313 33.1442C53.3439 33.1558 53.372 33.1789 53.3748 33.1818C53.4001 33.2048 53.4239 33.2294 53.4478 33.2553C53.4506 33.2582 53.4716 33.2828 53.4843 33.2972C53.4927 33.3087 53.518 33.3434 53.5208 33.3477C53.539 33.3765 53.5573 33.4068 53.5727 33.4386C53.5755 33.4429 53.5896 33.4747 53.598 33.4905C53.6036 33.5064 53.6176 33.5425 53.619 33.5468C53.6303 33.58 53.6387 33.6146 53.6471 33.6492C53.6499 33.6651 53.6527 33.6795 53.6555 33.6954C53.6527 33.6896 53.6611 33.756 53.6611 33.7618C53.6625 33.7906 53.6625 33.8195 53.6611 33.8483C53.6611 33.8613 53.6583 33.883 53.6583 33.8916C53.6471 33.9551 53.6303 34.0157 53.6078 34.0749C53.5545 34.2192 53.6373 34.3952 53.7636 34.4774C53.765 34.4789 53.7664 34.4789 53.7678 34.4803C53.7805 34.4875 53.7931 34.4947 53.8057 34.5005C53.8717 34.5323 53.9503 34.5438 54.0401 34.5178C54.1272 34.4933 54.2282 34.4875 54.3195 34.5077C54.4472 34.5351 54.5482 34.5755 54.6563 34.639C54.8711 34.766 55.0311 34.9536 55.142 35.1945C55.2992 35.535 55.3301 35.9159 55.3132 36.2954C54.8669 35.9852 54.2998 35.8467 53.7678 35.9188C53.2611 35.9881 52.8077 36.2651 52.4877 36.659C52.4386 36.5739 52.3852 36.4916 52.3235 36.4123C52.0877 36.1122 51.7564 35.8799 51.3942 35.7716C51.4307 35.5797 51.4279 35.3792 51.3886 35.1887C51.3156 34.828 51.0854 34.5279 50.7963 34.3202C50.2334 33.9162 49.4797 33.9811 48.9056 34.3245C48.7722 34.2379 48.6277 34.1701 48.4733 34.1254C47.6774 33.8931 46.9026 34.2552 46.226 34.6563C45.8344 34.8886 46.1881 35.5119 46.5797 35.2796C46.8521 35.118 47.1272 34.9593 47.4275 34.8627C47.6914 34.7775 47.9511 34.7415 48.2038 34.8006C48.4297 34.8526 48.6206 34.9463 48.7526 35.1483C48.9042 35.3792 48.9393 35.6548 48.9393 35.9275C48.9407 36.3921 49.6425 36.3921 49.6411 35.9275C49.6411 35.5653 49.5807 35.1873 49.4067 34.8684C49.4123 34.8655 49.4179 34.8627 49.4221 34.8612C49.4249 34.8598 49.4277 34.8583 49.4334 34.8569C49.5035 34.8295 49.5737 34.8064 49.6467 34.7891C49.6734 34.7833 49.7 34.7775 49.7281 34.7732C49.7351 34.7732 49.7787 34.766 49.7899 34.766C49.8587 34.7617 49.926 34.7631 49.9948 34.7674C50.0018 34.7674 50.006 34.7674 50.0103 34.7674C50.0131 34.7689 50.0159 34.7689 50.0201 34.7689C50.0496 34.7746 50.079 34.7804 50.1071 34.7876C50.159 34.8006 50.2082 34.8179 50.2587 34.8381C50.2727 34.8439 50.2952 34.8554 50.3022 34.8598C50.3331 34.8756 50.3626 34.8944 50.392 34.9132C50.3963 34.916 50.4201 34.9319 50.4356 34.942C50.4454 34.9507 50.4805 34.9795 50.4861 34.9839C50.5086 35.0041 50.5296 35.0257 50.5493 35.0473C50.5563 35.056 50.5872 35.095 50.5942 35.1022C50.6222 35.1455 50.6475 35.1902 50.6714 35.2364C50.6742 35.2407 50.6742 35.2421 50.6756 35.245C50.677 35.2493 50.6784 35.2551 50.6798 35.2638C50.6882 35.2941 50.698 35.3215 50.7051 35.3518C50.7065 35.359 50.7135 35.3994 50.7163 35.4095C50.7177 35.4297 50.7205 35.4484 50.7205 35.4686C50.7219 35.4989 50.7205 35.5292 50.7191 35.561C50.7177 35.5754 50.7163 35.5913 50.7135 35.6028C50.7037 35.6476 50.6924 35.6908 50.6784 35.7341C50.6728 35.7442 50.6531 35.7875 50.6475 35.7976C50.6307 35.8279 50.611 35.8568 50.59 35.8856C50.5408 35.9549 50.531 36.0443 50.5479 36.1295C50.5493 36.1338 50.5493 36.1381 50.5507 36.1424C50.5549 36.1583 50.5591 36.1742 50.5647 36.1901C50.5675 36.1973 50.5689 36.2045 50.5717 36.2103C50.5801 36.229 50.59 36.2478 50.5998 36.2651C50.5998 36.2665 50.6012 36.2665 50.6012 36.268C50.6251 36.3055 50.6545 36.3372 50.6882 36.3603C50.6938 36.3646 50.6994 36.369 50.7051 36.3733C50.7079 36.3747 50.7107 36.3776 50.7135 36.3791C50.7163 36.3805 50.7191 36.3805 50.7219 36.382C50.7724 36.4123 50.83 36.431 50.8903 36.4281C51.5108 36.3993 52.0722 37.0182 52.0441 37.6502C52.0315 37.9287 51.894 38.2432 51.689 38.4582C51.4701 38.6905 51.1725 38.8218 50.8623 38.8304C50.4945 38.8405 50.1282 38.7107 49.853 38.451C49.7632 38.3658 49.6425 38.3327 49.5302 38.3558C49.4699 38.3659 49.4123 38.3961 49.3618 38.4466C49.3604 38.4481 49.359 38.4495 49.3576 38.451C49.3576 38.451 49.3576 38.4524 49.3562 38.4524C49.3463 38.4625 49.3379 38.4755 49.3295 38.487C49.3239 38.4957 49.3169 38.5029 49.3112 38.5116C49.3084 38.5159 49.3056 38.5188 49.3028 38.5246C48.2978 40.256 47.2086 42.9771 48.9365 44.6292C50.5226 46.1456 52.9972 45.681 54.7967 44.8672C55.827 44.4027 56.766 43.726 57.5535 42.9007C57.8791 42.5674 57.3836 42.0566 57.0664 42.3899Z"/>
</mask>
<path d="M57.0664 42.3899C55.8157 43.7029 54.1342 44.6119 52.3543 44.8499C51.4476 44.9711 50.4903 44.8846 49.7183 44.3449C49.3955 44.1184 49.1288 43.8125 48.9547 43.4533C48.7484 43.0247 48.7245 42.527 48.761 42.0581C48.8396 41.0452 49.2411 40.1073 49.7225 39.2315C50.451 39.6774 51.4013 39.663 52.075 39.0815C52.4231 38.7814 52.666 38.3298 52.7305 37.8681C52.7375 37.819 52.7404 37.7714 52.7432 37.7223C52.8709 37.164 53.3144 36.7023 53.8675 36.6272C54.3728 36.558 54.982 36.786 55.2697 37.2433C55.2852 37.2736 55.3048 37.301 55.3273 37.3256C55.3764 37.3847 55.4368 37.4194 55.4985 37.4338C55.5294 37.4439 55.5603 37.4497 55.5912 37.4497C55.7133 37.4497 55.8031 37.3919 55.8635 37.3054C55.9196 37.2404 55.9519 37.1568 55.9449 37.0644C56.0403 36.2694 56.0979 35.4239 55.6894 34.7039C55.4199 34.2278 54.9118 33.8484 54.37 33.7834C54.363 33.2611 54.0612 32.7605 53.6303 32.4748C53.146 32.1545 52.5438 32.1054 51.9894 32.2309C51.9178 31.889 51.7648 31.5745 51.4841 31.3205C51.1135 30.9858 50.6222 30.8703 50.1422 30.9728C49.8629 31.0334 49.5597 31.1445 49.3169 31.3234C48.6024 30.7434 47.6774 30.5024 46.7706 30.6583C45.927 30.8025 45.1607 31.3292 44.675 32.0491C43.9128 31.7851 43.0819 31.7678 42.3042 31.9756C41.5028 32.1891 40.7785 32.6248 40.1286 33.1442C38.7769 34.2249 37.8224 35.7356 36.4749 36.8177C35.7604 37.3905 34.9365 37.8695 34.0466 38.0701C33.2254 38.1004 32.4071 38.2706 31.6351 38.5505C30.6217 38.9185 29.6897 39.4696 28.832 40.129C26.6171 40.3699 24.186 40.2978 22.2194 39.1075C21.1934 38.487 20.3077 37.5391 19.8908 36.3791C19.4248 35.0834 19.4093 33.5656 19.7841 32.2425C19.9947 31.5009 20.368 30.8429 20.9169 30.3134C21.4559 29.7926 22.1198 29.4174 22.8146 29.1664C22.8202 29.1649 22.8258 29.1606 22.8314 29.1592C23.2876 29.1087 23.748 29.0481 24.113 28.7321C24.12 28.7263 24.1256 28.7191 24.1326 28.7133C24.4358 28.8749 24.6379 29.2212 24.6632 29.6021C24.6997 30.1475 24.4611 30.6381 24.1551 31.068C24.0428 31.2253 24.1298 31.4706 24.2814 31.5615C24.3319 31.5918 24.3825 31.6062 24.433 31.6091C24.4821 31.6192 24.5327 31.6177 24.5818 31.5975C25.5377 31.2296 26.5651 30.7304 27.2248 29.8993C27.5491 29.491 27.7274 29.0105 27.7035 28.4781C27.6838 28.0511 27.5617 27.6341 27.3722 27.2532C27.7638 26.8376 27.9702 26.2446 27.754 25.6733C27.6277 25.3414 27.3975 25.0803 27.0803 24.9302C26.8683 24.8292 26.6395 24.7672 26.4079 24.7455C26.4093 24.5868 26.4023 24.4296 26.3742 24.2708C26.3251 23.9938 26.189 23.7327 25.9953 23.535C25.6654 23.1988 25.1966 23.0618 24.7446 23.118C24.6 22.7227 24.3572 22.3894 24.0007 22.1456C23.529 21.8224 22.9507 21.668 22.3921 21.6045C21.8391 21.5425 21.279 21.6016 20.7695 21.8382C20.3357 22.0388 19.9273 22.336 19.5876 22.6794C19.575 22.6794 19.5623 22.6794 19.5511 22.6794C18.6331 22.6794 17.7081 22.7717 16.8154 22.9925C15.2181 23.3893 13.719 24.2405 12.6746 25.5622C12.0711 26.3269 11.6051 27.1839 11.1461 28.0453C11.1461 28.0467 11.1461 28.0467 11.1447 28.0482C9.98666 28.4132 8.93533 29.1808 8.10858 30.0753C6.79477 31.4965 5.90205 33.2452 4.74404 34.7905C4.11801 35.6259 3.40075 36.4065 2.53469 36.9793C2.15571 37.2303 2.50803 37.8551 2.88841 37.6026C4.45348 36.5666 5.52166 34.9766 6.5379 33.4126C7.54712 31.8601 8.59143 30.2283 10.1944 29.263C11.0464 28.7494 12.0107 28.4623 13.0017 28.5618C13.1912 28.5806 13.3526 28.3829 13.3526 28.2011C13.3526 27.9905 13.1912 27.8592 13.0017 27.8404C12.6817 27.8072 12.3644 27.8144 12.0528 27.8505C12.7125 26.6501 13.4509 25.5059 14.6004 24.7325C15.9311 23.8366 17.5144 23.4629 19.0879 23.4066C19.9862 23.3748 20.9646 23.3763 21.804 23.7529C21.978 23.8308 22.1801 23.8048 22.284 23.623C22.371 23.4701 22.3331 23.2075 22.1577 23.1296C21.6706 22.9103 21.1597 22.7934 20.6389 22.7328C20.7639 22.6505 20.8902 22.5726 21.0235 22.5048C21.4095 22.31 21.8391 22.2769 22.2616 22.31C22.7009 22.3447 23.1613 22.4687 23.5431 22.6996C23.8982 22.9146 24.0723 23.2262 24.1607 23.6331C24.193 23.7832 24.2898 23.8611 24.3993 23.8842C24.4597 23.9058 24.5256 23.9087 24.5916 23.8856C24.6435 23.8669 24.6955 23.851 24.7488 23.8394C24.7713 23.8337 24.805 23.8207 24.8288 23.8236C24.7811 23.8293 24.7769 23.8308 24.8162 23.825C24.8302 23.8236 24.8429 23.8221 24.8569 23.8221C24.9116 23.8178 24.9664 23.8178 25.0197 23.8221C25.0281 23.8221 25.0731 23.8293 25.0815 23.8293C25.0955 23.8322 25.111 23.8351 25.1138 23.8366C25.1334 23.8409 25.2696 23.8669 25.2752 23.8871C25.2611 23.8813 25.2485 23.8755 25.2345 23.8697C25.2485 23.8755 25.2626 23.8827 25.2766 23.8899C25.2976 23.9 25.3187 23.9116 25.3383 23.9246C25.358 23.9375 25.3791 23.9491 25.3987 23.9621C25.4057 23.9664 25.4113 23.9707 25.4184 23.9751C25.4492 23.9981 25.4436 23.9938 25.4043 23.9621C25.438 23.9722 25.4843 24.0328 25.5082 24.0587C25.525 24.0761 25.5391 24.0948 25.5559 24.1121C25.5573 24.1136 25.5573 24.1136 25.5573 24.115C25.5826 24.1554 25.6064 24.1973 25.6289 24.2391C25.6317 24.2434 25.6331 24.2449 25.6345 24.2478C25.6345 24.2492 25.6345 24.2492 25.6345 24.2492C25.6429 24.2752 25.6528 24.2997 25.6598 24.3257C25.6752 24.3776 25.6851 24.431 25.6949 24.4844C25.6949 24.4858 25.6949 24.4858 25.6949 24.4873C25.6949 24.4902 25.6949 24.4916 25.6949 24.4974C25.6963 24.5248 25.6991 24.5522 25.7005 24.5796C25.7033 24.6344 25.7033 24.6907 25.7019 24.7455C25.7005 24.8393 25.6935 24.9345 25.6864 25.0283C25.6822 25.0529 25.6794 25.0788 25.6808 25.1048C25.6724 25.2044 25.7215 25.2996 25.7945 25.3674C25.8563 25.4338 25.9377 25.4756 26.0317 25.4655C26.1567 25.4525 26.2802 25.4525 26.4051 25.4655C26.4178 25.4684 26.4486 25.4727 26.4585 25.4742C26.4907 25.4814 26.523 25.4886 26.5553 25.4972C26.6129 25.5131 26.669 25.5333 26.7252 25.5535C26.7378 25.5593 26.749 25.5651 26.7616 25.5708C26.7911 25.5853 26.8192 25.6011 26.8459 25.6184C26.8683 25.6329 26.8908 25.6473 26.9132 25.6617C26.9175 25.6646 26.9203 25.6661 26.9231 25.6675C26.9259 25.6704 26.9273 25.6733 26.9329 25.679C26.9525 25.7007 26.9736 25.7209 26.9932 25.7425C26.9975 25.7469 27.0003 25.7497 27.0031 25.7526C27.0045 25.7555 27.0059 25.7584 27.0101 25.7642C27.0368 25.8075 27.062 25.8522 27.0831 25.8984C27.0859 25.907 27.0943 25.9301 27.0985 25.946C27.1069 25.9748 27.114 26.0037 27.121 26.0325C27.1224 26.0383 27.1252 26.0614 27.128 26.0773C27.1294 26.096 27.1308 26.1249 27.1308 26.1307C27.1322 26.161 27.1308 26.1912 27.1294 26.2201C27.1294 26.2302 27.128 26.2389 27.128 26.2446C27.1182 26.3009 27.1041 26.3572 27.0859 26.412C27.0803 26.4293 27.062 26.4683 27.0648 26.4639C27.055 26.4841 27.0452 26.5058 27.034 26.526C27.0185 26.5534 27.0031 26.5808 26.9862 26.6068C26.9834 26.6111 26.9624 26.64 26.9539 26.6515C26.9189 26.6948 26.8824 26.7366 26.8417 26.7756C26.8234 26.7944 26.8024 26.8102 26.7841 26.829C26.7799 26.8333 26.7757 26.8362 26.7743 26.8376C26.7645 26.8449 26.7546 26.8521 26.7448 26.8593C26.7111 26.8838 26.683 26.9127 26.6564 26.9458C26.5764 27.0324 26.5371 27.1551 26.5862 27.2864C26.5946 27.3094 26.6044 27.3311 26.6185 27.3527C26.822 27.6889 26.9764 28.0713 26.9946 28.4709C27.0129 28.8792 26.8767 29.2198 26.6058 29.5184C26.2184 29.9455 25.7328 30.2687 25.219 30.5284C25.3398 30.1691 25.3903 29.7882 25.3369 29.3987C25.2626 28.8634 24.965 28.38 24.5214 28.1088C24.6127 27.8678 24.6548 27.6038 24.652 27.3527C24.6407 26.2836 23.9389 25.2909 22.9283 25.0052C22.4524 24.8711 21.9177 24.8956 21.4362 25.0413C21.3618 24.9216 21.2622 24.8162 21.1372 24.7268C20.907 24.5623 20.6277 24.4887 20.3526 24.4613C19.9245 24.4209 19.4978 24.5421 19.137 24.7729C18.7412 24.4512 18.2219 24.2824 17.7179 24.3444C17.1102 24.4209 16.5684 24.7773 16.2525 25.3183C16.1543 25.4857 16.216 25.7137 16.3789 25.8118C16.5445 25.9113 16.7607 25.8493 16.8589 25.6819C16.9516 25.5218 17.0975 25.3645 17.2421 25.2678C17.2898 25.2361 17.339 25.2058 17.3909 25.1798C17.4105 25.1697 17.4316 25.1596 17.4513 25.1495C17.4569 25.1466 17.4751 25.1394 17.4807 25.138C17.5341 25.1192 17.5888 25.1005 17.6436 25.086C17.6688 25.0803 17.6927 25.0745 17.7179 25.0687C17.7236 25.0673 17.7601 25.0615 17.7699 25.0601C17.9959 25.0341 18.1475 25.0586 18.3552 25.1322C18.5307 25.1957 18.7033 25.3169 18.8479 25.4727C18.9139 25.5449 19.0065 25.578 19.0991 25.5766C19.1946 25.5824 19.29 25.5492 19.3714 25.4771C19.3855 25.4655 19.3995 25.4525 19.4136 25.441C19.4178 25.4381 19.4276 25.4309 19.4346 25.4266C19.4725 25.4006 19.5104 25.3746 19.5497 25.3515C19.5932 25.3256 19.6395 25.3025 19.6859 25.2808C19.6873 25.2808 19.6873 25.2808 19.6873 25.2794C19.6901 25.2779 19.6915 25.2779 19.6957 25.2765C19.7167 25.2678 19.7378 25.2606 19.7603 25.2534C19.8473 25.2231 19.9343 25.2058 20.0241 25.1856C20.0255 25.1856 20.0255 25.1856 20.0283 25.1842C20.0298 25.1842 20.0312 25.1842 20.0326 25.1842C20.055 25.1827 20.0775 25.1798 20.0999 25.1784C20.1505 25.1755 20.2024 25.1741 20.2529 25.1755C20.2922 25.1769 20.3315 25.1798 20.3708 25.1842C20.3736 25.1856 20.4452 25.1986 20.4621 25.2029C20.507 25.2145 20.5505 25.2274 20.594 25.2433C20.6024 25.2462 20.6137 25.2505 20.6193 25.252C20.6361 25.2592 20.653 25.2678 20.6684 25.2765C20.7049 25.2953 20.7386 25.3183 20.7723 25.3414C20.7793 25.3472 20.7919 25.3587 20.8004 25.366C20.8158 25.3804 20.8298 25.3963 20.8439 25.4136C20.8439 25.4136 20.8439 25.4136 20.8453 25.415C20.8467 25.4165 20.8467 25.4165 20.8481 25.4193C20.8593 25.4381 20.8677 25.4583 20.8804 25.4756C20.8804 25.4756 20.8804 25.4756 20.8818 25.4771C20.8818 25.4785 20.8818 25.4785 20.8818 25.4785C20.8846 25.4929 20.9014 25.5665 20.8916 25.4929C20.8958 25.5304 20.9056 25.5665 20.9183 25.6026C20.9197 25.6083 20.9225 25.6141 20.9239 25.6199C20.9267 25.6285 20.9309 25.6372 20.9351 25.6444C20.9393 25.6545 20.9421 25.6646 20.9477 25.6733C20.9491 25.6762 20.9519 25.679 20.9548 25.6834C21.0137 25.7873 21.1106 25.8608 21.2439 25.8551C21.2804 25.8536 21.3197 25.8435 21.3562 25.8291C21.3801 25.8219 21.4039 25.8132 21.4278 25.8031C21.8657 25.5997 22.4665 25.578 22.9142 25.7613C23.3241 25.9287 23.6526 26.2778 23.8196 26.6948C23.9824 27.1017 24.0273 27.6081 23.8 27.9991C23.7213 28.1347 23.5796 28.266 23.3901 28.3295C23.1711 28.4031 22.9437 28.4219 22.7163 28.4464C22.6644 28.4522 22.6153 28.4666 22.5704 28.4882C21.2074 28.9932 19.961 29.9239 19.3644 31.3191C18.7707 32.7071 18.6766 34.375 19.0037 35.8481C19.3209 37.278 20.1603 38.4769 21.2972 39.3441C22.2966 40.1045 23.5038 40.5474 24.7221 40.7624C25.7651 40.9471 26.8234 40.9846 27.8761 40.9254C27.7624 41.0293 27.6487 41.1346 27.5379 41.2414C27.1055 41.6584 26.6971 42.0985 26.3012 42.5501C24.0905 42.2875 21.9499 41.3857 20.2136 39.9515C19.7055 39.5317 19.2325 39.07 18.7931 38.5751C18.4885 38.2317 17.9931 38.7424 18.2962 39.0858C19.9118 40.9081 22.0159 42.2456 24.3319 42.8935C24.7993 43.0247 25.2724 43.1229 25.751 43.1979C25.4506 43.56 25.1573 43.9265 24.8667 44.2973C24.6506 44.4301 24.426 44.5498 24.1972 44.6566C23.3101 44.5729 22.4539 44.2973 21.6594 43.8717C20.726 43.3725 19.8346 42.7376 19.0402 42.0278C18.2654 41.3352 17.5804 40.5373 17.0919 39.6038C16.5796 38.6227 16.3059 37.5204 16.1796 36.4195C16.0308 35.1152 16.056 33.7979 16.0883 32.4878C16.0995 32.0232 15.3977 32.0232 15.3865 32.4878C15.3275 34.8843 15.2981 37.3891 16.3101 39.6067C17.2505 41.667 19.0991 43.2065 20.9856 44.3132C21.5738 44.658 22.1928 44.9336 22.8356 45.1226C21.8868 45.3405 20.893 45.3607 19.9315 45.1818C18.8212 44.9769 17.7923 44.5383 16.8505 43.9381C16.8407 43.9236 16.8322 43.9092 16.8196 43.8948C15.7009 42.6107 14.9317 41.0409 14.5738 39.3585C14.4769 38.9055 13.8004 39.0974 13.8972 39.5504C14.1092 40.5489 14.4643 41.5069 14.9401 42.3986C14.3197 41.7983 13.7372 41.1592 13.1589 40.5171C12.8515 40.1766 12.356 40.6874 12.662 41.0279C13.9337 42.4361 15.2405 43.8674 16.8912 44.8124C18.518 45.7445 20.4172 46.2033 22.2728 45.9537C22.8188 45.8801 23.3536 45.7503 23.8701 45.5656C23.4013 46.16 22.9283 46.7501 22.43 47.3201C21.9036 47.9217 21.3506 48.5335 20.6389 48.9043C19.8262 49.3256 18.8745 49.2823 18.0197 49.0269C17.0989 48.7513 16.289 48.2074 15.4763 47.701C15.3725 47.636 15.27 47.6346 15.1844 47.6721C14.3211 47.9924 13.3456 47.978 12.4599 47.7572C11.5854 47.5394 10.8499 46.9088 10.2211 46.2769C10.1776 46.2336 10.1312 46.2062 10.0849 46.1903C10.0217 46.1629 9.94595 46.1557 9.85893 46.1845C9.54872 46.2855 9.21325 46.2408 8.92831 46.0792C8.60687 45.8974 8.42159 45.5872 8.33035 45.2279C8.10717 44.3464 8.51283 43.4691 8.93392 42.7246C9.07709 42.4707 8.8876 42.2326 8.67144 42.1922C8.58441 42.1533 8.48054 42.1475 8.37246 42.2038C8.05664 42.3683 7.60607 42.4967 7.25376 42.3841C6.9239 42.2774 6.96741 41.7738 7.02216 41.5011C7.10918 41.0755 7.31692 40.6975 7.53449 40.3281C7.79135 39.8953 8.05384 39.4653 8.31492 39.0339C8.55354 38.6385 7.94716 38.275 7.70854 38.6703C7.39974 39.1839 7.07549 39.6904 6.78494 40.2141C6.50842 40.7119 6.27963 41.2688 6.28805 41.8517C6.29507 42.4115 6.54913 42.9598 7.12041 43.094C7.39272 43.1575 7.67766 43.1517 7.95558 43.0998C7.61169 43.8847 7.41939 44.7475 7.70293 45.5858C7.86996 46.0778 8.17876 46.5049 8.64056 46.7386C8.89322 46.867 9.16974 46.9435 9.45047 46.9565C9.41959 47.0142 9.3887 47.0719 9.35361 47.1282C9.34098 47.1484 9.21465 47.3518 9.19641 47.3648C9.20623 47.3532 9.2343 47.3143 9.1936 47.3677C9.17956 47.385 9.16693 47.4023 9.15289 47.4182C9.12341 47.4557 9.09113 47.4918 9.06025 47.5278C8.93954 47.6649 8.80759 47.7875 8.66863 47.9044C8.66723 47.9044 8.66723 47.9058 8.66723 47.9058C8.64618 47.9217 8.62652 47.9376 8.60547 47.952C8.57038 47.978 8.53529 48.0025 8.49879 48.0256C8.42019 48.079 8.33878 48.128 8.25596 48.1728C8.09454 48.2622 8.02997 48.5061 8.12963 48.6662C8.23631 48.835 8.43703 48.8913 8.60968 48.7961C9.2736 48.431 9.79296 47.8568 10.1284 47.1729C10.7516 47.7442 11.4661 48.2507 12.276 48.4527C13.0284 48.6402 13.8523 48.7037 14.6299 48.5681C13.8846 49.8768 12.7813 50.9257 11.6977 51.9472C11.3636 52.2617 11.8619 52.7711 12.1946 52.458C13.4284 51.2965 14.6931 50.0831 15.4525 48.5291C16.0855 48.923 16.7228 49.3112 17.419 49.581C18.2359 49.8969 19.13 50.0311 19.9947 49.8782C20.8088 49.7339 21.512 49.2708 22.1114 48.7037C22.7486 48.1021 23.3073 47.4052 23.8589 46.7213C24.2323 46.2581 24.6014 45.7834 24.972 45.3073C24.9832 45.2958 24.9916 45.2828 25.0001 45.2712C26.7252 43.0594 28.5148 40.8187 31.0358 39.5793C32.657 38.7828 34.5673 38.5087 36.2854 39.1262C36.4637 39.1912 36.6686 39.0526 36.7177 38.8737C36.7711 38.6746 36.6517 38.4943 36.4721 38.4293C36.2124 38.3356 35.9485 38.2634 35.6804 38.2071C36.6756 37.6632 37.5403 36.8567 38.3038 36.0184C39.3959 34.8165 40.4795 33.4256 42.0207 32.8239C42.8896 32.4834 43.8174 32.4589 44.6862 32.8167C44.7339 32.8369 44.7831 32.8384 44.8308 32.8297C44.9417 32.8355 45.054 32.785 45.127 32.6551C45.5031 31.977 46.1544 31.5023 46.9012 31.3624C47.6718 31.2166 48.4887 31.4864 49.0502 32.0405C49.0544 32.0448 49.0586 32.0477 49.0628 32.0506C49.0656 32.0549 49.0684 32.0578 49.0726 32.0621C49.1961 32.1891 49.4502 32.2151 49.5695 32.0621C49.5948 32.0289 49.6214 31.9986 49.6509 31.9698C49.6636 31.9568 49.6762 31.9453 49.6902 31.9337C49.6706 31.9481 49.6706 31.9481 49.6902 31.9337C49.7562 31.8847 49.8278 31.8471 49.8994 31.8082C49.9359 31.788 49.9906 31.7678 50.0608 31.7433C50.1296 31.7202 50.1997 31.6985 50.2699 31.6812C50.5422 31.6134 50.8454 31.6855 51.0363 31.8832C51.049 31.8962 51.1009 31.9554 51.0953 31.9467C51.0939 31.9438 51.1416 32.0145 51.1542 32.0347C51.1739 32.0679 51.1921 32.1011 51.209 32.1357C51.2118 32.1415 51.2356 32.1963 51.2399 32.2035C51.2665 32.2713 51.2876 32.3435 51.3044 32.4142C51.3128 32.4517 51.3199 32.4906 51.3283 32.5282C51.3311 32.5469 51.3325 32.5585 51.3339 32.5628C51.3353 32.5772 51.3367 32.5916 51.3381 32.6046C51.3732 33.0202 51.2834 33.4256 51.1949 33.8282C51.1528 34.0186 51.2511 34.2192 51.4406 34.2725C51.6174 34.323 51.8308 34.2119 51.8729 34.02C51.9459 33.6882 52.0147 33.3232 52.0329 32.961C52.1059 32.9408 52.1789 32.9221 52.2547 32.9062C52.2673 32.9033 52.28 32.9019 52.2926 32.899C52.2701 32.9019 52.2715 32.9004 52.2954 32.899C52.3277 32.8946 52.36 32.8918 52.3923 32.8903C52.4582 32.886 52.5242 32.8845 52.5902 32.8874C52.6309 32.8889 52.6716 32.8918 52.7109 32.8961C52.7235 32.8975 52.7347 32.899 52.7474 32.9004C52.7488 32.9004 52.7488 32.9004 52.7502 32.9004C52.8119 32.9105 52.8737 32.9249 52.9341 32.9423C52.9846 32.9567 53.0337 32.974 53.0814 32.9942C53.0941 33 53.1362 33.0202 53.1376 33.0216C53.1629 33.0346 53.1881 33.049 53.212 33.0634C53.2372 33.0779 53.2611 33.0937 53.285 33.1096C53.2892 33.1125 53.3173 33.1341 53.3313 33.1442C53.3439 33.1558 53.372 33.1789 53.3748 33.1818C53.4001 33.2048 53.4239 33.2294 53.4478 33.2553C53.4506 33.2582 53.4716 33.2828 53.4843 33.2972C53.4927 33.3087 53.518 33.3434 53.5208 33.3477C53.539 33.3765 53.5573 33.4068 53.5727 33.4386C53.5755 33.4429 53.5896 33.4747 53.598 33.4905C53.6036 33.5064 53.6176 33.5425 53.619 33.5468C53.6303 33.58 53.6387 33.6146 53.6471 33.6492C53.6499 33.6651 53.6527 33.6795 53.6555 33.6954C53.6527 33.6896 53.6611 33.756 53.6611 33.7618C53.6625 33.7906 53.6625 33.8195 53.6611 33.8483C53.6611 33.8613 53.6583 33.883 53.6583 33.8916C53.6471 33.9551 53.6303 34.0157 53.6078 34.0749C53.5545 34.2192 53.6373 34.3952 53.7636 34.4774C53.765 34.4789 53.7664 34.4789 53.7678 34.4803C53.7805 34.4875 53.7931 34.4947 53.8057 34.5005C53.8717 34.5323 53.9503 34.5438 54.0401 34.5178C54.1272 34.4933 54.2282 34.4875 54.3195 34.5077C54.4472 34.5351 54.5482 34.5755 54.6563 34.639C54.8711 34.766 55.0311 34.9536 55.142 35.1945C55.2992 35.535 55.3301 35.9159 55.3132 36.2954C54.8669 35.9852 54.2998 35.8467 53.7678 35.9188C53.2611 35.9881 52.8077 36.2651 52.4877 36.659C52.4386 36.5739 52.3852 36.4916 52.3235 36.4123C52.0877 36.1122 51.7564 35.8799 51.3942 35.7716C51.4307 35.5797 51.4279 35.3792 51.3886 35.1887C51.3156 34.828 51.0854 34.5279 50.7963 34.3202C50.2334 33.9162 49.4797 33.9811 48.9056 34.3245C48.7722 34.2379 48.6277 34.1701 48.4733 34.1254C47.6774 33.8931 46.9026 34.2552 46.226 34.6563C45.8344 34.8886 46.1881 35.5119 46.5797 35.2796C46.8521 35.118 47.1272 34.9593 47.4275 34.8627C47.6914 34.7775 47.9511 34.7415 48.2038 34.8006C48.4297 34.8526 48.6206 34.9463 48.7526 35.1483C48.9042 35.3792 48.9393 35.6548 48.9393 35.9275C48.9407 36.3921 49.6425 36.3921 49.6411 35.9275C49.6411 35.5653 49.5807 35.1873 49.4067 34.8684C49.4123 34.8655 49.4179 34.8627 49.4221 34.8612C49.4249 34.8598 49.4277 34.8583 49.4334 34.8569C49.5035 34.8295 49.5737 34.8064 49.6467 34.7891C49.6734 34.7833 49.7 34.7775 49.7281 34.7732C49.7351 34.7732 49.7787 34.766 49.7899 34.766C49.8587 34.7617 49.926 34.7631 49.9948 34.7674C50.0018 34.7674 50.006 34.7674 50.0103 34.7674C50.0131 34.7689 50.0159 34.7689 50.0201 34.7689C50.0496 34.7746 50.079 34.7804 50.1071 34.7876C50.159 34.8006 50.2082 34.8179 50.2587 34.8381C50.2727 34.8439 50.2952 34.8554 50.3022 34.8598C50.3331 34.8756 50.3626 34.8944 50.392 34.9132C50.3963 34.916 50.4201 34.9319 50.4356 34.942C50.4454 34.9507 50.4805 34.9795 50.4861 34.9839C50.5086 35.0041 50.5296 35.0257 50.5493 35.0473C50.5563 35.056 50.5872 35.095 50.5942 35.1022C50.6222 35.1455 50.6475 35.1902 50.6714 35.2364C50.6742 35.2407 50.6742 35.2421 50.6756 35.245C50.677 35.2493 50.6784 35.2551 50.6798 35.2638C50.6882 35.2941 50.698 35.3215 50.7051 35.3518C50.7065 35.359 50.7135 35.3994 50.7163 35.4095C50.7177 35.4297 50.7205 35.4484 50.7205 35.4686C50.7219 35.4989 50.7205 35.5292 50.7191 35.561C50.7177 35.5754 50.7163 35.5913 50.7135 35.6028C50.7037 35.6476 50.6924 35.6908 50.6784 35.7341C50.6728 35.7442 50.6531 35.7875 50.6475 35.7976C50.6307 35.8279 50.611 35.8568 50.59 35.8856C50.5408 35.9549 50.531 36.0443 50.5479 36.1295C50.5493 36.1338 50.5493 36.1381 50.5507 36.1424C50.5549 36.1583 50.5591 36.1742 50.5647 36.1901C50.5675 36.1973 50.5689 36.2045 50.5717 36.2103C50.5801 36.229 50.59 36.2478 50.5998 36.2651C50.5998 36.2665 50.6012 36.2665 50.6012 36.268C50.6251 36.3055 50.6545 36.3372 50.6882 36.3603C50.6938 36.3646 50.6994 36.369 50.7051 36.3733C50.7079 36.3747 50.7107 36.3776 50.7135 36.3791C50.7163 36.3805 50.7191 36.3805 50.7219 36.382C50.7724 36.4123 50.83 36.431 50.8903 36.4281C51.5108 36.3993 52.0722 37.0182 52.0441 37.6502C52.0315 37.9287 51.894 38.2432 51.689 38.4582C51.4701 38.6905 51.1725 38.8218 50.8623 38.8304C50.4945 38.8405 50.1282 38.7107 49.853 38.451C49.7632 38.3658 49.6425 38.3327 49.5302 38.3558C49.4699 38.3659 49.4123 38.3961 49.3618 38.4466C49.3604 38.4481 49.359 38.4495 49.3576 38.451C49.3576 38.451 49.3576 38.4524 49.3562 38.4524C49.3463 38.4625 49.3379 38.4755 49.3295 38.487C49.3239 38.4957 49.3169 38.5029 49.3112 38.5116C49.3084 38.5159 49.3056 38.5188 49.3028 38.5246C48.2978 40.256 47.2086 42.9771 48.9365 44.6292C50.5226 46.1456 52.9972 45.681 54.7967 44.8672C55.827 44.4027 56.766 43.726 57.5535 42.9007C57.8791 42.5674 57.3836 42.0566 57.0664 42.3899Z" fill="white"/>
<path d="M57.0664 42.3899C55.8157 43.7029 54.1342 44.6119 52.3543 44.8499C51.4476 44.9711 50.4903 44.8846 49.7183 44.3449C49.3955 44.1184 49.1288 43.8125 48.9547 43.4533C48.7484 43.0247 48.7245 42.527 48.761 42.0581C48.8396 41.0452 49.2411 40.1073 49.7225 39.2315C50.451 39.6774 51.4013 39.663 52.075 39.0815C52.4231 38.7814 52.666 38.3298 52.7305 37.8681C52.7375 37.819 52.7404 37.7714 52.7432 37.7223C52.8709 37.164 53.3144 36.7023 53.8675 36.6272C54.3728 36.558 54.982 36.786 55.2697 37.2433C55.2852 37.2736 55.3048 37.301 55.3273 37.3256C55.3764 37.3847 55.4368 37.4194 55.4985 37.4338C55.5294 37.4439 55.5603 37.4497 55.5912 37.4497C55.7133 37.4497 55.8031 37.3919 55.8635 37.3054C55.9196 37.2404 55.9519 37.1568 55.9449 37.0644C56.0403 36.2694 56.0979 35.4239 55.6894 34.7039C55.4199 34.2278 54.9118 33.8484 54.37 33.7834C54.363 33.2611 54.0612 32.7605 53.6303 32.4748C53.146 32.1545 52.5438 32.1054 51.9894 32.2309C51.9178 31.889 51.7648 31.5745 51.4841 31.3205C51.1135 30.9858 50.6222 30.8703 50.1422 30.9728C49.8629 31.0334 49.5597 31.1445 49.3169 31.3234C48.6024 30.7434 47.6774 30.5024 46.7706 30.6583C45.927 30.8025 45.1607 31.3292 44.675 32.0491C43.9128 31.7851 43.0819 31.7678 42.3042 31.9756C41.5028 32.1891 40.7785 32.6248 40.1286 33.1442C38.7769 34.2249 37.8224 35.7356 36.4749 36.8177C35.7604 37.3905 34.9365 37.8695 34.0466 38.0701C33.2254 38.1004 32.4071 38.2706 31.6351 38.5505C30.6217 38.9185 29.6897 39.4696 28.832 40.129C26.6171 40.3699 24.186 40.2978 22.2194 39.1075C21.1934 38.487 20.3077 37.5391 19.8908 36.3791C19.4248 35.0834 19.4093 33.5656 19.7841 32.2425C19.9947 31.5009 20.368 30.8429 20.9169 30.3134C21.4559 29.7926 22.1198 29.4174 22.8146 29.1664C22.8202 29.1649 22.8258 29.1606 22.8314 29.1592C23.2876 29.1087 23.748 29.0481 24.113 28.7321C24.12 28.7263 24.1256 28.7191 24.1326 28.7133C24.4358 28.8749 24.6379 29.2212 24.6632 29.6021C24.6997 30.1475 24.4611 30.6381 24.1551 31.068C24.0428 31.2253 24.1298 31.4706 24.2814 31.5615C24.3319 31.5918 24.3825 31.6062 24.433 31.6091C24.4821 31.6192 24.5327 31.6177 24.5818 31.5975C25.5377 31.2296 26.5651 30.7304 27.2248 29.8993C27.5491 29.491 27.7274 29.0105 27.7035 28.4781C27.6838 28.0511 27.5617 27.6341 27.3722 27.2532C27.7638 26.8376 27.9702 26.2446 27.754 25.6733C27.6277 25.3414 27.3975 25.0803 27.0803 24.9302C26.8683 24.8292 26.6395 24.7672 26.4079 24.7455C26.4093 24.5868 26.4023 24.4296 26.3742 24.2708C26.3251 23.9938 26.189 23.7327 25.9953 23.535C25.6654 23.1988 25.1966 23.0618 24.7446 23.118C24.6 22.7227 24.3572 22.3894 24.0007 22.1456C23.529 21.8224 22.9507 21.668 22.3921 21.6045C21.8391 21.5425 21.279 21.6016 20.7695 21.8382C20.3357 22.0388 19.9273 22.336 19.5876 22.6794C19.575 22.6794 19.5623 22.6794 19.5511 22.6794C18.6331 22.6794 17.7081 22.7717 16.8154 22.9925C15.2181 23.3893 13.719 24.2405 12.6746 25.5622C12.0711 26.3269 11.6051 27.1839 11.1461 28.0453C11.1461 28.0467 11.1461 28.0467 11.1447 28.0482C9.98666 28.4132 8.93533 29.1808 8.10858 30.0753C6.79477 31.4965 5.90205 33.2452 4.74404 34.7905C4.11801 35.6259 3.40075 36.4065 2.53469 36.9793C2.15571 37.2303 2.50803 37.8551 2.88841 37.6026C4.45348 36.5666 5.52166 34.9766 6.5379 33.4126C7.54712 31.8601 8.59143 30.2283 10.1944 29.263C11.0464 28.7494 12.0107 28.4623 13.0017 28.5618C13.1912 28.5806 13.3526 28.3829 13.3526 28.2011C13.3526 27.9905 13.1912 27.8592 13.0017 27.8404C12.6817 27.8072 12.3644 27.8144 12.0528 27.8505C12.7125 26.6501 13.4509 25.5059 14.6004 24.7325C15.9311 23.8366 17.5144 23.4629 19.0879 23.4066C19.9862 23.3748 20.9646 23.3763 21.804 23.7529C21.978 23.8308 22.1801 23.8048 22.284 23.623C22.371 23.4701 22.3331 23.2075 22.1577 23.1296C21.6706 22.9103 21.1597 22.7934 20.6389 22.7328C20.7639 22.6505 20.8902 22.5726 21.0235 22.5048C21.4095 22.31 21.8391 22.2769 22.2616 22.31C22.7009 22.3447 23.1613 22.4687 23.5431 22.6996C23.8982 22.9146 24.0723 23.2262 24.1607 23.6331C24.193 23.7832 24.2898 23.8611 24.3993 23.8842C24.4597 23.9058 24.5256 23.9087 24.5916 23.8856C24.6435 23.8669 24.6955 23.851 24.7488 23.8394C24.7713 23.8337 24.805 23.8207 24.8288 23.8236C24.7811 23.8293 24.7769 23.8308 24.8162 23.825C24.8302 23.8236 24.8429 23.8221 24.8569 23.8221C24.9116 23.8178 24.9664 23.8178 25.0197 23.8221C25.0281 23.8221 25.0731 23.8293 25.0815 23.8293C25.0955 23.8322 25.111 23.8351 25.1138 23.8366C25.1334 23.8409 25.2696 23.8669 25.2752 23.8871C25.2611 23.8813 25.2485 23.8755 25.2345 23.8697C25.2485 23.8755 25.2626 23.8827 25.2766 23.8899C25.2976 23.9 25.3187 23.9116 25.3383 23.9246C25.358 23.9375 25.3791 23.9491 25.3987 23.9621C25.4057 23.9664 25.4113 23.9707 25.4184 23.9751C25.4492 23.9981 25.4436 23.9938 25.4043 23.9621C25.438 23.9722 25.4843 24.0328 25.5082 24.0587C25.525 24.0761 25.5391 24.0948 25.5559 24.1121C25.5573 24.1136 25.5573 24.1136 25.5573 24.115C25.5826 24.1554 25.6064 24.1973 25.6289 24.2391C25.6317 24.2434 25.6331 24.2449 25.6345 24.2478C25.6345 24.2492 25.6345 24.2492 25.6345 24.2492C25.6429 24.2752 25.6528 24.2997 25.6598 24.3257C25.6752 24.3776 25.6851 24.431 25.6949 24.4844C25.6949 24.4858 25.6949 24.4858 25.6949 24.4873C25.6949 24.4902 25.6949 24.4916 25.6949 24.4974C25.6963 24.5248 25.6991 24.5522 25.7005 24.5796C25.7033 24.6344 25.7033 24.6907 25.7019 24.7455C25.7005 24.8393 25.6935 24.9345 25.6864 25.0283C25.6822 25.0529 25.6794 25.0788 25.6808 25.1048C25.6724 25.2044 25.7215 25.2996 25.7945 25.3674C25.8563 25.4338 25.9377 25.4756 26.0317 25.4655C26.1567 25.4525 26.2802 25.4525 26.4051 25.4655C26.4178 25.4684 26.4486 25.4727 26.4585 25.4742C26.4907 25.4814 26.523 25.4886 26.5553 25.4972C26.6129 25.5131 26.669 25.5333 26.7252 25.5535C26.7378 25.5593 26.749 25.5651 26.7616 25.5708C26.7911 25.5853 26.8192 25.6011 26.8459 25.6184C26.8683 25.6329 26.8908 25.6473 26.9132 25.6617C26.9175 25.6646 26.9203 25.6661 26.9231 25.6675C26.9259 25.6704 26.9273 25.6733 26.9329 25.679C26.9525 25.7007 26.9736 25.7209 26.9932 25.7425C26.9975 25.7469 27.0003 25.7497 27.0031 25.7526C27.0045 25.7555 27.0059 25.7584 27.0101 25.7642C27.0368 25.8075 27.062 25.8522 27.0831 25.8984C27.0859 25.907 27.0943 25.9301 27.0985 25.946C27.1069 25.9748 27.114 26.0037 27.121 26.0325C27.1224 26.0383 27.1252 26.0614 27.128 26.0773C27.1294 26.096 27.1308 26.1249 27.1308 26.1307C27.1322 26.161 27.1308 26.1912 27.1294 26.2201C27.1294 26.2302 27.128 26.2389 27.128 26.2446C27.1182 26.3009 27.1041 26.3572 27.0859 26.412C27.0803 26.4293 27.062 26.4683 27.0648 26.4639C27.055 26.4841 27.0452 26.5058 27.034 26.526C27.0185 26.5534 27.0031 26.5808 26.9862 26.6068C26.9834 26.6111 26.9624 26.64 26.9539 26.6515C26.9189 26.6948 26.8824 26.7366 26.8417 26.7756C26.8234 26.7944 26.8024 26.8102 26.7841 26.829C26.7799 26.8333 26.7757 26.8362 26.7743 26.8376C26.7645 26.8449 26.7546 26.8521 26.7448 26.8593C26.7111 26.8838 26.683 26.9127 26.6564 26.9458C26.5764 27.0324 26.5371 27.1551 26.5862 27.2864C26.5946 27.3094 26.6044 27.3311 26.6185 27.3527C26.822 27.6889 26.9764 28.0713 26.9946 28.4709C27.0129 28.8792 26.8767 29.2198 26.6058 29.5184C26.2184 29.9455 25.7328 30.2687 25.219 30.5284C25.3398 30.1691 25.3903 29.7882 25.3369 29.3987C25.2626 28.8634 24.965 28.38 24.5214 28.1088C24.6127 27.8678 24.6548 27.6038 24.652 27.3527C24.6407 26.2836 23.9389 25.2909 22.9283 25.0052C22.4524 24.8711 21.9177 24.8956 21.4362 25.0413C21.3618 24.9216 21.2622 24.8162 21.1372 24.7268C20.907 24.5623 20.6277 24.4887 20.3526 24.4613C19.9245 24.4209 19.4978 24.5421 19.137 24.7729C18.7412 24.4512 18.2219 24.2824 17.7179 24.3444C17.1102 24.4209 16.5684 24.7773 16.2525 25.3183C16.1543 25.4857 16.216 25.7137 16.3789 25.8118C16.5445 25.9113 16.7607 25.8493 16.8589 25.6819C16.9516 25.5218 17.0975 25.3645 17.2421 25.2678C17.2898 25.2361 17.339 25.2058 17.3909 25.1798C17.4105 25.1697 17.4316 25.1596 17.4513 25.1495C17.4569 25.1466 17.4751 25.1394 17.4807 25.138C17.5341 25.1192 17.5888 25.1005 17.6436 25.086C17.6688 25.0803 17.6927 25.0745 17.7179 25.0687C17.7236 25.0673 17.7601 25.0615 17.7699 25.0601C17.9959 25.0341 18.1475 25.0586 18.3552 25.1322C18.5307 25.1957 18.7033 25.3169 18.8479 25.4727C18.9139 25.5449 19.0065 25.578 19.0991 25.5766C19.1946 25.5824 19.29 25.5492 19.3714 25.4771C19.3855 25.4655 19.3995 25.4525 19.4136 25.441C19.4178 25.4381 19.4276 25.4309 19.4346 25.4266C19.4725 25.4006 19.5104 25.3746 19.5497 25.3515C19.5932 25.3256 19.6395 25.3025 19.6859 25.2808C19.6873 25.2808 19.6873 25.2808 19.6873 25.2794C19.6901 25.2779 19.6915 25.2779 19.6957 25.2765C19.7167 25.2678 19.7378 25.2606 19.7603 25.2534C19.8473 25.2231 19.9343 25.2058 20.0241 25.1856C20.0255 25.1856 20.0255 25.1856 20.0283 25.1842C20.0298 25.1842 20.0312 25.1842 20.0326 25.1842C20.055 25.1827 20.0775 25.1798 20.0999 25.1784C20.1505 25.1755 20.2024 25.1741 20.2529 25.1755C20.2922 25.1769 20.3315 25.1798 20.3708 25.1842C20.3736 25.1856 20.4452 25.1986 20.4621 25.2029C20.507 25.2145 20.5505 25.2274 20.594 25.2433C20.6024 25.2462 20.6137 25.2505 20.6193 25.252C20.6361 25.2592 20.653 25.2678 20.6684 25.2765C20.7049 25.2953 20.7386 25.3183 20.7723 25.3414C20.7793 25.3472 20.7919 25.3587 20.8004 25.366C20.8158 25.3804 20.8298 25.3963 20.8439 25.4136C20.8439 25.4136 20.8439 25.4136 20.8453 25.415C20.8467 25.4165 20.8467 25.4165 20.8481 25.4193C20.8593 25.4381 20.8677 25.4583 20.8804 25.4756C20.8804 25.4756 20.8804 25.4756 20.8818 25.4771C20.8818 25.4785 20.8818 25.4785 20.8818 25.4785C20.8846 25.4929 20.9014 25.5665 20.8916 25.4929C20.8958 25.5304 20.9056 25.5665 20.9183 25.6026C20.9197 25.6083 20.9225 25.6141 20.9239 25.6199C20.9267 25.6285 20.9309 25.6372 20.9351 25.6444C20.9393 25.6545 20.9421 25.6646 20.9477 25.6733C20.9491 25.6762 20.9519 25.679 20.9548 25.6834C21.0137 25.7873 21.1106 25.8608 21.2439 25.8551C21.2804 25.8536 21.3197 25.8435 21.3562 25.8291C21.3801 25.8219 21.4039 25.8132 21.4278 25.8031C21.8657 25.5997 22.4665 25.578 22.9142 25.7613C23.3241 25.9287 23.6526 26.2778 23.8196 26.6948C23.9824 27.1017 24.0273 27.6081 23.8 27.9991C23.7213 28.1347 23.5796 28.266 23.3901 28.3295C23.1711 28.4031 22.9437 28.4219 22.7163 28.4464C22.6644 28.4522 22.6153 28.4666 22.5704 28.4882C21.2074 28.9932 19.961 29.9239 19.3644 31.3191C18.7707 32.7071 18.6766 34.375 19.0037 35.8481C19.3209 37.278 20.1603 38.4769 21.2972 39.3441C22.2966 40.1045 23.5038 40.5474 24.7221 40.7624C25.7651 40.9471 26.8234 40.9846 27.8761 40.9254C27.7624 41.0293 27.6487 41.1346 27.5379 41.2414C27.1055 41.6584 26.6971 42.0985 26.3012 42.5501C24.0905 42.2875 21.9499 41.3857 20.2136 39.9515C19.7055 39.5317 19.2325 39.07 18.7931 38.5751C18.4885 38.2317 17.9931 38.7424 18.2962 39.0858C19.9118 40.9081 22.0159 42.2456 24.3319 42.8935C24.7993 43.0247 25.2724 43.1229 25.751 43.1979C25.4506 43.56 25.1573 43.9265 24.8667 44.2973C24.6506 44.4301 24.426 44.5498 24.1972 44.6566C23.3101 44.5729 22.4539 44.2973 21.6594 43.8717C20.726 43.3725 19.8346 42.7376 19.0402 42.0278C18.2654 41.3352 17.5804 40.5373 17.0919 39.6038C16.5796 38.6227 16.3059 37.5204 16.1796 36.4195C16.0308 35.1152 16.056 33.7979 16.0883 32.4878C16.0995 32.0232 15.3977 32.0232 15.3865 32.4878C15.3275 34.8843 15.2981 37.3891 16.3101 39.6067C17.2505 41.667 19.0991 43.2065 20.9856 44.3132C21.5738 44.658 22.1928 44.9336 22.8356 45.1226C21.8868 45.3405 20.893 45.3607 19.9315 45.1818C18.8212 44.9769 17.7923 44.5383 16.8505 43.9381C16.8407 43.9236 16.8322 43.9092 16.8196 43.8948C15.7009 42.6107 14.9317 41.0409 14.5738 39.3585C14.4769 38.9055 13.8004 39.0974 13.8972 39.5504C14.1092 40.5489 14.4643 41.5069 14.9401 42.3986C14.3197 41.7983 13.7372 41.1592 13.1589 40.5171C12.8515 40.1766 12.356 40.6874 12.662 41.0279C13.9337 42.4361 15.2405 43.8674 16.8912 44.8124C18.518 45.7445 20.4172 46.2033 22.2728 45.9537C22.8188 45.8801 23.3536 45.7503 23.8701 45.5656C23.4013 46.16 22.9283 46.7501 22.43 47.3201C21.9036 47.9217 21.3506 48.5335 20.6389 48.9043C19.8262 49.3256 18.8745 49.2823 18.0197 49.0269C17.0989 48.7513 16.289 48.2074 15.4763 47.701C15.3725 47.636 15.27 47.6346 15.1844 47.6721C14.3211 47.9924 13.3456 47.978 12.4599 47.7572C11.5854 47.5394 10.8499 46.9088 10.2211 46.2769C10.1776 46.2336 10.1312 46.2062 10.0849 46.1903C10.0217 46.1629 9.94595 46.1557 9.85893 46.1845C9.54872 46.2855 9.21325 46.2408 8.92831 46.0792C8.60687 45.8974 8.42159 45.5872 8.33035 45.2279C8.10717 44.3464 8.51283 43.4691 8.93392 42.7246C9.07709 42.4707 8.8876 42.2326 8.67144 42.1922C8.58441 42.1533 8.48054 42.1475 8.37246 42.2038C8.05664 42.3683 7.60607 42.4967 7.25376 42.3841C6.9239 42.2774 6.96741 41.7738 7.02216 41.5011C7.10918 41.0755 7.31692 40.6975 7.53449 40.3281C7.79135 39.8953 8.05384 39.4653 8.31492 39.0339C8.55354 38.6385 7.94716 38.275 7.70854 38.6703C7.39974 39.1839 7.07549 39.6904 6.78494 40.2141C6.50842 40.7119 6.27963 41.2688 6.28805 41.8517C6.29507 42.4115 6.54913 42.9598 7.12041 43.094C7.39272 43.1575 7.67766 43.1517 7.95558 43.0998C7.61169 43.8847 7.41939 44.7475 7.70293 45.5858C7.86996 46.0778 8.17876 46.5049 8.64056 46.7386C8.89322 46.867 9.16974 46.9435 9.45047 46.9565C9.41959 47.0142 9.3887 47.0719 9.35361 47.1282C9.34098 47.1484 9.21465 47.3518 9.19641 47.3648C9.20623 47.3532 9.2343 47.3143 9.1936 47.3677C9.17956 47.385 9.16693 47.4023 9.15289 47.4182C9.12341 47.4557 9.09113 47.4918 9.06025 47.5278C8.93954 47.6649 8.80759 47.7875 8.66863 47.9044C8.66723 47.9044 8.66723 47.9058 8.66723 47.9058C8.64618 47.9217 8.62652 47.9376 8.60547 47.952C8.57038 47.978 8.53529 48.0025 8.49879 48.0256C8.42019 48.079 8.33878 48.128 8.25596 48.1728C8.09454 48.2622 8.02997 48.5061 8.12963 48.6662C8.23631 48.835 8.43703 48.8913 8.60968 48.7961C9.2736 48.431 9.79296 47.8568 10.1284 47.1729C10.7516 47.7442 11.4661 48.2507 12.276 48.4527C13.0284 48.6402 13.8523 48.7037 14.6299 48.5681C13.8846 49.8768 12.7813 50.9257 11.6977 51.9472C11.3636 52.2617 11.8619 52.7711 12.1946 52.458C13.4284 51.2965 14.6931 50.0831 15.4525 48.5291C16.0855 48.923 16.7228 49.3112 17.419 49.581C18.2359 49.8969 19.13 50.0311 19.9947 49.8782C20.8088 49.7339 21.512 49.2708 22.1114 48.7037C22.7486 48.1021 23.3073 47.4052 23.8589 46.7213C24.2323 46.2581 24.6014 45.7834 24.972 45.3073C24.9832 45.2958 24.9916 45.2828 25.0001 45.2712C26.7252 43.0594 28.5148 40.8187 31.0358 39.5793C32.657 38.7828 34.5673 38.5087 36.2854 39.1262C36.4637 39.1912 36.6686 39.0526 36.7177 38.8737C36.7711 38.6746 36.6517 38.4943 36.4721 38.4293C36.2124 38.3356 35.9485 38.2634 35.6804 38.2071C36.6756 37.6632 37.5403 36.8567 38.3038 36.0184C39.3959 34.8165 40.4795 33.4256 42.0207 32.8239C42.8896 32.4834 43.8174 32.4589 44.6862 32.8167C44.7339 32.8369 44.7831 32.8384 44.8308 32.8297C44.9417 32.8355 45.054 32.785 45.127 32.6551C45.5031 31.977 46.1544 31.5023 46.9012 31.3624C47.6718 31.2166 48.4887 31.4864 49.0502 32.0405C49.0544 32.0448 49.0586 32.0477 49.0628 32.0506C49.0656 32.0549 49.0684 32.0578 49.0726 32.0621C49.1961 32.1891 49.4502 32.2151 49.5695 32.0621C49.5948 32.0289 49.6214 31.9986 49.6509 31.9698C49.6636 31.9568 49.6762 31.9453 49.6902 31.9337C49.6706 31.9481 49.6706 31.9481 49.6902 31.9337C49.7562 31.8847 49.8278 31.8471 49.8994 31.8082C49.9359 31.788 49.9906 31.7678 50.0608 31.7433C50.1296 31.7202 50.1997 31.6985 50.2699 31.6812C50.5422 31.6134 50.8454 31.6855 51.0363 31.8832C51.049 31.8962 51.1009 31.9554 51.0953 31.9467C51.0939 31.9438 51.1416 32.0145 51.1542 32.0347C51.1739 32.0679 51.1921 32.1011 51.209 32.1357C51.2118 32.1415 51.2356 32.1963 51.2399 32.2035C51.2665 32.2713 51.2876 32.3435 51.3044 32.4142C51.3128 32.4517 51.3199 32.4906 51.3283 32.5282C51.3311 32.5469 51.3325 32.5585 51.3339 32.5628C51.3353 32.5772 51.3367 32.5916 51.3381 32.6046C51.3732 33.0202 51.2834 33.4256 51.1949 33.8282C51.1528 34.0186 51.2511 34.2192 51.4406 34.2725C51.6174 34.323 51.8308 34.2119 51.8729 34.02C51.9459 33.6882 52.0147 33.3232 52.0329 32.961C52.1059 32.9408 52.1789 32.9221 52.2547 32.9062C52.2673 32.9033 52.28 32.9019 52.2926 32.899C52.2701 32.9019 52.2715 32.9004 52.2954 32.899C52.3277 32.8946 52.36 32.8918 52.3923 32.8903C52.4582 32.886 52.5242 32.8845 52.5902 32.8874C52.6309 32.8889 52.6716 32.8918 52.7109 32.8961C52.7235 32.8975 52.7347 32.899 52.7474 32.9004C52.7488 32.9004 52.7488 32.9004 52.7502 32.9004C52.8119 32.9105 52.8737 32.9249 52.9341 32.9423C52.9846 32.9567 53.0337 32.974 53.0814 32.9942C53.0941 33 53.1362 33.0202 53.1376 33.0216C53.1629 33.0346 53.1881 33.049 53.212 33.0634C53.2372 33.0779 53.2611 33.0937 53.285 33.1096C53.2892 33.1125 53.3173 33.1341 53.3313 33.1442C53.3439 33.1558 53.372 33.1789 53.3748 33.1818C53.4001 33.2048 53.4239 33.2294 53.4478 33.2553C53.4506 33.2582 53.4716 33.2828 53.4843 33.2972C53.4927 33.3087 53.518 33.3434 53.5208 33.3477C53.539 33.3765 53.5573 33.4068 53.5727 33.4386C53.5755 33.4429 53.5896 33.4747 53.598 33.4905C53.6036 33.5064 53.6176 33.5425 53.619 33.5468C53.6303 33.58 53.6387 33.6146 53.6471 33.6492C53.6499 33.6651 53.6527 33.6795 53.6555 33.6954C53.6527 33.6896 53.6611 33.756 53.6611 33.7618C53.6625 33.7906 53.6625 33.8195 53.6611 33.8483C53.6611 33.8613 53.6583 33.883 53.6583 33.8916C53.6471 33.9551 53.6303 34.0157 53.6078 34.0749C53.5545 34.2192 53.6373 34.3952 53.7636 34.4774C53.765 34.4789 53.7664 34.4789 53.7678 34.4803C53.7805 34.4875 53.7931 34.4947 53.8057 34.5005C53.8717 34.5323 53.9503 34.5438 54.0401 34.5178C54.1272 34.4933 54.2282 34.4875 54.3195 34.5077C54.4472 34.5351 54.5482 34.5755 54.6563 34.639C54.8711 34.766 55.0311 34.9536 55.142 35.1945C55.2992 35.535 55.3301 35.9159 55.3132 36.2954C54.8669 35.9852 54.2998 35.8467 53.7678 35.9188C53.2611 35.9881 52.8077 36.2651 52.4877 36.659C52.4386 36.5739 52.3852 36.4916 52.3235 36.4123C52.0877 36.1122 51.7564 35.8799 51.3942 35.7716C51.4307 35.5797 51.4279 35.3792 51.3886 35.1887C51.3156 34.828 51.0854 34.5279 50.7963 34.3202C50.2334 33.9162 49.4797 33.9811 48.9056 34.3245C48.7722 34.2379 48.6277 34.1701 48.4733 34.1254C47.6774 33.8931 46.9026 34.2552 46.226 34.6563C45.8344 34.8886 46.1881 35.5119 46.5797 35.2796C46.8521 35.118 47.1272 34.9593 47.4275 34.8627C47.6914 34.7775 47.9511 34.7415 48.2038 34.8006C48.4297 34.8526 48.6206 34.9463 48.7526 35.1483C48.9042 35.3792 48.9393 35.6548 48.9393 35.9275C48.9407 36.3921 49.6425 36.3921 49.6411 35.9275C49.6411 35.5653 49.5807 35.1873 49.4067 34.8684C49.4123 34.8655 49.4179 34.8627 49.4221 34.8612C49.4249 34.8598 49.4277 34.8583 49.4334 34.8569C49.5035 34.8295 49.5737 34.8064 49.6467 34.7891C49.6734 34.7833 49.7 34.7775 49.7281 34.7732C49.7351 34.7732 49.7787 34.766 49.7899 34.766C49.8587 34.7617 49.926 34.7631 49.9948 34.7674C50.0018 34.7674 50.006 34.7674 50.0103 34.7674C50.0131 34.7689 50.0159 34.7689 50.0201 34.7689C50.0496 34.7746 50.079 34.7804 50.1071 34.7876C50.159 34.8006 50.2082 34.8179 50.2587 34.8381C50.2727 34.8439 50.2952 34.8554 50.3022 34.8598C50.3331 34.8756 50.3626 34.8944 50.392 34.9132C50.3963 34.916 50.4201 34.9319 50.4356 34.942C50.4454 34.9507 50.4805 34.9795 50.4861 34.9839C50.5086 35.0041 50.5296 35.0257 50.5493 35.0473C50.5563 35.056 50.5872 35.095 50.5942 35.1022C50.6222 35.1455 50.6475 35.1902 50.6714 35.2364C50.6742 35.2407 50.6742 35.2421 50.6756 35.245C50.677 35.2493 50.6784 35.2551 50.6798 35.2638C50.6882 35.2941 50.698 35.3215 50.7051 35.3518C50.7065 35.359 50.7135 35.3994 50.7163 35.4095C50.7177 35.4297 50.7205 35.4484 50.7205 35.4686C50.7219 35.4989 50.7205 35.5292 50.7191 35.561C50.7177 35.5754 50.7163 35.5913 50.7135 35.6028C50.7037 35.6476 50.6924 35.6908 50.6784 35.7341C50.6728 35.7442 50.6531 35.7875 50.6475 35.7976C50.6307 35.8279 50.611 35.8568 50.59 35.8856C50.5408 35.9549 50.531 36.0443 50.5479 36.1295C50.5493 36.1338 50.5493 36.1381 50.5507 36.1424C50.5549 36.1583 50.5591 36.1742 50.5647 36.1901C50.5675 36.1973 50.5689 36.2045 50.5717 36.2103C50.5801 36.229 50.59 36.2478 50.5998 36.2651C50.5998 36.2665 50.6012 36.2665 50.6012 36.268C50.6251 36.3055 50.6545 36.3372 50.6882 36.3603C50.6938 36.3646 50.6994 36.369 50.7051 36.3733C50.7079 36.3747 50.7107 36.3776 50.7135 36.3791C50.7163 36.3805 50.7191 36.3805 50.7219 36.382C50.7724 36.4123 50.83 36.431 50.8903 36.4281C51.5108 36.3993 52.0722 37.0182 52.0441 37.6502C52.0315 37.9287 51.894 38.2432 51.689 38.4582C51.4701 38.6905 51.1725 38.8218 50.8623 38.8304C50.4945 38.8405 50.1282 38.7107 49.853 38.451C49.7632 38.3658 49.6425 38.3327 49.5302 38.3558C49.4699 38.3659 49.4123 38.3961 49.3618 38.4466C49.3604 38.4481 49.359 38.4495 49.3576 38.451C49.3576 38.451 49.3576 38.4524 49.3562 38.4524C49.3463 38.4625 49.3379 38.4755 49.3295 38.487C49.3239 38.4957 49.3169 38.5029 49.3112 38.5116C49.3084 38.5159 49.3056 38.5188 49.3028 38.5246C48.2978 40.256 47.2086 42.9771 48.9365 44.6292C50.5226 46.1456 52.9972 45.681 54.7967 44.8672C55.827 44.4027 56.766 43.726 57.5535 42.9007C57.8791 42.5674 57.3836 42.0566 57.0664 42.3899Z" stroke="white" stroke-width="0.4" mask="url(#path-15-outside-1_1373_1384)"/>
<path d="M55.5426 45.2986L55.5427 45.2986C55.6604 45.2173 55.785 45.2008 55.8968 45.2372C56.005 45.2725 56.0904 45.3536 56.1441 45.4484C56.2503 45.6358 56.2506 45.9173 56.0123 46.0815C55.9894 46.0981 55.9603 46.1162 55.9361 46.1312C55.9291 46.1355 55.9225 46.1396 55.9166 46.1433C55.8813 46.1844 55.8377 46.2177 55.7872 46.2451C54.4876 47.1734 53.0293 47.8643 51.5432 48.3996L51.5431 48.3996C50.1809 48.8895 48.77 49.2406 47.3346 49.419L47.3345 49.419C45.8769 49.5987 44.3024 49.6135 42.8845 49.1169L42.8845 49.1169C41.4427 48.6112 40.3163 47.5426 39.5063 46.2536C38.6298 44.8589 38.1472 43.2546 37.683 41.6975C37.4158 41.73 37.1512 41.8106 36.9009 41.9442C36.8161 41.9896 36.7336 42.0411 36.6533 42.0965C36.6856 42.6951 36.7585 43.2894 36.8747 43.8782C37.342 46.2396 38.4013 48.5392 40.0721 50.241L40.0722 50.241C40.1723 50.343 40.2122 50.4644 40.2037 50.5822C40.1954 50.6975 40.1415 50.8033 40.0651 50.8818C39.9888 50.9602 39.8849 51.0167 39.7703 51.0259C39.6528 51.0353 39.5328 50.994 39.4325 50.8918L39.5039 50.8218L39.4325 50.8918C38.9294 50.379 38.4806 49.8142 38.0803 49.2167L38.0803 49.2166C36.8567 47.3858 36.0826 45.2098 35.8256 42.9983C35.633 43.332 35.5084 43.7046 35.4725 44.0916L35.4725 44.0916C35.4511 44.32 35.2947 44.543 35.0221 44.543C34.9039 44.543 34.7875 44.4887 34.7038 44.4075C34.6195 44.3257 34.559 44.2073 34.5716 44.0731M55.5426 45.2986L34.6711 44.0823M55.5426 45.2986C55.4131 45.3883 55.2789 45.4701 55.1434 45.5483C54.9661 45.6382 54.7868 45.7259 54.6073 45.8138C54.5789 45.8276 54.5506 45.8415 54.5222 45.8554C53.2178 46.4037 51.7346 46.4778 50.3284 46.3046L50.3284 46.3046M55.5426 45.2986L50.3284 46.3046M34.5716 44.0731C34.5716 44.0731 34.5716 44.073 34.5716 44.073L34.6711 44.0823M34.5716 44.0731C34.5716 44.0731 34.5716 44.0732 34.5716 44.0732L34.6711 44.0823M34.5716 44.0731C34.6824 42.8583 35.3805 41.7173 36.4516 41.146M34.6711 44.0823C34.7792 42.8978 35.46 41.7882 36.4987 41.2342M36.4516 41.146L36.4987 41.2342M36.4516 41.146C36.4516 41.1459 36.4516 41.1459 36.4516 41.1459L36.4987 41.2342M36.4516 41.146L36.4987 41.2342M50.3284 46.3046C49.4418 46.1955 48.5269 45.9998 47.74 45.5798C46.9467 45.1552 46.3463 44.4878 45.9985 43.639L45.9984 43.6389M50.3284 46.3046L45.9984 43.6389M45.9984 43.6389C45.545 42.5358 45.5415 41.2868 45.7254 40.1054L45.7254 40.1052M45.9984 43.6389L45.7254 40.1052M45.7254 40.1052C45.7596 39.8828 45.6714 39.6242 45.4083 39.5494C45.2959 39.5174 45.1688 39.5382 45.0663 39.5935C44.9629 39.6492 44.8714 39.7475 44.8499 39.8823L44.8498 39.8827M45.7254 40.1052L44.8498 39.8827M44.8498 39.8827C44.6634 41.0776 44.6278 42.3298 44.9949 43.5089C45.3221 44.5617 45.9433 45.4863 46.8472 46.1096C47.7016 46.699 48.7251 46.9763 49.7144 47.1402C50.0392 47.1945 50.3662 47.2362 50.6943 47.2642C50.4575 47.3181 50.219 47.3652 49.9787 47.4046C48.2633 47.6837 46.4131 47.5541 44.9034 46.6443C44.1749 46.2046 43.5467 45.6052 43.0939 44.8724L44.8498 39.8827ZM41.9024 47.5839L41.9026 47.584C42.4837 48.0062 43.136 48.2782 43.8333 48.4329C43.8333 48.4329 43.8333 48.4329 43.8334 48.4329L43.8117 48.5306C45.1325 48.8235 46.546 48.7398 47.871 48.5219L41.9024 47.5839ZM41.9024 47.5839C41.381 47.2063 40.9237 46.7155 40.547 46.1844L40.5469 46.1843M41.9024 47.5839L40.5469 46.1843M40.5469 46.1843C39.6172 44.8775 39.1151 43.3316 38.6491 41.7813M40.5469 46.1843L42.3322 41.7969M42.3322 41.7969C42.314 42.26 41.6122 42.2615 41.6304 41.7969C41.6676 40.8089 41.832 39.8313 42.12 38.8897C42.0744 38.9229 42.0294 38.9567 41.9853 38.9912M42.3322 41.7969C42.3786 40.582 42.6354 39.3902 43.0804 38.2634L42.3322 41.7969ZM41.9853 38.9912C42.0012 38.9369 42.0175 38.8827 42.0342 38.8286C41.9663 38.8786 41.8998 38.9302 41.8354 38.9834M41.9853 38.9912C41.9561 39.014 41.9273 39.0371 41.899 39.0605L41.8354 38.9834M41.9853 38.9912C41.7189 39.9007 41.5663 40.8421 41.5305 41.793C41.5249 41.9365 41.5756 42.0527 41.6624 42.1319C41.7471 42.2092 41.859 42.2449 41.9678 42.2448C42.1853 42.2446 42.4205 42.0968 42.4322 41.8008L42.4322 41.8007C42.4778 40.6046 42.7294 39.4309 43.1655 38.3201L38.6491 41.7813M41.8354 38.9834C40.9426 39.7235 40.3643 40.7869 40.1917 41.9498C40.1692 42.1028 40.019 42.1994 39.8745 42.211C39.7959 42.2254 39.7159 42.2153 39.6499 42.1662C39.3363 41.933 38.9834 41.7629 38.6153 41.6687C38.5781 41.6592 38.5407 41.6505 38.5031 41.6425C38.514 41.6791 38.525 41.7157 38.536 41.7523C38.5738 41.7611 38.6116 41.7708 38.6491 41.7813M41.8354 38.9834L41.8992 39.0603C41.0264 39.784 40.4598 40.8247 40.2906 41.9645C40.2593 42.177 40.0596 42.2945 39.8875 42.3102C39.7906 42.327 39.6824 42.3151 39.5902 42.2465L39.5902 42.2465C39.3034 42.0332 38.983 41.8747 38.6491 41.7813M42.6989 36.488C43.6152 36.542 44.5244 36.767 45.3757 37.1657L42.6989 36.488ZM42.6989 36.488C42.7584 35.9738 43.1016 35.4869 43.5673 35.2801C44.0836 35.051 44.7254 35.1818 45.1345 35.578C45.237 35.6774 45.3581 35.7161 45.4755 35.7055C45.5902 35.6951 45.6942 35.6386 45.7705 35.5602C45.8469 35.4819 45.9007 35.3764 45.9079 35.2614C45.9153 35.1437 45.8732 35.0236 45.7708 34.9238L45.7707 34.9236C45.1139 34.2861 44.1088 34.0597 43.2591 34.4185C42.4293 34.7685 41.8719 35.5834 41.7953 36.488C40.9084 36.5456 40.0295 36.7632 39.2039 37.1423L39.2039 37.1423C39.0811 37.1988 39.0126 37.3152 38.987 37.43C38.9614 37.5443 38.974 37.674 39.0324 37.7762L42.6989 36.488ZM39.6333 41.1862C39.6245 41.2194 39.616 41.2527 39.6078 41.2861C39.5776 41.2695 39.5473 41.2534 39.5167 41.2378C39.525 41.2047 39.5336 41.1717 39.5425 41.1387C39.573 41.1541 39.6033 41.1699 39.6333 41.1862ZM42.9391 37.4188C43.0134 37.4266 43.0877 37.4357 43.1617 37.4461C43.2338 37.4221 43.3064 37.3997 43.3794 37.3789C43.3039 37.3659 43.2283 37.3542 43.1524 37.3438C43.0808 37.3673 43.0097 37.3923 42.9391 37.4188ZM35.8076 42.8353C35.8356 42.7914 35.8648 42.7482 35.8951 42.7059C35.9001 42.7572 35.9053 42.8086 35.9108 42.8599L35.8076 42.8353ZM46.5011 48.2503C46.9365 48.3441 47.3753 48.4025 47.8149 48.4298L43.0088 44.9249C42.7674 44.5339 42.1596 44.8961 42.4024 45.2885L42.3174 45.3411C42.3174 45.3411 42.3174 45.3411 42.3174 45.3411C43.2534 46.8548 44.8046 47.8857 46.5011 48.2503ZM45.1902 38.0209C45.3307 38.0129 45.4651 37.9428 45.5465 37.7992C45.5465 37.7991 45.5466 37.7991 45.5466 37.799L45.4596 37.7497C45.548 37.5954 45.5073 37.3371 45.3332 37.2563L45.1902 38.0209Z" fill="white" stroke="white" stroke-width="0.2"/>
<path d="M42.4501 42.9299L42.4501 42.9299C42.4514 43.0275 42.4594 43.1258 42.4716 43.2253C42.5085 43.4756 42.5738 43.72 42.6674 43.9531L42.6676 43.9533C42.7188 44.0818 42.6738 44.2262 42.6287 44.3141C42.5705 44.4295 42.4609 44.4958 42.3628 44.5293C42.2451 44.5697 42.1037 44.5409 42.0087 44.4848M42.4501 42.9299L41.8053 44.221C41.8439 44.3171 41.8936 44.4169 42.0087 44.4848M42.4501 42.9299L42.4501 42.9291C42.4449 42.6973 42.2555 42.459 41.9947 42.4707L41.9945 42.4707C41.7617 42.4815 41.5428 42.6695 41.5483 42.9333L42.4501 42.9299ZM42.0087 44.4848L42.0595 44.3987L42.0087 44.4848C42.0087 44.4848 42.0087 44.4848 42.0087 44.4848ZM42.3501 42.9313C42.3459 42.7423 42.1915 42.562 41.9992 42.5706L42.3501 42.9313Z" fill="white" stroke="white" stroke-width="0.2"/>
<path d="M50.9344 50.5542L50.9349 50.554C51.0626 50.4999 51.1945 50.5334 51.2933 50.5964C51.3916 50.659 51.473 50.7599 51.5029 50.8712L51.5029 50.8715C51.5745 51.1413 51.4032 51.3459 51.2002 51.4334M50.9344 50.5542L51.1606 51.3415M50.9344 50.5542C48.4378 51.6295 45.7085 52.0323 43.0183 51.7226L43.0183 51.7226C42.8832 51.7071 42.7658 51.7732 42.6869 51.8598C42.6083 51.9461 42.5559 52.065 42.5559 52.1827C42.5559 52.4612 42.7708 52.6171 42.9954 52.6427M50.9344 50.5542L43.0068 51.822C42.8188 51.8003 42.6559 52.0038 42.6559 52.1827C42.6559 52.3962 42.8174 52.5218 43.0068 52.5434M51.2002 51.4334L51.1606 51.3415M51.2002 51.4334C51.2002 51.4333 51.2002 51.4333 51.2002 51.4333L51.1606 51.3415M51.2002 51.4334C50.6282 51.6802 50.042 51.8936 49.446 52.0722L49.4458 52.0722C47.3598 52.6936 45.1523 52.891 42.9954 52.6427M51.1606 51.3415C50.5922 51.5868 50.0096 51.7989 49.4173 51.9764C47.3441 52.5939 45.1502 52.7901 43.0068 52.5434M42.9954 52.6427C42.9954 52.6427 42.9955 52.6427 42.9955 52.6428L43.0068 52.5434M42.9954 52.6427L43.0068 52.5434" fill="white" stroke="white" stroke-width="0.2"/>
<path d="M40.3317 50.9208L40.3317 50.9208C40.4134 50.831 40.5437 50.7832 40.651 50.7814L40.6527 50.7813V50.7813C40.7673 50.7813 40.8503 50.8248 40.9219 50.8773L40.9225 50.8765C41.2343 51.1233 41.5695 51.3359 41.9239 51.5117L41.9241 51.5118C42.0456 51.5723 42.1131 51.6846 42.1378 51.7994C42.1623 51.9131 42.1472 52.038 42.095 52.1401C42.0411 52.2466 41.9279 52.3274 41.8241 52.3569M40.3317 50.9208L41.7967 52.2607M40.3317 50.9208L40.331 50.9216C40.2583 51.0032 40.1976 51.117 40.2033 51.2479L40.2033 51.2479L40.2033 51.2483C40.2058 51.2996 40.2148 51.359 40.2349 51.4159C40.2548 51.4723 40.288 51.5325 40.3429 51.5767L40.343 51.5768C40.697 51.8618 41.0735 52.1127 41.4811 52.3141M40.3317 50.9208L41.5258 52.2246M41.8241 52.3569C41.8241 52.3569 41.824 52.3569 41.824 52.3569L41.7967 52.2607M41.8241 52.3569C41.8242 52.3568 41.8242 52.3568 41.8243 52.3568L41.7967 52.2607M41.8241 52.3569C41.697 52.3933 41.5807 52.3644 41.4811 52.3141M41.7967 52.2607C41.7012 52.2881 41.6114 52.2679 41.5258 52.2246M41.4811 52.3141C41.4812 52.3141 41.4813 52.3142 41.4815 52.3143L41.5258 52.2246M41.4811 52.3141C41.4809 52.314 41.4808 52.3139 41.4807 52.3139L41.5258 52.2246" fill="white" stroke="white" stroke-width="0.2"/>
<path d="M35.536 51.0318C35.3914 51.1804 35.4152 51.3911 35.536 51.5426L46.184 55.0948C46.1307 54.8914 45.9412 54.812 45.7531 54.8438C42.9163 55.3142 39.921 54.5249 37.6681 52.6853C37.0673 52.1947 36.5199 51.6407 36.0329 51.0318C35.9121 50.8818 35.6609 50.9034 35.536 51.0318ZM46.2807 55.0692C46.2105 54.802 45.9601 54.7076 45.7368 54.7451C42.9283 55.2108 39.9619 54.4293 37.7314 52.6079C37.1361 52.1218 36.5937 51.5728 36.1109 50.9694L36.1108 50.9691C36.0263 50.8642 35.9001 50.8241 35.7831 50.8274C35.667 50.8308 35.5471 50.877 35.4643 50.9621C35.2749 51.1568 35.3152 51.426 35.4578 51.6049L35.4579 51.6051C37.3797 54.0042 40.2122 55.5082 43.2224 55.7601C44.1369 55.8373 45.052 55.7877 45.9548 55.6379L45.9552 55.6378C46.0884 55.6152 46.184 55.5202 46.2376 55.4157C46.291 55.3116 46.3111 55.1831 46.2807 55.0692Z" fill="white" stroke="white" stroke-width="0.2"/>
<path d="M35.2964 49.6819L35.3786 49.6249C35.3071 49.5218 35.2403 49.4166 35.1806 49.3078C35.155 49.2607 35.1306 49.212 35.1053 49.1615C35.0981 49.1467 35.0903 49.1317 35.0831 49.1178L35.0828 49.1172C35.0752 49.1026 35.0681 49.089 35.0614 49.0754C35.0493 49.0506 35.0407 49.0301 35.0359 49.0127L35.034 49.0051L35.0335 49.0052C35.0298 48.9919 35.0257 48.9781 35.0226 48.9695L35.0226 48.9695L35.0218 48.9675C35.0109 48.9396 35.0005 48.9112 34.9915 48.8834L34.9915 48.8834L34.991 48.8819C34.9732 48.8301 34.9569 48.7784 34.9421 48.7256L34.942 48.7255C34.9077 48.6042 34.8792 48.4824 34.8588 48.3597L34.8588 48.3597L34.8587 48.359C34.8362 48.2294 34.7468 48.13 34.6447 48.0724C34.543 48.015 34.4141 47.9907 34.2971 48.0284L34.2971 48.0284L34.2963 48.0287C34.1753 48.069 34.0846 48.1466 34.0309 48.2482C33.9777 48.3486 33.9637 48.4664 33.9836 48.5846L33.9836 48.5846L33.9837 48.585C34.0774 49.1273 34.2935 49.6563 34.6082 50.103C34.6686 50.1889 34.7473 50.2727 34.8721 50.3077L34.8727 50.3078C34.9791 50.337 35.1222 50.3266 35.2251 50.2588L35.2255 50.2586C35.3196 50.1959 35.3935 50.0935 35.4273 49.982C35.4615 49.8693 35.4575 49.7368 35.3781 49.6242L35.2964 49.6819ZM35.2964 49.6819C35.4115 49.8449 35.3174 50.0772 35.17 50.1753L34.9797 49.1355C34.9844 49.1449 34.9893 49.1542 34.994 49.1633C35.0016 49.1778 35.009 49.192 35.0156 49.2057L35.0157 49.2059C35.041 49.2563 35.0662 49.3068 35.0928 49.3558C35.1546 49.4683 35.2234 49.5765 35.2964 49.6819ZM34.8963 48.9143C34.8781 48.8609 34.8612 48.8075 34.8458 48.7527L34.8963 48.9143ZM34.8963 48.9143C34.9062 48.9446 34.9174 48.9749 34.9286 49.0037L34.8963 48.9143ZM35.0009 49.0132L34.9364 49.0291C34.934 49.0206 34.9316 49.0126 34.9298 49.0071C34.9563 49.0037 34.9814 49.0075 35.0009 49.0132Z" fill="white" stroke="white" stroke-width="0.2"/>
<path d="M40.8324 57.2662L40.8323 57.2662C38.8868 56.9848 37.0429 56.122 35.5771 54.7724L35.5771 54.7724C35.4723 54.676 35.35 54.6402 35.2327 54.6522C35.1179 54.664 35.0137 54.7206 34.9373 54.7988C34.8609 54.877 34.807 54.9822 34.801 55.0968C34.7947 55.2144 34.8395 55.333 34.9446 55.4302L34.9447 55.4303C36.524 56.8862 38.5103 57.8565 40.6156 58.161C40.7263 58.1771 40.8428 58.164 40.9427 58.1114C41.0448 58.0576 41.1242 57.9651 41.1588 57.8354L41.1588 57.8353C41.1885 57.7238 41.1692 57.5946 41.117 57.4897C41.0646 57.3847 40.9692 57.2862 40.8324 57.2662Z" fill="white" stroke="white" stroke-width="0.2"/>
<path d="M31.3741 48.827L31.3741 48.827C31.807 50.096 32.4584 51.2892 33.2877 52.329L33.2877 52.329C33.4302 52.5079 33.4706 52.7771 33.2812 52.9719C33.1984 53.057 33.0785 53.1031 32.9624 53.1065C32.8454 53.1099 32.7191 53.0697 32.6347 52.9648L32.6345 52.9646C31.7079 51.8056 30.9907 50.4998 30.5069 49.0836L31.3741 48.827ZM31.3741 48.827L31.374 48.8267M31.3741 48.827L31.374 48.8267M31.374 48.8267C31.2978 48.6057 31.0752 48.4397 30.8204 48.5105L30.8204 48.5105M31.374 48.8267L30.8204 48.5105M30.8204 48.5105L30.82 48.5106M30.8204 48.5105L30.82 48.5106M30.82 48.5106C30.7045 48.5431 30.6076 48.6269 30.5489 48.7279M30.82 48.5106L30.5489 48.7279M30.5489 48.7279C30.4899 48.8296 30.4641 48.9585 30.5069 49.0835L30.5489 48.7279Z" fill="white" stroke="white" stroke-width="0.2"/>
<path d="M33.7532 52.9908L33.7532 52.9908L33.7525 52.9906C33.6461 52.9614 33.503 52.9718 33.4001 53.0396L33.4 53.0396C33.2049 53.1686 33.111 53.4416 33.2425 53.6669L33.2425 53.6669L33.2428 53.6675C33.4574 54.0292 33.7164 54.3677 34.0118 54.6639L34.012 54.6642C34.1783 54.8297 34.4792 54.8532 34.6536 54.6604L34.654 54.66C34.8116 54.4837 34.8335 54.1965 34.6504 54.0121L34.6504 54.0121L34.6501 54.0117C34.5136 53.8757 34.3877 53.7294 34.2694 53.5755C34.1812 53.4536 34.0977 53.3297 34.0213 53.2007C33.9645 53.1039 33.8671 53.0229 33.7532 52.9908ZM33.4552 53.1231C33.2979 53.227 33.2278 53.4434 33.3288 53.6165L33.7261 53.087C33.6418 53.0639 33.5295 53.074 33.4552 53.1231Z" fill="white" stroke="white" stroke-width="0.2"/>
<path d="M29.3057 52.9041C29.2214 52.7295 28.9814 52.6819 28.8256 52.7742L35.0045 58.9163C33.1011 57.889 31.449 56.3827 30.2391 54.5532C29.891 54.0266 29.5808 53.4754 29.3057 52.9041ZM35.052 58.8283C33.1631 57.8089 31.5234 56.3138 30.3225 54.498C29.977 53.9754 29.669 53.4282 29.3958 52.8607L29.3957 52.8606C29.3383 52.7416 29.2297 52.6698 29.1164 52.6419C29.0039 52.6142 28.8776 52.6272 28.7746 52.6882L28.7746 52.6882L28.7741 52.6885C28.548 52.8246 28.5076 53.1002 28.6091 53.3109C29.6171 55.4122 31.1395 57.2327 32.9869 58.6013C33.5003 58.9823 34.0406 59.3239 34.6019 59.6262C34.6019 59.6262 34.6019 59.6262 34.6019 59.6262L34.6494 59.5382L35.052 58.8283Z" fill="white" stroke="white" stroke-width="0.2"/>
<path d="M29.7645 59.2352L29.7647 59.2353C30.0102 59.3965 30.0128 59.6782 29.9053 59.8672C29.8512 59.9625 29.7651 60.0436 29.6565 60.0801C29.5448 60.1176 29.419 60.1041 29.2988 60.0261L29.2986 60.026C28.4964 59.5022 27.8283 58.793 27.3148 57.977L27.3147 57.9769C26.8764 57.2792 26.5525 56.4991 26.3467 55.6979C26.1429 54.9081 26.012 54.0532 26.0319 53.2292L26.0319 53.2292C26.0517 52.4358 26.2431 51.4364 26.8805 50.8618C27.1943 50.5785 27.617 50.3751 28.0589 50.4064M29.7645 59.2352L29.714 46.4301L29.7215 46.3304C29.7213 46.3304 29.7211 46.3304 29.7208 46.3304C29.2623 46.2959 28.8189 46.3941 28.4063 46.5831L28.4061 46.5832C27.6816 46.9169 27.1484 47.5385 26.7346 48.1984C26.2224 48.1627 25.7011 48.2531 25.2306 48.4549L25.2306 48.4549C24.6881 48.6877 24.2104 49.0461 23.8156 49.4888L23.8156 49.4888C23.6202 49.7082 23.6868 49.9811 23.838 50.1368C23.9141 50.2151 24.0176 50.2715 24.1315 50.2784C24.2489 50.2856 24.3663 50.2394 24.4617 50.1328L24.4618 50.1327C25.1302 49.3835 26.1027 48.9165 27.071 49.1842L27.071 49.1842C27.6891 49.355 28.1948 49.8544 28.3468 50.4603C28.2547 50.4319 28.1584 50.4131 28.0589 50.4064M29.7645 59.2352C28.6372 58.4981 27.8253 57.3179 27.3875 56.0233C27.1726 55.3864 27.0378 54.7143 26.9697 54.0426C26.9028 53.3701 26.9023 52.6682 27.1602 52.0573C27.2867 51.7591 27.4587 51.4955 27.7308 51.3786L27.7309 51.3786C27.8627 51.3218 27.9922 51.3144 28.104 51.3489C28.2151 51.3832 28.3156 51.4611 28.3875 51.5884L28.4746 51.5392L28.3874 51.5882C28.4491 51.6981 28.5379 51.7672 28.6384 51.7969C28.7352 51.8255 28.8358 51.8155 28.9237 51.7812M29.7645 59.2352L30.7694 46.548M28.0589 50.4064C28.059 50.4064 28.0591 50.4064 28.0592 50.4064L28.0521 50.5061L28.0588 50.4064C28.0588 50.4064 28.0589 50.4064 28.0589 50.4064ZM30.7694 46.548C30.8632 46.5766 30.9568 46.6062 31.0503 46.6366L31.0504 46.6366C31.3296 46.7276 31.4014 47.0005 31.3453 47.2102C31.317 47.3161 31.2547 47.4167 31.1597 47.4803C31.0619 47.5458 30.9374 47.5663 30.8018 47.5222L30.8018 47.5222C30.1127 47.2982 29.4423 47.1013 28.7942 47.4106C28.3366 47.6292 27.9785 47.9954 27.6778 48.4198C27.866 48.5003 28.0459 48.6018 28.214 48.7261L28.2142 48.7262C29.0427 49.3413 29.4864 50.4308 29.2171 51.4677L29.2132 51.4667V51.475L29.2093 51.4877L29.2088 51.4894C29.2065 51.4967 29.2041 51.5039 29.2016 51.511M30.7694 46.548C30.9504 46.263 31.2381 46.0165 31.5412 45.9194L31.5413 45.9193C31.7525 45.8514 32.0131 45.8029 32.2648 45.8096C32.5173 45.8163 32.7503 45.8781 32.9189 46.0192L32.9191 46.0193C33.0941 46.165 33.36 46.2073 33.5513 46.0125L33.5517 46.0122C33.5551 46.0087 33.5578 46.0055 33.5595 46.0034L33.5619 46.0004C33.645 45.9184 33.6989 45.8055 33.7007 45.674L33.6007 45.6727C33.6021 45.6092 33.6077 45.5457 33.6147 45.4822M30.7694 46.548L33.7007 45.6749C33.702 45.6164 33.7071 45.5569 33.7139 45.4955M29.2016 51.511L29.1864 51.5267M29.2016 51.511L29.2026 51.51L29.2086 51.4915L29.2087 51.4913C29.2104 51.4874 29.2145 51.4782 29.2174 51.4662L29.2132 51.4651V51.4605M29.2016 51.511C29.1501 51.6553 29.0466 51.7451 28.9237 51.7812M29.1864 51.5267C29.1865 51.5265 29.1866 51.5264 29.1868 51.5262C29.1874 51.5256 29.1882 51.5247 29.189 51.5238C29.1912 51.5213 29.1977 51.5138 29.2033 51.5023C29.2055 51.4978 29.2072 51.4935 29.2085 51.4893C29.2087 51.4887 29.2089 51.4882 29.2091 51.4876C29.2112 51.4803 29.2123 51.4739 29.2128 51.4687C29.2129 51.468 29.2129 51.4673 29.213 51.4666L29.1869 51.4599L29.1203 51.4425M29.1864 51.5267L29.1863 51.5267L29.1864 51.5267ZM29.1203 51.4425L29.1915 51.4599L29.2131 51.4651C29.2132 51.4632 29.2132 51.4616 29.2132 51.4605M29.1203 51.4425C29.1194 51.446 29.1181 51.4489 29.1169 51.4516C29.116 51.4535 29.1152 51.4552 29.1146 51.457L27.6195 48.5037C27.8079 48.5826 27.9874 48.6829 28.1546 48.8065C28.9532 49.3995 29.3785 50.4484 29.1203 51.4425ZM29.2132 51.4605C29.2133 51.4594 29.2132 51.459 29.2132 51.4599V51.4605ZM28.9237 51.7812C28.9254 51.7805 28.9272 51.7798 28.9289 51.7791L28.8915 51.6864L28.9183 51.7827C28.9201 51.7822 28.9219 51.7817 28.9237 51.7812ZM33.6147 45.4822L33.7135 45.4979C33.7136 45.4971 33.7138 45.4963 33.7139 45.4955M33.6147 45.4822C33.626 45.4115 33.64 45.3423 33.6583 45.2744L33.7139 45.4955M33.6147 45.4822L33.7141 45.4932C33.714 45.494 33.714 45.4948 33.7139 45.4955M33.4575 44.1736L33.3801 44.1102C33.3802 44.1102 33.3802 44.1102 33.3802 44.1102C33.4672 44.0039 33.5918 43.9647 33.7087 43.9698C33.8241 43.9747 33.9397 44.0225 34.0229 44.1006L32.9039 45.0085M33.4575 44.1736C33.2461 44.4315 33.0912 44.7264 32.9983 45.0419C32.9671 45.03 32.9356 45.0189 32.9039 45.0085M33.4575 44.1736C33.5839 44.0192 33.8239 44.0509 33.9544 44.1736C34.019 44.2342 34.0569 44.3409 34.0569 44.4289C34.0569 44.5299 34.0162 44.6093 33.9544 44.6843L33.4575 44.1736ZM32.9039 45.0085C32.384 44.8389 31.801 44.8717 31.2934 45.035L31.2933 45.035C30.6589 45.2392 30.1454 45.7392 29.8626 46.344L32.9039 45.0085ZM31.0194 46.7317C30.9187 46.699 30.8179 46.6671 30.7172 46.6367L30.8327 47.4271C31.2636 47.5671 31.4489 46.8717 31.0194 46.7317ZM33.5638 45.998C33.5639 45.9979 33.5638 45.998 33.5637 45.9981L33.5638 45.998Z" fill="white" stroke="white" stroke-width="0.2"/>
<path d="M20.2742 52.5279L20.274 52.5281C18.958 53.505 17.5125 54.2866 15.9795 54.8343C15.7595 54.9127 15.6038 55.1434 15.6708 55.3982L15.6709 55.3986C15.702 55.5152 15.7822 55.6145 15.8814 55.6752C15.9811 55.7363 16.1085 55.7633 16.2329 55.7197L16.2335 55.7195C17.8413 55.1449 19.366 54.3381 20.7469 53.3134L20.747 53.3133C20.9289 53.1779 21.0345 52.9246 20.9006 52.6903C20.8423 52.5869 20.7387 52.5107 20.6276 52.4767C20.5156 52.4424 20.3829 52.4477 20.2742 52.5279Z" fill="white" stroke="white" stroke-width="0.2"/>
<path d="M21.3144 51.8235C21.2124 51.9078 21.1739 52.0384 21.176 52.1561C21.1781 52.2737 21.2209 52.3998 21.3093 52.4838L21.3095 52.484C21.4036 52.5727 21.5143 52.6158 21.6286 52.613C21.7412 52.6101 21.8479 52.563 21.9385 52.4885L21.9388 52.4883C22.4901 52.0323 22.9932 51.5195 23.4423 50.9588L23.4428 50.9583C23.5096 50.8736 23.5668 50.7755 23.5668 50.6409C23.5668 50.5312 23.5214 50.3958 23.4327 50.3126C23.3502 50.2352 23.2344 50.1872 23.1189 50.1818C23.0019 50.1763 22.876 50.2149 22.7894 50.323L22.7894 50.323C22.3487 50.8732 21.8537 51.3762 21.3144 51.8235ZM21.3144 51.8235C21.3144 51.8235 21.3144 51.8234 21.3144 51.8234L21.3781 51.9005M21.3144 51.8235C21.3143 51.8235 21.3143 51.8235 21.3143 51.8235L21.3781 51.9005M21.3781 51.9005C21.9227 51.4489 22.4224 50.941 22.8674 50.3855C22.9923 50.2297 23.2352 50.2643 23.3643 50.3855C23.4289 50.4461 23.4668 50.5529 23.4668 50.6409C23.4668 50.7434 23.4246 50.8198 23.3643 50.8963C22.9193 51.4518 22.421 51.9597 21.875 52.4113C21.7206 52.5382 21.5311 52.5556 21.3781 52.4113C21.249 52.2886 21.235 52.0188 21.3781 51.9005Z" fill="white" stroke="white" stroke-width="0.2"/>
<path d="M9.49856 9.49852L9.49854 9.49854C3.88974 15.1073 0.8 22.5675 0.8 30.5C0.8 38.4325 3.88974 45.8913 9.49852 51.5014L9.63996 51.36L9.49854 51.5015C15.1073 57.1103 22.5675 60.2 30.5 60.2C38.4325 60.2 45.8913 57.1103 51.5014 51.5015L51.36 51.36L51.5015 51.5015C57.1103 45.8927 60.2 38.4325 60.2 30.5C60.2 22.5675 57.1103 15.1073 51.5015 9.49854C45.8927 3.88974 38.4325 0.8 30.5 0.8C22.5675 0.8 15.1087 3.88975 9.49856 9.49852ZM30.5 59.1341C14.7117 59.1341 1.86594 46.2883 1.86594 30.5C1.86594 14.7117 14.7104 1.86461 30.5 1.86461C46.2896 1.86461 59.1341 14.7104 59.1341 30.4987C59.1341 46.287 46.2883 59.1341 30.5 59.1341Z" fill="white" stroke="white" stroke-width="0.4"/>
</svg>
