<svg width="216" height="61" viewBox="0 0 216 61" fill="none" xmlns="http://www.w3.org/2000/svg">
<path d="M94.8 42C99.72 42 102.52 39 102.52 34.8C102.52 31.56 100.2 28.68 97.36 28.24C99.8 27.72 102 25.48 102 22.12C102 18.24 99.24 15.32 94.48 15.32H81.96V42H94.8ZM93.72 26.64H85.96V18.84H93.72C96.4 18.84 97.88 20.56 97.88 22.76C97.88 24.96 96.4 26.64 93.72 26.64ZM93.92 38.48H85.96V30.16H93.92C96.88 30.16 98.4 32.08 98.4 34.28C98.4 36.88 96.72 38.48 93.92 38.48ZM122.908 42V28.96C122.908 24.04 119.348 22.2 115.148 22.2C112.028 22.2 109.388 23.24 107.228 25.36L108.788 27.84C110.508 26.12 112.388 25.28 114.588 25.28C117.348 25.28 119.308 26.72 119.308 29.12V32.32C117.828 30.6 115.588 29.76 112.988 29.76C109.748 29.76 106.268 31.68 106.268 36.08C106.268 40.32 109.788 42.48 112.988 42.48C115.588 42.48 117.788 41.56 119.308 39.88V42H122.908ZM114.348 39.96C111.748 39.96 109.908 38.4 109.908 36.12C109.908 33.84 111.748 32.28 114.348 32.28C116.348 32.28 118.228 33.04 119.308 34.48V37.76C118.228 39.2 116.348 39.96 114.348 39.96ZM145.317 42V28.44C145.317 24.36 143.197 22.2 139.117 22.2C136.117 22.2 133.557 23.84 132.277 25.4V22.68H128.677V42H132.277V28.2C133.317 26.76 135.357 25.4 137.597 25.4C140.077 25.4 141.717 26.44 141.717 29.64V42H145.317ZM166.541 42V28.96C166.541 24.04 162.981 22.2 158.781 22.2C155.661 22.2 153.021 23.24 150.861 25.36L152.421 27.84C154.141 26.12 156.021 25.28 158.221 25.28C160.981 25.28 162.941 26.72 162.941 29.12V32.32C161.461 30.6 159.221 29.76 156.621 29.76C153.381 29.76 149.901 31.68 149.901 36.08C149.901 40.32 153.421 42.48 156.621 42.48C159.221 42.48 161.421 41.56 162.941 39.88V42H166.541ZM157.981 39.96C155.381 39.96 153.541 38.4 153.541 36.12C153.541 33.84 155.381 32.28 157.981 32.28C159.981 32.28 161.861 33.04 162.941 34.48V37.76C161.861 39.2 159.981 39.96 157.981 39.96ZM175.91 36.48V28.28C176.87 26.72 179.07 25.4 181.27 25.4C184.87 25.4 187.11 28.32 187.11 32.36C187.11 36.4 184.87 39.28 181.27 39.28C179.07 39.28 176.87 38.04 175.91 36.48ZM175.91 42V39.24C177.35 41.16 179.63 42.48 182.23 42.48C187.23 42.48 190.83 38.68 190.83 32.36C190.83 26.16 187.27 22.2 182.23 22.2C179.71 22.2 177.43 23.4 175.91 25.48V15.32H172.31V42H175.91ZM203.995 42.48C210.035 42.48 213.755 37.92 213.755 32.32C213.755 26.76 210.035 22.2 203.995 22.2C197.995 22.2 194.235 26.76 194.235 32.32C194.235 37.92 197.995 42.48 203.995 42.48ZM203.995 39.28C200.155 39.28 197.995 36 197.995 32.32C197.995 28.68 200.155 25.4 203.995 25.4C207.875 25.4 209.995 28.68 209.995 32.32C209.995 36 207.875 39.28 203.995 39.28Z" fill="white"/>
<path d="M44.0419 39.3389C44.0205 39.4242 44.0312 39.5187 44.0752 39.596C44.1151 39.6652 44.195 39.7305 44.2736 39.7492C44.4454 39.7878 44.6385 39.6972 44.6838 39.5161C44.7211 39.3629 44.7704 39.2151 44.829 39.0686C44.8863 38.9367 44.9515 38.8088 45.0261 38.6863C45.1167 38.5371 45.0634 38.3134 44.9063 38.2308C44.7451 38.1456 44.5466 38.1908 44.4507 38.3507C44.2669 38.6557 44.1258 38.9926 44.0419 39.3389Z" fill="white"/>
<path d="M50.9696 41.5271C50.957 41.5215 50.9444 41.5173 50.9374 41.5103C50.936 41.5103 50.936 41.5103 50.9346 41.5103C50.9472 41.5257 50.9654 41.5299 50.9696 41.5271Z" fill="white"/>
<path d="M51.1294 41.6594C51.1294 41.6594 51.128 41.658 51.128 41.6566C51.1208 41.6494 51.1108 41.638 51.1037 41.6279C51.1022 41.6337 51.1123 41.6523 51.1294 41.6594Z" fill="white"/>
<path d="M50.8581 41.4861C50.8553 41.4861 50.8539 41.4847 50.8511 41.4847C50.8413 41.4847 50.8329 41.4833 50.8245 41.4819C50.816 41.4847 50.8329 41.4917 50.8581 41.4861Z" fill="white"/>
<path d="M50.8223 42.3399C50.8337 42.3385 50.8438 42.3385 50.8523 42.3385C50.8523 42.3385 50.8523 42.3385 50.8538 42.3385C50.8395 42.3356 50.828 42.337 50.8223 42.3399Z" fill="white"/>
<path d="M50.3586 41.834C50.3572 41.8466 50.3558 41.8606 50.3516 41.8704C50.3516 41.8718 50.3516 41.8718 50.3516 41.8732C50.3628 41.855 50.3628 41.834 50.3586 41.834Z" fill="white"/>
<path d="M21.466 34.5536C21.457 34.5461 21.448 34.5401 21.4404 34.5386C21.451 34.5431 21.46 34.5476 21.466 34.5536Z" fill="white"/>
<path d="M21.9965 34.1508C21.9951 34.141 21.9951 34.1311 21.9951 34.1213C21.9951 34.1199 21.9937 34.1171 21.9937 34.1157C21.9923 34.1354 21.9937 34.148 21.9965 34.1508Z" fill="white"/>
<path d="M21.871 34.4844C21.817 34.5114 21.844 34.5084 21.871 34.4844V34.4844Z" fill="white"/>
<path d="M21.3132 33.9224C21.3042 33.9329 21.2952 33.9419 21.2861 33.9494C21.3012 33.9389 21.3102 33.9284 21.3132 33.9224Z" fill="white"/>
<path d="M21.21 34.1396C21.2282 34.0723 21.2128 34.1087 21.21 34.1396V34.1396Z" fill="white"/>
<path d="M21.2861 34.4194C21.2922 34.4225 21.2968 34.427 21.3029 34.4331C21.2983 34.4286 21.2922 34.424 21.2861 34.4194Z" fill="white"/>
<path d="M21.6445 34.5783C21.6529 34.5769 21.6613 34.5769 21.6711 34.5755C21.6739 34.5755 21.6753 34.5741 21.6767 34.5741C21.6445 34.5699 21.6319 34.5769 21.6445 34.5783Z" fill="white"/>
<path d="M11.2041 35.4543L11.2041 35.4543C10.6439 35.0227 9.87726 34.9864 9.21271 35.1714C8.46458 35.3803 7.81352 35.8474 7.26125 36.4036C6.70361 36.9664 6.2365 37.6096 5.76703 38.256C5.71874 38.3225 5.67043 38.389 5.62198 38.4555C5.10357 39.1669 4.57118 39.8719 3.90404 40.4574M11.2041 35.4543L5.39822 37.4851L5.35786 37.4556C5.29983 37.535 5.242 37.6145 5.18419 37.694C4.61969 38.4701 4.05721 39.2434 3.34119 39.8715L3.34117 39.8715C3.25523 39.947 3.22004 40.0575 3.22259 40.164C3.22513 40.2703 3.26519 40.3787 3.33813 40.4545L3.33833 40.4547C3.50425 40.6253 3.74431 40.5977 3.90404 40.4574M11.2041 35.4543C11.6679 35.8112 11.8469 36.3796 11.8886 36.9671C10.9332 36.5568 9.79888 36.7561 9.00829 37.4815C8.92482 37.5579 8.88874 37.6673 8.89051 37.7734C8.89227 37.8794 8.93171 37.9873 9.00625 38.0639C9.16856 38.2308 9.4145 38.2109 9.57276 38.0659L9.57279 38.0659M11.2041 35.4543L9.57279 38.0659M3.90404 40.4574L3.87106 40.4198M3.90404 40.4574C3.90404 40.4574 3.90404 40.4574 3.90405 40.4574L3.87106 40.4198M3.87106 40.4198C3.72648 40.5468 3.51734 40.567 3.37416 40.4198C3.24784 40.2885 3.22959 40.036 3.37416 39.9091L3.87106 40.4198ZM9.57279 38.0659C10.2748 37.4215 11.2973 37.4257 12.0377 37.9993L9.57279 38.0659Z" fill="white" stroke="white" stroke-width="0.1"/>
<mask id="path-16-outside-1_1381_691" maskUnits="userSpaceOnUse" x="1.37207" y="20.5815" width="57" height="33" fill="black">
<rect fill="white" x="1.37207" y="20.5815" width="57" height="33"/>
<path d="M57.0664 42.3899C55.8158 43.7029 54.1342 44.6119 52.3544 44.8499C51.4476 44.9711 50.4903 44.8846 49.7183 44.3449C49.3955 44.1184 49.1288 43.8125 48.9547 43.4533C48.7484 43.0247 48.7245 42.527 48.761 42.0581C48.8396 41.0452 49.2411 40.1073 49.7225 39.2315C50.451 39.6774 51.4013 39.663 52.075 39.0815C52.4231 38.7814 52.666 38.3298 52.7305 37.8681C52.7376 37.819 52.7404 37.7714 52.7432 37.7223C52.8709 37.164 53.3145 36.7023 53.8675 36.6272C54.3728 36.558 54.982 36.786 55.2697 37.2433C55.2852 37.2736 55.3048 37.301 55.3273 37.3256C55.3764 37.3847 55.4368 37.4194 55.4985 37.4338C55.5294 37.4439 55.5603 37.4497 55.5912 37.4497C55.7133 37.4497 55.8031 37.3919 55.8635 37.3054C55.9196 37.2404 55.9519 37.1568 55.9449 37.0644C56.0403 36.2694 56.0979 35.4239 55.6894 34.7039C55.4199 34.2278 54.9118 33.8484 54.37 33.7834C54.363 33.2611 54.0612 32.7605 53.6303 32.4748C53.146 32.1545 52.5439 32.1054 51.9894 32.2309C51.9178 31.889 51.7648 31.5745 51.4841 31.3205C51.1135 30.9858 50.6223 30.8703 50.1422 30.9728C49.8629 31.0334 49.5597 31.1445 49.3169 31.3234C48.6024 30.7434 47.6774 30.5024 46.7707 30.6583C45.9271 30.8025 45.1607 31.3292 44.675 32.0491C43.9128 31.7851 43.0819 31.7678 42.3042 31.9756C41.5028 32.1891 40.7785 32.6248 40.1286 33.1442C38.7769 34.2249 37.8224 35.7356 36.4749 36.8177C35.7604 37.3905 34.9365 37.8695 34.0466 38.0701C33.2255 38.1004 32.4071 38.2706 31.6351 38.5505C30.6217 38.9185 29.6897 39.4696 28.832 40.129C26.6171 40.3699 24.186 40.2978 22.2195 39.1075C21.1934 38.487 20.3077 37.5391 19.8908 36.3791C19.4248 35.0834 19.4094 33.5656 19.7841 32.2425C19.9947 31.5009 20.368 30.8429 20.9169 30.3134C21.4559 29.7926 22.1198 29.4174 22.8146 29.1664C22.8202 29.1649 22.8258 29.1606 22.8314 29.1592C23.2876 29.1087 23.748 29.0481 24.113 28.7321C24.12 28.7263 24.1256 28.7191 24.1326 28.7133C24.4358 28.8749 24.6379 29.2212 24.6632 29.6021C24.6997 30.1475 24.4611 30.6381 24.1551 31.068C24.0428 31.2253 24.1298 31.4706 24.2814 31.5615C24.3319 31.5918 24.3825 31.6062 24.433 31.6091C24.4821 31.6192 24.5327 31.6177 24.5818 31.5975C25.5377 31.2296 26.5652 30.7304 27.2249 29.8993C27.5491 29.491 27.7274 29.0105 27.7035 28.4781C27.6839 28.0511 27.5617 27.6341 27.3722 27.2532C27.7639 26.8376 27.9702 26.2446 27.754 25.6733C27.6277 25.3414 27.3975 25.0803 27.0803 24.9302C26.8683 24.8292 26.6395 24.7672 26.4079 24.7455C26.4093 24.5868 26.4023 24.4296 26.3743 24.2708C26.3251 23.9938 26.189 23.7327 25.9953 23.535C25.6654 23.1988 25.1966 23.0618 24.7446 23.118C24.6 22.7227 24.3572 22.3894 24.0007 22.1456C23.5291 21.8224 22.9508 21.668 22.3921 21.6045C21.8391 21.5425 21.279 21.6016 20.7695 21.8382C20.3358 22.0388 19.9273 22.336 19.5876 22.6794C19.575 22.6794 19.5624 22.6794 19.5511 22.6794C18.6331 22.6794 17.7081 22.7717 16.8154 22.9925C15.2181 23.3893 13.719 24.2405 12.6747 25.5622C12.0711 26.3269 11.6051 27.1839 11.1461 28.0453C11.1461 28.0467 11.1461 28.0467 11.1447 28.0482C9.98667 28.4132 8.93534 29.1808 8.10859 30.0753C6.79478 31.4965 5.90206 33.2452 4.74405 34.7905C4.11803 35.6259 3.40076 36.4065 2.53471 36.9793C2.15573 37.2303 2.50804 37.8551 2.88843 37.6026C4.4535 36.5666 5.52167 34.9766 6.53791 33.4126C7.54714 31.8601 8.59145 30.2283 10.1944 29.263C11.0464 28.7494 12.0107 28.4623 13.0017 28.5618C13.1912 28.5806 13.3526 28.3829 13.3526 28.2011C13.3526 27.9905 13.1912 27.8592 13.0017 27.8404C12.6817 27.8072 12.3645 27.8144 12.0528 27.8505C12.7126 26.6501 13.4509 25.5059 14.6005 24.7325C15.9311 23.8366 17.5144 23.4629 19.0879 23.4066C19.9863 23.3748 20.9646 23.3763 21.804 23.7529C21.978 23.8308 22.1802 23.8048 22.284 23.623C22.3711 23.4701 22.3332 23.2075 22.1577 23.1296C21.6706 22.9103 21.1597 22.7934 20.639 22.7328C20.7639 22.6505 20.8902 22.5726 21.0235 22.5048C21.4096 22.31 21.8391 22.2769 22.2616 22.31C22.7009 22.3447 23.1613 22.4687 23.5431 22.6996C23.8982 22.9146 24.0723 23.2262 24.1607 23.6331C24.193 23.7832 24.2898 23.8611 24.3993 23.8842C24.4597 23.9058 24.5257 23.9087 24.5916 23.8856C24.6436 23.8669 24.6955 23.851 24.7488 23.8394C24.7713 23.8337 24.805 23.8207 24.8288 23.8236C24.7811 23.8293 24.7769 23.8308 24.8162 23.825C24.8302 23.8236 24.8429 23.8221 24.8569 23.8221C24.9117 23.8178 24.9664 23.8178 25.0197 23.8221C25.0282 23.8221 25.0731 23.8293 25.0815 23.8293C25.0955 23.8322 25.111 23.8351 25.1138 23.8366C25.1334 23.8409 25.2696 23.8669 25.2752 23.8871C25.2612 23.8813 25.2485 23.8755 25.2345 23.8697C25.2485 23.8755 25.2626 23.8827 25.2766 23.8899C25.2977 23.9 25.3187 23.9116 25.3384 23.9246C25.358 23.9375 25.3791 23.9491 25.3987 23.9621C25.4057 23.9664 25.4114 23.9707 25.4184 23.9751C25.4493 23.9981 25.4436 23.9938 25.4043 23.9621C25.438 23.9722 25.4843 24.0328 25.5082 24.0587C25.525 24.0761 25.5391 24.0948 25.5559 24.1121C25.5573 24.1136 25.5573 24.1136 25.5573 24.115C25.5826 24.1554 25.6065 24.1973 25.6289 24.2391C25.6317 24.2434 25.6331 24.2449 25.6345 24.2478C25.6345 24.2492 25.6345 24.2492 25.6345 24.2492C25.643 24.2752 25.6528 24.2997 25.6598 24.3257C25.6752 24.3776 25.6851 24.431 25.6949 24.4844C25.6949 24.4858 25.6949 24.4858 25.6949 24.4873C25.6949 24.4902 25.6949 24.4916 25.6949 24.4974C25.6963 24.5248 25.6991 24.5522 25.7005 24.5796C25.7033 24.6344 25.7033 24.6907 25.7019 24.7455C25.7005 24.8393 25.6935 24.9345 25.6865 25.0283C25.6823 25.0529 25.6794 25.0788 25.6809 25.1048C25.6724 25.2044 25.7216 25.2996 25.7945 25.3674C25.8563 25.4338 25.9377 25.4756 26.0318 25.4655C26.1567 25.4525 26.2802 25.4525 26.4051 25.4655C26.4178 25.4684 26.4486 25.4727 26.4585 25.4742C26.4908 25.4814 26.523 25.4886 26.5553 25.4972C26.6129 25.5131 26.669 25.5333 26.7252 25.5535C26.7378 25.5593 26.749 25.5651 26.7617 25.5708C26.7911 25.5853 26.8192 25.6011 26.8459 25.6184C26.8683 25.6329 26.8908 25.6473 26.9133 25.6617C26.9175 25.6646 26.9203 25.6661 26.9231 25.6675C26.9259 25.6704 26.9273 25.6733 26.9329 25.679C26.9526 25.7007 26.9736 25.7209 26.9933 25.7425C26.9975 25.7469 27.0003 25.7497 27.0031 25.7526C27.0045 25.7555 27.0059 25.7584 27.0101 25.7642C27.0368 25.8075 27.062 25.8522 27.0831 25.8984C27.0859 25.907 27.0943 25.9301 27.0985 25.946C27.107 25.9748 27.114 26.0037 27.121 26.0325C27.1224 26.0383 27.1252 26.0614 27.128 26.0773C27.1294 26.096 27.1308 26.1249 27.1308 26.1307C27.1322 26.161 27.1308 26.1913 27.1294 26.2201C27.1294 26.2302 27.128 26.2389 27.128 26.2446C27.1182 26.3009 27.1041 26.3572 27.0859 26.412C27.0803 26.4293 27.062 26.4683 27.0648 26.4639C27.055 26.4841 27.0452 26.5058 27.034 26.526C27.0185 26.5534 27.0031 26.5808 26.9862 26.6068C26.9834 26.6111 26.9624 26.64 26.954 26.6515C26.9189 26.6948 26.8824 26.7366 26.8417 26.7756C26.8234 26.7944 26.8024 26.8102 26.7841 26.829C26.7799 26.8333 26.7757 26.8362 26.7743 26.8376C26.7645 26.8449 26.7546 26.8521 26.7448 26.8593C26.7111 26.8838 26.6831 26.9127 26.6564 26.9458C26.5764 27.0324 26.5371 27.1551 26.5862 27.2864C26.5946 27.3094 26.6045 27.3311 26.6185 27.3527C26.822 27.6889 26.9764 28.0713 26.9947 28.4709C27.0129 28.8792 26.8768 29.2198 26.6059 29.5184C26.2184 29.9455 25.7328 30.2687 25.2191 30.5284C25.3398 30.1691 25.3903 29.7882 25.337 29.3987C25.2626 28.8634 24.965 28.38 24.5214 28.1088C24.6127 27.8678 24.6548 27.6038 24.652 27.3527C24.6407 26.2836 23.9389 25.2909 22.9283 25.0052C22.4525 24.8711 21.9177 24.8956 21.4362 25.0413C21.3618 24.9216 21.2622 24.8162 21.1372 24.7268C20.9071 24.5623 20.6277 24.4887 20.3526 24.4613C19.9245 24.4209 19.4978 24.5421 19.1371 24.7729C18.7412 24.4512 18.2219 24.2824 17.718 24.3444C17.1102 24.4209 16.5684 24.7773 16.2526 25.3183C16.1543 25.4857 16.2161 25.7137 16.3789 25.8118C16.5445 25.9113 16.7607 25.8493 16.8589 25.6819C16.9516 25.5218 17.0976 25.3645 17.2421 25.2678C17.2899 25.2361 17.339 25.2058 17.3909 25.1798C17.4106 25.1697 17.4316 25.1596 17.4513 25.1495C17.4569 25.1466 17.4751 25.1394 17.4807 25.138C17.5341 25.1192 17.5888 25.1005 17.6436 25.086C17.6688 25.0803 17.6927 25.0745 17.718 25.0687C17.7236 25.0673 17.7601 25.0615 17.7699 25.0601C17.9959 25.0341 18.1475 25.0586 18.3552 25.1322C18.5307 25.1957 18.7033 25.3169 18.8479 25.4727C18.9139 25.5449 19.0065 25.578 19.0991 25.5766C19.1946 25.5824 19.29 25.5492 19.3715 25.477C19.3855 25.4655 19.3995 25.4525 19.4136 25.441C19.4178 25.4381 19.4276 25.4309 19.4346 25.4266C19.4725 25.4006 19.5104 25.3746 19.5497 25.3515C19.5932 25.3256 19.6396 25.3025 19.6859 25.2808C19.6873 25.2808 19.6873 25.2808 19.6873 25.2794C19.6901 25.2779 19.6915 25.2779 19.6957 25.2765C19.7168 25.2678 19.7378 25.2606 19.7603 25.2534C19.8473 25.2231 19.9343 25.2058 20.0242 25.1856C20.0256 25.1856 20.0256 25.1856 20.0284 25.1842C20.0298 25.1842 20.0312 25.1842 20.0326 25.1842C20.055 25.1827 20.0775 25.1798 20.1 25.1784C20.1505 25.1755 20.2024 25.1741 20.2529 25.1755C20.2923 25.1769 20.3316 25.1798 20.3709 25.1842C20.3737 25.1856 20.4452 25.1986 20.4621 25.2029C20.507 25.2145 20.5505 25.2274 20.594 25.2433C20.6025 25.2462 20.6137 25.2505 20.6193 25.252C20.6361 25.2592 20.653 25.2678 20.6684 25.2765C20.7049 25.2953 20.7386 25.3183 20.7723 25.3414C20.7793 25.3472 20.7919 25.3587 20.8004 25.366C20.8158 25.3804 20.8298 25.3963 20.8439 25.4136C20.8439 25.4136 20.8439 25.4136 20.8453 25.415C20.8467 25.4165 20.8467 25.4165 20.8481 25.4193C20.8593 25.4381 20.8677 25.4583 20.8804 25.4756C20.8804 25.4756 20.8804 25.4756 20.8818 25.477C20.8818 25.4785 20.8818 25.4785 20.8818 25.4785C20.8846 25.4929 20.9014 25.5665 20.8916 25.4929C20.8958 25.5304 20.9056 25.5665 20.9183 25.6026C20.9197 25.6083 20.9225 25.6141 20.9239 25.6199C20.9267 25.6285 20.9309 25.6372 20.9351 25.6444C20.9393 25.6545 20.9421 25.6646 20.9478 25.6733C20.9492 25.6762 20.952 25.679 20.9548 25.6834C21.0137 25.7873 21.1106 25.8608 21.2439 25.8551C21.2804 25.8536 21.3197 25.8435 21.3562 25.8291C21.3801 25.8219 21.4039 25.8132 21.4278 25.8031C21.8657 25.5997 22.4665 25.578 22.9143 25.7613C23.3241 25.9287 23.6526 26.2778 23.8196 26.6948C23.9824 27.1017 24.0274 27.6081 23.8 27.9991C23.7214 28.1347 23.5796 28.266 23.3901 28.3295C23.1711 28.4031 22.9437 28.4219 22.7164 28.4464C22.6644 28.4522 22.6153 28.4666 22.5704 28.4882C21.2074 28.9932 19.961 29.9239 19.3644 31.3191C18.7707 32.7071 18.6767 34.375 19.0037 35.8481C19.3209 37.278 20.1603 38.4769 21.2973 39.3441C22.2967 40.1045 23.5038 40.5474 24.7222 40.7624C25.7651 40.9471 26.8234 40.9846 27.8762 40.9254C27.7625 41.0293 27.6488 41.1346 27.5379 41.2414C27.1056 41.6584 26.6971 42.0985 26.3013 42.5501C24.0905 42.2875 21.95 41.3857 20.2136 39.9515C19.7055 39.5317 19.2325 39.07 18.7932 38.5751C18.4886 38.2317 17.9931 38.7424 18.2963 39.0858C19.9119 40.9081 22.0159 42.2456 24.3319 42.8935C24.7994 43.0247 25.2724 43.1229 25.751 43.1979C25.4507 43.56 25.1573 43.9265 24.8667 44.2973C24.6506 44.4301 24.426 44.5498 24.1972 44.6566C23.3101 44.5729 22.4539 44.2973 21.6594 43.8717C20.726 43.3725 19.8347 42.7376 19.0402 42.0278C18.2654 41.3352 17.5804 40.5373 17.0919 39.6038C16.5796 38.6227 16.3059 37.5204 16.1796 36.4195C16.0308 35.1152 16.056 33.7979 16.0883 32.4878C16.0996 32.0232 15.3977 32.0232 15.3865 32.4878C15.3276 34.8843 15.2981 37.3891 16.3101 39.6067C17.2505 41.667 19.0992 43.2065 20.9857 44.3132C21.5738 44.658 22.1928 44.9336 22.8357 45.1226C21.8868 45.3405 20.893 45.3607 19.9315 45.1818C18.8212 44.9769 17.7924 44.5383 16.8505 43.9381C16.8407 43.9236 16.8323 43.9092 16.8196 43.8948C15.7009 42.6107 14.9317 41.0409 14.5738 39.3585C14.4769 38.9055 13.8004 39.0974 13.8972 39.5504C14.1092 40.5489 14.4643 41.5069 14.9401 42.3986C14.3197 41.7983 13.7372 41.1592 13.1589 40.5171C12.8515 40.1766 12.356 40.6874 12.662 41.0279C13.9337 42.4361 15.2405 43.8674 16.8912 44.8124C18.518 45.7445 20.4172 46.2033 22.2728 45.9537C22.8188 45.8801 23.3536 45.7503 23.8701 45.5656C23.4013 46.16 22.9283 46.7501 22.43 47.3201C21.9036 47.9217 21.3506 48.5335 20.639 48.9043C19.8262 49.3256 18.8746 49.2823 18.0197 49.0269C17.099 48.7513 16.289 48.2074 15.4763 47.701C15.3725 47.636 15.27 47.6346 15.1844 47.6721C14.3211 47.9924 13.3456 47.978 12.4599 47.7572C11.5854 47.5394 10.8499 46.9088 10.2211 46.2769C10.1776 46.2336 10.1312 46.2062 10.0849 46.1903C10.0218 46.1629 9.94597 46.1557 9.85894 46.1845C9.54874 46.2855 9.21326 46.2408 8.92832 46.0792C8.60689 45.8974 8.42161 45.5872 8.33037 45.2279C8.10719 44.3464 8.51284 43.4691 8.93394 42.7246C9.07711 42.4707 8.88762 42.2326 8.67146 42.1922C8.58443 42.1533 8.48056 42.1475 8.37248 42.2038C8.05666 42.3683 7.60609 42.4967 7.25377 42.3841C6.92391 42.2774 6.96743 41.7738 7.02217 41.5011C7.1092 41.0755 7.31694 40.6975 7.5345 40.3281C7.79137 39.8953 8.05385 39.4653 8.31493 39.0339C8.55355 38.6385 7.94717 38.275 7.70855 38.6703C7.39975 39.1839 7.07551 39.6904 6.78495 40.2141C6.50844 40.7119 6.27964 41.2688 6.28806 41.8517C6.29508 42.4115 6.54914 42.9598 7.12043 43.094C7.39273 43.1575 7.67767 43.1517 7.9556 43.0998C7.6117 43.8847 7.4194 44.7475 7.70294 45.5858C7.86997 46.0778 8.17878 46.5049 8.64058 46.7386C8.89323 46.867 9.16975 46.9435 9.45048 46.9565C9.4196 47.0142 9.38872 47.0719 9.35363 47.1282C9.341 47.1484 9.21467 47.3518 9.19642 47.3648C9.20625 47.3532 9.23432 47.3143 9.19361 47.3677C9.17958 47.385 9.16694 47.4023 9.15291 47.4182C9.12343 47.4557 9.09115 47.4917 9.06027 47.5278C8.93955 47.6649 8.80761 47.7875 8.66865 47.9044C8.66724 47.9044 8.66725 47.9058 8.66725 47.9058C8.64619 47.9217 8.62654 47.9376 8.60548 47.952C8.57039 47.978 8.5353 48.0025 8.49881 48.0256C8.4202 48.079 8.33879 48.128 8.25598 48.1728C8.09456 48.2622 8.02999 48.5061 8.12965 48.6662C8.23633 48.835 8.43705 48.8913 8.6097 48.7961C9.27362 48.431 9.79297 47.8568 10.1284 47.1729C10.7517 47.7442 11.4661 48.2507 12.276 48.4527C13.0284 48.6402 13.8523 48.7037 14.6299 48.5681C13.8846 49.8768 12.7813 50.9257 11.6977 51.9472C11.3637 52.2617 11.8619 52.7711 12.1946 52.458C13.4284 51.2965 14.6931 50.0831 15.4525 48.5291C16.0855 48.923 16.7228 49.3112 17.419 49.581C18.2359 49.8969 19.13 50.0311 19.9947 49.8782C20.8088 49.7339 21.512 49.2708 22.1114 48.7037C22.7486 48.1021 23.3073 47.4052 23.8589 46.7213C24.2323 46.2581 24.6014 45.7834 24.972 45.3073C24.9832 45.2958 24.9917 45.2828 25.0001 45.2712C26.7252 43.0594 28.5148 40.8187 31.0358 39.5793C32.657 38.7828 34.5673 38.5087 36.2854 39.1262C36.4637 39.1912 36.6686 39.0526 36.7177 38.8737C36.7711 38.6746 36.6518 38.4943 36.4721 38.4293C36.2124 38.3356 35.9485 38.2634 35.6804 38.2071C36.6756 37.6632 37.5403 36.8567 38.3039 36.0184C39.3959 34.8165 40.4795 33.4256 42.0207 32.8239C42.8896 32.4834 43.8174 32.4589 44.6862 32.8167C44.734 32.8369 44.7831 32.8384 44.8308 32.8297C44.9417 32.8355 45.054 32.785 45.127 32.6551C45.5032 31.977 46.1545 31.5023 46.9012 31.3624C47.6718 31.2166 48.4887 31.4864 49.0502 32.0405C49.0544 32.0448 49.0586 32.0477 49.0628 32.0506C49.0656 32.0549 49.0684 32.0578 49.0726 32.0621C49.1962 32.1891 49.4502 32.2151 49.5695 32.0621C49.5948 32.0289 49.6215 31.9986 49.6509 31.9698C49.6636 31.9568 49.6762 31.9453 49.6902 31.9337C49.6706 31.9481 49.6706 31.9481 49.6902 31.9337C49.7562 31.8847 49.8278 31.8471 49.8994 31.8082C49.9359 31.788 49.9906 31.7678 50.0608 31.7433C50.1296 31.7202 50.1998 31.6985 50.2699 31.6812C50.5423 31.6134 50.8454 31.6855 51.0363 31.8832C51.049 31.8962 51.1009 31.9554 51.0953 31.9467C51.0939 31.9438 51.1416 32.0145 51.1542 32.0347C51.1739 32.0679 51.1921 32.1011 51.209 32.1357C51.2118 32.1415 51.2357 32.1963 51.2399 32.2035C51.2665 32.2713 51.2876 32.3435 51.3044 32.4142C51.3129 32.4517 51.3199 32.4906 51.3283 32.5282C51.3311 32.5469 51.3325 32.5585 51.3339 32.5628C51.3353 32.5772 51.3367 32.5916 51.3381 32.6046C51.3732 33.0202 51.2834 33.4256 51.1949 33.8282C51.1528 34.0186 51.2511 34.2192 51.4406 34.2725C51.6174 34.323 51.8308 34.2119 51.8729 34.02C51.9459 33.6882 52.0147 33.3232 52.0329 32.961C52.1059 32.9408 52.1789 32.9221 52.2547 32.9062C52.2673 32.9033 52.28 32.9019 52.2926 32.899C52.2701 32.9019 52.2716 32.9004 52.2954 32.899C52.3277 32.8946 52.36 32.8918 52.3923 32.8903C52.4582 32.886 52.5242 32.8845 52.5902 32.8874C52.6309 32.8889 52.6716 32.8918 52.7109 32.8961C52.7235 32.8975 52.7348 32.899 52.7474 32.9004C52.7488 32.9004 52.7488 32.9004 52.7502 32.9004C52.812 32.9105 52.8737 32.9249 52.9341 32.9423C52.9846 32.9567 53.0337 32.974 53.0815 32.9942C53.0941 33 53.1362 33.0202 53.1376 33.0216C53.1629 33.0346 53.1881 33.049 53.212 33.0634C53.2373 33.0779 53.2611 33.0937 53.285 33.1096C53.2892 33.1125 53.3173 33.1341 53.3313 33.1442C53.3439 33.1558 53.372 33.1789 53.3748 33.1818C53.4001 33.2048 53.4239 33.2294 53.4478 33.2553C53.4506 33.2582 53.4717 33.2828 53.4843 33.2972C53.4927 33.3087 53.518 33.3434 53.5208 33.3477C53.539 33.3765 53.5573 33.4068 53.5727 33.4386C53.5755 33.4429 53.5896 33.4747 53.598 33.4905C53.6036 33.5064 53.6176 33.5425 53.6191 33.5468C53.6303 33.58 53.6387 33.6146 53.6471 33.6492C53.6499 33.6651 53.6527 33.6795 53.6555 33.6954C53.6527 33.6896 53.6612 33.756 53.6612 33.7618C53.6626 33.7906 53.6626 33.8195 53.6612 33.8483C53.6612 33.8613 53.6583 33.883 53.6583 33.8916C53.6471 33.9551 53.6303 34.0157 53.6078 34.0749C53.5545 34.2192 53.6373 34.3952 53.7636 34.4774C53.765 34.4789 53.7664 34.4789 53.7678 34.4803C53.7805 34.4875 53.7931 34.4947 53.8057 34.5005C53.8717 34.5323 53.9503 34.5438 54.0401 34.5178C54.1272 34.4933 54.2282 34.4875 54.3195 34.5077C54.4472 34.5351 54.5483 34.5755 54.6563 34.639C54.8711 34.766 55.0311 34.9536 55.142 35.1945C55.2992 35.535 55.3301 35.9159 55.3133 36.2954C54.8669 35.9852 54.2998 35.8467 53.7678 35.9188C53.2611 35.9881 52.8077 36.2651 52.4877 36.659C52.4386 36.5739 52.3852 36.4916 52.3235 36.4123C52.0877 36.1122 51.7564 35.8799 51.3943 35.7716C51.4308 35.5797 51.428 35.3792 51.3887 35.1887C51.3157 34.828 51.0855 34.5279 50.7963 34.3202C50.2335 33.9162 49.4797 33.9811 48.9056 34.3245C48.7723 34.2379 48.6277 34.1701 48.4733 34.1254C47.6774 33.8931 46.9026 34.2552 46.226 34.6563C45.8344 34.8886 46.1881 35.5119 46.5798 35.2796C46.8521 35.118 47.1272 34.9593 47.4276 34.8627C47.6914 34.7775 47.9511 34.7415 48.2038 34.8006C48.4298 34.8526 48.6207 34.9463 48.7526 35.1483C48.9042 35.3792 48.9393 35.6548 48.9393 35.9275C48.9407 36.3921 49.6425 36.3921 49.6411 35.9275C49.6411 35.5653 49.5808 35.1873 49.4067 34.8684C49.4123 34.8655 49.4179 34.8627 49.4221 34.8612C49.4249 34.8598 49.4278 34.8583 49.4334 34.8569C49.5036 34.8295 49.5737 34.8064 49.6467 34.7891C49.6734 34.7833 49.7001 34.7775 49.7281 34.7732C49.7352 34.7732 49.7787 34.766 49.7899 34.766C49.8587 34.7617 49.9261 34.7631 49.9948 34.7674C50.0019 34.7674 50.0061 34.7674 50.0103 34.7674C50.0131 34.7689 50.0159 34.7689 50.0201 34.7689C50.0496 34.7746 50.0791 34.7804 50.1071 34.7876C50.1591 34.8006 50.2082 34.8179 50.2587 34.8381C50.2728 34.8439 50.2952 34.8554 50.3022 34.8598C50.3331 34.8756 50.3626 34.8944 50.3921 34.9132C50.3963 34.916 50.4201 34.9319 50.4356 34.942C50.4454 34.9507 50.4805 34.9795 50.4861 34.9839C50.5086 35.0041 50.5296 35.0257 50.5493 35.0473C50.5563 35.056 50.5872 35.095 50.5942 35.1022C50.6223 35.1455 50.6475 35.1902 50.6714 35.2364C50.6742 35.2407 50.6742 35.2421 50.6756 35.245C50.677 35.2493 50.6784 35.2551 50.6798 35.2638C50.6882 35.2941 50.6981 35.3215 50.7051 35.3518C50.7065 35.359 50.7135 35.3994 50.7163 35.4095C50.7177 35.4297 50.7205 35.4484 50.7205 35.4686C50.7219 35.4989 50.7205 35.5292 50.7191 35.561C50.7177 35.5754 50.7163 35.5913 50.7135 35.6028C50.7037 35.6476 50.6924 35.6908 50.6784 35.7341C50.6728 35.7442 50.6531 35.7875 50.6475 35.7976C50.6307 35.8279 50.611 35.8568 50.59 35.8856C50.5409 35.9549 50.531 36.0443 50.5479 36.1295C50.5493 36.1338 50.5493 36.1381 50.5507 36.1424C50.5549 36.1583 50.5591 36.1742 50.5647 36.1901C50.5675 36.1973 50.5689 36.2045 50.5717 36.2103C50.5802 36.229 50.59 36.2478 50.5998 36.2651C50.5998 36.2665 50.6012 36.2665 50.6012 36.268C50.6251 36.3055 50.6545 36.3372 50.6882 36.3603C50.6938 36.3646 50.6995 36.369 50.7051 36.3733C50.7079 36.3747 50.7107 36.3776 50.7135 36.3791C50.7163 36.3805 50.7191 36.3805 50.7219 36.382C50.7725 36.4123 50.83 36.431 50.8904 36.4281C51.5108 36.3993 52.0722 37.0182 52.0442 37.6502C52.0315 37.9287 51.894 38.2432 51.689 38.4582C51.4701 38.6905 51.1725 38.8218 50.8623 38.8304C50.4945 38.8405 50.1282 38.7107 49.8531 38.451C49.7632 38.3658 49.6425 38.3327 49.5302 38.3558C49.4699 38.3659 49.4123 38.3961 49.3618 38.4466C49.3604 38.4481 49.359 38.4495 49.3576 38.451C49.3576 38.451 49.3576 38.4524 49.3562 38.4524C49.3463 38.4625 49.3379 38.4755 49.3295 38.487C49.3239 38.4957 49.3169 38.5029 49.3113 38.5116C49.3085 38.5159 49.3056 38.5188 49.3028 38.5246C48.2978 40.256 47.2086 42.9771 48.9365 44.6292C50.5226 46.1456 52.9972 45.681 54.7967 44.8672C55.827 44.4027 56.766 43.726 57.5535 42.9007C57.8791 42.5674 57.3836 42.0566 57.0664 42.3899Z"/>
</mask>
<path d="M57.0664 42.3899C55.8158 43.7029 54.1342 44.6119 52.3544 44.8499C51.4476 44.9711 50.4903 44.8846 49.7183 44.3449C49.3955 44.1184 49.1288 43.8125 48.9547 43.4533C48.7484 43.0247 48.7245 42.527 48.761 42.0581C48.8396 41.0452 49.2411 40.1073 49.7225 39.2315C50.451 39.6774 51.4013 39.663 52.075 39.0815C52.4231 38.7814 52.666 38.3298 52.7305 37.8681C52.7376 37.819 52.7404 37.7714 52.7432 37.7223C52.8709 37.164 53.3145 36.7023 53.8675 36.6272C54.3728 36.558 54.982 36.786 55.2697 37.2433C55.2852 37.2736 55.3048 37.301 55.3273 37.3256C55.3764 37.3847 55.4368 37.4194 55.4985 37.4338C55.5294 37.4439 55.5603 37.4497 55.5912 37.4497C55.7133 37.4497 55.8031 37.3919 55.8635 37.3054C55.9196 37.2404 55.9519 37.1568 55.9449 37.0644C56.0403 36.2694 56.0979 35.4239 55.6894 34.7039C55.4199 34.2278 54.9118 33.8484 54.37 33.7834C54.363 33.2611 54.0612 32.7605 53.6303 32.4748C53.146 32.1545 52.5439 32.1054 51.9894 32.2309C51.9178 31.889 51.7648 31.5745 51.4841 31.3205C51.1135 30.9858 50.6223 30.8703 50.1422 30.9728C49.8629 31.0334 49.5597 31.1445 49.3169 31.3234C48.6024 30.7434 47.6774 30.5024 46.7707 30.6583C45.9271 30.8025 45.1607 31.3292 44.675 32.0491C43.9128 31.7851 43.0819 31.7678 42.3042 31.9756C41.5028 32.1891 40.7785 32.6248 40.1286 33.1442C38.7769 34.2249 37.8224 35.7356 36.4749 36.8177C35.7604 37.3905 34.9365 37.8695 34.0466 38.0701C33.2255 38.1004 32.4071 38.2706 31.6351 38.5505C30.6217 38.9185 29.6897 39.4696 28.832 40.129C26.6171 40.3699 24.186 40.2978 22.2195 39.1075C21.1934 38.487 20.3077 37.5391 19.8908 36.3791C19.4248 35.0834 19.4094 33.5656 19.7841 32.2425C19.9947 31.5009 20.368 30.8429 20.9169 30.3134C21.4559 29.7926 22.1198 29.4174 22.8146 29.1664C22.8202 29.1649 22.8258 29.1606 22.8314 29.1592C23.2876 29.1087 23.748 29.0481 24.113 28.7321C24.12 28.7263 24.1256 28.7191 24.1326 28.7133C24.4358 28.8749 24.6379 29.2212 24.6632 29.6021C24.6997 30.1475 24.4611 30.6381 24.1551 31.068C24.0428 31.2253 24.1298 31.4706 24.2814 31.5615C24.3319 31.5918 24.3825 31.6062 24.433 31.6091C24.4821 31.6192 24.5327 31.6177 24.5818 31.5975C25.5377 31.2296 26.5652 30.7304 27.2249 29.8993C27.5491 29.491 27.7274 29.0105 27.7035 28.4781C27.6839 28.0511 27.5617 27.6341 27.3722 27.2532C27.7639 26.8376 27.9702 26.2446 27.754 25.6733C27.6277 25.3414 27.3975 25.0803 27.0803 24.9302C26.8683 24.8292 26.6395 24.7672 26.4079 24.7455C26.4093 24.5868 26.4023 24.4296 26.3743 24.2708C26.3251 23.9938 26.189 23.7327 25.9953 23.535C25.6654 23.1988 25.1966 23.0618 24.7446 23.118C24.6 22.7227 24.3572 22.3894 24.0007 22.1456C23.5291 21.8224 22.9508 21.668 22.3921 21.6045C21.8391 21.5425 21.279 21.6016 20.7695 21.8382C20.3358 22.0388 19.9273 22.336 19.5876 22.6794C19.575 22.6794 19.5624 22.6794 19.5511 22.6794C18.6331 22.6794 17.7081 22.7717 16.8154 22.9925C15.2181 23.3893 13.719 24.2405 12.6747 25.5622C12.0711 26.3269 11.6051 27.1839 11.1461 28.0453C11.1461 28.0467 11.1461 28.0467 11.1447 28.0482C9.98667 28.4132 8.93534 29.1808 8.10859 30.0753C6.79478 31.4965 5.90206 33.2452 4.74405 34.7905C4.11803 35.6259 3.40076 36.4065 2.53471 36.9793C2.15573 37.2303 2.50804 37.8551 2.88843 37.6026C4.4535 36.5666 5.52167 34.9766 6.53791 33.4126C7.54714 31.8601 8.59145 30.2283 10.1944 29.263C11.0464 28.7494 12.0107 28.4623 13.0017 28.5618C13.1912 28.5806 13.3526 28.3829 13.3526 28.2011C13.3526 27.9905 13.1912 27.8592 13.0017 27.8404C12.6817 27.8072 12.3645 27.8144 12.0528 27.8505C12.7126 26.6501 13.4509 25.5059 14.6005 24.7325C15.9311 23.8366 17.5144 23.4629 19.0879 23.4066C19.9863 23.3748 20.9646 23.3763 21.804 23.7529C21.978 23.8308 22.1802 23.8048 22.284 23.623C22.3711 23.4701 22.3332 23.2075 22.1577 23.1296C21.6706 22.9103 21.1597 22.7934 20.639 22.7328C20.7639 22.6505 20.8902 22.5726 21.0235 22.5048C21.4096 22.31 21.8391 22.2769 22.2616 22.31C22.7009 22.3447 23.1613 22.4687 23.5431 22.6996C23.8982 22.9146 24.0723 23.2262 24.1607 23.6331C24.193 23.7832 24.2898 23.8611 24.3993 23.8842C24.4597 23.9058 24.5257 23.9087 24.5916 23.8856C24.6436 23.8669 24.6955 23.851 24.7488 23.8394C24.7713 23.8337 24.805 23.8207 24.8288 23.8236C24.7811 23.8293 24.7769 23.8308 24.8162 23.825C24.8302 23.8236 24.8429 23.8221 24.8569 23.8221C24.9117 23.8178 24.9664 23.8178 25.0197 23.8221C25.0282 23.8221 25.0731 23.8293 25.0815 23.8293C25.0955 23.8322 25.111 23.8351 25.1138 23.8366C25.1334 23.8409 25.2696 23.8669 25.2752 23.8871C25.2612 23.8813 25.2485 23.8755 25.2345 23.8697C25.2485 23.8755 25.2626 23.8827 25.2766 23.8899C25.2977 23.9 25.3187 23.9116 25.3384 23.9246C25.358 23.9375 25.3791 23.9491 25.3987 23.9621C25.4057 23.9664 25.4114 23.9707 25.4184 23.9751C25.4493 23.9981 25.4436 23.9938 25.4043 23.9621C25.438 23.9722 25.4843 24.0328 25.5082 24.0587C25.525 24.0761 25.5391 24.0948 25.5559 24.1121C25.5573 24.1136 25.5573 24.1136 25.5573 24.115C25.5826 24.1554 25.6065 24.1973 25.6289 24.2391C25.6317 24.2434 25.6331 24.2449 25.6345 24.2478C25.6345 24.2492 25.6345 24.2492 25.6345 24.2492C25.643 24.2752 25.6528 24.2997 25.6598 24.3257C25.6752 24.3776 25.6851 24.431 25.6949 24.4844C25.6949 24.4858 25.6949 24.4858 25.6949 24.4873C25.6949 24.4902 25.6949 24.4916 25.6949 24.4974C25.6963 24.5248 25.6991 24.5522 25.7005 24.5796C25.7033 24.6344 25.7033 24.6907 25.7019 24.7455C25.7005 24.8393 25.6935 24.9345 25.6865 25.0283C25.6823 25.0529 25.6794 25.0788 25.6809 25.1048C25.6724 25.2044 25.7216 25.2996 25.7945 25.3674C25.8563 25.4338 25.9377 25.4756 26.0318 25.4655C26.1567 25.4525 26.2802 25.4525 26.4051 25.4655C26.4178 25.4684 26.4486 25.4727 26.4585 25.4742C26.4908 25.4814 26.523 25.4886 26.5553 25.4972C26.6129 25.5131 26.669 25.5333 26.7252 25.5535C26.7378 25.5593 26.749 25.5651 26.7617 25.5708C26.7911 25.5853 26.8192 25.6011 26.8459 25.6184C26.8683 25.6329 26.8908 25.6473 26.9133 25.6617C26.9175 25.6646 26.9203 25.6661 26.9231 25.6675C26.9259 25.6704 26.9273 25.6733 26.9329 25.679C26.9526 25.7007 26.9736 25.7209 26.9933 25.7425C26.9975 25.7469 27.0003 25.7497 27.0031 25.7526C27.0045 25.7555 27.0059 25.7584 27.0101 25.7642C27.0368 25.8075 27.062 25.8522 27.0831 25.8984C27.0859 25.907 27.0943 25.9301 27.0985 25.946C27.107 25.9748 27.114 26.0037 27.121 26.0325C27.1224 26.0383 27.1252 26.0614 27.128 26.0773C27.1294 26.096 27.1308 26.1249 27.1308 26.1307C27.1322 26.161 27.1308 26.1913 27.1294 26.2201C27.1294 26.2302 27.128 26.2389 27.128 26.2446C27.1182 26.3009 27.1041 26.3572 27.0859 26.412C27.0803 26.4293 27.062 26.4683 27.0648 26.4639C27.055 26.4841 27.0452 26.5058 27.034 26.526C27.0185 26.5534 27.0031 26.5808 26.9862 26.6068C26.9834 26.6111 26.9624 26.64 26.954 26.6515C26.9189 26.6948 26.8824 26.7366 26.8417 26.7756C26.8234 26.7944 26.8024 26.8102 26.7841 26.829C26.7799 26.8333 26.7757 26.8362 26.7743 26.8376C26.7645 26.8449 26.7546 26.8521 26.7448 26.8593C26.7111 26.8838 26.6831 26.9127 26.6564 26.9458C26.5764 27.0324 26.5371 27.1551 26.5862 27.2864C26.5946 27.3094 26.6045 27.3311 26.6185 27.3527C26.822 27.6889 26.9764 28.0713 26.9947 28.4709C27.0129 28.8792 26.8768 29.2198 26.6059 29.5184C26.2184 29.9455 25.7328 30.2687 25.2191 30.5284C25.3398 30.1691 25.3903 29.7882 25.337 29.3987C25.2626 28.8634 24.965 28.38 24.5214 28.1088C24.6127 27.8678 24.6548 27.6038 24.652 27.3527C24.6407 26.2836 23.9389 25.2909 22.9283 25.0052C22.4525 24.8711 21.9177 24.8956 21.4362 25.0413C21.3618 24.9216 21.2622 24.8162 21.1372 24.7268C20.9071 24.5623 20.6277 24.4887 20.3526 24.4613C19.9245 24.4209 19.4978 24.5421 19.1371 24.7729C18.7412 24.4512 18.2219 24.2824 17.718 24.3444C17.1102 24.4209 16.5684 24.7773 16.2526 25.3183C16.1543 25.4857 16.2161 25.7137 16.3789 25.8118C16.5445 25.9113 16.7607 25.8493 16.8589 25.6819C16.9516 25.5218 17.0976 25.3645 17.2421 25.2678C17.2899 25.2361 17.339 25.2058 17.3909 25.1798C17.4106 25.1697 17.4316 25.1596 17.4513 25.1495C17.4569 25.1466 17.4751 25.1394 17.4807 25.138C17.5341 25.1192 17.5888 25.1005 17.6436 25.086C17.6688 25.0803 17.6927 25.0745 17.718 25.0687C17.7236 25.0673 17.7601 25.0615 17.7699 25.0601C17.9959 25.0341 18.1475 25.0586 18.3552 25.1322C18.5307 25.1957 18.7033 25.3169 18.8479 25.4727C18.9139 25.5449 19.0065 25.578 19.0991 25.5766C19.1946 25.5824 19.29 25.5492 19.3715 25.477C19.3855 25.4655 19.3995 25.4525 19.4136 25.441C19.4178 25.4381 19.4276 25.4309 19.4346 25.4266C19.4725 25.4006 19.5104 25.3746 19.5497 25.3515C19.5932 25.3256 19.6396 25.3025 19.6859 25.2808C19.6873 25.2808 19.6873 25.2808 19.6873 25.2794C19.6901 25.2779 19.6915 25.2779 19.6957 25.2765C19.7168 25.2678 19.7378 25.2606 19.7603 25.2534C19.8473 25.2231 19.9343 25.2058 20.0242 25.1856C20.0256 25.1856 20.0256 25.1856 20.0284 25.1842C20.0298 25.1842 20.0312 25.1842 20.0326 25.1842C20.055 25.1827 20.0775 25.1798 20.1 25.1784C20.1505 25.1755 20.2024 25.1741 20.2529 25.1755C20.2923 25.1769 20.3316 25.1798 20.3709 25.1842C20.3737 25.1856 20.4452 25.1986 20.4621 25.2029C20.507 25.2145 20.5505 25.2274 20.594 25.2433C20.6025 25.2462 20.6137 25.2505 20.6193 25.252C20.6361 25.2592 20.653 25.2678 20.6684 25.2765C20.7049 25.2953 20.7386 25.3183 20.7723 25.3414C20.7793 25.3472 20.7919 25.3587 20.8004 25.366C20.8158 25.3804 20.8298 25.3963 20.8439 25.4136C20.8439 25.4136 20.8439 25.4136 20.8453 25.415C20.8467 25.4165 20.8467 25.4165 20.8481 25.4193C20.8593 25.4381 20.8677 25.4583 20.8804 25.4756C20.8804 25.4756 20.8804 25.4756 20.8818 25.477C20.8818 25.4785 20.8818 25.4785 20.8818 25.4785C20.8846 25.4929 20.9014 25.5665 20.8916 25.4929C20.8958 25.5304 20.9056 25.5665 20.9183 25.6026C20.9197 25.6083 20.9225 25.6141 20.9239 25.6199C20.9267 25.6285 20.9309 25.6372 20.9351 25.6444C20.9393 25.6545 20.9421 25.6646 20.9478 25.6733C20.9492 25.6762 20.952 25.679 20.9548 25.6834C21.0137 25.7873 21.1106 25.8608 21.2439 25.8551C21.2804 25.8536 21.3197 25.8435 21.3562 25.8291C21.3801 25.8219 21.4039 25.8132 21.4278 25.8031C21.8657 25.5997 22.4665 25.578 22.9143 25.7613C23.3241 25.9287 23.6526 26.2778 23.8196 26.6948C23.9824 27.1017 24.0274 27.6081 23.8 27.9991C23.7214 28.1347 23.5796 28.266 23.3901 28.3295C23.1711 28.4031 22.9437 28.4219 22.7164 28.4464C22.6644 28.4522 22.6153 28.4666 22.5704 28.4882C21.2074 28.9932 19.961 29.9239 19.3644 31.3191C18.7707 32.7071 18.6767 34.375 19.0037 35.8481C19.3209 37.278 20.1603 38.4769 21.2973 39.3441C22.2967 40.1045 23.5038 40.5474 24.7222 40.7624C25.7651 40.9471 26.8234 40.9846 27.8762 40.9254C27.7625 41.0293 27.6488 41.1346 27.5379 41.2414C27.1056 41.6584 26.6971 42.0985 26.3013 42.5501C24.0905 42.2875 21.95 41.3857 20.2136 39.9515C19.7055 39.5317 19.2325 39.07 18.7932 38.5751C18.4886 38.2317 17.9931 38.7424 18.2963 39.0858C19.9119 40.9081 22.0159 42.2456 24.3319 42.8935C24.7994 43.0247 25.2724 43.1229 25.751 43.1979C25.4507 43.56 25.1573 43.9265 24.8667 44.2973C24.6506 44.4301 24.426 44.5498 24.1972 44.6566C23.3101 44.5729 22.4539 44.2973 21.6594 43.8717C20.726 43.3725 19.8347 42.7376 19.0402 42.0278C18.2654 41.3352 17.5804 40.5373 17.0919 39.6038C16.5796 38.6227 16.3059 37.5204 16.1796 36.4195C16.0308 35.1152 16.056 33.7979 16.0883 32.4878C16.0996 32.0232 15.3977 32.0232 15.3865 32.4878C15.3276 34.8843 15.2981 37.3891 16.3101 39.6067C17.2505 41.667 19.0992 43.2065 20.9857 44.3132C21.5738 44.658 22.1928 44.9336 22.8357 45.1226C21.8868 45.3405 20.893 45.3607 19.9315 45.1818C18.8212 44.9769 17.7924 44.5383 16.8505 43.9381C16.8407 43.9236 16.8323 43.9092 16.8196 43.8948C15.7009 42.6107 14.9317 41.0409 14.5738 39.3585C14.4769 38.9055 13.8004 39.0974 13.8972 39.5504C14.1092 40.5489 14.4643 41.5069 14.9401 42.3986C14.3197 41.7983 13.7372 41.1592 13.1589 40.5171C12.8515 40.1766 12.356 40.6874 12.662 41.0279C13.9337 42.4361 15.2405 43.8674 16.8912 44.8124C18.518 45.7445 20.4172 46.2033 22.2728 45.9537C22.8188 45.8801 23.3536 45.7503 23.8701 45.5656C23.4013 46.16 22.9283 46.7501 22.43 47.3201C21.9036 47.9217 21.3506 48.5335 20.639 48.9043C19.8262 49.3256 18.8746 49.2823 18.0197 49.0269C17.099 48.7513 16.289 48.2074 15.4763 47.701C15.3725 47.636 15.27 47.6346 15.1844 47.6721C14.3211 47.9924 13.3456 47.978 12.4599 47.7572C11.5854 47.5394 10.8499 46.9088 10.2211 46.2769C10.1776 46.2336 10.1312 46.2062 10.0849 46.1903C10.0218 46.1629 9.94597 46.1557 9.85894 46.1845C9.54874 46.2855 9.21326 46.2408 8.92832 46.0792C8.60689 45.8974 8.42161 45.5872 8.33037 45.2279C8.10719 44.3464 8.51284 43.4691 8.93394 42.7246C9.07711 42.4707 8.88762 42.2326 8.67146 42.1922C8.58443 42.1533 8.48056 42.1475 8.37248 42.2038C8.05666 42.3683 7.60609 42.4967 7.25377 42.3841C6.92391 42.2774 6.96743 41.7738 7.02217 41.5011C7.1092 41.0755 7.31694 40.6975 7.5345 40.3281C7.79137 39.8953 8.05385 39.4653 8.31493 39.0339C8.55355 38.6385 7.94717 38.275 7.70855 38.6703C7.39975 39.1839 7.07551 39.6904 6.78495 40.2141C6.50844 40.7119 6.27964 41.2688 6.28806 41.8517C6.29508 42.4115 6.54914 42.9598 7.12043 43.094C7.39273 43.1575 7.67767 43.1517 7.9556 43.0998C7.6117 43.8847 7.4194 44.7475 7.70294 45.5858C7.86997 46.0778 8.17878 46.5049 8.64058 46.7386C8.89323 46.867 9.16975 46.9435 9.45048 46.9565C9.4196 47.0142 9.38872 47.0719 9.35363 47.1282C9.341 47.1484 9.21467 47.3518 9.19642 47.3648C9.20625 47.3532 9.23432 47.3143 9.19361 47.3677C9.17958 47.385 9.16694 47.4023 9.15291 47.4182C9.12343 47.4557 9.09115 47.4917 9.06027 47.5278C8.93955 47.6649 8.80761 47.7875 8.66865 47.9044C8.66724 47.9044 8.66725 47.9058 8.66725 47.9058C8.64619 47.9217 8.62654 47.9376 8.60548 47.952C8.57039 47.978 8.5353 48.0025 8.49881 48.0256C8.4202 48.079 8.33879 48.128 8.25598 48.1728C8.09456 48.2622 8.02999 48.5061 8.12965 48.6662C8.23633 48.835 8.43705 48.8913 8.6097 48.7961C9.27362 48.431 9.79297 47.8568 10.1284 47.1729C10.7517 47.7442 11.4661 48.2507 12.276 48.4527C13.0284 48.6402 13.8523 48.7037 14.6299 48.5681C13.8846 49.8768 12.7813 50.9257 11.6977 51.9472C11.3637 52.2617 11.8619 52.7711 12.1946 52.458C13.4284 51.2965 14.6931 50.0831 15.4525 48.5291C16.0855 48.923 16.7228 49.3112 17.419 49.581C18.2359 49.8969 19.13 50.0311 19.9947 49.8782C20.8088 49.7339 21.512 49.2708 22.1114 48.7037C22.7486 48.1021 23.3073 47.4052 23.8589 46.7213C24.2323 46.2581 24.6014 45.7834 24.972 45.3073C24.9832 45.2958 24.9917 45.2828 25.0001 45.2712C26.7252 43.0594 28.5148 40.8187 31.0358 39.5793C32.657 38.7828 34.5673 38.5087 36.2854 39.1262C36.4637 39.1912 36.6686 39.0526 36.7177 38.8737C36.7711 38.6746 36.6518 38.4943 36.4721 38.4293C36.2124 38.3356 35.9485 38.2634 35.6804 38.2071C36.6756 37.6632 37.5403 36.8567 38.3039 36.0184C39.3959 34.8165 40.4795 33.4256 42.0207 32.8239C42.8896 32.4834 43.8174 32.4589 44.6862 32.8167C44.734 32.8369 44.7831 32.8384 44.8308 32.8297C44.9417 32.8355 45.054 32.785 45.127 32.6551C45.5032 31.977 46.1545 31.5023 46.9012 31.3624C47.6718 31.2166 48.4887 31.4864 49.0502 32.0405C49.0544 32.0448 49.0586 32.0477 49.0628 32.0506C49.0656 32.0549 49.0684 32.0578 49.0726 32.0621C49.1962 32.1891 49.4502 32.2151 49.5695 32.0621C49.5948 32.0289 49.6215 31.9986 49.6509 31.9698C49.6636 31.9568 49.6762 31.9453 49.6902 31.9337C49.6706 31.9481 49.6706 31.9481 49.6902 31.9337C49.7562 31.8847 49.8278 31.8471 49.8994 31.8082C49.9359 31.788 49.9906 31.7678 50.0608 31.7433C50.1296 31.7202 50.1998 31.6985 50.2699 31.6812C50.5423 31.6134 50.8454 31.6855 51.0363 31.8832C51.049 31.8962 51.1009 31.9554 51.0953 31.9467C51.0939 31.9438 51.1416 32.0145 51.1542 32.0347C51.1739 32.0679 51.1921 32.1011 51.209 32.1357C51.2118 32.1415 51.2357 32.1963 51.2399 32.2035C51.2665 32.2713 51.2876 32.3435 51.3044 32.4142C51.3129 32.4517 51.3199 32.4906 51.3283 32.5282C51.3311 32.5469 51.3325 32.5585 51.3339 32.5628C51.3353 32.5772 51.3367 32.5916 51.3381 32.6046C51.3732 33.0202 51.2834 33.4256 51.1949 33.8282C51.1528 34.0186 51.2511 34.2192 51.4406 34.2725C51.6174 34.323 51.8308 34.2119 51.8729 34.02C51.9459 33.6882 52.0147 33.3232 52.0329 32.961C52.1059 32.9408 52.1789 32.9221 52.2547 32.9062C52.2673 32.9033 52.28 32.9019 52.2926 32.899C52.2701 32.9019 52.2716 32.9004 52.2954 32.899C52.3277 32.8946 52.36 32.8918 52.3923 32.8903C52.4582 32.886 52.5242 32.8845 52.5902 32.8874C52.6309 32.8889 52.6716 32.8918 52.7109 32.8961C52.7235 32.8975 52.7348 32.899 52.7474 32.9004C52.7488 32.9004 52.7488 32.9004 52.7502 32.9004C52.812 32.9105 52.8737 32.9249 52.9341 32.9423C52.9846 32.9567 53.0337 32.974 53.0815 32.9942C53.0941 33 53.1362 33.0202 53.1376 33.0216C53.1629 33.0346 53.1881 33.049 53.212 33.0634C53.2373 33.0779 53.2611 33.0937 53.285 33.1096C53.2892 33.1125 53.3173 33.1341 53.3313 33.1442C53.3439 33.1558 53.372 33.1789 53.3748 33.1818C53.4001 33.2048 53.4239 33.2294 53.4478 33.2553C53.4506 33.2582 53.4717 33.2828 53.4843 33.2972C53.4927 33.3087 53.518 33.3434 53.5208 33.3477C53.539 33.3765 53.5573 33.4068 53.5727 33.4386C53.5755 33.4429 53.5896 33.4747 53.598 33.4905C53.6036 33.5064 53.6176 33.5425 53.6191 33.5468C53.6303 33.58 53.6387 33.6146 53.6471 33.6492C53.6499 33.6651 53.6527 33.6795 53.6555 33.6954C53.6527 33.6896 53.6612 33.756 53.6612 33.7618C53.6626 33.7906 53.6626 33.8195 53.6612 33.8483C53.6612 33.8613 53.6583 33.883 53.6583 33.8916C53.6471 33.9551 53.6303 34.0157 53.6078 34.0749C53.5545 34.2192 53.6373 34.3952 53.7636 34.4774C53.765 34.4789 53.7664 34.4789 53.7678 34.4803C53.7805 34.4875 53.7931 34.4947 53.8057 34.5005C53.8717 34.5323 53.9503 34.5438 54.0401 34.5178C54.1272 34.4933 54.2282 34.4875 54.3195 34.5077C54.4472 34.5351 54.5483 34.5755 54.6563 34.639C54.8711 34.766 55.0311 34.9536 55.142 35.1945C55.2992 35.535 55.3301 35.9159 55.3133 36.2954C54.8669 35.9852 54.2998 35.8467 53.7678 35.9188C53.2611 35.9881 52.8077 36.2651 52.4877 36.659C52.4386 36.5739 52.3852 36.4916 52.3235 36.4123C52.0877 36.1122 51.7564 35.8799 51.3943 35.7716C51.4308 35.5797 51.428 35.3792 51.3887 35.1887C51.3157 34.828 51.0855 34.5279 50.7963 34.3202C50.2335 33.9162 49.4797 33.9811 48.9056 34.3245C48.7723 34.2379 48.6277 34.1701 48.4733 34.1254C47.6774 33.8931 46.9026 34.2552 46.226 34.6563C45.8344 34.8886 46.1881 35.5119 46.5798 35.2796C46.8521 35.118 47.1272 34.9593 47.4276 34.8627C47.6914 34.7775 47.9511 34.7415 48.2038 34.8006C48.4298 34.8526 48.6207 34.9463 48.7526 35.1483C48.9042 35.3792 48.9393 35.6548 48.9393 35.9275C48.9407 36.3921 49.6425 36.3921 49.6411 35.9275C49.6411 35.5653 49.5808 35.1873 49.4067 34.8684C49.4123 34.8655 49.4179 34.8627 49.4221 34.8612C49.4249 34.8598 49.4278 34.8583 49.4334 34.8569C49.5036 34.8295 49.5737 34.8064 49.6467 34.7891C49.6734 34.7833 49.7001 34.7775 49.7281 34.7732C49.7352 34.7732 49.7787 34.766 49.7899 34.766C49.8587 34.7617 49.9261 34.7631 49.9948 34.7674C50.0019 34.7674 50.0061 34.7674 50.0103 34.7674C50.0131 34.7689 50.0159 34.7689 50.0201 34.7689C50.0496 34.7746 50.0791 34.7804 50.1071 34.7876C50.1591 34.8006 50.2082 34.8179 50.2587 34.8381C50.2728 34.8439 50.2952 34.8554 50.3022 34.8598C50.3331 34.8756 50.3626 34.8944 50.3921 34.9132C50.3963 34.916 50.4201 34.9319 50.4356 34.942C50.4454 34.9507 50.4805 34.9795 50.4861 34.9839C50.5086 35.0041 50.5296 35.0257 50.5493 35.0473C50.5563 35.056 50.5872 35.095 50.5942 35.1022C50.6223 35.1455 50.6475 35.1902 50.6714 35.2364C50.6742 35.2407 50.6742 35.2421 50.6756 35.245C50.677 35.2493 50.6784 35.2551 50.6798 35.2638C50.6882 35.2941 50.6981 35.3215 50.7051 35.3518C50.7065 35.359 50.7135 35.3994 50.7163 35.4095C50.7177 35.4297 50.7205 35.4484 50.7205 35.4686C50.7219 35.4989 50.7205 35.5292 50.7191 35.561C50.7177 35.5754 50.7163 35.5913 50.7135 35.6028C50.7037 35.6476 50.6924 35.6908 50.6784 35.7341C50.6728 35.7442 50.6531 35.7875 50.6475 35.7976C50.6307 35.8279 50.611 35.8568 50.59 35.8856C50.5409 35.9549 50.531 36.0443 50.5479 36.1295C50.5493 36.1338 50.5493 36.1381 50.5507 36.1424C50.5549 36.1583 50.5591 36.1742 50.5647 36.1901C50.5675 36.1973 50.5689 36.2045 50.5717 36.2103C50.5802 36.229 50.59 36.2478 50.5998 36.2651C50.5998 36.2665 50.6012 36.2665 50.6012 36.268C50.6251 36.3055 50.6545 36.3372 50.6882 36.3603C50.6938 36.3646 50.6995 36.369 50.7051 36.3733C50.7079 36.3747 50.7107 36.3776 50.7135 36.3791C50.7163 36.3805 50.7191 36.3805 50.7219 36.382C50.7725 36.4123 50.83 36.431 50.8904 36.4281C51.5108 36.3993 52.0722 37.0182 52.0442 37.6502C52.0315 37.9287 51.894 38.2432 51.689 38.4582C51.4701 38.6905 51.1725 38.8218 50.8623 38.8304C50.4945 38.8405 50.1282 38.7107 49.8531 38.451C49.7632 38.3658 49.6425 38.3327 49.5302 38.3558C49.4699 38.3659 49.4123 38.3961 49.3618 38.4466C49.3604 38.4481 49.359 38.4495 49.3576 38.451C49.3576 38.451 49.3576 38.4524 49.3562 38.4524C49.3463 38.4625 49.3379 38.4755 49.3295 38.487C49.3239 38.4957 49.3169 38.5029 49.3113 38.5116C49.3085 38.5159 49.3056 38.5188 49.3028 38.5246C48.2978 40.256 47.2086 42.9771 48.9365 44.6292C50.5226 46.1456 52.9972 45.681 54.7967 44.8672C55.827 44.4027 56.766 43.726 57.5535 42.9007C57.8791 42.5674 57.3836 42.0566 57.0664 42.3899Z" fill="white"/>
<path d="M57.0664 42.3899C55.8158 43.7029 54.1342 44.6119 52.3544 44.8499C51.4476 44.9711 50.4903 44.8846 49.7183 44.3449C49.3955 44.1184 49.1288 43.8125 48.9547 43.4533C48.7484 43.0247 48.7245 42.527 48.761 42.0581C48.8396 41.0452 49.2411 40.1073 49.7225 39.2315C50.451 39.6774 51.4013 39.663 52.075 39.0815C52.4231 38.7814 52.666 38.3298 52.7305 37.8681C52.7376 37.819 52.7404 37.7714 52.7432 37.7223C52.8709 37.164 53.3145 36.7023 53.8675 36.6272C54.3728 36.558 54.982 36.786 55.2697 37.2433C55.2852 37.2736 55.3048 37.301 55.3273 37.3256C55.3764 37.3847 55.4368 37.4194 55.4985 37.4338C55.5294 37.4439 55.5603 37.4497 55.5912 37.4497C55.7133 37.4497 55.8031 37.3919 55.8635 37.3054C55.9196 37.2404 55.9519 37.1568 55.9449 37.0644C56.0403 36.2694 56.0979 35.4239 55.6894 34.7039C55.4199 34.2278 54.9118 33.8484 54.37 33.7834C54.363 33.2611 54.0612 32.7605 53.6303 32.4748C53.146 32.1545 52.5439 32.1054 51.9894 32.2309C51.9178 31.889 51.7648 31.5745 51.4841 31.3205C51.1135 30.9858 50.6223 30.8703 50.1422 30.9728C49.8629 31.0334 49.5597 31.1445 49.3169 31.3234C48.6024 30.7434 47.6774 30.5024 46.7707 30.6583C45.9271 30.8025 45.1607 31.3292 44.675 32.0491C43.9128 31.7851 43.0819 31.7678 42.3042 31.9756C41.5028 32.1891 40.7785 32.6248 40.1286 33.1442C38.7769 34.2249 37.8224 35.7356 36.4749 36.8177C35.7604 37.3905 34.9365 37.8695 34.0466 38.0701C33.2255 38.1004 32.4071 38.2706 31.6351 38.5505C30.6217 38.9185 29.6897 39.4696 28.832 40.129C26.6171 40.3699 24.186 40.2978 22.2195 39.1075C21.1934 38.487 20.3077 37.5391 19.8908 36.3791C19.4248 35.0834 19.4094 33.5656 19.7841 32.2425C19.9947 31.5009 20.368 30.8429 20.9169 30.3134C21.4559 29.7926 22.1198 29.4174 22.8146 29.1664C22.8202 29.1649 22.8258 29.1606 22.8314 29.1592C23.2876 29.1087 23.748 29.0481 24.113 28.7321C24.12 28.7263 24.1256 28.7191 24.1326 28.7133C24.4358 28.8749 24.6379 29.2212 24.6632 29.6021C24.6997 30.1475 24.4611 30.6381 24.1551 31.068C24.0428 31.2253 24.1298 31.4706 24.2814 31.5615C24.3319 31.5918 24.3825 31.6062 24.433 31.6091C24.4821 31.6192 24.5327 31.6177 24.5818 31.5975C25.5377 31.2296 26.5652 30.7304 27.2249 29.8993C27.5491 29.491 27.7274 29.0105 27.7035 28.4781C27.6839 28.0511 27.5617 27.6341 27.3722 27.2532C27.7639 26.8376 27.9702 26.2446 27.754 25.6733C27.6277 25.3414 27.3975 25.0803 27.0803 24.9302C26.8683 24.8292 26.6395 24.7672 26.4079 24.7455C26.4093 24.5868 26.4023 24.4296 26.3743 24.2708C26.3251 23.9938 26.189 23.7327 25.9953 23.535C25.6654 23.1988 25.1966 23.0618 24.7446 23.118C24.6 22.7227 24.3572 22.3894 24.0007 22.1456C23.5291 21.8224 22.9508 21.668 22.3921 21.6045C21.8391 21.5425 21.279 21.6016 20.7695 21.8382C20.3358 22.0388 19.9273 22.336 19.5876 22.6794C19.575 22.6794 19.5624 22.6794 19.5511 22.6794C18.6331 22.6794 17.7081 22.7717 16.8154 22.9925C15.2181 23.3893 13.719 24.2405 12.6747 25.5622C12.0711 26.3269 11.6051 27.1839 11.1461 28.0453C11.1461 28.0467 11.1461 28.0467 11.1447 28.0482C9.98667 28.4132 8.93534 29.1808 8.10859 30.0753C6.79478 31.4965 5.90206 33.2452 4.74405 34.7905C4.11803 35.6259 3.40076 36.4065 2.53471 36.9793C2.15573 37.2303 2.50804 37.8551 2.88843 37.6026C4.4535 36.5666 5.52167 34.9766 6.53791 33.4126C7.54714 31.8601 8.59145 30.2283 10.1944 29.263C11.0464 28.7494 12.0107 28.4623 13.0017 28.5618C13.1912 28.5806 13.3526 28.3829 13.3526 28.2011C13.3526 27.9905 13.1912 27.8592 13.0017 27.8404C12.6817 27.8072 12.3645 27.8144 12.0528 27.8505C12.7126 26.6501 13.4509 25.5059 14.6005 24.7325C15.9311 23.8366 17.5144 23.4629 19.0879 23.4066C19.9863 23.3748 20.9646 23.3763 21.804 23.7529C21.978 23.8308 22.1802 23.8048 22.284 23.623C22.3711 23.4701 22.3332 23.2075 22.1577 23.1296C21.6706 22.9103 21.1597 22.7934 20.639 22.7328C20.7639 22.6505 20.8902 22.5726 21.0235 22.5048C21.4096 22.31 21.8391 22.2769 22.2616 22.31C22.7009 22.3447 23.1613 22.4687 23.5431 22.6996C23.8982 22.9146 24.0723 23.2262 24.1607 23.6331C24.193 23.7832 24.2898 23.8611 24.3993 23.8842C24.4597 23.9058 24.5257 23.9087 24.5916 23.8856C24.6436 23.8669 24.6955 23.851 24.7488 23.8394C24.7713 23.8337 24.805 23.8207 24.8288 23.8236C24.7811 23.8293 24.7769 23.8308 24.8162 23.825C24.8302 23.8236 24.8429 23.8221 24.8569 23.8221C24.9117 23.8178 24.9664 23.8178 25.0197 23.8221C25.0282 23.8221 25.0731 23.8293 25.0815 23.8293C25.0955 23.8322 25.111 23.8351 25.1138 23.8366C25.1334 23.8409 25.2696 23.8669 25.2752 23.8871C25.2612 23.8813 25.2485 23.8755 25.2345 23.8697C25.2485 23.8755 25.2626 23.8827 25.2766 23.8899C25.2977 23.9 25.3187 23.9116 25.3384 23.9246C25.358 23.9375 25.3791 23.9491 25.3987 23.9621C25.4057 23.9664 25.4114 23.9707 25.4184 23.9751C25.4493 23.9981 25.4436 23.9938 25.4043 23.9621C25.438 23.9722 25.4843 24.0328 25.5082 24.0587C25.525 24.0761 25.5391 24.0948 25.5559 24.1121C25.5573 24.1136 25.5573 24.1136 25.5573 24.115C25.5826 24.1554 25.6065 24.1973 25.6289 24.2391C25.6317 24.2434 25.6331 24.2449 25.6345 24.2478C25.6345 24.2492 25.6345 24.2492 25.6345 24.2492C25.643 24.2752 25.6528 24.2997 25.6598 24.3257C25.6752 24.3776 25.6851 24.431 25.6949 24.4844C25.6949 24.4858 25.6949 24.4858 25.6949 24.4873C25.6949 24.4902 25.6949 24.4916 25.6949 24.4974C25.6963 24.5248 25.6991 24.5522 25.7005 24.5796C25.7033 24.6344 25.7033 24.6907 25.7019 24.7455C25.7005 24.8393 25.6935 24.9345 25.6865 25.0283C25.6823 25.0529 25.6794 25.0788 25.6809 25.1048C25.6724 25.2044 25.7216 25.2996 25.7945 25.3674C25.8563 25.4338 25.9377 25.4756 26.0318 25.4655C26.1567 25.4525 26.2802 25.4525 26.4051 25.4655C26.4178 25.4684 26.4486 25.4727 26.4585 25.4742C26.4908 25.4814 26.523 25.4886 26.5553 25.4972C26.6129 25.5131 26.669 25.5333 26.7252 25.5535C26.7378 25.5593 26.749 25.5651 26.7617 25.5708C26.7911 25.5853 26.8192 25.6011 26.8459 25.6184C26.8683 25.6329 26.8908 25.6473 26.9133 25.6617C26.9175 25.6646 26.9203 25.6661 26.9231 25.6675C26.9259 25.6704 26.9273 25.6733 26.9329 25.679C26.9526 25.7007 26.9736 25.7209 26.9933 25.7425C26.9975 25.7469 27.0003 25.7497 27.0031 25.7526C27.0045 25.7555 27.0059 25.7584 27.0101 25.7642C27.0368 25.8075 27.062 25.8522 27.0831 25.8984C27.0859 25.907 27.0943 25.9301 27.0985 25.946C27.107 25.9748 27.114 26.0037 27.121 26.0325C27.1224 26.0383 27.1252 26.0614 27.128 26.0773C27.1294 26.096 27.1308 26.1249 27.1308 26.1307C27.1322 26.161 27.1308 26.1913 27.1294 26.2201C27.1294 26.2302 27.128 26.2389 27.128 26.2446C27.1182 26.3009 27.1041 26.3572 27.0859 26.412C27.0803 26.4293 27.062 26.4683 27.0648 26.4639C27.055 26.4841 27.0452 26.5058 27.034 26.526C27.0185 26.5534 27.0031 26.5808 26.9862 26.6068C26.9834 26.6111 26.9624 26.64 26.954 26.6515C26.9189 26.6948 26.8824 26.7366 26.8417 26.7756C26.8234 26.7944 26.8024 26.8102 26.7841 26.829C26.7799 26.8333 26.7757 26.8362 26.7743 26.8376C26.7645 26.8449 26.7546 26.8521 26.7448 26.8593C26.7111 26.8838 26.6831 26.9127 26.6564 26.9458C26.5764 27.0324 26.5371 27.1551 26.5862 27.2864C26.5946 27.3094 26.6045 27.3311 26.6185 27.3527C26.822 27.6889 26.9764 28.0713 26.9947 28.4709C27.0129 28.8792 26.8768 29.2198 26.6059 29.5184C26.2184 29.9455 25.7328 30.2687 25.2191 30.5284C25.3398 30.1691 25.3903 29.7882 25.337 29.3987C25.2626 28.8634 24.965 28.38 24.5214 28.1088C24.6127 27.8678 24.6548 27.6038 24.652 27.3527C24.6407 26.2836 23.9389 25.2909 22.9283 25.0052C22.4525 24.8711 21.9177 24.8956 21.4362 25.0413C21.3618 24.9216 21.2622 24.8162 21.1372 24.7268C20.9071 24.5623 20.6277 24.4887 20.3526 24.4613C19.9245 24.4209 19.4978 24.5421 19.1371 24.7729C18.7412 24.4512 18.2219 24.2824 17.718 24.3444C17.1102 24.4209 16.5684 24.7773 16.2526 25.3183C16.1543 25.4857 16.2161 25.7137 16.3789 25.8118C16.5445 25.9113 16.7607 25.8493 16.8589 25.6819C16.9516 25.5218 17.0976 25.3645 17.2421 25.2678C17.2899 25.2361 17.339 25.2058 17.3909 25.1798C17.4106 25.1697 17.4316 25.1596 17.4513 25.1495C17.4569 25.1466 17.4751 25.1394 17.4807 25.138C17.5341 25.1192 17.5888 25.1005 17.6436 25.086C17.6688 25.0803 17.6927 25.0745 17.718 25.0687C17.7236 25.0673 17.7601 25.0615 17.7699 25.0601C17.9959 25.0341 18.1475 25.0586 18.3552 25.1322C18.5307 25.1957 18.7033 25.3169 18.8479 25.4727C18.9139 25.5449 19.0065 25.578 19.0991 25.5766C19.1946 25.5824 19.29 25.5492 19.3715 25.477C19.3855 25.4655 19.3995 25.4525 19.4136 25.441C19.4178 25.4381 19.4276 25.4309 19.4346 25.4266C19.4725 25.4006 19.5104 25.3746 19.5497 25.3515C19.5932 25.3256 19.6396 25.3025 19.6859 25.2808C19.6873 25.2808 19.6873 25.2808 19.6873 25.2794C19.6901 25.2779 19.6915 25.2779 19.6957 25.2765C19.7168 25.2678 19.7378 25.2606 19.7603 25.2534C19.8473 25.2231 19.9343 25.2058 20.0242 25.1856C20.0256 25.1856 20.0256 25.1856 20.0284 25.1842C20.0298 25.1842 20.0312 25.1842 20.0326 25.1842C20.055 25.1827 20.0775 25.1798 20.1 25.1784C20.1505 25.1755 20.2024 25.1741 20.2529 25.1755C20.2923 25.1769 20.3316 25.1798 20.3709 25.1842C20.3737 25.1856 20.4452 25.1986 20.4621 25.2029C20.507 25.2145 20.5505 25.2274 20.594 25.2433C20.6025 25.2462 20.6137 25.2505 20.6193 25.252C20.6361 25.2592 20.653 25.2678 20.6684 25.2765C20.7049 25.2953 20.7386 25.3183 20.7723 25.3414C20.7793 25.3472 20.7919 25.3587 20.8004 25.366C20.8158 25.3804 20.8298 25.3963 20.8439 25.4136C20.8439 25.4136 20.8439 25.4136 20.8453 25.415C20.8467 25.4165 20.8467 25.4165 20.8481 25.4193C20.8593 25.4381 20.8677 25.4583 20.8804 25.4756C20.8804 25.4756 20.8804 25.4756 20.8818 25.477C20.8818 25.4785 20.8818 25.4785 20.8818 25.4785C20.8846 25.4929 20.9014 25.5665 20.8916 25.4929C20.8958 25.5304 20.9056 25.5665 20.9183 25.6026C20.9197 25.6083 20.9225 25.6141 20.9239 25.6199C20.9267 25.6285 20.9309 25.6372 20.9351 25.6444C20.9393 25.6545 20.9421 25.6646 20.9478 25.6733C20.9492 25.6762 20.952 25.679 20.9548 25.6834C21.0137 25.7873 21.1106 25.8608 21.2439 25.8551C21.2804 25.8536 21.3197 25.8435 21.3562 25.8291C21.3801 25.8219 21.4039 25.8132 21.4278 25.8031C21.8657 25.5997 22.4665 25.578 22.9143 25.7613C23.3241 25.9287 23.6526 26.2778 23.8196 26.6948C23.9824 27.1017 24.0274 27.6081 23.8 27.9991C23.7214 28.1347 23.5796 28.266 23.3901 28.3295C23.1711 28.4031 22.9437 28.4219 22.7164 28.4464C22.6644 28.4522 22.6153 28.4666 22.5704 28.4882C21.2074 28.9932 19.961 29.9239 19.3644 31.3191C18.7707 32.7071 18.6767 34.375 19.0037 35.8481C19.3209 37.278 20.1603 38.4769 21.2973 39.3441C22.2967 40.1045 23.5038 40.5474 24.7222 40.7624C25.7651 40.9471 26.8234 40.9846 27.8762 40.9254C27.7625 41.0293 27.6488 41.1346 27.5379 41.2414C27.1056 41.6584 26.6971 42.0985 26.3013 42.5501C24.0905 42.2875 21.95 41.3857 20.2136 39.9515C19.7055 39.5317 19.2325 39.07 18.7932 38.5751C18.4886 38.2317 17.9931 38.7424 18.2963 39.0858C19.9119 40.9081 22.0159 42.2456 24.3319 42.8935C24.7994 43.0247 25.2724 43.1229 25.751 43.1979C25.4507 43.56 25.1573 43.9265 24.8667 44.2973C24.6506 44.4301 24.426 44.5498 24.1972 44.6566C23.3101 44.5729 22.4539 44.2973 21.6594 43.8717C20.726 43.3725 19.8347 42.7376 19.0402 42.0278C18.2654 41.3352 17.5804 40.5373 17.0919 39.6038C16.5796 38.6227 16.3059 37.5204 16.1796 36.4195C16.0308 35.1152 16.056 33.7979 16.0883 32.4878C16.0996 32.0232 15.3977 32.0232 15.3865 32.4878C15.3276 34.8843 15.2981 37.3891 16.3101 39.6067C17.2505 41.667 19.0992 43.2065 20.9857 44.3132C21.5738 44.658 22.1928 44.9336 22.8357 45.1226C21.8868 45.3405 20.893 45.3607 19.9315 45.1818C18.8212 44.9769 17.7924 44.5383 16.8505 43.9381C16.8407 43.9236 16.8323 43.9092 16.8196 43.8948C15.7009 42.6107 14.9317 41.0409 14.5738 39.3585C14.4769 38.9055 13.8004 39.0974 13.8972 39.5504C14.1092 40.5489 14.4643 41.5069 14.9401 42.3986C14.3197 41.7983 13.7372 41.1592 13.1589 40.5171C12.8515 40.1766 12.356 40.6874 12.662 41.0279C13.9337 42.4361 15.2405 43.8674 16.8912 44.8124C18.518 45.7445 20.4172 46.2033 22.2728 45.9537C22.8188 45.8801 23.3536 45.7503 23.8701 45.5656C23.4013 46.16 22.9283 46.7501 22.43 47.3201C21.9036 47.9217 21.3506 48.5335 20.639 48.9043C19.8262 49.3256 18.8746 49.2823 18.0197 49.0269C17.099 48.7513 16.289 48.2074 15.4763 47.701C15.3725 47.636 15.27 47.6346 15.1844 47.6721C14.3211 47.9924 13.3456 47.978 12.4599 47.7572C11.5854 47.5394 10.8499 46.9088 10.2211 46.2769C10.1776 46.2336 10.1312 46.2062 10.0849 46.1903C10.0218 46.1629 9.94597 46.1557 9.85894 46.1845C9.54874 46.2855 9.21326 46.2408 8.92832 46.0792C8.60689 45.8974 8.42161 45.5872 8.33037 45.2279C8.10719 44.3464 8.51284 43.4691 8.93394 42.7246C9.07711 42.4707 8.88762 42.2326 8.67146 42.1922C8.58443 42.1533 8.48056 42.1475 8.37248 42.2038C8.05666 42.3683 7.60609 42.4967 7.25377 42.3841C6.92391 42.2774 6.96743 41.7738 7.02217 41.5011C7.1092 41.0755 7.31694 40.6975 7.5345 40.3281C7.79137 39.8953 8.05385 39.4653 8.31493 39.0339C8.55355 38.6385 7.94717 38.275 7.70855 38.6703C7.39975 39.1839 7.07551 39.6904 6.78495 40.2141C6.50844 40.7119 6.27964 41.2688 6.28806 41.8517C6.29508 42.4115 6.54914 42.9598 7.12043 43.094C7.39273 43.1575 7.67767 43.1517 7.9556 43.0998C7.6117 43.8847 7.4194 44.7475 7.70294 45.5858C7.86997 46.0778 8.17878 46.5049 8.64058 46.7386C8.89323 46.867 9.16975 46.9435 9.45048 46.9565C9.4196 47.0142 9.38872 47.0719 9.35363 47.1282C9.341 47.1484 9.21467 47.3518 9.19642 47.3648C9.20625 47.3532 9.23432 47.3143 9.19361 47.3677C9.17958 47.385 9.16694 47.4023 9.15291 47.4182C9.12343 47.4557 9.09115 47.4917 9.06027 47.5278C8.93955 47.6649 8.80761 47.7875 8.66865 47.9044C8.66724 47.9044 8.66725 47.9058 8.66725 47.9058C8.64619 47.9217 8.62654 47.9376 8.60548 47.952C8.57039 47.978 8.5353 48.0025 8.49881 48.0256C8.4202 48.079 8.33879 48.128 8.25598 48.1728C8.09456 48.2622 8.02999 48.5061 8.12965 48.6662C8.23633 48.835 8.43705 48.8913 8.6097 48.7961C9.27362 48.431 9.79297 47.8568 10.1284 47.1729C10.7517 47.7442 11.4661 48.2507 12.276 48.4527C13.0284 48.6402 13.8523 48.7037 14.6299 48.5681C13.8846 49.8768 12.7813 50.9257 11.6977 51.9472C11.3637 52.2617 11.8619 52.7711 12.1946 52.458C13.4284 51.2965 14.6931 50.0831 15.4525 48.5291C16.0855 48.923 16.7228 49.3112 17.419 49.581C18.2359 49.8969 19.13 50.0311 19.9947 49.8782C20.8088 49.7339 21.512 49.2708 22.1114 48.7037C22.7486 48.1021 23.3073 47.4052 23.8589 46.7213C24.2323 46.2581 24.6014 45.7834 24.972 45.3073C24.9832 45.2958 24.9917 45.2828 25.0001 45.2712C26.7252 43.0594 28.5148 40.8187 31.0358 39.5793C32.657 38.7828 34.5673 38.5087 36.2854 39.1262C36.4637 39.1912 36.6686 39.0526 36.7177 38.8737C36.7711 38.6746 36.6518 38.4943 36.4721 38.4293C36.2124 38.3356 35.9485 38.2634 35.6804 38.2071C36.6756 37.6632 37.5403 36.8567 38.3039 36.0184C39.3959 34.8165 40.4795 33.4256 42.0207 32.8239C42.8896 32.4834 43.8174 32.4589 44.6862 32.8167C44.734 32.8369 44.7831 32.8384 44.8308 32.8297C44.9417 32.8355 45.054 32.785 45.127 32.6551C45.5032 31.977 46.1545 31.5023 46.9012 31.3624C47.6718 31.2166 48.4887 31.4864 49.0502 32.0405C49.0544 32.0448 49.0586 32.0477 49.0628 32.0506C49.0656 32.0549 49.0684 32.0578 49.0726 32.0621C49.1962 32.1891 49.4502 32.2151 49.5695 32.0621C49.5948 32.0289 49.6215 31.9986 49.6509 31.9698C49.6636 31.9568 49.6762 31.9453 49.6902 31.9337C49.6706 31.9481 49.6706 31.9481 49.6902 31.9337C49.7562 31.8847 49.8278 31.8471 49.8994 31.8082C49.9359 31.788 49.9906 31.7678 50.0608 31.7433C50.1296 31.7202 50.1998 31.6985 50.2699 31.6812C50.5423 31.6134 50.8454 31.6855 51.0363 31.8832C51.049 31.8962 51.1009 31.9554 51.0953 31.9467C51.0939 31.9438 51.1416 32.0145 51.1542 32.0347C51.1739 32.0679 51.1921 32.1011 51.209 32.1357C51.2118 32.1415 51.2357 32.1963 51.2399 32.2035C51.2665 32.2713 51.2876 32.3435 51.3044 32.4142C51.3129 32.4517 51.3199 32.4906 51.3283 32.5282C51.3311 32.5469 51.3325 32.5585 51.3339 32.5628C51.3353 32.5772 51.3367 32.5916 51.3381 32.6046C51.3732 33.0202 51.2834 33.4256 51.1949 33.8282C51.1528 34.0186 51.2511 34.2192 51.4406 34.2725C51.6174 34.323 51.8308 34.2119 51.8729 34.02C51.9459 33.6882 52.0147 33.3232 52.0329 32.961C52.1059 32.9408 52.1789 32.9221 52.2547 32.9062C52.2673 32.9033 52.28 32.9019 52.2926 32.899C52.2701 32.9019 52.2716 32.9004 52.2954 32.899C52.3277 32.8946 52.36 32.8918 52.3923 32.8903C52.4582 32.886 52.5242 32.8845 52.5902 32.8874C52.6309 32.8889 52.6716 32.8918 52.7109 32.8961C52.7235 32.8975 52.7348 32.899 52.7474 32.9004C52.7488 32.9004 52.7488 32.9004 52.7502 32.9004C52.812 32.9105 52.8737 32.9249 52.9341 32.9423C52.9846 32.9567 53.0337 32.974 53.0815 32.9942C53.0941 33 53.1362 33.0202 53.1376 33.0216C53.1629 33.0346 53.1881 33.049 53.212 33.0634C53.2373 33.0779 53.2611 33.0937 53.285 33.1096C53.2892 33.1125 53.3173 33.1341 53.3313 33.1442C53.3439 33.1558 53.372 33.1789 53.3748 33.1818C53.4001 33.2048 53.4239 33.2294 53.4478 33.2553C53.4506 33.2582 53.4717 33.2828 53.4843 33.2972C53.4927 33.3087 53.518 33.3434 53.5208 33.3477C53.539 33.3765 53.5573 33.4068 53.5727 33.4386C53.5755 33.4429 53.5896 33.4747 53.598 33.4905C53.6036 33.5064 53.6176 33.5425 53.6191 33.5468C53.6303 33.58 53.6387 33.6146 53.6471 33.6492C53.6499 33.6651 53.6527 33.6795 53.6555 33.6954C53.6527 33.6896 53.6612 33.756 53.6612 33.7618C53.6626 33.7906 53.6626 33.8195 53.6612 33.8483C53.6612 33.8613 53.6583 33.883 53.6583 33.8916C53.6471 33.9551 53.6303 34.0157 53.6078 34.0749C53.5545 34.2192 53.6373 34.3952 53.7636 34.4774C53.765 34.4789 53.7664 34.4789 53.7678 34.4803C53.7805 34.4875 53.7931 34.4947 53.8057 34.5005C53.8717 34.5323 53.9503 34.5438 54.0401 34.5178C54.1272 34.4933 54.2282 34.4875 54.3195 34.5077C54.4472 34.5351 54.5483 34.5755 54.6563 34.639C54.8711 34.766 55.0311 34.9536 55.142 35.1945C55.2992 35.535 55.3301 35.9159 55.3133 36.2954C54.8669 35.9852 54.2998 35.8467 53.7678 35.9188C53.2611 35.9881 52.8077 36.2651 52.4877 36.659C52.4386 36.5739 52.3852 36.4916 52.3235 36.4123C52.0877 36.1122 51.7564 35.8799 51.3943 35.7716C51.4308 35.5797 51.428 35.3792 51.3887 35.1887C51.3157 34.828 51.0855 34.5279 50.7963 34.3202C50.2335 33.9162 49.4797 33.9811 48.9056 34.3245C48.7723 34.2379 48.6277 34.1701 48.4733 34.1254C47.6774 33.8931 46.9026 34.2552 46.226 34.6563C45.8344 34.8886 46.1881 35.5119 46.5798 35.2796C46.8521 35.118 47.1272 34.9593 47.4276 34.8627C47.6914 34.7775 47.9511 34.7415 48.2038 34.8006C48.4298 34.8526 48.6207 34.9463 48.7526 35.1483C48.9042 35.3792 48.9393 35.6548 48.9393 35.9275C48.9407 36.3921 49.6425 36.3921 49.6411 35.9275C49.6411 35.5653 49.5808 35.1873 49.4067 34.8684C49.4123 34.8655 49.4179 34.8627 49.4221 34.8612C49.4249 34.8598 49.4278 34.8583 49.4334 34.8569C49.5036 34.8295 49.5737 34.8064 49.6467 34.7891C49.6734 34.7833 49.7001 34.7775 49.7281 34.7732C49.7352 34.7732 49.7787 34.766 49.7899 34.766C49.8587 34.7617 49.9261 34.7631 49.9948 34.7674C50.0019 34.7674 50.0061 34.7674 50.0103 34.7674C50.0131 34.7689 50.0159 34.7689 50.0201 34.7689C50.0496 34.7746 50.0791 34.7804 50.1071 34.7876C50.1591 34.8006 50.2082 34.8179 50.2587 34.8381C50.2728 34.8439 50.2952 34.8554 50.3022 34.8598C50.3331 34.8756 50.3626 34.8944 50.3921 34.9132C50.3963 34.916 50.4201 34.9319 50.4356 34.942C50.4454 34.9507 50.4805 34.9795 50.4861 34.9839C50.5086 35.0041 50.5296 35.0257 50.5493 35.0473C50.5563 35.056 50.5872 35.095 50.5942 35.1022C50.6223 35.1455 50.6475 35.1902 50.6714 35.2364C50.6742 35.2407 50.6742 35.2421 50.6756 35.245C50.677 35.2493 50.6784 35.2551 50.6798 35.2638C50.6882 35.2941 50.6981 35.3215 50.7051 35.3518C50.7065 35.359 50.7135 35.3994 50.7163 35.4095C50.7177 35.4297 50.7205 35.4484 50.7205 35.4686C50.7219 35.4989 50.7205 35.5292 50.7191 35.561C50.7177 35.5754 50.7163 35.5913 50.7135 35.6028C50.7037 35.6476 50.6924 35.6908 50.6784 35.7341C50.6728 35.7442 50.6531 35.7875 50.6475 35.7976C50.6307 35.8279 50.611 35.8568 50.59 35.8856C50.5409 35.9549 50.531 36.0443 50.5479 36.1295C50.5493 36.1338 50.5493 36.1381 50.5507 36.1424C50.5549 36.1583 50.5591 36.1742 50.5647 36.1901C50.5675 36.1973 50.5689 36.2045 50.5717 36.2103C50.5802 36.229 50.59 36.2478 50.5998 36.2651C50.5998 36.2665 50.6012 36.2665 50.6012 36.268C50.6251 36.3055 50.6545 36.3372 50.6882 36.3603C50.6938 36.3646 50.6995 36.369 50.7051 36.3733C50.7079 36.3747 50.7107 36.3776 50.7135 36.3791C50.7163 36.3805 50.7191 36.3805 50.7219 36.382C50.7725 36.4123 50.83 36.431 50.8904 36.4281C51.5108 36.3993 52.0722 37.0182 52.0442 37.6502C52.0315 37.9287 51.894 38.2432 51.689 38.4582C51.4701 38.6905 51.1725 38.8218 50.8623 38.8304C50.4945 38.8405 50.1282 38.7107 49.8531 38.451C49.7632 38.3658 49.6425 38.3327 49.5302 38.3558C49.4699 38.3659 49.4123 38.3961 49.3618 38.4466C49.3604 38.4481 49.359 38.4495 49.3576 38.451C49.3576 38.451 49.3576 38.4524 49.3562 38.4524C49.3463 38.4625 49.3379 38.4755 49.3295 38.487C49.3239 38.4957 49.3169 38.5029 49.3113 38.5116C49.3085 38.5159 49.3056 38.5188 49.3028 38.5246C48.2978 40.256 47.2086 42.9771 48.9365 44.6292C50.5226 46.1456 52.9972 45.681 54.7967 44.8672C55.827 44.4027 56.766 43.726 57.5535 42.9007C57.8791 42.5674 57.3836 42.0566 57.0664 42.3899Z" stroke="white" stroke-width="0.4" mask="url(#path-16-outside-1_1381_691)"/>
<path d="M55.5426 45.2986L55.5427 45.2986C55.6604 45.2173 55.785 45.2008 55.8968 45.2372C56.005 45.2725 56.0904 45.3536 56.1441 45.4484C56.2502 45.6358 56.2506 45.9173 56.0123 46.0815C55.9894 46.0981 55.9603 46.1162 55.9361 46.1312C55.9291 46.1355 55.9225 46.1396 55.9166 46.1433C55.8813 46.1844 55.8376 46.2177 55.7872 46.2451C54.4876 47.1734 53.0293 47.8643 51.5432 48.3996L51.5431 48.3996C50.1809 48.8895 48.77 49.2406 47.3345 49.419L47.3344 49.419C45.8769 49.5987 44.3024 49.6135 42.8845 49.1169L42.8845 49.1169C41.4427 48.6112 40.3162 47.5426 39.5062 46.2536C38.6298 44.8589 38.1472 43.2546 37.6829 41.6975C37.4158 41.73 37.1513 41.8106 36.9009 41.9442C36.8161 41.9896 36.7336 42.0411 36.6533 42.0965C36.6856 42.6951 36.7585 43.2894 36.8747 43.8782C37.342 46.2396 38.4013 48.5392 40.0721 50.241L40.0721 50.241C40.1723 50.343 40.2122 50.4644 40.2037 50.5822C40.1954 50.6975 40.1414 50.8033 40.0651 50.8818C39.9888 50.9602 39.8849 51.0167 39.7703 51.0259C39.6528 51.0353 39.5328 50.994 39.4325 50.8918L39.4325 50.8918C38.9293 50.379 38.4806 49.8142 38.0803 49.2167L38.0803 49.2166C36.8567 47.3858 36.0826 45.2098 35.8256 42.9983C35.633 43.332 35.5084 43.7046 35.4725 44.0916L35.4725 44.0916C35.4511 44.32 35.2947 44.543 35.022 44.543C34.9039 44.543 34.7875 44.4887 34.7038 44.4075C34.6195 44.3257 34.559 44.2073 34.5716 44.0731M55.5426 45.2986L40.2906 41.9643C40.4598 40.8246 41.0264 39.7841 41.899 39.0605C41.9273 39.0371 41.9561 39.014 41.9852 38.9912C41.7189 39.9007 41.5663 40.8421 41.5305 41.793M55.5426 45.2986C55.4131 45.3883 55.2789 45.4701 55.1434 45.5483M55.5426 45.2986L55.5995 45.3809M34.5716 44.0731C34.6824 42.8583 35.3805 41.7173 36.4516 41.1459C37.4263 40.6257 38.5798 40.6538 39.5425 41.1387C39.6423 40.7696 39.7799 40.4119 39.9522 40.0709L39.9523 40.0708C40.5711 38.8477 41.6741 37.8932 42.9391 37.4188C41.8179 37.301 40.6659 37.4761 39.6411 37.9474L39.6408 37.9475C39.5375 37.9946 39.421 38.0127 39.3107 37.9875C39.1982 37.9618 39.0982 37.8922 39.0324 37.7761C38.9739 37.6739 38.9614 37.5443 38.987 37.43C39.0126 37.3152 39.0811 37.1988 39.2039 37.1423L39.2039 37.1423C40.0295 36.7632 40.9084 36.5456 41.7953 36.488C41.8719 35.5834 42.4292 34.7685 43.259 34.4185C44.1088 34.0597 45.1139 34.2861 45.7706 34.9236L45.7708 34.9238C45.8732 35.0236 45.9153 35.1437 45.9079 35.2614C45.9007 35.3764 45.8468 35.4819 45.7705 35.5602C45.6942 35.6386 45.5901 35.6951 45.4755 35.7055C45.3581 35.7161 45.2369 35.6774 45.1344 35.5779C44.7253 35.1818 44.0835 35.051 43.5673 35.2801C43.1015 35.4869 42.7584 35.9738 42.6988 36.488C43.6152 36.542 44.5244 36.767 45.3757 37.1657C45.4984 37.2229 45.5669 37.3389 45.5924 37.4537C45.6179 37.5681 45.6048 37.6973 45.5464 37.7992C45.465 37.9429 45.3306 38.0129 45.1902 38.0209C45.1618 38.0267 45.125 38.0321 45.0854 38.0282C44.4399 37.9734 43.7785 38.0808 43.1655 38.3201C42.7294 39.4309 42.4778 40.6046 42.4322 41.8007L42.4322 41.8008C42.4205 42.0968 42.1853 42.2446 41.9677 42.2448C41.859 42.2449 41.7471 42.2092 41.6624 42.1319C41.5756 42.0527 41.5249 41.9365 41.5305 41.793M34.5716 44.0731C34.5716 44.0731 34.5716 44.073 34.5716 44.073L34.6711 44.0823L34.5715 44.0732C34.5715 44.0732 34.5715 44.0731 34.5716 44.0731ZM41.5305 41.793C41.5305 41.793 41.5305 41.793 41.5305 41.7929L41.6304 41.7969L41.5305 41.7931C41.5305 41.7931 41.5305 41.7931 41.5305 41.793ZM38.6491 41.7813C39.1151 43.3316 39.6172 44.8775 40.5469 46.1843L40.5469 46.1844C40.9237 46.7155 41.381 47.2063 41.9024 47.5839L41.9025 47.584C42.4837 48.0062 43.136 48.2782 43.8333 48.4329C45.1234 48.719 46.5075 48.6417 47.8149 48.4298C47.3753 48.4025 46.9365 48.3441 46.5011 48.2503C44.8045 47.8857 43.2534 46.8548 42.3174 45.3411C42.242 45.2193 42.2296 45.0928 42.2655 44.9806C42.3006 44.8712 42.3791 44.7831 42.4727 44.7271C42.5663 44.6711 42.6813 44.6436 42.7949 44.663C42.911 44.6829 43.0188 44.7508 43.0939 44.8724C43.5467 45.6053 44.1749 46.2046 44.9035 46.6443C46.4131 47.5541 48.2632 47.6837 49.9786 47.4046C50.2189 47.3652 50.4574 47.3181 50.6943 47.2642C50.3661 47.2362 50.0392 47.1945 49.7144 47.1402C48.7251 46.9763 47.7016 46.699 46.8471 46.1096C45.9433 45.4863 45.322 44.5617 44.9949 43.5089C44.6278 42.3298 44.6634 41.0776 44.8498 39.8827L44.8499 39.8823C44.8714 39.7475 44.9629 39.6492 45.0663 39.5935C45.1688 39.5382 45.2959 39.5174 45.4083 39.5494C45.4083 39.5494 45.4083 39.5494 45.4084 39.5494L45.381 39.6456L38.6491 41.7813ZM38.6491 41.7813C38.983 41.8747 39.3034 42.0332 39.5902 42.2465L39.5902 42.2465C39.6824 42.3151 39.7906 42.327 39.8875 42.3102C40.0596 42.2945 40.2593 42.177 40.2906 41.9645L38.6491 41.7813ZM55.5995 45.3809C55.4662 45.4732 55.3286 45.5569 55.191 45.6362M55.5995 45.3809C55.9757 45.1212 56.3252 45.7459 55.9546 45.9998L55.5995 45.3809ZM55.191 45.6362L55.1458 45.5471C55.145 45.5475 55.1442 45.5479 55.1434 45.5483M55.191 45.6362C55.0123 45.7269 54.8315 45.8154 54.6513 45.9035C54.622 45.9178 54.5928 45.9322 54.5636 45.9465M55.191 45.6362L54.5636 45.9465M55.1434 45.5483C54.9661 45.6382 54.7867 45.7259 54.6073 45.8137C54.5789 45.8276 54.5505 45.8415 54.5222 45.8554M55.1434 45.5483L54.5222 45.8554M54.5222 45.8554C53.2178 46.4037 51.7346 46.4778 50.3284 46.3046L50.3284 46.3046C49.4418 46.1955 48.5268 45.9998 47.74 45.5798L54.5222 45.8554ZM54.5636 45.9465C53.2372 46.5048 51.7339 46.5784 50.3162 46.4038C49.4249 46.2942 48.4956 46.0965 47.6928 45.668L54.5636 45.9465Z" fill="white" stroke="white" stroke-width="0.2"/>
<path d="M42.4503 42.9299L42.4503 42.9299C42.4517 43.0275 42.4597 43.1258 42.4719 43.2253C42.5087 43.4756 42.574 43.72 42.6677 43.9531L42.6678 43.9533C42.719 44.0818 42.674 44.2262 42.629 44.3141C42.5708 44.4295 42.4611 44.4958 42.3631 44.5293C42.2453 44.5697 42.104 44.5409 42.009 44.4848C42.009 44.4848 42.009 44.4848 42.009 44.4848L42.0598 44.3987C41.9742 44.3482 41.9349 44.2746 41.8984 44.1837L42.4503 42.9299ZM42.4503 42.9299L42.4503 42.9291C42.4452 42.6973 42.2558 42.459 41.9949 42.4707L41.9948 42.4707C41.7619 42.4815 41.5431 42.6695 41.5485 42.9333M42.4503 42.9299L41.8056 44.221C41.6407 43.8121 41.5572 43.3715 41.5485 42.9333M41.5485 42.9333L41.6485 42.9313L41.5485 42.9334C41.5485 42.9334 41.5485 42.9333 41.5485 42.9333ZM42.3503 42.9313C42.3461 42.7423 42.1917 42.562 41.9994 42.5706L42.3503 42.9313Z" fill="white" stroke="white" stroke-width="0.2"/>
<path d="M51.2005 51.4334C51.4035 51.3459 51.5748 51.1413 51.5032 50.8715L51.5032 50.8712C51.4733 50.7599 51.3919 50.659 51.2937 50.5964C51.1948 50.5334 51.0629 50.4999 50.9352 50.554L50.9347 50.5542C48.4382 51.6295 45.7088 52.0323 43.0186 51.7226L43.0186 51.7226C42.8835 51.7071 42.7661 51.7732 42.6872 51.8598C42.6086 51.9461 42.5562 52.065 42.5562 52.1827C42.5562 52.4612 42.7712 52.6171 42.9957 52.6427M51.2005 51.4334L51.161 51.3416L51.2006 51.4333C51.2006 51.4333 51.2005 51.4333 51.2005 51.4334ZM51.2005 51.4334C50.6285 51.6802 50.0424 51.8936 49.4463 52.0722L49.4462 52.0722C47.3602 52.6936 45.1527 52.891 42.9957 52.6427M42.9957 52.6427C42.9958 52.6427 42.9958 52.6427 42.9958 52.6428L43.0072 52.5434L42.9957 52.6427Z" fill="white" stroke="white" stroke-width="0.2"/>
<path d="M41.8239 52.3569C41.9277 52.3274 42.0409 52.2466 42.0948 52.1401C42.147 52.038 42.1621 51.9131 42.1376 51.7994C42.1129 51.6846 42.0454 51.5723 41.9239 51.5118L41.9237 51.5117C41.5693 51.3359 41.2341 51.1233 40.9223 50.8765L40.9217 50.8773C40.8501 50.8248 40.7671 50.7813 40.6525 50.7813V50.7813L40.6508 50.7814C40.5435 50.7832 40.4132 50.831 40.3315 50.9208L40.3315 50.9208L40.3308 50.9216C40.2581 51.0032 40.1974 51.117 40.2031 51.2479L40.2031 51.2479L40.2031 51.2483C40.2056 51.2996 40.2146 51.359 40.2347 51.4159C40.2546 51.4723 40.2878 51.5325 40.3427 51.5767L40.3428 51.5768C40.6968 51.8618 41.0733 52.1127 41.4809 52.3141C41.5805 52.3644 41.6968 52.3933 41.8239 52.3569ZM41.8239 52.3569C41.8239 52.3569 41.8238 52.3569 41.8238 52.3569L41.7965 52.2607L41.8241 52.3568C41.824 52.3568 41.824 52.3568 41.8239 52.3569Z" fill="white" stroke="white" stroke-width="0.2"/>
<path d="M35.5362 51.0318C35.3916 51.1804 35.4155 51.3911 35.5362 51.5426L46.1843 55.0948C46.1309 54.8914 45.9414 54.812 45.7534 54.8438C42.9166 55.3142 39.9212 54.5249 37.6683 52.6853C37.0676 52.1947 36.5202 51.6407 36.0331 51.0318C35.9124 50.8818 35.6611 50.9034 35.5362 51.0318ZM46.2809 55.0692C46.2107 54.802 45.9603 54.7076 45.737 54.7451C42.9285 55.2108 39.9622 54.4293 37.7316 52.6079C37.1364 52.1218 36.5939 51.5728 36.1112 50.9694L36.111 50.9691C36.0266 50.8642 35.9003 50.8241 35.7833 50.8274C35.6672 50.8308 35.5473 50.877 35.4645 50.9621C35.2751 51.1568 35.3155 51.426 35.458 51.6049L35.4582 51.6051C37.38 54.0042 40.2124 55.5081 43.2226 55.7601C44.1371 55.8373 45.0522 55.7877 45.955 55.6379L45.9554 55.6378C46.0886 55.6152 46.1842 55.5202 46.2378 55.4157C46.2912 55.3116 46.3113 55.1831 46.2809 55.0692Z" fill="white" stroke="white" stroke-width="0.2"/>
<path d="M34.9917 48.8834L34.9917 48.8834C35.0007 48.9112 35.0112 48.9396 35.022 48.9675L35.0228 48.9695L35.0228 48.9695C35.0259 48.9781 35.03 48.9919 35.0337 49.0052L35.0342 49.0051L35.0361 49.0127C35.0409 49.0301 35.0495 49.0506 35.0616 49.0754C35.0683 49.089 35.0754 49.1026 35.083 49.1172L35.0833 49.1178C35.0905 49.1317 35.0983 49.1467 35.1055 49.1615M34.9917 48.8834L35.0159 49.2057M34.9917 48.8834L34.9912 48.8819C34.9734 48.8301 34.9572 48.7784 34.9423 48.7256L34.9422 48.7255C34.908 48.6042 34.8794 48.4824 34.859 48.3597L34.859 48.3597L34.8589 48.359C34.8364 48.2294 34.747 48.13 34.6449 48.0724C34.5433 48.015 34.4143 47.9907 34.2974 48.0284L34.2974 48.0284L34.2965 48.0287C34.1755 48.069 34.0848 48.1466 34.0311 48.2482C33.9779 48.3486 33.964 48.4664 33.9838 48.5846L33.9838 48.5846L33.9839 48.585C34.0776 49.1273 34.2937 49.6564 34.6085 50.1031L34.6902 50.0455L34.6084 50.103C34.6688 50.1889 34.7475 50.2727 34.8724 50.3077L34.8729 50.3078C34.9793 50.337 35.1225 50.3266 35.2253 50.2588L35.2257 50.2586C35.3198 50.1959 35.3937 50.0935 35.4275 49.982C35.4617 49.8693 35.4577 49.7368 35.3783 49.6242L35.2966 49.6819M34.9917 48.8834L35.2966 49.6819M35.1055 49.1615C35.1056 49.1617 35.1057 49.1618 35.1058 49.162L35.0159 49.2057M35.1055 49.1615C35.1055 49.1613 35.1054 49.1612 35.1053 49.161L35.0159 49.2057M35.1055 49.1615C35.1308 49.212 35.1552 49.2608 35.1808 49.3079M35.0159 49.2057L35.0159 49.2059C35.0412 49.2563 35.0664 49.3068 35.0931 49.3558M35.1808 49.3079C35.1808 49.3078 35.1808 49.3077 35.1807 49.3077L35.0931 49.3558M35.1808 49.3079C35.2405 49.4166 35.3073 49.5218 35.3788 49.6249L35.2966 49.6819M35.1808 49.3079C35.1809 49.3079 35.1809 49.308 35.1809 49.308L35.0931 49.3558M35.0931 49.3558L35.2966 49.6819M34.9799 49.1355C35.0012 49.1309 35.023 49.1212 35.0431 49.1039C35.0474 49.0848 35.0476 49.0616 35.0471 49.0579L35.0463 49.0531L35.0457 49.0504L35.0455 49.0494L35.0452 49.048L35.045 49.0473M34.9799 49.1355L35.0424 49.0373C35.0407 49.0308 35.0376 49.0191 35.0342 49.0067L35.0036 49.014C35.024 49.0203 35.0378 49.0285 35.0398 49.0324L35.043 49.0406C35.044 49.0435 35.0449 49.0468 35.045 49.0473M34.9799 49.1355C34.9622 49.1006 34.9456 49.0647 34.9373 49.0297M34.9799 49.1355L34.9373 49.0297M35.045 49.0473C35.045 49.0474 35.045 49.0474 35.045 49.0473C35.045 49.0472 35.0448 49.0467 35.0445 49.0457L35.0434 49.041L35.0448 49.0466L35.045 49.0473M35.045 49.0473C35.045 49.0473 35.045 49.0473 35.045 49.0473M35.045 49.0473L35.045 49.0473M34.9373 49.0297L34.9373 49.0297L34.9368 49.0298C34.9399 49.0411 34.9431 49.0531 34.9454 49.0615C34.9436 49.0547 34.941 49.0444 34.9373 49.0297ZM34.3281 48.1236C34.133 48.1885 34.0487 48.3675 34.0824 48.568L34.3281 48.1236Z" fill="white" stroke="white" stroke-width="0.2"/>
<path d="M40.8323 57.2662L40.8324 57.2662C40.9692 57.2862 41.0646 57.3847 41.1169 57.4897C41.1692 57.5946 41.1885 57.7238 41.1588 57.8353L41.1588 57.8354C41.1241 57.9651 41.0447 58.0576 40.9426 58.1114C40.8427 58.164 40.7262 58.1771 40.6156 58.161L40.8323 57.2662ZM40.8323 57.2662C38.8868 56.9848 37.0429 56.122 35.5771 54.7724L35.5771 54.7724M40.8323 57.2662L35.5771 54.7724M35.5771 54.7724C35.4723 54.676 35.3499 54.6402 35.2326 54.6522C35.1179 54.664 35.0137 54.7206 34.9373 54.7988C34.8609 54.877 34.807 54.9822 34.801 55.0968C34.7947 55.2144 34.8395 55.333 34.9446 55.4302L34.9447 55.4303M35.5771 54.7724L34.9447 55.4303M34.9447 55.4303C36.524 56.8862 38.5103 57.8565 40.6155 58.161L34.9447 55.4303ZM41.0622 57.8096C41.1071 57.6408 41.006 57.3926 40.818 57.3652L40.6299 58.0621C40.818 58.0895 41.0075 58.0145 41.0622 57.8096Z" fill="white" stroke="white" stroke-width="0.2"/>
<path d="M31.3744 48.827L31.3744 48.827C31.8072 50.096 32.4586 51.2892 33.2879 52.329L33.288 52.329C33.4305 52.5079 33.4708 52.7771 33.2814 52.9719C33.1986 53.057 33.0788 53.1031 32.9626 53.1065C32.8457 53.1099 32.7194 53.0697 32.6349 52.9648L32.6348 52.9646C31.7082 51.8056 30.9909 50.4998 30.5072 49.0836L31.3744 48.827ZM31.3744 48.827L31.3743 48.8267M31.3744 48.827L31.3743 48.8267M31.3743 48.8267C31.2981 48.6057 31.0754 48.4397 30.8207 48.5105L30.8207 48.5105M31.3743 48.8267L30.8207 48.5105M30.8207 48.5105L30.8203 48.5106M30.8207 48.5105L30.8203 48.5106M30.8203 48.5106C30.7048 48.5431 30.6078 48.6269 30.5492 48.7279M30.8203 48.5106L30.5492 48.7279M30.5492 48.7279C30.4901 48.8296 30.4644 48.9585 30.5071 49.0835L30.5492 48.7279Z" fill="white" stroke="white" stroke-width="0.2"/>
<path d="M33.7528 52.9908L33.7528 52.9908L33.7521 52.9906C33.6457 52.9614 33.5026 52.9718 33.3997 53.0396L33.3996 53.0396C33.2045 53.1686 33.1106 53.4416 33.2421 53.6669L33.2421 53.6669L33.2424 53.6675C33.457 54.0292 33.716 54.3677 34.0114 54.6639L34.0116 54.6642C34.1779 54.8297 34.4788 54.8532 34.6532 54.6604L34.6536 54.66C34.8112 54.4837 34.8331 54.1965 34.65 54.0121L34.6497 54.0117C34.5132 53.8757 34.3872 53.7294 34.269 53.5755C34.1808 53.4536 34.0973 53.3297 34.0209 53.2007C33.9641 53.1039 33.8667 53.0229 33.7528 52.9908Z" fill="white" stroke="white" stroke-width="0.2"/>
<path d="M29.3958 52.8606L29.3958 52.8607C29.6691 53.4282 29.9771 53.9754 30.3225 54.4981C31.5234 56.3138 33.1632 57.8089 35.052 58.8283C35.1777 58.8957 35.25 58.9997 35.2729 59.1152C35.2952 59.2278 35.2692 59.3434 35.2149 59.4386C35.1605 59.5339 35.074 59.6155 34.9658 59.6562C34.8552 59.6977 34.7276 59.694 34.6019 59.6262M29.3958 52.8606L33.0464 58.521M29.3958 52.8606C29.3383 52.7416 29.2297 52.6698 29.1164 52.6419C29.0039 52.6142 28.8776 52.6272 28.7746 52.6882L28.7746 52.6882L28.7741 52.6885C28.548 52.8246 28.5076 53.1002 28.6091 53.3109M29.3958 52.8606L28.6993 53.2676M34.6019 59.6262L34.6491 59.5386L34.602 59.6262C34.6019 59.6262 34.6019 59.6262 34.6019 59.6262ZM34.6019 59.6262C34.0406 59.3239 33.5003 58.9823 32.9868 58.6013M32.9868 58.6013C32.9868 58.6013 32.9869 58.6013 32.9869 58.6013L33.0464 58.521M32.9868 58.6013L33.0464 58.521M32.9868 58.6013C31.1395 57.2327 29.6171 55.4122 28.6091 53.3109M33.0464 58.521C31.2118 57.1618 29.7001 55.354 28.6993 53.2676M28.6091 53.3109C28.6092 53.311 28.6092 53.311 28.6092 53.3111L28.6993 53.2676M28.6091 53.3109L28.6993 53.2676" fill="white" stroke="white" stroke-width="0.2"/>
<path d="M29.7646 59.2352L29.7647 59.2353C30.0102 59.3965 30.0129 59.6782 29.9054 59.8672C29.8512 59.9625 29.7652 60.0436 29.6566 60.0801C29.5448 60.1176 29.4191 60.1041 29.2989 60.0261L29.2986 60.026C28.4965 59.5022 27.8284 58.793 27.3148 57.977L27.3148 57.9769C26.8765 57.2792 26.5526 56.4991 26.3467 55.6979C26.143 54.9082 26.012 54.0532 26.032 53.2292L26.032 53.2292C26.0518 52.4358 26.2432 51.4364 26.8805 50.8618C27.1944 50.5784 27.6171 50.3751 28.0591 50.4064C28.0591 50.4064 28.0592 50.4064 28.0592 50.4064L28.0521 50.5061C28.1626 50.5136 28.2692 50.5374 28.3709 50.5735L29.7646 59.2352ZM29.7646 59.2352C28.6372 58.4981 27.8253 57.3179 27.3875 56.0232C27.1727 55.3864 27.0379 54.7143 26.9698 54.0426C26.9028 53.37 26.9023 52.668 27.1603 52.0571L27.0682 52.0182L27.1602 52.0573C27.2867 51.7591 27.4588 51.4955 27.7309 51.3786L27.7309 51.3786L29.7646 59.2352ZM33.6007 45.6727L33.7007 45.674C33.699 45.8055 33.645 45.9184 33.5619 46.0004L33.5595 46.0034C33.5578 46.0055 33.5552 46.0087 33.5517 46.0122L33.5514 46.0125C33.36 46.2073 33.0942 46.165 32.9192 46.0193L32.919 46.0192C32.7503 45.8781 32.5174 45.8163 32.2648 45.8096C32.0132 45.8029 31.7526 45.8514 31.5414 45.9193L31.5412 45.9194C31.2382 46.0165 30.9505 46.263 30.7694 46.548C30.8632 46.5766 30.9569 46.6062 31.0503 46.6366L31.0504 46.6366C31.3297 46.7276 31.4015 47.0005 31.3454 47.2102C31.3171 47.3161 31.2547 47.4167 31.1598 47.4803C31.0619 47.5458 30.9375 47.5663 30.8019 47.5222L30.8018 47.5222C30.1127 47.2982 29.4423 47.1013 28.7942 47.4106C28.3367 47.6292 27.9786 47.9954 27.6778 48.4198C27.8661 48.5003 28.046 48.6018 28.2141 48.7261L28.2142 48.7262C29.0427 49.3413 29.4865 50.4308 29.2171 51.4677L29.2133 51.4667L30.6701 46.5183C30.8608 46.2065 31.1735 45.9322 31.5107 45.8242C31.9501 45.6828 32.5985 45.6207 32.9831 45.9425C33.1305 46.0651 33.3355 46.0896 33.48 45.9425C33.4814 45.941 33.4828 45.9392 33.4842 45.9374C33.4857 45.9356 33.4871 45.9338 33.4885 45.9324C33.5558 45.8674 33.5993 45.778 33.6007 45.6727ZM33.6007 45.6727C33.6022 45.6092 33.6078 45.5457 33.6148 45.4822M33.6007 45.6727L33.7007 45.6749C33.702 45.6164 33.7072 45.557 33.7139 45.4956M33.6148 45.4822L33.7135 45.4979C33.7137 45.4971 33.7138 45.4963 33.7139 45.4956M33.6148 45.4822C33.626 45.4115 33.6401 45.3423 33.6583 45.2744L29.9377 46.3543C29.9131 46.3507 29.888 46.3472 29.8627 46.344C30.1454 45.7392 30.659 45.2392 31.2934 45.035L31.2934 45.035C31.8011 44.8717 32.3841 44.8389 32.9039 45.0085M33.6148 45.4822L33.7142 45.4932C33.7141 45.494 33.714 45.4948 33.7139 45.4956M33.7139 45.4956C33.7247 45.4284 33.7379 45.3635 33.7549 45.3004L33.7551 45.2995C33.7654 45.2597 33.7785 45.2192 33.7927 45.1754C33.7985 45.1577 33.8055 45.1395 33.8137 45.1184C33.8487 45.041 33.8859 44.9675 33.928 44.8973L33.9285 44.8963C33.948 44.8629 33.9688 44.831 33.9907 44.8004L33.9917 44.7991C33.999 44.7886 34.0038 44.7818 34.0079 44.7766C34.0165 44.7662 34.0196 44.7622 34.0214 44.7597C34.0229 44.7576 34.0236 44.7567 34.0261 44.7541L34.0264 44.7543L34.0317 44.7479C34.1023 44.662 34.1569 44.5609 34.1569 44.4289C34.1569 44.3192 34.1115 44.1838 34.0229 44.1006M29.1147 51.457L29.1147 51.457C29.1133 51.4584 29.1133 51.4584 29.1133 51.4599C29.074 51.5868 28.9898 51.659 28.8915 51.6864C28.7483 51.7441 28.5743 51.7167 28.4746 51.5392L29.1147 51.457ZM29.1147 51.457C29.1153 51.4552 29.1161 51.4535 29.1169 51.4516M29.1147 51.457L29.1169 51.4516M34.0229 44.1006C34.0229 44.1007 34.0229 44.1007 34.0229 44.1007L33.9545 44.1736L34.0229 44.1006ZM34.0229 44.1006C33.9397 44.0225 33.8241 43.9747 33.7087 43.9698C33.5918 43.9647 33.4672 44.004 33.3802 44.1102M33.3802 44.1102C33.1613 44.3773 33.0008 44.6823 32.9039 45.0085M33.3802 44.1102L33.4576 44.1736M33.3802 44.1102C33.3802 44.1102 33.3802 44.1102 33.3802 44.1102L33.4576 44.1736M32.9039 45.0085C32.8944 45.0405 32.8856 45.0727 32.8773 45.105L33.4576 44.1736M32.9039 45.0085C32.9357 45.0189 32.9671 45.03 32.9984 45.0419C33.0913 44.7264 33.2461 44.4315 33.4576 44.1736M29.1169 51.4516C29.1181 51.4489 29.1195 51.446 29.1203 51.4425M29.1169 51.4516L29.1203 51.4425M29.1203 51.4425C29.3786 50.4484 28.9533 49.3995 28.1546 48.8065L29.1203 51.4425ZM27.071 49.1842C27.6891 49.355 28.1949 49.8544 28.3469 50.4603L29.714 46.4301L29.7216 46.3304C29.7214 46.3304 29.7211 46.3304 29.7209 46.3304C29.2623 46.2959 28.819 46.3941 28.4063 46.5831L28.4061 46.5832C27.6817 46.9169 27.1484 47.5385 26.7347 48.1984C26.2224 48.1627 25.7011 48.2531 25.2307 48.4549L25.2307 48.4549C24.6882 48.6877 24.2105 49.0461 23.8157 49.4888L23.8156 49.4888C23.6202 49.7082 23.6868 49.9811 23.8381 50.1368C23.9141 50.2151 24.0176 50.2715 24.1316 50.2784C24.2489 50.2856 24.3663 50.2394 24.4617 50.1328L24.4618 50.1327C25.1302 49.3835 26.1027 48.9165 27.071 49.1842L27.071 49.1842ZM29.2133 51.4599C29.2133 51.459 29.2133 51.4594 29.2133 51.4605V51.4599ZM31.0194 46.7317C30.9187 46.699 30.818 46.6671 30.7172 46.6367L28.7511 47.3204C29.4403 46.9914 30.1492 47.2049 30.8328 47.4271C31.2637 47.5671 31.449 46.8717 31.0194 46.7317ZM29.1864 51.5267L29.1864 51.5267L29.1864 51.5267Z" fill="white" stroke="white" stroke-width="0.2"/>
<path d="M20.2738 52.5279L20.2736 52.5281C18.9576 53.505 17.5121 54.2866 15.9791 54.8343C15.7591 54.9127 15.6034 55.1434 15.6704 55.3982L15.6705 55.3986C15.7016 55.5152 15.7818 55.6145 15.881 55.6752C15.9808 55.7363 16.1082 55.7633 16.2325 55.7197L16.2331 55.7195C17.8409 55.1449 19.3656 54.3381 20.7465 53.3134L20.7466 53.3133C20.9285 53.1779 21.0341 52.9246 20.9002 52.6903C20.8419 52.5869 20.7383 52.5107 20.6272 52.4767C20.5152 52.4424 20.3825 52.4477 20.2738 52.5279Z" fill="white" stroke="white" stroke-width="0.2"/>
<path d="M21.3148 51.8235C21.2128 51.9078 21.1743 52.0384 21.1765 52.1561C21.1786 52.2737 21.2213 52.3998 21.3097 52.4838L21.3099 52.484C21.404 52.5727 21.5147 52.6158 21.629 52.613C21.7416 52.6101 21.8484 52.563 21.939 52.4885L21.9392 52.4883C22.4905 52.0323 22.9936 51.5195 23.4428 50.9588L23.4432 50.9583C23.51 50.8736 23.5672 50.7755 23.5672 50.6409C23.5672 50.5312 23.5218 50.3958 23.4331 50.3126C23.3506 50.2352 23.2348 50.1872 23.1194 50.1818C23.0023 50.1763 22.8765 50.2149 22.7898 50.323L22.7898 50.323C22.3491 50.8732 21.8542 51.3762 21.3148 51.8235ZM21.3148 51.8235C21.3148 51.8235 21.3148 51.8234 21.3148 51.8234L21.3785 51.9005L21.3147 51.8235C21.3147 51.8235 21.3148 51.8235 21.3148 51.8235Z" fill="white" stroke="white" stroke-width="0.2"/>
<path d="M9.49856 9.49852L9.49854 9.49854C3.88974 15.1073 0.8 22.5675 0.8 30.5C0.8 38.4325 3.88974 45.8913 9.49852 51.5014L9.63807 51.3619L9.49854 51.5015C15.1073 57.1103 22.5675 60.2 30.5 60.2C38.4325 60.2 45.8913 57.1103 51.5014 51.5015L51.36 51.36L51.5015 51.5015C57.1103 45.8927 60.2 38.4325 60.2 30.5C60.2 22.5675 57.1103 15.1073 51.5015 9.49854C45.8927 3.88974 38.4325 0.8 30.5 0.8C22.5675 0.8 15.1087 3.88975 9.49856 9.49852ZM30.5 59.1341C14.7117 59.1341 1.86594 46.2883 1.86594 30.5C1.86594 14.7117 14.7104 1.86461 30.5 1.86461C46.2896 1.86461 59.1341 14.7104 59.1341 30.4987C59.1341 46.287 46.2883 59.1341 30.5 59.1341Z" fill="white" stroke="white" stroke-width="0.4"/>
</svg>
