<svg width="30" height="41" viewBox="0 0 30 41" fill="none" xmlns="http://www.w3.org/2000/svg">
<path d="M19.154 39.9917C19.154 39.9963 19.1503 40 19.1457 40H2C1.44771 40 1 39.5523 1 39V2C1 1.44772 1.44772 1 2 1H18.7353C20.366 1.00143 21.952 1.60621 23.2546 2.72323C24.5572 3.84025 25.5057 5.40901 25.9572 7.19319C26.4088 8.97736 26.339 10.8803 25.7582 12.6154C25.3664 13.7861 24.7563 14.8375 23.977 15.7016C23.4712 16.2624 23.552 17.2308 24.1648 17.6723C25.411 18.5703 26.4806 19.7641 27.2965 21.1799C28.4093 23.1109 29.0015 25.3707 29 27.6804V28.1576C29.0021 31.19 27.9817 34.1075 26.1496 36.3082C24.3192 38.5067 21.8182 39.822 19.1618 39.9835C19.1574 39.9838 19.154 39.9874 19.154 39.9917V39.9917ZM2.99719 36.7258C2.99719 37.2781 3.4449 37.7258 3.99719 37.7258H9.70704C10.6424 37.7258 11.1404 36.4671 10.5902 35.7107C9.94814 34.8279 9.41841 33.8402 9.02079 32.7759C8.47798 31.319 8.19881 29.7524 8.19998 28.1698V27.6922C8.19761 24.7024 9.18837 21.8222 10.9734 19.6297C12.7585 17.4371 15.2057 16.0944 17.8241 15.8711C18.0909 15.8485 18.364 15.8374 18.6335 15.8385C18.7397 15.8385 18.8457 15.8407 18.9515 15.8452C20.3789 15.7813 21.7291 15.09 22.7185 13.9166C23.7079 12.7431 24.2594 11.1788 24.2573 9.55208C24.2527 6.09026 21.7755 3.27391 18.7351 3.27391H3.99719C3.4449 3.27391 2.99719 3.72162 2.99719 4.27391V36.7258ZM18.599 18.1116C18.3895 18.1116 18.1784 18.1204 17.9706 18.1392C13.6068 18.5063 10.1921 22.702 10.1967 27.6914V28.1687C10.2013 33.4393 13.9711 37.7272 18.5997 37.7272C23.2325 37.7272 27.0023 33.4349 27.0023 28.1587V27.6804C27.0023 22.5431 23.4164 18.3276 18.9449 18.1199C18.8764 18.1221 18.8079 18.1232 18.7392 18.1232C18.7364 18.1232 18.7341 18.1209 18.7341 18.1181V18.1181C18.7341 18.1153 18.7318 18.113 18.729 18.113C18.6947 18.113 18.6597 18.113 18.6259 18.113L18.599 18.1116Z" fill="#252531" stroke="#252531" stroke-width="0.3"/>
</svg>
