<svg width="120" height="120" viewBox="0 0 120 120" fill="none" xmlns="http://www.w3.org/2000/svg">
<path d="M87.0837 77.6779C87.0411 77.8483 87.0624 78.0375 87.1503 78.192C87.2302 78.3305 87.39 78.461 87.5472 78.4983C87.8908 78.5756 88.2771 78.3944 88.3676 78.0322C88.4422 77.7258 88.5408 77.4301 88.658 77.1371C88.7725 76.8734 88.9031 76.6177 89.0522 76.3726C89.2334 76.0743 89.1268 75.6268 88.8125 75.4616C88.4902 75.2911 88.0933 75.3817 87.9015 75.7013C87.5339 76.3114 87.2515 76.9853 87.0837 77.6779Z" fill="white"/>
<path d="M100.939 82.0529C100.914 82.0418 100.889 82.0334 100.875 82.0195C100.872 82.0195 100.872 82.0195 100.869 82.0195C100.894 82.0501 100.93 82.0585 100.939 82.0529Z" fill="white"/>
<path d="M101.258 82.3183C101.258 82.3183 101.256 82.3155 101.256 82.3127C101.241 82.2985 101.222 82.2757 101.207 82.2559C101.204 82.2672 101.224 82.3041 101.258 82.3183Z" fill="white"/>
<path d="M100.716 81.9712C100.71 81.9712 100.707 81.9685 100.702 81.9685C100.682 81.9685 100.666 81.9657 100.649 81.9629C100.632 81.9685 100.666 81.9824 100.716 81.9712Z" fill="white"/>
<path d="M100.645 83.6798C100.667 83.6769 100.687 83.6769 100.704 83.6769C100.704 83.6769 100.704 83.6769 100.707 83.6769C100.679 83.6712 100.656 83.6741 100.645 83.6798Z" fill="white"/>
<path d="M99.717 82.668C99.7142 82.693 99.7115 82.7208 99.7031 82.7403C99.7031 82.743 99.7031 82.743 99.7031 82.7458C99.7254 82.7097 99.7254 82.668 99.717 82.668Z" fill="white"/>
<path d="M41.932 68.1063C41.914 68.0912 41.8959 68.0792 41.8809 68.0762C41.9019 68.0852 41.92 68.0942 41.932 68.1063Z" fill="white"/>
<path d="M42.993 67.3019C42.9902 67.2825 42.9902 67.263 42.9902 67.2435C42.9902 67.2408 42.9874 67.2352 42.9874 67.2324C42.9846 67.2713 42.9874 67.2964 42.993 67.3019Z" fill="white"/>
<path d="M42.7415 67.9688C42.6345 68.0223 42.688 68.0163 42.7415 67.9688V67.9688Z" fill="white"/>
<path d="M41.6264 66.8457C41.6084 66.8668 41.5903 66.8848 41.5723 66.8999C41.6024 66.8788 41.6204 66.8577 41.6264 66.8457Z" fill="white"/>
<path d="M41.4199 67.2785C41.4561 67.145 41.4255 67.2173 41.4199 67.2785V67.2785Z" fill="white"/>
<path d="M41.5723 67.8379C41.5841 67.8438 41.593 67.8527 41.6049 67.8646C41.596 67.8557 41.5841 67.8468 41.5723 67.8379Z" fill="white"/>
<path d="M42.2889 68.1575C42.3055 68.1547 42.3222 68.1547 42.3417 68.1519C42.3473 68.1519 42.35 68.1491 42.3528 68.1491C42.2889 68.1408 42.2638 68.1547 42.2889 68.1575Z" fill="white"/>
<path d="M21.4387 69.868L21.4387 69.8679C20.3016 68.992 18.7503 68.921 17.4121 69.2936C15.9045 69.7146 14.5952 70.6549 13.4871 71.771C12.3689 72.8995 11.4324 74.189 10.4938 75.4813C10.3972 75.6144 10.3005 75.7475 10.2036 75.8805C9.16667 77.3034 8.10476 78.7093 6.7751 79.8763C6.4708 80.1435 6.02159 80.1913 5.71249 79.8736L5.7123 79.8734C5.57619 79.7319 5.49999 79.5275 5.49517 79.3259C5.49034 79.124 5.55711 78.9186 5.71534 78.7796L5.71536 78.7796C7.15182 77.5195 8.28008 75.9683 9.40849 74.4169C9.52424 74.2577 9.63999 74.0986 9.75607 73.9398C11.9166 70.9806 14.5817 67.8644 18.4474 67.5565L18.4474 67.5565C20.1072 67.4257 21.944 67.9802 23.0518 69.3262C24.1893 70.7054 24.4475 72.5647 24.3179 74.3048M21.4387 69.868L24.2681 74.3011M21.4387 69.868C22.4046 70.6112 22.7596 71.8022 22.8324 73.012M21.4387 69.868L22.8839 73.0355M24.3179 74.3048L24.2681 74.3011M24.3179 74.3048C24.3179 74.3048 24.3179 74.3047 24.3179 74.3047L24.2681 74.3011M24.3179 74.3048C24.2884 74.7133 24.0033 75.0725 23.5662 75.0725C23.5615 75.0725 23.5571 75.0721 23.5539 75.0718L23.545 75.0706C23.5415 75.0701 23.5392 75.0699 23.5376 75.0697M24.2681 74.3011C24.24 74.6907 23.9705 75.0225 23.5662 75.0225C23.5623 75.0225 23.5578 75.0219 23.553 75.0212C23.5474 75.0205 23.5414 75.0196 23.5354 75.0196M23.5376 75.0697C23.5389 75.0696 23.5402 75.0694 23.5415 75.0693L23.5354 75.0196M23.5376 75.0697C23.3878 75.0873 23.2324 75.0563 23.1061 74.9582M23.5376 75.0697C23.5367 75.0697 23.536 75.0696 23.5354 75.0696V75.0196M23.5354 75.0196L23.1061 74.9582M23.1061 74.9582L23.1364 74.9191L23.106 74.9581C23.1061 74.9581 23.1061 74.9582 23.1061 74.9582ZM23.1061 74.9582C21.6077 73.7973 19.5353 73.7873 18.1118 75.094M23.1061 74.9582L18.1118 75.094M18.1118 75.094L18.1117 75.094C17.8117 75.3688 17.351 75.4031 17.0483 75.092C16.9092 74.949 16.8344 74.7459 16.831 74.5451C16.8277 74.3441 16.896 74.1402 17.0504 73.9988M18.1118 75.094L17.0842 74.0356M17.0504 73.9988L17.0842 74.0356M17.0504 73.9988C17.0504 73.9988 17.0504 73.9988 17.0504 73.9988L17.0842 74.0356M17.0504 73.9988C18.6383 72.5419 20.925 72.1562 22.8324 73.012M17.0842 74.0356C18.6644 72.5857 20.9423 72.2071 22.8356 73.0684C22.8346 73.0496 22.8335 73.0308 22.8324 73.012M22.8324 73.012C22.8496 73.0198 22.8667 73.0276 22.8839 73.0355M22.8839 73.0355C22.8849 73.0543 22.8859 73.0732 22.8869 73.092L22.8839 73.0355Z" fill="white" stroke="white" stroke-width="0.1"/>
<mask id="path-15-outside-1_1854_665" maskUnits="userSpaceOnUse" x="2.74414" y="41.1621" width="112" height="64" fill="black">
<rect fill="white" x="2.74414" y="41.1621" width="112" height="64"/>
<path d="M113.133 83.7788C110.632 86.4048 107.268 88.2227 103.709 88.6989C101.895 88.9413 99.9806 88.7681 98.4366 87.6889C97.791 87.2359 97.2576 86.6241 96.9095 85.9056C96.4968 85.0485 96.4491 84.053 96.5221 83.1151C96.6793 81.0894 97.4821 79.2137 98.4451 77.4621C99.902 78.3538 101.803 78.3249 103.15 77.162C103.846 76.5618 104.332 75.6586 104.461 74.7352C104.475 74.6371 104.481 74.5418 104.486 74.4437C104.742 73.327 105.629 72.4036 106.735 72.2535C107.746 72.115 108.964 72.5709 109.539 73.4857C109.57 73.5463 109.61 73.6011 109.655 73.6502C109.753 73.7685 109.874 73.8377 109.997 73.8666C110.059 73.8868 110.121 73.8983 110.182 73.8983C110.427 73.8983 110.606 73.7829 110.727 73.6098C110.839 73.4799 110.904 73.3125 110.89 73.1279C111.081 71.5379 111.196 69.8469 110.379 68.4069C109.84 67.4546 108.824 66.6957 107.74 66.5659C107.726 65.5213 107.122 64.5199 106.261 63.9486C105.292 63.308 104.088 63.2098 102.979 63.4609C102.836 62.777 102.53 62.1479 101.968 61.64C101.227 60.9706 100.245 60.7397 99.2844 60.9446C98.7258 61.0658 98.1194 61.288 97.6337 61.6458C96.2048 60.4858 94.3548 60.0039 92.5413 60.3155C90.8541 60.6041 89.3213 61.6574 88.35 63.0973C86.8257 62.5692 85.1637 62.5346 83.6085 62.9501C82.0055 63.3772 80.557 64.2487 79.2572 65.2875C76.5538 67.4489 74.6448 70.4702 71.9498 72.6344C70.5209 73.78 68.873 74.7381 67.0932 75.1392C65.4509 75.1998 63.8143 75.5403 62.2702 76.1001C60.2434 76.8359 58.3793 77.9383 56.6641 79.257C52.2342 79.7389 47.3719 79.5946 43.4389 77.214C41.3868 75.9731 39.6154 74.0772 38.7816 71.7572C37.8496 69.1658 37.8187 66.1301 38.5683 63.484C38.9894 62.0008 39.7361 60.6849 40.8337 59.6259C41.9118 58.5841 43.2396 57.8339 44.6292 57.3318C44.6404 57.3289 44.6517 57.3202 44.6629 57.3173C45.5753 57.2163 46.4961 57.0951 47.226 56.4632C47.24 56.4516 47.2512 56.4372 47.2653 56.4257C47.8716 56.7489 48.2759 57.4414 48.3264 58.2032C48.3994 59.294 47.9222 60.2751 47.3102 61.1351C47.0856 61.4496 47.2596 61.9402 47.5628 62.1219C47.6639 62.1825 47.765 62.2114 47.866 62.2172C47.9643 62.2374 48.0653 62.2345 48.1636 62.1941C50.0754 61.4582 52.1303 60.4598 53.4497 58.7977C54.0982 57.981 54.4547 57.0201 54.407 55.9553C54.3677 55.1011 54.1235 54.2672 53.7445 53.5054C54.5277 52.6743 54.9404 51.4883 54.5081 50.3456C54.2554 49.6819 53.795 49.1596 53.1606 48.8595C52.7367 48.6575 52.2791 48.5334 51.8159 48.4901C51.8187 48.1727 51.8047 47.8581 51.7485 47.5407C51.6503 46.9867 51.3779 46.4644 50.9905 46.069C50.3308 45.3967 49.3932 45.1225 48.4892 45.2351C48.2001 44.4444 47.7144 43.7778 47.0014 43.2901C46.0581 42.6437 44.9015 42.335 43.7842 42.208C42.6781 42.0839 41.558 42.2022 40.539 42.6755C39.6715 43.0766 38.8546 43.671 38.1752 44.3578C38.15 44.3578 38.1247 44.3578 38.1022 44.3578C36.2663 44.3578 34.4163 44.5425 32.6308 44.984C29.4361 45.7776 26.4379 47.4801 24.3493 50.1234C23.1422 51.6528 22.2102 53.3669 21.2922 55.0896C21.2922 55.0925 21.2922 55.0925 21.2894 55.0954C18.9733 55.8254 16.8707 57.3606 15.2172 59.1497C12.5896 61.9921 10.8041 65.4895 8.4881 68.5801C7.23605 70.2509 5.80152 71.812 4.06942 72.9576C3.31145 73.4597 4.01608 74.7092 4.77686 74.2042C7.90699 72.1323 10.0433 68.9523 12.0758 65.8243C14.0943 62.7193 16.1829 59.4556 19.3888 57.5251C21.0929 56.4978 23.0215 55.9236 25.0034 56.1227C25.3824 56.1602 25.7052 55.7648 25.7052 55.4013C25.7052 54.9799 25.3824 54.7173 25.0034 54.6798C24.3634 54.6135 23.7289 54.6279 23.1057 54.7C24.4251 52.2992 25.9018 50.0108 28.2009 48.4641C30.8622 46.6721 34.0289 45.9247 37.1758 45.8122C38.9725 45.7487 40.9292 45.7516 42.608 46.5048C42.9561 46.6606 43.3603 46.6086 43.5681 46.245C43.7421 45.9392 43.6663 45.414 43.3154 45.2582C42.3413 44.8195 41.3194 44.5858 40.2779 44.4646C40.5278 44.3001 40.7804 44.1443 41.0471 44.0087C41.8191 43.6191 42.6781 43.5527 43.5231 43.6191C44.4018 43.6884 45.3226 43.9365 46.0862 44.3982C46.7964 44.8282 47.1445 45.4515 47.3214 46.2652C47.386 46.5654 47.5797 46.7212 47.7986 46.7674C47.9194 46.8106 48.0513 46.8164 48.1832 46.7702C48.2871 46.7327 48.391 46.701 48.4977 46.6779C48.5426 46.6664 48.61 46.6404 48.6577 46.6462C48.5622 46.6577 48.5538 46.6606 48.6324 46.649C48.6605 46.6462 48.6858 46.6433 48.7138 46.6433C48.8233 46.6346 48.9328 46.6346 49.0395 46.6433C49.0563 46.6433 49.1461 46.6577 49.163 46.6577C49.1911 46.6635 49.2219 46.6692 49.2276 46.6721C49.2669 46.6808 49.5392 46.7327 49.5504 46.7731C49.5223 46.7616 49.4971 46.75 49.469 46.7385C49.4971 46.75 49.5251 46.7645 49.5532 46.7789C49.5953 46.7991 49.6374 46.8222 49.6767 46.8482C49.716 46.8741 49.7581 46.8972 49.7974 46.9232C49.8115 46.9318 49.8227 46.9405 49.8367 46.9492C49.8985 46.9953 49.8873 46.9867 49.8087 46.9232C49.876 46.9434 49.9687 47.0646 50.0164 47.1165C50.0501 47.1511 50.0782 47.1887 50.1119 47.2233C50.1147 47.2262 50.1147 47.2262 50.1147 47.2291C50.1652 47.3099 50.2129 47.3935 50.2578 47.4772C50.2635 47.4859 50.2663 47.4888 50.2691 47.4945C50.2691 47.4974 50.2691 47.4974 50.2691 47.4974C50.2859 47.5494 50.3056 47.5984 50.3196 47.6504C50.3505 47.7542 50.3701 47.861 50.3898 47.9678C50.3898 47.9707 50.3898 47.9707 50.3898 47.9736C50.3898 47.9793 50.3898 47.9822 50.3898 47.9938C50.3926 48.0486 50.3982 48.1034 50.401 48.1582C50.4066 48.2679 50.4066 48.3804 50.4038 48.4901C50.401 48.6777 50.387 48.8681 50.3729 49.0557C50.3645 49.1047 50.3589 49.1567 50.3617 49.2086C50.3449 49.4077 50.4431 49.5982 50.5891 49.7338C50.7126 49.8666 50.8754 49.9502 51.0635 49.93C51.3134 49.9041 51.5604 49.9041 51.8103 49.93C51.8355 49.9358 51.8973 49.9445 51.9169 49.9474C51.9815 49.9618 52.0461 49.9762 52.1106 49.9935C52.2257 50.0253 52.338 50.0657 52.4503 50.1061C52.4756 50.1176 52.4981 50.1291 52.5233 50.1407C52.5823 50.1695 52.6384 50.2013 52.6918 50.2359C52.7367 50.2648 52.7816 50.2936 52.8265 50.3225C52.8349 50.3283 52.8405 50.3311 52.8462 50.334C52.8518 50.3398 52.8546 50.3456 52.8658 50.3571C52.9051 50.4004 52.9472 50.4408 52.9865 50.4841C52.995 50.4927 53.0006 50.4985 53.0062 50.5043C53.009 50.5101 53.0118 50.5158 53.0202 50.5274C53.0736 50.6139 53.1241 50.7034 53.1662 50.7957C53.1718 50.813 53.1887 50.8592 53.1971 50.891C53.2139 50.9487 53.2279 51.0064 53.242 51.0641C53.2448 51.0756 53.2504 51.1218 53.256 51.1536C53.2588 51.1911 53.2616 51.2488 53.2616 51.2603C53.2644 51.3209 53.2616 51.3815 53.2588 51.4392C53.2588 51.4594 53.256 51.4768 53.256 51.4883C53.2364 51.6008 53.2083 51.7134 53.1718 51.823C53.1606 51.8577 53.1241 51.9356 53.1297 51.9269C53.11 51.9673 53.0904 52.0106 53.0679 52.051C53.0371 52.1058 53.0062 52.1606 52.9725 52.2126C52.9669 52.2212 52.9248 52.279 52.9079 52.302C52.8377 52.3886 52.7647 52.4723 52.6833 52.5502C52.6468 52.5877 52.6047 52.6195 52.5682 52.657C52.5598 52.6656 52.5514 52.6714 52.5486 52.6743C52.5289 52.6887 52.5093 52.7032 52.4896 52.7176C52.4223 52.7666 52.3661 52.8244 52.3128 52.8907C52.1528 53.0639 52.0742 53.3091 52.1724 53.5717C52.1893 53.6179 52.2089 53.6612 52.237 53.7045C52.644 54.3768 52.9528 55.1415 52.9893 55.9409C53.0258 56.7575 52.7535 57.4385 52.2117 58.0359C51.4369 58.89 50.4656 59.5364 49.4381 60.0558C49.6795 59.3373 49.7806 58.5755 49.6739 57.7963C49.5251 56.7258 48.93 55.7591 48.0429 55.2166C48.2254 54.7347 48.3096 54.2066 48.304 53.7045C48.2815 51.5662 46.8779 49.5809 44.8566 49.0095C43.9049 48.7411 42.8353 48.7902 41.8724 49.0817C41.7237 48.8421 41.5243 48.6315 41.2745 48.4526C40.8141 48.1236 40.2554 47.9764 39.7052 47.9216C38.849 47.8408 37.9956 48.0832 37.2741 48.5449C36.4824 47.9014 35.4437 47.5638 34.4359 47.6879C33.2204 47.8408 32.1367 48.5536 31.5051 49.6357C31.3086 49.9704 31.4321 50.4264 31.7578 50.6226C32.089 50.8217 32.5213 50.6976 32.7179 50.3629C32.9031 50.0426 33.1951 49.728 33.4843 49.5347C33.5797 49.4712 33.678 49.4106 33.7818 49.3587C33.8211 49.3385 33.8632 49.3183 33.9025 49.2981C33.9138 49.2923 33.9503 49.2779 33.9615 49.275C34.0682 49.2375 34.1777 49.2 34.2871 49.1711C34.3377 49.1596 34.3854 49.148 34.4359 49.1365C34.4472 49.1336 34.5201 49.122 34.5398 49.1192C34.9918 49.0672 35.295 49.1163 35.7104 49.2634C36.0613 49.3904 36.4066 49.6328 36.6958 49.9445C36.8277 50.0887 37.013 50.1551 37.1983 50.1522C37.3892 50.1638 37.5801 50.0974 37.7429 49.9531C37.771 49.93 37.7991 49.9041 37.8271 49.881C37.8356 49.8752 37.8552 49.8608 37.8692 49.8521C37.945 49.8002 38.0208 49.7482 38.0994 49.7021C38.1865 49.6501 38.2791 49.604 38.3717 49.5607C38.3746 49.5607 38.3746 49.5607 38.3746 49.5578C38.3802 49.5549 38.383 49.5549 38.3914 49.552C38.4335 49.5347 38.4756 49.5203 38.5205 49.5058C38.6946 49.4452 38.8686 49.4106 39.0483 49.3702C39.0511 49.3702 39.0511 49.3702 39.0567 49.3673C39.0595 49.3673 39.0623 49.3673 39.0651 49.3673C39.1101 49.3644 39.155 49.3587 39.1999 49.3558C39.301 49.35 39.4048 49.3471 39.5059 49.35C39.5845 49.3529 39.6631 49.3587 39.7417 49.3673C39.7473 49.3702 39.8905 49.3962 39.9242 49.4048C40.014 49.4279 40.101 49.4539 40.1881 49.4856C40.2049 49.4914 40.2274 49.5001 40.2386 49.503C40.2723 49.5174 40.306 49.5347 40.3369 49.552C40.4098 49.5895 40.4772 49.6357 40.5446 49.6819C40.5586 49.6934 40.5839 49.7165 40.6007 49.7309C40.6316 49.7598 40.6597 49.7915 40.6878 49.8262C40.6878 49.8262 40.6878 49.8262 40.6906 49.829C40.6934 49.8319 40.6934 49.8319 40.6962 49.8377C40.7186 49.8752 40.7355 49.9156 40.7608 49.9502C40.7608 49.9502 40.7608 49.9502 40.7636 49.9531C40.7636 49.956 40.7636 49.956 40.7636 49.956C40.7692 49.9849 40.8029 50.132 40.7832 49.9849C40.7916 50.0599 40.8113 50.132 40.8366 50.2042C40.8394 50.2157 40.845 50.2273 40.8478 50.2388C40.8534 50.2561 40.8618 50.2734 40.8702 50.2879C40.8787 50.3081 40.8843 50.3283 40.8955 50.3456C40.8983 50.3513 40.9039 50.3571 40.9095 50.3658C41.0274 50.5735 41.2212 50.7207 41.4878 50.7092C41.5608 50.7063 41.6394 50.6861 41.7124 50.6572C41.7602 50.6428 41.8079 50.6255 41.8556 50.6053C42.7315 50.1984 43.933 50.1551 44.8285 50.5216C45.6483 50.8563 46.3052 51.5547 46.6392 52.3886C46.9649 53.2024 47.0547 54.2152 46.5999 54.9973C46.4427 55.2685 46.1592 55.5311 45.7802 55.6581C45.3423 55.8052 44.8875 55.8428 44.4327 55.8918C44.3288 55.9034 44.2306 55.9322 44.1407 55.9755C41.4149 56.9855 38.922 58.8467 37.7289 61.6372C36.5414 64.4132 36.3533 67.749 37.0074 70.6953C37.6419 73.5549 39.3206 75.9529 41.5945 77.6872C43.5933 79.2079 46.0076 80.0938 48.4443 80.5238C50.5301 80.8932 52.6468 80.9682 54.7523 80.8499C54.5249 81.0577 54.2975 81.2683 54.0758 81.4818C53.2111 82.3158 52.3942 83.1959 51.6025 84.0991C47.181 83.5739 42.8999 81.7704 39.4273 78.9021C38.4111 78.0623 37.465 77.1389 36.5863 76.1491C35.9771 75.4624 34.9862 76.4839 35.5925 77.1707C38.8237 80.8153 43.0319 83.4903 47.6639 84.7859C48.5987 85.0485 49.5448 85.2448 50.5021 85.3948C49.9013 86.1191 49.3146 86.8521 48.7335 87.5937C48.3011 87.8592 47.852 88.0987 47.3944 88.3122C45.6202 88.1448 43.9077 87.5937 42.3188 86.7424C40.452 85.744 38.6693 84.4743 37.0804 83.0545C35.5308 81.6694 34.1608 80.0736 33.1839 78.2066C32.1592 76.2444 31.6118 74.0397 31.3591 71.838C31.0616 69.2293 31.1121 66.5947 31.1767 63.9745C31.1991 63.0454 29.7955 63.0454 29.773 63.9745C29.6551 68.7676 29.5961 73.7771 31.6202 78.2124C33.5011 82.3331 37.1983 85.4121 40.9713 87.6254C42.1476 88.3151 43.3856 88.8663 44.6713 89.2443C42.7736 89.68 40.786 89.7204 38.863 89.3626C36.6425 88.9528 34.5847 88.0756 32.701 86.8751C32.6814 86.8463 32.6645 86.8174 32.6393 86.7886C30.4018 84.2203 28.8634 81.0807 28.1476 77.7161C27.9539 76.81 26.6008 77.1938 26.7945 78.0999C27.2184 80.0967 27.9286 82.0128 28.8803 83.7961C27.6395 82.5957 26.4744 81.3174 25.3178 80.0332C24.703 79.3522 23.7121 80.3738 24.324 81.0548C26.8675 83.8712 29.4811 86.7338 32.7824 88.6239C36.0361 90.488 39.8344 91.4056 43.5456 90.9064C44.6376 90.7592 45.7072 90.4995 46.7403 90.1302C45.8027 91.3191 44.8566 92.4993 43.86 93.6391C42.8073 94.8424 41.7012 96.066 40.2779 96.8076C38.6525 97.6502 36.7491 97.5636 35.0395 97.0529C33.1979 96.5017 31.5781 95.4138 29.9527 94.4009C29.7449 94.2711 29.54 94.2682 29.3688 94.3432C27.6423 94.9838 25.6912 94.955 23.9198 94.5135C22.1709 94.0777 20.6998 92.8167 19.4422 91.5528C19.3551 91.4662 19.2625 91.4114 19.1699 91.3797C19.0435 91.3248 18.8919 91.3104 18.7179 91.3681C18.0975 91.5701 17.4265 91.4807 16.8566 91.1575C16.2138 90.7939 15.8432 90.1735 15.6607 89.4549C15.2144 87.6918 16.0257 85.9373 16.8679 84.4483C17.1542 83.9404 16.7752 83.4643 16.3429 83.3835C16.1689 83.3056 15.9611 83.294 15.745 83.4066C15.1133 83.7355 14.2122 83.9924 13.5075 83.7673C12.8478 83.5537 12.9349 82.5467 13.0443 82.0013C13.2184 81.15 13.6339 80.394 14.069 79.6552C14.5827 78.7895 15.1077 77.9296 15.6299 77.0668C16.1071 76.2761 14.8943 75.5489 14.4171 76.3396C13.7995 77.3669 13.151 78.3798 12.5699 79.4273C12.0169 80.4228 11.5593 81.5367 11.5761 82.7025C11.5902 83.8221 12.0983 84.9187 13.2409 85.187C13.7855 85.314 14.3553 85.3025 14.9112 85.1986C14.2234 86.7684 13.8388 88.494 14.4059 90.1706C14.7399 91.1546 15.3576 92.0087 16.2812 92.4762C16.7865 92.733 17.3395 92.886 17.901 92.9119C17.8392 93.0274 17.7774 93.1428 17.7073 93.2553C17.682 93.2957 17.4293 93.7026 17.3928 93.7286C17.4125 93.7055 17.4686 93.6276 17.3872 93.7344C17.3592 93.769 17.3339 93.8036 17.3058 93.8354C17.2469 93.9104 17.1823 93.9825 17.1205 94.0547C16.8791 94.3288 16.6152 94.5741 16.3373 94.8078C16.3345 94.8078 16.3345 94.8107 16.3345 94.8107C16.2924 94.8424 16.2531 94.8742 16.211 94.903C16.1408 94.955 16.0706 95.0041 15.9976 95.0502C15.8404 95.157 15.6776 95.2551 15.512 95.3446C15.1891 95.5235 15.06 96.0111 15.2593 96.3315C15.4727 96.6691 15.8741 96.7816 16.2194 96.5912C17.5472 95.8611 18.5859 94.7126 19.2569 93.3448C20.5033 94.4875 21.9322 95.5004 23.552 95.9044C25.0568 96.2795 26.7046 96.4065 28.2599 96.1352C26.7692 98.7525 24.5627 100.85 22.3954 102.893C21.7273 103.523 22.7239 104.541 23.3892 103.915C25.8568 101.592 28.3862 99.1652 29.905 96.0573C31.171 96.8451 32.4455 97.6213 33.838 98.161C35.4718 98.7929 37.2601 99.0613 38.9894 98.7554C40.6176 98.4668 42.024 97.5405 43.2228 96.4065C44.4973 95.2032 45.6146 93.8094 46.7178 92.4416C47.4646 91.5153 48.2029 90.5659 48.944 89.6136C48.9665 89.5906 48.9833 89.5646 49.0002 89.5415C52.4503 85.1178 56.0296 80.6363 61.0715 78.1576C64.314 76.5647 68.1347 76.0164 71.5708 77.2515C71.9273 77.3813 72.3372 77.1043 72.4355 76.7465C72.5421 76.3483 72.3035 75.9875 71.9442 75.8577C71.4248 75.6701 70.8971 75.5258 70.3609 75.4133C72.3512 74.3254 74.0805 72.7123 75.6077 71.0358C77.7918 68.632 79.959 65.8502 83.0414 64.6469C84.7791 63.9659 86.6348 63.9168 88.3725 64.6325C88.4679 64.6729 88.5662 64.6758 88.6616 64.6584C88.8834 64.67 89.108 64.569 89.254 64.3093C90.0063 62.953 91.3089 62.0036 92.8024 61.7237C94.3436 61.4323 95.9774 61.9719 97.1004 63.08C97.1088 63.0886 97.1172 63.0944 97.1256 63.1002C97.1312 63.1088 97.1368 63.1146 97.1453 63.1233C97.3923 63.3772 97.9004 63.4292 98.1391 63.1233C98.1896 63.0569 98.2429 62.9963 98.3019 62.9386C98.3271 62.9126 98.3524 62.8895 98.3805 62.8665C98.3412 62.8953 98.3412 62.8953 98.3805 62.8665C98.5124 62.7683 98.6556 62.6933 98.7988 62.6154C98.8718 62.575 98.9812 62.5346 99.1216 62.4855C99.2592 62.4394 99.3995 62.3961 99.5399 62.3615C100.085 62.2258 100.691 62.3701 101.073 62.7655C101.098 62.7914 101.202 62.9097 101.191 62.8924C101.188 62.8867 101.283 63.028 101.308 63.0684C101.348 63.1348 101.384 63.2012 101.418 63.2704C101.424 63.282 101.471 63.3916 101.48 63.4061C101.533 63.5417 101.575 63.686 101.609 63.8274C101.626 63.9024 101.64 63.9803 101.657 64.0553C101.662 64.0929 101.665 64.1159 101.668 64.1246C101.671 64.1535 101.673 64.1823 101.676 64.2083C101.746 65.0394 101.567 65.8502 101.39 66.6553C101.306 67.0362 101.502 67.4373 101.881 67.5441C102.235 67.6451 102.662 67.4229 102.746 67.0391C102.892 66.3754 103.029 65.6453 103.066 64.921C103.212 64.8806 103.358 64.8431 103.509 64.8114C103.535 64.8056 103.56 64.8027 103.585 64.797C103.54 64.8027 103.543 64.7998 103.591 64.797C103.655 64.7883 103.72 64.7825 103.785 64.7796C103.916 64.771 104.048 64.7681 104.18 64.7739C104.262 64.7768 104.343 64.7825 104.422 64.7912C104.447 64.7941 104.47 64.797 104.495 64.7998C104.498 64.7998 104.498 64.7998 104.5 64.7998C104.624 64.82 104.747 64.8489 104.868 64.8835C104.969 64.9124 105.067 64.947 105.163 64.9874C105.188 64.999 105.272 65.0394 105.275 65.0422C105.326 65.0682 105.376 65.0971 105.424 65.1259C105.475 65.1548 105.522 65.1865 105.57 65.2183C105.578 65.224 105.635 65.2673 105.663 65.2875C105.688 65.3106 105.744 65.3568 105.75 65.3625C105.8 65.4087 105.848 65.4578 105.896 65.5097C105.901 65.5155 105.943 65.5645 105.969 65.5934C105.985 65.6165 106.036 65.6857 106.042 65.6944C106.078 65.7521 106.115 65.8127 106.145 65.8762C106.151 65.8849 106.179 65.9483 106.196 65.9801C106.207 66.0118 106.235 66.084 106.238 66.0926C106.261 66.159 106.277 66.2282 106.294 66.2975C106.3 66.3292 106.305 66.3581 106.311 66.3898C106.305 66.3783 106.322 66.511 106.322 66.5226C106.325 66.5803 106.325 66.638 106.322 66.6957C106.322 66.7217 106.317 66.765 106.317 66.7823C106.294 66.9093 106.261 67.0305 106.216 67.1488C106.109 67.4373 106.275 67.7894 106.527 67.9539C106.53 67.9568 106.533 67.9568 106.536 67.9596C106.561 67.9741 106.586 67.9885 106.611 68C106.743 68.0635 106.901 68.0866 107.08 68.0347C107.254 67.9856 107.456 67.9741 107.639 68.0145C107.894 68.0693 108.097 68.1501 108.313 68.2771C108.742 68.531 109.062 68.9061 109.284 69.388C109.598 70.0691 109.66 70.8309 109.627 71.5898C108.734 70.9694 107.6 70.6924 106.536 70.8366C105.522 70.9752 104.615 71.5292 103.975 72.317C103.877 72.1467 103.77 71.9823 103.647 71.8235C103.175 71.2233 102.513 70.7587 101.789 70.5423C101.862 70.1585 101.856 69.7574 101.777 69.3765C101.631 68.6551 101.171 68.0549 100.593 67.6393C99.4669 66.8314 97.9594 66.9612 96.8112 67.648C96.5445 67.4749 96.2554 67.3392 95.9466 67.2498C94.3548 66.7852 92.8052 67.5095 91.4521 68.3117C90.6688 68.7763 91.3763 70.0229 92.1595 69.5583C92.7041 69.2351 93.2544 68.9177 93.8551 68.7243C94.3829 68.5541 94.9022 68.4819 95.4076 68.6003C95.8595 68.7041 96.2413 68.8917 96.5052 69.2957C96.8084 69.7574 96.8786 70.3086 96.8786 70.854C96.8814 71.7831 98.285 71.7831 98.2822 70.854C98.2822 70.1297 98.1615 69.3736 97.8134 68.7359C97.8246 68.7301 97.8359 68.7243 97.8443 68.7215C97.8499 68.7186 97.8555 68.7157 97.8667 68.7128C98.0071 68.658 98.1475 68.6118 98.2935 68.5772C98.3468 68.5656 98.4001 68.5541 98.4563 68.5454C98.4703 68.5454 98.5573 68.531 98.5798 68.531C98.7174 68.5223 98.8521 68.5252 98.9897 68.5339C99.0037 68.5339 99.0121 68.5339 99.0205 68.5339C99.0262 68.5368 99.0318 68.5368 99.0402 68.5368C99.0991 68.5483 99.1581 68.5599 99.2142 68.5743C99.3181 68.6003 99.4164 68.6349 99.5174 68.6753C99.5455 68.6868 99.5904 68.7099 99.6045 68.7186C99.6662 68.7503 99.7252 68.7878 99.7841 68.8253C99.7925 68.8311 99.8403 68.8629 99.8712 68.8831C99.8908 68.9004 99.961 68.9581 99.9722 68.9667C100.017 69.0071 100.059 69.0504 100.099 69.0937C100.113 69.111 100.174 69.1889 100.188 69.2034C100.245 69.2899 100.295 69.3794 100.343 69.4717C100.348 69.4804 100.348 69.4833 100.351 69.489C100.354 69.4977 100.357 69.5092 100.36 69.5266C100.376 69.5872 100.396 69.642 100.41 69.7026C100.413 69.717 100.427 69.7978 100.433 69.818C100.435 69.8584 100.441 69.8959 100.441 69.9363C100.444 69.9969 100.441 70.0575 100.438 70.121C100.435 70.1499 100.433 70.1816 100.427 70.2047C100.407 70.2941 100.385 70.3807 100.357 70.4673C100.346 70.4875 100.306 70.5741 100.295 70.5943C100.261 70.6548 100.222 70.7126 100.18 70.7703C100.082 70.9088 100.062 71.0877 100.096 71.2579C100.099 71.2666 100.099 71.2753 100.101 71.2839C100.11 71.3157 100.118 71.3474 100.129 71.3792C100.135 71.3936 100.138 71.408 100.143 71.4195C100.16 71.4571 100.18 71.4946 100.2 71.5292C100.2 71.5321 100.202 71.5321 100.202 71.535C100.25 71.61 100.309 71.6735 100.376 71.7197C100.388 71.7283 100.399 71.737 100.41 71.7456C100.416 71.7485 100.421 71.7543 100.427 71.7572C100.433 71.7601 100.438 71.7601 100.444 71.7629C100.545 71.8235 100.66 71.8611 100.781 71.8553C102.022 71.7976 103.144 73.0355 103.088 74.2994C103.063 74.8564 102.788 75.4854 102.378 75.9154C101.94 76.38 101.345 76.6426 100.725 76.6599C99.9891 76.6801 99.2564 76.4204 98.7061 75.901C98.5265 75.7307 98.285 75.6644 98.0605 75.7105C97.9397 75.7307 97.8246 75.7913 97.7236 75.8923C97.7208 75.8952 97.718 75.8981 97.7152 75.901C97.7152 75.901 97.7151 75.9039 97.7123 75.9039C97.6927 75.9241 97.6758 75.95 97.659 75.9731C97.6478 75.9904 97.6337 76.0049 97.6225 76.0222C97.6169 76.0308 97.6113 76.0366 97.6057 76.0481C95.5956 79.5109 93.4172 84.9533 96.873 88.2574C100.045 91.2902 104.994 90.361 108.593 88.7335C110.654 87.8043 112.532 86.451 114.107 84.8004C114.758 84.1338 113.767 83.1122 113.133 83.7788Z"/>
</mask>
<path d="M113.133 83.7788C110.632 86.4048 107.268 88.2227 103.709 88.6989C101.895 88.9413 99.9806 88.7681 98.4366 87.6889C97.791 87.2359 97.2576 86.6241 96.9095 85.9056C96.4968 85.0485 96.4491 84.053 96.5221 83.1151C96.6793 81.0894 97.4821 79.2137 98.4451 77.4621C99.902 78.3538 101.803 78.3249 103.15 77.162C103.846 76.5618 104.332 75.6586 104.461 74.7352C104.475 74.6371 104.481 74.5418 104.486 74.4437C104.742 73.327 105.629 72.4036 106.735 72.2535C107.746 72.115 108.964 72.5709 109.539 73.4857C109.57 73.5463 109.61 73.6011 109.655 73.6502C109.753 73.7685 109.874 73.8377 109.997 73.8666C110.059 73.8868 110.121 73.8983 110.182 73.8983C110.427 73.8983 110.606 73.7829 110.727 73.6098C110.839 73.4799 110.904 73.3125 110.89 73.1279C111.081 71.5379 111.196 69.8469 110.379 68.4069C109.84 67.4546 108.824 66.6957 107.74 66.5659C107.726 65.5213 107.122 64.5199 106.261 63.9486C105.292 63.308 104.088 63.2098 102.979 63.4609C102.836 62.777 102.53 62.1479 101.968 61.64C101.227 60.9706 100.245 60.7397 99.2844 60.9446C98.7258 61.0658 98.1194 61.288 97.6337 61.6458C96.2048 60.4858 94.3548 60.0039 92.5413 60.3155C90.8541 60.6041 89.3213 61.6574 88.35 63.0973C86.8257 62.5692 85.1637 62.5346 83.6085 62.9501C82.0055 63.3772 80.557 64.2487 79.2572 65.2875C76.5538 67.4489 74.6448 70.4702 71.9498 72.6344C70.5209 73.78 68.873 74.7381 67.0932 75.1392C65.4509 75.1998 63.8143 75.5403 62.2702 76.1001C60.2434 76.8359 58.3793 77.9383 56.6641 79.257C52.2342 79.7389 47.3719 79.5946 43.4389 77.214C41.3868 75.9731 39.6154 74.0772 38.7816 71.7572C37.8496 69.1658 37.8187 66.1301 38.5683 63.484C38.9894 62.0008 39.7361 60.6849 40.8337 59.6259C41.9118 58.5841 43.2396 57.8339 44.6292 57.3318C44.6404 57.3289 44.6517 57.3202 44.6629 57.3173C45.5753 57.2163 46.4961 57.0951 47.226 56.4632C47.24 56.4516 47.2512 56.4372 47.2653 56.4257C47.8716 56.7489 48.2759 57.4414 48.3264 58.2032C48.3994 59.294 47.9222 60.2751 47.3102 61.1351C47.0856 61.4496 47.2596 61.9402 47.5628 62.1219C47.6639 62.1825 47.765 62.2114 47.866 62.2172C47.9643 62.2374 48.0653 62.2345 48.1636 62.1941C50.0754 61.4582 52.1303 60.4598 53.4497 58.7977C54.0982 57.981 54.4547 57.0201 54.407 55.9553C54.3677 55.1011 54.1235 54.2672 53.7445 53.5054C54.5277 52.6743 54.9404 51.4883 54.5081 50.3456C54.2554 49.6819 53.795 49.1596 53.1606 48.8595C52.7367 48.6575 52.2791 48.5334 51.8159 48.4901C51.8187 48.1727 51.8047 47.8581 51.7485 47.5407C51.6503 46.9867 51.3779 46.4644 50.9905 46.069C50.3308 45.3967 49.3932 45.1225 48.4892 45.2351C48.2001 44.4444 47.7144 43.7778 47.0014 43.2901C46.0581 42.6437 44.9015 42.335 43.7842 42.208C42.6781 42.0839 41.558 42.2022 40.539 42.6755C39.6715 43.0766 38.8546 43.671 38.1752 44.3578C38.15 44.3578 38.1247 44.3578 38.1022 44.3578C36.2663 44.3578 34.4163 44.5425 32.6308 44.984C29.4361 45.7776 26.4379 47.4801 24.3493 50.1234C23.1422 51.6528 22.2102 53.3669 21.2922 55.0896C21.2922 55.0925 21.2922 55.0925 21.2894 55.0954C18.9733 55.8254 16.8707 57.3606 15.2172 59.1497C12.5896 61.9921 10.8041 65.4895 8.4881 68.5801C7.23605 70.2509 5.80152 71.812 4.06942 72.9576C3.31145 73.4597 4.01608 74.7092 4.77686 74.2042C7.90699 72.1323 10.0433 68.9523 12.0758 65.8243C14.0943 62.7193 16.1829 59.4556 19.3888 57.5251C21.0929 56.4978 23.0215 55.9236 25.0034 56.1227C25.3824 56.1602 25.7052 55.7648 25.7052 55.4013C25.7052 54.9799 25.3824 54.7173 25.0034 54.6798C24.3634 54.6135 23.7289 54.6279 23.1057 54.7C24.4251 52.2992 25.9018 50.0108 28.2009 48.4641C30.8622 46.6721 34.0289 45.9247 37.1758 45.8122C38.9725 45.7487 40.9292 45.7516 42.608 46.5048C42.9561 46.6606 43.3603 46.6086 43.5681 46.245C43.7421 45.9392 43.6663 45.414 43.3154 45.2582C42.3413 44.8195 41.3194 44.5858 40.2779 44.4646C40.5278 44.3001 40.7804 44.1443 41.0471 44.0087C41.8191 43.6191 42.6781 43.5527 43.5231 43.6191C44.4018 43.6884 45.3226 43.9365 46.0862 44.3982C46.7964 44.8282 47.1445 45.4515 47.3214 46.2652C47.386 46.5654 47.5797 46.7212 47.7986 46.7674C47.9194 46.8106 48.0513 46.8164 48.1832 46.7702C48.2871 46.7327 48.391 46.701 48.4977 46.6779C48.5426 46.6664 48.61 46.6404 48.6577 46.6462C48.5622 46.6577 48.5538 46.6606 48.6324 46.649C48.6605 46.6462 48.6858 46.6433 48.7138 46.6433C48.8233 46.6346 48.9328 46.6346 49.0395 46.6433C49.0563 46.6433 49.1461 46.6577 49.163 46.6577C49.1911 46.6635 49.2219 46.6692 49.2276 46.6721C49.2669 46.6808 49.5392 46.7327 49.5504 46.7731C49.5223 46.7616 49.4971 46.75 49.469 46.7385C49.4971 46.75 49.5251 46.7645 49.5532 46.7789C49.5953 46.7991 49.6374 46.8222 49.6767 46.8482C49.716 46.8741 49.7581 46.8972 49.7974 46.9232C49.8115 46.9318 49.8227 46.9405 49.8367 46.9492C49.8985 46.9953 49.8873 46.9867 49.8087 46.9232C49.876 46.9434 49.9687 47.0646 50.0164 47.1165C50.0501 47.1511 50.0782 47.1887 50.1119 47.2233C50.1147 47.2262 50.1147 47.2262 50.1147 47.2291C50.1652 47.3099 50.2129 47.3935 50.2578 47.4772C50.2635 47.4859 50.2663 47.4888 50.2691 47.4945C50.2691 47.4974 50.2691 47.4974 50.2691 47.4974C50.2859 47.5494 50.3056 47.5984 50.3196 47.6504C50.3505 47.7542 50.3701 47.861 50.3898 47.9678C50.3898 47.9707 50.3898 47.9707 50.3898 47.9736C50.3898 47.9793 50.3898 47.9822 50.3898 47.9938C50.3926 48.0486 50.3982 48.1034 50.401 48.1582C50.4066 48.2679 50.4066 48.3804 50.4038 48.4901C50.401 48.6777 50.387 48.8681 50.3729 49.0557C50.3645 49.1047 50.3589 49.1567 50.3617 49.2086C50.3449 49.4077 50.4431 49.5982 50.5891 49.7338C50.7126 49.8666 50.8754 49.9502 51.0635 49.93C51.3134 49.9041 51.5604 49.9041 51.8103 49.93C51.8355 49.9358 51.8973 49.9445 51.9169 49.9474C51.9815 49.9618 52.0461 49.9762 52.1106 49.9935C52.2257 50.0253 52.338 50.0657 52.4503 50.1061C52.4756 50.1176 52.4981 50.1291 52.5233 50.1407C52.5823 50.1695 52.6384 50.2013 52.6918 50.2359C52.7367 50.2648 52.7816 50.2936 52.8265 50.3225C52.8349 50.3283 52.8405 50.3311 52.8462 50.334C52.8518 50.3398 52.8546 50.3456 52.8658 50.3571C52.9051 50.4004 52.9472 50.4408 52.9865 50.4841C52.995 50.4927 53.0006 50.4985 53.0062 50.5043C53.009 50.5101 53.0118 50.5158 53.0202 50.5274C53.0736 50.6139 53.1241 50.7034 53.1662 50.7957C53.1718 50.813 53.1887 50.8592 53.1971 50.891C53.2139 50.9487 53.2279 51.0064 53.242 51.0641C53.2448 51.0756 53.2504 51.1218 53.256 51.1536C53.2588 51.1911 53.2616 51.2488 53.2616 51.2603C53.2644 51.3209 53.2616 51.3815 53.2588 51.4392C53.2588 51.4594 53.256 51.4768 53.256 51.4883C53.2364 51.6008 53.2083 51.7134 53.1718 51.823C53.1606 51.8577 53.1241 51.9356 53.1297 51.9269C53.11 51.9673 53.0904 52.0106 53.0679 52.051C53.0371 52.1058 53.0062 52.1606 52.9725 52.2126C52.9669 52.2212 52.9248 52.279 52.9079 52.302C52.8377 52.3886 52.7647 52.4723 52.6833 52.5502C52.6468 52.5877 52.6047 52.6195 52.5682 52.657C52.5598 52.6656 52.5514 52.6714 52.5486 52.6743C52.5289 52.6887 52.5093 52.7032 52.4896 52.7176C52.4223 52.7666 52.3661 52.8244 52.3128 52.8907C52.1528 53.0639 52.0742 53.3091 52.1724 53.5717C52.1893 53.6179 52.2089 53.6612 52.237 53.7045C52.644 54.3768 52.9528 55.1415 52.9893 55.9409C53.0258 56.7575 52.7535 57.4385 52.2117 58.0359C51.4369 58.89 50.4656 59.5364 49.4381 60.0558C49.6795 59.3373 49.7806 58.5755 49.6739 57.7963C49.5251 56.7258 48.93 55.7591 48.0429 55.2166C48.2254 54.7347 48.3096 54.2066 48.304 53.7045C48.2815 51.5662 46.8779 49.5809 44.8566 49.0095C43.9049 48.7411 42.8353 48.7902 41.8724 49.0817C41.7237 48.8421 41.5243 48.6315 41.2745 48.4526C40.8141 48.1236 40.2554 47.9764 39.7052 47.9216C38.849 47.8408 37.9956 48.0832 37.2741 48.5449C36.4824 47.9014 35.4437 47.5638 34.4359 47.6879C33.2204 47.8408 32.1367 48.5536 31.5051 49.6357C31.3086 49.9704 31.4321 50.4264 31.7578 50.6226C32.089 50.8217 32.5213 50.6976 32.7179 50.3629C32.9031 50.0426 33.1951 49.728 33.4843 49.5347C33.5797 49.4712 33.678 49.4106 33.7818 49.3587C33.8211 49.3385 33.8632 49.3183 33.9025 49.2981C33.9138 49.2923 33.9503 49.2779 33.9615 49.275C34.0682 49.2375 34.1777 49.2 34.2871 49.1711C34.3377 49.1596 34.3854 49.148 34.4359 49.1365C34.4472 49.1336 34.5201 49.122 34.5398 49.1192C34.9918 49.0672 35.295 49.1163 35.7104 49.2634C36.0613 49.3904 36.4066 49.6328 36.6958 49.9445C36.8277 50.0887 37.013 50.1551 37.1983 50.1522C37.3892 50.1638 37.5801 50.0974 37.7429 49.9531C37.771 49.93 37.7991 49.9041 37.8271 49.881C37.8356 49.8752 37.8552 49.8608 37.8692 49.8521C37.945 49.8002 38.0208 49.7482 38.0994 49.7021C38.1865 49.6501 38.2791 49.604 38.3717 49.5607C38.3746 49.5607 38.3746 49.5607 38.3746 49.5578C38.3802 49.5549 38.383 49.5549 38.3914 49.552C38.4335 49.5347 38.4756 49.5203 38.5205 49.5058C38.6946 49.4452 38.8686 49.4106 39.0483 49.3702C39.0511 49.3702 39.0511 49.3702 39.0567 49.3673C39.0595 49.3673 39.0623 49.3673 39.0651 49.3673C39.1101 49.3644 39.155 49.3587 39.1999 49.3558C39.301 49.35 39.4048 49.3471 39.5059 49.35C39.5845 49.3529 39.6631 49.3587 39.7417 49.3673C39.7473 49.3702 39.8905 49.3962 39.9242 49.4048C40.014 49.4279 40.101 49.4539 40.1881 49.4856C40.2049 49.4914 40.2274 49.5001 40.2386 49.503C40.2723 49.5174 40.306 49.5347 40.3369 49.552C40.4098 49.5895 40.4772 49.6357 40.5446 49.6819C40.5586 49.6934 40.5839 49.7165 40.6007 49.7309C40.6316 49.7598 40.6597 49.7915 40.6878 49.8262C40.6878 49.8262 40.6878 49.8262 40.6906 49.829C40.6934 49.8319 40.6934 49.8319 40.6962 49.8377C40.7186 49.8752 40.7355 49.9156 40.7608 49.9502C40.7608 49.9502 40.7608 49.9502 40.7636 49.9531C40.7636 49.956 40.7636 49.956 40.7636 49.956C40.7692 49.9849 40.8029 50.132 40.7832 49.9849C40.7916 50.0599 40.8113 50.132 40.8366 50.2042C40.8394 50.2157 40.845 50.2273 40.8478 50.2388C40.8534 50.2561 40.8618 50.2734 40.8702 50.2879C40.8787 50.3081 40.8843 50.3283 40.8955 50.3456C40.8983 50.3513 40.9039 50.3571 40.9095 50.3658C41.0274 50.5735 41.2212 50.7207 41.4878 50.7092C41.5608 50.7063 41.6394 50.6861 41.7124 50.6572C41.7602 50.6428 41.8079 50.6255 41.8556 50.6053C42.7315 50.1984 43.933 50.1551 44.8285 50.5216C45.6483 50.8563 46.3052 51.5547 46.6392 52.3886C46.9649 53.2024 47.0547 54.2152 46.5999 54.9973C46.4427 55.2685 46.1592 55.5311 45.7802 55.6581C45.3423 55.8052 44.8875 55.8428 44.4327 55.8918C44.3288 55.9034 44.2306 55.9322 44.1407 55.9755C41.4149 56.9855 38.922 58.8467 37.7289 61.6372C36.5414 64.4132 36.3533 67.749 37.0074 70.6953C37.6419 73.5549 39.3206 75.9529 41.5945 77.6872C43.5933 79.2079 46.0076 80.0938 48.4443 80.5238C50.5301 80.8932 52.6468 80.9682 54.7523 80.8499C54.5249 81.0577 54.2975 81.2683 54.0758 81.4818C53.2111 82.3158 52.3942 83.1959 51.6025 84.0991C47.181 83.5739 42.8999 81.7704 39.4273 78.9021C38.4111 78.0623 37.465 77.1389 36.5863 76.1491C35.9771 75.4624 34.9862 76.4839 35.5925 77.1707C38.8237 80.8153 43.0319 83.4903 47.6639 84.7859C48.5987 85.0485 49.5448 85.2448 50.5021 85.3948C49.9013 86.1191 49.3146 86.8521 48.7335 87.5937C48.3011 87.8592 47.852 88.0987 47.3944 88.3122C45.6202 88.1448 43.9077 87.5937 42.3188 86.7424C40.452 85.744 38.6693 84.4743 37.0804 83.0545C35.5308 81.6694 34.1608 80.0736 33.1839 78.2066C32.1592 76.2444 31.6118 74.0397 31.3591 71.838C31.0616 69.2293 31.1121 66.5947 31.1767 63.9745C31.1991 63.0454 29.7955 63.0454 29.773 63.9745C29.6551 68.7676 29.5961 73.7771 31.6202 78.2124C33.5011 82.3331 37.1983 85.4121 40.9713 87.6254C42.1476 88.3151 43.3856 88.8663 44.6713 89.2443C42.7736 89.68 40.786 89.7204 38.863 89.3626C36.6425 88.9528 34.5847 88.0756 32.701 86.8751C32.6814 86.8463 32.6645 86.8174 32.6393 86.7886C30.4018 84.2203 28.8634 81.0807 28.1476 77.7161C27.9539 76.81 26.6008 77.1938 26.7945 78.0999C27.2184 80.0967 27.9286 82.0128 28.8803 83.7961C27.6395 82.5957 26.4744 81.3174 25.3178 80.0332C24.703 79.3522 23.7121 80.3738 24.324 81.0548C26.8675 83.8712 29.4811 86.7338 32.7824 88.6239C36.0361 90.488 39.8344 91.4056 43.5456 90.9064C44.6376 90.7592 45.7072 90.4995 46.7403 90.1302C45.8027 91.3191 44.8566 92.4993 43.86 93.6391C42.8073 94.8424 41.7012 96.066 40.2779 96.8076C38.6525 97.6502 36.7491 97.5636 35.0395 97.0529C33.1979 96.5017 31.5781 95.4138 29.9527 94.4009C29.7449 94.2711 29.54 94.2682 29.3688 94.3432C27.6423 94.9838 25.6912 94.955 23.9198 94.5135C22.1709 94.0777 20.6998 92.8167 19.4422 91.5528C19.3551 91.4662 19.2625 91.4114 19.1699 91.3797C19.0435 91.3248 18.8919 91.3104 18.7179 91.3681C18.0975 91.5701 17.4265 91.4807 16.8566 91.1575C16.2138 90.7939 15.8432 90.1735 15.6607 89.4549C15.2144 87.6918 16.0257 85.9373 16.8679 84.4483C17.1542 83.9404 16.7752 83.4643 16.3429 83.3835C16.1689 83.3056 15.9611 83.294 15.745 83.4066C15.1133 83.7355 14.2122 83.9924 13.5075 83.7673C12.8478 83.5537 12.9349 82.5467 13.0443 82.0013C13.2184 81.15 13.6339 80.394 14.069 79.6552C14.5827 78.7895 15.1077 77.9296 15.6299 77.0668C16.1071 76.2761 14.8943 75.5489 14.4171 76.3396C13.7995 77.3669 13.151 78.3798 12.5699 79.4273C12.0169 80.4228 11.5593 81.5367 11.5761 82.7025C11.5902 83.8221 12.0983 84.9187 13.2409 85.187C13.7855 85.314 14.3553 85.3025 14.9112 85.1986C14.2234 86.7684 13.8388 88.494 14.4059 90.1706C14.7399 91.1546 15.3576 92.0087 16.2812 92.4762C16.7865 92.733 17.3395 92.886 17.901 92.9119C17.8392 93.0274 17.7774 93.1428 17.7073 93.2553C17.682 93.2957 17.4293 93.7026 17.3928 93.7286C17.4125 93.7055 17.4686 93.6276 17.3872 93.7344C17.3592 93.769 17.3339 93.8036 17.3058 93.8354C17.2469 93.9104 17.1823 93.9825 17.1205 94.0547C16.8791 94.3288 16.6152 94.5741 16.3373 94.8078C16.3345 94.8078 16.3345 94.8107 16.3345 94.8107C16.2924 94.8424 16.2531 94.8742 16.211 94.903C16.1408 94.955 16.0706 95.0041 15.9976 95.0502C15.8404 95.157 15.6776 95.2551 15.512 95.3446C15.1891 95.5235 15.06 96.0111 15.2593 96.3315C15.4727 96.6691 15.8741 96.7816 16.2194 96.5912C17.5472 95.8611 18.5859 94.7126 19.2569 93.3448C20.5033 94.4875 21.9322 95.5004 23.552 95.9044C25.0568 96.2795 26.7046 96.4065 28.2599 96.1352C26.7692 98.7525 24.5627 100.85 22.3954 102.893C21.7273 103.523 22.7239 104.541 23.3892 103.915C25.8568 101.592 28.3862 99.1652 29.905 96.0573C31.171 96.8451 32.4455 97.6213 33.838 98.161C35.4718 98.7929 37.2601 99.0613 38.9894 98.7554C40.6176 98.4668 42.024 97.5405 43.2228 96.4065C44.4973 95.2032 45.6146 93.8094 46.7178 92.4416C47.4646 91.5153 48.2029 90.5659 48.944 89.6136C48.9665 89.5906 48.9833 89.5646 49.0002 89.5415C52.4503 85.1178 56.0296 80.6363 61.0715 78.1576C64.314 76.5647 68.1347 76.0164 71.5708 77.2515C71.9273 77.3813 72.3372 77.1043 72.4355 76.7465C72.5421 76.3483 72.3035 75.9875 71.9442 75.8577C71.4248 75.6701 70.8971 75.5258 70.3609 75.4133C72.3512 74.3254 74.0805 72.7123 75.6077 71.0358C77.7918 68.632 79.959 65.8502 83.0414 64.6469C84.7791 63.9659 86.6348 63.9168 88.3725 64.6325C88.4679 64.6729 88.5662 64.6758 88.6616 64.6584C88.8834 64.67 89.108 64.569 89.254 64.3093C90.0063 62.953 91.3089 62.0036 92.8024 61.7237C94.3436 61.4323 95.9774 61.9719 97.1004 63.08C97.1088 63.0886 97.1172 63.0944 97.1256 63.1002C97.1312 63.1088 97.1368 63.1146 97.1453 63.1233C97.3923 63.3772 97.9004 63.4292 98.1391 63.1233C98.1896 63.0569 98.2429 62.9963 98.3019 62.9386C98.3271 62.9126 98.3524 62.8895 98.3805 62.8665C98.3412 62.8953 98.3412 62.8953 98.3805 62.8665C98.5124 62.7683 98.6556 62.6933 98.7988 62.6154C98.8718 62.575 98.9812 62.5346 99.1216 62.4855C99.2592 62.4394 99.3995 62.3961 99.5399 62.3615C100.085 62.2258 100.691 62.3701 101.073 62.7655C101.098 62.7914 101.202 62.9097 101.191 62.8924C101.188 62.8867 101.283 63.028 101.308 63.0684C101.348 63.1348 101.384 63.2012 101.418 63.2704C101.424 63.282 101.471 63.3916 101.48 63.4061C101.533 63.5417 101.575 63.686 101.609 63.8274C101.626 63.9024 101.64 63.9803 101.657 64.0553C101.662 64.0929 101.665 64.1159 101.668 64.1246C101.671 64.1535 101.673 64.1823 101.676 64.2083C101.746 65.0394 101.567 65.8502 101.39 66.6553C101.306 67.0362 101.502 67.4373 101.881 67.5441C102.235 67.6451 102.662 67.4229 102.746 67.0391C102.892 66.3754 103.029 65.6453 103.066 64.921C103.212 64.8806 103.358 64.8431 103.509 64.8114C103.535 64.8056 103.56 64.8027 103.585 64.797C103.54 64.8027 103.543 64.7998 103.591 64.797C103.655 64.7883 103.72 64.7825 103.785 64.7796C103.916 64.771 104.048 64.7681 104.18 64.7739C104.262 64.7768 104.343 64.7825 104.422 64.7912C104.447 64.7941 104.47 64.797 104.495 64.7998C104.498 64.7998 104.498 64.7998 104.5 64.7998C104.624 64.82 104.747 64.8489 104.868 64.8835C104.969 64.9124 105.067 64.947 105.163 64.9874C105.188 64.999 105.272 65.0394 105.275 65.0422C105.326 65.0682 105.376 65.0971 105.424 65.1259C105.475 65.1548 105.522 65.1865 105.57 65.2183C105.578 65.224 105.635 65.2673 105.663 65.2875C105.688 65.3106 105.744 65.3568 105.75 65.3625C105.8 65.4087 105.848 65.4578 105.896 65.5097C105.901 65.5155 105.943 65.5645 105.969 65.5934C105.985 65.6165 106.036 65.6857 106.042 65.6944C106.078 65.7521 106.115 65.8127 106.145 65.8762C106.151 65.8849 106.179 65.9483 106.196 65.9801C106.207 66.0118 106.235 66.084 106.238 66.0926C106.261 66.159 106.277 66.2282 106.294 66.2975C106.3 66.3292 106.305 66.3581 106.311 66.3898C106.305 66.3783 106.322 66.511 106.322 66.5226C106.325 66.5803 106.325 66.638 106.322 66.6957C106.322 66.7217 106.317 66.765 106.317 66.7823C106.294 66.9093 106.261 67.0305 106.216 67.1488C106.109 67.4373 106.275 67.7894 106.527 67.9539C106.53 67.9568 106.533 67.9568 106.536 67.9596C106.561 67.9741 106.586 67.9885 106.611 68C106.743 68.0635 106.901 68.0866 107.08 68.0347C107.254 67.9856 107.456 67.9741 107.639 68.0145C107.894 68.0693 108.097 68.1501 108.313 68.2771C108.742 68.531 109.062 68.9061 109.284 69.388C109.598 70.0691 109.66 70.8309 109.627 71.5898C108.734 70.9694 107.6 70.6924 106.536 70.8366C105.522 70.9752 104.615 71.5292 103.975 72.317C103.877 72.1467 103.77 71.9823 103.647 71.8235C103.175 71.2233 102.513 70.7587 101.789 70.5423C101.862 70.1585 101.856 69.7574 101.777 69.3765C101.631 68.6551 101.171 68.0549 100.593 67.6393C99.4669 66.8314 97.9594 66.9612 96.8112 67.648C96.5445 67.4749 96.2554 67.3392 95.9466 67.2498C94.3548 66.7852 92.8052 67.5095 91.4521 68.3117C90.6688 68.7763 91.3763 70.0229 92.1595 69.5583C92.7041 69.2351 93.2544 68.9177 93.8551 68.7243C94.3829 68.5541 94.9022 68.4819 95.4076 68.6003C95.8595 68.7041 96.2413 68.8917 96.5052 69.2957C96.8084 69.7574 96.8786 70.3086 96.8786 70.854C96.8814 71.7831 98.285 71.7831 98.2822 70.854C98.2822 70.1297 98.1615 69.3736 97.8134 68.7359C97.8246 68.7301 97.8359 68.7243 97.8443 68.7215C97.8499 68.7186 97.8555 68.7157 97.8667 68.7128C98.0071 68.658 98.1475 68.6118 98.2935 68.5772C98.3468 68.5656 98.4001 68.5541 98.4563 68.5454C98.4703 68.5454 98.5573 68.531 98.5798 68.531C98.7174 68.5223 98.8521 68.5252 98.9897 68.5339C99.0037 68.5339 99.0121 68.5339 99.0205 68.5339C99.0262 68.5368 99.0318 68.5368 99.0402 68.5368C99.0991 68.5483 99.1581 68.5599 99.2142 68.5743C99.3181 68.6003 99.4164 68.6349 99.5174 68.6753C99.5455 68.6868 99.5904 68.7099 99.6045 68.7186C99.6662 68.7503 99.7252 68.7878 99.7841 68.8253C99.7925 68.8311 99.8403 68.8629 99.8712 68.8831C99.8908 68.9004 99.961 68.9581 99.9722 68.9667C100.017 69.0071 100.059 69.0504 100.099 69.0937C100.113 69.111 100.174 69.1889 100.188 69.2034C100.245 69.2899 100.295 69.3794 100.343 69.4717C100.348 69.4804 100.348 69.4833 100.351 69.489C100.354 69.4977 100.357 69.5092 100.36 69.5266C100.376 69.5872 100.396 69.642 100.41 69.7026C100.413 69.717 100.427 69.7978 100.433 69.818C100.435 69.8584 100.441 69.8959 100.441 69.9363C100.444 69.9969 100.441 70.0575 100.438 70.121C100.435 70.1499 100.433 70.1816 100.427 70.2047C100.407 70.2941 100.385 70.3807 100.357 70.4673C100.346 70.4875 100.306 70.5741 100.295 70.5943C100.261 70.6548 100.222 70.7126 100.18 70.7703C100.082 70.9088 100.062 71.0877 100.096 71.2579C100.099 71.2666 100.099 71.2753 100.101 71.2839C100.11 71.3157 100.118 71.3474 100.129 71.3792C100.135 71.3936 100.138 71.408 100.143 71.4195C100.16 71.4571 100.18 71.4946 100.2 71.5292C100.2 71.5321 100.202 71.5321 100.202 71.535C100.25 71.61 100.309 71.6735 100.376 71.7197C100.388 71.7283 100.399 71.737 100.41 71.7456C100.416 71.7485 100.421 71.7543 100.427 71.7572C100.433 71.7601 100.438 71.7601 100.444 71.7629C100.545 71.8235 100.66 71.8611 100.781 71.8553C102.022 71.7976 103.144 73.0355 103.088 74.2994C103.063 74.8564 102.788 75.4854 102.378 75.9154C101.94 76.38 101.345 76.6426 100.725 76.6599C99.9891 76.6801 99.2564 76.4204 98.7061 75.901C98.5265 75.7307 98.285 75.6644 98.0605 75.7105C97.9397 75.7307 97.8246 75.7913 97.7236 75.8923C97.7208 75.8952 97.718 75.8981 97.7152 75.901C97.7152 75.901 97.7151 75.9039 97.7123 75.9039C97.6927 75.9241 97.6758 75.95 97.659 75.9731C97.6478 75.9904 97.6337 76.0049 97.6225 76.0222C97.6169 76.0308 97.6113 76.0366 97.6057 76.0481C95.5956 79.5109 93.4172 84.9533 96.873 88.2574C100.045 91.2902 104.994 90.361 108.593 88.7335C110.654 87.8043 112.532 86.451 114.107 84.8004C114.758 84.1338 113.767 83.1122 113.133 83.7788Z" fill="white"/>
<path d="M113.133 83.7788C110.632 86.4048 107.268 88.2227 103.709 88.6989C101.895 88.9413 99.9806 88.7681 98.4366 87.6889C97.791 87.2359 97.2576 86.6241 96.9095 85.9056C96.4968 85.0485 96.4491 84.053 96.5221 83.1151C96.6793 81.0894 97.4821 79.2137 98.4451 77.4621C99.902 78.3538 101.803 78.3249 103.15 77.162C103.846 76.5618 104.332 75.6586 104.461 74.7352C104.475 74.6371 104.481 74.5418 104.486 74.4437C104.742 73.327 105.629 72.4036 106.735 72.2535C107.746 72.115 108.964 72.5709 109.539 73.4857C109.57 73.5463 109.61 73.6011 109.655 73.6502C109.753 73.7685 109.874 73.8377 109.997 73.8666C110.059 73.8868 110.121 73.8983 110.182 73.8983C110.427 73.8983 110.606 73.7829 110.727 73.6098C110.839 73.4799 110.904 73.3125 110.89 73.1279C111.081 71.5379 111.196 69.8469 110.379 68.4069C109.84 67.4546 108.824 66.6957 107.74 66.5659C107.726 65.5213 107.122 64.5199 106.261 63.9486C105.292 63.308 104.088 63.2098 102.979 63.4609C102.836 62.777 102.53 62.1479 101.968 61.64C101.227 60.9706 100.245 60.7397 99.2844 60.9446C98.7258 61.0658 98.1194 61.288 97.6337 61.6458C96.2048 60.4858 94.3548 60.0039 92.5413 60.3155C90.8541 60.6041 89.3213 61.6574 88.35 63.0973C86.8257 62.5692 85.1637 62.5346 83.6085 62.9501C82.0055 63.3772 80.557 64.2487 79.2572 65.2875C76.5538 67.4489 74.6448 70.4702 71.9498 72.6344C70.5209 73.78 68.873 74.7381 67.0932 75.1392C65.4509 75.1998 63.8143 75.5403 62.2702 76.1001C60.2434 76.8359 58.3793 77.9383 56.6641 79.257C52.2342 79.7389 47.3719 79.5946 43.4389 77.214C41.3868 75.9731 39.6154 74.0772 38.7816 71.7572C37.8496 69.1658 37.8187 66.1301 38.5683 63.484C38.9894 62.0008 39.7361 60.6849 40.8337 59.6259C41.9118 58.5841 43.2396 57.8339 44.6292 57.3318C44.6404 57.3289 44.6517 57.3202 44.6629 57.3173C45.5753 57.2163 46.4961 57.0951 47.226 56.4632C47.24 56.4516 47.2512 56.4372 47.2653 56.4257C47.8716 56.7489 48.2759 57.4414 48.3264 58.2032C48.3994 59.294 47.9222 60.2751 47.3102 61.1351C47.0856 61.4496 47.2596 61.9402 47.5628 62.1219C47.6639 62.1825 47.765 62.2114 47.866 62.2172C47.9643 62.2374 48.0653 62.2345 48.1636 62.1941C50.0754 61.4582 52.1303 60.4598 53.4497 58.7977C54.0982 57.981 54.4547 57.0201 54.407 55.9553C54.3677 55.1011 54.1235 54.2672 53.7445 53.5054C54.5277 52.6743 54.9404 51.4883 54.5081 50.3456C54.2554 49.6819 53.795 49.1596 53.1606 48.8595C52.7367 48.6575 52.2791 48.5334 51.8159 48.4901C51.8187 48.1727 51.8047 47.8581 51.7485 47.5407C51.6503 46.9867 51.3779 46.4644 50.9905 46.069C50.3308 45.3967 49.3932 45.1225 48.4892 45.2351C48.2001 44.4444 47.7144 43.7778 47.0014 43.2901C46.0581 42.6437 44.9015 42.335 43.7842 42.208C42.6781 42.0839 41.558 42.2022 40.539 42.6755C39.6715 43.0766 38.8546 43.671 38.1752 44.3578C38.15 44.3578 38.1247 44.3578 38.1022 44.3578C36.2663 44.3578 34.4163 44.5425 32.6308 44.984C29.4361 45.7776 26.4379 47.4801 24.3493 50.1234C23.1422 51.6528 22.2102 53.3669 21.2922 55.0896C21.2922 55.0925 21.2922 55.0925 21.2894 55.0954C18.9733 55.8254 16.8707 57.3606 15.2172 59.1497C12.5896 61.9921 10.8041 65.4895 8.4881 68.5801C7.23605 70.2509 5.80152 71.812 4.06942 72.9576C3.31145 73.4597 4.01608 74.7092 4.77686 74.2042C7.90699 72.1323 10.0433 68.9523 12.0758 65.8243C14.0943 62.7193 16.1829 59.4556 19.3888 57.5251C21.0929 56.4978 23.0215 55.9236 25.0034 56.1227C25.3824 56.1602 25.7052 55.7648 25.7052 55.4013C25.7052 54.9799 25.3824 54.7173 25.0034 54.6798C24.3634 54.6135 23.7289 54.6279 23.1057 54.7C24.4251 52.2992 25.9018 50.0108 28.2009 48.4641C30.8622 46.6721 34.0289 45.9247 37.1758 45.8122C38.9725 45.7487 40.9292 45.7516 42.608 46.5048C42.9561 46.6606 43.3603 46.6086 43.5681 46.245C43.7421 45.9392 43.6663 45.414 43.3154 45.2582C42.3413 44.8195 41.3194 44.5858 40.2779 44.4646C40.5278 44.3001 40.7804 44.1443 41.0471 44.0087C41.8191 43.6191 42.6781 43.5527 43.5231 43.6191C44.4018 43.6884 45.3226 43.9365 46.0862 44.3982C46.7964 44.8282 47.1445 45.4515 47.3214 46.2652C47.386 46.5654 47.5797 46.7212 47.7986 46.7674C47.9194 46.8106 48.0513 46.8164 48.1832 46.7702C48.2871 46.7327 48.391 46.701 48.4977 46.6779C48.5426 46.6664 48.61 46.6404 48.6577 46.6462C48.5622 46.6577 48.5538 46.6606 48.6324 46.649C48.6605 46.6462 48.6858 46.6433 48.7138 46.6433C48.8233 46.6346 48.9328 46.6346 49.0395 46.6433C49.0563 46.6433 49.1461 46.6577 49.163 46.6577C49.1911 46.6635 49.2219 46.6692 49.2276 46.6721C49.2669 46.6808 49.5392 46.7327 49.5504 46.7731C49.5223 46.7616 49.4971 46.75 49.469 46.7385C49.4971 46.75 49.5251 46.7645 49.5532 46.7789C49.5953 46.7991 49.6374 46.8222 49.6767 46.8482C49.716 46.8741 49.7581 46.8972 49.7974 46.9232C49.8115 46.9318 49.8227 46.9405 49.8367 46.9492C49.8985 46.9953 49.8873 46.9867 49.8087 46.9232C49.876 46.9434 49.9687 47.0646 50.0164 47.1165C50.0501 47.1511 50.0782 47.1887 50.1119 47.2233C50.1147 47.2262 50.1147 47.2262 50.1147 47.2291C50.1652 47.3099 50.2129 47.3935 50.2578 47.4772C50.2635 47.4859 50.2663 47.4888 50.2691 47.4945C50.2691 47.4974 50.2691 47.4974 50.2691 47.4974C50.2859 47.5494 50.3056 47.5984 50.3196 47.6504C50.3505 47.7542 50.3701 47.861 50.3898 47.9678C50.3898 47.9707 50.3898 47.9707 50.3898 47.9736C50.3898 47.9793 50.3898 47.9822 50.3898 47.9938C50.3926 48.0486 50.3982 48.1034 50.401 48.1582C50.4066 48.2679 50.4066 48.3804 50.4038 48.4901C50.401 48.6777 50.387 48.8681 50.3729 49.0557C50.3645 49.1047 50.3589 49.1567 50.3617 49.2086C50.3449 49.4077 50.4431 49.5982 50.5891 49.7338C50.7126 49.8666 50.8754 49.9502 51.0635 49.93C51.3134 49.9041 51.5604 49.9041 51.8103 49.93C51.8355 49.9358 51.8973 49.9445 51.9169 49.9474C51.9815 49.9618 52.0461 49.9762 52.1106 49.9935C52.2257 50.0253 52.338 50.0657 52.4503 50.1061C52.4756 50.1176 52.4981 50.1291 52.5233 50.1407C52.5823 50.1695 52.6384 50.2013 52.6918 50.2359C52.7367 50.2648 52.7816 50.2936 52.8265 50.3225C52.8349 50.3283 52.8405 50.3311 52.8462 50.334C52.8518 50.3398 52.8546 50.3456 52.8658 50.3571C52.9051 50.4004 52.9472 50.4408 52.9865 50.4841C52.995 50.4927 53.0006 50.4985 53.0062 50.5043C53.009 50.5101 53.0118 50.5158 53.0202 50.5274C53.0736 50.6139 53.1241 50.7034 53.1662 50.7957C53.1718 50.813 53.1887 50.8592 53.1971 50.891C53.2139 50.9487 53.2279 51.0064 53.242 51.0641C53.2448 51.0756 53.2504 51.1218 53.256 51.1536C53.2588 51.1911 53.2616 51.2488 53.2616 51.2603C53.2644 51.3209 53.2616 51.3815 53.2588 51.4392C53.2588 51.4594 53.256 51.4768 53.256 51.4883C53.2364 51.6008 53.2083 51.7134 53.1718 51.823C53.1606 51.8577 53.1241 51.9356 53.1297 51.9269C53.11 51.9673 53.0904 52.0106 53.0679 52.051C53.0371 52.1058 53.0062 52.1606 52.9725 52.2126C52.9669 52.2212 52.9248 52.279 52.9079 52.302C52.8377 52.3886 52.7647 52.4723 52.6833 52.5502C52.6468 52.5877 52.6047 52.6195 52.5682 52.657C52.5598 52.6656 52.5514 52.6714 52.5486 52.6743C52.5289 52.6887 52.5093 52.7032 52.4896 52.7176C52.4223 52.7666 52.3661 52.8244 52.3128 52.8907C52.1528 53.0639 52.0742 53.3091 52.1724 53.5717C52.1893 53.6179 52.2089 53.6612 52.237 53.7045C52.644 54.3768 52.9528 55.1415 52.9893 55.9409C53.0258 56.7575 52.7535 57.4385 52.2117 58.0359C51.4369 58.89 50.4656 59.5364 49.4381 60.0558C49.6795 59.3373 49.7806 58.5755 49.6739 57.7963C49.5251 56.7258 48.93 55.7591 48.0429 55.2166C48.2254 54.7347 48.3096 54.2066 48.304 53.7045C48.2815 51.5662 46.8779 49.5809 44.8566 49.0095C43.9049 48.7411 42.8353 48.7902 41.8724 49.0817C41.7237 48.8421 41.5243 48.6315 41.2745 48.4526C40.8141 48.1236 40.2554 47.9764 39.7052 47.9216C38.849 47.8408 37.9956 48.0832 37.2741 48.5449C36.4824 47.9014 35.4437 47.5638 34.4359 47.6879C33.2204 47.8408 32.1367 48.5536 31.5051 49.6357C31.3086 49.9704 31.4321 50.4264 31.7578 50.6226C32.089 50.8217 32.5213 50.6976 32.7179 50.3629C32.9031 50.0426 33.1951 49.728 33.4843 49.5347C33.5797 49.4712 33.678 49.4106 33.7818 49.3587C33.8211 49.3385 33.8632 49.3183 33.9025 49.2981C33.9138 49.2923 33.9503 49.2779 33.9615 49.275C34.0682 49.2375 34.1777 49.2 34.2871 49.1711C34.3377 49.1596 34.3854 49.148 34.4359 49.1365C34.4472 49.1336 34.5201 49.122 34.5398 49.1192C34.9918 49.0672 35.295 49.1163 35.7104 49.2634C36.0613 49.3904 36.4066 49.6328 36.6958 49.9445C36.8277 50.0887 37.013 50.1551 37.1983 50.1522C37.3892 50.1638 37.5801 50.0974 37.7429 49.9531C37.771 49.93 37.7991 49.9041 37.8271 49.881C37.8356 49.8752 37.8552 49.8608 37.8692 49.8521C37.945 49.8002 38.0208 49.7482 38.0994 49.7021C38.1865 49.6501 38.2791 49.604 38.3717 49.5607C38.3746 49.5607 38.3746 49.5607 38.3746 49.5578C38.3802 49.5549 38.383 49.5549 38.3914 49.552C38.4335 49.5347 38.4756 49.5203 38.5205 49.5058C38.6946 49.4452 38.8686 49.4106 39.0483 49.3702C39.0511 49.3702 39.0511 49.3702 39.0567 49.3673C39.0595 49.3673 39.0623 49.3673 39.0651 49.3673C39.1101 49.3644 39.155 49.3587 39.1999 49.3558C39.301 49.35 39.4048 49.3471 39.5059 49.35C39.5845 49.3529 39.6631 49.3587 39.7417 49.3673C39.7473 49.3702 39.8905 49.3962 39.9242 49.4048C40.014 49.4279 40.101 49.4539 40.1881 49.4856C40.2049 49.4914 40.2274 49.5001 40.2386 49.503C40.2723 49.5174 40.306 49.5347 40.3369 49.552C40.4098 49.5895 40.4772 49.6357 40.5446 49.6819C40.5586 49.6934 40.5839 49.7165 40.6007 49.7309C40.6316 49.7598 40.6597 49.7915 40.6878 49.8262C40.6878 49.8262 40.6878 49.8262 40.6906 49.829C40.6934 49.8319 40.6934 49.8319 40.6962 49.8377C40.7186 49.8752 40.7355 49.9156 40.7608 49.9502C40.7608 49.9502 40.7608 49.9502 40.7636 49.9531C40.7636 49.956 40.7636 49.956 40.7636 49.956C40.7692 49.9849 40.8029 50.132 40.7832 49.9849C40.7916 50.0599 40.8113 50.132 40.8366 50.2042C40.8394 50.2157 40.845 50.2273 40.8478 50.2388C40.8534 50.2561 40.8618 50.2734 40.8702 50.2879C40.8787 50.3081 40.8843 50.3283 40.8955 50.3456C40.8983 50.3513 40.9039 50.3571 40.9095 50.3658C41.0274 50.5735 41.2212 50.7207 41.4878 50.7092C41.5608 50.7063 41.6394 50.6861 41.7124 50.6572C41.7602 50.6428 41.8079 50.6255 41.8556 50.6053C42.7315 50.1984 43.933 50.1551 44.8285 50.5216C45.6483 50.8563 46.3052 51.5547 46.6392 52.3886C46.9649 53.2024 47.0547 54.2152 46.5999 54.9973C46.4427 55.2685 46.1592 55.5311 45.7802 55.6581C45.3423 55.8052 44.8875 55.8428 44.4327 55.8918C44.3288 55.9034 44.2306 55.9322 44.1407 55.9755C41.4149 56.9855 38.922 58.8467 37.7289 61.6372C36.5414 64.4132 36.3533 67.749 37.0074 70.6953C37.6419 73.5549 39.3206 75.9529 41.5945 77.6872C43.5933 79.2079 46.0076 80.0938 48.4443 80.5238C50.5301 80.8932 52.6468 80.9682 54.7523 80.8499C54.5249 81.0577 54.2975 81.2683 54.0758 81.4818C53.2111 82.3158 52.3942 83.1959 51.6025 84.0991C47.181 83.5739 42.8999 81.7704 39.4273 78.9021C38.4111 78.0623 37.465 77.1389 36.5863 76.1491C35.9771 75.4624 34.9862 76.4839 35.5925 77.1707C38.8237 80.8153 43.0319 83.4903 47.6639 84.7859C48.5987 85.0485 49.5448 85.2448 50.5021 85.3948C49.9013 86.1191 49.3146 86.8521 48.7335 87.5937C48.3011 87.8592 47.852 88.0987 47.3944 88.3122C45.6202 88.1448 43.9077 87.5937 42.3188 86.7424C40.452 85.744 38.6693 84.4743 37.0804 83.0545C35.5308 81.6694 34.1608 80.0736 33.1839 78.2066C32.1592 76.2444 31.6118 74.0397 31.3591 71.838C31.0616 69.2293 31.1121 66.5947 31.1767 63.9745C31.1991 63.0454 29.7955 63.0454 29.773 63.9745C29.6551 68.7676 29.5961 73.7771 31.6202 78.2124C33.5011 82.3331 37.1983 85.4121 40.9713 87.6254C42.1476 88.3151 43.3856 88.8663 44.6713 89.2443C42.7736 89.68 40.786 89.7204 38.863 89.3626C36.6425 88.9528 34.5847 88.0756 32.701 86.8751C32.6814 86.8463 32.6645 86.8174 32.6393 86.7886C30.4018 84.2203 28.8634 81.0807 28.1476 77.7161C27.9539 76.81 26.6008 77.1938 26.7945 78.0999C27.2184 80.0967 27.9286 82.0128 28.8803 83.7961C27.6395 82.5957 26.4744 81.3174 25.3178 80.0332C24.703 79.3522 23.7121 80.3738 24.324 81.0548C26.8675 83.8712 29.4811 86.7338 32.7824 88.6239C36.0361 90.488 39.8344 91.4056 43.5456 90.9064C44.6376 90.7592 45.7072 90.4995 46.7403 90.1302C45.8027 91.3191 44.8566 92.4993 43.86 93.6391C42.8073 94.8424 41.7012 96.066 40.2779 96.8076C38.6525 97.6502 36.7491 97.5636 35.0395 97.0529C33.1979 96.5017 31.5781 95.4138 29.9527 94.4009C29.7449 94.2711 29.54 94.2682 29.3688 94.3432C27.6423 94.9838 25.6912 94.955 23.9198 94.5135C22.1709 94.0777 20.6998 92.8167 19.4422 91.5528C19.3551 91.4662 19.2625 91.4114 19.1699 91.3797C19.0435 91.3248 18.8919 91.3104 18.7179 91.3681C18.0975 91.5701 17.4265 91.4807 16.8566 91.1575C16.2138 90.7939 15.8432 90.1735 15.6607 89.4549C15.2144 87.6918 16.0257 85.9373 16.8679 84.4483C17.1542 83.9404 16.7752 83.4643 16.3429 83.3835C16.1689 83.3056 15.9611 83.294 15.745 83.4066C15.1133 83.7355 14.2122 83.9924 13.5075 83.7673C12.8478 83.5537 12.9349 82.5467 13.0443 82.0013C13.2184 81.15 13.6339 80.394 14.069 79.6552C14.5827 78.7895 15.1077 77.9296 15.6299 77.0668C16.1071 76.2761 14.8943 75.5489 14.4171 76.3396C13.7995 77.3669 13.151 78.3798 12.5699 79.4273C12.0169 80.4228 11.5593 81.5367 11.5761 82.7025C11.5902 83.8221 12.0983 84.9187 13.2409 85.187C13.7855 85.314 14.3553 85.3025 14.9112 85.1986C14.2234 86.7684 13.8388 88.494 14.4059 90.1706C14.7399 91.1546 15.3576 92.0087 16.2812 92.4762C16.7865 92.733 17.3395 92.886 17.901 92.9119C17.8392 93.0274 17.7774 93.1428 17.7073 93.2553C17.682 93.2957 17.4293 93.7026 17.3928 93.7286C17.4125 93.7055 17.4686 93.6276 17.3872 93.7344C17.3592 93.769 17.3339 93.8036 17.3058 93.8354C17.2469 93.9104 17.1823 93.9825 17.1205 94.0547C16.8791 94.3288 16.6152 94.5741 16.3373 94.8078C16.3345 94.8078 16.3345 94.8107 16.3345 94.8107C16.2924 94.8424 16.2531 94.8742 16.211 94.903C16.1408 94.955 16.0706 95.0041 15.9976 95.0502C15.8404 95.157 15.6776 95.2551 15.512 95.3446C15.1891 95.5235 15.06 96.0111 15.2593 96.3315C15.4727 96.6691 15.8741 96.7816 16.2194 96.5912C17.5472 95.8611 18.5859 94.7126 19.2569 93.3448C20.5033 94.4875 21.9322 95.5004 23.552 95.9044C25.0568 96.2795 26.7046 96.4065 28.2599 96.1352C26.7692 98.7525 24.5627 100.85 22.3954 102.893C21.7273 103.523 22.7239 104.541 23.3892 103.915C25.8568 101.592 28.3862 99.1652 29.905 96.0573C31.171 96.8451 32.4455 97.6213 33.838 98.161C35.4718 98.7929 37.2601 99.0613 38.9894 98.7554C40.6176 98.4668 42.024 97.5405 43.2228 96.4065C44.4973 95.2032 45.6146 93.8094 46.7178 92.4416C47.4646 91.5153 48.2029 90.5659 48.944 89.6136C48.9665 89.5906 48.9833 89.5646 49.0002 89.5415C52.4503 85.1178 56.0296 80.6363 61.0715 78.1576C64.314 76.5647 68.1347 76.0164 71.5708 77.2515C71.9273 77.3813 72.3372 77.1043 72.4355 76.7465C72.5421 76.3483 72.3035 75.9875 71.9442 75.8577C71.4248 75.6701 70.8971 75.5258 70.3609 75.4133C72.3512 74.3254 74.0805 72.7123 75.6077 71.0358C77.7918 68.632 79.959 65.8502 83.0414 64.6469C84.7791 63.9659 86.6348 63.9168 88.3725 64.6325C88.4679 64.6729 88.5662 64.6758 88.6616 64.6584C88.8834 64.67 89.108 64.569 89.254 64.3093C90.0063 62.953 91.3089 62.0036 92.8024 61.7237C94.3436 61.4323 95.9774 61.9719 97.1004 63.08C97.1088 63.0886 97.1172 63.0944 97.1256 63.1002C97.1312 63.1088 97.1368 63.1146 97.1453 63.1233C97.3923 63.3772 97.9004 63.4292 98.1391 63.1233C98.1896 63.0569 98.2429 62.9963 98.3019 62.9386C98.3271 62.9126 98.3524 62.8895 98.3805 62.8665C98.3412 62.8953 98.3412 62.8953 98.3805 62.8665C98.5124 62.7683 98.6556 62.6933 98.7988 62.6154C98.8718 62.575 98.9812 62.5346 99.1216 62.4855C99.2592 62.4394 99.3995 62.3961 99.5399 62.3615C100.085 62.2258 100.691 62.3701 101.073 62.7655C101.098 62.7914 101.202 62.9097 101.191 62.8924C101.188 62.8867 101.283 63.028 101.308 63.0684C101.348 63.1348 101.384 63.2012 101.418 63.2704C101.424 63.282 101.471 63.3916 101.48 63.4061C101.533 63.5417 101.575 63.686 101.609 63.8274C101.626 63.9024 101.64 63.9803 101.657 64.0553C101.662 64.0929 101.665 64.1159 101.668 64.1246C101.671 64.1535 101.673 64.1823 101.676 64.2083C101.746 65.0394 101.567 65.8502 101.39 66.6553C101.306 67.0362 101.502 67.4373 101.881 67.5441C102.235 67.6451 102.662 67.4229 102.746 67.0391C102.892 66.3754 103.029 65.6453 103.066 64.921C103.212 64.8806 103.358 64.8431 103.509 64.8114C103.535 64.8056 103.56 64.8027 103.585 64.797C103.54 64.8027 103.543 64.7998 103.591 64.797C103.655 64.7883 103.72 64.7825 103.785 64.7796C103.916 64.771 104.048 64.7681 104.18 64.7739C104.262 64.7768 104.343 64.7825 104.422 64.7912C104.447 64.7941 104.47 64.797 104.495 64.7998C104.498 64.7998 104.498 64.7998 104.5 64.7998C104.624 64.82 104.747 64.8489 104.868 64.8835C104.969 64.9124 105.067 64.947 105.163 64.9874C105.188 64.999 105.272 65.0394 105.275 65.0422C105.326 65.0682 105.376 65.0971 105.424 65.1259C105.475 65.1548 105.522 65.1865 105.57 65.2183C105.578 65.224 105.635 65.2673 105.663 65.2875C105.688 65.3106 105.744 65.3568 105.75 65.3625C105.8 65.4087 105.848 65.4578 105.896 65.5097C105.901 65.5155 105.943 65.5645 105.969 65.5934C105.985 65.6165 106.036 65.6857 106.042 65.6944C106.078 65.7521 106.115 65.8127 106.145 65.8762C106.151 65.8849 106.179 65.9483 106.196 65.9801C106.207 66.0118 106.235 66.084 106.238 66.0926C106.261 66.159 106.277 66.2282 106.294 66.2975C106.3 66.3292 106.305 66.3581 106.311 66.3898C106.305 66.3783 106.322 66.511 106.322 66.5226C106.325 66.5803 106.325 66.638 106.322 66.6957C106.322 66.7217 106.317 66.765 106.317 66.7823C106.294 66.9093 106.261 67.0305 106.216 67.1488C106.109 67.4373 106.275 67.7894 106.527 67.9539C106.53 67.9568 106.533 67.9568 106.536 67.9596C106.561 67.9741 106.586 67.9885 106.611 68C106.743 68.0635 106.901 68.0866 107.08 68.0347C107.254 67.9856 107.456 67.9741 107.639 68.0145C107.894 68.0693 108.097 68.1501 108.313 68.2771C108.742 68.531 109.062 68.9061 109.284 69.388C109.598 70.0691 109.66 70.8309 109.627 71.5898C108.734 70.9694 107.6 70.6924 106.536 70.8366C105.522 70.9752 104.615 71.5292 103.975 72.317C103.877 72.1467 103.77 71.9823 103.647 71.8235C103.175 71.2233 102.513 70.7587 101.789 70.5423C101.862 70.1585 101.856 69.7574 101.777 69.3765C101.631 68.6551 101.171 68.0549 100.593 67.6393C99.4669 66.8314 97.9594 66.9612 96.8112 67.648C96.5445 67.4749 96.2554 67.3392 95.9466 67.2498C94.3548 66.7852 92.8052 67.5095 91.4521 68.3117C90.6688 68.7763 91.3763 70.0229 92.1595 69.5583C92.7041 69.2351 93.2544 68.9177 93.8551 68.7243C94.3829 68.5541 94.9022 68.4819 95.4076 68.6003C95.8595 68.7041 96.2413 68.8917 96.5052 69.2957C96.8084 69.7574 96.8786 70.3086 96.8786 70.854C96.8814 71.7831 98.285 71.7831 98.2822 70.854C98.2822 70.1297 98.1615 69.3736 97.8134 68.7359C97.8246 68.7301 97.8359 68.7243 97.8443 68.7215C97.8499 68.7186 97.8555 68.7157 97.8667 68.7128C98.0071 68.658 98.1475 68.6118 98.2935 68.5772C98.3468 68.5656 98.4001 68.5541 98.4563 68.5454C98.4703 68.5454 98.5573 68.531 98.5798 68.531C98.7174 68.5223 98.8521 68.5252 98.9897 68.5339C99.0037 68.5339 99.0121 68.5339 99.0205 68.5339C99.0262 68.5368 99.0318 68.5368 99.0402 68.5368C99.0991 68.5483 99.1581 68.5599 99.2142 68.5743C99.3181 68.6003 99.4164 68.6349 99.5174 68.6753C99.5455 68.6868 99.5904 68.7099 99.6045 68.7186C99.6662 68.7503 99.7252 68.7878 99.7841 68.8253C99.7925 68.8311 99.8403 68.8629 99.8712 68.8831C99.8908 68.9004 99.961 68.9581 99.9722 68.9667C100.017 69.0071 100.059 69.0504 100.099 69.0937C100.113 69.111 100.174 69.1889 100.188 69.2034C100.245 69.2899 100.295 69.3794 100.343 69.4717C100.348 69.4804 100.348 69.4833 100.351 69.489C100.354 69.4977 100.357 69.5092 100.36 69.5266C100.376 69.5872 100.396 69.642 100.41 69.7026C100.413 69.717 100.427 69.7978 100.433 69.818C100.435 69.8584 100.441 69.8959 100.441 69.9363C100.444 69.9969 100.441 70.0575 100.438 70.121C100.435 70.1499 100.433 70.1816 100.427 70.2047C100.407 70.2941 100.385 70.3807 100.357 70.4673C100.346 70.4875 100.306 70.5741 100.295 70.5943C100.261 70.6548 100.222 70.7126 100.18 70.7703C100.082 70.9088 100.062 71.0877 100.096 71.2579C100.099 71.2666 100.099 71.2753 100.101 71.2839C100.11 71.3157 100.118 71.3474 100.129 71.3792C100.135 71.3936 100.138 71.408 100.143 71.4195C100.16 71.4571 100.18 71.4946 100.2 71.5292C100.2 71.5321 100.202 71.5321 100.202 71.535C100.25 71.61 100.309 71.6735 100.376 71.7197C100.388 71.7283 100.399 71.737 100.41 71.7456C100.416 71.7485 100.421 71.7543 100.427 71.7572C100.433 71.7601 100.438 71.7601 100.444 71.7629C100.545 71.8235 100.66 71.8611 100.781 71.8553C102.022 71.7976 103.144 73.0355 103.088 74.2994C103.063 74.8564 102.788 75.4854 102.378 75.9154C101.94 76.38 101.345 76.6426 100.725 76.6599C99.9891 76.6801 99.2564 76.4204 98.7061 75.901C98.5265 75.7307 98.285 75.6644 98.0605 75.7105C97.9397 75.7307 97.8246 75.7913 97.7236 75.8923C97.7208 75.8952 97.718 75.8981 97.7152 75.901C97.7152 75.901 97.7151 75.9039 97.7123 75.9039C97.6927 75.9241 97.6758 75.95 97.659 75.9731C97.6478 75.9904 97.6337 76.0049 97.6225 76.0222C97.6169 76.0308 97.6113 76.0366 97.6057 76.0481C95.5956 79.5109 93.4172 84.9533 96.873 88.2574C100.045 91.2902 104.994 90.361 108.593 88.7335C110.654 87.8043 112.532 86.451 114.107 84.8004C114.758 84.1338 113.767 83.1122 113.133 83.7788Z" stroke="white" stroke-width="0.4" mask="url(#path-15-outside-1_1854_665)"/>
<path d="M110.142 89.6785L110.142 89.6785C110.354 89.5323 110.571 89.5061 110.763 89.5685C110.951 89.6298 111.103 89.7726 111.201 89.9452C111.395 90.288 111.39 90.7892 110.967 91.0804C110.923 91.112 110.873 91.1433 110.826 91.172C110.805 91.1851 110.785 91.1976 110.767 91.2094C110.703 91.2871 110.621 91.3508 110.521 91.4042C107.93 93.2559 105.021 94.635 102.052 95.7041L102.052 95.7041C99.3342 96.6817 96.5197 97.3819 93.6567 97.7378L93.6566 97.7379C90.7477 98.0964 87.6165 98.1242 84.8021 97.1385L84.802 97.1385C81.9454 96.1364 79.7086 94.0175 78.0971 91.453C76.3377 88.6533 75.3743 85.4268 74.4378 82.2852C73.8633 82.3447 73.2928 82.512 72.7547 82.7993C72.5648 82.9008 72.3812 83.0171 72.2039 83.1418C72.267 84.3623 72.4144 85.5742 72.6513 86.7749C73.5888 91.5126 75.7149 96.1308 79.0729 99.551L79.0729 99.551C79.2535 99.735 79.3225 99.9496 79.3076 100.156C79.2929 100.36 79.197 100.551 79.0585 100.693C78.9201 100.835 78.7339 100.935 78.5326 100.951C78.3284 100.967 78.117 100.897 77.9364 100.713L78.0078 100.643L77.9364 100.713C76.9349 99.6919 76.0412 98.5673 75.2437 97.3768L75.2437 97.3767C72.7523 93.6489 71.1956 89.2016 70.7183 84.6942C70.2391 85.4352 69.9279 86.2848 69.8455 87.1729L69.8455 87.173C69.8058 87.5961 69.5217 87.9851 69.0441 87.9851C68.8375 87.9851 68.6289 87.8892 68.4772 87.7422C68.325 87.5947 68.221 87.386 68.2427 87.1545M110.142 89.6785L68.3423 87.1637M110.142 89.6785C109.879 89.8605 109.608 90.026 109.334 90.1835M110.142 89.6785L109.334 90.1835M68.2427 87.1545C68.2427 87.1544 68.2427 87.1544 68.2427 87.1543L68.3423 87.1637M68.2427 87.1545C68.2427 87.1545 68.2427 87.1545 68.2427 87.1546L68.3423 87.1637M68.2427 87.1545C68.4616 84.7551 69.8404 82.5045 71.9503 81.3791M68.3423 87.1637C68.5584 84.7945 69.92 82.5755 71.9973 81.4674M71.9503 81.3791C71.9503 81.3791 71.9503 81.3791 71.9503 81.3791L71.9973 81.4674M71.9503 81.3791L71.9973 81.4674M71.9503 81.3791L71.9973 81.4674M109.334 90.1835C108.978 90.3641 108.618 90.5403 108.258 90.7164C108.201 90.7445 108.143 90.7727 108.086 90.8009C105.455 91.9076 102.468 92.0552 99.6446 91.7074L99.6324 91.8067L99.6446 91.7074C97.8666 91.4887 96.0224 91.0953 94.4326 90.2468C92.8252 89.3864 91.6087 88.0337 90.9044 86.3149L90.9043 86.3148C89.9877 84.0848 89.9828 81.5661 90.352 79.1944L90.352 79.1942C90.4157 78.7799 90.2503 78.3251 89.7893 78.1941C89.5933 78.1382 89.3659 78.1739 89.18 78.274C88.9933 78.3746 88.8355 78.548 88.7985 78.7795L88.7985 78.7798C88.4267 81.1622 88.3574 83.6495 89.0853 85.9872C89.7339 88.0745 90.9643 89.9037 92.7511 91.1358C94.4421 92.3025 96.4721 92.8538 98.4454 93.1808M109.334 90.1835L101.361 93.3902C101.254 93.4187 101.146 93.4466 101.039 93.4739M98.4454 93.1808C98.4453 93.1808 98.4453 93.1808 98.4452 93.1808L98.4617 93.0821L98.4454 93.1808ZM98.4454 93.1808C99.304 93.3244 100.17 93.4236 101.039 93.4739M101.039 93.4739C100.358 93.6467 99.6694 93.7927 98.9733 93.9069M101.039 93.4739C101.15 93.4803 101.261 93.4859 101.372 93.4907C100.587 93.6995 99.7938 93.8737 98.9895 94.0056C95.5309 94.5683 91.7775 94.3114 88.7036 92.4588M98.9733 93.9069C95.5286 94.4673 91.8019 94.2093 88.7552 92.3732M98.9733 93.9069L98.9895 94.0054L98.9734 93.9069C98.9734 93.9069 98.9733 93.9069 98.9733 93.9069ZM88.7552 92.3732C87.2855 91.4862 86.0173 90.2766 85.1027 88.7964M88.7552 92.3732C88.7552 92.3732 88.7552 92.3732 88.7552 92.3732L88.7036 92.4588M88.7552 92.3732L88.7036 92.4588M85.1027 88.7964C84.9672 88.577 84.7762 88.4584 84.5729 88.4237C84.3722 88.3893 84.1662 88.4377 83.9967 88.5391C83.8272 88.6404 83.688 88.7983 83.6263 88.9908C83.5638 89.186 83.5837 89.4087 83.7198 89.6287M85.1027 88.7964L85.0176 88.8489M85.1027 88.7964C85.1027 88.7963 85.1027 88.7963 85.1027 88.7963L85.0176 88.8489M83.7198 89.6287C85.5766 92.6313 88.6549 94.678 92.0232 95.4019M83.7198 89.6287C83.7198 89.6287 83.7198 89.6287 83.7198 89.6287L83.8048 89.5761M83.7198 89.6287L83.8048 89.5761M92.0232 95.4019C93.1963 95.6547 94.3825 95.7781 95.5685 95.7935M92.0232 95.4019L92.0438 95.306L92.0232 95.4019C92.0232 95.4019 92.0232 95.4019 92.0232 95.4019ZM95.5685 95.7935C95.2878 95.8473 95.0068 95.8977 94.7258 95.9442M95.5685 95.7935C95.7398 95.7957 95.9112 95.7957 96.0825 95.7935C95.637 95.8848 95.1895 95.9689 94.742 96.0428C92.092 96.4786 89.265 96.6459 86.6234 96.0601C85.2057 95.7456 83.875 95.1916 82.6875 94.3288C81.6236 93.5583 80.6944 92.5598 79.9308 91.4835C78.0047 88.7761 76.9895 85.5667 76.0389 82.3935C76.0764 82.4018 76.1138 82.4105 76.1512 82.4197M95.5685 95.7935C95.7364 95.7613 95.9042 95.728 96.0717 95.6936C94.7246 95.7104 93.3757 95.591 92.0442 95.3041C88.7008 94.5856 85.6464 92.5541 83.8048 89.5761M94.7258 95.9442C92.0817 96.3789 89.269 96.5444 86.645 95.9625C85.2388 95.6505 83.9212 95.1015 82.7463 94.2479L82.7462 94.2478C81.6927 93.4849 80.7709 92.4949 80.0123 91.4256L80.0122 91.4255C78.108 88.7489 77.0974 85.5762 76.1512 82.4197M94.7258 95.9442L94.7418 96.0416L94.7257 95.9442C94.7258 95.9442 94.7258 95.9442 94.7258 95.9442ZM76.1512 82.4197C76.8939 82.6015 77.6074 82.9412 78.24 83.4117L78.2401 83.4117C78.3983 83.5294 78.5865 83.5514 78.762 83.5202M76.1512 82.4197C76.1401 82.3828 76.1291 82.3458 76.118 82.3089C76.8948 82.4904 77.6407 82.8413 78.2997 83.3315C78.4317 83.4296 78.5917 83.4498 78.7489 83.421M78.762 83.5202C79.0784 83.493 79.4285 83.2789 79.4823 82.9133M78.762 83.5202C78.7603 83.5204 78.7586 83.5205 78.7569 83.5206L78.7489 83.421M78.762 83.5202C78.7636 83.5199 78.7653 83.5196 78.767 83.5193L78.7489 83.421M79.4823 82.9133C79.8241 80.6106 80.969 78.5066 82.7344 77.0428M79.4823 82.9133L79.3836 82.8987L79.4823 82.9132C79.4823 82.9132 79.4823 82.9133 79.4823 82.9133ZM82.7344 77.0428C82.8701 76.9308 83.0105 76.8224 83.1542 76.7173M82.7344 77.0428C82.7344 77.0428 82.7344 77.0428 82.7343 77.0429L82.6707 76.9657M82.7344 77.0428C82.7345 77.0428 82.7345 77.0427 82.7345 77.0427L82.6707 76.9657M83.1542 76.7173C82.5696 78.6185 82.2361 80.5932 82.1609 82.5888M83.1542 76.7173C83.1988 76.6847 83.2438 76.6524 83.289 76.6204C82.6827 78.552 82.3373 80.5614 82.2608 82.5928C82.2243 83.522 83.628 83.5191 83.6645 82.5928C83.7571 80.163 84.2708 77.7795 85.1608 75.5258M83.1542 76.7173C83.1705 76.6642 83.187 76.6112 83.2037 76.5583C83.0207 76.6885 82.8421 76.8243 82.6707 76.9657M82.1609 82.5888C82.1609 82.5889 82.1609 82.5889 82.1609 82.589L82.2608 82.5928L82.1609 82.5888ZM82.1609 82.5888C82.1507 82.8485 82.2419 83.0517 82.3922 83.1889C82.5404 83.3242 82.7389 83.3888 82.9354 83.3886C83.3284 83.3882 83.7436 83.1243 83.7644 82.5967L83.7644 82.5966C83.8566 80.1794 84.3675 77.8079 85.2527 75.5651C85.2532 75.5641 85.2536 75.5631 85.2541 75.5621C86.5047 75.0671 87.858 74.8435 89.1799 74.9559C89.2481 74.9627 89.3132 74.9528 89.3676 74.9414C89.6203 74.9291 89.8601 74.8056 90.0061 74.5478L89.9191 74.4985M89.9191 74.4985C90.096 74.1897 90.0146 73.6732 89.6665 73.5116C87.9231 72.695 86.0563 72.2477 84.1782 72.164M89.9191 74.4985L90.0059 74.5482C90.1085 74.369 90.1336 74.1366 90.0873 73.9282C90.0409 73.7194 89.9187 73.5186 89.7089 73.421M89.9191 74.4985C89.79 74.7265 89.5794 74.8332 89.3549 74.8419C89.3015 74.8534 89.2454 74.8621 89.1892 74.8563C87.8333 74.7409 86.4465 74.9746 85.1692 75.4883M84.1782 72.164H84.2782C84.2782 72.1662 84.278 72.1667 84.2783 72.1646C84.2788 72.1622 84.2795 72.1593 84.281 72.153L84.2832 72.1441L84.2837 72.1349C84.2849 72.113 84.2864 72.0911 84.2881 72.0692M84.1782 72.164L84.1785 72.1572C84.1783 72.1595 84.1782 72.1617 84.1782 72.164ZM84.2881 72.0692C86.1435 72.1652 87.986 72.614 89.7089 73.421M84.2881 72.0692C84.2548 72.0674 84.2215 72.0658 84.1882 72.0643C84.2766 70.9275 85.0204 69.8352 86.0535 69.3764M84.2881 72.0692C84.3749 70.9685 85.0968 69.9107 86.0941 69.4678M89.7089 73.421C89.7088 73.421 89.7087 73.4209 89.7086 73.4209L89.6666 73.5114L89.7089 73.421ZM85.1692 75.4883C85.1683 75.4926 85.1678 75.4966 85.1672 75.5005C85.1659 75.5096 85.1647 75.5177 85.1608 75.5258M85.1692 75.4883L85.1887 75.5368M85.1692 75.4883L85.1887 75.5368M85.1608 75.5258L85.1887 75.5368M85.1608 75.5258L85.19 75.54L85.2065 75.5811C85.2189 75.5761 85.2313 75.5711 85.2438 75.5662L85.1887 75.5368M82.6707 76.9657C80.8852 78.4461 79.7286 80.5728 79.3833 82.8986C79.3384 83.2045 79.038 83.3979 78.7489 83.421M83.8048 89.5761C83.3192 88.7912 84.5347 88.0669 85.0176 88.8489M85.0176 88.8489C85.9412 90.3437 87.2213 91.5643 88.7036 92.4588M90.402 68.9898C91.0589 69.6304 90.0651 70.649 89.4082 70.0113C88.5351 69.1658 87.1652 68.883 86.0535 69.3764M90.402 68.9898L77.1516 74.5016M90.402 68.9898C89.1415 67.7663 87.2157 67.3363 85.5959 68.0202M90.402 68.9898L85.5959 68.0202M86.0535 69.3764L86.0941 69.4678M86.0535 69.3764L86.094 69.4678C86.0941 69.4678 86.0941 69.4678 86.0941 69.4678M86.0941 69.4678C87.1662 68.992 88.493 69.2642 89.3386 70.0831M89.3386 70.0831C89.5232 70.2623 89.737 70.3289 89.942 70.3104C90.1443 70.2921 90.3309 70.1918 90.4694 70.0497C90.6078 69.9076 90.7032 69.7184 90.716 69.5156C90.7289 69.3101 90.6563 69.0981 90.4718 68.9182L90.4716 68.918C89.1846 67.6687 87.2166 67.2273 85.557 67.9281M89.3386 70.0831L89.4081 70.0113L89.3385 70.083C89.3386 70.0831 89.3386 70.0831 89.3386 70.0831ZM85.557 67.9281C83.9077 68.6237 82.8054 70.2606 82.6837 72.0694M85.557 67.9281C85.557 67.9281 85.557 67.928 85.557 67.928L85.5959 68.0202M85.557 67.9281L85.5959 68.0202M82.6837 72.0694C80.8924 72.1751 79.1164 72.6092 77.4495 73.3746L77.4495 73.3746C77.2404 73.4707 77.1182 73.6719 77.0715 73.8808C77.0249 74.0892 77.049 74.3223 77.1516 74.5016M82.6837 72.0694C82.715 72.0675 82.7464 72.0658 82.7777 72.0641L82.7807 72.1204M82.6837 72.0694C82.6825 72.0875 82.6813 72.1056 82.6803 72.1237L82.6802 72.1237V72.1294C82.6802 72.1414 82.6815 72.1525 82.6822 72.1578L82.6823 72.1588C82.6831 72.1656 82.683 72.1653 82.683 72.164H82.783M77.1516 74.5016L77.2386 74.4523L77.1518 74.502C77.1517 74.5019 77.1517 74.5018 77.1516 74.5016ZM82.7807 72.1204L77.4912 73.4654C79.1756 72.6921 80.9723 72.2592 82.783 72.164M82.7807 72.1204C82.7805 72.1234 82.7803 72.1264 82.7802 72.1294L82.7807 72.1204ZM82.783 72.164C82.783 72.161 82.7828 72.158 82.7825 72.1549L82.783 72.164ZM78.2407 81.471C78.2321 81.5044 78.2237 81.5378 78.2155 81.5713C78.1853 81.5546 78.155 81.5383 78.1246 81.5221C78.1329 81.4889 78.1413 81.4556 78.1499 81.4224C78.1803 81.4384 78.2105 81.4546 78.2407 81.471ZM85.3141 73.7889C85.3891 73.7993 85.4641 73.8104 85.5389 73.8221C85.612 73.7995 85.6852 73.7778 85.7587 73.7569C85.6831 73.7438 85.6074 73.7314 85.5315 73.7197C85.4588 73.742 85.3863 73.7651 85.3141 73.7889ZM70.7022 84.5373C70.731 84.4948 70.7603 84.4526 70.7902 84.4107C70.7951 84.4617 70.8001 84.5126 70.8053 84.5635L70.7022 84.5373Z" fill="white" stroke="white" stroke-width="0.2"/>
<path d="M83.8007 84.8585L83.8007 84.8593C83.8034 85.0593 83.8198 85.2601 83.8447 85.462C83.9194 85.9705 84.0521 86.4675 84.2426 86.9415L84.2427 86.9417C84.3291 87.1583 84.2545 87.4137 84.1688 87.581C84.0685 87.78 83.876 87.8997 83.6938 87.9621C83.4918 88.0314 83.2396 87.9823 83.0688 87.8815C83.0688 87.8815 83.0688 87.8815 83.0688 87.8815L83.1196 87.7954C82.9483 87.6944 82.8697 87.5472 82.7967 87.3654C82.4767 86.5719 82.3139 85.7148 82.297 84.8607L83.8007 84.8585ZM83.8007 84.8585C83.7913 84.4377 83.4475 84.019 82.9944 84.0394L82.9942 84.0394C82.5747 84.0588 82.1874 84.3969 82.197 84.8627L83.8007 84.8585Z" fill="white" stroke="white" stroke-width="0.2"/>
<path d="M100.909 100.198L100.909 100.198C101.126 100.106 101.354 100.161 101.534 100.275C101.712 100.389 101.857 100.571 101.91 100.766L101.91 100.767C102.036 101.243 101.739 101.61 101.362 101.773C101.362 101.773 101.361 101.773 101.361 101.773L101.322 101.681C100.185 102.172 99.0199 102.596 97.8352 102.951L100.909 100.198ZM100.909 100.198C95.8999 102.356 90.4236 103.164 85.0258 102.543L85.0258 102.543C84.7966 102.516 84.5915 102.628 84.4484 102.785C84.3056 102.942 84.2125 103.156 84.2125 103.363C84.2125 103.855 84.5888 104.137 85.0029 104.184L100.909 100.198Z" fill="white" stroke="white" stroke-width="0.2"/>
<path d="M79.737 100.908L79.737 100.908L79.7363 100.909C79.6018 101.06 79.4962 101.263 79.5061 101.49L79.5061 101.49L79.5061 101.491C79.5107 101.586 79.5274 101.695 79.5637 101.797C79.5998 101.899 79.6575 102.002 79.7482 102.075L79.7482 102.075C80.4518 102.641 81.1989 103.139 82.0065 103.538C82.1917 103.631 82.3978 103.68 82.6204 103.617C82.8057 103.564 83.0073 103.418 83.1004 103.234C83.1941 103.051 83.2217 102.825 83.1774 102.619C83.1329 102.412 83.0131 102.217 82.8032 102.112L82.803 102.112C82.0879 101.757 81.4116 101.328 80.7826 100.83L80.7813 100.832C80.6477 100.735 80.5033 100.662 80.305 100.662L80.3033 100.662C80.1118 100.665 79.879 100.752 79.737 100.908Z" fill="white" stroke="white" stroke-width="0.2"/>
<path d="M71.1443 101L71.1441 101C70.9993 100.82 70.78 100.748 70.5696 100.754C70.3599 100.76 70.146 100.844 70.0007 100.993C69.6667 101.336 69.7309 101.816 69.9942 102.147L69.9944 102.147C73.8209 106.924 79.4607 109.918 85.4537 110.42C87.2735 110.573 89.0954 110.475 90.8936 110.176L90.894 110.176C91.1206 110.138 91.2892 109.975 91.3866 109.785C91.4839 109.595 91.5187 109.364 91.4653 109.163C91.3418 108.692 90.9017 108.519 90.4902 108.588C84.845 109.524 78.8833 107.953 74.3999 104.292C73.2039 103.316 72.1141 102.213 71.1443 101Z" fill="white" stroke="white" stroke-width="0.2"/>
<path d="M68.8882 96.7977L68.8882 96.7977L68.8877 96.7962C68.8517 96.691 68.8186 96.5859 68.7883 96.4783L68.7883 96.4782C68.7189 96.2328 68.6608 95.9855 68.6194 95.7359L68.6194 95.7359L68.6193 95.7351C68.5807 95.5125 68.4257 95.3362 68.2408 95.2319C68.0563 95.1278 67.8273 95.0869 67.6254 95.1521L67.6254 95.1521L67.6246 95.1523C67.4061 95.2251 67.2455 95.3636 67.1505 95.5431C67.0561 95.7215 67.0296 95.9341 67.0663 96.1526L67.0662 96.1526L67.0663 96.153C67.2513 97.2234 67.6779 98.2675 68.2987 99.1485C68.4138 99.3124 68.5542 99.4581 68.7717 99.5191L68.7723 99.5192C68.9629 99.5715 69.2183 99.551 69.3956 99.4341L69.3959 99.4339C69.5638 99.3221 69.698 99.1372 69.7594 98.9349C69.8211 98.7317 69.8119 98.5004 69.6751 98.3064C69.5308 98.0981 69.3953 97.8848 69.2739 97.6636C69.2216 97.5675 69.1719 97.4683 69.1214 97.3672C69.1075 97.3387 69.0923 97.3095 69.0775 97.2811L69.0773 97.2807C69.0622 97.2516 69.0474 97.2232 69.0335 97.1947C69.0081 97.143 68.9877 97.0952 68.9756 97.0509L68.9714 97.0348L68.9705 97.0351C68.9638 97.011 68.9567 96.9873 68.9516 96.9732L68.9516 96.9732L68.9509 96.9712C68.9288 96.9144 68.9071 96.8558 68.8882 96.7977Z" fill="white" stroke="white" stroke-width="0.2"/>
<path d="M80.2454 115.221C80.4501 115.251 80.661 115.226 80.8387 115.132C81.0185 115.038 81.159 114.875 81.221 114.643L81.221 114.643C81.2731 114.447 81.2398 114.214 81.1444 114.022C81.0488 113.83 80.8812 113.663 80.6503 113.629L80.6502 113.629C76.7397 113.064 73.0331 111.33 70.0865 108.616L70.0864 108.616C69.8978 108.443 69.6814 108.381 69.4755 108.402C69.2721 108.423 69.0847 108.524 68.946 108.666C68.8075 108.807 68.7124 108.996 68.7018 109.197C68.691 109.401 68.7678 109.61 68.957 109.785L68.9572 109.785C72.1015 112.684 76.0558 114.615 80.2454 115.221ZM80.2454 115.221C80.2453 115.221 80.2453 115.221 80.2453 115.221L80.2597 115.122M80.2454 115.221C80.2454 115.221 80.2454 115.221 80.2454 115.221L80.2597 115.122M80.2597 115.122C76.0909 114.519 72.1551 112.597 69.0249 109.712C68.3512 109.088 69.3478 108.073 70.0187 108.69C72.9804 111.417 76.7057 113.16 80.6359 113.728C81.0121 113.783 81.2142 114.28 81.1244 114.617C81.0149 115.027 80.6359 115.177 80.2597 115.122Z" fill="white" stroke="white" stroke-width="0.2"/>
<path d="M61.654 96.6851L61.6541 96.6854C62.5235 99.2342 63.8318 101.631 65.4977 103.719L65.4977 103.719C65.761 104.05 65.8252 104.53 65.4912 104.873C65.3459 105.022 65.132 105.106 64.9223 105.112C64.7119 105.118 64.4926 105.046 64.3478 104.866L64.3476 104.866C62.5016 102.557 61.0727 99.9553 60.1089 97.1338L61.654 96.6851ZM61.654 96.6851C61.5147 96.2808 61.1151 95.9922 60.6681 96.1163L60.6681 96.1163M61.654 96.6851L60.6681 96.1163M60.6681 96.1163L60.6677 96.1164M60.6681 96.1163L60.6677 96.1164M60.6677 96.1164C60.4652 96.1735 60.291 96.3222 60.1848 96.5051M60.6677 96.1164L60.1848 96.5051M60.1848 96.5051C60.0782 96.6886 60.0346 96.9164 60.1089 97.1338L60.1848 96.5051Z" fill="white" stroke="white" stroke-width="0.2"/>
<path d="M66.4784 105.076L66.4784 105.076L66.4777 105.076C66.2871 105.023 66.0317 105.044 65.8545 105.161L65.8544 105.161C65.5021 105.394 65.3379 105.883 65.5705 106.282L65.5705 106.282L65.5708 106.282C65.9959 106.999 66.5091 107.669 67.0935 108.255L67.0938 108.256C67.392 108.552 67.9273 108.589 68.2323 108.252L68.2327 108.251C68.518 107.932 68.5526 107.419 68.2291 107.093L68.2288 107.092C67.9519 106.816 67.6968 106.52 67.4579 106.209C67.2798 105.963 67.1107 105.712 66.9557 105.45C66.8539 105.277 66.6793 105.132 66.4784 105.076Z" fill="white" stroke="white" stroke-width="0.2"/>
<path d="M56.3986 105.534L56.3085 105.578C58.3172 109.765 61.3513 113.394 65.0332 116.121C66.0562 116.88 67.1327 117.561 68.2513 118.163C68.4773 118.285 68.7024 118.291 68.8965 118.218C69.0882 118.146 69.2442 118 69.3429 117.827C69.4416 117.654 69.4869 117.447 69.4477 117.249C69.4079 117.048 69.2824 116.865 69.0562 116.744L69.009 116.832L69.0565 116.744C65.2643 114.697 61.9724 111.696 59.5616 108.05C58.8681 107.001 58.2499 105.903 57.7015 104.764L57.7014 104.764C57.6019 104.557 57.4122 104.43 57.2089 104.38C57.0064 104.33 56.7811 104.354 56.6003 104.461L56.6003 104.461L56.5997 104.462C56.2009 104.702 56.1227 105.192 56.3085 105.578L56.3986 105.534ZM56.3986 105.534C58.4002 109.707 61.4237 113.323 65.0928 116.041C66.1119 116.797 67.1842 117.475 68.2987 118.075L57.6114 104.807C57.4429 104.458 56.9629 104.363 56.6513 104.547C56.306 104.755 56.2302 105.185 56.3986 105.534Z" fill="white" stroke="white" stroke-width="0.2"/>
<path d="M58.4744 117.552L58.4745 117.552C58.9103 117.838 58.9199 118.338 58.7238 118.683C58.6254 118.856 58.4711 119 58.2813 119.063C58.0884 119.128 57.8685 119.107 57.6522 118.966L57.652 118.966C56.0609 117.927 54.7345 116.52 53.7142 114.899L53.7142 114.899C52.8436 113.513 52.1997 111.962 51.7903 110.369C51.3844 108.796 51.1243 107.095 51.1639 105.459L51.1639 105.459C51.2034 103.878 51.5857 101.916 52.8279 100.796C53.4422 100.241 54.2622 99.8504 55.1113 99.9106C55.3621 99.9275 55.6026 99.9847 55.8299 100.071C55.5744 98.7427 54.4962 97.6369 53.1687 97.2701L53.1687 97.2701C51.1827 96.721 49.201 97.6815 47.849 99.1968L47.8489 99.1969C47.677 99.389 47.4713 99.4674 47.2692 99.4551C47.0705 99.443 46.886 99.3442 46.7479 99.202C46.4726 98.9186 46.3583 98.4325 46.706 98.0422L46.706 98.0421C47.4868 97.1666 48.4305 96.4591 49.5008 95.9997L49.5008 95.9997C50.4457 95.5945 51.4947 95.4175 52.5221 95.4991C53.3499 94.1672 54.4122 92.9194 55.8541 92.2552L55.8543 92.2551C56.667 91.8828 57.537 91.6909 58.4349 91.7586C58.553 91.7659 58.6705 91.7791 58.7855 91.7948C59.3339 90.5771 60.3555 89.5694 61.6174 89.1632L61.6175 89.1632C62.6494 88.8313 63.8353 88.7748 64.8752 89.1436C65.0612 88.466 65.3862 87.8327 65.8378 87.2818M58.4744 117.552L66.9774 87.2723C66.8289 87.1328 66.6207 87.0464 66.4132 87.0375C66.2041 87.0285 65.9879 87.0983 65.8378 87.2818M58.4744 117.552C56.1975 116.063 54.5616 113.683 53.6802 111.077M58.4744 117.552L53.6802 111.077M65.8378 87.2818L65.9152 87.3452L65.8378 87.2818C65.8378 87.2818 65.8378 87.2818 65.8378 87.2818ZM54.4223 101.663L54.4223 101.663C53.8414 101.913 53.4841 102.471 53.2285 103.073L54.4223 101.663ZM54.4223 101.663C54.705 101.542 54.9886 101.523 55.2376 101.6C55.4859 101.677 55.7068 101.85 55.8622 102.126C55.9737 102.324 56.1309 102.444 56.3052 102.496C56.476 102.546 56.6559 102.529 56.8153 102.466C57.0374 102.402 57.2256 102.239 57.316 101.966L57.3173 101.965L57.3239 101.945L57.3262 101.94C57.3289 101.934 57.3338 101.922 57.3374 101.908C57.8651 99.8772 56.996 97.7389 55.3688 96.5307L55.3687 96.5306C55.0053 96.2619 54.6135 96.0473 54.2023 95.8823C54.8237 94.9831 55.5721 94.1939 56.5454 93.729C57.8827 93.0907 59.2619 93.5012 60.6346 93.9474L60.6346 93.9474C60.878 94.0265 61.0948 93.9887 61.2639 93.8755C61.4301 93.7643 61.5426 93.5855 61.5941 93.3927C61.6967 93.0091 61.5639 92.5273 61.0699 92.3664L61.0698 92.3663C60.8422 92.2925 60.6144 92.2206 60.3864 92.1526M54.4223 101.663L60.3864 92.1526M60.3864 92.1526C60.7525 91.5193 61.3804 90.9568 62.052 90.7416L62.0521 90.7416C62.483 90.6029 63.0155 90.5036 63.5323 90.5173C64.05 90.531 64.5412 90.6577 64.9021 90.9597L64.9023 90.9599C65.2247 91.2281 65.6955 91.295 66.0314 90.9531L66.0318 90.9527C66.0359 90.9485 66.0393 90.9445 66.0416 90.9416L66.0474 90.9343L66.0493 90.9319C66.2003 90.7849 66.2982 90.5823 66.3015 90.3452M60.3864 92.1526L66.5351 89.1961M66.3015 90.3452C66.3015 90.3453 66.3015 90.3455 66.3015 90.3456L66.2015 90.3434L66.3015 90.3447C66.3015 90.3449 66.3015 90.345 66.3015 90.3452ZM66.3015 90.3452C66.3042 90.2234 66.3149 90.1006 66.3287 89.9758M66.3287 89.9758C66.3507 89.838 66.378 89.7038 66.4132 89.5729L66.4134 89.572C66.435 89.4889 66.4621 89.4051 66.4903 89.3181C66.5031 89.2788 66.5185 89.239 66.5351 89.1961M66.3287 89.9758C66.3286 89.9766 66.3285 89.9774 66.3283 89.9781L66.2296 89.9625M66.3287 89.9758C66.3288 89.975 66.3289 89.9742 66.329 89.9734L66.2296 89.9625M66.5351 89.1961C66.5348 89.1969 66.5344 89.1977 66.5341 89.1985L66.4429 89.1574L66.5361 89.1936C66.5358 89.1945 66.5355 89.1953 66.5351 89.1961ZM66.2296 89.9625C66.252 89.8211 66.2801 89.6826 66.3166 89.5469L66.2296 89.9625ZM53.6802 111.077C53.2478 109.795 52.9769 108.443 52.84 107.093M53.6802 111.077L52.84 107.093M52.84 107.093C52.7057 105.744 52.7024 104.319 53.2284 103.074L52.84 107.093ZM66.9386 88.4878C66.9387 88.4877 66.9388 88.4875 66.9389 88.4874L66.8612 88.4244L66.938 88.4884C66.9382 88.4882 66.9384 88.488 66.9386 88.4878ZM64.9693 89.1783C64.9605 89.2107 64.952 89.2431 64.9438 89.2757C64.9126 89.2636 64.8811 89.2519 64.8495 89.2406L64.9693 89.1783ZM57.3266 101.918C57.3266 101.917 57.3266 101.917 57.3266 101.918V101.918Z" fill="white" stroke="white" stroke-width="0.2"/>
<path d="M39.607 104.134L39.6068 104.135C36.9671 106.094 34.0675 107.662 30.9919 108.761C30.5936 108.903 30.3186 109.317 30.4375 109.769L30.4376 109.769C30.4926 109.976 30.6356 110.154 30.8143 110.263C30.9935 110.373 31.2171 110.418 31.432 110.343L31.4325 110.343C34.6391 109.197 37.6798 107.588 40.4334 105.545L40.4335 105.544C40.7684 105.295 40.9498 104.841 40.7134 104.428C40.6109 104.246 40.4259 104.108 40.2251 104.047C40.0235 103.985 39.7929 103.997 39.607 104.134Z" fill="white" stroke="white" stroke-width="0.2"/>
<path d="M44.6576 99.7066L44.6576 99.7066C43.7719 100.812 42.7773 101.823 41.6933 102.722C41.5198 102.865 41.449 103.093 41.4529 103.308C41.4568 103.524 41.5353 103.748 41.6882 103.893L41.6885 103.893C41.8591 104.054 42.0553 104.129 42.2555 104.124C42.4538 104.119 42.6466 104.036 42.8144 103.898L42.8146 103.898C43.912 102.99 44.9134 101.969 45.8075 100.853L45.8079 100.853C45.9351 100.691 46.0343 100.517 46.0343 100.28C46.0343 100.082 45.9511 99.84 45.7979 99.6962C45.6508 99.5582 45.442 99.4712 45.234 99.4615C45.0245 99.4517 44.8067 99.5206 44.6576 99.7066Z" fill="white" stroke="white" stroke-width="0.2"/>
<path d="M18.1385 18.1385L18.1385 18.1385C6.95841 29.3186 0.8 44.1881 0.8 60C0.8 75.812 6.95842 90.6787 18.1385 101.861L18.2799 101.72L18.1385 101.861C29.3186 113.042 44.1881 119.2 60 119.2C75.812 119.2 90.6787 113.042 101.861 101.862L101.72 101.72L101.862 101.861C113.042 90.6814 119.2 75.8119 119.2 60C119.2 44.1881 113.042 29.3186 101.862 18.1385C90.6814 6.95841 75.8119 0.8 60 0.8C44.188 0.8 29.3213 6.95842 18.1385 18.1385ZM60 117.468C28.3129 117.468 2.53189 91.687 2.53189 60C2.53189 28.3129 28.3103 2.52922 60 2.52922C91.6897 2.52922 117.468 28.3103 117.468 59.9973C117.468 91.6844 91.687 117.468 60 117.468Z" fill="white" stroke="white" stroke-width="0.4"/>
</svg>
