<svg xmlns="http://www.w3.org/2000/svg" width="119" height="95" fill="none" xmlns:v="https://vecta.io/nano"><rect x="20" y="27" width="75" height="32" rx="4" fill="#fff" fill-opacity=".3"/><rect x="20.5" y="27.5" width="74" height="31" rx="3.5" stroke="#fff" stroke-opacity=".1"/><g filter="url(#A)"><path d="M45.16 49h-6.74V35.66h6.56c1.187 0 2.113.327 2.78.98.68.64 1.02 1.447 1.02 2.42 0 .8-.227 1.48-.68 2.04-.44.547-.987.887-1.64 1.02.72.107 1.327.48 1.82 1.12.507.627.76 1.347.76 2.16 0 1.067-.347 1.933-1.04 2.6-.68.667-1.627 1-2.84 1zm-.66-7.82c.587 0 1.047-.16 1.38-.48s.5-.733.5-1.24c0-.52-.167-.94-.5-1.26s-.793-.48-1.38-.48h-3.74v3.46h3.74zm.1 5.76c.64 0 1.14-.16 1.5-.48.36-.333.54-.793.54-1.38a1.73 1.73 0 0 0-.54-1.3c-.36-.36-.86-.54-1.5-.54h-3.84v3.7h3.84zm11.189 2.3c-1.467 0-2.68-.467-3.64-1.4-.947-.947-1.42-2.173-1.42-3.68 0-1.413.46-2.607 1.38-3.58.933-.987 2.107-1.48 3.52-1.48 1.427 0 2.573.493 3.44 1.48.88.987 1.32 2.247 1.32 3.78v.5h-7.46a2.92 2.92 0 0 0 .94 1.9c.547.507 1.26.76 2.14.76.493 0 .987-.093 1.48-.28.507-.187.927-.447 1.26-.78l.96 1.38c-.973.933-2.28 1.4-3.92 1.4zm2.56-5.86c-.027-.667-.273-1.26-.74-1.78-.453-.52-1.113-.78-1.98-.78-.827 0-1.473.26-1.94.78-.467.507-.727 1.1-.78 1.78h5.44zm7.013 5.86c-.813 0-1.433-.213-1.86-.64-.413-.427-.62-1.04-.62-1.84v-5.58h-1.6v-1.84h1.6V36.7h2.1v2.64h1.96v1.84h-1.96v5.06c0 .347.08.627.24.84.16.2.387.3.68.3.427 0 .74-.113.94-.34l.5 1.58c-.44.413-1.1.62-1.98.62zM76.848 49h-2.1v-1.04c-.747.853-1.787 1.28-3.12 1.28-.88 0-1.66-.28-2.34-.84-.68-.573-1.02-1.36-1.02-2.36 0-1.027.333-1.807 1-2.34.68-.533 1.467-.8 2.36-.8 1.373 0 2.413.413 3.12 1.24V42.7c0-.56-.207-1-.62-1.32s-.96-.48-1.64-.48c-1.08 0-2.033.407-2.86 1.22l-.86-1.46c1.093-1.04 2.447-1.56 4.06-1.56 1.187 0 2.153.28 2.9.84s1.12 1.447 1.12 2.66V49zm-4.4-1.2c1.053 0 1.82-.333 2.3-1v-1.46c-.48-.667-1.247-1-2.3-1-.6 0-1.093.16-1.48.48s-.58.74-.58 1.26.193.94.58 1.26c.387.307.88.46 1.48.46z" fill="#fff"/></g><defs><filter id="A" x=".42" y=".66" width="118.428" height="93.58" filterUnits="userSpaceOnUse" color-interpolation-filters="sRGB"><feFlood flood-opacity="0" result="A"/><feColorMatrix in="SourceAlpha" values="0 0 0 0 0 0 0 0 0 0 0 0 0 0 0 0 0 0 127 0" result="B"/><feOffset dx="2" dy="5"/><feGaussianBlur stdDeviation="20"/><feComposite in2="B" operator="out"/><feColorMatrix values="0 0 0 0 0.933333 0 0 0 0 0.933333 0 0 0 0 0.933333 0 0 0 1 0"/><feBlend in2="A"/><feBlend in="SourceGraphic"/></filter></defs></svg>