<svg width="23" height="28" viewBox="0 0 23 28" fill="none" xmlns="http://www.w3.org/2000/svg">
<path d="M16.2085 11.9486L15.9558 12.1748L16.2949 12.1667C17.3422 12.1414 18.2336 12.3399 18.9179 12.8642C19.6007 13.3873 20.0961 14.2495 20.3221 15.5915L20.4453 15.5708L20.3221 15.5915C20.6013 17.2491 20.1954 18.4393 19.3062 19.3582C18.4087 20.2857 17.009 20.9473 15.2793 21.5143L15.1671 21.551L15.1974 21.6651L16.0853 25.0154L14.2322 25.5072L13.3561 22.2039L13.324 22.0829L13.203 22.1151C12.6613 22.2597 12.1052 22.4018 11.5273 22.5426L11.4033 22.5729L11.436 22.6962L12.3175 26.0153L10.4666 26.506L9.57416 23.1506L9.54231 23.0308L9.42226 23.0617C9.25432 23.1048 9.08477 23.1479 8.91393 23.1912C8.58711 23.2742 8.2556 23.3584 7.92167 23.4466L7.92153 23.4467L5.33843 24.1322L5.11491 21.7771L5.2536 21.7423C5.39918 21.7057 5.59302 21.6567 5.78587 21.6071C5.97856 21.5576 6.17087 21.5074 6.31316 21.4684C6.38405 21.449 6.44379 21.4321 6.48525 21.4193C6.50534 21.4131 6.52406 21.4069 6.53817 21.4014C6.54188 21.4 6.54947 21.397 6.55805 21.3926C6.87416 21.3027 7.05825 21.1266 7.15389 20.9244C7.24884 20.7235 7.25009 20.5109 7.23191 20.3604L7.23087 20.3517L7.22863 20.3433L5.76867 14.8423L5.76867 14.8422L4.72866 10.9262L4.72568 10.9149L4.72068 10.9045C4.61755 10.6881 4.45226 10.458 4.18973 10.3142C3.92912 10.1715 3.58867 10.1226 3.15105 10.2336C3.14147 10.2338 3.13364 10.2348 3.12978 10.2353C3.11382 10.2373 3.09378 10.2412 3.07309 10.2456C3.03022 10.2549 2.96961 10.2697 2.89844 10.2879C2.75549 10.3245 2.56385 10.3764 2.37241 10.4292C2.1808 10.4821 1.98868 10.536 1.84452 10.5767L1.72643 10.6102L1.19775 8.61953L3.84584 7.91789L3.84855 7.92811L3.96937 7.89605C4.40574 7.78024 4.85004 7.65287 5.30103 7.52328L5.41873 7.48946L5.38733 7.37109L4.50764 4.05495L6.35904 3.56379L7.2215 6.81175L7.25423 6.93499L7.37679 6.89982C7.93326 6.74013 8.49109 6.58053 9.04087 6.43462L9.16167 6.40256L9.12963 6.28176L8.2739 3.05511L10.1271 2.56327L11.0079 5.88003L11.0373 5.99072L11.1502 5.9711C12.527 5.73177 13.7866 5.68098 14.8075 5.98032C15.82 6.27718 16.6032 6.91949 17.0372 8.08816L17.0372 8.08832C17.3596 8.95262 17.4022 9.69062 17.2429 10.3224C17.0835 10.9543 16.7192 11.4913 16.2085 11.9486ZM9.03317 13.4361L9.06523 13.5569L9.18605 13.5249C9.28201 13.4994 9.39653 13.4711 9.5255 13.4391C10.1776 13.2777 11.1994 13.0247 12.0606 12.5907C12.5773 12.3304 13.0495 11.9988 13.3517 11.5711C13.6579 11.1379 13.7849 10.6123 13.6184 9.98433L13.6184 9.98428C13.4453 9.33273 13.0722 8.92582 12.5892 8.69574C12.1123 8.46858 11.5377 8.41795 10.961 8.45432C10.0408 8.51235 9.07517 8.79637 8.43042 8.986C8.26942 9.03336 8.12842 9.07482 8.01315 9.10542L8.04521 9.22624L7.92439 9.2583L9.03317 13.4361ZM10.8145 20.1519L10.8466 20.2728L10.9675 20.2407C11.0823 20.2101 11.2186 20.176 11.3717 20.1377C12.1542 19.9418 13.3767 19.6358 14.4122 19.1337C15.0318 18.8333 15.5979 18.4567 15.965 17.98C16.3364 17.4977 16.5014 16.9155 16.3179 16.2248C16.1276 15.5081 15.6932 15.0698 15.129 14.8293C14.5716 14.5917 13.8934 14.5491 13.208 14.6027C12.1108 14.6884 10.9543 15.0252 10.1796 15.2509C9.98805 15.3067 9.81985 15.3556 9.68164 15.3924L9.56089 15.4245L9.59291 15.5452L10.8145 20.1519Z" fill="black" stroke="white" stroke-width="0.25"/>
</svg>
