<svg width="60" height="60" viewBox="0 0 60 60" fill="none" xmlns="http://www.w3.org/2000/svg">
<circle cx="30" cy="30" r="30" fill="white" fill-opacity="0.3"/>
<path d="M28.9747 18.3132C28.9747 18.3132 28.9749 18.3142 28.9753 18.3163C28.9749 18.3143 28.9747 18.3132 28.9747 18.3132ZM29.6262 40.3764C29.6262 40.3764 29.6269 40.3755 29.6281 40.3739C29.6269 40.3756 29.6262 40.3765 29.6262 40.3764ZM31.0253 40.6868C31.0253 40.6868 31.0251 40.6859 31.0247 40.6837C31.0251 40.6857 31.0253 40.6868 31.0253 40.6868ZM30.3738 18.6236C30.3738 18.6236 30.3731 18.6245 30.3719 18.6261C30.3731 18.6244 30.3738 18.6235 30.3738 18.6236ZM26.1404 33H29V39.7462L29 39.7993C28.9999 40.1956 28.9999 40.5733 29.0303 40.8547C29.0456 40.9969 29.077 41.2104 29.1702 41.4182C29.2736 41.649 29.5134 41.9901 29.9793 42.0934C30.4451 42.1968 30.8066 41.9891 30.998 41.8237C31.1703 41.6748 31.289 41.4946 31.3631 41.3722C31.5096 41.1301 31.6693 40.7878 31.8368 40.4287L31.8593 40.3805L36.5782 30.2687C36.588 30.2475 36.5979 30.2264 36.6077 30.2054C36.8809 29.6201 37.1317 29.0829 37.2656 28.6332C37.4091 28.1511 37.4962 27.5214 37.1167 26.9256C36.7373 26.3299 36.1299 26.1425 35.6324 26.0687C35.1682 25.9998 34.5754 25.9999 33.9294 26C33.9062 26 33.8829 26 33.8596 26H31V19.2538C31 19.2361 31 19.2184 31 19.2007C31.0001 18.8044 31.0001 18.4267 30.9697 18.1453C30.9544 18.0031 30.923 17.7896 30.8298 17.5818C30.7264 17.351 30.4866 17.0099 30.0207 16.9066C29.5549 16.8032 29.1934 17.0109 29.002 17.1763C28.8297 17.3252 28.711 17.5054 28.6369 17.6278C28.4904 17.8699 28.3307 18.2122 28.1632 18.5713C28.1557 18.5873 28.1482 18.6034 28.1407 18.6195L23.4218 28.7313C23.412 28.7525 23.4021 28.7736 23.3923 28.7946C23.1191 29.3799 22.8683 29.9171 22.7344 30.3668C22.5909 30.8489 22.5038 31.4786 22.8833 32.0743C23.2627 32.6701 23.8701 32.8575 24.3676 32.9313C24.8318 33.0002 25.4246 33.0001 26.0706 33C26.0938 33 26.1171 33 26.1404 33Z" stroke="white" stroke-width="2"/>
</svg>
