<svg width="18" height="8" viewBox="0 0 18 8" fill="none" xmlns="http://www.w3.org/2000/svg">
<path d="M17.2403 3.56588L11.7481 0.427468C11.4147 0.236995 11 0.477679 11 0.86159V7.13841C11 7.52232 11.4147 7.76301 11.7481 7.57253L17.2403 4.43412C17.5762 4.24217 17.5762 3.75783 17.2403 3.56588Z" fill="white"/>
<path d="M11 4.5C11.2761 4.5 11.5 4.27614 11.5 4C11.5 3.72386 11.2761 3.5 11 3.5V4.5ZM1 3.5C0.723858 3.5 0.5 3.72386 0.5 4C0.5 4.27614 0.723858 4.5 1 4.5V3.5ZM11 3.5L1 3.5V4.5L11 4.5V3.5Z" fill="white"/>
</svg>
