<svg width="220" height="243" viewBox="0 0 220 243" fill="none" xmlns="http://www.w3.org/2000/svg" xmlns:xlink="http://www.w3.org/1999/xlink">
<g filter="url(#filter0_d_853:15697)">
<g clip-path="url(#clip0_853:15697)">
<rect x="35" y="35" width="150" height="173" rx="12" fill="white"/>
<path d="M106.012 121.567C106.012 122.37 105.481 123.021 104.826 123.021C104.17 123.021 103.639 122.37 103.639 121.567C103.639 120.764 104.17 120.113 104.826 120.113C105.481 120.113 106.012 120.764 106.012 121.567Z" fill="white"/>
<path d="M103.801 124.089H105.83V132.14H103.801V124.089Z" fill="white"/>
<path d="M109.096 124.089H107.067V132.14H109.096C109.096 132.14 109.096 129.605 109.096 128.021C109.096 127.07 109.344 126.114 110.334 126.114C111.452 126.114 111.446 127.359 111.44 128.323C111.434 129.584 111.45 130.87 111.45 132.14H113.479V127.891C113.462 125.178 112.922 123.928 111.145 123.928C110.091 123.928 109.437 124.555 109.096 125.122V124.089Z" fill="white"/>
<path d="M62.2162 123.405C62.2162 123.955 61.8616 124.4 61.4242 124.4C60.9868 124.4 60.6322 123.955 60.6322 123.405C60.6322 122.856 60.9868 122.411 61.4242 122.411C61.8616 122.411 62.2162 122.856 62.2162 123.405Z" fill="white"/>
<path fill-rule="evenodd" clip-rule="evenodd" d="M58.5202 130.367C59.9783 130.367 61.1602 128.883 61.1602 127.052C61.1602 125.221 59.9783 123.737 58.5202 123.737C57.0622 123.737 55.8802 125.221 55.8802 127.052C55.8802 128.883 57.0622 130.367 58.5202 130.367ZM58.5202 129.041C59.3951 129.041 60.1042 128.151 60.1042 127.052C60.1042 125.953 59.3951 125.063 58.5202 125.063C57.6454 125.063 56.9362 125.953 56.9362 127.052C56.9362 128.151 57.6454 129.041 58.5202 129.041Z" fill="white"/>
<path fill-rule="evenodd" clip-rule="evenodd" d="M53.2402 126.787C53.2402 124.559 53.2402 123.445 53.5855 122.594C53.8893 121.845 54.3739 121.237 54.97 120.855C55.6477 120.422 56.5348 120.422 58.309 120.422H58.7314C60.5057 120.422 61.3928 120.422 62.0705 120.855C62.6666 121.237 63.1512 121.845 63.4549 122.594C63.8002 123.445 63.8002 124.559 63.8002 126.787V127.317C63.8002 129.545 63.8002 130.659 63.4549 131.51C63.1512 132.259 62.6666 132.867 62.0705 133.249C61.3928 133.682 60.5057 133.682 58.7314 133.682H58.309C56.5348 133.682 55.6477 133.682 54.97 133.249C54.3739 132.867 53.8893 132.259 53.5855 131.51C53.2402 130.659 53.2402 129.545 53.2402 127.317V126.787ZM58.309 121.748H58.7314C59.636 121.748 60.2509 121.749 60.7262 121.798C61.1891 121.845 61.4259 121.931 61.5911 122.037C61.9885 122.291 62.3116 122.697 62.514 123.196C62.5982 123.403 62.6668 123.701 62.7046 124.282C62.7434 124.879 62.7442 125.651 62.7442 126.787V127.317C62.7442 128.453 62.7434 129.225 62.7046 129.822C62.6668 130.403 62.5982 130.701 62.514 130.908C62.3116 131.407 61.9885 131.813 61.5911 132.067C61.4259 132.173 61.1891 132.259 60.7262 132.306C60.2509 132.355 59.636 132.356 58.7314 132.356H58.309C57.4045 132.356 56.7896 132.355 56.3143 132.306C55.8513 132.259 55.6146 132.173 55.4494 132.067C55.052 131.813 54.7289 131.407 54.5264 130.908C54.4423 130.701 54.3737 130.403 54.3359 129.822C54.2971 129.225 54.2962 128.453 54.2962 127.317V126.787C54.2962 125.651 54.2971 124.879 54.3359 124.282C54.3737 123.701 54.4423 123.403 54.5264 123.196C54.7289 122.697 55.052 122.291 55.4494 122.037C55.6146 121.931 55.8513 121.845 56.3143 121.798C56.7896 121.749 57.4045 121.748 58.309 121.748Z" fill="white"/>
<path d="M61.8724 95.9684L62.258 92.922H59.846V90.946C59.846 90.1124 60.1823 89.2994 61.2626 89.2994H62.3599V86.7058C62.3599 86.7058 61.3645 86.5 60.4133 86.5C58.4259 86.5 57.1282 87.9594 57.1282 90.6002V92.922H54.9199V95.9684H57.1282V103.333C57.5715 103.418 58.025 103.461 58.4871 103.461C58.9491 103.461 59.4026 103.418 59.846 103.333V95.9684H61.8724Z" fill="white"/>
<path fill-rule="evenodd" clip-rule="evenodd" d="M55.5839 152.275C55.026 153.182 54.8348 154.259 54.8348 154.899C54.8348 155.493 54.8735 156.317 54.9062 156.908C54.917 157.105 54.8861 157.334 54.754 157.515C54.6204 157.699 54.4386 157.759 54.2762 157.759C54.0417 157.759 53.8634 157.648 53.7493 157.576L53.736 157.568C53.6087 157.489 53.5418 157.452 53.4434 157.452C53.3539 157.452 53.2446 157.502 53.158 157.593C53.0702 157.685 53.0447 157.776 53.0447 157.827C53.0447 157.932 53.0746 158.008 53.1845 158.1C53.3142 158.209 53.4991 158.291 53.7415 158.394L53.7626 158.403C53.9639 158.489 54.2132 158.595 54.4099 158.754C54.6308 158.933 54.8348 159.22 54.8348 159.663C54.8348 159.779 54.8101 159.891 54.7869 159.975C54.7618 160.067 54.7278 160.164 54.6897 160.261C54.6133 160.455 54.51 160.674 54.3965 160.891C54.1712 161.323 53.8849 161.79 53.6469 162.088C53.4063 162.388 53.0445 162.726 52.6786 162.99C52.4943 163.123 52.3019 163.242 52.1164 163.329C51.9503 163.406 51.7713 163.467 51.5996 163.477C51.5953 163.479 51.5906 163.482 51.5856 163.485C51.5777 163.49 51.5703 163.496 51.5639 163.502L51.5605 163.505C51.5612 163.511 51.5619 163.515 51.5626 163.518C51.5639 163.525 51.5656 163.53 51.5678 163.535C51.5745 163.551 51.5851 163.569 51.628 163.629L51.6393 163.644C51.7167 163.752 51.9074 163.893 52.2096 164.018C52.4975 164.138 52.8378 164.224 53.1594 164.264C53.3203 164.283 53.4131 164.414 53.4523 164.484C53.4927 164.557 53.5158 164.633 53.5293 164.684C53.5555 164.782 53.5752 164.903 53.5908 164.999L53.5931 165.013C53.6144 165.143 53.633 165.255 53.6572 165.347C53.6658 165.38 53.6737 165.405 53.6805 165.424C53.6958 165.426 53.7193 165.428 53.7534 165.428C53.9013 165.427 54.0494 165.399 54.1959 165.376C54.4303 165.339 54.7203 165.294 55.0275 165.294C55.7398 165.294 56.2098 165.711 56.6638 166.114L56.6893 166.136C56.8573 166.285 57.0257 166.435 57.2151 166.58C57.7487 166.989 58.1547 166.986 58.4514 166.984C58.4722 166.984 58.4926 166.984 58.5124 166.984C58.532 166.984 58.5522 166.984 58.573 166.984C58.8729 166.986 59.2925 166.989 59.826 166.58C60.0154 166.435 60.1838 166.285 60.3518 166.136L60.3773 166.114C60.8313 165.711 61.3013 165.294 62.0136 165.294C62.3207 165.294 62.6108 165.339 62.8452 165.376L62.8523 165.377C63.0419 165.406 63.1806 165.427 63.2877 165.428C63.3217 165.428 63.3453 165.426 63.3606 165.424C63.3674 165.405 63.3753 165.38 63.3839 165.347C63.4081 165.255 63.4267 165.143 63.448 165.013L63.4503 164.999C63.4659 164.903 63.4856 164.782 63.5118 164.684C63.5253 164.633 63.5484 164.557 63.5888 164.484C63.628 164.414 63.7208 164.283 63.8817 164.264C64.2033 164.224 64.5436 164.138 64.8315 164.018C65.1337 163.893 65.3244 163.752 65.4018 163.644L65.413 163.629C65.456 163.569 65.4666 163.551 65.4733 163.535C65.4755 163.53 65.4772 163.525 65.4785 163.518C65.4792 163.515 65.4799 163.511 65.4805 163.505L65.4772 163.502C65.4708 163.496 65.4634 163.49 65.4555 163.485C65.4505 163.482 65.4458 163.479 65.4415 163.477C65.2698 163.467 65.0908 163.406 64.9247 163.329C64.7392 163.242 64.5468 163.123 64.3625 162.99C63.9966 162.726 63.6347 162.388 63.3942 162.088C63.1562 161.79 62.8699 161.323 62.6446 160.891C62.5311 160.674 62.4278 160.455 62.3514 160.261C62.3133 160.164 62.2793 160.067 62.2542 159.975C62.231 159.891 62.2063 159.779 62.2063 159.663C62.2063 159.22 62.4103 158.933 62.6312 158.754C62.8279 158.595 63.0772 158.489 63.2785 158.403L63.2996 158.394C63.542 158.291 63.7269 158.209 63.8566 158.1C63.9665 158.008 63.9964 157.932 63.9964 157.827C63.9964 157.776 63.9709 157.685 63.8831 157.593C63.7964 157.502 63.6872 157.452 63.5977 157.452C63.4993 157.452 63.4323 157.489 63.305 157.568L63.2918 157.576C63.1777 157.648 62.9994 157.759 62.7649 157.759C62.6025 157.759 62.4207 157.699 62.2871 157.515C62.155 157.334 62.124 157.105 62.1349 156.908C62.1676 156.317 62.2063 155.493 62.2063 154.899C62.2063 154.258 62.0185 153.18 61.4647 152.274C60.9238 151.389 60.0195 150.641 58.5287 150.641C57.0378 150.641 56.129 151.389 55.5839 152.275Z" fill="white"/>
<path d="M105.107 160.928C105.178 160.155 105.421 159.722 105.879 159.278C106.533 158.677 107.351 159.017 107.351 159.017V157C107.55 156.994 107.749 157.009 107.945 157.046V159.642C107.945 159.642 107.128 159.302 106.473 159.903C106.016 160.346 105.773 160.779 105.701 161.553C105.699 161.972 105.759 162.521 106.037 162.996C105.969 162.95 105.899 162.897 105.827 162.838C105.215 162.302 105.104 161.497 105.107 160.928ZM111.322 153.272C110.871 152.627 110.701 151.977 110.639 151.52H111.206C111.206 151.52 111.093 152.718 111.916 153.897L111.928 153.912C111.706 153.73 111.502 153.515 111.322 153.272ZM114.051 155.099V157.642C114.051 157.642 113.328 157.605 112.793 157.427C112.046 157.178 111.566 156.797 111.566 156.797C111.566 156.797 111.234 156.525 111.207 156.506V161.758C111.207 162.05 111.146 162.78 110.959 163.389C110.715 164.186 110.338 164.709 110.269 164.816C110.269 164.816 109.811 165.523 109.003 165.999C108.275 166.428 107.635 166.417 107.444 166.428C107.444 166.428 106.339 166.485 105.344 165.641C105.129 165.455 104.928 165.244 104.744 165.012L104.749 165.016C105.744 165.86 106.849 165.803 106.849 165.803C107.041 165.792 107.68 165.803 108.408 165.374C109.215 164.898 109.674 164.191 109.674 164.191C109.743 164.084 110.121 163.561 110.364 162.764C110.551 162.155 110.612 161.425 110.612 161.132V155.882C110.639 155.901 110.971 156.173 110.971 156.173C110.971 156.173 111.451 156.555 112.198 156.803C112.733 156.981 113.456 157.017 113.456 157.017V155.025C113.703 155.097 113.914 155.117 114.051 155.099Z" fill="white" fill-opacity="0.8"/>
<path d="M113.456 155.025V157.017C113.456 157.017 112.734 156.98 112.199 156.802C111.452 156.554 110.971 156.172 110.971 156.172C110.971 156.172 110.64 155.9 110.613 155.881V161.133C110.613 161.425 110.552 162.156 110.365 162.765C110.121 163.562 109.744 164.085 109.675 164.191C109.675 164.191 109.217 164.898 108.409 165.374C107.681 165.804 107.041 165.793 106.85 165.804C106.85 165.804 105.745 165.861 104.75 165.017L104.745 165.012C104.64 164.879 104.541 164.739 104.449 164.592C104.131 164.086 103.937 163.489 103.888 163.318C103.888 163.317 103.888 163.317 103.888 163.316C103.809 163.019 103.644 162.308 103.666 161.618C103.706 160.402 104.034 159.655 104.12 159.468C104.35 158.958 104.648 158.501 105.002 158.119C105.315 157.789 105.669 157.527 106.051 157.342C106.463 157.126 106.904 157.01 107.351 157V159.017C107.351 159.017 106.534 158.678 105.879 159.278C105.422 159.722 105.179 160.155 105.107 160.928C105.104 161.497 105.216 162.302 105.827 162.839C105.899 162.898 105.969 162.95 106.037 162.996C106.144 163.177 106.274 163.335 106.422 163.463C107.019 163.957 107.52 163.992 108.16 163.671C108.587 163.457 108.908 162.973 109.057 162.438C109.15 162.104 109.149 161.767 109.149 161.419V151.52H110.639C110.7 151.977 110.87 152.627 111.321 153.272C111.501 153.515 111.705 153.73 111.927 153.912C111.992 154.001 112.327 154.439 112.758 154.708C112.98 154.846 113.215 154.953 113.456 155.025Z" fill="white"/>
<path d="M103.295 162.699V162.701L103.332 162.832C103.328 162.816 103.314 162.77 103.295 162.699Z" fill="white" fill-opacity="0.6"/>
<path d="M106.05 157.343C105.669 157.527 105.314 157.789 105.002 158.119C104.648 158.503 104.349 158.96 104.12 159.471C104.033 159.658 103.706 160.405 103.666 161.621C103.643 162.311 103.809 163.023 103.887 163.319C103.887 163.32 103.887 163.321 103.887 163.321C103.937 163.49 104.131 164.088 104.448 164.595C104.54 164.742 104.639 164.882 104.744 165.015C104.408 164.724 104.108 164.372 103.854 163.97C103.539 163.469 103.345 162.877 103.294 162.703C103.294 162.701 103.294 162.7 103.294 162.699V162.697C103.215 162.401 103.049 161.688 103.072 160.998C103.112 159.781 103.44 159.035 103.527 158.848C103.756 158.337 104.054 157.879 104.409 157.496C104.721 157.166 105.075 156.904 105.457 156.719C105.695 156.596 105.942 156.505 106.196 156.447C106.578 156.364 106.968 156.357 107.352 156.426V157.001C106.905 157.01 106.463 157.126 106.05 157.343Z" fill="white" fill-opacity="0.6"/>
<path d="M110.639 151.52H109.15V161.42C109.15 161.768 109.15 162.103 109.057 162.439C108.907 162.974 108.587 163.457 108.161 163.671C107.52 163.993 107.02 163.957 106.423 163.464C106.275 163.336 106.144 163.178 106.037 162.998C106.546 163.337 107.001 163.331 107.565 163.048C107.991 162.834 108.312 162.35 108.462 161.815C108.556 161.481 108.554 161.144 108.554 160.796V150.895H110.611C110.611 150.895 110.588 151.141 110.639 151.52ZM113.456 154.474V155.025C113.214 154.953 112.98 154.847 112.758 154.708C112.328 154.439 111.993 154.001 111.927 153.913C112.003 153.975 112.082 154.032 112.164 154.083C112.687 154.41 113.202 154.507 113.456 154.474Z" fill="white" fill-opacity="0.6"/>
<path d="M54.3678 190.111L53 192.331V192.582H56.3728V192.331L55.0143 190.111V184.382L57.928 192.582H58.3402L60.8323 184.382V191.114L59.8111 192.331V192.582H64.28V192.331L63.2869 191.114V182.64L64.28 181.458V181.172H61.1977L58.9492 188.202L56.4383 181.172H53.1593V181.458L54.3678 183.284V190.111Z" fill="white"/>
<path d="M101.353 183.172C101.413 182.013 102.149 181.104 103.066 181.047C104.393 180.964 106.291 180.863 107.72 180.863C109.15 180.863 111.047 180.964 112.375 181.047C113.291 181.104 114.028 182.013 114.087 183.172C114.144 184.283 114.2 185.65 114.2 186.722C114.2 187.795 114.144 189.162 114.087 190.272C114.028 191.432 113.291 192.34 112.375 192.398C111.047 192.481 109.15 192.582 107.72 192.582C106.291 192.582 104.393 192.481 103.066 192.398C102.149 192.34 101.413 191.432 101.353 190.272C101.296 189.162 101.24 187.795 101.24 186.722C101.24 185.65 101.296 184.283 101.353 183.172Z" fill="white" fill-opacity="0.6"/>
<path d="M106.279 184.254V189.188L109.879 186.721L106.279 184.254Z" fill="white"/>
<path d="M163.134 153.337C162.311 152.878 161.431 152.545 160.51 152.355C160.397 152.599 160.265 152.926 160.174 153.186C159.196 153.011 158.226 153.011 157.266 153.186C157.175 152.926 157.04 152.599 156.926 152.355C156.004 152.545 155.123 152.88 154.299 153.339C152.638 156.326 152.188 159.239 152.413 162.11C153.515 163.089 154.582 163.683 155.632 164.073C155.891 163.648 156.122 163.197 156.321 162.722C155.942 162.55 155.579 162.338 155.236 162.093C155.327 162.013 155.416 161.929 155.502 161.842C157.595 163.007 159.869 163.007 161.937 161.842C162.024 161.929 162.113 162.013 162.203 162.093C161.859 162.34 161.495 162.551 161.115 162.723C161.315 163.197 161.545 163.649 161.805 164.074C162.855 163.685 163.924 163.09 165.025 162.11C165.289 158.781 164.574 155.896 163.134 153.337ZM156.606 160.344C155.978 160.344 155.463 159.646 155.463 158.796C155.463 157.946 155.967 157.247 156.606 157.247C157.246 157.247 157.761 157.945 157.75 158.796C157.751 159.646 157.246 160.344 156.606 160.344ZM160.832 160.344C160.204 160.344 159.689 159.646 159.689 158.796C159.689 157.946 160.193 157.247 160.832 157.247C161.472 157.247 161.987 157.945 161.976 158.796C161.976 159.646 161.472 160.344 160.832 160.344Z" fill="white"/>
<path d="M158.84 193.677C162.021 193.677 164.6 190.433 164.6 186.43C164.6 182.428 162.021 179.184 158.84 179.184C155.659 179.184 153.08 182.428 153.08 186.43C153.08 189.371 154.472 191.902 156.472 193.038C156.474 192.96 156.477 192.888 156.48 192.826C156.483 192.742 156.486 192.677 156.486 192.641C156.486 192.423 156.604 191.343 156.604 191.343L157.324 187.624C157.213 187.397 157.13 186.918 157.13 186.552C157.13 184.863 157.878 184.497 158.335 184.497C158.916 184.497 159.048 185.289 159.048 185.873C159.048 186.182 158.92 186.665 158.79 187.162C158.651 187.689 158.508 188.232 158.508 188.599C158.508 189.314 159.069 189.671 159.456 189.671C160.481 189.671 161.422 188.051 161.422 186.43C161.422 184.81 160.82 182.851 158.847 182.851C156.874 182.851 155.988 184.741 155.988 186.187C155.988 187.162 156.279 187.876 156.424 187.998C156.465 188.045 156.536 188.188 156.486 188.39C156.436 188.592 156.345 189.044 156.306 189.244C156.302 189.29 156.258 189.369 156.119 189.314C155.946 189.244 154.845 188.373 154.845 186.187C154.845 184 156.209 181.457 158.847 181.457C161.485 181.457 162.835 183.687 162.835 186.43C162.835 189.174 161.069 190.925 159.726 190.925C158.652 190.925 158.231 190.321 158.155 190.019L157.746 191.979C157.65 192.304 157.47 192.888 157.248 193.397C157.754 193.58 158.288 193.677 158.84 193.677Z" fill="white"/>
<path d="M87.602 158.264C85.402 158.264 83.5687 157.56 82.102 156.152C80.6353 154.729 79.902 152.903 79.902 150.674C79.902 148.445 80.6353 146.626 82.102 145.218C83.5687 143.795 85.402 143.084 87.602 143.084C90.154 143.084 92.1193 144.184 93.498 146.384L91.298 147.506C90.9313 146.875 90.4107 146.362 89.736 145.966C89.076 145.57 88.3647 145.372 87.602 145.372C86.15 145.372 84.94 145.871 83.972 146.868C83.0187 147.865 82.542 149.134 82.542 150.674C82.542 152.214 83.0187 153.483 83.972 154.48C84.94 155.477 86.15 155.976 87.602 155.976C88.3793 155.976 89.098 155.778 89.758 155.382C90.418 154.986 90.9313 154.473 91.298 153.842L93.498 154.964C92.09 157.164 90.1247 158.264 87.602 158.264ZM102.598 158.264C100.398 158.264 98.5648 157.56 97.0981 156.152C95.6314 154.729 94.8981 152.903 94.8981 150.674C94.8981 148.445 95.6314 146.626 97.0981 145.218C98.5648 143.795 100.398 143.084 102.598 143.084C105.15 143.084 107.115 144.184 108.494 146.384L106.294 147.506C105.927 146.875 105.407 146.362 104.732 145.966C104.072 145.57 103.361 145.372 102.598 145.372C101.146 145.372 99.9361 145.871 98.9681 146.868C98.0148 147.865 97.5381 149.134 97.5381 150.674C97.5381 152.214 98.0148 153.483 98.9681 154.48C99.9361 155.477 101.146 155.976 102.598 155.976C103.375 155.976 104.094 155.778 104.754 155.382C105.414 154.986 105.927 154.473 106.294 153.842L108.494 154.964C107.086 157.164 105.121 158.264 102.598 158.264ZM113.128 158H110.554V143.326H117C118.482 143.326 119.648 143.766 120.498 144.646C121.364 145.526 121.796 146.619 121.796 147.924C121.796 149.215 121.364 150.307 120.498 151.202C119.648 152.082 118.482 152.522 117 152.522H113.128V158ZM116.648 150.256C117.382 150.256 117.983 150.043 118.452 149.618C118.922 149.193 119.156 148.628 119.156 147.924C119.156 147.22 118.922 146.655 118.452 146.23C117.983 145.805 117.382 145.592 116.648 145.592H113.128V150.256H116.648ZM135.485 158H132.559L131.481 155.184H124.749L123.671 158H120.745L126.509 143.326H129.721L135.485 158ZM130.755 152.918L128.115 145.922L125.475 152.918H130.755Z" fill="black"/>
<path d="M68.668 186.264C71.264 186.264 73.024 185.032 74.256 183.36L72.694 182.502C71.858 183.756 70.34 184.636 68.668 184.636C65.456 184.636 63.014 182.15 63.014 178.674C63.014 175.176 65.456 172.712 68.668 172.712C70.34 172.712 71.858 173.614 72.694 174.846L74.234 173.988C73.068 172.338 71.264 171.084 68.668 171.084C64.444 171.084 61.122 174.164 61.122 178.674C61.122 183.184 64.444 186.264 68.668 186.264ZM81.1592 186.264C84.3932 186.264 86.4172 183.756 86.4172 180.676C86.4172 177.596 84.3932 175.11 81.1592 175.11C77.9252 175.11 75.9012 177.596 75.9012 180.676C75.9012 183.756 77.9252 186.264 81.1592 186.264ZM81.1592 184.79C78.8932 184.79 77.6172 182.854 77.6172 180.676C77.6172 178.52 78.8932 176.584 81.1592 176.584C83.4252 176.584 84.6792 178.52 84.6792 180.676C84.6792 182.854 83.4252 184.79 81.1592 184.79ZM103.583 186V178.322C103.583 176.188 102.549 175.11 100.613 175.11C99.073 175.11 97.643 176.122 97.049 177.09C96.741 175.99 95.817 175.11 94.189 175.11C92.627 175.11 91.197 176.232 90.757 176.914V175.374H89.107V186H90.757V178.234C91.329 177.376 92.473 176.584 93.551 176.584C94.937 176.584 95.509 177.442 95.509 178.784V186H97.159V178.212C97.709 177.376 98.875 176.584 99.975 176.584C101.339 176.584 101.933 177.442 101.933 178.784V186H103.583ZM112.111 186.264C114.905 186.264 116.841 184.108 116.841 180.676C116.841 177.222 114.905 175.11 112.111 175.11C110.615 175.11 109.295 175.88 108.525 176.958V175.374H106.875V190.048H108.525V184.394C109.383 185.582 110.659 186.264 112.111 186.264ZM111.693 184.79C110.395 184.79 109.097 183.998 108.525 183.074V178.278C109.097 177.354 110.395 176.584 111.693 176.584C113.827 176.584 115.103 178.322 115.103 180.676C115.103 183.03 113.827 184.79 111.693 184.79ZM121.114 186V171.326H119.464V186H121.114ZM125.22 173.856C125.836 173.856 126.342 173.372 126.342 172.756C126.342 172.14 125.836 171.634 125.22 171.634C124.626 171.634 124.12 172.14 124.12 172.756C124.12 173.372 124.626 173.856 125.22 173.856ZM126.056 186V175.374H124.406V186H126.056ZM137.641 186V178.696C137.641 176.122 135.771 175.11 133.527 175.11C131.789 175.11 130.425 175.682 129.281 176.87L130.051 178.014C130.997 177.002 132.031 176.54 133.307 176.54C134.847 176.54 135.991 177.354 135.991 178.784V180.698C135.133 179.708 133.923 179.246 132.471 179.246C130.667 179.246 128.753 180.368 128.753 182.744C128.753 185.054 130.667 186.264 132.471 186.264C133.901 186.264 135.111 185.758 135.991 184.79V186H137.641ZM133.065 185.076C131.525 185.076 130.447 184.108 130.447 182.766C130.447 181.402 131.525 180.434 133.065 180.434C134.231 180.434 135.353 180.874 135.991 181.754V183.756C135.353 184.636 134.231 185.076 133.065 185.076ZM149.771 186V178.542C149.771 176.232 148.605 175.11 146.383 175.11C144.799 175.11 143.347 176.034 142.599 176.914V175.374H140.949V186H142.599V178.234C143.215 177.376 144.447 176.584 145.745 176.584C147.175 176.584 148.121 177.178 148.121 179.048V186H149.771ZM155.75 186.264C156.718 186.264 157.312 185.978 157.73 185.582L157.246 184.35C157.026 184.592 156.586 184.79 156.124 184.79C155.398 184.79 155.046 184.218 155.046 183.426V176.826H157.202V175.374H155.046V172.47H153.396V175.374H151.636V176.826H153.396V183.778C153.396 185.362 154.188 186.264 155.75 186.264Z" fill="black"/>
<rect x="35" y="35" width="150" height="89" fill="#345B81"/>
<rect x="63" y="31" width="93" height="81" fill="url(#pattern0)"/>
</g>
</g>
<defs>
<filter id="filter0_d_853:15697" x="0" y="0" width="220" height="243" filterUnits="userSpaceOnUse" color-interpolation-filters="sRGB">
<feFlood flood-opacity="0" result="BackgroundImageFix"/>
<feColorMatrix in="SourceAlpha" type="matrix" values="0 0 0 0 0 0 0 0 0 0 0 0 0 0 0 0 0 0 127 0" result="hardAlpha"/>
<feMorphology radius="5" operator="dilate" in="SourceAlpha" result="effect1_dropShadow_853:15697"/>
<feOffset/>
<feGaussianBlur stdDeviation="15"/>
<feColorMatrix type="matrix" values="0 0 0 0 0.683333 0 0 0 0 0.683333 0 0 0 0 0.683333 0 0 0 0.18 0"/>
<feBlend mode="normal" in2="BackgroundImageFix" result="effect1_dropShadow_853:15697"/>
<feBlend mode="normal" in="SourceGraphic" in2="effect1_dropShadow_853:15697" result="shape"/>
</filter>
<pattern id="pattern0" patternContentUnits="objectBoundingBox" width="1" height="1">
<use xlink:href="#image0_853:15697" transform="translate(-1.07282 -0.000732079) scale(0.0018607 0.00213377)"/>
</pattern>
<clipPath id="clip0_853:15697">
<rect x="35" y="35" width="150" height="173" rx="12" fill="white"/>
</clipPath>
</defs>
</svg>
