<?xml version="1.0" encoding="UTF-8"?>
<svg fill="none" viewBox="0 0 181 210" xmlns="http://www.w3.org/2000/svg">
<g filter="url(#a)">
<rect x="38" y="35" width="101" height="130" rx="12" fill="#fff"/>
<path d="m74.256 132.19c-1.6 0-2.9333-0.512-4-1.536-1.0667-1.035-1.6-2.363-1.6-3.984s0.5333-2.944 1.6-3.968c1.0667-1.035 2.4-1.552 4-1.552 1.856 0 3.2853 0.8 4.288 2.4l-1.6 0.816c-0.2667-0.459-0.6453-0.832-1.136-1.12-0.48-0.288-0.9973-0.432-1.552-0.432-1.056 0-1.936 0.363-2.64 1.088-0.6933 0.725-1.04 1.648-1.04 2.768s0.3467 2.043 1.04 2.768c0.704 0.725 1.584 1.088 2.64 1.088 0.5653 0 1.088-0.144 1.568-0.432s0.8533-0.661 1.12-1.12l1.6 0.816c-1.024 1.6-2.4533 2.4-4.288 2.4zm10.906 0c-1.6 0-2.9334-0.512-4-1.536-1.0667-1.035-1.6-2.363-1.6-3.984s0.5333-2.944 1.6-3.968c1.0666-1.035 2.4-1.552 4-1.552 1.856 0 3.2853 0.8 4.288 2.4l-1.6 0.816c-0.2667-0.459-0.6454-0.832-1.136-1.12-0.48-0.288-0.9974-0.432-1.552-0.432-1.056 0-1.936 0.363-2.64 1.088-0.6934 0.725-1.04 1.648-1.04 2.768s0.3466 2.043 1.04 2.768c0.704 0.725 1.584 1.088 2.64 1.088 0.5653 0 1.088-0.144 1.568-0.432s0.8533-0.661 1.12-1.12l1.6 0.816c-1.024 1.6-2.4534 2.4-4.288 2.4zm7.6582-0.192h-1.872v-10.672h4.688c1.0773 0 1.9253 0.32 2.544 0.96 0.6293 0.64 0.944 1.435 0.944 2.384 0 0.939-0.3147 1.733-0.944 2.384-0.6187 0.64-1.4667 0.96-2.544 0.96h-2.816v3.984zm2.56-5.632c0.5333 0 0.9707-0.155 1.312-0.464s0.512-0.72 0.512-1.232-0.1707-0.923-0.512-1.232-0.7787-0.464-1.312-0.464h-2.56v3.392h2.56zm13.7 5.632h-2.128l-0.784-2.048h-4.896l-0.784 2.048h-2.1282l4.1922-10.672h2.336l4.192 10.672zm-3.44-3.696-1.92-5.088-1.92 5.088h3.84z" fill="#000"/>
<path d="m61.304 151.19c1.888 0 3.168-0.896 4.064-2.112l-1.136-0.624c-0.608 0.912-1.712 1.552-2.928 1.552-2.336 0-4.112-1.808-4.112-4.336 0-2.544 1.776-4.336 4.112-4.336 1.216 0 2.32 0.656 2.928 1.552l1.12-0.624c-0.848-1.2-2.16-2.112-4.048-2.112-3.072 0-5.488 2.24-5.488 5.52s2.416 5.52 5.488 5.52zm9.0845 0c2.352 0 3.824-1.824 3.824-4.064s-1.472-4.048-3.824-4.048-3.824 1.808-3.824 4.048 1.472 4.064 3.824 4.064zm0-1.072c-1.648 0-2.576-1.408-2.576-2.992 0-1.568 0.928-2.976 2.576-2.976s2.56 1.408 2.56 2.976c0 1.584-0.912 2.992-2.56 2.992zm16.308 0.88v-5.584c0-1.552-0.752-2.336-2.16-2.336-1.1201 0-2.16 0.736-2.592 1.44-0.224-0.8-0.896-1.44-2.08-1.44-1.136 0-2.176 0.816-2.496 1.312v-1.12h-1.2v7.728h1.2v-5.648c0.416-0.624 1.248-1.2 2.032-1.2 1.008 0 1.424 0.624 1.424 1.6v5.248h1.2v-5.664c0.4-0.608 1.248-1.184 2.048-1.184 0.992 0 1.424 0.624 1.424 1.6v5.248h1.2zm6.2018 0.192c2.032 0 3.44-1.568 3.44-4.064 0-2.512-1.408-4.048-3.44-4.048-1.088 0-2.048 0.56-2.608 1.344v-1.152h-1.2v10.672h1.2v-4.112c0.624 0.864 1.552 1.36 2.608 1.36zm-0.304-1.072c-0.944 0-1.888-0.576-2.304-1.248v-3.488c0.416-0.672 1.36-1.232 2.304-1.232 1.552 0 2.48 1.264 2.48 2.976s-0.928 2.992-2.48 2.992zm6.8523 0.88v-10.672h-1.2v10.672h1.2zm2.9861-8.832c0.448 0 0.816-0.352 0.816-0.8s-0.368-0.816-0.816-0.816c-0.432 0-0.8 0.368-0.8 0.816s0.368 0.8 0.8 0.8zm0.608 8.832v-7.728h-1.2v7.728h1.2zm8.425 0v-5.312c0-1.872-1.36-2.608-2.992-2.608-1.264 0-2.256 0.416-3.088 1.28l0.56 0.832c0.688-0.736 1.44-1.072 2.368-1.072 1.12 0 1.952 0.592 1.952 1.632v1.392c-0.624-0.72-1.504-1.056-2.56-1.056-1.312 0-2.704 0.816-2.704 2.544 0 1.68 1.392 2.56 2.704 2.56 1.04 0 1.92-0.368 2.56-1.072v0.88h1.2zm-3.328-0.672c-1.12 0-1.904-0.704-1.904-1.68 0-0.992 0.784-1.696 1.904-1.696 0.848 0 1.664 0.32 2.128 0.96v1.456c-0.464 0.64-1.28 0.96-2.128 0.96zm12.15 0.672v-5.424c0-1.68-0.848-2.496-2.464-2.496-1.152 0-2.208 0.672-2.752 1.312v-1.12h-1.2v7.728h1.2v-5.648c0.448-0.624 1.344-1.2 2.288-1.2 1.04 0 1.728 0.432 1.728 1.792v5.056h1.2zm4.348 0.192c0.704 0 1.136-0.208 1.44-0.496l-0.352-0.896c-0.16 0.176-0.48 0.32-0.816 0.32-0.528 0-0.784-0.416-0.784-0.992v-4.8h1.568v-1.056h-1.568v-2.112h-1.2v2.112h-1.28v1.056h1.28v5.056c0 1.152 0.576 1.808 1.712 1.808z" fill="#000"/>
<rect x="38" y="35" width="101" height="76" rx="10" fill="#00309A"/>
<rect x="38" y="100" width="101" height="11" fill="#00309A"/>
<path d="m89.5 97c9.1127 0 16.5-7.1634 16.5-16s-7.3873-16-16.5-16-16.5 7.1634-16.5 16 7.3873 16 16.5 16z" fill="#fff"/>
<path d="m101.77 67.323v-7.3002c0-10.322-8.4868-13.022-12.973-13.022-2.2151 0.0629-4.391 0.6028-6.3808 1.5835-3.0135 1.5146-6.6076 4.7239-6.6076 11.439v7.6684c-3.6017 3.1767-5.8057 7.7873-5.8057 13.303 0 10.703 8.2757 18.006 19 18.006s19-7.3081 19-18.006c0-5.7322-2.378-10.489-6.233-13.672zm-21.423-7.3002c0-8.1609 7.5845-8.4733 8.4447-8.4733 0.8603 0 8.4443 0.3123 8.4443 8.4733v4.5711c-2.4736-1.0411-5.2584-1.6054-8.2333-1.6054-3.146 0-6.0782 0.6331-8.6557 1.792v-4.7577zm17.148 27.523c-0.0688 0.0477-0.4698 0.3072-0.528 0.5295-0.0583 0.2223 0.0318 0.3868 0 0.588-0.0926 0.2431-0.2169 0.4728-0.3695 0.683-0.0525 0.0691 0.1002 0.2067 0.0952 0.2915-0.0051 0.0848-0.0529 0.2594 0 0.3387 0.0528 0.0794 0.2743 0.1059 0.2848 0.1962 0.0105 0.0902 0.1056 0.2329-0.0894 0.3387-0.046 0.0335-0.0984 0.0568-0.1538 0.0687-0.0555 0.0118-0.1128 0.0119-0.1683 1e-4 -0.0738 0-1.7154 0.2966-1.8421 0.2384-0.2427-0.043-0.492-0.0284-0.7282 0.0425-0.3883 0.1085-0.7898 0.1619-1.1928 0.1587-0.0633-0.0739-0.0633-0.2063-0.1162-0.254-0.0533-0.0266-0.0966-0.0699-0.1232-0.1234-0.0267-0.0535-0.0353-0.1143-0.0244-0.1732 0.0147-0.2566-0.0268-0.5134-0.1216-0.7521-0.0634-0.0688-0.5646-0.572-0.6544-0.6353-0.0897-0.0633-0.4907-0.4662-0.6014-0.4767-0.1108-0.0106-0.4542 0-0.5016-0.1641s0-0.4767-0.1003-0.4873c-0.1002-0.0105-0.5646 0.127-0.6174 0.1005-0.0528-0.0266-0.5595-0.2435-0.57-0.3282-0.0713-0.1495-0.1805-0.2774-0.3167-0.3708-0.1002-0.0477-0.148-0.1376-0.2797-0.1219-0.1317 0.0156-0.2957 0.0742-0.3641 0-0.0377-0.046-0.0869-0.0811-0.1426-0.1015-0.0557-0.0205-0.1157-0.0257-0.1741-0.015-0.2364 0.0037-0.4723-0.0229-0.7021-0.0793-0.0792 0-0.322-0.1856-0.2479-0.3337 0.0742-0.1481 0.1213-0.1219 0.1054-0.2223-0.016-0.1004-0.1159-0.2809-0.0949-0.3813 0.021-0.1005 0.0844-0.2118 0.0739-0.2595s-0.4434-0.2172-0.4329-0.3442 0.1372-0.1961 0.1267-0.2489-0.8128-0.572-0.8443-0.8951c-0.0315-0.3232-0.528-0.7944-0.6124-0.9108-0.0608-0.0947-0.102-0.2007-0.121-0.3118-0.019-0.111-0.0155-0.2248 0.0103-0.3345 0.0792-0.1746 0.2374-0.4024 0.2005-0.5294s-0.2693-0.2649-0.3746-0.2755c0 0-0.4962-0.2223-0.4962-0.5298 0.017-0.1597 0.0045-0.3212-0.0369-0.4763-0.0391-0.1744-0.0391-0.3554 0-0.5298 0.042 0 0.2429 0.4345 0.3218 0.4712 0.0789 0.0368 0.153 0.1325 0.1795 0.0692 0.0271-0.1469 0.0087-0.2986-0.0529-0.4345-0.0633-0.0582-0.1002-0.0739-0.1422-0.1215-0.042-0.0477 0-0.1962-0.0847-0.2278-0.0847-0.0317-0.1636-0.0583-0.1267-0.143 0.037-0.0848 0.1267-0.0637 0.227-0.1274 0.1002-0.0637 0.0369-0.2063-0.1003-0.2434s-0.2374-0.127-0.2428 0c-0.0055 0.127 0.0952 0.5876 0.0423 0.5876-0.0528 0-0.2638-0.2274-0.38-0.2965-0.1162-0.0692-0.38-0.1005-0.4115-0.1481-0.0315-0.0477 0.1267-0.286 0.0948-0.3548-0.051-0.0794-0.1092-0.1538-0.174-0.2223-0.0319-0.0371 0-0.1802-0.0474-0.2227-0.3373-0.3345-0.6429-0.6997-0.9131-1.0909 0-0.127 0.1212-0.3814 0.1053-0.429-0.0159-0.0477-0.2479-0.254-0.211-0.4396s0.1795-0.4658 0.1426-0.6248c-0.12-0.3559-0.2832-0.6957-0.4857-1.0116-0.1107-0.1059-0.3481-0.397-0.2797-0.5825 0.0684-0.1856 0.3695-0.6143 0.4538-0.8581s0-0.4286 0-0.5294c0.0858-0.2074 0.1599-0.4195 0.2218-0.6353-5e-3 -0.1598-0.0605-0.3137-0.1585-0.4396-0.0528-0.0477-0.2215-0.3602 0.0055-0.5087 0 0 5.3569 0.5298 5.9164 0.3497 0 0-0.2588 5.7776-0.1636 5.889 0.0952 0.1113 8.212 7.8696 8.2438 7.9438 0.0319 0.0742 0 0.3177 0.0843 0.4235 0.0844 0.1059 0.3116 0.3392 0.3116 0.4502 0.0199 0.1481 0.093 0.2837 0.2056 0.3813 0.0793 0.0371 0.3326 0.1696 0.2642 0.2172z" clip-rule="evenodd" fill="#F5C543" fill-rule="evenodd"/>
</g>
<defs>
<filter id="a" x="0" y="0" width="181" height="210" color-interpolation-filters="sRGB" filterUnits="userSpaceOnUse">
<feFlood flood-opacity="0" result="BackgroundImageFix"/>
<feColorMatrix in="SourceAlpha" result="hardAlpha" values="0 0 0 0 0 0 0 0 0 0 0 0 0 0 0 0 0 0 127 0"/>
<feOffset dx="2" dy="5"/>
<feGaussianBlur stdDeviation="20"/>
<feComposite in2="hardAlpha" operator="out"/>
<feColorMatrix values="0 0 0 0 0.933333 0 0 0 0 0.933333 0 0 0 0 0.933333 0 0 0 1 0"/>
<feBlend in2="BackgroundImageFix" result="effect1_dropShadow_887:470"/>
<feBlend in="SourceGraphic" in2="effect1_dropShadow_887:470" result="shape"/>
</filter>
</defs>
</svg>
