<svg width="337" height="230" viewBox="0 0 337 230" fill="none" xmlns="http://www.w3.org/2000/svg">
<path d="M225.519 185.971H0V144.269C0 121.237 18.6255 102.566 41.6007 102.566H225.52C248.495 102.566 267.12 121.237 267.12 144.269C267.119 167.3 248.495 185.971 225.519 185.971Z" fill="url(#paint0_linear)"/>
<path opacity="0.6" d="M224.75 172.447H13.525V142.579C13.525 126.084 26.9444 112.711 43.4972 112.711H224.75C241.303 112.711 254.722 126.084 254.722 142.579C254.722 159.075 241.303 172.447 224.75 172.447Z" fill="url(#paint1_linear)"/>
<path d="M0 185.58V229.925L45.0836 175.824L0 185.58Z" fill="url(#paint2_linear)"/>
<path opacity="0.8" d="M267.12 144.201C267.12 167.175 248.495 185.793 225.519 185.793H36.5258L0 229.925V221.038L36.5258 176.906H225.519C246.99 176.906 264.668 160.643 266.883 139.758C267.04 141.217 267.12 142.698 267.12 144.201Z" fill="url(#paint3_linear)"/>
<path d="M295.4 83.4047H154.309C131.334 83.4047 112.709 64.7341 112.709 41.7023C112.709 18.6716 131.334 0 154.309 0H295.4C318.375 0 337 18.6716 337 41.7023C337 64.7351 316.603 83.4047 295.4 83.4047Z" fill="url(#paint4_linear)"/>
<path opacity="0.6" d="M296.806 66.499H151.776C136.424 66.499 123.98 53.8835 123.98 38.3213C123.98 22.7601 136.424 10.1445 151.776 10.1445H296.807C312.158 10.1445 324.602 22.7601 324.602 38.3213C324.601 53.8835 312.157 66.499 296.806 66.499Z" fill="url(#paint5_linear)"/>
<path d="M327.983 66.5C326.948 67.9823 325.831 69.4792 324.641 71.0063L284.027 119.473V75.9567L319.551 68.3115L327.983 66.5Z" fill="url(#paint6_linear)"/>
<path opacity="0.8" d="M284.027 83.406H154.196C142.743 83.406 132.37 78.7364 124.863 71.1743C117.356 63.6201 112.709 53.1882 112.709 41.6566C112.709 40.1464 112.79 38.6599 112.945 37.1953C113.972 46.943 118.339 55.6871 124.863 62.2527C132.37 69.8138 142.743 74.4834 154.196 74.4834H275.161C280.058 74.4834 284.027 78.4786 284.027 83.406Z" fill="url(#paint7_linear)"/>
<path opacity="0.8" d="M337 41.6201C337 51.0294 334.182 58.3831 328.449 65.9778C327.348 67.4363 326.274 68.9863 325.071 70.5275L284.027 119.473V110.623L319.927 67.8071L325.071 61.6788C332.44 52.4673 335.736 46.6783 336.76 37.1953C336.918 38.648 337 40.1222 337 41.6201Z" fill="url(#paint8_linear)"/>
<defs>
<linearGradient id="paint0_linear" x1="252.168" y1="48.4901" x2="-67.0233" y2="304.99" gradientUnits="userSpaceOnUse">
<stop stop-color="#C082F1"/>
<stop offset="0.5631" stop-color="#6D32FD"/>
<stop offset="0.6356" stop-color="#673AFD"/>
<stop offset="0.7473" stop-color="#554FFD"/>
<stop offset="0.8833" stop-color="#3972FC"/>
<stop offset="1" stop-color="#1C96FC"/>
</linearGradient>
<linearGradient id="paint1_linear" x1="134.123" y1="77.1997" x2="134.123" y2="169.544" gradientUnits="userSpaceOnUse">
<stop offset="0.000340545" stop-color="#A46FFD"/>
<stop offset="0.1893" stop-color="#9A6EFB"/>
<stop offset="0.4979" stop-color="#8A6BF8"/>
<stop offset="0.8856" stop-color="#836AF6"/>
<stop offset="1" stop-color="#7D69F5"/>
</linearGradient>
<linearGradient id="paint2_linear" x1="233.419" y1="21.0816" x2="-87.0494" y2="281.119" gradientUnits="userSpaceOnUse">
<stop stop-color="#E79BF7"/>
<stop offset="0.5631" stop-color="#6D32FD"/>
<stop offset="0.6356" stop-color="#673AFD"/>
<stop offset="0.7473" stop-color="#554FFD"/>
<stop offset="0.8833" stop-color="#3972FC"/>
<stop offset="1" stop-color="#1C96FC"/>
</linearGradient>
<linearGradient id="paint3_linear" x1="93.1459" y1="223.613" x2="133.711" y2="85.4713" gradientUnits="userSpaceOnUse">
<stop stop-color="#3C00CF"/>
<stop offset="1" stop-color="#E79BF7" stop-opacity="0"/>
</linearGradient>
<linearGradient id="paint4_linear" x1="156.62" y1="-28.5653" x2="304.064" y2="122.526" gradientUnits="userSpaceOnUse">
<stop stop-color="#335FE6"/>
<stop offset="0.189" stop-color="#3960E7"/>
<stop offset="0.3936" stop-color="#4762EA"/>
<stop offset="0.6055" stop-color="#5964EE"/>
<stop offset="0.8209" stop-color="#6666F0"/>
<stop offset="1" stop-color="#7268F3"/>
</linearGradient>
<linearGradient id="paint5_linear" x1="224.29" y1="8.59944" x2="224.29" y2="73.8844" gradientUnits="userSpaceOnUse">
<stop offset="0.000340545" stop-color="#FDF1F0"/>
<stop offset="0.1893" stop-color="#FBE8F1" stop-opacity="0.811"/>
<stop offset="0.4979" stop-color="#F4D0F3" stop-opacity="0.5023"/>
<stop offset="0.8856" stop-color="#EAA8F6" stop-opacity="0.1144"/>
<stop offset="1" stop-color="#E79BF7" stop-opacity="0"/>
</linearGradient>
<linearGradient id="paint6_linear" x1="180.074" y1="-34.7406" x2="317.078" y2="107.806" gradientUnits="userSpaceOnUse">
<stop stop-color="#335FE6"/>
<stop offset="0.189" stop-color="#3A60E7"/>
<stop offset="0.3936" stop-color="#4461EA"/>
<stop offset="0.6055" stop-color="#4962EB"/>
<stop offset="0.8209" stop-color="#5464ED"/>
<stop offset="1" stop-color="#168DCA"/>
</linearGradient>
<linearGradient id="paint7_linear" x1="257.485" y1="138.174" x2="152.537" y2="16.1922" gradientUnits="userSpaceOnUse">
<stop stop-color="#6D32FD"/>
<stop offset="1" stop-color="#E79BF7" stop-opacity="0"/>
</linearGradient>
<linearGradient id="paint8_linear" x1="316.424" y1="85.292" x2="219.483" y2="-29.6376" gradientUnits="userSpaceOnUse">
<stop stop-color="#6D32FD"/>
<stop offset="1" stop-color="#E79BF7" stop-opacity="0"/>
</linearGradient>
</defs>
</svg>
