<svg width="774" height="300" viewBox="0 0 774 300" fill="none" xmlns="http://www.w3.org/2000/svg">
<g filter="url(#filter0_dd_21_1150)">
<rect x="25" y="15" width="724" height="250" fill="url(#paint0_linear_21_1150)" shape-rendering="crispEdges"/>
</g>
<g filter="url(#filter1_i_21_1150)">
<path d="M94.1445 122H60.5459V72.9863H94.1445V82.7959H70.3555V92.6055H86.4541V102.415H70.3555V112.19H94.1445V122ZM129.862 102.415V92.6055C129.862 91.2611 129.6 89.9964 129.076 88.8115C128.575 87.6038 127.88 86.5557 126.991 85.667C126.103 84.7783 125.054 84.0833 123.847 83.582C122.662 83.0579 121.397 82.7959 120.053 82.7959C118.708 82.7959 117.432 83.0579 116.225 83.582C115.04 84.0833 114.003 84.7783 113.114 85.667C112.226 86.5557 111.519 87.6038 110.995 88.8115C110.494 89.9964 110.243 91.2611 110.243 92.6055V102.415H129.862ZM139.672 122H129.862V112.19H110.243V122H100.468V92.6055C100.468 89.8939 100.98 87.3532 102.006 84.9834C103.031 82.5908 104.421 80.5059 106.176 78.7285C107.953 76.9512 110.027 75.5498 112.396 74.5244C114.789 73.499 117.341 72.9863 120.053 72.9863C122.764 72.9863 125.305 73.499 127.675 74.5244C130.067 75.5498 132.152 76.9512 133.93 78.7285C135.707 80.5059 137.108 82.5908 138.134 84.9834C139.159 87.3532 139.672 89.8939 139.672 92.6055V122ZM145.312 87.6836C145.312 85.6556 145.699 83.7529 146.474 81.9756C147.248 80.1982 148.297 78.6488 149.618 77.3271C150.963 75.9827 152.523 74.9232 154.301 74.1484C156.078 73.3737 157.981 72.9863 160.009 72.9863H182.499V82.7959H160.009C159.325 82.7959 158.687 82.9212 158.095 83.1719C157.502 83.4225 156.978 83.7757 156.522 84.2314C156.09 84.6644 155.748 85.1771 155.497 85.7695C155.246 86.362 155.121 87 155.121 87.6836C155.121 88.3672 155.246 89.0166 155.497 89.6318C155.748 90.2243 156.09 90.7484 156.522 91.2041C156.978 91.637 157.502 91.9788 158.095 92.2295C158.687 92.4801 159.325 92.6055 160.009 92.6055H169.818C171.846 92.6055 173.749 92.9928 175.526 93.7676C177.326 94.5195 178.887 95.5677 180.209 96.9121C181.553 98.2337 182.602 99.7946 183.354 101.595C184.128 103.372 184.516 105.275 184.516 107.303C184.516 109.331 184.128 111.233 183.354 113.011C182.602 114.788 181.553 116.349 180.209 117.693C178.887 119.015 177.326 120.063 175.526 120.838C173.749 121.613 171.846 122 169.818 122H148.046V112.19H169.818C170.502 112.19 171.14 112.065 171.732 111.814C172.325 111.564 172.838 111.222 173.271 110.789C173.726 110.333 174.079 109.809 174.33 109.217C174.581 108.624 174.706 107.986 174.706 107.303C174.706 106.619 174.581 105.981 174.33 105.389C174.079 104.796 173.726 104.284 173.271 103.851C172.838 103.395 172.325 103.042 171.732 102.791C171.14 102.54 170.502 102.415 169.818 102.415H160.009C157.981 102.415 156.078 102.028 154.301 101.253C152.523 100.478 150.963 99.43 149.618 98.1084C148.297 96.764 147.248 95.2031 146.474 93.4258C145.699 91.6257 145.312 89.7116 145.312 87.6836ZM210.868 122H201.093V82.7959H186.361V72.9863H225.565V82.7959H210.868V122ZM264.359 122H230.761V72.9863H264.359V82.7959H240.57V92.6055H256.669V102.415H240.57V112.19H264.359V122ZM281.039 82.7959V102.415H290.849C292.193 102.415 293.458 102.164 294.643 101.663C295.827 101.139 296.864 100.433 297.753 99.5439C298.642 98.6553 299.337 97.6185 299.838 96.4336C300.362 95.2259 300.624 93.9499 300.624 92.6055C300.624 91.2611 300.362 89.9964 299.838 88.8115C299.337 87.6038 298.642 86.5557 297.753 85.667C296.864 84.7783 295.827 84.0833 294.643 83.582C293.458 83.0579 292.193 82.7959 290.849 82.7959H281.039ZM281.039 122H271.229V72.9863H290.849C292.649 72.9863 294.381 73.2256 296.044 73.7041C297.707 74.1598 299.257 74.8206 300.692 75.6865C302.151 76.5296 303.472 77.555 304.657 78.7627C305.865 79.9476 306.89 81.2692 307.733 82.7275C308.599 84.1859 309.26 85.7467 309.716 87.4102C310.194 89.0736 310.434 90.8053 310.434 92.6055C310.434 94.2917 310.217 95.9323 309.784 97.5273C309.374 99.1224 308.77 100.638 307.973 102.073C307.198 103.509 306.241 104.83 305.102 106.038C303.962 107.246 302.686 108.294 301.273 109.183L306.708 122H296.283L292.011 112.122L281.039 112.19V122ZM370.111 122H336.513V72.9863H370.111V82.7959H346.322V92.6055H362.421V102.415H346.322V112.19H370.111V122ZM414.75 117.044C412.471 118.981 409.931 120.473 407.128 121.521C404.325 122.547 401.409 123.06 398.378 123.06C396.054 123.06 393.809 122.752 391.645 122.137C389.503 121.544 387.497 120.701 385.629 119.607C383.76 118.491 382.051 117.169 380.502 115.643C378.952 114.093 377.631 112.384 376.537 110.516C375.443 108.624 374.589 106.596 373.974 104.432C373.381 102.267 373.085 100.022 373.085 97.6982C373.085 95.374 373.381 93.141 373.974 90.999C374.589 88.8571 375.443 86.8519 376.537 84.9834C377.631 83.0921 378.952 81.3831 380.502 79.8564C382.051 78.307 383.76 76.9854 385.629 75.8916C387.497 74.7979 389.503 73.9548 391.645 73.3623C393.809 72.7471 396.054 72.4395 398.378 72.4395C401.409 72.4395 404.325 72.9635 407.128 74.0117C409.931 75.0371 412.471 76.5182 414.75 78.4551L409.623 87C408.142 85.4961 406.433 84.3226 404.496 83.4795C402.559 82.6136 400.52 82.1807 398.378 82.1807C396.236 82.1807 394.219 82.5908 392.328 83.4111C390.46 84.2314 388.819 85.348 387.406 86.7607C385.993 88.1507 384.877 89.7913 384.057 91.6826C383.236 93.5511 382.826 95.5563 382.826 97.6982C382.826 99.863 383.236 101.891 384.057 103.782C384.877 105.674 385.993 107.326 387.406 108.738C388.819 110.151 390.46 111.268 392.328 112.088C394.219 112.908 396.236 113.318 398.378 113.318C399.608 113.318 400.805 113.17 401.967 112.874C403.129 112.578 404.234 112.168 405.282 111.644V97.6982H414.75V117.044ZM461.303 117.044C459.024 118.981 456.483 120.473 453.681 121.521C450.878 122.547 447.961 123.06 444.931 123.06C442.606 123.06 440.362 122.752 438.197 122.137C436.055 121.544 434.05 120.701 432.182 119.607C430.313 118.491 428.604 117.169 427.055 115.643C425.505 114.093 424.184 112.384 423.09 110.516C421.996 108.624 421.142 106.596 420.526 104.432C419.934 102.267 419.638 100.022 419.638 97.6982C419.638 95.374 419.934 93.141 420.526 90.999C421.142 88.8571 421.996 86.8519 423.09 84.9834C424.184 83.0921 425.505 81.3831 427.055 79.8564C428.604 78.307 430.313 76.9854 432.182 75.8916C434.05 74.7979 436.055 73.9548 438.197 73.3623C440.362 72.7471 442.606 72.4395 444.931 72.4395C447.961 72.4395 450.878 72.9635 453.681 74.0117C456.483 75.0371 459.024 76.5182 461.303 78.4551L456.176 87C454.695 85.4961 452.986 84.3226 451.049 83.4795C449.112 82.6136 447.073 82.1807 444.931 82.1807C442.789 82.1807 440.772 82.5908 438.881 83.4111C437.012 84.2314 435.372 85.348 433.959 86.7607C432.546 88.1507 431.43 89.7913 430.609 91.6826C429.789 93.5511 429.379 95.5563 429.379 97.6982C429.379 99.863 429.789 101.891 430.609 103.782C431.43 105.674 432.546 107.326 433.959 108.738C435.372 110.151 437.012 111.268 438.881 112.088C440.772 112.908 442.789 113.318 444.931 113.318C446.161 113.318 447.357 113.17 448.52 112.874C449.682 112.578 450.787 112.168 451.835 111.644V97.6982H461.303V117.044ZM498.285 122H488.476V72.9863H522.792V82.7959H498.285V92.6055H512.982V102.415H498.285V122ZM574.779 97.6982C574.779 100.022 574.472 102.267 573.856 104.432C573.264 106.574 572.421 108.59 571.327 110.481C570.233 112.35 568.912 114.059 567.362 115.608C565.813 117.158 564.104 118.491 562.235 119.607C560.367 120.701 558.35 121.544 556.186 122.137C554.021 122.752 551.776 123.06 549.452 123.06C547.128 123.06 544.883 122.752 542.719 122.137C540.577 121.544 538.56 120.701 536.669 119.607C534.8 118.491 533.091 117.158 531.542 115.608C529.993 114.059 528.66 112.35 527.543 110.481C526.449 108.59 525.595 106.574 524.979 104.432C524.387 102.267 524.091 100.022 524.091 97.6982C524.091 95.374 524.387 93.1296 524.979 90.9648C525.595 88.8001 526.449 86.7835 527.543 84.915C528.66 83.0465 529.993 81.3376 531.542 79.7881C533.091 78.2386 534.8 76.917 536.669 75.8232C538.56 74.7295 540.577 73.8864 542.719 73.2939C544.883 72.6787 547.128 72.3711 549.452 72.3711C551.776 72.3711 554.021 72.6787 556.186 73.2939C558.35 73.8864 560.367 74.7295 562.235 75.8232C564.104 76.917 565.813 78.2386 567.362 79.7881C568.912 81.3376 570.233 83.0465 571.327 84.915C572.421 86.7835 573.264 88.8001 573.856 90.9648C574.472 93.1296 574.779 95.374 574.779 97.6982ZM565.038 97.6982C565.038 95.5563 564.628 93.5397 563.808 91.6484C562.987 89.7344 561.871 88.0824 560.458 86.6924C559.068 85.2796 557.416 84.1631 555.502 83.3428C553.611 82.5225 551.594 82.1123 549.452 82.1123C547.287 82.1123 545.259 82.5225 543.368 83.3428C541.477 84.1631 539.825 85.2796 538.412 86.6924C536.999 88.0824 535.883 89.7344 535.062 91.6484C534.242 93.5397 533.832 95.5563 533.832 97.6982C533.832 99.8402 534.242 101.857 535.062 103.748C535.883 105.617 536.999 107.257 538.412 108.67C539.825 110.083 541.477 111.199 543.368 112.02C545.259 112.84 547.287 113.25 549.452 113.25C551.594 113.25 553.611 112.84 555.502 112.02C557.416 111.199 559.068 110.083 560.458 108.67C561.871 107.257 562.987 105.617 563.808 103.748C564.628 101.857 565.038 99.8402 565.038 97.6982ZM619.896 102.415C619.896 105.127 619.384 107.679 618.358 110.071C617.333 112.441 615.932 114.515 614.154 116.292C612.377 118.047 610.292 119.437 607.899 120.462C605.53 121.487 602.989 122 600.277 122C597.566 122 595.014 121.487 592.621 120.462C590.251 119.437 588.178 118.047 586.4 116.292C584.646 114.515 583.256 112.441 582.23 110.071C581.205 107.679 580.692 105.127 580.692 102.415V72.9863H590.468V102.415C590.468 103.759 590.718 105.024 591.22 106.209C591.744 107.394 592.45 108.431 593.339 109.319C594.228 110.208 595.264 110.914 596.449 111.438C597.657 111.94 598.933 112.19 600.277 112.19C601.622 112.19 602.886 111.94 604.071 111.438C605.279 110.914 606.327 110.208 607.216 109.319C608.104 108.431 608.799 107.394 609.301 106.209C609.825 105.024 610.087 103.759 610.087 102.415V72.9863H619.896V102.415ZM667.611 122H657.118L638.217 89.7344V122H628.407V72.9863H638.9L657.802 105.286V72.9863H667.611V122ZM716.01 97.4932C716.01 99.749 715.714 101.925 715.121 104.021C714.551 106.095 713.731 108.043 712.66 109.866C711.589 111.666 710.313 113.318 708.832 114.822C707.351 116.303 705.699 117.579 703.876 118.65C702.053 119.721 700.093 120.553 697.997 121.146C695.924 121.715 693.759 122 691.503 122H676.737V72.9863H691.503C693.759 72.9863 695.924 73.2826 697.997 73.875C700.093 74.4447 702.053 75.265 703.876 76.3359C705.699 77.4069 707.351 78.6943 708.832 80.1982C710.313 81.6794 711.589 83.3314 712.66 85.1543C713.731 86.9544 714.551 88.9027 715.121 90.999C715.714 93.0726 716.01 95.2373 716.01 97.4932ZM706.2 97.4932C706.2 95.4652 705.813 93.5625 705.038 91.7852C704.286 90.0078 703.238 88.4583 701.894 87.1367C700.572 85.7923 699.011 84.7327 697.211 83.958C695.434 83.1833 693.531 82.7959 691.503 82.7959H686.615V112.19H691.503C693.531 112.19 695.434 111.814 697.211 111.062C699.011 110.288 700.572 109.24 701.894 107.918C703.238 106.574 704.286 105.013 705.038 103.235C705.813 101.435 706.2 99.5212 706.2 97.4932Z" fill="url(#paint1_linear_21_1150)"/>
</g>
<g filter="url(#filter2_i_21_1150)">
<path d="M150.682 213.976C148.403 215.935 145.851 217.439 143.025 218.487C140.2 219.535 137.272 220.06 134.241 220.06C131.917 220.06 129.673 219.752 127.508 219.137C125.366 218.544 123.349 217.701 121.458 216.607C119.59 215.491 117.881 214.158 116.331 212.608C114.782 211.059 113.449 209.35 112.332 207.481C111.238 205.59 110.384 203.574 109.769 201.432C109.176 199.267 108.88 197.022 108.88 194.698C108.88 192.374 109.176 190.13 109.769 187.965C110.384 185.8 111.238 183.784 112.332 181.915C113.449 180.024 114.782 178.303 116.331 176.754C117.881 175.204 119.59 173.883 121.458 172.789C123.349 171.673 125.366 170.818 127.508 170.226C129.673 169.61 131.917 169.303 134.241 169.303C137.272 169.303 140.2 169.827 143.025 170.875C145.851 171.9 148.403 173.404 150.682 175.387L145.486 183.932C144.051 182.382 142.353 181.197 140.394 180.377C138.434 179.534 136.383 179.112 134.241 179.112C132.076 179.112 130.049 179.522 128.157 180.343C126.266 181.163 124.614 182.28 123.201 183.692C121.788 185.082 120.672 186.734 119.852 188.648C119.031 190.54 118.621 192.556 118.621 194.698C118.621 196.84 119.031 198.857 119.852 200.748C120.672 202.617 121.788 204.257 123.201 205.67C124.614 207.083 126.266 208.199 128.157 209.02C130.049 209.84 132.076 210.25 134.241 210.25C136.383 210.25 138.434 209.84 140.394 209.02C142.353 208.176 144.051 206.98 145.486 205.431L150.682 213.976ZM190.706 219H156.39V169.986H166.199V209.19H190.706V219ZM205.643 219H195.833V169.986H205.643V219ZM253.904 213.976C251.626 215.935 249.074 217.439 246.248 218.487C243.423 219.535 240.494 220.06 237.464 220.06C235.14 220.06 232.895 219.752 230.73 219.137C228.589 218.544 226.572 217.701 224.681 216.607C222.812 215.491 221.103 214.158 219.554 212.608C218.004 211.059 216.671 209.35 215.555 207.481C214.461 205.59 213.606 203.574 212.991 201.432C212.399 199.267 212.103 197.022 212.103 194.698C212.103 192.374 212.399 190.13 212.991 187.965C213.606 185.8 214.461 183.784 215.555 181.915C216.671 180.024 218.004 178.303 219.554 176.754C221.103 175.204 222.812 173.883 224.681 172.789C226.572 171.673 228.589 170.818 230.73 170.226C232.895 169.61 235.14 169.303 237.464 169.303C240.494 169.303 243.423 169.827 246.248 170.875C249.074 171.9 251.626 173.404 253.904 175.387L248.709 183.932C247.273 182.382 245.576 181.197 243.616 180.377C241.657 179.534 239.606 179.112 237.464 179.112C235.299 179.112 233.271 179.522 231.38 180.343C229.489 181.163 227.837 182.28 226.424 183.692C225.011 185.082 223.895 186.734 223.074 188.648C222.254 190.54 221.844 192.556 221.844 194.698C221.844 196.84 222.254 198.857 223.074 200.748C223.895 202.617 225.011 204.257 226.424 205.67C227.837 207.083 229.489 208.199 231.38 209.02C233.271 209.84 235.299 210.25 237.464 210.25C239.606 210.25 241.657 209.84 243.616 209.02C245.576 208.176 247.273 206.98 248.709 205.431L253.904 213.976ZM269.422 219H259.612V169.986H269.422V194.493L287.674 169.986H298.816L283.333 190.665L298.816 219H287.674L276.907 199.176L269.422 209.19V219ZM332.791 219H322.981V169.986H357.298V179.796H332.791V189.605H347.488V199.415H332.791V219ZM409.285 194.698C409.285 197.022 408.978 199.267 408.362 201.432C407.77 203.574 406.927 205.59 405.833 207.481C404.739 209.35 403.418 211.059 401.868 212.608C400.319 214.158 398.61 215.491 396.741 216.607C394.873 217.701 392.856 218.544 390.691 219.137C388.527 219.752 386.282 220.06 383.958 220.06C381.634 220.06 379.389 219.752 377.225 219.137C375.083 218.544 373.066 217.701 371.175 216.607C369.306 215.491 367.597 214.158 366.048 212.608C364.498 211.059 363.165 209.35 362.049 207.481C360.955 205.59 360.101 203.574 359.485 201.432C358.893 199.267 358.597 197.022 358.597 194.698C358.597 192.374 358.893 190.13 359.485 187.965C360.101 185.8 360.955 183.784 362.049 181.915C363.165 180.047 364.498 178.338 366.048 176.788C367.597 175.239 369.306 173.917 371.175 172.823C373.066 171.729 375.083 170.886 377.225 170.294C379.389 169.679 381.634 169.371 383.958 169.371C386.282 169.371 388.527 169.679 390.691 170.294C392.856 170.886 394.873 171.729 396.741 172.823C398.61 173.917 400.319 175.239 401.868 176.788C403.418 178.338 404.739 180.047 405.833 181.915C406.927 183.784 407.77 185.8 408.362 187.965C408.978 190.13 409.285 192.374 409.285 194.698ZM399.544 194.698C399.544 192.556 399.134 190.54 398.313 188.648C397.493 186.734 396.377 185.082 394.964 183.692C393.574 182.28 391.922 181.163 390.008 180.343C388.117 179.522 386.1 179.112 383.958 179.112C381.793 179.112 379.765 179.522 377.874 180.343C375.983 181.163 374.331 182.28 372.918 183.692C371.505 185.082 370.389 186.734 369.568 188.648C368.748 190.54 368.338 192.556 368.338 194.698C368.338 196.84 368.748 198.857 369.568 200.748C370.389 202.617 371.505 204.257 372.918 205.67C374.331 207.083 375.983 208.199 377.874 209.02C379.765 209.84 381.793 210.25 383.958 210.25C386.1 210.25 388.117 209.84 390.008 209.02C391.922 208.199 393.574 207.083 394.964 205.67C396.377 204.257 397.493 202.617 398.313 200.748C399.134 198.857 399.544 196.84 399.544 194.698ZM425.555 179.796V199.415H435.364C436.709 199.415 437.973 199.164 439.158 198.663C440.343 198.139 441.38 197.433 442.269 196.544C443.157 195.655 443.852 194.618 444.354 193.434C444.878 192.226 445.14 190.95 445.14 189.605C445.14 188.261 444.878 186.996 444.354 185.812C443.852 184.604 443.157 183.556 442.269 182.667C441.38 181.778 440.343 181.083 439.158 180.582C437.973 180.058 436.709 179.796 435.364 179.796H425.555ZM425.555 219H415.745V169.986H435.364C437.164 169.986 438.896 170.226 440.56 170.704C442.223 171.16 443.772 171.821 445.208 172.687C446.666 173.53 447.988 174.555 449.173 175.763C450.381 176.948 451.406 178.269 452.249 179.728C453.115 181.186 453.776 182.747 454.231 184.41C454.71 186.074 454.949 187.805 454.949 189.605C454.949 191.292 454.733 192.932 454.3 194.527C453.89 196.122 453.286 197.638 452.488 199.073C451.714 200.509 450.757 201.83 449.617 203.038C448.478 204.246 447.202 205.294 445.789 206.183L451.224 219H440.799L436.526 209.122L425.555 209.19V219ZM490.838 179.796V199.415H500.647C501.992 199.415 503.257 199.164 504.441 198.663C505.626 198.139 506.663 197.433 507.552 196.544C508.44 195.655 509.135 194.618 509.637 193.434C510.161 192.226 510.423 190.95 510.423 189.605C510.423 188.261 510.161 186.996 509.637 185.812C509.135 184.604 508.44 183.556 507.552 182.667C506.663 181.778 505.626 181.083 504.441 180.582C503.257 180.058 501.992 179.796 500.647 179.796H490.838ZM490.838 219H481.028V169.986H500.647C502.448 169.986 504.179 170.226 505.843 170.704C507.506 171.16 509.056 171.821 510.491 172.687C511.95 173.53 513.271 174.555 514.456 175.763C515.664 176.948 516.689 178.269 517.532 179.728C518.398 181.186 519.059 182.747 519.515 184.41C519.993 186.074 520.232 187.805 520.232 189.605C520.232 192.294 519.72 194.835 518.694 197.228C517.669 199.597 516.268 201.671 514.49 203.448C512.713 205.226 510.628 206.627 508.235 207.652C505.866 208.678 503.336 209.19 500.647 209.19H490.838V219ZM535.818 179.796V199.415H545.628C546.972 199.415 548.237 199.164 549.422 198.663C550.607 198.139 551.644 197.433 552.532 196.544C553.421 195.655 554.116 194.618 554.617 193.434C555.141 192.226 555.403 190.95 555.403 189.605C555.403 188.261 555.141 186.996 554.617 185.812C554.116 184.604 553.421 183.556 552.532 182.667C551.644 181.778 550.607 181.083 549.422 180.582C548.237 180.058 546.972 179.796 545.628 179.796H535.818ZM535.818 219H526.009V169.986H545.628C547.428 169.986 549.16 170.226 550.823 170.704C552.487 171.16 554.036 171.821 555.472 172.687C556.93 173.53 558.252 174.555 559.437 175.763C560.644 176.948 561.67 178.269 562.513 179.728C563.379 181.186 564.039 182.747 564.495 184.41C564.974 186.074 565.213 187.805 565.213 189.605C565.213 191.292 564.996 192.932 564.563 194.527C564.153 196.122 563.549 197.638 562.752 199.073C561.977 200.509 561.02 201.83 559.881 203.038C558.742 204.246 557.465 205.294 556.053 206.183L561.487 219H551.062L546.79 209.122L535.818 209.19V219ZM581.482 219H571.673V169.986H581.482V219ZM625.608 219H587.669L608.587 179.796H587.669V169.986H625.608L604.759 209.19H625.608V219ZM665.291 219H631.692V169.986H665.291V179.796H641.502V189.605H657.601V199.415H641.502V209.19H665.291V219Z" fill="url(#paint2_linear_21_1150)"/>
</g>
<defs>
<filter id="filter0_dd_21_1150" x="0" y="0" width="774" height="300" filterUnits="userSpaceOnUse" color-interpolation-filters="sRGB">
<feFlood flood-opacity="0" result="BackgroundImageFix"/>
<feColorMatrix in="SourceAlpha" type="matrix" values="0 0 0 0 0 0 0 0 0 0 0 0 0 0 0 0 0 0 127 0" result="hardAlpha"/>
<feOffset dy="10"/>
<feGaussianBlur stdDeviation="12.5"/>
<feComposite in2="hardAlpha" operator="out"/>
<feColorMatrix type="matrix" values="0 0 0 0 0.239216 0 0 0 0 0.227451 0 0 0 0 0.227451 0 0 0 1 0"/>
<feBlend mode="normal" in2="BackgroundImageFix" result="effect1_dropShadow_21_1150"/>
<feColorMatrix in="SourceAlpha" type="matrix" values="0 0 0 0 0 0 0 0 0 0 0 0 0 0 0 0 0 0 127 0" result="hardAlpha"/>
<feOffset dy="4"/>
<feGaussianBlur stdDeviation="2"/>
<feComposite in2="hardAlpha" operator="out"/>
<feColorMatrix type="matrix" values="0 0 0 0 0 0 0 0 0 0 0 0 0 0 0 0 0 0 0.25 0"/>
<feBlend mode="normal" in2="effect1_dropShadow_21_1150" result="effect2_dropShadow_21_1150"/>
<feBlend mode="normal" in="SourceGraphic" in2="effect2_dropShadow_21_1150" result="shape"/>
</filter>
<filter id="filter1_i_21_1150" x="60.5459" y="72.3711" width="655.464" height="54.6885" filterUnits="userSpaceOnUse" color-interpolation-filters="sRGB">
<feFlood flood-opacity="0" result="BackgroundImageFix"/>
<feBlend mode="normal" in="SourceGraphic" in2="BackgroundImageFix" result="shape"/>
<feColorMatrix in="SourceAlpha" type="matrix" values="0 0 0 0 0 0 0 0 0 0 0 0 0 0 0 0 0 0 127 0" result="hardAlpha"/>
<feOffset dy="4"/>
<feGaussianBlur stdDeviation="2"/>
<feComposite in2="hardAlpha" operator="arithmetic" k2="-1" k3="1"/>
<feColorMatrix type="matrix" values="0 0 0 0 0 0 0 0 0 0 0 0 0 0 0 0 0 0 0.25 0"/>
<feBlend mode="normal" in2="shape" result="effect1_innerShadow_21_1150"/>
</filter>
<filter id="filter2_i_21_1150" x="108.88" y="169.303" width="556.411" height="54.7568" filterUnits="userSpaceOnUse" color-interpolation-filters="sRGB">
<feFlood flood-opacity="0" result="BackgroundImageFix"/>
<feBlend mode="normal" in="SourceGraphic" in2="BackgroundImageFix" result="shape"/>
<feColorMatrix in="SourceAlpha" type="matrix" values="0 0 0 0 0 0 0 0 0 0 0 0 0 0 0 0 0 0 127 0" result="hardAlpha"/>
<feOffset dy="4"/>
<feGaussianBlur stdDeviation="2"/>
<feComposite in2="hardAlpha" operator="arithmetic" k2="-1" k3="1"/>
<feColorMatrix type="matrix" values="0 0 0 0 0 0 0 0 0 0 0 0 0 0 0 0 0 0 0.25 0"/>
<feBlend mode="normal" in2="shape" result="effect1_innerShadow_21_1150"/>
</filter>
<linearGradient id="paint0_linear_21_1150" x1="57.5275" y1="23.5784" x2="180.858" y2="438.879" gradientUnits="userSpaceOnUse">
<stop stop-color="#D79314"/>
<stop offset="0.489583" stop-color="#D79314" stop-opacity="0.44"/>
<stop offset="0.9375" stop-color="#D79314"/>
</linearGradient>
<linearGradient id="paint1_linear_21_1150" x1="85.742" y1="55.9853" x2="103.293" y2="211.272" gradientUnits="userSpaceOnUse">
<stop stop-color="#D79314"/>
<stop offset="0.489583" stop-color="#D79314" stop-opacity="0.44"/>
<stop offset="0.9375" stop-color="#D79314"/>
</linearGradient>
<linearGradient id="paint2_linear_21_1150" x1="132.204" y1="152.985" x2="152.813" y2="307.507" gradientUnits="userSpaceOnUse">
<stop stop-color="#D79314"/>
<stop offset="0.489583" stop-color="#D79314" stop-opacity="0.44"/>
<stop offset="0.9375" stop-color="#D79314"/>
</linearGradient>
</defs>
</svg>
