<svg width="197" height="24" viewBox="0 0 197 24" fill="none" xmlns="http://www.w3.org/2000/svg">
<path d="M150.584 11.3892C150.736 11.3697 150.887 11.3697 151.039 11.3892C151.122 11.2034 151.137 10.8759 151.063 10.5288C150.956 10.0057 150.804 9.68795 150.501 9.73684C150.198 9.78572 150.183 10.167 150.296 10.6901C150.349 10.9786 150.462 11.2328 150.584 11.3892ZM147.959 11.8047C148.179 11.9025 148.311 11.9661 148.365 11.9074C148.458 11.8145 148.194 11.4479 147.773 11.267C147.274 11.0617 146.707 11.1301 146.272 11.4479C146.126 11.5554 145.989 11.7021 146.008 11.795C146.052 11.9759 146.497 11.663 147.118 11.6239C147.455 11.5994 147.739 11.707 147.959 11.8047ZM147.519 12.0541C147.074 12.1225 146.786 12.3718 146.859 12.5478C146.903 12.5625 146.918 12.5869 147.113 12.5087C147.406 12.3963 147.719 12.3669 148.032 12.4109C148.174 12.4256 148.242 12.4354 148.277 12.3865C148.34 12.2838 147.993 12.0003 147.519 12.0541ZM150.169 12.8949C150.335 12.5576 149.636 12.2105 149.469 12.5527C149.303 12.89 150.007 13.2322 150.169 12.8949ZM150.936 11.8927C150.56 11.8879 150.545 12.6652 150.921 12.6749C151.303 12.6749 151.317 11.8976 150.936 11.8927ZM140.22 15.7548C140.157 15.7695 139.927 15.8281 139.805 15.6375C139.55 15.2464 140.347 14.6402 139.951 13.8824C139.506 13.0269 138.587 13.2176 138.235 13.6087C137.81 14.078 137.81 14.7624 137.991 14.7868C138.201 14.8162 138.191 14.4691 138.353 14.2149C138.543 13.9215 138.929 13.8384 139.223 14.0291C139.223 14.0291 139.228 14.0291 139.228 14.034C139.795 14.4055 139.296 14.9042 139.34 15.437C139.409 16.2534 140.245 16.2388 140.396 15.877C140.416 15.8428 140.411 15.7939 140.386 15.7646C140.386 15.8184 140.416 15.7108 140.22 15.7548ZM154.906 14.9188C154.739 14.342 154.779 14.4691 154.573 13.9118C154.695 13.7309 155.321 12.7336 154.422 11.795C153.913 11.2621 152.76 10.9834 152.408 10.8857C152.334 10.3284 152.637 8.01113 151.352 6.81829C152.368 5.76234 153.004 4.59883 153.004 3.60154C152.999 1.68518 150.643 1.10343 147.739 2.30604L147.123 2.56514C147.118 2.56025 146.008 1.47497 145.994 1.4603C142.689 -1.42402 132.335 10.079 135.644 12.8754L136.368 13.4865C136.172 14.0095 136.104 14.5717 136.167 15.129C136.334 16.7668 137.932 18.0916 139.477 18.0867C142.308 24.6082 152.603 24.618 155.267 18.2334C155.351 18.0134 155.712 17.0259 155.712 16.1557C155.712 15.2855 155.219 14.9188 154.906 14.9188ZM139.418 17.2801C138.299 17.2507 137.091 16.2437 136.974 15.0508C136.671 12.0492 140.611 11.3648 141.09 14.4446C141.315 15.8966 140.861 17.3094 139.418 17.2801ZM138.514 11.6825C137.771 11.8292 137.116 12.2496 136.715 12.8314C136.475 12.6309 136.03 12.2447 135.952 12.0981C135.317 10.8808 136.651 8.51956 137.585 7.18983C139.893 3.89486 143.505 1.40164 145.182 1.8514C145.456 1.92962 146.355 2.9709 146.355 2.9709C146.355 2.9709 144.683 3.89975 143.134 5.19525C141.037 6.80852 139.457 9.14531 138.514 11.6825ZM150.217 16.6397C150.217 16.6397 148.467 16.8988 146.81 16.2926C147.113 15.305 148.135 16.5908 151.532 15.6179C152.28 15.4028 153.263 14.9824 154.031 14.3762C154.197 14.7575 154.314 15.1584 154.378 15.5641C154.559 15.5299 155.077 15.5397 154.94 16.449C154.779 17.4218 154.363 18.2138 153.669 18.9422C153.234 19.4115 152.716 19.8026 152.144 20.0862C151.826 20.2524 151.488 20.3942 151.146 20.5066C148.526 21.3621 145.842 20.4235 144.972 18.3996C144.903 18.2431 144.845 18.0867 144.796 17.9205C144.429 16.5859 144.742 14.9873 145.72 13.9802C145.779 13.9167 145.842 13.8384 145.842 13.7456C145.832 13.6624 145.803 13.5842 145.749 13.5207C145.407 13.022 144.219 12.1763 144.459 10.5386C144.63 9.36041 145.656 8.53422 146.619 8.58311L146.864 8.59777C147.279 8.62222 147.641 8.67599 147.983 8.69066C148.555 8.7151 149.073 8.63199 149.68 8.12357C149.885 7.95247 150.051 7.80092 150.33 7.75692C150.56 7.69826 150.799 7.74225 150.995 7.86447C151.484 8.19201 151.552 8.97909 151.576 9.55595C151.591 9.8835 151.63 10.6852 151.645 10.9101C151.674 11.4332 151.811 11.5065 152.09 11.5945C152.246 11.6483 152.393 11.6825 152.603 11.7461C153.248 11.927 153.63 12.1127 153.879 12.3474C154.006 12.4696 154.084 12.6309 154.114 12.802C154.192 13.3593 153.684 14.0487 152.334 14.6695C150.046 15.7304 147.744 15.3784 147.411 15.3393C146.424 15.2073 145.862 16.4832 146.453 17.3534C147.563 18.9911 152.452 18.3311 153.869 16.3072C153.904 16.2583 153.874 16.229 153.835 16.2583C151.787 17.6565 149.078 18.1307 147.538 17.5343C147.304 17.4414 146.815 17.2165 146.756 16.7179C148.893 17.3778 150.237 16.7521 150.237 16.7521C150.237 16.7521 150.345 16.625 150.217 16.6397ZM142.777 7.17517C143.598 6.22676 144.605 5.40058 145.515 4.94104C145.529 4.93126 145.554 4.93615 145.563 4.95571C145.568 4.96549 145.568 4.98015 145.563 4.98993C145.49 5.12192 145.353 5.40058 145.309 5.61079C145.304 5.63035 145.319 5.6499 145.339 5.65479C145.348 5.65968 145.358 5.65479 145.368 5.6499C145.93 5.26858 146.913 4.85305 147.768 4.80416C147.788 4.80416 147.807 4.81882 147.807 4.83838C147.807 4.85305 147.802 4.86282 147.793 4.8726C147.651 4.98015 147.524 5.10726 147.416 5.25392C147.406 5.26858 147.406 5.29303 147.426 5.3028C147.431 5.30769 147.441 5.30769 147.446 5.30769C148.047 5.31258 148.897 5.52279 149.455 5.83567C149.494 5.85522 149.465 5.92856 149.425 5.91878C146.018 5.13659 143.393 6.82807 142.836 7.23383C142.816 7.24361 142.796 7.23872 142.782 7.22406C142.767 7.2045 142.767 7.18495 142.777 7.17517Z" fill="white"/>
<path d="M99.4012 12.0155H88.478V1.09229H99.4012V12.0155Z" fill="white" fill-opacity="0.7"/>
<path d="M110.324 12.0155H99.4012V1.09229H110.324V12.0155Z" fill="white" fill-opacity="0.85"/>
<path d="M99.4012 22.9388H88.478V12.0156H99.4012V22.9388Z" fill="white" fill-opacity="0.55"/>
<path d="M110.324 22.9388H99.4012V12.0156H110.324V22.9388Z" fill="white"/>
<path d="M62.1482 12.8398L62.8219 8.70874H58.6073V6.02792C58.6073 4.89775 59.196 3.79611 61.0838 3.79611H63V0.27912C63 0.27912 61.2609 0 59.5983 0C56.1271 0 53.8584 1.97843 53.8584 5.5602V8.70874H50V12.8398H53.8584V22.8264C54.6439 22.9422 55.4378 23.0002 56.2329 23C57.0407 23 57.8336 22.9405 58.6073 22.8264V12.8398H62.1482Z" fill="white"/>
<path d="M12.0003 23.8229L15.3579 4.99738C18.5582 4.99738 19.5677 5.34725 19.7135 6.77531C19.7135 6.77531 21.8603 5.97726 22.9432 4.35643C18.7177 2.40442 14.4721 2.31639 14.4721 2.31639L11.9947 5.32461L12.0003 5.32423L9.52294 2.31592C9.52294 2.31592 5.27724 2.40405 1.05237 4.35606C2.13423 5.97688 4.28197 6.77493 4.28197 6.77493C4.42858 5.34678 5.43681 4.99691 8.61569 4.99465L12.0003 23.8229Z" fill="white"/>
<path d="M12 1.44929C15.4157 1.42325 19.3253 1.97607 23.3276 3.71512C23.8625 2.75525 24 2.33103 24 2.33103C19.6249 0.60538 15.5277 0.0148137 11.9995 0C8.47151 0.0148137 4.3745 0.605474 0 2.33103C0 2.33103 0.195154 2.85357 0.671967 3.71512C4.67348 1.97607 8.58376 1.42325 11.9995 1.44929H12" fill="white"/>
<path d="M190.043 2.12072V18.6569C190.043 19.8541 190.104 20.5915 190.224 20.8702C190.444 21.5414 191.148 21.8789 192.336 21.8789H193.128V23H183.811V21.8789H184.604C185.461 21.8789 186.057 21.7126 186.393 21.3748C186.728 21.0389 186.897 20.132 186.897 18.6569V2.12072H186.204C185.115 2.12072 184.135 2.42923 183.267 3.04417C181.958 3.97921 181.198 5.85383 180.99 8.66721H180L180.182 1H196.868L197 8.66721H195.992C195.573 5.43863 194.582 3.42712 193.017 2.63063C192.344 2.29151 191.524 2.12113 190.554 2.12113L190.043 2.12072Z" fill="white"/>
</svg>
