<svg width="26" height="26" viewBox="0 0 26 26" fill="none" xmlns="http://www.w3.org/2000/svg">
<circle cx="13" cy="13" r="13" fill="#252531"/>
<path d="M18.127 19H8.95V17.252C11.5973 15.2507 13.396 13.7687 14.346 12.806C15.3087 11.8307 15.79 10.9123 15.79 10.051C15.79 9.43033 15.562 8.95533 15.106 8.626C14.6627 8.284 14.1243 8.113 13.491 8.113C12.0977 8.113 10.9577 8.61967 10.071 9.633L8.779 8.17C9.32367 7.51133 10.0077 7.011 10.831 6.669C11.667 6.31433 12.541 6.137 13.453 6.137C14.745 6.137 15.8343 6.48533 16.721 7.182C17.6077 7.87867 18.051 8.835 18.051 10.051C18.051 11.1403 17.595 12.2233 16.683 13.3C15.771 14.3767 14.3777 15.6243 12.503 17.043H18.127V19Z" fill="white"/>
</svg>
