<svg width="774" height="255" viewBox="0 0 774 255" fill="none" xmlns="http://www.w3.org/2000/svg">
<g filter="url(#filter0_dd_22_1154)">
<rect x="25" y="15" width="724" height="205" fill="url(#paint0_linear_22_1154)"/>
</g>
<g filter="url(#filter1_i_22_1154)">
<path d="M94.1445 143H60.5459V93.9863H94.1445V103.796H70.3555V113.605H86.4541V123.415H70.3555V133.19H94.1445V143ZM129.862 123.415V113.605C129.862 112.261 129.6 110.996 129.076 109.812C128.575 108.604 127.88 107.556 126.991 106.667C126.103 105.778 125.054 105.083 123.847 104.582C122.662 104.058 121.397 103.796 120.053 103.796C118.708 103.796 117.432 104.058 116.225 104.582C115.04 105.083 114.003 105.778 113.114 106.667C112.226 107.556 111.519 108.604 110.995 109.812C110.494 110.996 110.243 112.261 110.243 113.605V123.415H129.862ZM139.672 143H129.862V133.19H110.243V143H100.468V113.605C100.468 110.894 100.98 108.353 102.006 105.983C103.031 103.591 104.421 101.506 106.176 99.7285C107.953 97.9512 110.027 96.5498 112.396 95.5244C114.789 94.499 117.341 93.9863 120.053 93.9863C122.764 93.9863 125.305 94.499 127.675 95.5244C130.067 96.5498 132.152 97.9512 133.93 99.7285C135.707 101.506 137.108 103.591 138.134 105.983C139.159 108.353 139.672 110.894 139.672 113.605V143ZM145.312 108.684C145.312 106.656 145.699 104.753 146.474 102.976C147.248 101.198 148.297 99.6488 149.618 98.3271C150.963 96.9827 152.523 95.9232 154.301 95.1484C156.078 94.3737 157.981 93.9863 160.009 93.9863H182.499V103.796H160.009C159.325 103.796 158.687 103.921 158.095 104.172C157.502 104.423 156.978 104.776 156.522 105.231C156.09 105.664 155.748 106.177 155.497 106.77C155.246 107.362 155.121 108 155.121 108.684C155.121 109.367 155.246 110.017 155.497 110.632C155.748 111.224 156.09 111.748 156.522 112.204C156.978 112.637 157.502 112.979 158.095 113.229C158.687 113.48 159.325 113.605 160.009 113.605H169.818C171.846 113.605 173.749 113.993 175.526 114.768C177.326 115.52 178.887 116.568 180.209 117.912C181.553 119.234 182.602 120.795 183.354 122.595C184.128 124.372 184.516 126.275 184.516 128.303C184.516 130.331 184.128 132.233 183.354 134.011C182.602 135.788 181.553 137.349 180.209 138.693C178.887 140.015 177.326 141.063 175.526 141.838C173.749 142.613 171.846 143 169.818 143H148.046V133.19H169.818C170.502 133.19 171.14 133.065 171.732 132.814C172.325 132.564 172.838 132.222 173.271 131.789C173.726 131.333 174.079 130.809 174.33 130.217C174.581 129.624 174.706 128.986 174.706 128.303C174.706 127.619 174.581 126.981 174.33 126.389C174.079 125.796 173.726 125.284 173.271 124.851C172.838 124.395 172.325 124.042 171.732 123.791C171.14 123.54 170.502 123.415 169.818 123.415H160.009C157.981 123.415 156.078 123.028 154.301 122.253C152.523 121.478 150.963 120.43 149.618 119.108C148.297 117.764 147.248 116.203 146.474 114.426C145.699 112.626 145.312 110.712 145.312 108.684ZM210.868 143H201.093V103.796H186.361V93.9863H225.565V103.796H210.868V143ZM264.359 143H230.761V93.9863H264.359V103.796H240.57V113.605H256.669V123.415H240.57V133.19H264.359V143ZM281.039 103.796V123.415H290.849C292.193 123.415 293.458 123.164 294.643 122.663C295.827 122.139 296.864 121.433 297.753 120.544C298.642 119.655 299.337 118.618 299.838 117.434C300.362 116.226 300.624 114.95 300.624 113.605C300.624 112.261 300.362 110.996 299.838 109.812C299.337 108.604 298.642 107.556 297.753 106.667C296.864 105.778 295.827 105.083 294.643 104.582C293.458 104.058 292.193 103.796 290.849 103.796H281.039ZM281.039 143H271.229V93.9863H290.849C292.649 93.9863 294.381 94.2256 296.044 94.7041C297.707 95.1598 299.257 95.8206 300.692 96.6865C302.151 97.5296 303.472 98.555 304.657 99.7627C305.865 100.948 306.89 102.269 307.733 103.728C308.599 105.186 309.26 106.747 309.716 108.41C310.194 110.074 310.434 111.805 310.434 113.605C310.434 115.292 310.217 116.932 309.784 118.527C309.374 120.122 308.77 121.638 307.973 123.073C307.198 124.509 306.241 125.83 305.102 127.038C303.962 128.246 302.686 129.294 301.273 130.183L306.708 143H296.283L292.011 133.122L281.039 133.19V143ZM370.111 143H336.513V93.9863H370.111V103.796H346.322V113.605H362.421V123.415H346.322V133.19H370.111V143ZM414.75 138.044C412.471 139.981 409.931 141.473 407.128 142.521C404.325 143.547 401.409 144.06 398.378 144.06C396.054 144.06 393.809 143.752 391.645 143.137C389.503 142.544 387.497 141.701 385.629 140.607C383.76 139.491 382.051 138.169 380.502 136.643C378.952 135.093 377.631 133.384 376.537 131.516C375.443 129.624 374.589 127.596 373.974 125.432C373.381 123.267 373.085 121.022 373.085 118.698C373.085 116.374 373.381 114.141 373.974 111.999C374.589 109.857 375.443 107.852 376.537 105.983C377.631 104.092 378.952 102.383 380.502 100.856C382.051 99.307 383.76 97.9854 385.629 96.8916C387.497 95.7979 389.503 94.9548 391.645 94.3623C393.809 93.7471 396.054 93.4395 398.378 93.4395C401.409 93.4395 404.325 93.9635 407.128 95.0117C409.931 96.0371 412.471 97.5182 414.75 99.4551L409.623 108C408.142 106.496 406.433 105.323 404.496 104.479C402.559 103.614 400.52 103.181 398.378 103.181C396.236 103.181 394.219 103.591 392.328 104.411C390.46 105.231 388.819 106.348 387.406 107.761C385.993 109.151 384.877 110.791 384.057 112.683C383.236 114.551 382.826 116.556 382.826 118.698C382.826 120.863 383.236 122.891 384.057 124.782C384.877 126.674 385.993 128.326 387.406 129.738C388.819 131.151 390.46 132.268 392.328 133.088C394.219 133.908 396.236 134.318 398.378 134.318C399.608 134.318 400.805 134.17 401.967 133.874C403.129 133.578 404.234 133.168 405.282 132.644V118.698H414.75V138.044ZM461.303 138.044C459.024 139.981 456.483 141.473 453.681 142.521C450.878 143.547 447.961 144.06 444.931 144.06C442.606 144.06 440.362 143.752 438.197 143.137C436.055 142.544 434.05 141.701 432.182 140.607C430.313 139.491 428.604 138.169 427.055 136.643C425.505 135.093 424.184 133.384 423.09 131.516C421.996 129.624 421.142 127.596 420.526 125.432C419.934 123.267 419.638 121.022 419.638 118.698C419.638 116.374 419.934 114.141 420.526 111.999C421.142 109.857 421.996 107.852 423.09 105.983C424.184 104.092 425.505 102.383 427.055 100.856C428.604 99.307 430.313 97.9854 432.182 96.8916C434.05 95.7979 436.055 94.9548 438.197 94.3623C440.362 93.7471 442.606 93.4395 444.931 93.4395C447.961 93.4395 450.878 93.9635 453.681 95.0117C456.483 96.0371 459.024 97.5182 461.303 99.4551L456.176 108C454.695 106.496 452.986 105.323 451.049 104.479C449.112 103.614 447.073 103.181 444.931 103.181C442.789 103.181 440.772 103.591 438.881 104.411C437.012 105.231 435.372 106.348 433.959 107.761C432.546 109.151 431.43 110.791 430.609 112.683C429.789 114.551 429.379 116.556 429.379 118.698C429.379 120.863 429.789 122.891 430.609 124.782C431.43 126.674 432.546 128.326 433.959 129.738C435.372 131.151 437.012 132.268 438.881 133.088C440.772 133.908 442.789 134.318 444.931 134.318C446.161 134.318 447.357 134.17 448.52 133.874C449.682 133.578 450.787 133.168 451.835 132.644V118.698H461.303V138.044ZM498.285 143H488.476V93.9863H522.792V103.796H498.285V113.605H512.982V123.415H498.285V143ZM574.779 118.698C574.779 121.022 574.472 123.267 573.856 125.432C573.264 127.574 572.421 129.59 571.327 131.481C570.233 133.35 568.912 135.059 567.362 136.608C565.813 138.158 564.104 139.491 562.235 140.607C560.367 141.701 558.35 142.544 556.186 143.137C554.021 143.752 551.776 144.06 549.452 144.06C547.128 144.06 544.883 143.752 542.719 143.137C540.577 142.544 538.56 141.701 536.669 140.607C534.8 139.491 533.091 138.158 531.542 136.608C529.993 135.059 528.66 133.35 527.543 131.481C526.449 129.59 525.595 127.574 524.979 125.432C524.387 123.267 524.091 121.022 524.091 118.698C524.091 116.374 524.387 114.13 524.979 111.965C525.595 109.8 526.449 107.784 527.543 105.915C528.66 104.047 529.993 102.338 531.542 100.788C533.091 99.2386 534.8 97.917 536.669 96.8232C538.56 95.7295 540.577 94.8864 542.719 94.2939C544.883 93.6787 547.128 93.3711 549.452 93.3711C551.776 93.3711 554.021 93.6787 556.186 94.2939C558.35 94.8864 560.367 95.7295 562.235 96.8232C564.104 97.917 565.813 99.2386 567.362 100.788C568.912 102.338 570.233 104.047 571.327 105.915C572.421 107.784 573.264 109.8 573.856 111.965C574.472 114.13 574.779 116.374 574.779 118.698ZM565.038 118.698C565.038 116.556 564.628 114.54 563.808 112.648C562.987 110.734 561.871 109.082 560.458 107.692C559.068 106.28 557.416 105.163 555.502 104.343C553.611 103.522 551.594 103.112 549.452 103.112C547.287 103.112 545.259 103.522 543.368 104.343C541.477 105.163 539.825 106.28 538.412 107.692C536.999 109.082 535.883 110.734 535.062 112.648C534.242 114.54 533.832 116.556 533.832 118.698C533.832 120.84 534.242 122.857 535.062 124.748C535.883 126.617 536.999 128.257 538.412 129.67C539.825 131.083 541.477 132.199 543.368 133.02C545.259 133.84 547.287 134.25 549.452 134.25C551.594 134.25 553.611 133.84 555.502 133.02C557.416 132.199 559.068 131.083 560.458 129.67C561.871 128.257 562.987 126.617 563.808 124.748C564.628 122.857 565.038 120.84 565.038 118.698ZM619.896 123.415C619.896 126.127 619.384 128.679 618.358 131.071C617.333 133.441 615.932 135.515 614.154 137.292C612.377 139.047 610.292 140.437 607.899 141.462C605.53 142.487 602.989 143 600.277 143C597.566 143 595.014 142.487 592.621 141.462C590.251 140.437 588.178 139.047 586.4 137.292C584.646 135.515 583.256 133.441 582.23 131.071C581.205 128.679 580.692 126.127 580.692 123.415V93.9863H590.468V123.415C590.468 124.759 590.718 126.024 591.22 127.209C591.744 128.394 592.45 129.431 593.339 130.319C594.228 131.208 595.264 131.914 596.449 132.438C597.657 132.94 598.933 133.19 600.277 133.19C601.622 133.19 602.886 132.94 604.071 132.438C605.279 131.914 606.327 131.208 607.216 130.319C608.104 129.431 608.799 128.394 609.301 127.209C609.825 126.024 610.087 124.759 610.087 123.415V93.9863H619.896V123.415ZM667.611 143H657.118L638.217 110.734V143H628.407V93.9863H638.9L657.802 126.286V93.9863H667.611V143ZM716.01 118.493C716.01 120.749 715.714 122.925 715.121 125.021C714.551 127.095 713.731 129.043 712.66 130.866C711.589 132.666 710.313 134.318 708.832 135.822C707.351 137.303 705.699 138.579 703.876 139.65C702.053 140.721 700.093 141.553 697.997 142.146C695.924 142.715 693.759 143 691.503 143H676.737V93.9863H691.503C693.759 93.9863 695.924 94.2826 697.997 94.875C700.093 95.4447 702.053 96.265 703.876 97.3359C705.699 98.4069 707.351 99.6943 708.832 101.198C710.313 102.679 711.589 104.331 712.66 106.154C713.731 107.954 714.551 109.903 715.121 111.999C715.714 114.073 716.01 116.237 716.01 118.493ZM706.2 118.493C706.2 116.465 705.813 114.562 705.038 112.785C704.286 111.008 703.238 109.458 701.894 108.137C700.572 106.792 699.011 105.733 697.211 104.958C695.434 104.183 693.531 103.796 691.503 103.796H686.615V133.19H691.503C693.531 133.19 695.434 132.814 697.211 132.062C699.011 131.288 700.572 130.24 701.894 128.918C703.238 127.574 704.286 126.013 705.038 124.235C705.813 122.435 706.2 120.521 706.2 118.493Z" fill="url(#paint1_linear_22_1154)"/>
</g>
<defs>
<filter id="filter0_dd_22_1154" x="0" y="0" width="774" height="255" filterUnits="userSpaceOnUse" color-interpolation-filters="sRGB">
<feFlood flood-opacity="0" result="BackgroundImageFix"/>
<feColorMatrix in="SourceAlpha" type="matrix" values="0 0 0 0 0 0 0 0 0 0 0 0 0 0 0 0 0 0 127 0" result="hardAlpha"/>
<feOffset dy="10"/>
<feGaussianBlur stdDeviation="12.5"/>
<feComposite in2="hardAlpha" operator="out"/>
<feColorMatrix type="matrix" values="0 0 0 0 0.239216 0 0 0 0 0.227451 0 0 0 0 0.227451 0 0 0 1 0"/>
<feBlend mode="normal" in2="BackgroundImageFix" result="effect1_dropShadow_22_1154"/>
<feColorMatrix in="SourceAlpha" type="matrix" values="0 0 0 0 0 0 0 0 0 0 0 0 0 0 0 0 0 0 127 0" result="hardAlpha"/>
<feOffset dy="4"/>
<feGaussianBlur stdDeviation="2"/>
<feComposite in2="hardAlpha" operator="out"/>
<feColorMatrix type="matrix" values="0 0 0 0 0 0 0 0 0 0 0 0 0 0 0 0 0 0 0.25 0"/>
<feBlend mode="normal" in2="effect1_dropShadow_22_1154" result="effect2_dropShadow_22_1154"/>
<feBlend mode="normal" in="SourceGraphic" in2="effect2_dropShadow_22_1154" result="shape"/>
</filter>
<filter id="filter1_i_22_1154" x="60.5459" y="93.3711" width="655.464" height="54.6885" filterUnits="userSpaceOnUse" color-interpolation-filters="sRGB">
<feFlood flood-opacity="0" result="BackgroundImageFix"/>
<feBlend mode="normal" in="SourceGraphic" in2="BackgroundImageFix" result="shape"/>
<feColorMatrix in="SourceAlpha" type="matrix" values="0 0 0 0 0 0 0 0 0 0 0 0 0 0 0 0 0 0 127 0" result="hardAlpha"/>
<feOffset dy="4"/>
<feGaussianBlur stdDeviation="2"/>
<feComposite in2="hardAlpha" operator="arithmetic" k2="-1" k3="1"/>
<feColorMatrix type="matrix" values="0 0 0 0 0 0 0 0 0 0 0 0 0 0 0 0 0 0 0.25 0"/>
<feBlend mode="normal" in2="shape" result="effect1_innerShadow_22_1154"/>
</filter>
<linearGradient id="paint0_linear_22_1154" x1="57.5275" y1="22.0343" x2="142.717" y2="371.869" gradientUnits="userSpaceOnUse">
<stop stop-color="#D79314"/>
<stop offset="0.489583" stop-color="#F3DAAB"/>
<stop offset="0.9375" stop-color="#D79314"/>
</linearGradient>
<linearGradient id="paint1_linear_22_1154" x1="85.742" y1="76.9853" x2="103.293" y2="232.272" gradientUnits="userSpaceOnUse">
<stop stop-color="#D79314"/>
<stop offset="0.489583" stop-color="#D79314" stop-opacity="0.44"/>
<stop offset="0.9375" stop-color="#D79314"/>
</linearGradient>
</defs>
</svg>
