<svg width="1126" height="542" viewBox="0 0 1126 542" fill="none" xmlns="http://www.w3.org/2000/svg">
<path d="M36.4 82L23.55 48.65H14.65L1.75 82H9.85L11.95 76.35H26.25L28.3 82H36.4ZM24.3 70.1H13.9L19.1 55.75L24.3 70.1ZM64.2727 82.6C72.3227 82.6 77.6227 78.15 77.6227 71.05C77.6227 64.3 72.5727 60.25 66.9227 60.25C63.8727 60.25 61.1727 61.45 59.5727 63.05V54.9H75.3727V48.65H52.4727V67.8L57.4227 69.1C59.4227 67.2 61.6727 66.4 64.4227 66.4C68.2227 66.4 70.4227 68.4 70.4227 71.35C70.4227 74.05 68.1727 76.3 64.2227 76.3C60.7227 76.3 57.6227 75 55.3727 72.65L51.4227 77.6C54.2727 80.7 58.4727 82.6 64.2727 82.6ZM131.686 82V64.55C131.686 59.6 129.036 57.25 124.586 57.25C120.886 57.25 117.686 59.45 116.286 61.65C115.386 58.9 113.136 57.25 109.586 57.25C105.886 57.25 102.686 59.55 101.686 61V57.85H95.3355V82H101.686V65.75C102.636 64.4 104.486 62.9 106.686 62.9C109.286 62.9 110.286 64.5 110.286 66.75V82H116.686V65.7C117.586 64.4 119.436 62.9 121.686 62.9C124.286 62.9 125.286 64.5 125.286 66.75V82H131.686ZM141.064 55.25C143.164 55.25 144.864 53.55 144.864 51.45C144.864 49.35 143.164 47.7 141.064 47.7C139.014 47.7 137.264 49.35 137.264 51.45C137.264 53.55 139.014 55.25 141.064 55.25ZM144.264 82V57.85H137.914V82H144.264ZM173.21 82V64.95C173.21 60.25 170.66 57.25 165.36 57.25C161.41 57.25 158.46 59.15 156.91 61V57.85H150.56V82H156.91V65.75C157.96 64.3 159.91 62.9 162.41 62.9C165.11 62.9 166.86 64.05 166.86 67.4V82H173.21ZM202.165 82V57.85H195.815V74.2C194.715 75.6 192.765 76.95 190.315 76.95C187.615 76.95 185.865 75.85 185.865 72.5V57.85H179.515V75C179.515 79.7 182.015 82.6 187.315 82.6C191.265 82.6 194.165 80.8 195.815 78.95V82H202.165ZM216.57 82.6C219.22 82.6 220.92 81.9 221.87 81.05L220.52 76.25C220.17 76.6 219.27 76.95 218.32 76.95C216.92 76.95 216.12 75.8 216.12 74.3V63.4H221.02V57.85H216.12V51.25H209.72V57.85H205.72V63.4H209.72V76C209.72 80.3 212.12 82.6 216.57 82.6ZM236.715 82.6C240.465 82.6 244.265 81.45 246.665 79.25L243.865 75.15C242.315 76.65 239.465 77.55 237.415 77.55C233.315 77.55 230.865 75 230.465 71.95H248.415V70.55C248.415 62.65 243.515 57.25 236.315 57.25C228.965 57.25 223.815 62.9 223.815 69.9C223.815 77.65 229.365 82.6 236.715 82.6ZM242.265 67.65H230.365C230.665 65.25 232.365 62.3 236.315 62.3C240.515 62.3 242.115 65.35 242.265 67.65ZM17.15 138.6C26.15 138.6 30.5 134 30.5 127.9C30.5 115.45 11.35 119 11.35 113.7C11.35 111.7 13.05 110.35 16.1 110.35C19.5 110.35 23.1 111.5 25.8 114L29.75 108.8C26.45 105.75 22.05 104.15 16.75 104.15C8.9 104.15 4.1 108.75 4.1 114.3C4.1 126.85 23.3 122.8 23.3 128.7C23.3 130.6 21.4 132.4 17.5 132.4C12.9 132.4 9.25 130.35 6.9 127.9L3.05 133.3C6.15 136.45 10.75 138.6 17.15 138.6ZM46.4805 138.6C50.2305 138.6 54.0305 137.45 56.4305 135.25L53.6305 131.15C52.0805 132.65 49.2305 133.55 47.1805 133.55C43.0805 133.55 40.6305 131 40.2305 127.95H58.1805V126.55C58.1805 118.65 53.2805 113.25 46.0805 113.25C38.7305 113.25 33.5805 118.9 33.5805 125.9C33.5805 133.65 39.1305 138.6 46.4805 138.6ZM52.0305 123.65H40.1305C40.4305 121.25 42.1305 118.3 46.0805 118.3C50.2805 118.3 51.8805 121.35 52.0305 123.65ZM70.8672 138.6C73.5172 138.6 75.2172 137.9 76.1672 137.05L74.8172 132.25C74.4672 132.6 73.5672 132.95 72.6172 132.95C71.2172 132.95 70.4172 131.8 70.4172 130.3V119.4H75.3172V113.85H70.4172V107.25H64.0172V113.85H60.0172V119.4H64.0172V132C64.0172 136.3 66.4172 138.6 70.8672 138.6ZM102.312 138V113.85H95.9617V130.2C94.8617 131.6 92.9117 132.95 90.4617 132.95C87.7617 132.95 86.0117 131.85 86.0117 128.5V113.85H79.6617V131C79.6617 135.7 82.1617 138.6 87.4617 138.6C91.4117 138.6 94.3117 136.8 95.9617 134.95V138H102.312ZM122.417 138.6C128.617 138.6 133.117 133.95 133.117 125.9C133.117 117.85 128.617 113.25 122.417 113.25C119.467 113.25 116.817 114.55 114.967 116.9V113.85H108.617V147.2H114.967V134.9C116.917 137.4 119.567 138.6 122.417 138.6ZM120.417 132.95C118.367 132.95 116.017 131.7 114.967 130.2V121.65C116.017 120.1 118.367 118.9 120.417 118.9C124.067 118.9 126.517 121.75 126.517 125.9C126.517 130.1 124.067 132.95 120.417 132.95Z" fill="white"/>
<path d="M5.7 188.24C8.08 188.24 9.94 186.88 9.94 183.98V174.66H8.28V183.96C8.28 185.62 7.24 186.76 5.6 186.76C4.44 186.76 3.66 186.14 3.08 185.44L2.22 186.7C3.14 187.78 4.28 188.24 5.7 188.24ZM21.0122 188V178.34H19.5122V185.44C18.9522 186.22 17.8322 186.9 16.6522 186.9C15.3522 186.9 14.4922 186.4 14.4922 184.7V178.34H12.9922V185.16C12.9922 187.26 14.0522 188.24 16.0722 188.24C17.5122 188.24 18.7722 187.48 19.5122 186.64V188H21.0122ZM27.0678 188.24C29.5678 188.24 30.8678 186.94 30.8678 185.32C30.8678 181.56 24.8878 182.96 24.8878 180.84C24.8878 179.98 25.7078 179.32 27.0278 179.32C28.2678 179.32 29.3278 179.84 29.9078 180.54L30.6078 179.5C29.8278 178.72 28.6678 178.1 27.0278 178.1C24.7278 178.1 23.4278 179.38 23.4278 180.88C23.4278 184.46 29.4078 183.02 29.4078 185.36C29.4078 186.32 28.6078 187.02 27.1278 187.02C25.8078 187.02 24.5878 186.38 23.9478 185.64L23.1678 186.72C24.1478 187.76 25.4878 188.24 27.0678 188.24ZM35.7447 188.24C36.6247 188.24 37.1647 187.98 37.5447 187.62L37.1047 186.5C36.9047 186.72 36.5047 186.9 36.0847 186.9C35.4247 186.9 35.1047 186.38 35.1047 185.66V179.66H37.0647V178.34H35.1047V175.7H33.6047V178.34H32.0047V179.66H33.6047V185.98C33.6047 187.42 34.3247 188.24 35.7447 188.24ZM51.8798 188V181.36C51.8798 179.02 50.1798 178.1 48.1398 178.1C46.5598 178.1 45.3198 178.62 44.2798 179.7L44.9798 180.74C45.8398 179.82 46.7798 179.4 47.9398 179.4C49.3398 179.4 50.3798 180.14 50.3798 181.44V183.18C49.5998 182.28 48.4998 181.86 47.1798 181.86C45.5398 181.86 43.7998 182.88 43.7998 185.04C43.7998 187.14 45.5398 188.24 47.1798 188.24C48.4798 188.24 49.5798 187.78 50.3798 186.9V188H51.8798ZM47.7198 187.16C46.3198 187.16 45.3398 186.28 45.3398 185.06C45.3398 183.82 46.3198 182.94 47.7198 182.94C48.7798 182.94 49.7998 183.34 50.3798 184.14V185.96C49.7998 186.76 48.7798 187.16 47.7198 187.16ZM61.963 188V179.66H63.923V178.34H61.963V177.6C61.963 176.38 62.503 175.7 63.483 175.7C63.983 175.7 64.363 175.9 64.683 176.18L65.303 175.2C64.703 174.64 64.023 174.46 63.263 174.46C61.543 174.46 60.463 175.62 60.463 177.6V178.34H58.863V179.66H60.463V188H61.963ZM70.067 188.24C71.647 188.24 72.947 187.72 73.907 186.76L73.187 185.78C72.427 186.56 71.307 187 70.207 187C68.127 187 66.847 185.48 66.727 183.66H74.547V183.28C74.547 180.38 72.827 178.1 69.907 178.1C67.147 178.1 65.147 180.36 65.147 183.16C65.147 186.18 67.207 188.24 70.067 188.24ZM73.067 182.56H66.727C66.807 181.08 67.827 179.34 69.887 179.34C72.087 179.34 73.047 181.12 73.067 182.56ZM86.8366 188L89.9166 178.34H88.3566L85.9966 186.04L83.4566 178.34H82.1766L79.6366 186.04L77.2766 178.34H75.7166L78.7966 188H80.2966L82.8166 180.24L85.3366 188H86.8366ZM98.3203 188V174.66H96.8203V188H98.3203ZM102.053 176.96C102.613 176.96 103.073 176.52 103.073 175.96C103.073 175.4 102.613 174.94 102.053 174.94C101.513 174.94 101.053 175.4 101.053 175.96C101.053 176.52 101.513 176.96 102.053 176.96ZM102.813 188V178.34H101.313V188H102.813ZM113.825 188V181.22C113.825 179.12 112.765 178.1 110.745 178.1C109.305 178.1 107.985 178.94 107.305 179.74V178.34H105.805V188H107.305V180.94C107.865 180.16 108.985 179.44 110.165 179.44C111.465 179.44 112.325 179.98 112.325 181.68V188H113.825ZM121.18 188.24C122.76 188.24 124.06 187.72 125.02 186.76L124.3 185.78C123.54 186.56 122.42 187 121.32 187C119.24 187 117.96 185.48 117.84 183.66H125.66V183.28C125.66 180.38 123.94 178.1 121.02 178.1C118.26 178.1 116.26 180.36 116.26 183.16C116.26 186.18 118.32 188.24 121.18 188.24ZM124.18 182.56H117.84C117.92 181.08 118.94 179.34 121 179.34C123.2 179.34 124.16 181.12 124.18 182.56ZM131.15 188.24C133.65 188.24 134.95 186.94 134.95 185.32C134.95 181.56 128.97 182.96 128.97 180.84C128.97 179.98 129.79 179.32 131.11 179.32C132.35 179.32 133.41 179.84 133.99 180.54L134.69 179.5C133.91 178.72 132.75 178.1 131.11 178.1C128.81 178.1 127.51 179.38 127.51 180.88C127.51 184.46 133.49 183.02 133.49 185.36C133.49 186.32 132.69 187.02 131.21 187.02C129.89 187.02 128.67 186.38 128.03 185.64L127.25 186.72C128.23 187.76 129.57 188.24 131.15 188.24ZM146.763 188.24C149.703 188.24 151.543 185.96 151.543 183.16C151.543 180.36 149.703 178.1 146.763 178.1C143.823 178.1 141.983 180.36 141.983 183.16C141.983 185.96 143.823 188.24 146.763 188.24ZM146.763 186.9C144.703 186.9 143.543 185.14 143.543 183.16C143.543 181.2 144.703 179.44 146.763 179.44C148.823 179.44 149.963 181.2 149.963 183.16C149.963 185.14 148.823 186.9 146.763 186.9ZM155.908 188V179.66H157.868V178.34H155.908V177.6C155.908 176.38 156.448 175.7 157.428 175.7C157.928 175.7 158.308 175.9 158.628 176.18L159.248 175.2C158.648 174.64 157.968 174.46 157.208 174.46C155.488 174.46 154.408 175.62 154.408 177.6V178.34H152.808V179.66H154.408V188H155.908ZM169.069 188.24C170.829 188.24 171.869 187.52 172.609 186.56L171.609 185.64C170.969 186.5 170.149 186.9 169.149 186.9C167.089 186.9 165.809 185.3 165.809 183.16C165.809 181.02 167.089 179.44 169.149 179.44C170.149 179.44 170.969 179.82 171.609 180.7L172.609 179.78C171.869 178.82 170.829 178.1 169.069 178.1C166.189 178.1 164.249 180.3 164.249 183.16C164.249 186.04 166.189 188.24 169.069 188.24ZM178.931 188.24C181.871 188.24 183.711 185.96 183.711 183.16C183.711 180.36 181.871 178.1 178.931 178.1C175.991 178.1 174.151 180.36 174.151 183.16C174.151 185.96 175.991 188.24 178.931 188.24ZM178.931 186.9C176.871 186.9 175.711 185.14 175.711 183.16C175.711 181.2 176.871 179.44 178.931 179.44C180.991 179.44 182.131 181.2 182.131 183.16C182.131 185.14 180.991 186.9 178.931 186.9ZM194.656 188V174.66H193.156V179.8C192.376 178.74 191.196 178.1 189.896 178.1C187.356 178.1 185.596 180.1 185.596 183.18C185.596 186.32 187.376 188.24 189.896 188.24C191.256 188.24 192.436 187.54 193.156 186.56V188H194.656ZM190.256 186.9C188.316 186.9 187.156 185.32 187.156 183.18C187.156 181.04 188.316 179.44 190.256 179.44C191.456 179.44 192.616 180.16 193.156 181V185.38C192.616 186.22 191.456 186.9 190.256 186.9ZM202.02 188.24C203.6 188.24 204.9 187.72 205.86 186.76L205.14 185.78C204.38 186.56 203.26 187 202.16 187C200.08 187 198.8 185.48 198.68 183.66H206.5V183.28C206.5 180.38 204.78 178.1 201.86 178.1C199.1 178.1 197.1 180.36 197.1 183.16C197.1 186.18 199.16 188.24 202.02 188.24ZM205.02 182.56H198.68C198.76 181.08 199.78 179.34 201.84 179.34C204.04 179.34 205 181.12 205.02 182.56ZM214.826 176.96C215.386 176.96 215.846 176.52 215.846 175.96C215.846 175.4 215.386 174.94 214.826 174.94C214.286 174.94 213.826 175.4 213.826 175.96C213.826 176.52 214.286 176.96 214.826 176.96ZM215.586 188V178.34H214.086V188H215.586ZM226.598 188V181.22C226.598 179.12 225.538 178.1 223.518 178.1C222.078 178.1 220.758 178.94 220.078 179.74V178.34H218.578V188H220.078V180.94C220.638 180.16 221.758 179.44 222.938 179.44C224.238 179.44 225.098 179.98 225.098 181.68V188H226.598ZM237.19 188.24C238.07 188.24 238.61 187.98 238.99 187.62L238.55 186.5C238.35 186.72 237.95 186.9 237.53 186.9C236.87 186.9 236.55 186.38 236.55 185.66V179.66H238.51V178.34H236.55V175.7H235.05V178.34H233.45V179.66H235.05V185.98C235.05 187.42 235.77 188.24 237.19 188.24ZM248.669 188V181.18C248.669 179.08 247.609 178.1 245.589 178.1C244.129 178.1 242.809 178.94 242.129 179.74V174.66H240.629V188H242.129V180.94C242.709 180.16 243.829 179.44 244.989 179.44C246.289 179.44 247.169 179.94 247.169 181.64V188H248.669ZM256.024 188.24C257.604 188.24 258.904 187.72 259.864 186.76L259.144 185.78C258.384 186.56 257.264 187 256.164 187C254.084 187 252.804 185.48 252.684 183.66H260.504V183.28C260.504 180.38 258.784 178.1 255.864 178.1C253.104 178.1 251.104 180.36 251.104 183.16C251.104 186.18 253.164 188.24 256.024 188.24ZM259.024 182.56H252.684C252.764 181.08 253.784 179.34 255.844 179.34C258.044 179.34 259.004 181.12 259.024 182.56ZM11.54 212V205.18C11.54 203.08 10.48 202.1 8.46 202.1C7 202.1 5.68 202.94 5 203.74V198.66H3.5V212H5V204.94C5.58 204.16 6.7 203.44 7.86 203.44C9.16 203.44 10.04 203.94 10.04 205.64V212H11.54ZM18.8952 212.24C20.4752 212.24 21.7752 211.72 22.7352 210.76L22.0152 209.78C21.2552 210.56 20.1352 211 19.0352 211C16.9552 211 15.6752 209.48 15.5552 207.66H23.3752V207.28C23.3752 204.38 21.6552 202.1 18.7352 202.1C15.9752 202.1 13.9752 204.36 13.9752 207.16C13.9752 210.18 16.0352 212.24 18.8952 212.24ZM21.8952 206.56H15.5552C15.6352 205.08 16.6552 203.34 18.7152 203.34C20.9152 203.34 21.8752 205.12 21.8952 206.56ZM33.3447 212V205.36C33.3447 203.02 31.6447 202.1 29.6047 202.1C28.0247 202.1 26.7847 202.62 25.7447 203.7L26.4447 204.74C27.3047 203.82 28.2447 203.4 29.4047 203.4C30.8047 203.4 31.8447 204.14 31.8447 205.44V207.18C31.0647 206.28 29.9647 205.86 28.6447 205.86C27.0047 205.86 25.2647 206.88 25.2647 209.04C25.2647 211.14 27.0047 212.24 28.6447 212.24C29.9447 212.24 31.0447 211.78 31.8447 210.9V212H33.3447ZM29.1847 211.16C27.7847 211.16 26.8047 210.28 26.8047 209.06C26.8047 207.82 27.7847 206.94 29.1847 206.94C30.2447 206.94 31.2647 207.34 31.8447 208.14V209.96C31.2647 210.76 30.2447 211.16 29.1847 211.16ZM44.8516 212V198.66H43.3516V203.8C42.5716 202.74 41.3916 202.1 40.0916 202.1C37.5516 202.1 35.7916 204.1 35.7916 207.18C35.7916 210.32 37.5716 212.24 40.0916 212.24C41.4516 212.24 42.6316 211.54 43.3516 210.56V212H44.8516ZM40.4516 210.9C38.5116 210.9 37.3516 209.32 37.3516 207.18C37.3516 205.04 38.5116 203.44 40.4516 203.44C41.6516 203.44 42.8116 204.16 43.3516 205V209.38C42.8116 210.22 41.6516 210.9 40.4516 210.9ZM52.2155 212.24C53.7955 212.24 55.0955 211.72 56.0555 210.76L55.3355 209.78C54.5755 210.56 53.4555 211 52.3555 211C50.2755 211 48.9955 209.48 48.8755 207.66H56.6955V207.28C56.6955 204.38 54.9755 202.1 52.0555 202.1C49.2955 202.1 47.2955 204.36 47.2955 207.16C47.2955 210.18 49.3555 212.24 52.2155 212.24ZM55.2155 206.56H48.8755C48.9555 205.08 49.9755 203.34 52.0355 203.34C54.2355 203.34 55.1955 205.12 55.2155 206.56ZM60.625 212V205.16C61.065 204.38 62.325 203.62 63.245 203.62C63.485 203.62 63.665 203.64 63.845 203.68V202.14C62.525 202.14 61.405 202.88 60.625 203.9V202.34H59.125V212H60.625ZM75.1028 212.24C78.0428 212.24 79.8828 209.96 79.8828 207.16C79.8828 204.36 78.0428 202.1 75.1028 202.1C72.1628 202.1 70.3228 204.36 70.3228 207.16C70.3228 209.96 72.1628 212.24 75.1028 212.24ZM75.1028 210.9C73.0428 210.9 71.8828 209.14 71.8828 207.16C71.8828 205.2 73.0428 203.44 75.1028 203.44C77.1628 203.44 78.3028 205.2 78.3028 207.16C78.3028 209.14 77.1628 210.9 75.1028 210.9ZM84.2481 212V203.66H86.2081V202.34H84.2481V201.6C84.2481 200.38 84.7881 199.7 85.7681 199.7C86.2681 199.7 86.6481 199.9 86.9681 200.18L87.5881 199.2C86.9881 198.64 86.3081 198.46 85.5481 198.46C83.8281 198.46 82.7481 199.62 82.7481 201.6V202.34H81.1481V203.66H82.7481V212H84.2481ZM92.6084 215.78C92.8884 215.86 93.3884 215.92 93.7084 215.92C94.9884 215.9 95.9684 215.36 96.5484 213.96L101.388 202.34H99.7484L96.5484 210.26L93.3284 202.34H91.7084L95.7484 212.1L95.1084 213.56C94.7684 214.36 94.3284 214.58 93.6684 214.58C93.4284 214.58 93.0684 214.52 92.8484 214.42L92.6084 215.78ZM107.173 212.24C110.113 212.24 111.953 209.96 111.953 207.16C111.953 204.36 110.113 202.1 107.173 202.1C104.233 202.1 102.393 204.36 102.393 207.16C102.393 209.96 104.233 212.24 107.173 212.24ZM107.173 210.9C105.113 210.9 103.953 209.14 103.953 207.16C103.953 205.2 105.113 203.44 107.173 203.44C109.233 203.44 110.373 205.2 110.373 207.16C110.373 209.14 109.233 210.9 107.173 210.9ZM122.418 212V202.34H120.918V209.44C120.358 210.22 119.238 210.9 118.058 210.9C116.758 210.9 115.898 210.4 115.898 208.7V202.34H114.398V209.16C114.398 211.26 115.458 212.24 117.478 212.24C118.918 212.24 120.178 211.48 120.918 210.64V212H122.418ZM126.914 212V205.16C127.354 204.38 128.614 203.62 129.534 203.62C129.774 203.62 129.954 203.64 130.134 203.68V202.14C128.814 202.14 127.694 202.88 126.914 203.9V202.34H125.414V212H126.914ZM147.032 212L150.112 202.34H148.552L146.192 210.04L143.652 202.34H142.372L139.832 210.04L137.472 202.34H135.912L138.992 212H140.492L143.012 204.24L145.532 212H147.032ZM156.219 212.24C157.799 212.24 159.099 211.72 160.059 210.76L159.339 209.78C158.579 210.56 157.459 211 156.359 211C154.279 211 152.999 209.48 152.879 207.66H160.699V207.28C160.699 204.38 158.979 202.1 156.059 202.1C153.299 202.1 151.299 204.36 151.299 207.16C151.299 210.18 153.359 212.24 156.219 212.24ZM159.219 206.56H152.879C152.959 205.08 153.979 203.34 156.039 203.34C158.239 203.34 159.199 205.12 159.219 206.56ZM164.629 209.38V205C165.149 204.16 166.329 203.44 167.509 203.44C169.469 203.44 170.629 205.04 170.629 207.18C170.629 209.32 169.469 210.9 167.509 210.9C166.329 210.9 165.149 210.22 164.629 209.38ZM164.629 212V210.56C165.349 211.54 166.529 212.24 167.889 212.24C170.409 212.24 172.189 210.32 172.189 207.18C172.189 204.1 170.409 202.1 167.889 202.1C166.569 202.1 165.409 202.74 164.629 203.8V198.66H163.129V212H164.629ZM177.693 212.24C180.193 212.24 181.493 210.94 181.493 209.32C181.493 205.56 175.513 206.96 175.513 204.84C175.513 203.98 176.333 203.32 177.653 203.32C178.893 203.32 179.953 203.84 180.533 204.54L181.233 203.5C180.453 202.72 179.293 202.1 177.653 202.1C175.353 202.1 174.053 203.38 174.053 204.88C174.053 208.46 180.033 207.02 180.033 209.36C180.033 210.32 179.233 211.02 177.753 211.02C176.433 211.02 175.213 210.38 174.573 209.64L173.793 210.72C174.773 211.76 176.113 212.24 177.693 212.24ZM184.67 200.96C185.23 200.96 185.69 200.52 185.69 199.96C185.69 199.4 185.23 198.94 184.67 198.94C184.13 198.94 183.67 199.4 183.67 199.96C183.67 200.52 184.13 200.96 184.67 200.96ZM185.43 212V202.34H183.93V212H185.43ZM190.862 212.24C191.742 212.24 192.282 211.98 192.662 211.62L192.222 210.5C192.022 210.72 191.622 210.9 191.202 210.9C190.542 210.9 190.222 210.38 190.222 209.66V203.66H192.182V202.34H190.222V199.7H188.722V202.34H187.122V203.66H188.722V209.98C188.722 211.42 189.442 212.24 190.862 212.24ZM198.661 212.24C200.241 212.24 201.541 211.72 202.501 210.76L201.781 209.78C201.021 210.56 199.901 211 198.801 211C196.721 211 195.441 209.48 195.321 207.66H203.141V207.28C203.141 204.38 201.421 202.1 198.501 202.1C195.741 202.1 193.741 204.36 193.741 207.16C193.741 210.18 195.801 212.24 198.661 212.24ZM201.661 206.56H195.321C195.401 205.08 196.421 203.34 198.481 203.34C200.681 203.34 201.641 205.12 201.661 206.56ZM215.487 212.24C218.027 212.24 219.787 210.28 219.787 207.16C219.787 204.02 218.027 202.1 215.487 202.1C214.127 202.1 212.927 202.8 212.227 203.78V202.34H210.727V215.68H212.227V210.54C213.007 211.62 214.167 212.24 215.487 212.24ZM215.107 210.9C213.927 210.9 212.747 210.18 212.227 209.34V204.98C212.747 204.14 213.927 203.44 215.107 203.44C217.047 203.44 218.207 205.02 218.207 207.16C218.207 209.3 217.047 210.9 215.107 210.9ZM229.712 212V205.36C229.712 203.02 228.012 202.1 225.972 202.1C224.392 202.1 223.152 202.62 222.112 203.7L222.812 204.74C223.672 203.82 224.612 203.4 225.772 203.4C227.172 203.4 228.212 204.14 228.212 205.44V207.18C227.432 206.28 226.332 205.86 225.012 205.86C223.372 205.86 221.632 206.88 221.632 209.04C221.632 211.14 223.372 212.24 225.012 212.24C226.312 212.24 227.412 211.78 228.212 210.9V212H229.712ZM225.552 211.16C224.152 211.16 223.172 210.28 223.172 209.06C223.172 207.82 224.152 206.94 225.552 206.94C226.612 206.94 227.632 207.34 228.212 208.14V209.96C227.632 210.76 226.612 211.16 225.552 211.16ZM236.599 215.92C238.959 215.92 241.199 214.92 241.199 211.72V202.34H239.699V203.8C238.919 202.74 237.759 202.1 236.459 202.1C233.919 202.1 232.159 204.02 232.159 207.12C232.159 210.24 233.939 212.12 236.459 212.12C237.819 212.12 238.999 211.38 239.699 210.4V211.78C239.699 213.9 238.199 214.68 236.599 214.68C235.219 214.68 234.259 214.32 233.459 213.36L232.699 214.48C233.839 215.6 234.959 215.92 236.599 215.92ZM236.819 210.8C234.879 210.8 233.719 209.24 233.719 207.12C233.719 204.98 234.879 203.44 236.819 203.44C238.019 203.44 239.179 204.16 239.699 205V209.22C239.179 210.06 238.019 210.8 236.819 210.8ZM248.563 212.24C250.143 212.24 251.443 211.72 252.403 210.76L251.683 209.78C250.923 210.56 249.803 211 248.703 211C246.623 211 245.343 209.48 245.223 207.66H253.043V207.28C253.043 204.38 251.323 202.1 248.403 202.1C245.643 202.1 243.643 204.36 243.643 207.16C243.643 210.18 245.703 212.24 248.563 212.24ZM251.563 206.56H245.223C245.303 205.08 246.323 203.34 248.383 203.34C250.583 203.34 251.543 205.12 251.563 206.56ZM258.533 212.24C261.033 212.24 262.333 210.94 262.333 209.32C262.333 205.56 256.353 206.96 256.353 204.84C256.353 203.98 257.173 203.32 258.493 203.32C259.733 203.32 260.793 203.84 261.373 204.54L262.073 203.5C261.293 202.72 260.133 202.1 258.493 202.1C256.193 202.1 254.893 203.38 254.893 204.88C254.893 208.46 260.873 207.02 260.873 209.36C260.873 210.32 260.073 211.02 258.593 211.02C257.273 211.02 256.053 210.38 255.413 209.64L254.633 210.72C255.613 211.76 256.953 212.24 258.533 212.24ZM14.6 260V246.66H12.94V257.08L5.26 246.66H3.56V260H5.22V249.36L13 260H14.6ZM21.8802 260.24C24.8202 260.24 26.6602 257.96 26.6602 255.16C26.6602 252.36 24.8202 250.1 21.8802 250.1C18.9402 250.1 17.1002 252.36 17.1002 255.16C17.1002 257.96 18.9402 260.24 21.8802 260.24ZM21.8802 258.9C19.8202 258.9 18.6602 257.14 18.6602 255.16C18.6602 253.2 19.8202 251.44 21.8802 251.44C23.9402 251.44 25.0802 253.2 25.0802 255.16C25.0802 257.14 23.9402 258.9 21.8802 258.9ZM38.5217 260.24C40.2817 260.24 41.3217 259.52 42.0617 258.56L41.0617 257.64C40.4217 258.5 39.6017 258.9 38.6017 258.9C36.5417 258.9 35.2617 257.3 35.2617 255.16C35.2617 253.02 36.5417 251.44 38.6017 251.44C39.6017 251.44 40.4217 251.82 41.0617 252.7L42.0617 251.78C41.3217 250.82 40.2817 250.1 38.5217 250.1C35.6417 250.1 33.7017 252.3 33.7017 255.16C33.7017 258.04 35.6417 260.24 38.5217 260.24ZM48.3841 260.24C51.3241 260.24 53.1641 257.96 53.1641 255.16C53.1641 252.36 51.3241 250.1 48.3841 250.1C45.4441 250.1 43.6041 252.36 43.6041 255.16C43.6041 257.96 45.4441 260.24 48.3841 260.24ZM48.3841 258.9C46.3241 258.9 45.1641 257.14 45.1641 255.16C45.1641 253.2 46.3241 251.44 48.3841 251.44C50.4441 251.44 51.5841 253.2 51.5841 255.16C51.5841 257.14 50.4441 258.9 48.3841 258.9ZM63.6294 260V253.22C63.6294 251.12 62.5694 250.1 60.5494 250.1C59.1094 250.1 57.7894 250.94 57.1094 251.74V250.34H55.6094V260H57.1094V252.94C57.6694 252.16 58.7894 251.44 59.9694 251.44C61.2694 251.44 62.1294 251.98 62.1294 253.68V260H63.6294ZM74.645 260V253.22C74.645 251.12 73.585 250.1 71.565 250.1C70.125 250.1 68.805 250.94 68.125 251.74V250.34H66.625V260H68.125V252.94C68.685 252.16 69.805 251.44 70.985 251.44C72.285 251.44 73.145 251.98 73.145 253.68V260H74.645ZM82.0006 260.24C83.5806 260.24 84.8806 259.72 85.8406 258.76L85.1206 257.78C84.3606 258.56 83.2406 259 82.1406 259C80.0606 259 78.7806 257.48 78.6606 255.66H86.4806V255.28C86.4806 252.38 84.7606 250.1 81.8406 250.1C79.0806 250.1 77.0806 252.36 77.0806 255.16C77.0806 258.18 79.1406 260.24 82.0006 260.24ZM85.0006 254.56H78.6606C78.7406 253.08 79.7606 251.34 81.8206 251.34C84.0206 251.34 84.9806 253.12 85.0006 254.56ZM93.1702 260.24C94.9302 260.24 95.9702 259.52 96.7102 258.56L95.7102 257.64C95.0702 258.5 94.2502 258.9 93.2502 258.9C91.1902 258.9 89.9102 257.3 89.9102 255.16C89.9102 253.02 91.1902 251.44 93.2502 251.44C94.2502 251.44 95.0702 251.82 95.7102 252.7L96.7102 251.78C95.9702 250.82 94.9302 250.1 93.1702 250.1C90.2902 250.1 88.3502 252.3 88.3502 255.16C88.3502 258.04 90.2902 260.24 93.1702 260.24ZM101.253 260.24C102.133 260.24 102.673 259.98 103.053 259.62L102.613 258.5C102.413 258.72 102.013 258.9 101.593 258.9C100.933 258.9 100.613 258.38 100.613 257.66V251.66H102.573V250.34H100.613V247.7H99.1125V250.34H97.5125V251.66H99.1125V257.98C99.1125 259.42 99.8325 260.24 101.253 260.24ZM108.911 260.24C111.851 260.24 113.691 257.96 113.691 255.16C113.691 252.36 111.851 250.1 108.911 250.1C105.971 250.1 104.131 252.36 104.131 255.16C104.131 257.96 105.971 260.24 108.911 260.24ZM108.911 258.9C106.851 258.9 105.691 257.14 105.691 255.16C105.691 253.2 106.851 251.44 108.911 251.44C110.971 251.44 112.111 253.2 112.111 255.16C112.111 257.14 110.971 258.9 108.911 258.9ZM117.637 260V253.16C118.077 252.38 119.337 251.62 120.257 251.62C120.497 251.62 120.677 251.64 120.857 251.68V250.14C119.537 250.14 118.417 250.88 117.637 251.9V250.34H116.137V260H117.637ZM125.798 260.24C128.298 260.24 129.598 258.94 129.598 257.32C129.598 253.56 123.618 254.96 123.618 252.84C123.618 251.98 124.438 251.32 125.758 251.32C126.998 251.32 128.058 251.84 128.638 252.54L129.338 251.5C128.558 250.72 127.398 250.1 125.758 250.1C123.458 250.1 122.158 251.38 122.158 252.88C122.158 256.46 128.138 255.02 128.138 257.36C128.138 258.32 127.338 259.02 125.858 259.02C124.538 259.02 123.318 258.38 122.678 257.64L121.898 258.72C122.878 259.76 124.218 260.24 125.798 260.24ZM139.631 260.24C140.511 260.24 141.051 259.98 141.431 259.62L140.991 258.5C140.791 258.72 140.391 258.9 139.971 258.9C139.311 258.9 138.991 258.38 138.991 257.66V251.66H140.951V250.34H138.991V247.7H137.491V250.34H135.891V251.66H137.491V257.98C137.491 259.42 138.211 260.24 139.631 260.24ZM147.29 260.24C150.23 260.24 152.07 257.96 152.07 255.16C152.07 252.36 150.23 250.1 147.29 250.1C144.35 250.1 142.51 252.36 142.51 255.16C142.51 257.96 144.35 260.24 147.29 260.24ZM147.29 258.9C145.23 258.9 144.07 257.14 144.07 255.16C144.07 253.2 145.23 251.44 147.29 251.44C149.35 251.44 150.49 253.2 150.49 255.16C150.49 257.14 149.35 258.9 147.29 258.9ZM161.392 260V253.92H168.332V252.44H161.392V248.14H168.472V246.66H159.732V260H161.392ZM178.208 260V253.36C178.208 251.02 176.508 250.1 174.468 250.1C172.888 250.1 171.648 250.62 170.608 251.7L171.308 252.74C172.168 251.82 173.108 251.4 174.268 251.4C175.668 251.4 176.708 252.14 176.708 253.44V255.18C175.928 254.28 174.828 253.86 173.508 253.86C171.868 253.86 170.128 254.88 170.128 257.04C170.128 259.14 171.868 260.24 173.508 260.24C174.808 260.24 175.908 259.78 176.708 258.9V260H178.208ZM174.048 259.16C172.648 259.16 171.668 258.28 171.668 257.06C171.668 255.82 172.648 254.94 174.048 254.94C175.108 254.94 176.128 255.34 176.708 256.14V257.96C176.128 258.76 175.108 259.16 174.048 259.16ZM185.475 260.24C187.235 260.24 188.275 259.52 189.015 258.56L188.015 257.64C187.375 258.5 186.555 258.9 185.555 258.9C183.495 258.9 182.215 257.3 182.215 255.16C182.215 253.02 183.495 251.44 185.555 251.44C186.555 251.44 187.375 251.82 188.015 252.7L189.015 251.78C188.275 250.82 187.235 250.1 185.475 250.1C182.595 250.1 180.655 252.3 180.655 255.16C180.655 258.04 182.595 260.24 185.475 260.24ZM195.477 260.24C197.057 260.24 198.357 259.72 199.317 258.76L198.597 257.78C197.837 258.56 196.717 259 195.617 259C193.537 259 192.257 257.48 192.137 255.66H199.957V255.28C199.957 252.38 198.237 250.1 195.317 250.1C192.557 250.1 190.557 252.36 190.557 255.16C190.557 258.18 192.617 260.24 195.477 260.24ZM198.477 254.56H192.137C192.217 253.08 193.237 251.34 195.297 251.34C197.497 251.34 198.457 253.12 198.477 254.56ZM203.887 257.38V253C204.407 252.16 205.587 251.44 206.767 251.44C208.727 251.44 209.887 253.04 209.887 255.18C209.887 257.32 208.727 258.9 206.767 258.9C205.587 258.9 204.407 258.22 203.887 257.38ZM203.887 260V258.56C204.607 259.54 205.787 260.24 207.147 260.24C209.667 260.24 211.447 258.32 211.447 255.18C211.447 252.1 209.667 250.1 207.147 250.1C205.827 250.1 204.667 250.74 203.887 251.8V246.66H202.387V260H203.887ZM218.111 260.24C221.051 260.24 222.891 257.96 222.891 255.16C222.891 252.36 221.051 250.1 218.111 250.1C215.171 250.1 213.331 252.36 213.331 255.16C213.331 257.96 215.171 260.24 218.111 260.24ZM218.111 258.9C216.051 258.9 214.891 257.14 214.891 255.16C214.891 253.2 216.051 251.44 218.111 251.44C220.171 251.44 221.311 253.2 221.311 255.16C221.311 257.14 220.171 258.9 218.111 258.9ZM229.556 260.24C232.496 260.24 234.336 257.96 234.336 255.16C234.336 252.36 232.496 250.1 229.556 250.1C226.616 250.1 224.776 252.36 224.776 255.16C224.776 257.96 226.616 260.24 229.556 260.24ZM229.556 258.9C227.496 258.9 226.336 257.14 226.336 255.16C226.336 253.2 227.496 251.44 229.556 251.44C231.616 251.44 232.756 253.2 232.756 255.16C232.756 257.14 231.616 258.9 229.556 258.9ZM245.281 260L240.981 254.72L245.261 250.34H243.361L238.281 255.48V246.66H236.781V260H238.281V257.24L239.881 255.66L243.361 260H245.281ZM249.075 259.52C249.075 258.56 248.475 258 247.815 258C247.215 258 246.755 258.5 246.755 259.08C246.755 259.68 247.155 260.1 247.715 260.1C247.815 260.1 247.955 260.08 247.995 260.06C247.915 260.72 247.335 261.5 246.695 261.92L247.435 262.54C248.355 261.88 249.075 260.74 249.075 259.52ZM9.88 284.26C12.06 284.26 13.88 283.34 15.12 281.96V277.14H8.88V278.62H13.46V281.34C12.8 282 11.48 282.78 9.88 282.78C6.96 282.78 4.74 280.5 4.74 277.34C4.74 274.16 6.96 271.92 9.88 271.92C11.48 271.92 12.9 272.68 13.74 273.76L15.06 272.94C13.88 271.48 12.24 270.44 9.88 270.44C6.08 270.44 3.02 273.2 3.02 277.34C3.02 281.48 6.08 284.26 9.88 284.26ZM21.9778 284.24C24.9178 284.24 26.7578 281.96 26.7578 279.16C26.7578 276.36 24.9178 274.1 21.9778 274.1C19.0378 274.1 17.1978 276.36 17.1978 279.16C17.1978 281.96 19.0378 284.24 21.9778 284.24ZM21.9778 282.9C19.9178 282.9 18.7578 281.14 18.7578 279.16C18.7578 277.2 19.9178 275.44 21.9778 275.44C24.0378 275.44 25.1778 277.2 25.1778 279.16C25.1778 281.14 24.0378 282.9 21.9778 282.9ZM33.4231 284.24C36.3631 284.24 38.2031 281.96 38.2031 279.16C38.2031 276.36 36.3631 274.1 33.4231 274.1C30.4831 274.1 28.6431 276.36 28.6431 279.16C28.6431 281.96 30.4831 284.24 33.4231 284.24ZM33.4231 282.9C31.3631 282.9 30.2031 281.14 30.2031 279.16C30.2031 277.2 31.3631 275.44 33.4231 275.44C35.4831 275.44 36.6231 277.2 36.6231 279.16C36.6231 281.14 35.4831 282.9 33.4231 282.9ZM44.5284 287.92C46.8884 287.92 49.1284 286.92 49.1284 283.72V274.34H47.6284V275.8C46.8484 274.74 45.6884 274.1 44.3884 274.1C41.8484 274.1 40.0884 276.02 40.0884 279.12C40.0884 282.24 41.8684 284.12 44.3884 284.12C45.7484 284.12 46.9284 283.38 47.6284 282.4V283.78C47.6284 285.9 46.1284 286.68 44.5284 286.68C43.1484 286.68 42.1884 286.32 41.3884 285.36L40.6284 286.48C41.7684 287.6 42.8884 287.92 44.5284 287.92ZM44.7484 282.8C42.8084 282.8 41.6484 281.24 41.6484 279.12C41.6484 276.98 42.8084 275.44 44.7484 275.44C45.9484 275.44 47.1084 276.16 47.6284 277V281.22C47.1084 282.06 45.9484 282.8 44.7484 282.8ZM53.6328 284V270.66H52.1328V284H53.6328ZM60.985 284.24C62.565 284.24 63.865 283.72 64.825 282.76L64.105 281.78C63.345 282.56 62.225 283 61.125 283C59.045 283 57.765 281.48 57.645 279.66H65.465V279.28C65.465 276.38 63.745 274.1 60.825 274.1C58.065 274.1 56.065 276.36 56.065 279.16C56.065 282.18 58.125 284.24 60.985 284.24ZM63.985 278.56H57.645C57.725 277.08 58.745 275.34 60.805 275.34C63.005 275.34 63.965 277.12 63.985 278.56ZM69.7778 283.52C69.7778 282.56 69.1778 282 68.5178 282C67.9178 282 67.4578 282.5 67.4578 283.08C67.4578 283.68 67.8578 284.1 68.4178 284.1C68.5178 284.1 68.6578 284.08 68.6978 284.06C68.6178 284.72 68.0378 285.5 67.3978 285.92L68.1378 286.54C69.0578 285.88 69.7778 284.74 69.7778 283.52ZM81.9034 284.24C85.5034 284.24 86.8234 282.26 86.8234 280.32C86.8234 275.34 78.9234 277.06 78.9234 274.06C78.9234 272.8 80.0634 271.94 81.6634 271.94C83.1234 271.94 84.5234 272.44 85.5234 273.54L86.5234 272.32C85.4034 271.14 83.8234 270.46 81.7834 270.46C79.1634 270.46 77.2034 271.96 77.2034 274.16C77.2034 278.92 85.1034 277.02 85.1034 280.46C85.1034 281.48 84.3434 282.76 81.9634 282.76C80.0834 282.76 78.6434 281.84 77.7634 280.86L76.7834 282.12C77.8834 283.36 79.5834 284.24 81.9034 284.24ZM91.3502 284.24C92.2302 284.24 92.7702 283.98 93.1502 283.62L92.7102 282.5C92.5102 282.72 92.1102 282.9 91.6902 282.9C91.0302 282.9 90.7102 282.38 90.7102 281.66V275.66H92.6702V274.34H90.7102V271.7H89.2102V274.34H87.6102V275.66H89.2102V281.98C89.2102 283.42 89.9302 284.24 91.3502 284.24ZM96.2891 284V277.16C96.7291 276.38 97.9891 275.62 98.9091 275.62C99.1491 275.62 99.3291 275.64 99.5091 275.68V274.14C98.1891 274.14 97.0691 274.88 96.2891 275.9V274.34H94.7891V284H96.2891ZM102.131 272.96C102.691 272.96 103.151 272.52 103.151 271.96C103.151 271.4 102.691 270.94 102.131 270.94C101.591 270.94 101.131 271.4 101.131 271.96C101.131 272.52 101.591 272.96 102.131 272.96ZM102.891 284V274.34H101.391V284H102.891ZM110.643 284.24C113.183 284.24 114.943 282.28 114.943 279.16C114.943 276.02 113.183 274.1 110.643 274.1C109.283 274.1 108.083 274.8 107.383 275.78V274.34H105.883V287.68H107.383V282.54C108.163 283.62 109.323 284.24 110.643 284.24ZM110.263 282.9C109.083 282.9 107.903 282.18 107.383 281.34V276.98C107.903 276.14 109.083 275.44 110.263 275.44C112.203 275.44 113.363 277.02 113.363 279.16C113.363 281.3 112.203 282.9 110.263 282.9ZM121.688 284.24C123.268 284.24 124.568 283.72 125.528 282.76L124.808 281.78C124.048 282.56 122.928 283 121.828 283C119.748 283 118.468 281.48 118.348 279.66H126.168V279.28C126.168 276.38 124.448 274.1 121.528 274.1C118.768 274.1 116.768 276.36 116.768 279.16C116.768 282.18 118.828 284.24 121.688 284.24ZM124.688 278.56H118.348C118.428 277.08 119.448 275.34 121.508 275.34C123.708 275.34 124.668 277.12 124.688 278.56ZM130.481 283.52C130.481 282.56 129.881 282 129.221 282C128.621 282 128.161 282.5 128.161 283.08C128.161 283.68 128.561 284.1 129.121 284.1C129.221 284.1 129.361 284.08 129.401 284.06C129.321 284.72 128.741 285.5 128.101 285.92L128.841 286.54C129.761 285.88 130.481 284.74 130.481 283.52ZM151.347 284V270.66H148.967L144.807 280.7L140.667 270.66H138.287V284H139.947V273.02L144.467 284H145.147L149.687 273.02V284H151.347ZM161.938 284V277.36C161.938 275.02 160.238 274.1 158.198 274.1C156.618 274.1 155.378 274.62 154.338 275.7L155.038 276.74C155.898 275.82 156.838 275.4 157.998 275.4C159.398 275.4 160.438 276.14 160.438 277.44V279.18C159.658 278.28 158.558 277.86 157.238 277.86C155.598 277.86 153.858 278.88 153.858 281.04C153.858 283.14 155.598 284.24 157.238 284.24C158.538 284.24 159.638 283.78 160.438 282.9V284H161.938ZM157.778 283.16C156.378 283.16 155.398 282.28 155.398 281.06C155.398 279.82 156.378 278.94 157.778 278.94C158.838 278.94 159.858 279.34 160.438 280.14V281.96C159.858 282.76 158.838 283.16 157.778 283.16ZM165.685 272.96C166.245 272.96 166.705 272.52 166.705 271.96C166.705 271.4 166.245 270.94 165.685 270.94C165.145 270.94 164.685 271.4 164.685 271.96C164.685 272.52 165.145 272.96 165.685 272.96ZM166.445 284V274.34H164.945V284H166.445ZM170.938 284V270.66H169.438V284H170.938ZM178.19 284.24C179.95 284.24 180.99 283.52 181.73 282.56L180.73 281.64C180.09 282.5 179.27 282.9 178.27 282.9C176.21 282.9 174.93 281.3 174.93 279.16C174.93 277.02 176.21 275.44 178.27 275.44C179.27 275.44 180.09 275.82 180.73 276.7L181.73 275.78C180.99 274.82 179.95 274.1 178.19 274.1C175.31 274.1 173.37 276.3 173.37 279.16C173.37 282.04 175.31 284.24 178.19 284.24ZM191.872 284V277.18C191.872 275.08 190.812 274.1 188.792 274.1C187.332 274.1 186.012 274.94 185.332 275.74V270.66H183.832V284H185.332V276.94C185.912 276.16 187.032 275.44 188.192 275.44C189.492 275.44 190.372 275.94 190.372 277.64V284H191.872ZM195.607 272.96C196.167 272.96 196.627 272.52 196.627 271.96C196.627 271.4 196.167 270.94 195.607 270.94C195.067 270.94 194.607 271.4 194.607 271.96C194.607 272.52 195.067 272.96 195.607 272.96ZM196.367 284V274.34H194.867V284H196.367ZM212.519 284V277.02C212.519 275.08 211.579 274.1 209.819 274.1C208.419 274.1 207.119 275.02 206.579 275.9C206.299 274.9 205.459 274.1 203.979 274.1C202.559 274.1 201.259 275.12 200.859 275.74V274.34H199.359V284H200.859V276.94C201.379 276.16 202.419 275.44 203.399 275.44C204.659 275.44 205.179 276.22 205.179 277.44V284H206.679V276.92C207.179 276.16 208.239 275.44 209.239 275.44C210.479 275.44 211.019 276.22 211.019 277.44V284H212.519ZM220.272 284.24C222.812 284.24 224.572 282.28 224.572 279.16C224.572 276.02 222.812 274.1 220.272 274.1C218.912 274.1 217.712 274.8 217.012 275.78V274.34H215.512V287.68H217.012V282.54C217.792 283.62 218.952 284.24 220.272 284.24ZM219.892 282.9C218.712 282.9 217.532 282.18 217.012 281.34V276.98C217.532 276.14 218.712 275.44 219.892 275.44C221.832 275.44 222.992 277.02 222.992 279.16C222.992 281.3 221.832 282.9 219.892 282.9ZM228.84 283.52C228.84 282.56 228.24 282 227.58 282C226.98 282 226.52 282.5 226.52 283.08C226.52 283.68 226.92 284.1 227.48 284.1C227.58 284.1 227.72 284.08 227.76 284.06C227.68 284.72 227.1 285.5 226.46 285.92L227.2 286.54C228.12 285.88 228.84 284.74 228.84 283.52ZM240.806 284.24C243.746 284.24 245.586 281.96 245.586 279.16C245.586 276.36 243.746 274.1 240.806 274.1C237.866 274.1 236.026 276.36 236.026 279.16C236.026 281.96 237.866 284.24 240.806 284.24ZM240.806 282.9C238.746 282.9 237.586 281.14 237.586 279.16C237.586 277.2 238.746 275.44 240.806 275.44C242.866 275.44 244.006 277.2 244.006 279.16C244.006 281.14 242.866 282.9 240.806 282.9ZM249.531 284V277.16C249.971 276.38 251.231 275.62 252.151 275.62C252.391 275.62 252.571 275.64 252.751 275.68V274.14C251.431 274.14 250.311 274.88 249.531 275.9V274.34H248.031V284H249.531ZM259.249 287.78C259.529 287.86 260.029 287.92 260.349 287.92C261.629 287.9 262.609 287.36 263.189 285.96L268.029 274.34H266.389L263.189 282.26L259.969 274.34H258.349L262.389 284.1L261.749 285.56C261.409 286.36 260.969 286.58 260.309 286.58C260.069 286.58 259.709 286.52 259.489 286.42L259.249 287.78ZM273.814 284.24C276.754 284.24 278.594 281.96 278.594 279.16C278.594 276.36 276.754 274.1 273.814 274.1C270.874 274.1 269.034 276.36 269.034 279.16C269.034 281.96 270.874 284.24 273.814 284.24ZM273.814 282.9C271.754 282.9 270.594 281.14 270.594 279.16C270.594 277.2 271.754 275.44 273.814 275.44C275.874 275.44 277.014 277.2 277.014 279.16C277.014 281.14 275.874 282.9 273.814 282.9ZM289.059 284V274.34H287.559V281.44C286.999 282.22 285.879 282.9 284.699 282.9C283.399 282.9 282.539 282.4 282.539 280.7V274.34H281.039V281.16C281.039 283.26 282.099 284.24 284.119 284.24C285.559 284.24 286.819 283.48 287.559 282.64V284H289.059ZM293.555 284V277.16C293.995 276.38 295.255 275.62 296.175 275.62C296.415 275.62 296.595 275.64 296.775 275.68V274.14C295.455 274.14 294.335 274.88 293.555 275.9V274.34H292.055V284H293.555ZM8.12 308C12.26 308 14.96 305.14 14.96 301.34C14.96 297.56 12.26 294.66 8.12 294.66H3.56V308H8.12ZM8.12 306.52H5.22V296.14H8.12C11.42 296.14 13.24 298.46 13.24 301.34C13.24 304.2 11.36 306.52 8.12 306.52ZM25.0439 308V301.36C25.0439 299.02 23.3439 298.1 21.3039 298.1C19.7239 298.1 18.4839 298.62 17.4439 299.7L18.1439 300.74C19.0039 299.82 19.9439 299.4 21.1039 299.4C22.5039 299.4 23.5439 300.14 23.5439 301.44V303.18C22.7639 302.28 21.6639 301.86 20.3439 301.86C18.7039 301.86 16.9639 302.88 16.9639 305.04C16.9639 307.14 18.7039 308.24 20.3439 308.24C21.6439 308.24 22.7439 307.78 23.5439 306.9V308H25.0439ZM20.8839 307.16C19.4839 307.16 18.5039 306.28 18.5039 305.06C18.5039 303.82 19.4839 302.94 20.8839 302.94C21.9439 302.94 22.9639 303.34 23.5439 304.14V305.96C22.9639 306.76 21.9439 307.16 20.8839 307.16ZM30.4908 308.24C31.3708 308.24 31.9108 307.98 32.2908 307.62L31.8508 306.5C31.6508 306.72 31.2508 306.9 30.8308 306.9C30.1708 306.9 29.8508 306.38 29.8508 305.66V299.66H31.8108V298.34H29.8508V295.7H28.3508V298.34H26.7508V299.66H28.3508V305.98C28.3508 307.42 29.0708 308.24 30.4908 308.24ZM41.4697 308V301.36C41.4697 299.02 39.7697 298.1 37.7297 298.1C36.1497 298.1 34.9097 298.62 33.8697 299.7L34.5697 300.74C35.4297 299.82 36.3697 299.4 37.5297 299.4C38.9297 299.4 39.9697 300.14 39.9697 301.44V303.18C39.1897 302.28 38.0897 301.86 36.7697 301.86C35.1297 301.86 33.3897 302.88 33.3897 305.04C33.3897 307.14 35.1297 308.24 36.7697 308.24C38.0697 308.24 39.1697 307.78 39.9697 306.9V308H41.4697ZM37.3097 307.16C35.9097 307.16 34.9297 306.28 34.9297 305.06C34.9297 303.82 35.9097 302.94 37.3097 302.94C38.3697 302.94 39.3897 303.34 39.9697 304.14V305.96C39.3897 306.76 38.3697 307.16 37.3097 307.16ZM45.9766 305.38V301C46.4966 300.16 47.6766 299.44 48.8566 299.44C50.8166 299.44 51.9766 301.04 51.9766 303.18C51.9766 305.32 50.8166 306.9 48.8566 306.9C47.6766 306.9 46.4966 306.22 45.9766 305.38ZM45.9766 308V306.56C46.6966 307.54 47.8766 308.24 49.2366 308.24C51.7566 308.24 53.5366 306.32 53.5366 303.18C53.5366 300.1 51.7566 298.1 49.2366 298.1C47.9166 298.1 46.7566 298.74 45.9766 299.8V294.66H44.4766V308H45.9766ZM63.5205 308V301.36C63.5205 299.02 61.8205 298.1 59.7805 298.1C58.2005 298.1 56.9605 298.62 55.9205 299.7L56.6205 300.74C57.4805 299.82 58.4205 299.4 59.5805 299.4C60.9805 299.4 62.0205 300.14 62.0205 301.44V303.18C61.2405 302.28 60.1405 301.86 58.8205 301.86C57.1805 301.86 55.4405 302.88 55.4405 305.04C55.4405 307.14 57.1805 308.24 58.8205 308.24C60.1205 308.24 61.2205 307.78 62.0205 306.9V308H63.5205ZM59.3605 307.16C57.9605 307.16 56.9805 306.28 56.9805 305.06C56.9805 303.82 57.9605 302.94 59.3605 302.94C60.4205 302.94 61.4405 303.34 62.0205 304.14V305.96C61.4405 306.76 60.4205 307.16 59.3605 307.16ZM69.5873 308.24C72.0873 308.24 73.3873 306.94 73.3873 305.32C73.3873 301.56 67.4073 302.96 67.4073 300.84C67.4073 299.98 68.2273 299.32 69.5473 299.32C70.7873 299.32 71.8473 299.84 72.4273 300.54L73.1273 299.5C72.3473 298.72 71.1873 298.1 69.5473 298.1C67.2473 298.1 65.9473 299.38 65.9473 300.88C65.9473 304.46 71.9273 303.02 71.9273 305.36C71.9273 306.32 71.1273 307.02 69.6473 307.02C68.3273 307.02 67.1073 306.38 66.4673 305.64L65.6873 306.72C66.6673 307.76 68.0073 308.24 69.5873 308.24ZM80.1842 308.24C81.7642 308.24 83.0642 307.72 84.0242 306.76L83.3042 305.78C82.5442 306.56 81.4242 307 80.3242 307C78.2442 307 76.9642 305.48 76.8442 303.66H84.6642V303.28C84.6642 300.38 82.9442 298.1 80.0242 298.1C77.2642 298.1 75.2642 300.36 75.2642 303.16C75.2642 306.18 77.3242 308.24 80.1842 308.24ZM83.1842 302.56H76.8442C76.9242 301.08 77.9442 299.34 80.0042 299.34C82.2042 299.34 83.1642 301.12 83.1842 302.56ZM99.79 308V301.36C99.79 299.02 98.09 298.1 96.05 298.1C94.47 298.1 93.23 298.62 92.19 299.7L92.89 300.74C93.75 299.82 94.69 299.4 95.85 299.4C97.25 299.4 98.29 300.14 98.29 301.44V303.18C97.51 302.28 96.41 301.86 95.09 301.86C93.45 301.86 91.71 302.88 91.71 305.04C91.71 307.14 93.45 308.24 95.09 308.24C96.39 308.24 97.49 307.78 98.29 306.9V308H99.79ZM95.63 307.16C94.23 307.16 93.25 306.28 93.25 305.06C93.25 303.82 94.23 302.94 95.63 302.94C96.69 302.94 97.71 303.34 98.29 304.14V305.96C97.71 306.76 96.69 307.16 95.63 307.16ZM104.297 308V301.16C104.737 300.38 105.997 299.62 106.917 299.62C107.157 299.62 107.337 299.64 107.517 299.68V298.14C106.197 298.14 105.077 298.88 104.297 299.9V298.34H102.797V308H104.297ZM113.758 308.24C115.338 308.24 116.638 307.72 117.598 306.76L116.878 305.78C116.118 306.56 114.998 307 113.898 307C111.818 307 110.538 305.48 110.418 303.66H118.238V303.28C118.238 300.38 116.518 298.1 113.598 298.1C110.838 298.1 108.838 300.36 108.838 303.16C108.838 306.18 110.898 308.24 113.758 308.24ZM116.758 302.56H110.418C110.498 301.08 111.518 299.34 113.578 299.34C115.778 299.34 116.738 301.12 116.758 302.56ZM133.844 308V301.22C133.844 299.12 132.784 298.1 130.764 298.1C129.324 298.1 128.004 298.94 127.324 299.74V298.34H125.824V308H127.324V300.94C127.884 300.16 129.004 299.44 130.184 299.44C131.484 299.44 132.344 299.98 132.344 301.68V308H133.844ZM141.2 308.24C142.78 308.24 144.08 307.72 145.04 306.76L144.32 305.78C143.56 306.56 142.44 307 141.34 307C139.26 307 137.98 305.48 137.86 303.66H145.68V303.28C145.68 300.38 143.96 298.1 141.04 298.1C138.28 298.1 136.28 300.36 136.28 303.16C136.28 306.18 138.34 308.24 141.2 308.24ZM144.2 302.56H137.86C137.94 301.08 138.96 299.34 141.02 299.34C143.22 299.34 144.18 301.12 144.2 302.56ZM152.469 308.24C154.049 308.24 155.349 307.72 156.309 306.76L155.589 305.78C154.829 306.56 153.709 307 152.609 307C150.529 307 149.249 305.48 149.129 303.66H156.949V303.28C156.949 300.38 155.229 298.1 152.309 298.1C149.549 298.1 147.549 300.36 147.549 303.16C147.549 306.18 149.609 308.24 152.469 308.24ZM155.469 302.56H149.129C149.209 301.08 150.229 299.34 152.289 299.34C154.489 299.34 155.449 301.12 155.469 302.56ZM167.879 308V294.66H166.379V299.8C165.599 298.74 164.419 298.1 163.119 298.1C160.579 298.1 158.819 300.1 158.819 303.18C158.819 306.32 160.599 308.24 163.119 308.24C164.479 308.24 165.659 307.54 166.379 306.56V308H167.879ZM163.479 306.9C161.539 306.9 160.379 305.32 160.379 303.18C160.379 301.04 161.539 299.44 163.479 299.44C164.679 299.44 165.839 300.16 166.379 301V305.38C165.839 306.22 164.679 306.9 163.479 306.9ZM175.243 308.24C176.823 308.24 178.123 307.72 179.083 306.76L178.363 305.78C177.603 306.56 176.483 307 175.383 307C173.303 307 172.023 305.48 171.903 303.66H179.723V303.28C179.723 300.38 178.003 298.1 175.083 298.1C172.323 298.1 170.323 300.36 170.323 303.16C170.323 306.18 172.383 308.24 175.243 308.24ZM178.243 302.56H171.903C171.983 301.08 173.003 299.34 175.063 299.34C177.263 299.34 178.223 301.12 178.243 302.56ZM190.652 308V294.66H189.152V299.8C188.372 298.74 187.192 298.1 185.892 298.1C183.352 298.1 181.592 300.1 181.592 303.18C181.592 306.32 183.372 308.24 185.892 308.24C187.252 308.24 188.432 307.54 189.152 306.56V308H190.652ZM186.252 306.9C184.312 306.9 183.152 305.32 183.152 303.18C183.152 301.04 184.312 299.44 186.252 299.44C187.452 299.44 188.612 300.16 189.152 301V305.38C188.612 306.22 187.452 306.9 186.252 306.9ZM194.456 308.2C195.056 308.2 195.556 307.7 195.556 307.1C195.556 306.5 195.056 306 194.456 306C193.856 306 193.356 306.5 193.356 307.1C193.356 307.7 193.856 308.2 194.456 308.2ZM205.142 308V294.66H203.482V308H205.142ZM210.647 308.24C211.527 308.24 212.067 307.98 212.447 307.62L212.007 306.5C211.807 306.72 211.407 306.9 210.987 306.9C210.327 306.9 210.007 306.38 210.007 305.66V299.66H211.967V298.34H210.007V295.7H208.507V298.34H206.907V299.66H208.507V305.98C208.507 307.42 209.227 308.24 210.647 308.24ZM216.106 295.98C216.106 295 215.506 294.46 214.846 294.46C214.246 294.46 213.786 294.96 213.786 295.54C213.786 296.14 214.186 296.56 214.746 296.56C214.846 296.56 214.986 296.54 215.026 296.52C214.946 297.16 214.366 297.96 213.726 298.38L214.466 299C215.386 298.34 216.106 297.2 216.106 295.98ZM221.15 308.24C223.65 308.24 224.95 306.94 224.95 305.32C224.95 301.56 218.97 302.96 218.97 300.84C218.97 299.98 219.79 299.32 221.11 299.32C222.35 299.32 223.41 299.84 223.99 300.54L224.69 299.5C223.91 298.72 222.75 298.1 221.11 298.1C218.81 298.1 217.51 299.38 217.51 300.88C217.51 304.46 223.49 303.02 223.49 305.36C223.49 306.32 222.69 307.02 221.21 307.02C219.89 307.02 218.67 306.38 218.03 305.64L217.25 306.72C218.23 307.76 219.57 308.24 221.15 308.24ZM240.563 308V301.22C240.563 299.12 239.503 298.1 237.483 298.1C236.043 298.1 234.723 298.94 234.043 299.74V298.34H232.543V308H234.043V300.94C234.603 300.16 235.723 299.44 236.903 299.44C238.203 299.44 239.063 299.98 239.063 301.68V308H240.563ZM247.779 308.24C250.719 308.24 252.559 305.96 252.559 303.16C252.559 300.36 250.719 298.1 247.779 298.1C244.839 298.1 242.999 300.36 242.999 303.16C242.999 305.96 244.839 308.24 247.779 308.24ZM247.779 306.9C245.719 306.9 244.559 305.14 244.559 303.16C244.559 301.2 245.719 299.44 247.779 299.44C249.839 299.44 250.979 301.2 250.979 303.16C250.979 305.14 249.839 306.9 247.779 306.9ZM257.444 308.24C258.324 308.24 258.864 307.98 259.244 307.62L258.804 306.5C258.604 306.72 258.204 306.9 257.784 306.9C257.124 306.9 256.804 306.38 256.804 305.66V299.66H258.764V298.34H256.804V295.7H255.304V298.34H253.704V299.66H255.304V305.98C255.304 307.42 256.024 308.24 257.444 308.24ZM279.199 308V301.02C279.199 299.08 278.259 298.1 276.499 298.1C275.099 298.1 273.799 299.02 273.259 299.9C272.979 298.9 272.139 298.1 270.659 298.1C269.239 298.1 267.939 299.12 267.539 299.74V298.34H266.039V308H267.539V300.94C268.059 300.16 269.099 299.44 270.079 299.44C271.339 299.44 271.859 300.22 271.859 301.44V308H273.359V300.92C273.859 300.16 274.919 299.44 275.919 299.44C277.159 299.44 277.699 300.22 277.699 301.44V308H279.199ZM289.731 308V301.36C289.731 299.02 288.031 298.1 285.991 298.1C284.411 298.1 283.171 298.62 282.131 299.7L282.831 300.74C283.691 299.82 284.631 299.4 285.791 299.4C287.191 299.4 288.231 300.14 288.231 301.44V303.18C287.451 302.28 286.351 301.86 285.031 301.86C283.391 301.86 281.651 302.88 281.651 305.04C281.651 307.14 283.391 308.24 285.031 308.24C286.331 308.24 287.431 307.78 288.231 306.9V308H289.731ZM285.571 307.16C284.171 307.16 283.191 306.28 283.191 305.06C283.191 303.82 284.171 302.94 285.571 302.94C286.631 302.94 287.651 303.34 288.231 304.14V305.96C287.651 306.76 286.631 307.16 285.571 307.16ZM296.618 311.92C298.978 311.92 301.218 310.92 301.218 307.72V298.34H299.718V299.8C298.938 298.74 297.778 298.1 296.478 298.1C293.938 298.1 292.178 300.02 292.178 303.12C292.178 306.24 293.958 308.12 296.478 308.12C297.838 308.12 299.018 307.38 299.718 306.4V307.78C299.718 309.9 298.218 310.68 296.618 310.68C295.238 310.68 294.278 310.32 293.478 309.36L292.718 310.48C293.858 311.6 294.978 311.92 296.618 311.92ZM296.838 306.8C294.898 306.8 293.738 305.24 293.738 303.12C293.738 300.98 294.898 299.44 296.838 299.44C298.038 299.44 299.198 300.16 299.718 301V305.22C299.198 306.06 298.038 306.8 296.838 306.8ZM304.963 296.96C305.523 296.96 305.983 296.52 305.983 295.96C305.983 295.4 305.523 294.94 304.963 294.94C304.423 294.94 303.963 295.4 303.963 295.96C303.963 296.52 304.423 296.96 304.963 296.96ZM305.723 308V298.34H304.223V308H305.723ZM312.975 308.24C314.735 308.24 315.775 307.52 316.515 306.56L315.515 305.64C314.875 306.5 314.055 306.9 313.055 306.9C310.995 306.9 309.715 305.3 309.715 303.16C309.715 301.02 310.995 299.44 313.055 299.44C314.055 299.44 314.875 299.82 315.515 300.7L316.515 299.78C315.775 298.82 314.735 298.1 312.975 298.1C310.095 298.1 308.155 300.3 308.155 303.16C308.155 306.04 310.095 308.24 312.975 308.24ZM320.637 307.52C320.637 306.56 320.037 306 319.377 306C318.777 306 318.317 306.5 318.317 307.08C318.317 307.68 318.717 308.1 319.277 308.1C319.377 308.1 319.517 308.08 319.557 308.06C319.477 308.72 318.897 309.5 318.257 309.92L318.997 310.54C319.917 309.88 320.637 308.74 320.637 307.52ZM4.24 320.96C4.8 320.96 5.26 320.52 5.26 319.96C5.26 319.4 4.8 318.94 4.24 318.94C3.7 318.94 3.24 319.4 3.24 319.96C3.24 320.52 3.7 320.96 4.24 320.96ZM2.14 335.92C3.98 335.92 5 334.84 5 332.94V322.34H3.5V332.94C3.5 334.16 2.84 334.68 1.94 334.68C1.34 334.68 0.9 334.4 0.56 334.06L0.0199999 335.2C0.64 335.68 1.16 335.92 2.14 335.92ZM16.0122 332V322.34H14.5122V329.44C13.9522 330.22 12.8322 330.9 11.6522 330.9C10.3522 330.9 9.49219 330.4 9.49219 328.7V322.34H7.99219V329.16C7.99219 331.26 9.05219 332.24 11.0722 332.24C12.5122 332.24 13.7722 331.48 14.5122 330.64V332H16.0122ZM22.0678 332.24C24.5678 332.24 25.8678 330.94 25.8678 329.32C25.8678 325.56 19.8878 326.96 19.8878 324.84C19.8878 323.98 20.7078 323.32 22.0278 323.32C23.2678 323.32 24.3278 323.84 24.9078 324.54L25.6078 323.5C24.8278 322.72 23.6678 322.1 22.0278 322.1C19.7278 322.1 18.4278 323.38 18.4278 324.88C18.4278 328.46 24.4078 327.02 24.4078 329.36C24.4078 330.32 23.6078 331.02 22.1278 331.02C20.8078 331.02 19.5878 330.38 18.9478 329.64L18.1678 330.72C19.1478 331.76 20.4878 332.24 22.0678 332.24ZM30.7447 332.24C31.6247 332.24 32.1647 331.98 32.5447 331.62L32.1047 330.5C31.9047 330.72 31.5047 330.9 31.0847 330.9C30.4247 330.9 30.1047 330.38 30.1047 329.66V323.66H32.0647V322.34H30.1047V319.7H28.6047V322.34H27.0047V323.66H28.6047V329.98C28.6047 331.42 29.3247 332.24 30.7447 332.24ZM43.2198 335.92C45.5798 335.92 47.8198 334.92 47.8198 331.72V322.34H46.3198V323.8C45.5398 322.74 44.3798 322.1 43.0798 322.1C40.5398 322.1 38.7798 324.02 38.7798 327.12C38.7798 330.24 40.5598 332.12 43.0798 332.12C44.4398 332.12 45.6198 331.38 46.3198 330.4V331.78C46.3198 333.9 44.8198 334.68 43.2198 334.68C41.8398 334.68 40.8798 334.32 40.0798 333.36L39.3198 334.48C40.4598 335.6 41.5798 335.92 43.2198 335.92ZM43.4398 330.8C41.4998 330.8 40.3398 329.24 40.3398 327.12C40.3398 324.98 41.4998 323.44 43.4398 323.44C44.6398 323.44 45.7998 324.16 46.3198 325V329.22C45.7998 330.06 44.6398 330.8 43.4398 330.8ZM55.0442 332.24C57.9842 332.24 59.8242 329.96 59.8242 327.16C59.8242 324.36 57.9842 322.1 55.0442 322.1C52.1042 322.1 50.2642 324.36 50.2642 327.16C50.2642 329.96 52.1042 332.24 55.0442 332.24ZM55.0442 330.9C52.9842 330.9 51.8242 329.14 51.8242 327.16C51.8242 325.2 52.9842 323.44 55.0442 323.44C57.1042 323.44 58.2442 325.2 58.2442 327.16C58.2442 329.14 57.1042 330.9 55.0442 330.9ZM66.4895 332.24C69.4295 332.24 71.2695 329.96 71.2695 327.16C71.2695 324.36 69.4295 322.1 66.4895 322.1C63.5495 322.1 61.7095 324.36 61.7095 327.16C61.7095 329.96 63.5495 332.24 66.4895 332.24ZM66.4895 330.9C64.4295 330.9 63.2695 329.14 63.2695 327.16C63.2695 325.2 64.4295 323.44 66.4895 323.44C68.5495 323.44 69.6895 325.2 69.6895 327.16C69.6895 329.14 68.5495 330.9 66.4895 330.9ZM82.2148 332V318.66H80.7148V323.8C79.9348 322.74 78.7548 322.1 77.4548 322.1C74.9148 322.1 73.1548 324.1 73.1548 327.18C73.1548 330.32 74.9348 332.24 77.4548 332.24C78.8148 332.24 79.9948 331.54 80.7148 330.56V332H82.2148ZM77.8148 330.9C75.8748 330.9 74.7148 329.32 74.7148 327.18C74.7148 325.04 75.8748 323.44 77.8148 323.44C79.0148 323.44 80.1748 324.16 80.7148 325V329.38C80.1748 330.22 79.0148 330.9 77.8148 330.9ZM93.435 332.24C95.935 332.24 97.235 330.94 97.235 329.32C97.235 325.56 91.255 326.96 91.255 324.84C91.255 323.98 92.075 323.32 93.395 323.32C94.635 323.32 95.695 323.84 96.275 324.54L96.975 323.5C96.195 322.72 95.035 322.1 93.395 322.1C91.095 322.1 89.795 323.38 89.795 324.88C89.795 328.46 95.775 327.02 95.775 329.36C95.775 330.32 94.975 331.02 93.495 331.02C92.175 331.02 90.955 330.38 90.315 329.64L89.535 330.72C90.515 331.76 91.855 332.24 93.435 332.24ZM103.892 332.24C106.832 332.24 108.672 329.96 108.672 327.16C108.672 324.36 106.832 322.1 103.892 322.1C100.952 322.1 99.1119 324.36 99.1119 327.16C99.1119 329.96 100.952 332.24 103.892 332.24ZM103.892 330.9C101.832 330.9 100.672 329.14 100.672 327.16C100.672 325.2 101.832 323.44 103.892 323.44C105.952 323.44 107.092 325.2 107.092 327.16C107.092 329.14 105.952 330.9 103.892 330.9ZM113.037 332V323.66H114.997V322.34H113.037V321.6C113.037 320.38 113.577 319.7 114.557 319.7C115.057 319.7 115.437 319.9 115.757 320.18L116.377 319.2C115.777 318.64 115.097 318.46 114.337 318.46C112.617 318.46 111.537 319.62 111.537 321.6V322.34H109.937V323.66H111.537V332H113.037ZM119.221 332.24C120.101 332.24 120.641 331.98 121.021 331.62L120.581 330.5C120.381 330.72 119.981 330.9 119.561 330.9C118.901 330.9 118.581 330.38 118.581 329.66V323.66H120.541V322.34H118.581V319.7H117.081V322.34H115.481V323.66H117.081V329.98C117.081 331.42 117.801 332.24 119.221 332.24ZM132.52 332L135.6 322.34H134.04L131.68 330.04L129.14 322.34H127.86L125.32 330.04L122.96 322.34H121.4L124.48 332H125.98L128.5 324.24L131.02 332H132.52ZM144.888 332V325.36C144.888 323.02 143.188 322.1 141.148 322.1C139.568 322.1 138.328 322.62 137.288 323.7L137.988 324.74C138.848 323.82 139.788 323.4 140.948 323.4C142.348 323.4 143.388 324.14 143.388 325.44V327.18C142.608 326.28 141.508 325.86 140.188 325.86C138.548 325.86 136.808 326.88 136.808 329.04C136.808 331.14 138.548 332.24 140.188 332.24C141.488 332.24 142.588 331.78 143.388 330.9V332H144.888ZM140.728 331.16C139.328 331.16 138.348 330.28 138.348 329.06C138.348 327.82 139.328 326.94 140.728 326.94C141.788 326.94 142.808 327.34 143.388 328.14V329.96C142.808 330.76 141.788 331.16 140.728 331.16ZM149.395 332V325.16C149.835 324.38 151.095 323.62 152.015 323.62C152.255 323.62 152.435 323.64 152.615 323.68V322.14C151.295 322.14 150.175 322.88 149.395 323.9V322.34H147.895V332H149.395ZM158.856 332.24C160.436 332.24 161.736 331.72 162.696 330.76L161.976 329.78C161.216 330.56 160.096 331 158.996 331C156.916 331 155.636 329.48 155.516 327.66H163.336V327.28C163.336 324.38 161.616 322.1 158.696 322.1C155.936 322.1 153.936 324.36 153.936 327.16C153.936 330.18 155.996 332.24 158.856 332.24ZM161.856 326.56H155.516C155.596 325.08 156.616 323.34 158.676 323.34C160.876 323.34 161.836 325.12 161.856 326.56Z" fill="white"/>
<path d="M2.816 17.104C2.816 16.672 2.944 16.296 3.2 15.976L10.568 5.992H4.328C3.912 5.992 3.552 5.848 3.248 5.56C2.96 5.256 2.816 4.904 2.816 4.504C2.816 4.088 2.96 3.736 3.248 3.448C3.552 3.144 3.912 2.992 4.328 2.992H13.304C13.832 2.992 14.28 3.176 14.648 3.544C15.016 3.912 15.2 4.36 15.2 4.888C15.2 5.304 15.08 5.672 14.84 5.992L7.472 16H13.856C14.272 16 14.624 16.152 14.912 16.456C15.216 16.744 15.368 17.088 15.368 17.488C15.368 17.904 15.216 18.264 14.912 18.568C14.624 18.856 14.272 19 13.856 19H4.712C4.2 19 3.752 18.816 3.368 18.448C3 18.08 2.816 17.632 2.816 17.104ZM22.9711 7.12C24.6351 7.12 26.0191 7.672 27.1231 8.776C28.2271 9.864 28.7791 11.184 28.7791 12.736C28.7791 13.696 28.1791 14.176 26.9791 14.176H20.1631C20.2591 14.96 20.6031 15.608 21.1951 16.12C21.8031 16.616 22.5711 16.864 23.4991 16.864C24.2991 16.864 25.0831 16.648 25.8511 16.216C26.0111 16.12 26.2031 16.072 26.4271 16.072C26.7471 16.072 27.0271 16.192 27.2671 16.432C27.5071 16.672 27.6271 16.952 27.6271 17.272C27.6271 17.736 27.4111 18.088 26.9791 18.328C25.8591 18.968 24.5871 19.288 23.1631 19.288C21.3711 19.288 19.8911 18.728 18.7231 17.608C17.5551 16.472 16.9711 15 16.9711 13.192C16.9711 11.496 17.5391 10.064 18.6751 8.896C19.8111 7.712 21.2431 7.12 22.9711 7.12ZM20.1151 12.112H25.8271C25.7791 11.392 25.5071 10.784 25.0111 10.288C24.5151 9.792 23.8351 9.544 22.9711 9.544C22.1551 9.544 21.4991 9.792 21.0031 10.288C20.5071 10.784 20.2111 11.392 20.1151 12.112ZM37.6048 7.576C37.8448 7.832 37.9648 8.16 37.9648 8.56C37.9648 8.96 37.8368 9.296 37.5808 9.568C37.3248 9.84 36.9728 10.008 36.5247 10.072C36.0608 10.12 35.5808 10.264 35.0848 10.504C34.6048 10.744 34.2528 11.024 34.0288 11.344V17.632C34.0288 18.048 33.8768 18.408 33.5728 18.712C33.2848 19.016 32.9328 19.168 32.5168 19.168C32.0848 19.168 31.7168 19.016 31.4128 18.712C31.1248 18.408 30.9808 18.048 30.9808 17.632V8.8C30.9808 8.368 31.1248 8 31.4128 7.696C31.7168 7.392 32.0768 7.24 32.4928 7.24C32.9248 7.24 33.2928 7.392 33.5968 7.696C33.9008 7.984 34.0528 8.344 34.0528 8.776L34.0288 8.992C34.6368 8.176 35.2688 7.64 35.9248 7.384C36.2608 7.256 36.5168 7.192 36.6928 7.192C37.0768 7.192 37.3808 7.32 37.6048 7.576ZM38.8852 13.192C38.8852 11.48 39.4452 10.04 40.5652 8.872C41.7012 7.704 43.1812 7.12 45.0052 7.12C46.8452 7.12 48.3252 7.704 49.4452 8.872C50.5812 10.04 51.1492 11.48 51.1492 13.192C51.1492 14.92 50.5812 16.368 49.4452 17.536C48.3252 18.704 46.8452 19.288 45.0052 19.288C43.1652 19.288 41.6852 18.704 40.5652 17.536C39.4452 16.368 38.8852 14.92 38.8852 13.192ZM47.9812 13.192C47.9812 12.232 47.7092 11.432 47.1652 10.792C46.6212 10.152 45.9012 9.832 45.0052 9.832C44.1092 9.832 43.3892 10.152 42.8452 10.792C42.3172 11.416 42.0532 12.216 42.0532 13.192C42.0532 14.168 42.3172 14.976 42.8452 15.616C43.3892 16.256 44.1092 16.576 45.0052 16.576C45.9012 16.576 46.6212 16.256 47.1652 15.616C47.7092 14.976 47.9812 14.168 47.9812 13.192ZM59.6231 17.176V4.792C59.6231 4.216 59.7751 3.776 60.0791 3.472C60.3991 3.152 60.8471 2.992 61.4231 2.992H65.9351C68.4471 2.992 70.4871 3.736 72.0551 5.224C73.6391 6.696 74.4311 8.624 74.4311 11.008C74.4311 13.392 73.6391 15.32 72.0551 16.792C70.4871 18.264 68.4471 19 65.9351 19H61.4231C60.8471 19 60.3991 18.848 60.0791 18.544C59.7751 18.224 59.6231 17.768 59.6231 17.176ZM63.0311 16H65.9351C67.4391 16 68.6471 15.52 69.5591 14.56C70.4871 13.6 70.9511 12.416 70.9511 11.008C70.9511 9.536 70.5111 8.336 69.6311 7.408C68.7351 6.464 67.5031 5.992 65.9351 5.992H63.0311V16ZM86.7856 11.512V17.584C86.7856 18.016 86.6336 18.392 86.3296 18.712C86.0416 19.016 85.6816 19.168 85.2496 19.168C84.8656 19.168 84.5216 19.04 84.2176 18.784C83.9296 18.528 83.7616 18.2 83.7136 17.8C82.8976 18.792 81.6816 19.288 80.0656 19.288C79.0096 19.288 78.0736 18.944 77.2576 18.256C76.4416 17.568 76.0336 16.632 76.0336 15.448C76.0336 14.248 76.4336 13.336 77.2336 12.712C78.0336 12.072 78.9776 11.752 80.0656 11.752C81.7456 11.752 82.9696 12.224 83.7376 13.168V11.56C83.7376 10.968 83.5056 10.496 83.0416 10.144C82.5776 9.792 81.9616 9.616 81.1936 9.616C80.3136 9.616 79.4576 9.872 78.6256 10.384C78.4496 10.496 78.2496 10.552 78.0256 10.552C77.7056 10.552 77.4336 10.44 77.2096 10.216C76.9856 9.976 76.8736 9.696 76.8736 9.376C76.8736 8.928 77.0576 8.592 77.4256 8.368C78.6896 7.536 80.1216 7.12 81.7216 7.12C83.2256 7.12 84.4416 7.464 85.3696 8.152C86.3136 8.856 86.7856 9.976 86.7856 11.512ZM83.7376 16.216V14.776C83.2416 14.104 82.4256 13.768 81.2896 13.768C80.6496 13.768 80.1216 13.928 79.7056 14.248C79.3056 14.568 79.1056 14.992 79.1056 15.52C79.1056 16.032 79.3056 16.448 79.7056 16.768C80.1216 17.072 80.6496 17.224 81.2896 17.224C82.4256 17.224 83.2416 16.888 83.7376 16.216ZM96.1929 17.848C96.1929 18.456 95.8889 18.856 95.2809 19.048C94.8489 19.208 94.3209 19.288 93.6969 19.288C92.6249 19.288 91.8089 19.016 91.2489 18.472C90.6889 17.928 90.4089 17.144 90.4089 16.12V10.072H89.6649C89.2969 10.072 88.9769 9.944 88.7049 9.688C88.4489 9.432 88.3209 9.12 88.3209 8.752C88.3209 8.384 88.4489 8.072 88.7049 7.816C88.9769 7.544 89.2969 7.408 89.6649 7.408H90.4089V5.608C90.4089 5.192 90.5609 4.832 90.8649 4.528C91.1689 4.224 91.5369 4.072 91.9689 4.072C92.3849 4.072 92.7369 4.224 93.0249 4.528C93.3289 4.832 93.4809 5.192 93.4809 5.608V7.408H94.6809C95.0489 7.408 95.3609 7.544 95.6169 7.816C95.8729 8.072 96.0009 8.384 96.0009 8.752C96.0009 9.104 95.8729 9.416 95.6169 9.688C95.3609 9.944 95.0489 10.072 94.6809 10.072H93.4809V15.304C93.4809 15.688 93.5689 16 93.7449 16.24C93.9369 16.464 94.1929 16.576 94.5129 16.576C94.5929 16.576 94.6889 16.568 94.8009 16.552C94.9129 16.536 94.9849 16.528 95.0169 16.528C95.3689 16.544 95.6489 16.68 95.8569 16.936C96.0809 17.176 96.1929 17.48 96.1929 17.848ZM107.926 11.512V17.584C107.926 18.016 107.774 18.392 107.47 18.712C107.182 19.016 106.822 19.168 106.39 19.168C106.006 19.168 105.662 19.04 105.358 18.784C105.07 18.528 104.902 18.2 104.854 17.8C104.038 18.792 102.822 19.288 101.206 19.288C100.15 19.288 99.2143 18.944 98.3983 18.256C97.5823 17.568 97.1743 16.632 97.1743 15.448C97.1743 14.248 97.5743 13.336 98.3743 12.712C99.1743 12.072 100.118 11.752 101.206 11.752C102.886 11.752 104.11 12.224 104.878 13.168V11.56C104.878 10.968 104.646 10.496 104.182 10.144C103.718 9.792 103.102 9.616 102.334 9.616C101.454 9.616 100.598 9.872 99.7663 10.384C99.5903 10.496 99.3903 10.552 99.1663 10.552C98.8463 10.552 98.5743 10.44 98.3503 10.216C98.1263 9.976 98.0143 9.696 98.0143 9.376C98.0143 8.928 98.1983 8.592 98.5663 8.368C99.8303 7.536 101.262 7.12 102.862 7.12C104.366 7.12 105.582 7.464 106.51 8.152C107.454 8.856 107.926 9.976 107.926 11.512ZM104.878 16.216V14.776C104.382 14.104 103.566 13.768 102.43 13.768C101.79 13.768 101.262 13.928 100.846 14.248C100.446 14.568 100.246 14.992 100.246 15.52C100.246 16.032 100.446 16.448 100.846 16.768C101.262 17.072 101.79 17.224 102.43 17.224C103.566 17.224 104.382 16.888 104.878 16.216ZM116.394 11.008C116.362 8.64 117.17 6.664 118.818 5.08C120.466 3.48 122.458 2.696 124.794 2.728C127.162 2.728 129.066 3.52 130.506 5.104C130.778 5.376 130.914 5.736 130.914 6.184C130.914 6.632 130.754 7.016 130.434 7.336C130.13 7.64 129.754 7.792 129.306 7.792C128.81 7.792 128.402 7.608 128.082 7.24C127.186 6.248 126.09 5.752 124.794 5.752C123.402 5.752 122.234 6.256 121.29 7.264C120.362 8.256 119.898 9.504 119.898 11.008C119.898 12.512 120.362 13.768 121.29 14.776C122.234 15.768 123.402 16.264 124.794 16.264C126.122 16.264 127.226 15.76 128.106 14.752C128.41 14.4 128.81 14.224 129.306 14.224C129.754 14.224 130.13 14.384 130.434 14.704C130.754 15.008 130.914 15.384 130.914 15.832C130.914 16.264 130.778 16.616 130.506 16.888C129.05 18.488 127.146 19.288 124.794 19.288C122.458 19.336 120.466 18.56 118.818 16.96C117.17 15.36 116.362 13.376 116.394 11.008ZM132.026 13.192C132.026 11.48 132.586 10.04 133.706 8.872C134.842 7.704 136.322 7.12 138.146 7.12C139.986 7.12 141.466 7.704 142.586 8.872C143.722 10.04 144.29 11.48 144.29 13.192C144.29 14.92 143.722 16.368 142.586 17.536C141.466 18.704 139.986 19.288 138.146 19.288C136.306 19.288 134.826 18.704 133.706 17.536C132.586 16.368 132.026 14.92 132.026 13.192ZM141.122 13.192C141.122 12.232 140.85 11.432 140.306 10.792C139.762 10.152 139.042 9.832 138.146 9.832C137.25 9.832 136.53 10.152 135.986 10.792C135.458 11.416 135.194 12.216 135.194 13.192C135.194 14.168 135.458 14.976 135.986 15.616C136.53 16.256 137.25 16.576 138.146 16.576C139.042 16.576 139.762 16.256 140.306 15.616C140.85 14.976 141.122 14.168 141.122 13.192ZM157.423 10.816V17.632C157.423 18.048 157.271 18.408 156.967 18.712C156.679 19.016 156.319 19.168 155.887 19.168C155.471 19.168 155.111 19.016 154.807 18.712C154.519 18.408 154.375 18.048 154.375 17.632V11.992C154.375 10.552 153.663 9.832 152.239 9.832C151.167 9.832 150.287 10.288 149.599 11.2V17.632C149.599 18.048 149.447 18.408 149.143 18.712C148.855 19.016 148.503 19.168 148.087 19.168C147.655 19.168 147.287 19.016 146.983 18.712C146.695 18.408 146.551 18.048 146.551 17.632V8.776C146.551 8.344 146.695 7.976 146.983 7.672C147.287 7.368 147.647 7.216 148.063 7.216C148.495 7.216 148.863 7.368 149.167 7.672C149.471 7.976 149.623 8.344 149.623 8.776V8.872C150.679 7.704 152.023 7.12 153.655 7.12C154.887 7.12 155.823 7.448 156.463 8.104C157.103 8.744 157.423 9.648 157.423 10.816ZM171.322 10.816V17.632C171.322 18.048 171.17 18.408 170.866 18.712C170.578 19.016 170.218 19.168 169.786 19.168C169.37 19.168 169.01 19.016 168.706 18.712C168.418 18.408 168.274 18.048 168.274 17.632V11.992C168.274 10.552 167.562 9.832 166.138 9.832C165.066 9.832 164.186 10.288 163.498 11.2V17.632C163.498 18.048 163.346 18.408 163.042 18.712C162.754 19.016 162.402 19.168 161.986 19.168C161.554 19.168 161.186 19.016 160.882 18.712C160.594 18.408 160.45 18.048 160.45 17.632V8.776C160.45 8.344 160.594 7.976 160.882 7.672C161.186 7.368 161.546 7.216 161.962 7.216C162.394 7.216 162.762 7.368 163.066 7.672C163.37 7.976 163.522 8.344 163.522 8.776V8.872C164.578 7.704 165.922 7.12 167.554 7.12C168.786 7.12 169.722 7.448 170.362 8.104C171.002 8.744 171.322 9.648 171.322 10.816ZM179.604 7.12C181.268 7.12 182.652 7.672 183.756 8.776C184.86 9.864 185.412 11.184 185.412 12.736C185.412 13.696 184.812 14.176 183.612 14.176H176.796C176.892 14.96 177.236 15.608 177.828 16.12C178.436 16.616 179.204 16.864 180.132 16.864C180.932 16.864 181.716 16.648 182.484 16.216C182.644 16.12 182.836 16.072 183.06 16.072C183.38 16.072 183.66 16.192 183.9 16.432C184.14 16.672 184.26 16.952 184.26 17.272C184.26 17.736 184.044 18.088 183.612 18.328C182.492 18.968 181.22 19.288 179.796 19.288C178.004 19.288 176.524 18.728 175.356 17.608C174.188 16.472 173.604 15 173.604 13.192C173.604 11.496 174.172 10.064 175.308 8.896C176.444 7.712 177.876 7.12 179.604 7.12ZM176.748 12.112H182.46C182.412 11.392 182.14 10.784 181.644 10.288C181.148 9.792 180.468 9.544 179.604 9.544C178.788 9.544 178.132 9.792 177.636 10.288C177.14 10.784 176.844 11.392 176.748 12.112ZM193.014 7.12C194.406 7.12 195.582 7.48 196.542 8.2C196.942 8.488 197.142 8.864 197.142 9.328C197.142 9.696 197.006 10.016 196.734 10.288C196.462 10.56 196.142 10.696 195.774 10.696C195.47 10.696 195.206 10.608 194.982 10.432C194.486 10.032 193.878 9.832 193.158 9.832C192.23 9.832 191.47 10.144 190.878 10.768C190.302 11.376 190.014 12.184 190.014 13.192C190.014 14.2 190.302 15.016 190.878 15.64C191.47 16.264 192.23 16.576 193.158 16.576C193.862 16.576 194.462 16.376 194.958 15.976C195.182 15.8 195.446 15.712 195.75 15.712C196.134 15.712 196.462 15.848 196.734 16.12C197.006 16.376 197.142 16.696 197.142 17.08C197.142 17.544 196.942 17.92 196.542 18.208C195.582 18.928 194.406 19.288 193.014 19.288C191.238 19.288 189.766 18.72 188.598 17.584C187.446 16.432 186.87 14.968 186.87 13.192C186.87 11.432 187.446 9.984 188.598 8.848C189.766 7.696 191.238 7.12 193.014 7.12ZM205.834 17.848C205.834 18.456 205.53 18.856 204.922 19.048C204.49 19.208 203.962 19.288 203.338 19.288C202.266 19.288 201.45 19.016 200.89 18.472C200.33 17.928 200.05 17.144 200.05 16.12V10.072H199.306C198.938 10.072 198.618 9.944 198.346 9.688C198.09 9.432 197.962 9.12 197.962 8.752C197.962 8.384 198.09 8.072 198.346 7.816C198.618 7.544 198.938 7.408 199.306 7.408H200.05V5.608C200.05 5.192 200.202 4.832 200.506 4.528C200.81 4.224 201.178 4.072 201.61 4.072C202.026 4.072 202.378 4.224 202.666 4.528C202.97 4.832 203.122 5.192 203.122 5.608V7.408H204.322C204.69 7.408 205.002 7.544 205.258 7.816C205.514 8.072 205.642 8.384 205.642 8.752C205.642 9.104 205.514 9.416 205.258 9.688C205.002 9.944 204.69 10.072 204.322 10.072H203.122V15.304C203.122 15.688 203.21 16 203.386 16.24C203.578 16.464 203.834 16.576 204.154 16.576C204.234 16.576 204.33 16.568 204.442 16.552C204.554 16.536 204.626 16.528 204.658 16.528C205.01 16.544 205.29 16.68 205.498 16.936C205.722 17.176 205.834 17.48 205.834 17.848ZM206.815 13.192C206.815 11.48 207.375 10.04 208.495 8.872C209.631 7.704 211.111 7.12 212.935 7.12C214.775 7.12 216.255 7.704 217.375 8.872C218.511 10.04 219.079 11.48 219.079 13.192C219.079 14.92 218.511 16.368 217.375 17.536C216.255 18.704 214.775 19.288 212.935 19.288C211.095 19.288 209.615 18.704 208.495 17.536C207.375 16.368 206.815 14.92 206.815 13.192ZM215.911 13.192C215.911 12.232 215.639 11.432 215.095 10.792C214.551 10.152 213.831 9.832 212.935 9.832C212.039 9.832 211.319 10.152 210.775 10.792C210.247 11.416 209.983 12.216 209.983 13.192C209.983 14.168 210.247 14.976 210.775 15.616C211.319 16.256 212.039 16.576 212.935 16.576C213.831 16.576 214.551 16.256 215.095 15.616C215.639 14.976 215.911 14.168 215.911 13.192ZM227.964 7.576C228.204 7.832 228.324 8.16 228.324 8.56C228.324 8.96 228.196 9.296 227.94 9.568C227.684 9.84 227.332 10.008 226.884 10.072C226.42 10.12 225.94 10.264 225.444 10.504C224.964 10.744 224.612 11.024 224.388 11.344V17.632C224.388 18.048 224.236 18.408 223.932 18.712C223.644 19.016 223.292 19.168 222.876 19.168C222.444 19.168 222.076 19.016 221.772 18.712C221.484 18.408 221.34 18.048 221.34 17.632V8.8C221.34 8.368 221.484 8 221.772 7.696C222.076 7.392 222.436 7.24 222.852 7.24C223.284 7.24 223.652 7.392 223.956 7.696C224.26 7.984 224.412 8.344 224.412 8.776L224.388 8.992C224.996 8.176 225.628 7.64 226.284 7.384C226.62 7.256 226.876 7.192 227.052 7.192C227.436 7.192 227.74 7.32 227.964 7.576ZM229.245 17.056C229.245 16.704 229.365 16.408 229.605 16.168C229.861 15.912 230.165 15.784 230.517 15.784C230.741 15.784 230.957 15.84 231.165 15.952C232.221 16.608 233.269 16.936 234.309 16.936C235.605 16.936 236.253 16.544 236.253 15.76C236.253 15.408 236.069 15.136 235.701 14.944C235.349 14.736 234.757 14.552 233.925 14.392C232.981 14.232 232.213 14.04 231.621 13.816C230.117 13.32 229.365 12.304 229.365 10.768C229.365 9.744 229.797 8.88 230.661 8.176C231.525 7.472 232.677 7.12 234.117 7.12C235.541 7.12 236.813 7.464 237.933 8.152C238.333 8.36 238.533 8.696 238.533 9.16C238.533 9.48 238.413 9.76 238.173 10C237.949 10.224 237.677 10.336 237.357 10.336C237.117 10.336 236.925 10.288 236.781 10.192C235.981 9.696 235.101 9.448 234.141 9.448C233.581 9.448 233.133 9.544 232.797 9.736C232.477 9.928 232.317 10.192 232.317 10.528C232.317 10.848 232.477 11.096 232.797 11.272C233.133 11.448 233.709 11.616 234.525 11.776C235.341 11.92 236.117 12.12 236.853 12.376C238.405 12.936 239.181 14 239.181 15.568C239.181 16.656 238.733 17.552 237.837 18.256C236.941 18.944 235.717 19.288 234.165 19.288C232.549 19.288 231.125 18.912 229.893 18.16C229.461 17.92 229.245 17.552 229.245 17.056Z" fill="#40A3FF"/>
<rect x="464" width="662" height="542" rx="30" fill="url(#paint0_linear)"/>
<path d="M642.8 95.4V92.92L627.72 85.64L642.8 78.32V75.8L625.16 84.56V86.68L642.8 95.4ZM663.041 99V85.36C663.041 81.16 660.921 79.2 656.881 79.2C653.961 79.2 651.321 80.88 649.961 82.48V72.32H646.961V99H649.961V84.88C651.121 83.32 653.361 81.88 655.681 81.88C658.281 81.88 660.041 82.88 660.041 86.28V99H663.041ZM673.911 99.48C675.671 99.48 676.751 98.96 677.511 98.24L676.631 96C676.231 96.44 675.431 96.8 674.591 96.8C673.271 96.8 672.631 95.76 672.631 94.32V82.32H676.551V79.68H672.631V74.4H669.631V79.68H666.431V82.32H669.631V94.96C669.631 97.84 671.071 99.48 673.911 99.48ZM707.109 99V85.04C707.109 81.16 705.229 79.2 701.709 79.2C698.909 79.2 696.309 81.04 695.229 82.8C694.669 80.8 692.989 79.2 690.029 79.2C687.189 79.2 684.589 81.24 683.789 82.48V79.68H680.789V99H683.789V84.88C684.829 83.32 686.909 81.88 688.869 81.88C691.389 81.88 692.429 83.44 692.429 85.88V99H695.429V84.84C696.429 83.32 698.549 81.88 700.549 81.88C703.029 81.88 704.109 83.44 704.109 85.88V99H707.109ZM716.094 99V72.32H713.094V99H716.094ZM737.878 86.68V84.56L720.238 75.8V78.32L735.278 85.64L720.238 92.92V95.4L737.878 86.68ZM673.738 155.4V152.92L658.658 145.64L673.738 138.32V135.8L656.098 144.56V146.68L673.738 155.4ZM693.978 159V145.36C693.978 141.16 691.858 139.2 687.818 139.2C684.898 139.2 682.258 140.88 680.898 142.48V132.32H677.898V159H680.898V144.88C682.058 143.32 684.298 141.88 686.618 141.88C689.218 141.88 690.978 142.88 690.978 146.28V159H693.978ZM708.689 159.48C711.849 159.48 714.449 158.44 716.369 156.52L714.929 154.56C713.409 156.12 711.169 157 708.969 157C704.809 157 702.249 153.96 702.009 150.32H717.649V149.56C717.649 143.76 714.209 139.2 708.369 139.2C702.849 139.2 698.849 143.72 698.849 149.32C698.849 155.36 702.969 159.48 708.689 159.48ZM714.689 148.12H702.009C702.169 145.16 704.209 141.68 708.329 141.68C712.729 141.68 714.649 145.24 714.689 148.12ZM737.588 159V145.72C737.588 141.04 734.188 139.2 730.108 139.2C726.948 139.2 724.468 140.24 722.388 142.4L723.788 144.48C725.508 142.64 727.388 141.8 729.708 141.8C732.508 141.8 734.588 143.28 734.588 145.88V149.36C733.028 147.56 730.828 146.72 728.188 146.72C724.908 146.72 721.428 148.76 721.428 153.08C721.428 157.28 724.908 159.48 728.188 159.48C730.788 159.48 732.988 158.56 734.588 156.8V159H737.588ZM729.268 157.32C726.468 157.32 724.508 155.56 724.508 153.12C724.508 150.64 726.468 148.88 729.268 148.88C731.388 148.88 733.428 149.68 734.588 151.28V154.92C733.428 156.52 731.388 157.32 729.268 157.32ZM760.602 159V132.32H757.602V142.6C756.042 140.48 753.682 139.2 751.082 139.2C746.002 139.2 742.482 143.2 742.482 149.36C742.482 155.64 746.042 159.48 751.082 159.48C753.802 159.48 756.162 158.08 757.602 156.12V159H760.602ZM751.802 156.8C747.922 156.8 745.602 153.64 745.602 149.36C745.602 145.08 747.922 141.88 751.802 141.88C754.202 141.88 756.522 143.32 757.602 145V153.76C756.522 155.44 754.202 156.8 751.802 156.8ZM782.409 146.68V144.56L764.769 135.8V138.32L779.809 145.64L764.769 152.92V155.4L782.409 146.68ZM704.675 215.4V212.92L689.595 205.64L704.675 198.32V195.8L687.035 204.56V206.68L704.675 215.4ZM714.956 219.48C719.956 219.48 722.556 216.88 722.556 213.64C722.556 206.12 710.596 208.92 710.596 204.68C710.596 202.96 712.236 201.64 714.876 201.64C717.356 201.64 719.476 202.68 720.636 204.08L722.036 202C720.476 200.44 718.156 199.2 714.876 199.2C710.276 199.2 707.676 201.76 707.676 204.76C707.676 211.92 719.636 209.04 719.636 213.72C719.636 215.64 718.036 217.04 715.076 217.04C712.436 217.04 709.996 215.76 708.716 214.28L707.156 216.44C709.116 218.52 711.796 219.48 714.956 219.48ZM735.95 219.48C739.47 219.48 741.55 218.04 743.03 216.12L741.03 214.28C739.75 216 738.11 216.8 736.11 216.8C731.99 216.8 729.43 213.6 729.43 209.32C729.43 205.04 731.99 201.88 736.11 201.88C738.11 201.88 739.75 202.64 741.03 204.4L743.03 202.56C741.55 200.64 739.47 199.2 735.95 199.2C730.19 199.2 726.31 203.6 726.31 209.32C726.31 215.08 730.19 219.48 735.95 219.48ZM750.234 219V205.32C751.114 203.76 753.634 202.24 755.474 202.24C755.954 202.24 756.314 202.28 756.674 202.36V199.28C754.034 199.28 751.794 200.76 750.234 202.8V199.68H747.234V219H750.234ZM761.918 196.92C763.038 196.92 763.958 196.04 763.958 194.92C763.958 193.8 763.038 192.88 761.918 192.88C760.838 192.88 759.918 193.8 759.918 194.92C759.918 196.04 760.838 196.92 761.918 196.92ZM763.438 219V199.68H760.438V219H763.438ZM778.942 219.48C784.022 219.48 787.542 215.56 787.542 209.32C787.542 203.04 784.022 199.2 778.942 199.2C776.222 199.2 773.822 200.6 772.422 202.56V199.68H769.422V226.36H772.422V216.08C773.982 218.24 776.302 219.48 778.942 219.48ZM778.182 216.8C775.822 216.8 773.462 215.36 772.422 213.68V204.96C773.462 203.28 775.822 201.88 778.182 201.88C782.062 201.88 784.382 205.04 784.382 209.32C784.382 213.6 782.062 216.8 778.182 216.8ZM797.193 219.48C798.953 219.48 800.033 218.96 800.793 218.24L799.913 216C799.513 216.44 798.713 216.8 797.873 216.8C796.553 216.8 795.913 215.76 795.913 214.32V202.32H799.833V199.68H795.913V194.4H792.913V199.68H789.713V202.32H792.913V214.96C792.913 217.84 794.353 219.48 797.193 219.48ZM819.87 206.68V204.56L802.23 195.8V198.32L817.27 205.64L802.23 212.92V215.4L819.87 206.68ZM688.235 279.8L697.715 251.52H695.355L685.875 279.8H688.235ZM700.071 279.8L709.551 251.52H707.191L697.711 279.8H700.071ZM731.619 279.48C738.819 279.48 741.459 275.52 741.459 271.64C741.459 261.68 725.659 265.12 725.659 259.12C725.659 256.6 727.939 254.88 731.139 254.88C734.059 254.88 736.859 255.88 738.859 258.08L740.859 255.64C738.619 253.28 735.459 251.92 731.379 251.92C726.139 251.92 722.219 254.92 722.219 259.32C722.219 268.84 738.019 265.04 738.019 271.92C738.019 273.96 736.499 276.52 731.739 276.52C727.979 276.52 725.099 274.68 723.339 272.72L721.379 275.24C723.579 277.72 726.979 279.48 731.619 279.48ZM761.377 279V265.72C761.377 261.04 757.977 259.2 753.897 259.2C750.737 259.2 748.257 260.24 746.177 262.4L747.577 264.48C749.297 262.64 751.177 261.8 753.497 261.8C756.297 261.8 758.377 263.28 758.377 265.88V269.36C756.817 267.56 754.617 266.72 751.977 266.72C748.697 266.72 745.217 268.76 745.217 273.08C745.217 277.28 748.697 279.48 751.977 279.48C754.577 279.48 756.777 278.56 758.377 276.8V279H761.377ZM753.057 277.32C750.257 277.32 748.297 275.56 748.297 273.12C748.297 270.64 750.257 268.88 753.057 268.88C755.177 268.88 757.217 269.68 758.377 271.28V274.92C757.217 276.52 755.177 277.32 753.057 277.32ZM783.431 279V265.44C783.431 261.24 781.311 259.2 777.271 259.2C774.391 259.2 771.751 260.88 770.391 262.48V259.68H767.391V279H770.391V264.88C771.511 263.32 773.751 261.88 776.111 261.88C778.711 261.88 780.431 262.96 780.431 266.36V279H783.431ZM806.422 279V252.32H803.422V262.6C801.862 260.48 799.502 259.2 796.902 259.2C791.822 259.2 788.302 263.2 788.302 269.36C788.302 275.64 791.862 279.48 796.902 279.48C799.622 279.48 801.982 278.08 803.422 276.12V279H806.422ZM797.622 276.8C793.742 276.8 791.422 273.64 791.422 269.36C791.422 265.08 793.742 261.88 797.622 261.88C800.022 261.88 802.342 263.32 803.422 265V273.76C802.342 275.44 800.022 276.8 797.622 276.8ZM815.43 273.76V265C816.47 263.32 818.83 261.88 821.19 261.88C825.11 261.88 827.43 265.08 827.43 269.36C827.43 273.64 825.11 276.8 821.19 276.8C818.83 276.8 816.47 275.44 815.43 273.76ZM815.43 279V276.12C816.87 278.08 819.23 279.48 821.95 279.48C826.99 279.48 830.55 275.64 830.55 269.36C830.55 263.2 826.99 259.2 821.95 259.2C819.31 259.2 816.99 260.48 815.43 262.6V252.32H812.43V279H815.43ZM843.878 279.48C849.758 279.48 853.438 274.92 853.438 269.32C853.438 263.72 849.758 259.2 843.878 259.2C837.998 259.2 834.318 263.72 834.318 269.32C834.318 274.92 837.998 279.48 843.878 279.48ZM843.878 276.8C839.758 276.8 837.438 273.28 837.438 269.32C837.438 265.4 839.758 261.88 843.878 261.88C847.998 261.88 850.278 265.4 850.278 269.32C850.278 273.28 847.998 276.8 843.878 276.8ZM872.844 279L865.404 269.08L872.404 259.68H868.924L863.564 267.04L858.204 259.68H854.724L861.724 269.08L854.324 279H857.764L863.564 271.08L869.364 279H872.844ZM895.369 279.48C902.569 279.48 905.209 275.52 905.209 271.64C905.209 261.68 889.409 265.12 889.409 259.12C889.409 256.6 891.689 254.88 894.889 254.88C897.809 254.88 900.609 255.88 902.609 258.08L904.609 255.64C902.369 253.28 899.209 251.92 895.129 251.92C889.889 251.92 885.969 254.92 885.969 259.32C885.969 268.84 901.769 265.04 901.769 271.92C901.769 273.96 900.249 276.52 895.489 276.52C891.729 276.52 888.849 274.68 887.089 272.72L885.129 275.24C887.329 277.72 890.729 279.48 895.369 279.48ZM926.087 279V265.44C926.087 261.24 923.967 259.2 919.927 259.2C917.047 259.2 914.407 260.88 913.047 262.48V259.68H910.047V279H913.047V264.88C914.167 263.32 916.407 261.88 918.767 261.88C921.367 261.88 923.087 262.96 923.087 266.36V279H926.087ZM933.558 256.92C934.678 256.92 935.598 256.04 935.598 254.92C935.598 253.8 934.678 252.88 933.558 252.88C932.478 252.88 931.558 253.8 931.558 254.92C931.558 256.04 932.478 256.92 933.558 256.92ZM935.078 279V259.68H932.078V279H935.078ZM950.583 279.48C955.663 279.48 959.182 275.56 959.182 269.32C959.182 263.04 955.663 259.2 950.583 259.2C947.863 259.2 945.463 260.6 944.063 262.56V259.68H941.063V286.36H944.063V276.08C945.623 278.24 947.943 279.48 950.583 279.48ZM949.822 276.8C947.463 276.8 945.103 275.36 944.063 273.68V264.96C945.103 263.28 947.463 261.88 949.822 261.88C953.703 261.88 956.023 265.04 956.023 269.32C956.023 273.6 953.703 276.8 949.822 276.8ZM973.473 279.48C978.553 279.48 982.073 275.56 982.073 269.32C982.073 263.04 978.553 259.2 973.473 259.2C970.753 259.2 968.353 260.6 966.953 262.56V259.68H963.953V286.36H966.953V276.08C968.513 278.24 970.833 279.48 973.473 279.48ZM972.713 276.8C970.353 276.8 967.993 275.36 966.953 273.68V264.96C967.993 263.28 970.353 261.88 972.713 261.88C976.593 261.88 978.913 265.04 978.913 269.32C978.913 273.6 976.593 276.8 972.713 276.8ZM995.564 279.48C998.724 279.48 1001.32 278.44 1003.24 276.52L1001.8 274.56C1000.28 276.12 998.044 277 995.844 277C991.684 277 989.124 273.96 988.884 270.32H1004.52V269.56C1004.52 263.76 1001.08 259.2 995.244 259.2C989.724 259.2 985.724 263.72 985.724 269.32C985.724 275.36 989.844 279.48 995.564 279.48ZM1001.56 268.12H988.884C989.044 265.16 991.084 261.68 995.204 261.68C999.604 261.68 1001.52 265.24 1001.56 268.12ZM1014.26 279.48C1016.02 279.48 1017.1 278.96 1017.86 278.24L1016.98 276C1016.58 276.44 1015.78 276.8 1014.94 276.8C1013.62 276.8 1012.98 275.76 1012.98 274.32V262.32H1016.9V259.68H1012.98V254.4H1009.98V259.68H1006.78V262.32H1009.98V274.96C1009.98 277.84 1011.42 279.48 1014.26 279.48ZM704.675 335.4V332.92L689.595 325.64L704.675 318.32V315.8L687.035 324.56V326.68L704.675 335.4ZM708.196 339.8L717.676 311.52H715.316L705.836 339.8H708.196ZM726.792 339.48C731.792 339.48 734.392 336.88 734.392 333.64C734.392 326.12 722.432 328.92 722.432 324.68C722.432 322.96 724.072 321.64 726.712 321.64C729.192 321.64 731.312 322.68 732.472 324.08L733.872 322C732.312 320.44 729.992 319.2 726.712 319.2C722.112 319.2 719.512 321.76 719.512 324.76C719.512 331.92 731.472 329.04 731.472 333.72C731.472 335.64 729.872 337.04 726.912 337.04C724.272 337.04 721.832 335.76 720.552 334.28L718.992 336.44C720.952 338.52 723.632 339.48 726.792 339.48ZM747.786 339.48C751.306 339.48 753.386 338.04 754.866 336.12L752.866 334.28C751.586 336 749.946 336.8 747.946 336.8C743.826 336.8 741.266 333.6 741.266 329.32C741.266 325.04 743.826 321.88 747.946 321.88C749.946 321.88 751.586 322.64 752.866 324.4L754.866 322.56C753.386 320.64 751.306 319.2 747.786 319.2C742.026 319.2 738.146 323.6 738.146 329.32C738.146 335.08 742.026 339.48 747.786 339.48ZM762.07 339V325.32C762.95 323.76 765.47 322.24 767.31 322.24C767.79 322.24 768.15 322.28 768.51 322.36V319.28C765.87 319.28 763.63 320.76 762.07 322.8V319.68H759.07V339H762.07ZM773.753 316.92C774.873 316.92 775.793 316.04 775.793 314.92C775.793 313.8 774.873 312.88 773.753 312.88C772.673 312.88 771.753 313.8 771.753 314.92C771.753 316.04 772.673 316.92 773.753 316.92ZM775.273 339V319.68H772.273V339H775.273ZM790.778 339.48C795.858 339.48 799.378 335.56 799.378 329.32C799.378 323.04 795.858 319.2 790.778 319.2C788.058 319.2 785.658 320.6 784.258 322.56V319.68H781.258V346.36H784.258V336.08C785.818 338.24 788.138 339.48 790.778 339.48ZM790.018 336.8C787.658 336.8 785.298 335.36 784.258 333.68V324.96C785.298 323.28 787.658 321.88 790.018 321.88C793.898 321.88 796.218 325.04 796.218 329.32C796.218 333.6 793.898 336.8 790.018 336.8ZM809.028 339.48C810.788 339.48 811.868 338.96 812.628 338.24L811.748 336C811.348 336.44 810.548 336.8 809.708 336.8C808.388 336.8 807.748 335.76 807.748 334.32V322.32H811.668V319.68H807.748V314.4H804.748V319.68H801.548V322.32H804.748V334.96C804.748 337.84 806.188 339.48 809.028 339.48ZM831.706 326.68V324.56L814.066 315.8V318.32L829.106 325.64L814.066 332.92V335.4L831.706 326.68ZM673.738 395.4V392.92L658.658 385.64L673.738 378.32V375.8L656.098 384.56V386.68L673.738 395.4ZM677.258 399.8L686.738 371.52H684.378L674.898 399.8H677.258ZM705.814 399V385.36C705.814 381.16 703.694 379.2 699.654 379.2C696.734 379.2 694.094 380.88 692.734 382.48V372.32H689.734V399H692.734V384.88C693.894 383.32 696.134 381.88 698.454 381.88C701.054 381.88 702.814 382.88 702.814 386.28V399H705.814ZM720.525 399.48C723.685 399.48 726.285 398.44 728.205 396.52L726.765 394.56C725.245 396.12 723.005 397 720.805 397C716.645 397 714.085 393.96 713.845 390.32H729.485V389.56C729.485 383.76 726.045 379.2 720.205 379.2C714.685 379.2 710.685 383.72 710.685 389.32C710.685 395.36 714.805 399.48 720.525 399.48ZM726.525 388.12H713.845C714.005 385.16 716.045 381.68 720.165 381.68C724.565 381.68 726.485 385.24 726.525 388.12ZM749.424 399V385.72C749.424 381.04 746.024 379.2 741.944 379.2C738.784 379.2 736.304 380.24 734.224 382.4L735.624 384.48C737.344 382.64 739.224 381.8 741.544 381.8C744.344 381.8 746.424 383.28 746.424 385.88V389.36C744.864 387.56 742.664 386.72 740.024 386.72C736.744 386.72 733.264 388.76 733.264 393.08C733.264 397.28 736.744 399.48 740.024 399.48C742.624 399.48 744.824 398.56 746.424 396.8V399H749.424ZM741.104 397.32C738.304 397.32 736.344 395.56 736.344 393.12C736.344 390.64 738.304 388.88 741.104 388.88C743.224 388.88 745.264 389.68 746.424 391.28V394.92C745.264 396.52 743.224 397.32 741.104 397.32ZM772.438 399V372.32H769.438V382.6C767.878 380.48 765.518 379.2 762.918 379.2C757.838 379.2 754.318 383.2 754.318 389.36C754.318 395.64 757.878 399.48 762.918 399.48C765.638 399.48 767.998 398.08 769.438 396.12V399H772.438ZM763.638 396.8C759.758 396.8 757.438 393.64 757.438 389.36C757.438 385.08 759.758 381.88 763.638 381.88C766.038 381.88 768.358 383.32 769.438 385V393.76C768.358 395.44 766.038 396.8 763.638 396.8ZM794.245 386.68V384.56L776.605 375.8V378.32L791.645 385.64L776.605 392.92V395.4L794.245 386.68ZM642.8 455.4V452.92L627.72 445.64L642.8 438.32V435.8L625.16 444.56V446.68L642.8 455.4ZM646.321 459.8L655.801 431.52H653.441L643.961 459.8H646.321ZM674.877 459V445.36C674.877 441.16 672.757 439.2 668.717 439.2C665.797 439.2 663.157 440.88 661.797 442.48V432.32H658.797V459H661.797V444.88C662.957 443.32 665.197 441.88 667.517 441.88C670.117 441.88 671.877 442.88 671.877 446.28V459H674.877ZM685.747 459.48C687.507 459.48 688.587 458.96 689.347 458.24L688.467 456C688.067 456.44 687.267 456.8 686.427 456.8C685.107 456.8 684.467 455.76 684.467 454.32V442.32H688.387V439.68H684.467V434.4H681.467V439.68H678.267V442.32H681.467V454.96C681.467 457.84 682.907 459.48 685.747 459.48ZM718.945 459V445.04C718.945 441.16 717.065 439.2 713.545 439.2C710.745 439.2 708.145 441.04 707.065 442.8C706.505 440.8 704.825 439.2 701.865 439.2C699.025 439.2 696.425 441.24 695.625 442.48V439.68H692.625V459H695.625V444.88C696.665 443.32 698.745 441.88 700.705 441.88C703.225 441.88 704.265 443.44 704.265 445.88V459H707.265V444.84C708.265 443.32 710.385 441.88 712.385 441.88C714.865 441.88 715.945 443.44 715.945 445.88V459H718.945ZM727.93 459V432.32H724.93V459H727.93ZM749.714 446.68V444.56L732.074 435.8V438.32L747.114 445.64L732.074 452.92V455.4L749.714 446.68Z" fill="white"/>
<defs>
<linearGradient id="paint0_linear" x1="1126" y1="4.48547e-05" x2="376.951" y2="329.466" gradientUnits="userSpaceOnUse">
<stop stop-color="#40A3FF"/>
<stop offset="1" stop-color="#C274FF"/>
</linearGradient>
</defs>
</svg>
