<?xml version="1.0" encoding="UTF-8"?>
<svg fill="none" viewBox="0 0 315 210" xmlns="http://www.w3.org/2000/svg">
<g filter="url(#b)">
<rect x="172" y="35" width="101" height="130" rx="12" fill="#fff"/>
<path d="m208.26 132.19c-1.6 0-2.933-0.512-4-1.536-1.067-1.035-1.6-2.363-1.6-3.984s0.533-2.944 1.6-3.968c1.067-1.035 2.4-1.552 4-1.552 1.856 0 3.285 0.8 4.288 2.4l-1.6 0.816c-0.267-0.459-0.645-0.832-1.136-1.12-0.48-0.288-0.997-0.432-1.552-0.432-1.056 0-1.936 0.363-2.64 1.088-0.693 0.725-1.04 1.648-1.04 2.768s0.347 2.043 1.04 2.768c0.704 0.725 1.584 1.088 2.64 1.088 0.565 0 1.088-0.144 1.568-0.432s0.853-0.661 1.12-1.12l1.6 0.816c-1.024 1.6-2.453 2.4-4.288 2.4zm10.906 0c-1.6 0-2.933-0.512-4-1.536-1.066-1.035-1.6-2.363-1.6-3.984s0.534-2.944 1.6-3.968c1.067-1.035 2.4-1.552 4-1.552 1.856 0 3.286 0.8 4.288 2.4l-1.6 0.816c-0.266-0.459-0.645-0.832-1.136-1.12-0.48-0.288-0.997-0.432-1.552-0.432-1.056 0-1.936 0.363-2.64 1.088-0.693 0.725-1.04 1.648-1.04 2.768s0.347 2.043 1.04 2.768c0.704 0.725 1.584 1.088 2.64 1.088 0.566 0 1.088-0.144 1.568-0.432s0.854-0.661 1.12-1.12l1.6 0.816c-1.024 1.6-2.453 2.4-4.288 2.4zm7.659-0.192h-1.872v-10.672h4.688c1.077 0 1.925 0.32 2.544 0.96 0.629 0.64 0.944 1.435 0.944 2.384 0 0.939-0.315 1.733-0.944 2.384-0.619 0.64-1.467 0.96-2.544 0.96h-2.816v3.984zm2.56-5.632c0.533 0 0.97-0.155 1.312-0.464 0.341-0.309 0.512-0.72 0.512-1.232s-0.171-0.923-0.512-1.232c-0.342-0.309-0.779-0.464-1.312-0.464h-2.56v3.392h2.56zm13.699 5.632h-2.128l-0.784-2.048h-4.896l-0.784 2.048h-2.128l4.192-10.672h2.336l4.192 10.672zm-3.44-3.696-1.92-5.088-1.92 5.088h3.84z" fill="#000"/>
<path d="m195.3 151.19c1.888 0 3.168-0.896 4.064-2.112l-1.136-0.624c-0.608 0.912-1.712 1.552-2.928 1.552-2.336 0-4.112-1.808-4.112-4.336 0-2.544 1.776-4.336 4.112-4.336 1.216 0 2.32 0.656 2.928 1.552l1.12-0.624c-0.848-1.2-2.16-2.112-4.048-2.112-3.072 0-5.488 2.24-5.488 5.52s2.416 5.52 5.488 5.52zm9.085 0c2.352 0 3.824-1.824 3.824-4.064s-1.472-4.048-3.824-4.048-3.824 1.808-3.824 4.048 1.472 4.064 3.824 4.064zm0-1.072c-1.648 0-2.577-1.408-2.577-2.992 0-1.568 0.929-2.976 2.577-2.976s2.56 1.408 2.56 2.976c0 1.584-0.912 2.992-2.56 2.992zm16.308 0.88v-5.584c0-1.552-0.752-2.336-2.16-2.336-1.12 0-2.16 0.736-2.592 1.44-0.224-0.8-0.896-1.44-2.08-1.44-1.136 0-2.176 0.816-2.496 1.312v-1.12h-1.2v7.728h1.2v-5.648c0.416-0.624 1.248-1.2 2.032-1.2 1.008 0 1.424 0.624 1.424 1.6v5.248h1.2v-5.664c0.4-0.608 1.248-1.184 2.048-1.184 0.992 0 1.424 0.624 1.424 1.6v5.248h1.2zm6.202 0.192c2.032 0 3.44-1.568 3.44-4.064 0-2.512-1.408-4.048-3.44-4.048-1.088 0-2.048 0.56-2.608 1.344v-1.152h-1.2v10.672h1.2v-4.112c0.624 0.864 1.552 1.36 2.608 1.36zm-0.304-1.072c-0.944 0-1.888-0.576-2.304-1.248v-3.488c0.416-0.672 1.36-1.232 2.304-1.232 1.552 0 2.48 1.264 2.48 2.976s-0.928 2.992-2.48 2.992zm6.852 0.88v-10.672h-1.2v10.672h1.2zm2.986-8.832c0.448 0 0.816-0.352 0.816-0.8s-0.368-0.816-0.816-0.816c-0.432 0-0.8 0.368-0.8 0.816s0.368 0.8 0.8 0.8zm0.608 8.832v-7.728h-1.2v7.728h1.2zm8.425 0v-5.312c0-1.872-1.36-2.608-2.992-2.608-1.264 0-2.256 0.416-3.088 1.28l0.56 0.832c0.688-0.736 1.44-1.072 2.368-1.072 1.12 0 1.952 0.592 1.952 1.632v1.392c-0.624-0.72-1.504-1.056-2.56-1.056-1.312 0-2.704 0.816-2.704 2.544 0 1.68 1.392 2.56 2.704 2.56 1.04 0 1.92-0.368 2.56-1.072v0.88h1.2zm-3.328-0.672c-1.12 0-1.904-0.704-1.904-1.68 0-0.992 0.784-1.696 1.904-1.696 0.848 0 1.664 0.32 2.128 0.96v1.456c-0.464 0.64-1.28 0.96-2.128 0.96zm12.15 0.672v-5.424c0-1.68-0.848-2.496-2.464-2.496-1.152 0-2.208 0.672-2.752 1.312v-1.12h-1.2v7.728h1.2v-5.648c0.448-0.624 1.344-1.2 2.288-1.2 1.04 0 1.728 0.432 1.728 1.792v5.056h1.2zm4.348 0.192c0.704 0 1.136-0.208 1.44-0.496l-0.352-0.896c-0.16 0.176-0.48 0.32-0.816 0.32-0.528 0-0.784-0.416-0.784-0.992v-4.8h1.568v-1.056h-1.568v-2.112h-1.2v2.112h-1.28v1.056h1.28v5.056c0 1.152 0.576 1.808 1.712 1.808z" fill="#000"/>
<rect x="172" y="35" width="101" height="76" rx="10" fill="#00309A"/>
<rect x="172" y="100" width="101" height="11" fill="#00309A"/>
<path d="m223.5 97c9.113 0 16.5-7.1634 16.5-16s-7.387-16-16.5-16-16.5 7.1634-16.5 16 7.387 16 16.5 16z" fill="#fff"/>
<path d="m235.77 67.323v-7.3002c0-10.322-8.487-13.022-12.973-13.022-2.215 0.0629-4.391 0.6028-6.381 1.5835-3.013 1.5146-6.607 4.7239-6.607 11.439v7.6684c-3.602 3.1767-5.806 7.7873-5.806 13.303 0 10.703 8.276 18.006 19 18.006s19-7.3081 19-18.006c0-5.7322-2.378-10.489-6.233-13.672zm-21.423-7.3002c0-8.1609 7.585-8.4733 8.445-8.4733s8.444 0.3123 8.444 8.4733v4.5711c-2.473-1.0411-5.258-1.6054-8.233-1.6054-3.146 0-6.078 0.6331-8.656 1.792v-4.7577zm17.148 27.523c-0.069 0.0477-0.47 0.3072-0.528 0.5295s0.032 0.3868 0 0.588c-0.093 0.2431-0.217 0.4728-0.369 0.683-0.053 0.0691 0.1 0.2067 0.095 0.2915s-0.053 0.2594 0 0.3387c0.053 0.0794 0.274 0.1059 0.285 0.1962 0.01 0.0902 0.105 0.2329-0.09 0.3387-0.046 0.0335-0.098 0.0568-0.154 0.0687-0.055 0.0118-0.112 0.0119-0.168 1e-4 -0.074 0-1.715 0.2966-1.842 0.2384-0.243-0.043-0.492-0.0284-0.728 0.0425-0.388 0.1085-0.79 0.1619-1.193 0.1587-0.063-0.0739-0.063-0.2063-0.116-0.254-0.054-0.0266-0.097-0.0699-0.123-0.1234-0.027-0.0535-0.036-0.1143-0.025-0.1732 0.015-0.2566-0.027-0.5134-0.121-0.7521-0.064-0.0688-0.565-0.572-0.655-0.6353s-0.49-0.4662-0.601-0.4767c-0.111-0.0106-0.454 0-0.502-0.1641-0.047-0.1641 0-0.4767-0.1-0.4873-0.1-0.0105-0.565 0.127-0.617 0.1005-0.053-0.0266-0.56-0.2435-0.57-0.3282-0.072-0.1495-0.181-0.2774-0.317-0.3708-0.1-0.0477-0.148-0.1376-0.28-0.1219-0.132 0.0156-0.296 0.0742-0.364 0-0.038-0.046-0.087-0.0811-0.143-0.1015-0.055-0.0205-0.115-0.0257-0.174-0.015-0.236 0.0037-0.472-0.0229-0.702-0.0793-0.079 0-0.322-0.1856-0.248-0.3337 0.075-0.1481 0.122-0.1219 0.106-0.2223s-0.116-0.2809-0.095-0.3813c0.021-0.1005 0.084-0.2118 0.074-0.2595-0.011-0.0477-0.444-0.2172-0.433-0.3442 0.01-0.127 0.137-0.1961 0.126-0.2489-0.01-0.0528-0.812-0.572-0.844-0.8951-0.031-0.3232-0.528-0.7944-0.612-0.9108-0.061-0.0947-0.102-0.2007-0.121-0.3118-0.019-0.111-0.016-0.2248 0.01-0.3345 0.079-0.1746 0.237-0.4024 0.201-0.5294-0.037-0.127-0.27-0.2649-0.375-0.2755 0 0-0.496-0.2223-0.496-0.5298 0.017-0.1597 4e-3 -0.3212-0.037-0.4763-0.039-0.1744-0.039-0.3554 0-0.5298 0.042 0 0.243 0.4345 0.322 0.4712 0.079 0.0368 0.153 0.1325 0.179 0.0692 0.027-0.1469 9e-3 -0.2986-0.053-0.4345-0.063-0.0582-0.1-0.0739-0.142-0.1215-0.042-0.0477 0-0.1962-0.085-0.2278-0.084-0.0317-0.163-0.0583-0.126-0.143 0.037-0.0848 0.126-0.0637 0.227-0.1274 0.1-0.0637 0.037-0.2063-0.101-0.2434-0.137-0.0371-0.237-0.127-0.242 0-6e-3 0.127 0.095 0.5876 0.042 0.5876s-0.264-0.2274-0.38-0.2965c-0.116-0.0692-0.38-0.1005-0.412-0.1481-0.031-0.0477 0.127-0.286 0.095-0.3548-0.051-0.0794-0.109-0.1538-0.174-0.2223-0.032-0.0371 0-0.1802-0.047-0.2227-0.337-0.3345-0.643-0.6997-0.913-1.0909 0-0.127 0.121-0.3814 0.105-0.429-0.016-0.0477-0.248-0.254-0.211-0.4396s0.18-0.4658 0.143-0.6248c-0.12-0.3559-0.284-0.6957-0.486-1.0116-0.111-0.1059-0.348-0.397-0.28-0.5825 0.069-0.1856 0.37-0.6143 0.454-0.8581s0-0.4286 0-0.5294c0.086-0.2074 0.16-0.4195 0.222-0.6353-5e-3 -0.1598-0.061-0.3137-0.159-0.4396-0.053-0.0477-0.221-0.3602 6e-3 -0.5087 0 0 5.357 0.5298 5.916 0.3497 0 0-0.259 5.7776-0.163 5.889 0.095 0.1113 8.212 7.8696 8.243 7.9438 0.032 0.0742 0 0.3177 0.085 0.4235 0.084 0.1059 0.311 0.3392 0.311 0.4502 0.02 0.1481 0.093 0.2837 0.206 0.3813 0.079 0.0371 0.332 0.1696 0.264 0.2172z" clip-rule="evenodd" fill="#F5C543" fill-rule="evenodd"/>
</g>
<g filter="url(#a)">
<rect x="38" y="35" width="101" height="130" rx="12" fill="#fff"/>
<path d="m74.256 132.21c-1.5787 0-2.9067-0.512-3.984-1.536s-1.616-2.357-1.616-4 0.5387-2.971 1.616-3.984c1.0773-1.024 2.4053-1.536 3.984-1.536 1.8347 0 3.2693 0.741 4.304 2.224l-1.536 0.864c-0.2987-0.416-0.6933-0.757-1.184-1.024-0.48-0.267-1.008-0.4-1.584-0.4-1.056 0-1.936 0.363-2.64 1.088-0.6933 0.725-1.04 1.648-1.04 2.768s0.3467 2.048 1.04 2.784c0.704 0.725 1.584 1.088 2.64 1.088 0.5013 0 0.976-0.096 1.424-0.288 0.4587-0.192 0.8267-0.416 1.104-0.672v-1.664h-3.184v-1.648h5.056v4c-1.1627 1.291-2.6293 1.936-4.4 1.936zm10.317-0.208h-3.968v-10.672h3.968c1.6533 0 2.9973 0.496 4.032 1.488 1.0346 0.992 1.552 2.277 1.552 3.856 0 1.568-0.5174 2.848-1.552 3.84-1.024 0.992-2.368 1.488-4.032 1.488zm0-1.648c1.12 0 2.0106-0.352 2.672-1.056 0.6613-0.704 0.992-1.579 0.992-2.624 0-1.077-0.3254-1.963-0.976-2.656-0.64-0.693-1.536-1.04-2.688-1.04h-2.096v7.376h2.096zm9.2633 1.648h-1.872v-10.672h4.688c1.0774 0 1.9254 0.32 2.544 0.96 0.6294 0.64 0.9439 1.435 0.9439 2.384 0 0.939-0.3145 1.733-0.9439 2.384-0.6186 0.64-1.4666 0.96-2.544 0.96h-2.816v3.984zm2.56-5.632c0.5334 0 0.9707-0.155 1.312-0.464 0.3414-0.309 0.512-0.72 0.512-1.232s-0.1706-0.923-0.512-1.232c-0.3413-0.309-0.7786-0.464-1.312-0.464h-2.56v3.392h2.56zm13.559 5.632h-2.16l-2.368-3.984h-1.856v3.984h-1.872v-10.672h4.688c1.045 0 1.888 0.309 2.528 0.928s0.96 1.424 0.96 2.416c0 0.896-0.246 1.616-0.736 2.16-0.491 0.533-1.088 0.859-1.792 0.976l2.608 4.192zm-3.824-5.632c0.533 0 0.97-0.155 1.312-0.464 0.341-0.309 0.512-0.72 0.512-1.232s-0.171-0.923-0.512-1.232c-0.342-0.309-0.779-0.464-1.312-0.464h-2.56v3.392h2.56z" fill="#000"/>
<path d="m61.304 151.19c1.888 0 3.168-0.896 4.064-2.112l-1.136-0.624c-0.608 0.912-1.712 1.552-2.928 1.552-2.336 0-4.112-1.808-4.112-4.336 0-2.544 1.776-4.336 4.112-4.336 1.216 0 2.32 0.656 2.928 1.552l1.12-0.624c-0.848-1.2-2.16-2.112-4.048-2.112-3.072 0-5.488 2.24-5.488 5.52s2.416 5.52 5.488 5.52zm9.0845 0c2.352 0 3.824-1.824 3.824-4.064s-1.472-4.048-3.824-4.048-3.824 1.808-3.824 4.048 1.472 4.064 3.824 4.064zm0-1.072c-1.648 0-2.576-1.408-2.576-2.992 0-1.568 0.928-2.976 2.576-2.976s2.56 1.408 2.56 2.976c0 1.584-0.912 2.992-2.56 2.992zm16.308 0.88v-5.584c0-1.552-0.752-2.336-2.16-2.336-1.1201 0-2.16 0.736-2.592 1.44-0.224-0.8-0.896-1.44-2.08-1.44-1.136 0-2.176 0.816-2.496 1.312v-1.12h-1.2v7.728h1.2v-5.648c0.416-0.624 1.248-1.2 2.032-1.2 1.008 0 1.424 0.624 1.424 1.6v5.248h1.2v-5.664c0.4-0.608 1.248-1.184 2.048-1.184 0.992 0 1.424 0.624 1.424 1.6v5.248h1.2zm6.2018 0.192c2.032 0 3.44-1.568 3.44-4.064 0-2.512-1.408-4.048-3.44-4.048-1.088 0-2.048 0.56-2.608 1.344v-1.152h-1.2v10.672h1.2v-4.112c0.624 0.864 1.552 1.36 2.608 1.36zm-0.304-1.072c-0.944 0-1.888-0.576-2.304-1.248v-3.488c0.416-0.672 1.36-1.232 2.304-1.232 1.552 0 2.48 1.264 2.48 2.976s-0.928 2.992-2.48 2.992zm6.8523 0.88v-10.672h-1.2v10.672h1.2zm2.9861-8.832c0.448 0 0.816-0.352 0.816-0.8s-0.368-0.816-0.816-0.816c-0.432 0-0.8 0.368-0.8 0.816s0.368 0.8 0.8 0.8zm0.608 8.832v-7.728h-1.2v7.728h1.2zm8.425 0v-5.312c0-1.872-1.36-2.608-2.992-2.608-1.264 0-2.256 0.416-3.088 1.28l0.56 0.832c0.688-0.736 1.44-1.072 2.368-1.072 1.12 0 1.952 0.592 1.952 1.632v1.392c-0.624-0.72-1.504-1.056-2.56-1.056-1.312 0-2.704 0.816-2.704 2.544 0 1.68 1.392 2.56 2.704 2.56 1.04 0 1.92-0.368 2.56-1.072v0.88h1.2zm-3.328-0.672c-1.12 0-1.904-0.704-1.904-1.68 0-0.992 0.784-1.696 1.904-1.696 0.848 0 1.664 0.32 2.128 0.96v1.456c-0.464 0.64-1.28 0.96-2.128 0.96zm12.15 0.672v-5.424c0-1.68-0.848-2.496-2.464-2.496-1.152 0-2.208 0.672-2.752 1.312v-1.12h-1.2v7.728h1.2v-5.648c0.448-0.624 1.344-1.2 2.288-1.2 1.04 0 1.728 0.432 1.728 1.792v5.056h1.2zm4.348 0.192c0.704 0 1.136-0.208 1.44-0.496l-0.352-0.896c-0.16 0.176-0.48 0.32-0.816 0.32-0.528 0-0.784-0.416-0.784-0.992v-4.8h1.568v-1.056h-1.568v-2.112h-1.2v2.112h-1.28v1.056h1.28v5.056c0 1.152 0.576 1.808 1.712 1.808z" fill="#000"/>
<rect x="38" y="35" width="101" height="76" rx="10" fill="#00309A"/>
<rect x="38" y="100" width="101" height="11" fill="#00309A"/>
<path d="m88.5 106c17.894 0 32.4-14.551 32.4-32.5s-14.506-32.5-32.4-32.5c-17.894 0-32.4 14.551-32.4 32.5s14.506 32.5 32.4 32.5z" fill="#00309A"/>
<path d="m89.562 70.886c0-0.6024-0.5043-1.0865-1.1049-1.065-0.5574 0.0215-1.008 0.4949-1.0188 1.0543-0.0105 0.398 0.204 0.7423 0.5256 0.9358 0.0645 0.043 0.0966 0.1077 0.0858 0.183l-0.3432 1.7643c-0.0213 0.1077 0.0642 0.2043 0.1716 0.2043h1.2549c0.1071 0 0.1929-0.0966 0.1716-0.2043l-0.3432-1.7535c-0.0108-0.0752 0.0213-0.1508 0.0858-0.183 0.3003-0.2043 0.5148-0.5486 0.5148-0.9359z" fill="#00309A"/>
<path d="m77.839 86.635c0.2145 0 0.4077-0.0109 0.5793-0.0325 0.1716-0.0214 0.3432-0.0536 0.4932-0.0861 0.1608-0.043 0.3003-0.0861 0.4398-0.1396 0.1395-0.0539 0.2787-0.1186 0.4182-0.1938v-1.7321h-1.212c-0.0642 0-0.1284-0.0214-0.1608-0.0644-0.0429-0.0431-0.0642-0.0861-0.0642-0.1508v-0.6025h2.4024v3.0018c-0.1932 0.1396-0.3969 0.2687-0.6114 0.3764-0.2145 0.1075-0.4398 0.1935-0.6756 0.2691-0.2469 0.0752-0.5043 0.1291-0.7722 0.1613-0.279 0.0322-0.5793 0.0538-0.9009 0.0538-0.5685 0-1.0833-0.0969-1.5552-0.2907-0.4719-0.1935-0.8793-0.4733-1.2225-0.8176-0.3432-0.3548-0.6114-0.7746-0.7938-1.2693-0.1929-0.495-0.2895-1.0328-0.2895-1.6244 0-0.6024 0.0966-1.1405 0.2787-1.6352 0.1824-0.495 0.4506-0.9145 0.8046-1.2696 0.3432-0.3551 0.7614-0.6238 1.2546-0.8176 0.4935-0.1935 1.0404-0.2904 1.6518-0.2904 0.3111 0 0.6006 0.0213 0.858 0.0644 0.2679 0.043 0.5148 0.1077 0.7398 0.1938 0.2253 0.086 0.4398 0.1935 0.633 0.312 0.1929 0.1183 0.3753 0.2582 0.5361 0.4087l-0.3003 0.4842c-0.0642 0.0969-0.1395 0.1504-0.2358 0.1504-0.0537 0-0.1182-0.0213-0.1932-0.0644-0.0858-0.0538-0.1929-0.1077-0.3003-0.1829-0.1179-0.0753-0.2466-0.14-0.4074-0.2152-0.1611-0.0644-0.354-0.1291-0.5685-0.1721-0.2145-0.0431-0.4827-0.0752-0.783-0.0752-0.4395 0-0.8364 0.0752-1.1904 0.2151s-0.6543 0.3551-0.9117 0.6133c-0.2466 0.2687-0.4395 0.5916-0.579 0.9681-0.1395 0.3764-0.2037 0.8068-0.2037 1.2801 0 0.495 0.075 0.9362 0.2145 1.3235 0.1392 0.3873 0.3324 0.7207 0.5898 0.9897 0.2574 0.2688 0.5577 0.4734 0.9009 0.613 0.3324 0.1721 0.7185 0.2477 1.1367 0.2477z" fill="#fff"/>
<path d="m89.122 83.494c0 0.5916-0.0966 1.1188-0.2787 1.6027-0.1824 0.4842-0.4506 0.8931-0.783 1.2374s-0.7401 0.6025-1.212 0.796c-0.4719 0.1829-0.9975 0.2798-1.5657 0.2798h-2.9172v-7.8319h2.9064c0.579 0 1.0938 0.0966 1.5657 0.2796 0.4719 0.1829 0.8796 0.452 1.212 0.7962 0.3324 0.3443 0.6006 0.7529 0.783 1.2371 0.1929 0.4842 0.2895 1.0112 0.2895 1.6031zm-1.0833 0c0-0.4842-0.0642-0.9145-0.1929-1.291-0.1287-0.3768-0.3111-0.6993-0.5577-0.9575-0.2361-0.2582-0.5256-0.4626-0.8688-0.6025s-0.7185-0.2043-1.1367-0.2043h-1.8555v6.1106h1.8447c0.4182 0 0.7935-0.0647 1.1367-0.2047 0.3432-0.1396 0.633-0.3334 0.8688-0.6024 0.2361-0.2582 0.429-0.5808 0.5577-0.9573 0.1395-0.3872 0.2037-0.8176 0.2037-1.2909z" fill="#fff"/>
<path d="m91.719 84.472v2.9262h-1.0509v-7.8319h2.3058c0.4932 0 0.9222 0.0539 1.287 0.1721 0.3645 0.1183 0.6648 0.2799 0.9117 0.4842 0.2358 0.2152 0.4181 0.4626 0.536 0.7638s0.1824 0.6346 0.1824 1.0006c0 0.3656-0.0645 0.699-0.1932 1.0002-0.1287 0.3013-0.3108 0.5595-0.5576 0.7855-0.2466 0.2151-0.5469 0.3872-0.9114 0.5055-0.3648 0.1186-0.783 0.183-1.2441 0.183h-1.2657v0.0108zm0-0.8393h1.2549c0.3003 0 0.5685-0.043 0.7935-0.1182 0.2361-0.0753 0.429-0.1935 0.5793-0.3335 0.1608-0.1399 0.2786-0.312 0.3539-0.5164 0.075-0.2043 0.118-0.4195 0.118-0.6563 0-0.4947-0.1503-0.8928-0.4611-1.1724-0.3111-0.2798-0.7722-0.4198-1.3944-0.4198h-1.2549v3.2166h0.0108z" fill="#fff"/>
<path d="m98.377 84.14v3.2704h-1.0509v-7.8319h2.2092c0.4936 0 0.9226 0.0536 1.2766 0.1505 0.364 0.0969 0.654 0.2473 0.89 0.4303 0.236 0.1938 0.407 0.4195 0.526 0.6885 0.107 0.2691 0.171 0.5703 0.171 0.9037 0 0.2799-0.043 0.5381-0.129 0.7746-0.085 0.2368-0.214 0.452-0.375 0.6455-0.161 0.1938-0.365 0.3551-0.601 0.4842-0.236 0.1399-0.504 0.2365-0.804 0.3012 0.129 0.0752 0.247 0.183 0.354 0.3334l2.274 3.1092h-0.933c-0.194 0-0.333-0.0752-0.429-0.226l-2.0274-2.7971c-0.0645-0.0861-0.1287-0.1505-0.2037-0.1935-0.0753-0.043-0.1824-0.0539-0.3219-0.0539h-0.8259v0.0109zm0-0.7746h1.1049c0.3108 0 0.579-0.0325 0.815-0.1078 0.236-0.0752 0.429-0.1829 0.59-0.312 0.161-0.1396 0.279-0.3012 0.354-0.4839 0.075-0.1938 0.118-0.3981 0.118-0.6241 0-0.4626-0.151-0.8176-0.461-1.0542-0.311-0.2368-0.762-0.3551-1.3731-0.3551h-1.1583v2.9371h0.0105z" fill="#fff"/>
<path d="m88.499 50.422 2.3808 1.7428-0.9117-2.8186 2.4132-1.7429h-2.9709l-0.9114-2.8185-0.9117 2.8185h-2.9817l2.4132 1.7429-0.9117 2.8186 2.3919-1.7428z" fill="#FFCD00"/>
<path d="m88.499 100.46 2.3808 1.754-0.9117-2.8295 2.4132-1.7321h-2.9709l-0.9114-2.8185-0.9117 2.8185h-2.9817l2.4132 1.7321-0.9117 2.8295 2.3919-1.754z" fill="#FFCD00"/>
<path d="m88.499 100.46 2.3808 1.754-0.9117-2.8295 2.4132-1.7321h-2.9709l-0.9114-2.8185-0.9117 2.8185h-2.9817l2.4132 1.7321-0.9117 2.8295 2.3919-1.754z" fill="#FFCD00"/>
<path d="m88.499 100.46 2.3808 1.754-0.9117-2.8295 2.4132-1.7321h-2.9709l-0.9114-2.8185-0.9117 2.8185h-2.9817l2.4132 1.7321-0.9117 2.8295 2.3919-1.754z" fill="#FFCD00"/>
<path d="m88.499 100.46 2.3808 1.754-0.9117-2.8295 2.4132-1.7321h-2.9709l-0.9114-2.8185-0.9117 2.8185h-2.9817l2.4132 1.7321-0.9117 2.8295 2.3919-1.754z" fill="#FFCD00"/>
<path d="m88.499 100.46 2.3808 1.754-0.9117-2.8295 2.4132-1.7321h-2.9709l-0.9114-2.8185-0.9117 2.8185h-2.9817l2.4132 1.7321-0.9117 2.8295 2.3919-1.754z" fill="#FFCD00"/>
<path d="m88.499 100.46 2.3808 1.754-0.9117-2.8295 2.4132-1.7321h-2.9709l-0.9114-2.8185-0.9117 2.8185h-2.9817l2.4132 1.7321-0.9117 2.8295 2.3919-1.754z" fill="#FFCD00"/>
<path d="m76.026 97.114 2.3811 1.7427-0.9009-2.8185 2.4024-1.743h-2.9709l-0.9117-2.8184-0.9114 2.8184h-2.9817l2.4132 1.743-0.9009 2.8185 2.3808-1.7427z" fill="#FFCD00"/>
<path d="m66.901 87.947 2.3808 1.7535-0.9117-2.8293 2.4132-1.7321h-2.9814l-0.9009-2.8185-0.9117 2.8185h-2.9817l2.4132 1.7321-0.9117 2.8293 2.3919-1.7535z" fill="#FFCD00"/>
<path d="m63.554 75.435 2.3808 1.7535-0.9009-2.8293 2.4132-1.7322h-2.9817l-0.9114-2.8185-0.9117 2.8185h-2.9709l2.4024 1.7322-0.9009 2.8293 2.3811-1.7535z" fill="#FFCD00"/>
<path d="m66.901 62.934 2.3808 1.7428-0.9117-2.8186 2.4132-1.7428h-2.9814l-0.9009-2.8186-0.9117 2.8186h-2.9817l2.4132 1.7428-0.9117 2.8186 2.3919-1.7428z" fill="#FFCD00"/>
<path d="m76.026 53.767 2.3811 1.7535-0.9009-2.8293 2.4024-1.7321h-2.9709l-0.9117-2.8186-0.9114 2.8186h-2.9817l2.4132 1.7321-0.9009 2.8293 2.3808-1.7535z" fill="#FFCD00"/>
<path d="m100.97 97.114 2.381 1.7427-0.912-2.8185 2.413-1.743h-2.981l-0.901-2.8184-0.912 2.8184h-2.9809l2.4129 1.743-0.9114 2.8185 2.3914-1.7427z" fill="#FFCD00"/>
<path d="m110.1 87.947 2.381 1.7535-0.901-2.8293 2.403-1.7321h-2.971l-0.912-2.8185-0.911 2.8185h-2.982l2.413 1.7321-0.901 2.8293 2.381-1.7535z" fill="#FFCD00"/>
<path d="m113.45 75.435 2.381 1.7535-0.912-2.8293 2.413-1.7322h-2.981l-0.901-2.8185-0.912 2.8185h-2.981l2.413 1.7322-0.912 2.8293 2.392-1.7535z" fill="#FFCD00"/>
<path d="m110.1 62.934 2.381 1.7428-0.901-2.8186 2.403-1.7428h-2.971l-0.912-2.8186-0.911 2.8186h-2.982l2.413 1.7428-0.901 2.8186 2.381-1.7428z" fill="#FFCD00"/>
<path d="m100.97 53.767 2.381 1.7535-0.912-2.8293 2.413-1.7321h-2.981l-0.901-2.8186-0.912 2.8186h-2.9809l2.4129 1.7321-0.9114 2.8293 2.3914-1.7535z" fill="#FFCD00"/>
<rect x="71.869" y="77.438" width="33.261" height="11.818" fill="#00309A"/>
<path d="m96.228 71.806h-1.0196v-2.9509c0-3.4139-2.7903-6.1913-6.2196-6.1913s-6.2191 2.7774-6.2191 6.1913v2.9509h-1.0201c-0.5943 0-1.0758 0.4796-1.0758 1.0711v9.3973c0 0.5917 0.4815 1.0712 1.0758 1.0712h14.478c0.5943 0 1.0763-0.4795 1.0763-1.0712v-9.3972c0-0.5916-0.482-1.0712-1.0763-1.0712zm-10.846-2.9509c0-1.9801 1.6183-3.5909 3.607-3.5909 1.9892 0 3.6074 1.6108 3.6074 3.5909v2.9509h-7.2144v-2.9509zm4.7795 9.077v1.9211c0 0.6444-0.5248 1.1671-1.1725 1.1671s-1.1725-0.5227-1.1725-1.1671v-1.9211c-0.4362-0.3444-0.7162-0.8762-0.7162-1.4736 0-1.0384 0.8458-1.8803 1.8887-1.8803 1.0434 0 1.8887 0.8419 1.8887 1.8803 0 0.5974-0.28 1.1292-0.7162 1.4736z" fill="#fff"/>
</g>
<defs>
<filter id="b" x="134" y="0" width="181" height="210" color-interpolation-filters="sRGB" filterUnits="userSpaceOnUse">
<feFlood flood-opacity="0" result="BackgroundImageFix"/>
<feColorMatrix in="SourceAlpha" result="hardAlpha" values="0 0 0 0 0 0 0 0 0 0 0 0 0 0 0 0 0 0 127 0"/>
<feOffset dx="2" dy="5"/>
<feGaussianBlur stdDeviation="20"/>
<feComposite in2="hardAlpha" operator="out"/>
<feColorMatrix values="0 0 0 0 0.933333 0 0 0 0 0.933333 0 0 0 0 0.933333 0 0 0 1 0"/>
<feBlend in2="BackgroundImageFix" result="effect1_dropShadow_887:513"/>
<feBlend in="SourceGraphic" in2="effect1_dropShadow_887:513" result="shape"/>
</filter>
<filter id="a" x="0" y="0" width="181" height="210" color-interpolation-filters="sRGB" filterUnits="userSpaceOnUse">
<feFlood flood-opacity="0" result="BackgroundImageFix"/>
<feColorMatrix in="SourceAlpha" result="hardAlpha" values="0 0 0 0 0 0 0 0 0 0 0 0 0 0 0 0 0 0 127 0"/>
<feOffset dx="2" dy="5"/>
<feGaussianBlur stdDeviation="20"/>
<feComposite in2="hardAlpha" operator="out"/>
<feColorMatrix values="0 0 0 0 0.933333 0 0 0 0 0.933333 0 0 0 0 0.933333 0 0 0 1 0"/>
<feBlend in2="BackgroundImageFix" result="effect1_dropShadow_887:513"/>
<feBlend in="SourceGraphic" in2="effect1_dropShadow_887:513" result="shape"/>
</filter>
</defs>
</svg>
