<svg width="408" height="199" viewBox="0 0 408 199" fill="none" xmlns="http://www.w3.org/2000/svg">
<path d="M26.4911 44V19.184H35.4191V11.984H9.25913V19.184H18.2351V44H26.4911ZM59.3843 44V20.816H51.9923V35.792C51.1283 36.896 49.6883 38.048 47.5763 38.048C45.1763 38.048 43.7363 37.088 43.7363 34.304V20.816H36.3443V37.328C36.3443 41.6 38.6963 44.576 43.9763 44.576C47.8643 44.576 50.5523 42.848 51.9923 41.216V44H59.3843ZM72.1425 44V29.216C73.1025 27.92 75.6465 27.104 77.5665 27.104C78.3345 27.104 78.9585 27.2 79.3905 27.296V20.192C76.6065 20.192 73.6785 21.776 72.1425 23.648V20.816H64.7505V44H72.1425ZM105.839 44V27.584C105.839 23.312 103.439 20.24 98.1585 20.24C94.2705 20.24 91.5345 22.016 90.1425 23.648V20.816H82.7505V44H90.1425V29.024C91.0065 27.968 92.4465 26.768 94.6545 26.768C96.9585 26.768 98.4465 27.776 98.4465 30.608V44H105.839ZM127.181 18.752C129.533 18.752 131.405 16.832 131.405 14.48C131.405 12.128 129.533 10.256 127.181 10.256C124.829 10.256 122.957 12.128 122.957 14.48C122.957 16.832 124.829 18.752 127.181 18.752ZM130.877 44V20.816H123.485V44H130.877ZM159.323 44V27.584C159.323 23.312 156.923 20.24 151.643 20.24C147.755 20.24 145.019 22.016 143.627 23.648V20.816H136.235V44H143.627V29.024C144.491 27.968 145.931 26.768 148.139 26.768C150.443 26.768 151.931 27.776 151.931 30.608V44H159.323ZM173.568 44.576C180.24 44.576 184.128 41.312 184.128 36.896C184.128 27.392 170.64 30.032 170.64 27.344C170.64 26.384 171.84 25.664 173.568 25.664C176.352 25.664 178.992 26.864 180.384 28.208L183.216 23.312C180.72 21.488 177.408 20.24 173.52 20.24C167.088 20.24 163.584 23.792 163.584 27.872C163.584 37.184 177.072 34.208 177.072 37.232C177.072 38.288 176.16 39.008 173.952 39.008C171.216 39.008 167.52 37.472 165.792 35.936L162.72 41.024C165.168 43.184 169.44 44.576 173.568 44.576ZM191.634 18.752C193.986 18.752 195.858 16.832 195.858 14.48C195.858 12.128 193.986 10.256 191.634 10.256C189.282 10.256 187.41 12.128 187.41 14.48C187.41 16.832 189.282 18.752 191.634 18.752ZM195.33 44V20.816H187.938V44H195.33ZM210.336 53.408C216.096 53.408 223.584 51.392 223.584 41.936V20.816H216.24V23.552C214.368 21.248 211.968 20.24 209.376 20.24C203.568 20.24 199.152 24.272 199.152 31.904C199.152 39.728 203.712 43.616 209.376 43.616C212.016 43.616 214.32 42.512 216.24 40.256V42.032C216.24 46.352 212.784 47.36 210.336 47.36C207.648 47.36 205.056 46.592 203.28 44.672L200.064 49.952C203.04 52.4 206.352 53.408 210.336 53.408ZM211.824 37.088C208.896 37.088 206.736 35.312 206.736 31.904C206.736 28.544 208.896 26.768 211.824 26.768C213.36 26.768 215.328 27.584 216.24 28.832V35.024C215.328 36.272 213.36 37.088 211.824 37.088ZM252.137 44V27.488C252.137 23.216 249.737 20.24 244.457 20.24C240.569 20.24 237.833 22.016 236.441 23.648V11.984H229.049V44H236.441V29.024C237.305 27.968 238.745 26.768 240.905 26.768C243.257 26.768 244.745 27.68 244.745 30.512V44H252.137ZM266.285 44.576C269.021 44.576 270.845 43.904 271.757 43.04L270.317 37.472C270.077 37.76 269.261 38.048 268.445 38.048C267.148 38.048 266.381 37.04 266.381 35.696V27.248H271.085V20.816H266.381V14.48H259.037V20.816H255.197V27.248H259.037V37.76C259.037 42.224 261.581 44.576 266.285 44.576ZM283.677 44.576C290.349 44.576 294.237 41.312 294.237 36.896C294.237 27.392 280.749 30.032 280.749 27.344C280.749 26.384 281.949 25.664 283.677 25.664C286.461 25.664 289.101 26.864 290.493 28.208L293.325 23.312C290.829 21.488 287.517 20.24 283.629 20.24C277.197 20.24 273.693 23.792 273.693 27.872C273.693 37.184 287.181 34.208 287.181 37.232C287.181 38.288 286.269 39.008 284.061 39.008C281.325 39.008 277.629 37.472 275.901 35.936L272.829 41.024C275.277 43.184 279.549 44.576 283.677 44.576ZM314.025 18.752C316.377 18.752 318.249 16.832 318.249 14.48C318.249 12.128 316.377 10.256 314.025 10.256C311.673 10.256 309.801 12.128 309.801 14.48C309.801 16.832 311.673 18.752 314.025 18.752ZM317.721 44V20.816H310.329V44H317.721ZM346.167 44V27.584C346.167 23.312 343.767 20.24 338.487 20.24C334.599 20.24 331.863 22.016 330.471 23.648V20.816H323.079V44H330.471V29.024C331.335 27.968 332.775 26.768 334.983 26.768C337.287 26.768 338.775 27.776 338.775 30.608V44H346.167ZM360.316 44.576C363.052 44.576 364.876 43.904 365.788 43.04L364.348 37.472C364.108 37.76 363.292 38.048 362.476 38.048C361.18 38.048 360.412 37.04 360.412 35.696V27.248H365.116V20.816H360.412V14.48H353.068V20.816H349.228V27.248H353.068V37.76C353.068 42.224 355.612 44.576 360.316 44.576ZM379.917 44.576C387.885 44.576 392.589 38.912 392.589 32.384C392.589 25.856 387.885 20.24 379.917 20.24C372.045 20.24 367.293 25.856 367.293 32.384C367.293 38.912 372.045 44.576 379.917 44.576ZM379.917 38.048C376.701 38.048 374.925 35.504 374.925 32.384C374.925 29.312 376.701 26.768 379.917 26.768C383.181 26.768 385.005 29.312 385.005 32.384C385.005 35.504 383.181 38.048 379.917 38.048ZM134.563 111.408C140.323 111.408 147.811 109.392 147.811 99.936V78.816H140.467V81.552C138.595 79.248 136.195 78.24 133.603 78.24C127.795 78.24 123.379 82.272 123.379 89.904C123.379 97.728 127.939 101.616 133.603 101.616C136.243 101.616 138.547 100.512 140.467 98.256V100.032C140.467 104.352 137.011 105.36 134.563 105.36C131.875 105.36 129.283 104.592 127.507 102.672L124.291 107.952C127.267 110.4 130.579 111.408 134.563 111.408ZM136.051 95.088C133.123 95.088 130.963 93.312 130.963 89.904C130.963 86.544 133.123 84.768 136.051 84.768C137.587 84.768 139.555 85.584 140.467 86.832V93.024C139.555 94.272 137.587 95.088 136.051 95.088ZM160.619 102V87.216C161.579 85.92 164.123 85.104 166.043 85.104C166.811 85.104 167.435 85.2 167.867 85.296V78.192C165.083 78.192 162.155 79.776 160.619 81.648V78.816H153.227V102H160.619ZM182.315 102.576C190.283 102.576 194.987 96.912 194.987 90.384C194.987 83.856 190.283 78.24 182.315 78.24C174.443 78.24 169.691 83.856 169.691 90.384C169.691 96.912 174.443 102.576 182.315 102.576ZM182.315 96.048C179.099 96.048 177.323 93.504 177.323 90.384C177.323 87.312 179.099 84.768 182.315 84.768C185.579 84.768 187.403 87.312 187.403 90.384C187.403 93.504 185.579 96.048 182.315 96.048ZM227.395 102L234.259 78.816H226.627L222.931 93.024L218.371 78.816H211.795L207.235 93.024L203.491 78.816H195.907L202.771 102H210.739L215.059 87.648L219.427 102H227.395ZM245.449 102.576C248.185 102.576 250.009 101.904 250.921 101.04L249.481 95.472C249.241 95.76 248.425 96.048 247.609 96.048C246.313 96.048 245.545 95.04 245.545 93.696V85.248H250.249V78.816H245.545V72.48H238.201V78.816H234.361V85.248H238.201V95.76C238.201 100.224 240.745 102.576 245.449 102.576ZM277.097 102V85.488C277.097 81.216 274.697 78.24 269.417 78.24C265.529 78.24 262.793 80.016 261.401 81.648V69.984H254.009V102H261.401V87.024C262.265 85.968 263.705 84.768 265.865 84.768C268.217 84.768 269.705 85.68 269.705 88.512V102H277.097Z" fill="white"/>
<path d="M28.6304 165L23.2504 151.66H21.1904L15.8304 165H17.7304L18.9104 162.04H25.5504L26.7304 165H28.6304ZM25.0504 160.56H19.3904L22.2304 153.38L25.0504 160.56ZM32.5396 165.24C33.4196 165.24 33.9596 164.98 34.3396 164.62L33.8996 163.5C33.6996 163.72 33.2996 163.9 32.8796 163.9C32.2196 163.9 31.8996 163.38 31.8996 162.66V156.66H33.8596V155.34H31.8996V152.7H30.3996V155.34H28.7996V156.66H30.3996V162.98C30.3996 164.42 31.1196 165.24 32.5396 165.24ZM38.4185 165.24C39.2985 165.24 39.8385 164.98 40.2185 164.62L39.7785 163.5C39.5785 163.72 39.1785 163.9 38.7585 163.9C38.0985 163.9 37.7785 163.38 37.7785 162.66V156.66H39.7385V155.34H37.7785V152.7H36.2785V155.34H34.6785V156.66H36.2785V162.98C36.2785 164.42 36.9985 165.24 38.4185 165.24ZM43.3574 165V158.16C43.7974 157.38 45.0574 156.62 45.9774 156.62C46.2174 156.62 46.3974 156.64 46.5774 156.68V155.14C45.2574 155.14 44.1374 155.88 43.3574 156.9V155.34H41.8574V165H43.3574ZM49.199 153.96C49.759 153.96 50.219 153.52 50.219 152.96C50.219 152.4 49.759 151.94 49.199 151.94C48.659 151.94 48.199 152.4 48.199 152.96C48.199 153.52 48.659 153.96 49.199 153.96ZM49.959 165V155.34H48.459V165H49.959ZM54.4512 162.38V158C54.9712 157.16 56.1512 156.44 57.3312 156.44C59.2912 156.44 60.4512 158.04 60.4512 160.18C60.4512 162.32 59.2912 163.9 57.3312 163.9C56.1512 163.9 54.9712 163.22 54.4512 162.38ZM54.4512 165V163.56C55.1712 164.54 56.3512 165.24 57.7112 165.24C60.2312 165.24 62.0112 163.32 62.0112 160.18C62.0112 157.1 60.2312 155.1 57.7112 155.1C56.3912 155.1 55.2312 155.74 54.4512 156.8V151.66H52.9512V165H54.4512ZM72.4751 165V155.34H70.9751V162.44C70.4151 163.22 69.2951 163.9 68.1151 163.9C66.8151 163.9 65.9551 163.4 65.9551 161.7V155.34H64.4551V162.16C64.4551 164.26 65.5151 165.24 67.5351 165.24C68.9751 165.24 70.2351 164.48 70.9751 163.64V165H72.4751ZM77.9107 165.24C78.7907 165.24 79.3307 164.98 79.7107 164.62L79.2707 163.5C79.0707 163.72 78.6707 163.9 78.2507 163.9C77.5907 163.9 77.2707 163.38 77.2707 162.66V156.66H79.2307V155.34H77.2707V152.7H75.7707V155.34H74.1707V156.66H75.7707V162.98C75.7707 164.42 76.4907 165.24 77.9107 165.24ZM82.0896 153.96C82.6496 153.96 83.1096 153.52 83.1096 152.96C83.1096 152.4 82.6496 151.94 82.0896 151.94C81.5496 151.94 81.0896 152.4 81.0896 152.96C81.0896 153.52 81.5496 153.96 82.0896 153.96ZM82.8496 165V155.34H81.3496V165H82.8496ZM93.8618 165V158.22C93.8618 156.12 92.8018 155.1 90.7818 155.1C89.3418 155.1 88.0218 155.94 87.3418 156.74V155.34H85.8418V165H87.3418V157.94C87.9018 157.16 89.0218 156.44 90.2018 156.44C91.5018 156.44 92.3618 156.98 92.3618 158.68V165H93.8618ZM100.737 168.92C103.097 168.92 105.337 167.92 105.337 164.72V155.34H103.837V156.8C103.057 155.74 101.897 155.1 100.597 155.1C98.0574 155.1 96.2974 157.02 96.2974 160.12C96.2974 163.24 98.0774 165.12 100.597 165.12C101.957 165.12 103.137 164.38 103.837 163.4V164.78C103.837 166.9 102.337 167.68 100.737 167.68C99.3574 167.68 98.3974 167.32 97.5974 166.36L96.8374 167.48C97.9774 168.6 99.0974 168.92 100.737 168.92ZM100.957 163.8C99.0174 163.8 97.8574 162.24 97.8574 160.12C97.8574 157.98 99.0174 156.44 100.957 156.44C102.157 156.44 103.317 157.16 103.837 158V162.22C103.317 163.06 102.157 163.8 100.957 163.8ZM116.558 165.24C119.058 165.24 120.358 163.94 120.358 162.32C120.358 158.56 114.378 159.96 114.378 157.84C114.378 156.98 115.198 156.32 116.518 156.32C117.758 156.32 118.818 156.84 119.398 157.54L120.098 156.5C119.318 155.72 118.158 155.1 116.518 155.1C114.218 155.1 112.918 156.38 112.918 157.88C112.918 161.46 118.898 160.02 118.898 162.36C118.898 163.32 118.098 164.02 116.618 164.02C115.298 164.02 114.078 163.38 113.438 162.64L112.658 163.72C113.638 164.76 114.978 165.24 116.558 165.24ZM130.815 165V155.34H129.315V162.44C128.755 163.22 127.635 163.9 126.455 163.9C125.155 163.9 124.295 163.4 124.295 161.7V155.34H122.795V162.16C122.795 164.26 123.855 165.24 125.875 165.24C127.315 165.24 128.575 164.48 129.315 163.64V165H130.815ZM138.071 165.24C139.831 165.24 140.871 164.52 141.611 163.56L140.611 162.64C139.971 163.5 139.151 163.9 138.151 163.9C136.091 163.9 134.811 162.3 134.811 160.16C134.811 158.02 136.091 156.44 138.151 156.44C139.151 156.44 139.971 156.82 140.611 157.7L141.611 156.78C140.871 155.82 139.831 155.1 138.071 155.1C135.191 155.1 133.251 157.3 133.251 160.16C133.251 163.04 135.191 165.24 138.071 165.24ZM147.973 165.24C149.733 165.24 150.773 164.52 151.513 163.56L150.513 162.64C149.873 163.5 149.053 163.9 148.053 163.9C145.993 163.9 144.713 162.3 144.713 160.16C144.713 158.02 145.993 156.44 148.053 156.44C149.053 156.44 149.873 156.82 150.513 157.7L151.513 156.78C150.773 155.82 149.733 155.1 147.973 155.1C145.093 155.1 143.153 157.3 143.153 160.16C143.153 163.04 145.093 165.24 147.973 165.24ZM157.975 165.24C159.555 165.24 160.855 164.72 161.815 163.76L161.095 162.78C160.335 163.56 159.215 164 158.115 164C156.035 164 154.755 162.48 154.635 160.66H162.455V160.28C162.455 157.38 160.735 155.1 157.815 155.1C155.055 155.1 153.055 157.36 153.055 160.16C153.055 163.18 155.115 165.24 157.975 165.24ZM160.975 159.56H154.635C154.715 158.08 155.735 156.34 157.795 156.34C159.995 156.34 160.955 158.12 160.975 159.56ZM167.945 165.24C170.445 165.24 171.745 163.94 171.745 162.32C171.745 158.56 165.765 159.96 165.765 157.84C165.765 156.98 166.585 156.32 167.905 156.32C169.145 156.32 170.205 156.84 170.785 157.54L171.485 156.5C170.705 155.72 169.545 155.1 167.905 155.1C165.605 155.1 164.305 156.38 164.305 157.88C164.305 161.46 170.285 160.02 170.285 162.36C170.285 163.32 169.485 164.02 168.005 164.02C166.685 164.02 165.465 163.38 164.825 162.64L164.045 163.72C165.025 164.76 166.365 165.24 167.945 165.24ZM177.242 165.24C179.742 165.24 181.042 163.94 181.042 162.32C181.042 158.56 175.062 159.96 175.062 157.84C175.062 156.98 175.882 156.32 177.202 156.32C178.442 156.32 179.502 156.84 180.082 157.54L180.782 156.5C180.002 155.72 178.842 155.1 177.202 155.1C174.902 155.1 173.602 156.38 173.602 157.88C173.602 161.46 179.582 160.02 179.582 162.36C179.582 163.32 178.782 164.02 177.302 164.02C175.982 164.02 174.762 163.38 174.122 162.64L173.342 163.72C174.322 164.76 175.662 165.24 177.242 165.24ZM196.175 165V158.36C196.175 156.02 194.475 155.1 192.435 155.1C190.855 155.1 189.615 155.62 188.575 156.7L189.275 157.74C190.135 156.82 191.075 156.4 192.235 156.4C193.635 156.4 194.675 157.14 194.675 158.44V160.18C193.895 159.28 192.795 158.86 191.475 158.86C189.835 158.86 188.095 159.88 188.095 162.04C188.095 164.14 189.835 165.24 191.475 165.24C192.775 165.24 193.875 164.78 194.675 163.9V165H196.175ZM192.015 164.16C190.615 164.16 189.635 163.28 189.635 162.06C189.635 160.82 190.615 159.94 192.015 159.94C193.075 159.94 194.095 160.34 194.675 161.14V162.96C194.095 163.76 193.075 164.16 192.015 164.16ZM203.442 165.24C205.202 165.24 206.242 164.52 206.982 163.56L205.982 162.64C205.342 163.5 204.522 163.9 203.522 163.9C201.462 163.9 200.182 162.3 200.182 160.16C200.182 158.02 201.462 156.44 203.522 156.44C204.522 156.44 205.342 156.82 205.982 157.7L206.982 156.78C206.242 155.82 205.202 155.1 203.442 155.1C200.562 155.1 198.622 157.3 198.622 160.16C198.622 163.04 200.562 165.24 203.442 165.24ZM210.584 165V158.16C211.024 157.38 212.284 156.62 213.204 156.62C213.444 156.62 213.624 156.64 213.804 156.68V155.14C212.484 155.14 211.364 155.88 210.584 156.9V155.34H209.084V165H210.584ZM219.906 165.24C222.846 165.24 224.686 162.96 224.686 160.16C224.686 157.36 222.846 155.1 219.906 155.1C216.966 155.1 215.126 157.36 215.126 160.16C215.126 162.96 216.966 165.24 219.906 165.24ZM219.906 163.9C217.846 163.9 216.686 162.14 216.686 160.16C216.686 158.2 217.846 156.44 219.906 156.44C221.966 156.44 223.106 158.2 223.106 160.16C223.106 162.14 221.966 163.9 219.906 163.9ZM230.191 165.24C232.691 165.24 233.991 163.94 233.991 162.32C233.991 158.56 228.011 159.96 228.011 157.84C228.011 156.98 228.831 156.32 230.151 156.32C231.391 156.32 232.451 156.84 233.031 157.54L233.731 156.5C232.951 155.72 231.791 155.1 230.151 155.1C227.851 155.1 226.551 156.38 226.551 157.88C226.551 161.46 232.531 160.02 232.531 162.36C232.531 163.32 231.731 164.02 230.251 164.02C228.931 164.02 227.711 163.38 227.071 162.64L226.291 163.72C227.271 164.76 228.611 165.24 230.191 165.24ZM239.488 165.24C241.988 165.24 243.288 163.94 243.288 162.32C243.288 158.56 237.308 159.96 237.308 157.84C237.308 156.98 238.128 156.32 239.448 156.32C240.688 156.32 241.748 156.84 242.328 157.54L243.028 156.5C242.248 155.72 241.088 155.1 239.448 155.1C237.148 155.1 235.848 156.38 235.848 157.88C235.848 161.46 241.828 160.02 241.828 162.36C241.828 163.32 241.028 164.02 239.548 164.02C238.228 164.02 237.008 163.38 236.368 162.64L235.588 163.72C236.568 164.76 237.908 165.24 239.488 165.24ZM264.041 165V158.02C264.041 156.08 263.101 155.1 261.341 155.1C259.941 155.1 258.641 156.02 258.101 156.9C257.821 155.9 256.981 155.1 255.501 155.1C254.081 155.1 252.781 156.12 252.381 156.74V155.34H250.881V165H252.381V157.94C252.901 157.16 253.941 156.44 254.921 156.44C256.181 156.44 256.701 157.22 256.701 158.44V165H258.201V157.92C258.701 157.16 259.761 156.44 260.761 156.44C262.001 156.44 262.541 157.22 262.541 158.44V165H264.041ZM275.053 165V155.34H273.553V162.44C272.993 163.22 271.873 163.9 270.693 163.9C269.393 163.9 268.533 163.4 268.533 161.7V155.34H267.033V162.16C267.033 164.26 268.093 165.24 270.113 165.24C271.553 165.24 272.813 164.48 273.553 163.64V165H275.053ZM279.549 165V151.66H278.049V165H279.549ZM284.981 165.24C285.861 165.24 286.401 164.98 286.781 164.62L286.341 163.5C286.141 163.72 285.741 163.9 285.321 163.9C284.661 163.9 284.341 163.38 284.341 162.66V156.66H286.301V155.34H284.341V152.7H282.841V155.34H281.241V156.66H282.841V162.98C282.841 164.42 283.561 165.24 284.981 165.24ZM289.16 153.96C289.72 153.96 290.18 153.52 290.18 152.96C290.18 152.4 289.72 151.94 289.16 151.94C288.62 151.94 288.16 152.4 288.16 152.96C288.16 153.52 288.62 153.96 289.16 153.96ZM289.92 165V155.34H288.42V165H289.92ZM297.672 165.24C300.212 165.24 301.972 163.28 301.972 160.16C301.972 157.02 300.212 155.1 297.672 155.1C296.312 155.1 295.112 155.8 294.412 156.78V155.34H292.912V168.68H294.412V163.54C295.192 164.62 296.352 165.24 297.672 165.24ZM297.292 163.9C296.112 163.9 294.932 163.18 294.412 162.34V157.98C294.932 157.14 296.112 156.44 297.292 156.44C299.232 156.44 300.392 158.02 300.392 160.16C300.392 162.3 299.232 163.9 297.292 163.9ZM305.857 165V151.66H304.357V165H305.857ZM313.21 165.24C314.79 165.24 316.09 164.72 317.05 163.76L316.33 162.78C315.57 163.56 314.45 164 313.35 164C311.27 164 309.99 162.48 309.87 160.66H317.69V160.28C317.69 157.38 315.97 155.1 313.05 155.1C310.29 155.1 308.29 157.36 308.29 160.16C308.29 163.18 310.35 165.24 313.21 165.24ZM316.21 159.56H309.87C309.95 158.08 310.97 156.34 313.03 156.34C315.23 156.34 316.19 158.12 316.21 159.56ZM329.535 165.24C331.295 165.24 332.335 164.52 333.075 163.56L332.075 162.64C331.435 163.5 330.615 163.9 329.615 163.9C327.555 163.9 326.275 162.3 326.275 160.16C326.275 158.02 327.555 156.44 329.615 156.44C330.615 156.44 331.435 156.82 332.075 157.7L333.075 156.78C332.335 155.82 331.295 155.1 329.535 155.1C326.655 155.1 324.715 157.3 324.715 160.16C324.715 163.04 326.655 165.24 329.535 165.24ZM343.218 165V158.18C343.218 156.08 342.158 155.1 340.138 155.1C338.678 155.1 337.358 155.94 336.678 156.74V151.66H335.178V165H336.678V157.94C337.258 157.16 338.378 156.44 339.538 156.44C340.838 156.44 341.718 156.94 341.718 158.64V165H343.218ZM353.753 165V158.36C353.753 156.02 352.053 155.1 350.013 155.1C348.433 155.1 347.193 155.62 346.153 156.7L346.853 157.74C347.713 156.82 348.653 156.4 349.813 156.4C351.213 156.4 352.253 157.14 352.253 158.44V160.18C351.473 159.28 350.373 158.86 349.053 158.86C347.413 158.86 345.673 159.88 345.673 162.04C345.673 164.14 347.413 165.24 349.053 165.24C350.353 165.24 351.453 164.78 352.253 163.9V165H353.753ZM349.593 164.16C348.193 164.16 347.213 163.28 347.213 162.06C347.213 160.82 348.193 159.94 349.593 159.94C350.653 159.94 351.673 160.34 352.253 161.14V162.96C351.673 163.76 350.653 164.16 349.593 164.16ZM364.78 165V158.22C364.78 156.12 363.72 155.1 361.7 155.1C360.26 155.1 358.94 155.94 358.26 156.74V155.34H356.76V165H358.26V157.94C358.82 157.16 359.94 156.44 361.12 156.44C362.42 156.44 363.28 156.98 363.28 158.68V165H364.78ZM375.795 165V158.22C375.795 156.12 374.735 155.1 372.715 155.1C371.275 155.1 369.955 155.94 369.275 156.74V155.34H367.775V165H369.275V157.94C369.835 157.16 370.955 156.44 372.135 156.44C373.435 156.44 374.295 156.98 374.295 158.68V165H375.795ZM383.151 165.24C384.731 165.24 386.031 164.72 386.991 163.76L386.271 162.78C385.511 163.56 384.391 164 383.291 164C381.211 164 379.931 162.48 379.811 160.66H387.631V160.28C387.631 157.38 385.911 155.1 382.991 155.1C380.231 155.1 378.231 157.36 378.231 160.16C378.231 163.18 380.291 165.24 383.151 165.24ZM386.151 159.56H379.811C379.891 158.08 380.911 156.34 382.971 156.34C385.171 156.34 386.131 158.12 386.151 159.56ZM391.561 165V151.66H390.061V165H391.561ZM397.613 165.24C400.113 165.24 401.413 163.94 401.413 162.32C401.413 158.56 395.433 159.96 395.433 157.84C395.433 156.98 396.253 156.32 397.573 156.32C398.813 156.32 399.873 156.84 400.453 157.54L401.153 156.5C400.373 155.72 399.213 155.1 397.573 155.1C395.273 155.1 393.973 156.38 393.973 157.88C393.973 161.46 399.953 160.02 399.953 162.36C399.953 163.32 399.153 164.02 397.673 164.02C396.353 164.02 395.133 163.38 394.493 162.64L393.713 163.72C394.693 164.76 396.033 165.24 397.613 165.24ZM121.118 197V190.18C121.118 188.08 120.058 187.1 118.038 187.1C116.578 187.1 115.258 187.94 114.578 188.74V183.66H113.078V197H114.578V189.94C115.158 189.16 116.278 188.44 117.438 188.44C118.738 188.44 119.618 188.94 119.618 190.64V197H121.118ZM131.653 197V190.36C131.653 188.02 129.953 187.1 127.913 187.1C126.333 187.1 125.093 187.62 124.053 188.7L124.753 189.74C125.613 188.82 126.553 188.4 127.713 188.4C129.113 188.4 130.153 189.14 130.153 190.44V192.18C129.373 191.28 128.273 190.86 126.953 190.86C125.313 190.86 123.573 191.88 123.573 194.04C123.573 196.14 125.313 197.24 126.953 197.24C128.253 197.24 129.353 196.78 130.153 195.9V197H131.653ZM127.493 196.16C126.093 196.16 125.113 195.28 125.113 194.06C125.113 192.82 126.093 191.94 127.493 191.94C128.553 191.94 129.573 192.34 130.153 193.14V194.96C129.573 195.76 128.553 196.16 127.493 196.16ZM137.72 197.24C140.22 197.24 141.52 195.94 141.52 194.32C141.52 190.56 135.54 191.96 135.54 189.84C135.54 188.98 136.36 188.32 137.68 188.32C138.92 188.32 139.98 188.84 140.56 189.54L141.26 188.5C140.48 187.72 139.32 187.1 137.68 187.1C135.38 187.1 134.08 188.38 134.08 189.88C134.08 193.46 140.06 192.02 140.06 194.36C140.06 195.32 139.26 196.02 137.78 196.02C136.46 196.02 135.24 195.38 134.6 194.64L133.82 195.72C134.8 196.76 136.14 197.24 137.72 197.24ZM157.133 197V190.22C157.133 188.12 156.073 187.1 154.053 187.1C152.613 187.1 151.293 187.94 150.613 188.74V187.34H149.113V197H150.613V189.94C151.173 189.16 152.293 188.44 153.473 188.44C154.773 188.44 155.633 188.98 155.633 190.68V197H157.133ZM164.489 197.24C166.069 197.24 167.369 196.72 168.329 195.76L167.609 194.78C166.849 195.56 165.729 196 164.629 196C162.549 196 161.269 194.48 161.149 192.66H168.969V192.28C168.969 189.38 167.249 187.1 164.329 187.1C161.569 187.1 159.569 189.36 159.569 192.16C159.569 195.18 161.629 197.24 164.489 197.24ZM167.489 191.56H161.149C161.229 190.08 162.249 188.34 164.309 188.34C166.509 188.34 167.469 190.12 167.489 191.56ZM175.618 197L179.638 187.34H177.998L174.798 195.26L171.578 187.34H169.958L173.978 197H175.618ZM185.563 197.24C187.143 197.24 188.443 196.72 189.403 195.76L188.683 194.78C187.923 195.56 186.803 196 185.703 196C183.623 196 182.343 194.48 182.223 192.66H190.043V192.28C190.043 189.38 188.323 187.1 185.403 187.1C182.643 187.1 180.643 189.36 180.643 192.16C180.643 195.18 182.703 197.24 185.563 197.24ZM188.563 191.56H182.223C182.303 190.08 183.323 188.34 185.383 188.34C187.583 188.34 188.543 190.12 188.563 191.56ZM193.973 197V190.16C194.413 189.38 195.673 188.62 196.593 188.62C196.833 188.62 197.013 188.64 197.193 188.68V187.14C195.873 187.14 194.753 187.88 193.973 188.9V187.34H192.473V197H193.973ZM205.73 194.38V190C206.25 189.16 207.43 188.44 208.61 188.44C210.57 188.44 211.73 190.04 211.73 192.18C211.73 194.32 210.57 195.9 208.61 195.9C207.43 195.9 206.25 195.22 205.73 194.38ZM205.73 197V195.56C206.45 196.54 207.63 197.24 208.99 197.24C211.51 197.24 213.29 195.32 213.29 192.18C213.29 189.1 211.51 187.1 208.99 187.1C207.67 187.1 206.51 187.74 205.73 188.8V183.66H204.23V197H205.73ZM220.094 197.24C221.674 197.24 222.974 196.72 223.934 195.76L223.214 194.78C222.454 195.56 221.334 196 220.234 196C218.154 196 216.874 194.48 216.754 192.66H224.574V192.28C224.574 189.38 222.854 187.1 219.934 187.1C217.174 187.1 215.174 189.36 215.174 192.16C215.174 195.18 217.234 197.24 220.094 197.24ZM223.094 191.56H216.754C216.834 190.08 217.854 188.34 219.914 188.34C222.114 188.34 223.074 190.12 223.094 191.56ZM231.364 197.24C232.944 197.24 234.244 196.72 235.204 195.76L234.484 194.78C233.724 195.56 232.604 196 231.504 196C229.424 196 228.144 194.48 228.024 192.66H235.844V192.28C235.844 189.38 234.124 187.1 231.204 187.1C228.444 187.1 226.444 189.36 226.444 192.16C226.444 195.18 228.504 197.24 231.364 197.24ZM234.364 191.56H228.024C228.104 190.08 229.124 188.34 231.184 188.34C233.384 188.34 234.344 190.12 234.364 191.56ZM246.293 197V190.22C246.293 188.12 245.233 187.1 243.213 187.1C241.773 187.1 240.453 187.94 239.773 188.74V187.34H238.273V197H239.773V189.94C240.333 189.16 241.453 188.44 242.633 188.44C243.933 188.44 244.793 188.98 244.793 190.68V197H246.293ZM258.805 197.24C260.385 197.24 261.685 196.72 262.645 195.76L261.925 194.78C261.165 195.56 260.045 196 258.945 196C256.865 196 255.585 194.48 255.465 192.66H263.285V192.28C263.285 189.38 261.565 187.1 258.645 187.1C255.885 187.1 253.885 189.36 253.885 192.16C253.885 195.18 255.945 197.24 258.805 197.24ZM261.805 191.56H255.465C255.545 190.08 256.565 188.34 258.625 188.34C260.825 188.34 261.785 190.12 261.805 191.56ZM273.255 197V190.36C273.255 188.02 271.555 187.1 269.515 187.1C267.935 187.1 266.695 187.62 265.655 188.7L266.355 189.74C267.215 188.82 268.155 188.4 269.315 188.4C270.715 188.4 271.755 189.14 271.755 190.44V192.18C270.975 191.28 269.875 190.86 268.555 190.86C266.915 190.86 265.175 191.88 265.175 194.04C265.175 196.14 266.915 197.24 268.555 197.24C269.855 197.24 270.955 196.78 271.755 195.9V197H273.255ZM269.095 196.16C267.695 196.16 266.715 195.28 266.715 194.06C266.715 192.82 267.695 191.94 269.095 191.94C270.155 191.94 271.175 192.34 271.755 193.14V194.96C271.175 195.76 270.155 196.16 269.095 196.16ZM279.322 197.24C281.822 197.24 283.122 195.94 283.122 194.32C283.122 190.56 277.142 191.96 277.142 189.84C277.142 188.98 277.962 188.32 279.282 188.32C280.522 188.32 281.582 188.84 282.162 189.54L282.862 188.5C282.082 187.72 280.922 187.1 279.282 187.1C276.982 187.1 275.682 188.38 275.682 189.88C275.682 193.46 281.662 192.02 281.662 194.36C281.662 195.32 280.862 196.02 279.382 196.02C278.062 196.02 276.842 195.38 276.202 194.64L275.422 195.72C276.402 196.76 277.742 197.24 279.322 197.24ZM286.299 185.96C286.859 185.96 287.319 185.52 287.319 184.96C287.319 184.4 286.859 183.94 286.299 183.94C285.759 183.94 285.299 184.4 285.299 184.96C285.299 185.52 285.759 185.96 286.299 185.96ZM287.059 197V187.34H285.559V197H287.059ZM294.411 197.24C295.991 197.24 297.291 196.72 298.251 195.76L297.531 194.78C296.771 195.56 295.651 196 294.551 196C292.471 196 291.191 194.48 291.071 192.66H298.891V192.28C298.891 189.38 297.171 187.1 294.251 187.1C291.491 187.1 289.491 189.36 289.491 192.16C289.491 195.18 291.551 197.24 294.411 197.24ZM297.411 191.56H291.071C291.151 190.08 292.171 188.34 294.231 188.34C296.431 188.34 297.391 190.12 297.411 191.56ZM302.82 197V190.16C303.26 189.38 304.52 188.62 305.44 188.62C305.68 188.62 305.86 188.64 306.04 188.68V187.14C304.72 187.14 303.6 187.88 302.82 188.9V187.34H301.32V197H302.82Z" fill="white"/>
</svg>
