<svg viewBox="0 0 635 642" fill="none" xmlns="http://www.w3.org/2000/svg">
<path d="M118.474 58.9877C118.474 58.9945 118.469 59 118.462 59H92.2876C91.7353 59 91.2876 58.5523 91.2876 58V2C91.2876 1.44771 91.7353 1 92.2876 1H117.847C120.289 1.00213 122.665 1.90155 124.615 3.56276C126.566 5.22397 127.986 7.55699 128.663 10.2104C129.339 12.8638 129.234 15.6938 128.365 18.2741C127.686 20.287 126.571 22.0629 125.132 23.4451C124.586 23.9702 124.665 24.9313 125.304 25.339C127.46 26.7143 129.302 28.6562 130.668 31.0111C132.335 33.883 133.222 37.2435 133.219 40.6785V41.3883C133.222 45.8979 131.695 50.2368 128.951 53.5096C126.21 56.7792 122.464 58.7354 118.486 58.9755C118.479 58.9759 118.474 58.9812 118.474 58.9877V58.9877ZM94.2785 54.6179C94.2785 55.1702 94.7262 55.6179 95.2785 55.6179H105.687C106.624 55.6179 107.096 54.3839 106.485 53.6736C105.142 52.1118 104.059 50.2769 103.299 48.2564C102.486 46.0897 102.068 43.7599 102.07 41.4063V40.6961C102.066 36.2498 103.55 31.9664 106.223 28.7057C108.897 25.4449 112.562 23.4482 116.483 23.116C116.882 23.0824 117.291 23.0659 117.695 23.0676C117.854 23.0676 118.013 23.0708 118.171 23.0774C120.309 22.9824 122.331 21.9544 123.812 20.2093C125.294 18.4642 126.12 16.1377 126.117 13.7185C126.11 8.57013 122.4 4.38171 117.847 4.38171H95.2785C94.7262 4.38171 94.2785 4.82942 94.2785 5.38171V54.6179ZM117.643 26.448C117.329 26.448 117.013 26.4612 116.702 26.4891C110.167 27.035 105.053 33.2747 105.06 40.6949V41.4047C105.067 49.243 110.713 55.6199 117.644 55.6199C124.582 55.6199 130.228 49.2365 130.228 41.3899V40.6785C130.228 33.0385 124.858 26.7692 118.161 26.4604C118.059 26.4636 117.956 26.4652 117.853 26.4653C117.849 26.4653 117.846 26.4619 117.846 26.4577V26.4577C117.846 26.4535 117.842 26.4501 117.838 26.4501C117.787 26.4501 117.734 26.4501 117.684 26.4501L117.643 26.448Z" fill="white" stroke="white" stroke-width="0.3"/>
<path d="M174.193 45C180.543 45 183.893 41 183.893 36C183.893 31.8 181.043 28.35 177.493 27.8C180.643 27.15 183.243 24.35 183.243 20.15C183.243 15.7 179.993 11.65 173.643 11.65H156.093V45H174.193ZM172.093 25H163.193V17.75H172.093C174.493 17.75 175.993 19.3 175.993 21.4C175.993 23.5 174.493 25 172.093 25ZM172.343 38.85H163.193V31.1H172.343C175.143 31.1 176.643 32.9 176.643 35C176.643 37.4 175.043 38.85 172.343 38.85ZM209.947 45V29.4C209.947 22.45 204.897 20.25 199.397 20.25C195.597 20.25 191.797 21.45 188.847 24.05L191.247 28.3C193.297 26.4 195.697 25.45 198.297 25.45C201.497 25.45 203.597 27.05 203.597 29.5V32.75C201.997 30.85 199.147 29.8 195.947 29.8C192.097 29.8 187.547 31.95 187.547 37.6C187.547 43 192.097 45.6 195.947 45.6C199.097 45.6 201.947 44.45 203.597 42.5V45H209.947ZM198.497 41.3C195.997 41.3 193.947 40 193.947 37.75C193.947 35.4 195.997 34.1 198.497 34.1C200.547 34.1 202.547 34.8 203.597 36.2V39.2C202.547 40.6 200.547 41.3 198.497 41.3ZM238.896 45V27.95C238.896 23.25 236.346 20.25 231.046 20.25C227.096 20.25 224.146 22.15 222.596 24V20.85H216.246V45H222.596V28.75C223.646 27.3 225.596 25.9 228.096 25.9C230.796 25.9 232.546 27.05 232.546 30.4V45H238.896ZM266.051 45V29.4C266.051 22.45 261.001 20.25 255.501 20.25C251.701 20.25 247.901 21.45 244.951 24.05L247.351 28.3C249.401 26.4 251.801 25.45 254.401 25.45C257.601 25.45 259.701 27.05 259.701 29.5V32.75C258.101 30.85 255.251 29.8 252.051 29.8C248.201 29.8 243.651 31.95 243.651 37.6C243.651 43 248.201 45.6 252.051 45.6C255.201 45.6 258.051 44.45 259.701 42.5V45H266.051ZM254.601 41.3C252.101 41.3 250.051 40 250.051 37.75C250.051 35.4 252.101 34.1 254.601 34.1C256.651 34.1 258.651 34.8 259.701 36.2V39.2C258.651 40.6 256.651 41.3 254.601 41.3ZM278.699 37.25V28.7C279.749 27.1 282.099 25.9 284.149 25.9C287.849 25.9 290.299 28.75 290.299 32.95C290.299 37.15 287.849 39.95 284.149 39.95C282.099 39.95 279.749 38.8 278.699 37.25ZM278.699 45V41.9C280.599 44.3 283.249 45.6 286.149 45.6C292.249 45.6 296.849 41 296.849 32.95C296.849 25.05 292.299 20.25 286.149 20.25C283.299 20.25 280.599 21.5 278.699 23.95V11.65H272.349V45H278.699ZM312.846 45.6C320.846 45.6 325.646 39.8 325.646 32.9C325.646 26.05 320.846 20.25 312.846 20.25C304.896 20.25 300.096 26.05 300.096 32.9C300.096 39.8 304.896 45.6 312.846 45.6ZM312.846 39.95C308.896 39.95 306.696 36.7 306.696 32.9C306.696 29.15 308.896 25.9 312.846 25.9C316.796 25.9 319.046 29.15 319.046 32.9C319.046 36.7 316.796 39.95 312.846 39.95Z" fill="white"/>
<path d="M94.88 103.24C97.24 103.24 98.84 102.12 99.96 100.6L98.54 99.82C97.78 100.96 96.4 101.76 94.88 101.76C91.96 101.76 89.74 99.5 89.74 96.34C89.74 93.16 91.96 90.92 94.88 90.92C96.4 90.92 97.78 91.74 98.54 92.86L99.94 92.08C98.88 90.58 97.24 89.44 94.88 89.44C91.04 89.44 88.02 92.24 88.02 96.34C88.02 100.44 91.04 103.24 94.88 103.24ZM106.236 103.24C109.176 103.24 111.016 100.96 111.016 98.16C111.016 95.36 109.176 93.1 106.236 93.1C103.296 93.1 101.456 95.36 101.456 98.16C101.456 100.96 103.296 103.24 106.236 103.24ZM106.236 101.9C104.176 101.9 103.016 100.14 103.016 98.16C103.016 96.2 104.176 94.44 106.236 94.44C108.296 94.44 109.436 96.2 109.436 98.16C109.436 100.14 108.296 101.9 106.236 101.9ZM126.621 103V96.02C126.621 94.08 125.681 93.1 123.921 93.1C122.521 93.1 121.221 94.02 120.681 94.9C120.401 93.9 119.561 93.1 118.081 93.1C116.661 93.1 115.361 94.12 114.961 94.74V93.34H113.461V103H114.961V95.94C115.481 95.16 116.521 94.44 117.501 94.44C118.761 94.44 119.281 95.22 119.281 96.44V103H120.781V95.92C121.281 95.16 122.341 94.44 123.341 94.44C124.581 94.44 125.121 95.22 125.121 96.44V103H126.621ZM134.373 103.24C136.913 103.24 138.673 101.28 138.673 98.16C138.673 95.02 136.913 93.1 134.373 93.1C133.013 93.1 131.813 93.8 131.113 94.78V93.34H129.613V106.68H131.113V101.54C131.893 102.62 133.053 103.24 134.373 103.24ZM133.993 101.9C132.813 101.9 131.633 101.18 131.113 100.34V95.98C131.633 95.14 132.813 94.44 133.993 94.44C135.933 94.44 137.093 96.02 137.093 98.16C137.093 100.3 135.933 101.9 133.993 101.9ZM142.559 103V89.66H141.059V103H142.559ZM149.911 103.24C151.491 103.24 152.791 102.72 153.751 101.76L153.031 100.78C152.271 101.56 151.151 102 150.051 102C147.971 102 146.691 100.48 146.571 98.66H154.391V98.28C154.391 95.38 152.671 93.1 149.751 93.1C146.991 93.1 144.991 95.36 144.991 98.16C144.991 101.18 147.051 103.24 149.911 103.24ZM152.911 97.56H146.571C146.651 96.08 147.671 94.34 149.731 94.34C151.931 94.34 152.891 96.12 152.911 97.56ZM159.26 103.24C160.14 103.24 160.68 102.98 161.06 102.62L160.62 101.5C160.42 101.72 160.02 101.9 159.6 101.9C158.94 101.9 158.62 101.38 158.62 100.66V94.66H160.58V93.34H158.62V90.7H157.12V93.34H155.52V94.66H157.12V100.98C157.12 102.42 157.84 103.24 159.26 103.24ZM167.059 103.24C168.639 103.24 169.939 102.72 170.899 101.76L170.179 100.78C169.419 101.56 168.299 102 167.199 102C165.119 102 163.839 100.48 163.719 98.66H171.539V98.28C171.539 95.38 169.819 93.1 166.899 93.1C164.139 93.1 162.139 95.36 162.139 98.16C162.139 101.18 164.199 103.24 167.059 103.24ZM170.059 97.56H163.719C163.799 96.08 164.819 94.34 166.879 94.34C169.079 94.34 170.039 96.12 170.059 97.56ZM175.469 103V89.66H173.969V103H175.469ZM177.921 106.78C178.201 106.86 178.701 106.92 179.021 106.92C180.301 106.9 181.281 106.36 181.861 104.96L186.701 93.34H185.061L181.861 101.26L178.641 93.34H177.021L181.061 103.1L180.421 104.56C180.081 105.36 179.641 105.58 178.981 105.58C178.741 105.58 178.381 105.52 178.161 105.42L177.921 106.78ZM206.582 103V96.02C206.582 94.08 205.642 93.1 203.882 93.1C202.482 93.1 201.182 94.02 200.642 94.9C200.362 93.9 199.522 93.1 198.042 93.1C196.622 93.1 195.322 94.12 194.922 94.74V93.34H193.422V103H194.922V95.94C195.442 95.16 196.482 94.44 197.462 94.44C198.722 94.44 199.242 95.22 199.242 96.44V103H200.742V95.92C201.242 95.16 202.302 94.44 203.302 94.44C204.542 94.44 205.082 95.22 205.082 96.44V103H206.582ZM217.114 103V96.36C217.114 94.02 215.414 93.1 213.374 93.1C211.794 93.1 210.554 93.62 209.514 94.7L210.214 95.74C211.074 94.82 212.014 94.4 213.174 94.4C214.574 94.4 215.614 95.14 215.614 96.44V98.18C214.834 97.28 213.734 96.86 212.414 96.86C210.774 96.86 209.034 97.88 209.034 100.04C209.034 102.14 210.774 103.24 212.414 103.24C213.714 103.24 214.814 102.78 215.614 101.9V103H217.114ZM212.954 102.16C211.554 102.16 210.574 101.28 210.574 100.06C210.574 98.82 211.554 97.94 212.954 97.94C214.014 97.94 215.034 98.34 215.614 99.14V100.96C215.034 101.76 214.014 102.16 212.954 102.16ZM224.881 103.24C227.421 103.24 229.181 101.28 229.181 98.16C229.181 95.02 227.421 93.1 224.881 93.1C223.521 93.1 222.321 93.8 221.621 94.78V93.34H220.121V106.68H221.621V101.54C222.401 102.62 223.561 103.24 224.881 103.24ZM224.501 101.9C223.321 101.9 222.141 101.18 221.621 100.34V95.98C222.141 95.14 223.321 94.44 224.501 94.44C226.441 94.44 227.601 96.02 227.601 98.16C227.601 100.3 226.441 101.9 224.501 101.9ZM241.083 103.24C242.663 103.24 243.963 102.72 244.923 101.76L244.203 100.78C243.443 101.56 242.323 102 241.223 102C239.143 102 237.863 100.48 237.743 98.66H245.563V98.28C245.563 95.38 243.843 93.1 240.923 93.1C238.163 93.1 236.163 95.36 236.163 98.16C236.163 101.18 238.223 103.24 241.083 103.24ZM244.083 97.56H237.743C237.823 96.08 238.843 94.34 240.903 94.34C243.103 94.34 244.063 96.12 244.083 97.56ZM252.212 103L256.232 93.34H254.592L251.392 101.26L248.172 93.34H246.552L250.572 103H252.212ZM262.157 103.24C263.737 103.24 265.037 102.72 265.997 101.76L265.277 100.78C264.517 101.56 263.397 102 262.297 102C260.217 102 258.937 100.48 258.817 98.66H266.637V98.28C266.637 95.38 264.917 93.1 261.997 93.1C259.237 93.1 257.237 95.36 257.237 98.16C257.237 101.18 259.297 103.24 262.157 103.24ZM265.157 97.56H258.817C258.897 96.08 259.917 94.34 261.977 94.34C264.177 94.34 265.137 96.12 265.157 97.56ZM270.566 103V96.16C271.006 95.38 272.266 94.62 273.186 94.62C273.426 94.62 273.606 94.64 273.786 94.68V93.14C272.466 93.14 271.346 93.88 270.566 94.9V93.34H269.066V103H270.566ZM275.128 106.78C275.408 106.86 275.908 106.92 276.228 106.92C277.508 106.9 278.488 106.36 279.068 104.96L283.908 93.34H282.268L279.068 101.26L275.848 93.34H274.228L278.268 103.1L277.628 104.56C277.288 105.36 276.848 105.58 276.188 105.58C275.948 105.58 275.588 105.52 275.368 105.42L275.128 106.78ZM298.649 103V93.34H297.149V100.44C296.589 101.22 295.469 101.9 294.289 101.9C292.989 101.9 292.129 101.4 292.129 99.7V93.34H290.629V100.16C290.629 102.26 291.689 103.24 293.709 103.24C295.149 103.24 296.409 102.48 297.149 101.64V103H298.649ZM309.665 103V96.22C309.665 94.12 308.605 93.1 306.585 93.1C305.145 93.1 303.825 93.94 303.145 94.74V93.34H301.645V103H303.145V95.94C303.705 95.16 304.825 94.44 306.005 94.44C307.305 94.44 308.165 94.98 308.165 96.68V103H309.665ZM313.4 91.96C313.96 91.96 314.42 91.52 314.42 90.96C314.42 90.4 313.96 89.94 313.4 89.94C312.86 89.94 312.4 90.4 312.4 90.96C312.4 91.52 312.86 91.96 313.4 91.96ZM314.16 103V93.34H312.66V103H314.16ZM321.192 101.9C319.252 101.9 318.112 100.3 318.112 98.16C318.112 96.02 319.252 94.44 321.192 94.44C322.392 94.44 323.572 95.14 324.072 95.98V100.34C323.572 101.18 322.392 101.9 321.192 101.9ZM320.832 103.24C322.132 103.24 323.292 102.62 324.072 101.54V106.68H325.572V93.34H324.072V94.78C323.392 93.8 322.192 93.1 320.832 93.1C318.292 93.1 316.532 95.02 316.532 98.16C316.532 101.28 318.292 103.24 320.832 103.24ZM336.618 103V93.34H335.118V100.44C334.558 101.22 333.438 101.9 332.258 101.9C330.958 101.9 330.098 101.4 330.098 99.7V93.34H328.598V100.16C328.598 102.26 329.658 103.24 331.678 103.24C333.118 103.24 334.378 102.48 335.118 101.64V103H336.618ZM343.973 103.24C345.553 103.24 346.853 102.72 347.813 101.76L347.093 100.78C346.333 101.56 345.213 102 344.113 102C342.033 102 340.753 100.48 340.633 98.66H348.453V98.28C348.453 95.38 346.733 93.1 343.813 93.1C341.053 93.1 339.053 95.36 339.053 98.16C339.053 101.18 341.113 103.24 343.973 103.24ZM346.973 97.56H340.633C340.713 96.08 341.733 94.34 343.793 94.34C345.993 94.34 346.953 96.12 346.973 97.56ZM360.259 103L364.279 93.34H362.639L359.439 101.26L356.219 93.34H354.599L358.619 103H360.259ZM366.584 91.96C367.144 91.96 367.604 91.52 367.604 90.96C367.604 90.4 367.144 89.94 366.584 89.94C366.044 89.94 365.584 90.4 365.584 90.96C365.584 91.52 366.044 91.96 366.584 91.96ZM367.344 103V93.34H365.844V103H367.344ZM373.396 103.24C375.896 103.24 377.196 101.94 377.196 100.32C377.196 96.56 371.216 97.96 371.216 95.84C371.216 94.98 372.036 94.32 373.356 94.32C374.596 94.32 375.656 94.84 376.236 95.54L376.936 94.5C376.156 93.72 374.996 93.1 373.356 93.1C371.056 93.1 369.756 94.38 369.756 95.88C369.756 99.46 375.736 98.02 375.736 100.36C375.736 101.32 374.936 102.02 373.456 102.02C372.136 102.02 370.916 101.38 370.276 100.64L369.496 101.72C370.476 102.76 371.816 103.24 373.396 103.24ZM380.373 91.96C380.933 91.96 381.393 91.52 381.393 90.96C381.393 90.4 380.933 89.94 380.373 89.94C379.833 89.94 379.373 90.4 379.373 90.96C379.373 91.52 379.833 91.96 380.373 91.96ZM381.133 103V93.34H379.633V103H381.133ZM386.565 103.24C387.445 103.24 387.985 102.98 388.365 102.62L387.925 101.5C387.725 101.72 387.325 101.9 386.905 101.9C386.245 101.9 385.925 101.38 385.925 100.66V94.66H387.885V93.34H385.925V90.7H384.425V93.34H382.825V94.66H384.425V100.98C384.425 102.42 385.145 103.24 386.565 103.24ZM394.224 103.24C397.164 103.24 399.004 100.96 399.004 98.16C399.004 95.36 397.164 93.1 394.224 93.1C391.284 93.1 389.444 95.36 389.444 98.16C389.444 100.96 391.284 103.24 394.224 103.24ZM394.224 101.9C392.164 101.9 391.004 100.14 391.004 98.16C391.004 96.2 392.164 94.44 394.224 94.44C396.284 94.44 397.424 96.2 397.424 98.16C397.424 100.14 396.284 101.9 394.224 101.9ZM402.949 103V96.16C403.389 95.38 404.649 94.62 405.569 94.62C405.809 94.62 405.989 94.64 406.169 94.68V93.14C404.849 93.14 403.729 93.88 402.949 94.9V93.34H401.449V103H402.949ZM410.071 90.98C410.071 90 409.471 89.46 408.811 89.46C408.211 89.46 407.751 89.96 407.751 90.54C407.751 91.14 408.151 91.56 408.711 91.56C408.811 91.56 408.951 91.54 408.991 91.52C408.911 92.16 408.331 92.96 407.691 93.38L408.431 94C409.351 93.34 410.071 92.2 410.071 90.98ZM415.115 103.24C417.615 103.24 418.915 101.94 418.915 100.32C418.915 96.56 412.935 97.96 412.935 95.84C412.935 94.98 413.755 94.32 415.075 94.32C416.315 94.32 417.375 94.84 417.955 95.54L418.655 94.5C417.875 93.72 416.715 93.1 415.075 93.1C412.775 93.1 411.475 94.38 411.475 95.88C411.475 99.46 417.455 98.02 417.455 100.36C417.455 101.32 416.655 102.02 415.175 102.02C413.855 102.02 412.635 101.38 411.995 100.64L411.215 101.72C412.195 102.76 413.535 103.24 415.115 103.24ZM427.248 91.96C427.808 91.96 428.268 91.52 428.268 90.96C428.268 90.4 427.808 89.94 427.248 89.94C426.708 89.94 426.248 90.4 426.248 90.96C426.248 91.52 426.708 91.96 427.248 91.96ZM425.148 106.92C426.988 106.92 428.008 105.84 428.008 103.94V93.34H426.508V103.94C426.508 105.16 425.848 105.68 424.948 105.68C424.348 105.68 423.908 105.4 423.568 105.06L423.028 106.2C423.648 106.68 424.168 106.92 425.148 106.92ZM435.22 103.24C438.16 103.24 440 100.96 440 98.16C440 95.36 438.16 93.1 435.22 93.1C432.28 93.1 430.44 95.36 430.44 98.16C430.44 100.96 432.28 103.24 435.22 103.24ZM435.22 101.9C433.16 101.9 432 100.14 432 98.16C432 96.2 433.16 94.44 435.22 94.44C437.28 94.44 438.42 96.2 438.42 98.16C438.42 100.14 437.28 101.9 435.22 101.9ZM450.465 103V93.34H448.965V100.44C448.405 101.22 447.285 101.9 446.105 101.9C444.805 101.9 443.945 101.4 443.945 99.7V93.34H442.445V100.16C442.445 102.26 443.505 103.24 445.525 103.24C446.965 103.24 448.225 102.48 448.965 101.64V103H450.465ZM454.961 103V96.16C455.401 95.38 456.661 94.62 457.581 94.62C457.821 94.62 458.001 94.64 458.181 94.68V93.14C456.861 93.14 455.741 93.88 454.961 94.9V93.34H453.461V103H454.961ZM468.083 103V96.22C468.083 94.12 467.023 93.1 465.003 93.1C463.562 93.1 462.243 93.94 461.563 94.74V93.34H460.063V103H461.563V95.94C462.123 95.16 463.243 94.44 464.423 94.44C465.723 94.44 466.583 94.98 466.583 96.68V103H468.083ZM475.438 103.24C477.018 103.24 478.318 102.72 479.278 101.76L478.558 100.78C477.798 101.56 476.678 102 475.578 102C473.498 102 472.218 100.48 472.098 98.66H479.918V98.28C479.918 95.38 478.198 93.1 475.278 93.1C472.518 93.1 470.518 95.36 470.518 98.16C470.518 101.18 472.578 103.24 475.438 103.24ZM478.438 97.56H472.098C472.178 96.08 473.198 94.34 475.258 94.34C477.458 94.34 478.418 96.12 478.438 97.56ZM481.808 106.78C482.088 106.86 482.588 106.92 482.908 106.92C484.188 106.9 485.168 106.36 485.748 104.96L490.588 93.34H488.948L485.748 101.26L482.528 93.34H480.908L484.948 103.1L484.308 104.56C483.968 105.36 483.528 105.58 482.868 105.58C482.628 105.58 482.268 105.52 482.048 105.42L481.808 106.78ZM98.36 127L101.44 117.34H99.88L97.52 125.04L94.98 117.34H93.7L91.16 125.04L88.8 117.34H87.24L90.32 127H91.82L94.34 119.24L96.86 127H98.36ZM103.928 115.96C104.488 115.96 104.948 115.52 104.948 114.96C104.948 114.4 104.488 113.94 103.928 113.94C103.388 113.94 102.928 114.4 102.928 114.96C102.928 115.52 103.388 115.96 103.928 115.96ZM104.688 127V117.34H103.188V127H104.688ZM110.12 127.24C111 127.24 111.54 126.98 111.92 126.62L111.48 125.5C111.28 125.72 110.88 125.9 110.46 125.9C109.8 125.9 109.48 125.38 109.48 124.66V118.66H111.44V117.34H109.48V114.7H107.98V117.34H106.38V118.66H107.98V124.98C107.98 126.42 108.7 127.24 110.12 127.24ZM121.599 127V120.18C121.599 118.08 120.539 117.1 118.519 117.1C117.059 117.1 115.739 117.94 115.059 118.74V113.66H113.559V127H115.059V119.94C115.639 119.16 116.759 118.44 117.919 118.44C119.219 118.44 120.099 118.94 120.099 120.64V127H121.599ZM129.21 130.78C129.49 130.86 129.99 130.92 130.31 130.92C131.59 130.9 132.57 130.36 133.15 128.96L137.99 117.34H136.35L133.15 125.26L129.93 117.34H128.31L132.35 127.1L131.71 128.56C131.37 129.36 130.93 129.58 130.27 129.58C130.03 129.58 129.67 129.52 129.45 129.42L129.21 130.78ZM143.775 127.24C146.715 127.24 148.555 124.96 148.555 122.16C148.555 119.36 146.715 117.1 143.775 117.1C140.835 117.1 138.995 119.36 138.995 122.16C138.995 124.96 140.835 127.24 143.775 127.24ZM143.775 125.9C141.715 125.9 140.555 124.14 140.555 122.16C140.555 120.2 141.715 118.44 143.775 118.44C145.835 118.44 146.975 120.2 146.975 122.16C146.975 124.14 145.835 125.9 143.775 125.9ZM159.02 127V117.34H157.52V124.44C156.96 125.22 155.84 125.9 154.66 125.9C153.36 125.9 152.5 125.4 152.5 123.7V117.34H151V124.16C151 126.26 152.06 127.24 154.08 127.24C155.52 127.24 156.78 126.48 157.52 125.64V127H159.02ZM163.516 127V120.16C163.956 119.38 165.216 118.62 166.136 118.62C166.376 118.62 166.556 118.64 166.736 118.68V117.14C165.416 117.14 164.296 117.88 163.516 118.9V117.34H162.016V127H163.516ZM175.273 124.38V120C175.793 119.16 176.973 118.44 178.153 118.44C180.113 118.44 181.273 120.04 181.273 122.18C181.273 124.32 180.113 125.9 178.153 125.9C176.973 125.9 175.793 125.22 175.273 124.38ZM175.273 127V125.56C175.993 126.54 177.173 127.24 178.533 127.24C181.053 127.24 182.833 125.32 182.833 122.18C182.833 119.1 181.053 117.1 178.533 117.1C177.213 117.1 176.053 117.74 175.273 118.8V113.66H173.773V127H175.273ZM186.777 127V120.16C187.217 119.38 188.477 118.62 189.397 118.62C189.637 118.62 189.817 118.64 189.997 118.68V117.14C188.677 117.14 187.557 117.88 186.777 118.9V117.34H185.277V127H186.777ZM199.419 127V120.36C199.419 118.02 197.719 117.1 195.679 117.1C194.099 117.1 192.859 117.62 191.819 118.7L192.519 119.74C193.379 118.82 194.319 118.4 195.479 118.4C196.879 118.4 197.919 119.14 197.919 120.44V122.18C197.139 121.28 196.039 120.86 194.719 120.86C193.079 120.86 191.339 121.88 191.339 124.04C191.339 126.14 193.079 127.24 194.719 127.24C196.019 127.24 197.119 126.78 197.919 125.9V127H199.419ZM195.259 126.16C193.859 126.16 192.879 125.28 192.879 124.06C192.879 122.82 193.859 121.94 195.259 121.94C196.319 121.94 197.339 122.34 197.919 123.14V124.96C197.339 125.76 196.319 126.16 195.259 126.16ZM210.446 127V120.22C210.446 118.12 209.386 117.1 207.366 117.1C205.926 117.1 204.606 117.94 203.926 118.74V117.34H202.426V127H203.926V119.94C204.486 119.16 205.606 118.44 206.786 118.44C208.086 118.44 208.946 118.98 208.946 120.68V127H210.446ZM221.941 127V113.66H220.441V118.8C219.661 117.74 218.481 117.1 217.181 117.1C214.641 117.1 212.881 119.1 212.881 122.18C212.881 125.32 214.661 127.24 217.181 127.24C218.541 127.24 219.721 126.54 220.441 125.56V127H221.941ZM217.541 125.9C215.601 125.9 214.441 124.32 214.441 122.18C214.441 120.04 215.601 118.44 217.541 118.44C218.741 118.44 219.901 119.16 220.441 120V124.38C219.901 125.22 218.741 125.9 217.541 125.9ZM232.542 127.24C233.422 127.24 233.962 126.98 234.342 126.62L233.902 125.5C233.702 125.72 233.302 125.9 232.882 125.9C232.222 125.9 231.902 125.38 231.902 124.66V118.66H233.862V117.34H231.902V114.7H230.402V117.34H228.802V118.66H230.402V124.98C230.402 126.42 231.122 127.24 232.542 127.24ZM244.02 127V120.18C244.02 118.08 242.96 117.1 240.94 117.1C239.48 117.1 238.16 117.94 237.48 118.74V113.66H235.98V127H237.48V119.94C238.06 119.16 239.18 118.44 240.34 118.44C241.64 118.44 242.52 118.94 242.52 120.64V127H244.02ZM248.516 127V120.16C248.956 119.38 250.216 118.62 251.136 118.62C251.376 118.62 251.556 118.64 251.736 118.68V117.14C250.416 117.14 249.296 117.88 248.516 118.9V117.34H247.016V127H248.516ZM257.837 127.24C260.777 127.24 262.617 124.96 262.617 122.16C262.617 119.36 260.777 117.1 257.837 117.1C254.897 117.1 253.057 119.36 253.057 122.16C253.057 124.96 254.897 127.24 257.837 127.24ZM257.837 125.9C255.777 125.9 254.617 124.14 254.617 122.16C254.617 120.2 255.777 118.44 257.837 118.44C259.897 118.44 261.037 120.2 261.037 122.16C261.037 124.14 259.897 125.9 257.837 125.9ZM273.083 127V117.34H271.583V124.44C271.023 125.22 269.903 125.9 268.723 125.9C267.423 125.9 266.563 125.4 266.563 123.7V117.34H265.063V124.16C265.063 126.26 266.123 127.24 268.143 127.24C269.583 127.24 270.843 126.48 271.583 125.64V127H273.083ZM279.958 130.92C282.318 130.92 284.558 129.92 284.558 126.72V117.34H283.058V118.8C282.278 117.74 281.118 117.1 279.818 117.1C277.278 117.1 275.518 119.02 275.518 122.12C275.518 125.24 277.298 127.12 279.818 127.12C281.178 127.12 282.358 126.38 283.058 125.4V126.78C283.058 128.9 281.558 129.68 279.958 129.68C278.578 129.68 277.618 129.32 276.818 128.36L276.058 129.48C277.198 130.6 278.318 130.92 279.958 130.92ZM280.178 125.8C278.238 125.8 277.078 124.24 277.078 122.12C277.078 119.98 278.238 118.44 280.178 118.44C281.378 118.44 282.538 119.16 283.058 120V124.22C282.538 125.06 281.378 125.8 280.178 125.8ZM295.603 127V120.18C295.603 118.08 294.543 117.1 292.523 117.1C291.062 117.1 289.743 117.94 289.063 118.74V113.66H287.563V127H289.063V119.94C289.643 119.16 290.763 118.44 291.923 118.44C293.223 118.44 294.103 118.94 294.103 120.64V127H295.603ZM308.014 127.24C309.774 127.24 310.814 126.52 311.554 125.56L310.554 124.64C309.914 125.5 309.094 125.9 308.094 125.9C306.034 125.9 304.754 124.3 304.754 122.16C304.754 120.02 306.034 118.44 308.094 118.44C309.094 118.44 309.914 118.82 310.554 119.7L311.554 118.78C310.814 117.82 309.774 117.1 308.014 117.1C305.134 117.1 303.194 119.3 303.194 122.16C303.194 125.04 305.134 127.24 308.014 127.24ZM317.876 127.24C320.816 127.24 322.656 124.96 322.656 122.16C322.656 119.36 320.816 117.1 317.876 117.1C314.936 117.1 313.096 119.36 313.096 122.16C313.096 124.96 314.936 127.24 317.876 127.24ZM317.876 125.9C315.816 125.9 314.656 124.14 314.656 122.16C314.656 120.2 315.816 118.44 317.876 118.44C319.936 118.44 321.076 120.2 321.076 122.16C321.076 124.14 319.936 125.9 317.876 125.9ZM333.122 127V120.22C333.122 118.12 332.062 117.1 330.042 117.1C328.602 117.1 327.282 117.94 326.602 118.74V117.34H325.102V127H326.602V119.94C327.162 119.16 328.282 118.44 329.462 118.44C330.762 118.44 331.622 118.98 331.622 120.68V127H333.122ZM340.337 127L344.357 117.34H342.717L339.517 125.26L336.297 117.34H334.677L338.697 127H340.337ZM350.282 127.24C351.862 127.24 353.162 126.72 354.122 125.76L353.402 124.78C352.642 125.56 351.522 126 350.422 126C348.342 126 347.062 124.48 346.942 122.66H354.762V122.28C354.762 119.38 353.042 117.1 350.122 117.1C347.362 117.1 345.362 119.36 345.362 122.16C345.362 125.18 347.422 127.24 350.282 127.24ZM353.282 121.56H346.942C347.022 120.08 348.042 118.34 350.102 118.34C352.302 118.34 353.262 120.12 353.282 121.56ZM358.691 127V120.16C359.131 119.38 360.391 118.62 361.311 118.62C361.551 118.62 361.731 118.64 361.911 118.68V117.14C360.591 117.14 359.471 117.88 358.691 118.9V117.34H357.191V127H358.691ZM366.853 127.24C369.353 127.24 370.653 125.94 370.653 124.32C370.653 120.56 364.673 121.96 364.673 119.84C364.673 118.98 365.493 118.32 366.813 118.32C368.053 118.32 369.113 118.84 369.693 119.54L370.393 118.5C369.613 117.72 368.453 117.1 366.813 117.1C364.513 117.1 363.213 118.38 363.213 119.88C363.213 123.46 369.193 122.02 369.193 124.36C369.193 125.32 368.393 126.02 366.913 126.02C365.593 126.02 364.373 125.38 363.733 124.64L362.953 125.72C363.933 126.76 365.273 127.24 366.853 127.24ZM373.83 115.96C374.39 115.96 374.85 115.52 374.85 114.96C374.85 114.4 374.39 113.94 373.83 113.94C373.29 113.94 372.83 114.4 372.83 114.96C372.83 115.52 373.29 115.96 373.83 115.96ZM374.59 127V117.34H373.09V127H374.59ZM381.802 127.24C384.742 127.24 386.582 124.96 386.582 122.16C386.582 119.36 384.742 117.1 381.802 117.1C378.862 117.1 377.022 119.36 377.022 122.16C377.022 124.96 378.862 127.24 381.802 127.24ZM381.802 125.9C379.742 125.9 378.582 124.14 378.582 122.16C378.582 120.2 379.742 118.44 381.802 118.44C383.862 118.44 385.002 120.2 385.002 122.16C385.002 124.14 383.862 125.9 381.802 125.9ZM397.047 127V120.22C397.047 118.12 395.987 117.1 393.967 117.1C392.527 117.1 391.207 117.94 390.527 118.74V117.34H389.027V127H390.527V119.94C391.087 119.16 392.207 118.44 393.387 118.44C394.687 118.44 395.547 118.98 395.547 120.68V127H397.047Z" fill="white"/>
<g filter="url(#filter0_d)">
<rect x="85" y="173" width="464.133" height="380" rx="30" fill="url(#paint0_linear)"/>
<rect x="86" y="174" width="462.133" height="378" rx="29" stroke="url(#paint1_linear)" stroke-width="2"/>
</g>
<path d="M120.758 214L125.384 201.994H122.468L119.156 211.228L115.826 201.994H112.91L117.554 214H120.758ZM127.573 204.37C128.329 204.37 128.941 203.758 128.941 203.002C128.941 202.246 128.329 201.652 127.573 201.652C126.835 201.652 126.205 202.246 126.205 203.002C126.205 203.758 126.835 204.37 127.573 204.37ZM128.725 214V205.306H126.439V214H128.725ZM134.123 214.216C136.535 214.216 137.885 213.01 137.885 211.426C137.885 207.916 132.737 208.996 132.737 207.7C132.737 207.214 133.277 206.836 134.105 206.836C135.167 206.836 136.157 207.286 136.679 207.844L137.597 206.278C136.733 205.594 135.563 205.09 134.087 205.09C131.801 205.09 130.523 206.368 130.523 207.826C130.523 211.246 135.689 210.076 135.689 211.516C135.689 212.056 135.221 212.452 134.231 212.452C133.151 212.452 131.855 211.858 131.225 211.264L130.235 212.866C131.153 213.712 132.611 214.216 134.123 214.216ZM140.704 204.37C141.46 204.37 142.072 203.758 142.072 203.002C142.072 202.246 141.46 201.652 140.704 201.652C139.966 201.652 139.336 202.246 139.336 203.002C139.336 203.758 139.966 204.37 140.704 204.37ZM141.856 214V205.306H139.57V214H141.856ZM147.038 214.216C147.992 214.216 148.604 213.964 148.946 213.658L148.46 211.93C148.334 212.056 148.01 212.182 147.668 212.182C147.164 212.182 146.876 211.768 146.876 211.228V207.304H148.64V205.306H146.876V202.93H144.572V205.306H143.132V207.304H144.572V211.84C144.572 213.388 145.436 214.216 147.038 214.216ZM154.236 214.216C157.116 214.216 158.844 212.128 158.844 209.644C158.844 207.178 157.116 205.09 154.236 205.09C151.374 205.09 149.646 207.178 149.646 209.644C149.646 212.128 151.374 214.216 154.236 214.216ZM154.236 212.182C152.814 212.182 152.022 211.012 152.022 209.644C152.022 208.294 152.814 207.124 154.236 207.124C155.658 207.124 156.468 208.294 156.468 209.644C156.468 211.012 155.658 212.182 154.236 212.182ZM162.826 214V208.258C163.204 207.7 164.212 207.268 164.968 207.268C165.22 207.268 165.436 207.286 165.598 207.322V205.09C164.518 205.09 163.438 205.72 162.826 206.494V205.306H160.54V214H162.826ZM176.078 214.216C179.498 214.216 181.046 211.102 181.046 208.006C181.046 204.91 179.498 201.814 176.078 201.814C172.64 201.814 171.11 204.91 171.11 208.006C171.11 211.102 172.64 214.216 176.078 214.216ZM176.078 211.948C174.35 211.948 173.702 210.22 173.702 208.006C173.702 205.792 174.35 204.082 176.078 204.082C177.788 204.082 178.436 205.792 178.436 208.006C178.436 210.22 177.788 211.948 176.078 211.948ZM186.394 214.198C189.94 214.198 191.974 211.624 191.974 208.006C191.974 204.604 190.444 201.796 186.808 201.796C184.072 201.796 182.2 203.578 182.2 205.918C182.2 208.474 184.144 209.824 186.304 209.824C187.618 209.824 188.824 209.086 189.4 208.276C189.4 208.366 189.4 208.456 189.4 208.546C189.4 210.274 188.374 211.93 186.394 211.93C185.332 211.93 184.648 211.606 184 210.994L182.866 212.956C183.712 213.712 184.936 214.198 186.394 214.198ZM187.024 207.628C185.908 207.628 184.81 207.088 184.81 205.828C184.81 205 185.566 204.064 186.934 204.064C188.626 204.064 189.274 205.36 189.382 206.512C188.806 207.214 187.924 207.628 187.024 207.628ZM198.065 214.216C200.585 214.216 202.889 213.118 202.889 210.886C202.889 209.428 201.737 208.312 200.297 207.808C201.629 207.34 202.691 206.476 202.691 204.982C202.691 202.732 200.279 201.814 198.065 201.814C195.833 201.814 193.439 202.732 193.439 204.982C193.439 206.476 194.483 207.34 195.815 207.808C194.375 208.312 193.241 209.428 193.241 210.886C193.241 213.136 195.545 214.216 198.065 214.216ZM198.065 206.8C197.327 206.692 196.031 206.278 196.031 205.378C196.031 204.514 196.877 204.01 198.065 204.01C199.235 204.01 200.081 204.514 200.081 205.378C200.081 206.278 198.803 206.692 198.065 206.8ZM198.065 212.02C196.805 212.02 195.833 211.444 195.833 210.562C195.833 209.554 197.309 209.068 198.065 208.96C198.803 209.068 200.297 209.554 200.297 210.562C200.297 211.444 199.289 212.02 198.065 212.02ZM209.737 214V201.994H207.505L203.725 205.792L205.183 207.322L207.181 205.288V214H209.737ZM216.508 214.216C219.928 214.216 221.476 211.102 221.476 208.006C221.476 204.91 219.928 201.814 216.508 201.814C213.07 201.814 211.54 204.91 211.54 208.006C211.54 211.102 213.07 214.216 216.508 214.216ZM216.508 211.948C214.78 211.948 214.132 210.22 214.132 208.006C214.132 205.792 214.78 204.082 216.508 204.082C218.218 204.082 218.866 205.792 218.866 208.006C218.866 210.22 218.218 211.948 216.508 211.948ZM231.972 214V211.75H227.076C230.19 209.482 231.882 207.7 231.882 205.648C231.882 203.254 229.848 201.814 227.292 201.814C225.618 201.814 223.836 202.426 222.666 203.776L224.124 205.468C224.934 204.622 225.978 204.082 227.346 204.082C228.336 204.082 229.29 204.604 229.29 205.648C229.29 207.124 227.85 208.366 222.936 212.002V214H231.972Z" fill="white"/>
<rect x="113" y="219" width="133" height="2" rx="1" fill="white"/>
<rect x="113.044" y="280.97" width="410.148" height="0.701107" rx="0.350553" fill="white"/>
<rect x="113.044" y="325.14" width="410.148" height="0.701107" rx="0.350553" fill="white"/>
<rect x="113.044" y="367.908" width="410.148" height="0.701107" rx="0.350553" fill="white"/>
<rect x="113.044" y="455.546" width="410.148" height="0.701107" rx="0.350553" fill="white"/>
<rect x="113.044" y="410.675" width="410.148" height="0.701107" rx="0.350553" fill="white"/>
<path d="M124.286 275.47C123.134 276.634 121.664 277.216 119.876 277.216C118.088 277.216 116.618 276.634 115.466 275.47C114.314 274.294 113.738 272.806 113.738 271.006C113.738 269.206 114.314 267.724 115.466 266.56C116.618 265.384 118.088 264.796 119.876 264.796C121.664 264.796 123.134 265.384 124.286 266.56C125.438 267.724 126.014 269.206 126.014 271.006C126.014 272.806 125.438 274.294 124.286 275.47ZM119.876 275.344C121.064 275.344 122.024 274.936 122.756 274.12C123.488 273.292 123.854 272.254 123.854 271.006C123.854 269.746 123.488 268.708 122.756 267.892C122.024 267.076 121.064 266.668 119.876 266.668C118.676 266.668 117.71 267.076 116.978 267.892C116.258 268.708 115.898 269.746 115.898 271.006C115.898 272.266 116.258 273.304 116.978 274.12C117.71 274.936 118.676 275.344 119.876 275.344ZM129.878 277H127.988V268.306H129.878V269.584C130.214 269.152 130.634 268.798 131.138 268.522C131.642 268.246 132.164 268.108 132.704 268.108V269.98C132.536 269.944 132.338 269.926 132.11 269.926C131.714 269.926 131.288 270.046 130.832 270.286C130.388 270.514 130.07 270.778 129.878 271.078V277ZM137.756 280.528C136.28 280.528 135.068 280.096 134.12 279.232L135.002 277.864C135.65 278.608 136.568 278.98 137.756 278.98C138.476 278.98 139.082 278.788 139.574 278.404C140.078 278.032 140.33 277.438 140.33 276.622V275.578C139.586 276.538 138.656 277.018 137.54 277.018C136.4 277.018 135.47 276.622 134.75 275.83C134.042 275.038 133.688 273.946 133.688 272.554C133.688 271.174 134.042 270.088 134.75 269.296C135.47 268.492 136.4 268.09 137.54 268.09C138.68 268.09 139.61 268.564 140.33 269.512V268.306H142.22V276.55C142.22 277.294 142.088 277.936 141.824 278.476C141.572 279.028 141.224 279.442 140.78 279.718C140.336 280.006 139.862 280.21 139.358 280.33C138.866 280.462 138.332 280.528 137.756 280.528ZM138.098 275.344C138.53 275.344 138.956 275.23 139.376 275.002C139.796 274.774 140.114 274.498 140.33 274.174V270.934C140.114 270.61 139.796 270.334 139.376 270.106C138.956 269.878 138.53 269.764 138.098 269.764C137.354 269.764 136.76 270.022 136.316 270.538C135.872 271.042 135.65 271.714 135.65 272.554C135.65 273.394 135.872 274.072 136.316 274.588C136.76 275.092 137.354 275.344 138.098 275.344ZM151.869 277H149.979V276.064C149.307 276.832 148.371 277.216 147.171 277.216C146.379 277.216 145.677 276.964 145.065 276.46C144.453 275.944 144.147 275.236 144.147 274.336C144.147 273.412 144.447 272.71 145.047 272.23C145.659 271.75 146.367 271.51 147.171 271.51C148.407 271.51 149.343 271.882 149.979 272.626V271.33C149.979 270.826 149.793 270.43 149.421 270.142C149.049 269.854 148.557 269.71 147.945 269.71C146.973 269.71 146.115 270.076 145.371 270.808L144.597 269.494C145.581 268.558 146.799 268.09 148.251 268.09C149.319 268.09 150.189 268.342 150.861 268.846C151.533 269.35 151.869 270.148 151.869 271.24V277ZM147.909 275.92C148.857 275.92 149.547 275.62 149.979 275.02V273.706C149.547 273.106 148.857 272.806 147.909 272.806C147.369 272.806 146.925 272.95 146.577 273.238C146.229 273.526 146.055 273.904 146.055 274.372C146.055 274.84 146.229 275.218 146.577 275.506C146.925 275.782 147.369 275.92 147.909 275.92ZM162.078 277H160.188V271.564C160.188 270.364 159.606 269.764 158.442 269.764C157.986 269.764 157.56 269.878 157.164 270.106C156.768 270.334 156.45 270.61 156.21 270.934V277H154.32V268.306H156.21V269.494C156.534 269.11 156.966 268.78 157.506 268.504C158.046 268.228 158.634 268.09 159.27 268.09C160.194 268.09 160.89 268.33 161.358 268.81C161.838 269.29 162.078 269.98 162.078 270.88V277ZM165.469 267.244C165.157 267.244 164.881 267.13 164.641 266.902C164.413 266.674 164.299 266.398 164.299 266.074C164.299 265.75 164.413 265.474 164.641 265.246C164.881 265.018 165.157 264.904 165.469 264.904C165.793 264.904 166.069 265.018 166.297 265.246C166.525 265.474 166.639 265.75 166.639 266.074C166.639 266.398 166.525 266.674 166.297 266.902C166.069 267.13 165.793 267.244 165.469 267.244ZM166.423 277H164.533V268.306H166.423V277ZM172.834 277.216C171.514 277.216 170.434 276.79 169.594 275.938C168.754 275.074 168.334 273.976 168.334 272.644C168.334 271.324 168.754 270.238 169.594 269.386C170.434 268.522 171.514 268.09 172.834 268.09C174.286 268.09 175.396 268.606 176.164 269.638L174.922 270.79C174.442 270.106 173.776 269.764 172.924 269.764C172.132 269.764 171.496 270.034 171.016 270.574C170.536 271.102 170.296 271.792 170.296 272.644C170.296 273.496 170.536 274.192 171.016 274.732C171.496 275.272 172.132 275.542 172.924 275.542C173.752 275.542 174.418 275.2 174.922 274.516L176.164 275.668C175.396 276.7 174.286 277.216 172.834 277.216ZM186.603 277.216C184.539 277.216 182.913 276.58 181.725 275.308L182.895 273.688C183.927 274.792 185.193 275.344 186.693 275.344C187.497 275.344 188.097 275.182 188.493 274.858C188.901 274.534 189.105 274.15 189.105 273.706C189.105 273.25 188.865 272.89 188.385 272.626C187.905 272.35 187.323 272.134 186.639 271.978C185.955 271.822 185.265 271.636 184.569 271.42C183.885 271.204 183.303 270.838 182.823 270.322C182.343 269.806 182.103 269.14 182.103 268.324C182.103 267.316 182.505 266.482 183.309 265.822C184.125 265.15 185.181 264.814 186.477 264.814C188.325 264.814 189.825 265.372 190.977 266.488L189.771 268.054C188.859 267.142 187.701 266.686 186.297 266.686C185.673 266.686 185.175 266.824 184.803 267.1C184.443 267.364 184.263 267.724 184.263 268.18C184.263 268.48 184.389 268.732 184.641 268.936C184.905 269.14 185.241 269.308 185.649 269.44C186.057 269.56 186.507 269.68 186.999 269.8C187.503 269.92 188.001 270.07 188.493 270.25C188.997 270.418 189.453 270.628 189.861 270.88C190.269 271.132 190.599 271.48 190.851 271.924C191.115 272.368 191.247 272.896 191.247 273.508C191.247 274.588 190.857 275.476 190.077 276.172C189.297 276.868 188.139 277.216 186.603 277.216ZM201.412 277H193.186V264.994H201.412V266.848H195.292V269.962H201.286V271.816H195.292V275.146H201.412V277ZM213.583 275.47C212.431 276.634 210.961 277.216 209.173 277.216C207.385 277.216 205.915 276.634 204.763 275.47C203.611 274.294 203.035 272.806 203.035 271.006C203.035 269.206 203.611 267.724 204.763 266.56C205.915 265.384 207.385 264.796 209.173 264.796C210.961 264.796 212.431 265.384 213.583 266.56C214.735 267.724 215.311 269.206 215.311 271.006C215.311 272.806 214.735 274.294 213.583 275.47ZM209.173 275.344C210.361 275.344 211.321 274.936 212.053 274.12C212.785 273.292 213.151 272.254 213.151 271.006C213.151 269.746 212.785 268.708 212.053 267.892C211.321 267.076 210.361 266.668 209.173 266.668C207.973 266.668 207.007 267.076 206.275 267.892C205.555 268.708 205.195 269.746 205.195 271.006C205.195 272.266 205.555 273.304 206.275 274.12C207.007 274.936 207.973 275.344 209.173 275.344Z" fill="white"/>
<path d="M124.33 448.684C123.178 449.848 121.708 450.43 119.92 450.43C118.132 450.43 116.662 449.848 115.51 448.684C114.358 447.508 113.782 446.02 113.782 444.22C113.782 442.42 114.358 440.938 115.51 439.774C116.662 438.598 118.132 438.01 119.92 438.01C121.708 438.01 123.178 438.598 124.33 439.774C125.482 440.938 126.058 442.42 126.058 444.22C126.058 446.02 125.482 447.508 124.33 448.684ZM119.92 448.558C121.108 448.558 122.068 448.15 122.8 447.334C123.532 446.506 123.898 445.468 123.898 444.22C123.898 442.96 123.532 441.922 122.8 441.106C122.068 440.29 121.108 439.882 119.92 439.882C118.72 439.882 117.754 440.29 117.022 441.106C116.302 441.922 115.942 442.96 115.942 444.22C115.942 445.48 116.302 446.518 117.022 447.334C117.754 448.15 118.72 448.558 119.92 448.558ZM129.922 450.214H128.032V441.52H129.922V442.798C130.258 442.366 130.678 442.012 131.182 441.736C131.686 441.46 132.208 441.322 132.748 441.322V443.194C132.58 443.158 132.382 443.14 132.154 443.14C131.758 443.14 131.332 443.26 130.876 443.5C130.432 443.728 130.114 443.992 129.922 444.292V450.214ZM137.8 453.742C136.324 453.742 135.112 453.31 134.164 452.446L135.046 451.078C135.694 451.822 136.612 452.194 137.8 452.194C138.52 452.194 139.126 452.002 139.618 451.618C140.122 451.246 140.374 450.652 140.374 449.836V448.792C139.63 449.752 138.7 450.232 137.584 450.232C136.444 450.232 135.514 449.836 134.794 449.044C134.086 448.252 133.732 447.16 133.732 445.768C133.732 444.388 134.086 443.302 134.794 442.51C135.514 441.706 136.444 441.304 137.584 441.304C138.724 441.304 139.654 441.778 140.374 442.726V441.52H142.264V449.764C142.264 450.508 142.132 451.15 141.868 451.69C141.616 452.242 141.268 452.656 140.824 452.932C140.38 453.22 139.906 453.424 139.402 453.544C138.91 453.676 138.376 453.742 137.8 453.742ZM138.142 448.558C138.574 448.558 139 448.444 139.42 448.216C139.84 447.988 140.158 447.712 140.374 447.388V444.148C140.158 443.824 139.84 443.548 139.42 443.32C139 443.092 138.574 442.978 138.142 442.978C137.398 442.978 136.804 443.236 136.36 443.752C135.916 444.256 135.694 444.928 135.694 445.768C135.694 446.608 135.916 447.286 136.36 447.802C136.804 448.306 137.398 448.558 138.142 448.558ZM151.914 450.214H150.024V449.278C149.352 450.046 148.416 450.43 147.216 450.43C146.424 450.43 145.722 450.178 145.11 449.674C144.498 449.158 144.192 448.45 144.192 447.55C144.192 446.626 144.492 445.924 145.092 445.444C145.704 444.964 146.412 444.724 147.216 444.724C148.452 444.724 149.388 445.096 150.024 445.84V444.544C150.024 444.04 149.838 443.644 149.466 443.356C149.094 443.068 148.602 442.924 147.99 442.924C147.018 442.924 146.16 443.29 145.416 444.022L144.642 442.708C145.626 441.772 146.844 441.304 148.296 441.304C149.364 441.304 150.234 441.556 150.906 442.06C151.578 442.564 151.914 443.362 151.914 444.454V450.214ZM147.954 449.134C148.902 449.134 149.592 448.834 150.024 448.234V446.92C149.592 446.32 148.902 446.02 147.954 446.02C147.414 446.02 146.97 446.164 146.622 446.452C146.274 446.74 146.1 447.118 146.1 447.586C146.1 448.054 146.274 448.432 146.622 448.72C146.97 448.996 147.414 449.134 147.954 449.134ZM162.122 450.214H160.232V444.778C160.232 443.578 159.65 442.978 158.486 442.978C158.03 442.978 157.604 443.092 157.208 443.32C156.812 443.548 156.494 443.824 156.254 444.148V450.214H154.364V441.52H156.254V442.708C156.578 442.324 157.01 441.994 157.55 441.718C158.09 441.442 158.678 441.304 159.314 441.304C160.238 441.304 160.934 441.544 161.402 442.024C161.882 442.504 162.122 443.194 162.122 444.094V450.214ZM165.513 440.458C165.201 440.458 164.925 440.344 164.685 440.116C164.457 439.888 164.343 439.612 164.343 439.288C164.343 438.964 164.457 438.688 164.685 438.46C164.925 438.232 165.201 438.118 165.513 438.118C165.837 438.118 166.113 438.232 166.341 438.46C166.569 438.688 166.683 438.964 166.683 439.288C166.683 439.612 166.569 439.888 166.341 440.116C166.113 440.344 165.837 440.458 165.513 440.458ZM166.467 450.214H164.577V441.52H166.467V450.214ZM172.879 450.43C171.559 450.43 170.479 450.004 169.639 449.152C168.799 448.288 168.379 447.19 168.379 445.858C168.379 444.538 168.799 443.452 169.639 442.6C170.479 441.736 171.559 441.304 172.879 441.304C174.331 441.304 175.441 441.82 176.209 442.852L174.967 444.004C174.487 443.32 173.821 442.978 172.969 442.978C172.177 442.978 171.541 443.248 171.061 443.788C170.581 444.316 170.341 445.006 170.341 445.858C170.341 446.71 170.581 447.406 171.061 447.946C171.541 448.486 172.177 448.756 172.969 448.756C173.797 448.756 174.463 448.414 174.967 447.73L176.209 448.882C175.441 449.914 174.331 450.43 172.879 450.43ZM186.647 450.43C184.583 450.43 182.957 449.794 181.769 448.522L182.939 446.902C183.971 448.006 185.237 448.558 186.737 448.558C187.541 448.558 188.141 448.396 188.537 448.072C188.945 447.748 189.149 447.364 189.149 446.92C189.149 446.464 188.909 446.104 188.429 445.84C187.949 445.564 187.367 445.348 186.683 445.192C185.999 445.036 185.309 444.85 184.613 444.634C183.929 444.418 183.347 444.052 182.867 443.536C182.387 443.02 182.147 442.354 182.147 441.538C182.147 440.53 182.549 439.696 183.353 439.036C184.169 438.364 185.225 438.028 186.521 438.028C188.369 438.028 189.869 438.586 191.021 439.702L189.815 441.268C188.903 440.356 187.745 439.9 186.341 439.9C185.717 439.9 185.219 440.038 184.847 440.314C184.487 440.578 184.307 440.938 184.307 441.394C184.307 441.694 184.433 441.946 184.685 442.15C184.949 442.354 185.285 442.522 185.693 442.654C186.101 442.774 186.551 442.894 187.043 443.014C187.547 443.134 188.045 443.284 188.537 443.464C189.041 443.632 189.497 443.842 189.905 444.094C190.313 444.346 190.643 444.694 190.895 445.138C191.159 445.582 191.291 446.11 191.291 446.722C191.291 447.802 190.901 448.69 190.121 449.386C189.341 450.082 188.183 450.43 186.647 450.43ZM201.457 450.214H193.231V438.208H201.457V440.062H195.337V443.176H201.331V445.03H195.337V448.36H201.457V450.214ZM213.627 448.684C212.475 449.848 211.005 450.43 209.217 450.43C207.429 450.43 205.959 449.848 204.807 448.684C203.655 447.508 203.079 446.02 203.079 444.22C203.079 442.42 203.655 440.938 204.807 439.774C205.959 438.598 207.429 438.01 209.217 438.01C211.005 438.01 212.475 438.598 213.627 439.774C214.779 440.938 215.355 442.42 215.355 444.22C215.355 446.02 214.779 447.508 213.627 448.684ZM209.217 448.558C210.405 448.558 211.365 448.15 212.097 447.334C212.829 446.506 213.195 445.468 213.195 444.22C213.195 442.96 212.829 441.922 212.097 441.106C211.365 440.29 210.405 439.882 209.217 439.882C208.017 439.882 207.051 440.29 206.319 441.106C205.599 441.922 205.239 442.96 205.239 444.22C205.239 445.48 205.599 446.518 206.319 447.334C207.051 448.15 208.017 448.558 209.217 448.558Z" fill="white"/>
<rect x="113.044" y="499.015" width="410.148" height="0.701107" rx="0.350553" fill="white"/>
<path d="M125.752 493.683H123.502L121.162 484.827L118.84 493.683H116.59L113.152 481.677H115.51L117.85 490.929L120.334 481.677H122.008L124.492 490.929L126.814 481.677H129.172L125.752 493.683ZM133.821 493.899C132.501 493.899 131.409 493.479 130.545 492.639C129.693 491.787 129.267 490.683 129.267 489.327C129.267 488.055 129.681 486.981 130.509 486.105C131.349 485.217 132.405 484.773 133.677 484.773C134.961 484.773 135.993 485.217 136.773 486.105C137.565 486.993 137.961 488.127 137.961 489.507V489.957H131.247C131.319 490.641 131.601 491.211 132.093 491.667C132.585 492.123 133.227 492.351 134.019 492.351C134.463 492.351 134.907 492.267 135.351 492.099C135.807 491.931 136.185 491.697 136.485 491.397L137.349 492.639C136.473 493.479 135.297 493.899 133.821 493.899ZM136.125 488.625C136.101 488.025 135.879 487.491 135.459 487.023C135.051 486.555 134.457 486.321 133.677 486.321C132.933 486.321 132.351 486.555 131.931 487.023C131.511 487.479 131.277 488.013 131.229 488.625H136.125ZM141.717 491.073C141.921 491.397 142.233 491.673 142.653 491.901C143.085 492.117 143.517 492.225 143.949 492.225C144.693 492.225 145.287 491.961 145.731 491.433C146.187 490.893 146.415 490.197 146.415 489.345C146.415 488.493 146.187 487.797 145.731 487.257C145.287 486.717 144.693 486.447 143.949 486.447C143.517 486.447 143.091 486.561 142.671 486.789C142.251 487.017 141.933 487.299 141.717 487.635V491.073ZM141.717 493.683H139.827V481.677H141.717V486.195C142.425 485.247 143.355 484.773 144.507 484.773C145.635 484.773 146.559 485.193 147.279 486.033C147.999 486.861 148.359 487.965 148.359 489.345C148.359 490.749 147.999 491.859 147.279 492.675C146.559 493.491 145.635 493.899 144.507 493.899C143.367 493.899 142.437 493.431 141.717 492.495V493.683ZM153.256 493.899C151.696 493.899 150.454 493.449 149.53 492.549L150.394 491.181C150.718 491.517 151.156 491.805 151.708 492.045C152.26 492.285 152.806 492.405 153.346 492.405C153.898 492.405 154.318 492.297 154.606 492.081C154.906 491.865 155.056 491.583 155.056 491.235C155.056 490.923 154.876 490.683 154.516 490.515C154.156 490.335 153.718 490.197 153.202 490.101C152.686 489.993 152.17 489.867 151.654 489.723C151.138 489.567 150.7 489.297 150.34 488.913C149.98 488.529 149.8 488.031 149.8 487.419C149.8 486.675 150.106 486.051 150.718 485.547C151.33 485.031 152.164 484.773 153.22 484.773C154.552 484.773 155.68 485.181 156.604 485.997L155.812 487.329C155.536 487.017 155.17 486.765 154.714 486.573C154.258 486.381 153.766 486.285 153.238 486.285C152.746 486.285 152.35 486.387 152.05 486.591C151.762 486.783 151.618 487.035 151.618 487.347C151.618 487.587 151.744 487.785 151.996 487.941C152.26 488.085 152.584 488.193 152.968 488.265C153.364 488.337 153.79 488.439 154.246 488.571C154.702 488.691 155.122 488.835 155.506 489.003C155.902 489.171 156.226 489.447 156.478 489.831C156.742 490.203 156.874 490.659 156.874 491.199C156.874 491.991 156.556 492.639 155.92 493.143C155.284 493.647 154.396 493.899 153.256 493.899ZM159.712 483.927C159.4 483.927 159.124 483.813 158.884 483.585C158.656 483.357 158.542 483.081 158.542 482.757C158.542 482.433 158.656 482.157 158.884 481.929C159.124 481.701 159.4 481.587 159.712 481.587C160.036 481.587 160.312 481.701 160.54 481.929C160.768 482.157 160.882 482.433 160.882 482.757C160.882 483.081 160.768 483.357 160.54 483.585C160.312 483.813 160.036 483.927 159.712 483.927ZM160.666 493.683H158.776V484.989H160.666V493.683ZM165.728 493.899C164.996 493.899 164.438 493.707 164.054 493.323C163.682 492.939 163.496 492.387 163.496 491.667V486.645H162.056V484.989H163.496V482.613H165.386V484.989H167.15V486.645H165.386V491.199C165.386 491.511 165.458 491.763 165.602 491.955C165.746 492.135 165.95 492.225 166.214 492.225C166.598 492.225 166.88 492.123 167.06 491.919L167.51 493.341C167.114 493.713 166.52 493.899 165.728 493.899ZM172.88 493.899C171.56 493.899 170.468 493.479 169.604 492.639C168.752 491.787 168.326 490.683 168.326 489.327C168.326 488.055 168.74 486.981 169.568 486.105C170.408 485.217 171.464 484.773 172.736 484.773C174.02 484.773 175.052 485.217 175.832 486.105C176.624 486.993 177.02 488.127 177.02 489.507V489.957H170.306C170.378 490.641 170.66 491.211 171.152 491.667C171.644 492.123 172.286 492.351 173.078 492.351C173.522 492.351 173.966 492.267 174.41 492.099C174.866 491.931 175.244 491.697 175.544 491.397L176.408 492.639C175.532 493.479 174.356 493.899 172.88 493.899ZM175.184 488.625C175.16 488.025 174.938 487.491 174.518 487.023C174.11 486.555 173.516 486.321 172.736 486.321C171.992 486.321 171.41 486.555 170.99 487.023C170.57 487.479 170.336 488.013 170.288 488.625H175.184ZM185.669 493.683H183.563V481.677H188.837C190.049 481.677 191.003 482.037 191.699 482.757C192.407 483.477 192.761 484.371 192.761 485.439C192.761 486.495 192.407 487.389 191.699 488.121C191.003 488.841 190.049 489.201 188.837 489.201H185.669V493.683ZM188.549 487.347C189.149 487.347 189.641 487.173 190.025 486.825C190.409 486.477 190.601 486.015 190.601 485.439C190.601 484.863 190.409 484.401 190.025 484.053C189.641 483.705 189.149 483.531 188.549 483.531H185.669V487.347H188.549ZM202.218 493.683H200.328V492.531C199.512 493.443 198.486 493.899 197.25 493.899C195.39 493.899 194.46 492.981 194.46 491.145V484.989H196.35V490.461C196.35 491.097 196.5 491.553 196.8 491.829C197.1 492.093 197.532 492.225 198.096 492.225C198.552 492.225 198.978 492.117 199.374 491.901C199.77 491.685 200.088 491.415 200.328 491.091V484.989H202.218V493.683ZM206.563 493.683H204.673V484.989H206.563V486.267C206.899 485.835 207.319 485.481 207.823 485.205C208.327 484.929 208.849 484.791 209.389 484.791V486.663C209.221 486.627 209.023 486.609 208.795 486.609C208.399 486.609 207.973 486.729 207.517 486.969C207.073 487.197 206.755 487.461 206.563 487.761V493.683ZM214.873 493.899C213.553 493.899 212.473 493.473 211.633 492.621C210.793 491.757 210.373 490.659 210.373 489.327C210.373 488.007 210.793 486.921 211.633 486.069C212.473 485.205 213.553 484.773 214.873 484.773C216.325 484.773 217.435 485.289 218.203 486.321L216.961 487.473C216.481 486.789 215.815 486.447 214.963 486.447C214.171 486.447 213.535 486.717 213.055 487.257C212.575 487.785 212.335 488.475 212.335 489.327C212.335 490.179 212.575 490.875 213.055 491.415C213.535 491.955 214.171 492.225 214.963 492.225C215.791 492.225 216.457 491.883 216.961 491.199L218.203 492.351C217.435 493.383 216.325 493.899 214.873 493.899ZM227.636 493.683H225.746V488.211C225.746 487.575 225.59 487.125 225.278 486.861C224.978 486.585 224.546 486.447 223.982 486.447C223.538 486.447 223.118 486.561 222.722 486.789C222.326 487.017 222.002 487.293 221.75 487.617V493.683H219.86V481.677H221.75V486.177C222.074 485.793 222.506 485.463 223.046 485.187C223.598 484.911 224.192 484.773 224.828 484.773C226.7 484.773 227.636 485.691 227.636 487.527V493.683ZM237.291 493.683H235.401V492.747C234.729 493.515 233.793 493.899 232.593 493.899C231.801 493.899 231.099 493.647 230.487 493.143C229.875 492.627 229.569 491.919 229.569 491.019C229.569 490.095 229.869 489.393 230.469 488.913C231.081 488.433 231.789 488.193 232.593 488.193C233.829 488.193 234.765 488.565 235.401 489.309V488.013C235.401 487.509 235.215 487.113 234.843 486.825C234.471 486.537 233.979 486.393 233.367 486.393C232.395 486.393 231.537 486.759 230.793 487.491L230.019 486.177C231.003 485.241 232.221 484.773 233.673 484.773C234.741 484.773 235.611 485.025 236.283 485.529C236.955 486.033 237.291 486.831 237.291 487.923V493.683ZM233.331 492.603C234.279 492.603 234.969 492.303 235.401 491.703V490.389C234.969 489.789 234.279 489.489 233.331 489.489C232.791 489.489 232.347 489.633 231.999 489.921C231.651 490.209 231.477 490.587 231.477 491.055C231.477 491.523 231.651 491.901 231.999 492.189C232.347 492.465 232.791 492.603 233.331 492.603ZM242.711 493.899C241.151 493.899 239.909 493.449 238.985 492.549L239.849 491.181C240.173 491.517 240.611 491.805 241.163 492.045C241.715 492.285 242.261 492.405 242.801 492.405C243.353 492.405 243.773 492.297 244.061 492.081C244.361 491.865 244.511 491.583 244.511 491.235C244.511 490.923 244.331 490.683 243.971 490.515C243.611 490.335 243.173 490.197 242.657 490.101C242.141 489.993 241.625 489.867 241.109 489.723C240.593 489.567 240.155 489.297 239.795 488.913C239.435 488.529 239.255 488.031 239.255 487.419C239.255 486.675 239.561 486.051 240.173 485.547C240.785 485.031 241.619 484.773 242.675 484.773C244.007 484.773 245.135 485.181 246.059 485.997L245.267 487.329C244.991 487.017 244.625 486.765 244.169 486.573C243.713 486.381 243.221 486.285 242.693 486.285C242.201 486.285 241.805 486.387 241.505 486.591C241.217 486.783 241.073 487.035 241.073 487.347C241.073 487.587 241.199 487.785 241.451 487.941C241.715 488.085 242.039 488.193 242.423 488.265C242.819 488.337 243.245 488.439 243.701 488.571C244.157 488.691 244.577 488.835 244.961 489.003C245.357 489.171 245.681 489.447 245.933 489.831C246.197 490.203 246.329 490.659 246.329 491.199C246.329 491.991 246.011 492.639 245.375 493.143C244.739 493.647 243.851 493.899 242.711 493.899ZM252.245 493.899C250.925 493.899 249.833 493.479 248.969 492.639C248.117 491.787 247.691 490.683 247.691 489.327C247.691 488.055 248.105 486.981 248.933 486.105C249.773 485.217 250.829 484.773 252.101 484.773C253.385 484.773 254.417 485.217 255.197 486.105C255.989 486.993 256.385 488.127 256.385 489.507V489.957H249.671C249.743 490.641 250.025 491.211 250.517 491.667C251.009 492.123 251.651 492.351 252.443 492.351C252.887 492.351 253.331 492.267 253.775 492.099C254.231 491.931 254.609 491.697 254.909 491.397L255.773 492.639C254.897 493.479 253.721 493.899 252.245 493.899ZM254.549 488.625C254.525 488.025 254.303 487.491 253.883 487.023C253.475 486.555 252.881 486.321 252.101 486.321C251.357 486.321 250.775 486.555 250.355 487.023C249.935 487.479 249.701 488.013 249.653 488.625H254.549Z" fill="white"/>
<path d="M118.382 320.216C116.318 320.216 114.692 319.58 113.504 318.308L114.674 316.688C115.706 317.792 116.972 318.344 118.472 318.344C119.276 318.344 119.876 318.182 120.272 317.858C120.68 317.534 120.884 317.15 120.884 316.706C120.884 316.25 120.644 315.89 120.164 315.626C119.684 315.35 119.102 315.134 118.418 314.978C117.734 314.822 117.044 314.636 116.348 314.42C115.664 314.204 115.082 313.838 114.602 313.322C114.122 312.806 113.882 312.14 113.882 311.324C113.882 310.316 114.284 309.482 115.088 308.822C115.904 308.15 116.96 307.814 118.256 307.814C120.104 307.814 121.604 308.372 122.756 309.488L121.55 311.054C120.638 310.142 119.48 309.686 118.076 309.686C117.452 309.686 116.954 309.824 116.582 310.1C116.222 310.364 116.042 310.724 116.042 311.18C116.042 311.48 116.168 311.732 116.42 311.936C116.684 312.14 117.02 312.308 117.428 312.44C117.836 312.56 118.286 312.68 118.778 312.8C119.282 312.92 119.78 313.07 120.272 313.25C120.776 313.418 121.232 313.628 121.64 313.88C122.048 314.132 122.378 314.48 122.63 314.924C122.894 315.368 123.026 315.896 123.026 316.508C123.026 317.588 122.636 318.476 121.856 319.172C121.076 319.868 119.918 320.216 118.382 320.216ZM132.67 320H130.78V314.564C130.78 313.364 130.198 312.764 129.034 312.764C128.578 312.764 128.152 312.878 127.756 313.106C127.36 313.334 127.042 313.61 126.802 313.934V320H124.912V311.306H126.802V312.494C127.126 312.11 127.558 311.78 128.098 311.504C128.638 311.228 129.226 311.09 129.862 311.09C130.786 311.09 131.482 311.33 131.95 311.81C132.43 312.29 132.67 312.98 132.67 313.88V320ZM142.324 320H140.434V319.064C139.762 319.832 138.826 320.216 137.626 320.216C136.834 320.216 136.132 319.964 135.52 319.46C134.908 318.944 134.602 318.236 134.602 317.336C134.602 316.412 134.902 315.71 135.502 315.23C136.114 314.75 136.822 314.51 137.626 314.51C138.862 314.51 139.798 314.882 140.434 315.626V314.33C140.434 313.826 140.248 313.43 139.876 313.142C139.504 312.854 139.012 312.71 138.4 312.71C137.428 312.71 136.57 313.076 135.826 313.808L135.052 312.494C136.036 311.558 137.254 311.09 138.706 311.09C139.774 311.09 140.644 311.342 141.316 311.846C141.988 312.35 142.324 313.148 142.324 314.24V320ZM138.364 318.92C139.312 318.92 140.002 318.62 140.434 318.02V316.706C140.002 316.106 139.312 315.806 138.364 315.806C137.824 315.806 137.38 315.95 137.032 316.238C136.684 316.526 136.51 316.904 136.51 317.372C136.51 317.84 136.684 318.218 137.032 318.506C137.38 318.782 137.824 318.92 138.364 318.92ZM149.455 320.216C148.303 320.216 147.373 319.742 146.665 318.794V323.312H144.775V311.306H146.665V312.494C147.361 311.558 148.291 311.09 149.455 311.09C150.595 311.09 151.519 311.498 152.227 312.314C152.947 313.13 153.307 314.24 153.307 315.644C153.307 317.048 152.947 318.164 152.227 318.992C151.519 319.808 150.595 320.216 149.455 320.216ZM148.897 318.542C149.641 318.542 150.235 318.272 150.679 317.732C151.123 317.192 151.345 316.496 151.345 315.644C151.345 314.792 151.123 314.102 150.679 313.574C150.235 313.034 149.641 312.764 148.897 312.764C148.465 312.764 148.039 312.878 147.619 313.106C147.199 313.334 146.881 313.61 146.665 313.934V317.372C146.881 317.696 147.199 317.972 147.619 318.2C148.039 318.428 148.465 318.542 148.897 318.542ZM159.141 320.216C157.821 320.216 156.741 319.79 155.901 318.938C155.061 318.074 154.641 316.976 154.641 315.644C154.641 314.324 155.061 313.238 155.901 312.386C156.741 311.522 157.821 311.09 159.141 311.09C160.593 311.09 161.703 311.606 162.471 312.638L161.229 313.79C160.749 313.106 160.083 312.764 159.231 312.764C158.439 312.764 157.803 313.034 157.323 313.574C156.843 314.102 156.603 314.792 156.603 315.644C156.603 316.496 156.843 317.192 157.323 317.732C157.803 318.272 158.439 318.542 159.231 318.542C160.059 318.542 160.725 318.2 161.229 317.516L162.471 318.668C161.703 319.7 160.593 320.216 159.141 320.216ZM171.904 320H170.014V314.528C170.014 313.892 169.858 313.442 169.546 313.178C169.246 312.902 168.814 312.764 168.25 312.764C167.806 312.764 167.386 312.878 166.99 313.106C166.594 313.334 166.27 313.61 166.018 313.934V320H164.128V307.994H166.018V312.494C166.342 312.11 166.774 311.78 167.314 311.504C167.866 311.228 168.46 311.09 169.096 311.09C170.968 311.09 171.904 312.008 171.904 313.844V320ZM181.559 320H179.669V319.064C178.997 319.832 178.061 320.216 176.861 320.216C176.069 320.216 175.367 319.964 174.755 319.46C174.143 318.944 173.837 318.236 173.837 317.336C173.837 316.412 174.137 315.71 174.737 315.23C175.349 314.75 176.057 314.51 176.861 314.51C178.097 314.51 179.033 314.882 179.669 315.626V314.33C179.669 313.826 179.483 313.43 179.111 313.142C178.739 312.854 178.247 312.71 177.635 312.71C176.663 312.71 175.805 313.076 175.061 313.808L174.287 312.494C175.271 311.558 176.489 311.09 177.941 311.09C179.009 311.09 179.879 311.342 180.551 311.846C181.223 312.35 181.559 313.148 181.559 314.24V320ZM177.599 318.92C178.547 318.92 179.237 318.62 179.669 318.02V316.706C179.237 316.106 178.547 315.806 177.599 315.806C177.059 315.806 176.615 315.95 176.267 316.238C175.919 316.526 175.745 316.904 175.745 317.372C175.745 317.84 175.919 318.218 176.267 318.506C176.615 318.782 177.059 318.92 177.599 318.92ZM186.619 320.216C185.887 320.216 185.329 320.024 184.945 319.64C184.573 319.256 184.387 318.704 184.387 317.984V312.962H182.947V311.306H184.387V308.93H186.277V311.306H188.041V312.962H186.277V317.516C186.277 317.828 186.349 318.08 186.493 318.272C186.637 318.452 186.841 318.542 187.105 318.542C187.489 318.542 187.771 318.44 187.951 318.236L188.401 319.658C188.005 320.03 187.411 320.216 186.619 320.216ZM198.538 320.216C196.474 320.216 194.848 319.58 193.66 318.308L194.83 316.688C195.862 317.792 197.128 318.344 198.628 318.344C199.432 318.344 200.032 318.182 200.428 317.858C200.836 317.534 201.04 317.15 201.04 316.706C201.04 316.25 200.8 315.89 200.32 315.626C199.84 315.35 199.258 315.134 198.574 314.978C197.89 314.822 197.2 314.636 196.504 314.42C195.82 314.204 195.238 313.838 194.758 313.322C194.278 312.806 194.038 312.14 194.038 311.324C194.038 310.316 194.44 309.482 195.244 308.822C196.06 308.15 197.116 307.814 198.412 307.814C200.26 307.814 201.76 308.372 202.912 309.488L201.706 311.054C200.794 310.142 199.636 309.686 198.232 309.686C197.608 309.686 197.11 309.824 196.738 310.1C196.378 310.364 196.198 310.724 196.198 311.18C196.198 311.48 196.324 311.732 196.576 311.936C196.84 312.14 197.176 312.308 197.584 312.44C197.992 312.56 198.442 312.68 198.934 312.8C199.438 312.92 199.936 313.07 200.428 313.25C200.932 313.418 201.388 313.628 201.796 313.88C202.204 314.132 202.534 314.48 202.786 314.924C203.05 315.368 203.182 315.896 203.182 316.508C203.182 317.588 202.792 318.476 202.012 319.172C201.232 319.868 200.074 320.216 198.538 320.216ZM207.414 320.216C206.682 320.216 206.124 320.024 205.74 319.64C205.368 319.256 205.182 318.704 205.182 317.984V312.962H203.742V311.306H205.182V308.93H207.072V311.306H208.836V312.962H207.072V317.516C207.072 317.828 207.144 318.08 207.288 318.272C207.432 318.452 207.636 318.542 207.9 318.542C208.284 318.542 208.566 318.44 208.746 318.236L209.196 319.658C208.8 320.03 208.206 320.216 207.414 320.216ZM214.476 320.216C213.132 320.216 212.052 319.778 211.236 318.902C210.42 318.014 210.012 316.928 210.012 315.644C210.012 314.36 210.42 313.28 211.236 312.404C212.052 311.528 213.132 311.09 214.476 311.09C215.832 311.09 216.918 311.528 217.734 312.404C218.55 313.28 218.958 314.36 218.958 315.644C218.958 316.94 218.55 318.026 217.734 318.902C216.918 319.778 215.832 320.216 214.476 320.216ZM214.476 318.542C215.256 318.542 215.868 318.266 216.312 317.714C216.768 317.15 216.996 316.46 216.996 315.644C216.996 314.84 216.768 314.162 216.312 313.61C215.868 313.046 215.256 312.764 214.476 312.764C213.708 312.764 213.096 313.046 212.64 313.61C212.196 314.162 211.974 314.84 211.974 315.644C211.974 316.46 212.196 317.15 212.64 317.714C213.096 318.266 213.708 318.542 214.476 318.542ZM222.76 320H220.87V311.306H222.76V312.584C223.096 312.152 223.516 311.798 224.02 311.522C224.524 311.246 225.046 311.108 225.586 311.108V312.98C225.418 312.944 225.22 312.926 224.992 312.926C224.596 312.926 224.17 313.046 223.714 313.286C223.27 313.514 222.952 313.778 222.76 314.078V320ZM228.047 310.244C227.735 310.244 227.459 310.13 227.219 309.902C226.991 309.674 226.877 309.398 226.877 309.074C226.877 308.75 226.991 308.474 227.219 308.246C227.459 308.018 227.735 307.904 228.047 307.904C228.371 307.904 228.647 308.018 228.875 308.246C229.103 308.474 229.217 308.75 229.217 309.074C229.217 309.398 229.103 309.674 228.875 309.902C228.647 310.13 228.371 310.244 228.047 310.244ZM229.001 320H227.111V311.306H229.001V320ZM235.467 320.216C234.147 320.216 233.055 319.796 232.191 318.956C231.339 318.104 230.913 317 230.913 315.644C230.913 314.372 231.327 313.298 232.155 312.422C232.995 311.534 234.051 311.09 235.323 311.09C236.607 311.09 237.639 311.534 238.419 312.422C239.211 313.31 239.607 314.444 239.607 315.824V316.274H232.893C232.965 316.958 233.247 317.528 233.739 317.984C234.231 318.44 234.873 318.668 235.665 318.668C236.109 318.668 236.553 318.584 236.997 318.416C237.453 318.248 237.831 318.014 238.131 317.714L238.995 318.956C238.119 319.796 236.943 320.216 235.467 320.216ZM237.771 314.942C237.747 314.342 237.525 313.808 237.105 313.34C236.697 312.872 236.103 312.638 235.323 312.638C234.579 312.638 233.997 312.872 233.577 313.34C233.157 313.796 232.923 314.33 232.875 314.942H237.771ZM244.442 320.216C242.882 320.216 241.64 319.766 240.716 318.866L241.58 317.498C241.904 317.834 242.342 318.122 242.894 318.362C243.446 318.602 243.992 318.722 244.532 318.722C245.084 318.722 245.504 318.614 245.792 318.398C246.092 318.182 246.242 317.9 246.242 317.552C246.242 317.24 246.062 317 245.702 316.832C245.342 316.652 244.904 316.514 244.388 316.418C243.872 316.31 243.356 316.184 242.84 316.04C242.324 315.884 241.886 315.614 241.526 315.23C241.166 314.846 240.986 314.348 240.986 313.736C240.986 312.992 241.292 312.368 241.904 311.864C242.516 311.348 243.35 311.09 244.406 311.09C245.738 311.09 246.866 311.498 247.79 312.314L246.998 313.646C246.722 313.334 246.356 313.082 245.9 312.89C245.444 312.698 244.952 312.602 244.424 312.602C243.932 312.602 243.536 312.704 243.236 312.908C242.948 313.1 242.804 313.352 242.804 313.664C242.804 313.904 242.93 314.102 243.182 314.258C243.446 314.402 243.77 314.51 244.154 314.582C244.55 314.654 244.976 314.756 245.432 314.888C245.888 315.008 246.308 315.152 246.692 315.32C247.088 315.488 247.412 315.764 247.664 316.148C247.928 316.52 248.06 316.976 248.06 317.516C248.06 318.308 247.742 318.956 247.106 319.46C246.47 319.964 245.582 320.216 244.442 320.216ZM265.439 320H263.045L262.163 317.696H256.655L255.773 320H253.379L258.095 307.994H260.723L265.439 320ZM261.569 315.842L259.409 310.118L257.249 315.842H261.569ZM274.707 320H272.817V318.812C272.097 319.748 271.167 320.216 270.027 320.216C268.887 320.216 267.957 319.808 267.237 318.992C266.517 318.176 266.157 317.066 266.157 315.662C266.157 314.27 266.517 313.16 267.237 312.332C267.957 311.504 268.887 311.09 270.027 311.09C271.167 311.09 272.097 311.564 272.817 312.512V307.994H274.707V320ZM270.567 318.542C271.011 318.542 271.443 318.434 271.863 318.218C272.283 318.002 272.601 317.726 272.817 317.39V313.934C272.601 313.598 272.283 313.322 271.863 313.106C271.443 312.878 271.011 312.764 270.567 312.764C269.823 312.764 269.229 313.034 268.785 313.574C268.341 314.114 268.119 314.81 268.119 315.662C268.119 316.514 268.341 317.21 268.785 317.75C269.229 318.278 269.823 318.542 270.567 318.542Z" fill="white"/>
<path d="M116.384 364H114.278V351.994H122.504V353.848H116.384V356.962H122.378V358.816H116.384V364ZM131.531 364H129.641V363.064C128.969 363.832 128.033 364.216 126.833 364.216C126.041 364.216 125.339 363.964 124.727 363.46C124.115 362.944 123.809 362.236 123.809 361.336C123.809 360.412 124.109 359.71 124.709 359.23C125.321 358.75 126.029 358.51 126.833 358.51C128.069 358.51 129.005 358.882 129.641 359.626V358.33C129.641 357.826 129.455 357.43 129.083 357.142C128.711 356.854 128.219 356.71 127.607 356.71C126.635 356.71 125.777 357.076 125.033 357.808L124.259 356.494C125.243 355.558 126.461 355.09 127.913 355.09C128.981 355.09 129.851 355.342 130.523 355.846C131.195 356.35 131.531 357.148 131.531 358.24V364ZM127.571 362.92C128.519 362.92 129.209 362.62 129.641 362.02V360.706C129.209 360.106 128.519 359.806 127.571 359.806C127.031 359.806 126.587 359.95 126.239 360.238C125.891 360.526 125.717 360.904 125.717 361.372C125.717 361.84 125.891 362.218 126.239 362.506C126.587 362.782 127.031 362.92 127.571 362.92ZM137.942 364.216C136.622 364.216 135.542 363.79 134.702 362.938C133.862 362.074 133.442 360.976 133.442 359.644C133.442 358.324 133.862 357.238 134.702 356.386C135.542 355.522 136.622 355.09 137.942 355.09C139.394 355.09 140.504 355.606 141.272 356.638L140.03 357.79C139.55 357.106 138.884 356.764 138.032 356.764C137.24 356.764 136.604 357.034 136.124 357.574C135.644 358.102 135.404 358.792 135.404 359.644C135.404 360.496 135.644 361.192 136.124 361.732C136.604 362.272 137.24 362.542 138.032 362.542C138.86 362.542 139.526 362.2 140.03 361.516L141.272 362.668C140.504 363.7 139.394 364.216 137.942 364.216ZM146.943 364.216C145.623 364.216 144.531 363.796 143.667 362.956C142.815 362.104 142.389 361 142.389 359.644C142.389 358.372 142.803 357.298 143.631 356.422C144.471 355.534 145.527 355.09 146.799 355.09C148.083 355.09 149.115 355.534 149.895 356.422C150.687 357.31 151.083 358.444 151.083 359.824V360.274H144.369C144.441 360.958 144.723 361.528 145.215 361.984C145.707 362.44 146.349 362.668 147.141 362.668C147.585 362.668 148.029 362.584 148.473 362.416C148.929 362.248 149.307 362.014 149.607 361.714L150.471 362.956C149.595 363.796 148.419 364.216 146.943 364.216ZM149.247 358.942C149.223 358.342 149.001 357.808 148.581 357.34C148.173 356.872 147.579 356.638 146.799 356.638C146.055 356.638 145.473 356.872 145.053 357.34C144.633 357.796 144.399 358.33 144.351 358.942H149.247ZM154.839 361.39C155.043 361.714 155.355 361.99 155.775 362.218C156.207 362.434 156.639 362.542 157.071 362.542C157.815 362.542 158.409 362.278 158.853 361.75C159.309 361.21 159.537 360.514 159.537 359.662C159.537 358.81 159.309 358.114 158.853 357.574C158.409 357.034 157.815 356.764 157.071 356.764C156.639 356.764 156.213 356.878 155.793 357.106C155.373 357.334 155.055 357.616 154.839 357.952V361.39ZM154.839 364H152.949V351.994H154.839V356.512C155.547 355.564 156.477 355.09 157.629 355.09C158.757 355.09 159.681 355.51 160.401 356.35C161.121 357.178 161.481 358.282 161.481 359.662C161.481 361.066 161.121 362.176 160.401 362.992C159.681 363.808 158.757 364.216 157.629 364.216C156.489 364.216 155.559 363.748 154.839 362.812V364ZM167.332 364.216C165.988 364.216 164.908 363.778 164.092 362.902C163.276 362.014 162.868 360.928 162.868 359.644C162.868 358.36 163.276 357.28 164.092 356.404C164.908 355.528 165.988 355.09 167.332 355.09C168.688 355.09 169.774 355.528 170.59 356.404C171.406 357.28 171.814 358.36 171.814 359.644C171.814 360.94 171.406 362.026 170.59 362.902C169.774 363.778 168.688 364.216 167.332 364.216ZM167.332 362.542C168.112 362.542 168.724 362.266 169.168 361.714C169.624 361.15 169.852 360.46 169.852 359.644C169.852 358.84 169.624 358.162 169.168 357.61C168.724 357.046 168.112 356.764 167.332 356.764C166.564 356.764 165.952 357.046 165.496 357.61C165.052 358.162 164.83 358.84 164.83 359.644C164.83 360.46 165.052 361.15 165.496 361.714C165.952 362.266 166.564 362.542 167.332 362.542ZM177.65 364.216C176.306 364.216 175.226 363.778 174.41 362.902C173.594 362.014 173.186 360.928 173.186 359.644C173.186 358.36 173.594 357.28 174.41 356.404C175.226 355.528 176.306 355.09 177.65 355.09C179.006 355.09 180.092 355.528 180.908 356.404C181.724 357.28 182.132 358.36 182.132 359.644C182.132 360.94 181.724 362.026 180.908 362.902C180.092 363.778 179.006 364.216 177.65 364.216ZM177.65 362.542C178.43 362.542 179.042 362.266 179.486 361.714C179.942 361.15 180.17 360.46 180.17 359.644C180.17 358.84 179.942 358.162 179.486 357.61C179.042 357.046 178.43 356.764 177.65 356.764C176.882 356.764 176.27 357.046 175.814 357.61C175.37 358.162 175.148 358.84 175.148 359.644C175.148 360.46 175.37 361.15 175.814 361.714C176.27 362.266 176.882 362.542 177.65 362.542ZM192.18 364H189.804L187.14 360.418L185.934 361.66V364H184.044V351.994H185.934V359.5L189.768 355.306H192.108L188.49 359.248L192.18 364ZM200.302 364H198.196V351.994H200.302V364ZM210.558 364H208.668V358.564C208.668 357.364 208.086 356.764 206.922 356.764C206.466 356.764 206.04 356.878 205.644 357.106C205.248 357.334 204.93 357.61 204.69 357.934V364H202.8V355.306H204.69V356.494C205.014 356.11 205.446 355.78 205.986 355.504C206.526 355.228 207.114 355.09 207.75 355.09C208.674 355.09 209.37 355.33 209.838 355.81C210.318 356.29 210.558 356.98 210.558 357.88V364ZM216.649 360.454H212.329V358.834H216.649V360.454ZM220.57 364H218.464V351.994H226.69V353.848H220.57V356.962H226.564V358.816H220.57V364ZM232.531 364.216C231.211 364.216 230.119 363.796 229.255 362.956C228.403 362.104 227.977 361 227.977 359.644C227.977 358.372 228.391 357.298 229.219 356.422C230.059 355.534 231.115 355.09 232.387 355.09C233.671 355.09 234.703 355.534 235.483 356.422C236.275 357.31 236.671 358.444 236.671 359.824V360.274H229.957C230.029 360.958 230.311 361.528 230.803 361.984C231.295 362.44 231.937 362.668 232.729 362.668C233.173 362.668 233.617 362.584 234.061 362.416C234.517 362.248 234.895 362.014 235.195 361.714L236.059 362.956C235.183 363.796 234.007 364.216 232.531 364.216ZM234.835 358.942C234.811 358.342 234.589 357.808 234.169 357.34C233.761 356.872 233.167 356.638 232.387 356.638C231.643 356.638 231.061 356.872 230.641 357.34C230.221 357.796 229.987 358.33 229.939 358.942H234.835ZM242.551 364.216C241.231 364.216 240.139 363.796 239.275 362.956C238.423 362.104 237.997 361 237.997 359.644C237.997 358.372 238.411 357.298 239.239 356.422C240.079 355.534 241.135 355.09 242.407 355.09C243.691 355.09 244.723 355.534 245.503 356.422C246.295 357.31 246.691 358.444 246.691 359.824V360.274H239.977C240.049 360.958 240.331 361.528 240.823 361.984C241.315 362.44 241.957 362.668 242.749 362.668C243.193 362.668 243.637 362.584 244.081 362.416C244.537 362.248 244.915 362.014 245.215 361.714L246.079 362.956C245.203 363.796 244.027 364.216 242.551 364.216ZM244.855 358.942C244.831 358.342 244.609 357.808 244.189 357.34C243.781 356.872 243.187 356.638 242.407 356.638C241.663 356.638 241.081 356.872 240.661 357.34C240.241 357.796 240.007 358.33 239.958 358.942H244.855ZM256.566 364H254.676V362.812C253.956 363.748 253.026 364.216 251.886 364.216C250.746 364.216 249.816 363.808 249.096 362.992C248.376 362.176 248.016 361.066 248.016 359.662C248.016 358.27 248.376 357.16 249.096 356.332C249.816 355.504 250.746 355.09 251.886 355.09C253.026 355.09 253.956 355.564 254.676 356.512V351.994H256.566V364ZM252.426 362.542C252.87 362.542 253.302 362.434 253.722 362.218C254.142 362.002 254.46 361.726 254.676 361.39V357.934C254.46 357.598 254.142 357.322 253.722 357.106C253.302 356.878 252.87 356.764 252.426 356.764C251.682 356.764 251.088 357.034 250.644 357.574C250.2 358.114 249.978 358.81 249.978 359.662C249.978 360.514 250.2 361.21 250.644 361.75C251.088 362.278 251.682 362.542 252.426 362.542ZM274.492 364H272.098L271.216 361.696H265.708L264.826 364H262.432L267.148 351.994H269.776L274.492 364ZM270.622 359.842L268.462 354.118L266.302 359.842H270.622ZM283.759 364H281.869V362.812C281.149 363.748 280.219 364.216 279.079 364.216C277.939 364.216 277.009 363.808 276.289 362.992C275.569 362.176 275.209 361.066 275.209 359.662C275.209 358.27 275.569 357.16 276.289 356.332C277.009 355.504 277.939 355.09 279.079 355.09C280.219 355.09 281.149 355.564 281.869 356.512V351.994H283.759V364ZM279.619 362.542C280.063 362.542 280.495 362.434 280.915 362.218C281.335 362.002 281.653 361.726 281.869 361.39V357.934C281.653 357.598 281.335 357.322 280.915 357.106C280.495 356.878 280.063 356.764 279.619 356.764C278.875 356.764 278.281 357.034 277.837 357.574C277.393 358.114 277.171 358.81 277.171 359.662C277.171 360.514 277.393 361.21 277.837 361.75C278.281 362.278 278.875 362.542 279.619 362.542Z" fill="white"/>
<path d="M126.752 407H124.646V398.09L120.956 407H120.056L116.384 398.09V407H114.278V394.994H117.248L120.506 402.896L123.782 394.994H126.752V407ZM136.453 407H134.563V406.064C133.891 406.832 132.955 407.216 131.755 407.216C130.963 407.216 130.261 406.964 129.649 406.46C129.037 405.944 128.731 405.236 128.731 404.336C128.731 403.412 129.031 402.71 129.631 402.23C130.243 401.75 130.951 401.51 131.755 401.51C132.991 401.51 133.927 401.882 134.563 402.626V401.33C134.563 400.826 134.377 400.43 134.005 400.142C133.633 399.854 133.141 399.71 132.529 399.71C131.557 399.71 130.699 400.076 129.955 400.808L129.181 399.494C130.165 398.558 131.383 398.09 132.835 398.09C133.903 398.09 134.773 398.342 135.445 398.846C136.117 399.35 136.453 400.148 136.453 401.24V407ZM132.493 405.92C133.441 405.92 134.131 405.62 134.563 405.02V403.706C134.131 403.106 133.441 402.806 132.493 402.806C131.953 402.806 131.509 402.95 131.161 403.238C130.813 403.526 130.639 403.904 130.639 404.372C130.639 404.84 130.813 405.218 131.161 405.506C131.509 405.782 131.953 405.92 132.493 405.92ZM139.84 397.244C139.528 397.244 139.252 397.13 139.012 396.902C138.784 396.674 138.67 396.398 138.67 396.074C138.67 395.75 138.784 395.474 139.012 395.246C139.252 395.018 139.528 394.904 139.84 394.904C140.164 394.904 140.44 395.018 140.668 395.246C140.896 395.474 141.01 395.75 141.01 396.074C141.01 396.398 140.896 396.674 140.668 396.902C140.44 397.13 140.164 397.244 139.84 397.244ZM140.794 407H138.904V398.306H140.794V407ZM145.135 407H143.245V394.994H145.135V407ZM151.547 407.216C150.227 407.216 149.147 406.79 148.307 405.938C147.467 405.074 147.047 403.976 147.047 402.644C147.047 401.324 147.467 400.238 148.307 399.386C149.147 398.522 150.227 398.09 151.547 398.09C152.999 398.09 154.109 398.606 154.877 399.638L153.635 400.79C153.155 400.106 152.489 399.764 151.637 399.764C150.845 399.764 150.209 400.034 149.729 400.574C149.249 401.102 149.009 401.792 149.009 402.644C149.009 403.496 149.249 404.192 149.729 404.732C150.209 405.272 150.845 405.542 151.637 405.542C152.465 405.542 153.131 405.2 153.635 404.516L154.877 405.668C154.109 406.7 152.999 407.216 151.547 407.216ZM164.311 407H162.421V401.528C162.421 400.892 162.265 400.442 161.953 400.178C161.653 399.902 161.221 399.764 160.657 399.764C160.213 399.764 159.793 399.878 159.397 400.106C159.001 400.334 158.677 400.61 158.425 400.934V407H156.535V394.994H158.425V399.494C158.749 399.11 159.181 398.78 159.721 398.504C160.273 398.228 160.867 398.09 161.503 398.09C163.375 398.09 164.311 399.008 164.311 400.844V407ZM167.701 397.244C167.389 397.244 167.113 397.13 166.873 396.902C166.645 396.674 166.531 396.398 166.531 396.074C166.531 395.75 166.645 395.474 166.873 395.246C167.113 395.018 167.389 394.904 167.701 394.904C168.025 394.904 168.301 395.018 168.529 395.246C168.757 395.474 168.871 395.75 168.871 396.074C168.871 396.398 168.757 396.674 168.529 396.902C168.301 397.13 168.025 397.244 167.701 397.244ZM168.655 407H166.765V398.306H168.655V407ZM183.653 407H181.763V401.33C181.763 400.286 181.289 399.764 180.341 399.764C179.945 399.764 179.561 399.878 179.189 400.106C178.817 400.334 178.529 400.604 178.325 400.916V407H176.435V401.33C176.435 400.286 175.955 399.764 174.995 399.764C174.611 399.764 174.233 399.878 173.861 400.106C173.501 400.334 173.213 400.61 172.997 400.934V407H171.107V398.306H172.997V399.494C173.213 399.17 173.585 398.858 174.113 398.558C174.653 398.246 175.223 398.09 175.823 398.09C177.083 398.09 177.875 398.624 178.199 399.692C178.475 399.26 178.883 398.888 179.423 398.576C179.963 398.252 180.539 398.09 181.151 398.09C182.819 398.09 183.653 398.966 183.653 400.718V407ZM190.781 407.216C189.629 407.216 188.699 406.742 187.991 405.794V410.312H186.101V398.306H187.991V399.494C188.687 398.558 189.617 398.09 190.781 398.09C191.921 398.09 192.845 398.498 193.553 399.314C194.273 400.13 194.633 401.24 194.633 402.644C194.633 404.048 194.273 405.164 193.553 405.992C192.845 406.808 191.921 407.216 190.781 407.216ZM190.223 405.542C190.967 405.542 191.561 405.272 192.005 404.732C192.449 404.192 192.671 403.496 192.671 402.644C192.671 401.792 192.449 401.102 192.005 400.574C191.561 400.034 190.967 399.764 190.223 399.764C189.791 399.764 189.365 399.878 188.945 400.106C188.525 400.334 188.207 400.61 187.991 400.934V404.372C188.207 404.696 188.525 404.972 188.945 405.2C189.365 405.428 189.791 405.542 190.223 405.542ZM209.41 407H201.184V394.994H209.41V396.848H203.29V399.962H209.284V401.816H203.29V405.146H209.41V407ZM224.065 407H222.175V401.33C222.175 400.286 221.701 399.764 220.753 399.764C220.357 399.764 219.973 399.878 219.601 400.106C219.229 400.334 218.941 400.604 218.737 400.916V407H216.847V401.33C216.847 400.286 216.367 399.764 215.407 399.764C215.023 399.764 214.645 399.878 214.273 400.106C213.913 400.334 213.625 400.61 213.409 400.934V407H211.519V398.306H213.409V399.494C213.625 399.17 213.997 398.858 214.525 398.558C215.065 398.246 215.635 398.09 216.235 398.09C217.495 398.09 218.287 398.624 218.611 399.692C218.887 399.26 219.295 398.888 219.835 398.576C220.375 398.252 220.951 398.09 221.563 398.09C223.231 398.09 224.065 398.966 224.065 400.718V407ZM233.713 407H231.823V406.064C231.151 406.832 230.215 407.216 229.015 407.216C228.223 407.216 227.521 406.964 226.909 406.46C226.297 405.944 225.991 405.236 225.991 404.336C225.991 403.412 226.291 402.71 226.891 402.23C227.503 401.75 228.211 401.51 229.015 401.51C230.251 401.51 231.187 401.882 231.823 402.626V401.33C231.823 400.826 231.637 400.43 231.265 400.142C230.893 399.854 230.401 399.71 229.789 399.71C228.817 399.71 227.959 400.076 227.215 400.808L226.441 399.494C227.425 398.558 228.643 398.09 230.095 398.09C231.163 398.09 232.033 398.342 232.705 398.846C233.377 399.35 233.713 400.148 233.713 401.24V407ZM229.753 405.92C230.701 405.92 231.391 405.62 231.823 405.02V403.706C231.391 403.106 230.701 402.806 229.753 402.806C229.213 402.806 228.769 402.95 228.421 403.238C228.073 403.526 227.899 403.904 227.899 404.372C227.899 404.84 228.073 405.218 228.421 405.506C228.769 405.782 229.213 405.92 229.753 405.92ZM237.099 397.244C236.787 397.244 236.511 397.13 236.271 396.902C236.043 396.674 235.929 396.398 235.929 396.074C235.929 395.75 236.043 395.474 236.271 395.246C236.511 395.018 236.787 394.904 237.099 394.904C237.423 394.904 237.699 395.018 237.927 395.246C238.155 395.474 238.269 395.75 238.269 396.074C238.269 396.398 238.155 396.674 237.927 396.902C237.699 397.13 237.423 397.244 237.099 397.244ZM238.053 407H236.163V398.306H238.053V407ZM242.395 407H240.505V394.994H242.395V407Z" fill="white"/>
<path d="M468.59 277.168C470.256 277.168 471.558 276.216 471.558 274.186V267.662H470.396V274.172C470.396 275.334 469.668 276.132 468.52 276.132C467.708 276.132 467.162 275.698 466.756 275.208L466.154 276.09C466.798 276.846 467.596 277.168 468.59 277.168ZM479.309 277V270.238H478.259V275.208C477.867 275.754 477.083 276.23 476.257 276.23C475.347 276.23 474.745 275.88 474.745 274.69V270.238H473.695V275.012C473.695 276.482 474.437 277.168 475.851 277.168C476.859 277.168 477.741 276.636 478.259 276.048V277H479.309ZM487.019 277V272.254C487.019 270.784 486.277 270.07 484.863 270.07C483.855 270.07 482.931 270.658 482.455 271.218V270.238H481.405V277H482.455V272.058C482.847 271.512 483.631 271.008 484.457 271.008C485.367 271.008 485.969 271.386 485.969 272.576V277H487.019ZM492.168 277.168C493.274 277.168 494.184 276.804 494.856 276.132L494.352 275.446C493.82 275.992 493.036 276.3 492.266 276.3C490.81 276.3 489.914 275.236 489.83 273.962H495.304V273.696C495.304 271.666 494.1 270.07 492.056 270.07C490.124 270.07 488.724 271.652 488.724 273.612C488.724 275.726 490.166 277.168 492.168 277.168ZM494.268 273.192H489.83C489.886 272.156 490.6 270.938 492.042 270.938C493.582 270.938 494.254 272.184 494.268 273.192ZM503.218 277V267.662H502.196L499.858 270.07L500.558 270.784L502.056 269.202V277H503.218ZM507.501 277.168C509.251 277.168 510.161 276.258 510.161 275.124C510.161 272.492 505.975 273.472 505.975 271.988C505.975 271.386 506.549 270.924 507.473 270.924C508.341 270.924 509.083 271.288 509.489 271.778L509.979 271.05C509.433 270.504 508.621 270.07 507.473 270.07C505.863 270.07 504.953 270.966 504.953 272.016C504.953 274.522 509.139 273.514 509.139 275.152C509.139 275.824 508.579 276.314 507.543 276.314C506.619 276.314 505.765 275.866 505.317 275.348L504.771 276.104C505.457 276.832 506.395 277.168 507.501 277.168ZM513.574 277.168C514.19 277.168 514.568 276.986 514.834 276.734L514.526 275.95C514.386 276.104 514.106 276.23 513.812 276.23C513.35 276.23 513.126 275.866 513.126 275.362V271.162H514.498V270.238H513.126V268.39H512.076V270.238H510.956V271.162H512.076V275.586C512.076 276.594 512.58 277.168 513.574 277.168Z" fill="white"/>
<path d="M468.59 321.168C470.256 321.168 471.558 320.216 471.558 318.186V311.662H470.396V318.172C470.396 319.334 469.668 320.132 468.52 320.132C467.708 320.132 467.162 319.698 466.756 319.208L466.154 320.09C466.798 320.846 467.596 321.168 468.59 321.168ZM479.309 321V314.238H478.259V319.208C477.867 319.754 477.083 320.23 476.257 320.23C475.347 320.23 474.745 319.88 474.745 318.69V314.238H473.695V319.012C473.695 320.482 474.437 321.168 475.851 321.168C476.859 321.168 477.741 320.636 478.259 320.048V321H479.309ZM487.019 321V316.254C487.019 314.784 486.277 314.07 484.863 314.07C483.855 314.07 482.931 314.658 482.455 315.218V314.238H481.405V321H482.455V316.058C482.847 315.512 483.631 315.008 484.457 315.008C485.367 315.008 485.969 315.386 485.969 316.576V321H487.019ZM492.168 321.168C493.274 321.168 494.184 320.804 494.856 320.132L494.352 319.446C493.82 319.992 493.036 320.3 492.266 320.3C490.81 320.3 489.914 319.236 489.83 317.962H495.304V317.696C495.304 315.666 494.1 314.07 492.056 314.07C490.124 314.07 488.724 315.652 488.724 317.612C488.724 319.726 490.166 321.168 492.168 321.168ZM494.268 317.192H489.83C489.886 316.156 490.6 314.938 492.042 314.938C493.582 314.938 494.254 316.184 494.268 317.192ZM505.612 321V318.634H506.928V317.612H505.612V311.662H504.016L500.012 317.668V318.634H504.45V321H505.612ZM504.45 317.612H501.174L504.45 312.74V317.612ZM510.129 321.168C510.745 321.168 511.123 320.986 511.389 320.734L511.081 319.95C510.941 320.104 510.661 320.23 510.367 320.23C509.905 320.23 509.681 319.866 509.681 319.362V315.162H511.053V314.238H509.681V312.39H508.631V314.238H507.511V315.162H508.631V319.586C508.631 320.594 509.135 321.168 510.129 321.168ZM518.164 321V316.226C518.164 314.756 517.422 314.07 516.008 314.07C514.986 314.07 514.062 314.658 513.586 315.218V311.662H512.536V321H513.586V316.058C513.992 315.512 514.776 315.008 515.588 315.008C516.498 315.008 517.114 315.358 517.114 316.548V321H518.164Z" fill="white"/>
<path d="M468.59 367.168C470.256 367.168 471.558 366.216 471.558 364.186V357.662H470.396V364.172C470.396 365.334 469.668 366.132 468.52 366.132C467.708 366.132 467.162 365.698 466.756 365.208L466.154 366.09C466.798 366.846 467.596 367.168 468.59 367.168ZM479.309 367V360.238H478.259V365.208C477.867 365.754 477.083 366.23 476.257 366.23C475.347 366.23 474.745 365.88 474.745 364.69V360.238H473.695V365.012C473.695 366.482 474.437 367.168 475.851 367.168C476.859 367.168 477.741 366.636 478.259 366.048V367H479.309ZM487.019 367V362.254C487.019 360.784 486.277 360.07 484.863 360.07C483.855 360.07 482.931 360.658 482.455 361.218V360.238H481.405V367H482.455V362.058C482.847 361.512 483.631 361.008 484.457 361.008C485.367 361.008 485.969 361.386 485.969 362.576V367H487.019ZM492.168 367.168C493.274 367.168 494.184 366.804 494.856 366.132L494.352 365.446C493.82 365.992 493.036 366.3 492.266 366.3C490.81 366.3 489.914 365.236 489.83 363.962H495.304V363.696C495.304 361.666 494.1 360.07 492.056 360.07C490.124 360.07 488.724 361.652 488.724 363.612C488.724 365.726 490.166 367.168 492.168 367.168ZM494.268 363.192H489.83C489.886 362.156 490.6 360.938 492.042 360.938C493.582 360.938 494.254 362.184 494.268 363.192ZM503.778 367.168C505.654 367.168 507.096 365.992 507.096 364.088C507.096 362.17 505.682 361.106 504.128 361.106C503.19 361.106 502.392 361.498 501.944 361.946V358.698H506.494V357.662H500.782V362.702L501.636 362.996C502.266 362.38 502.966 362.114 503.792 362.114C505.052 362.114 505.934 362.898 505.934 364.13C505.934 365.264 505.052 366.132 503.778 366.132C502.63 366.132 501.818 365.684 501.202 364.9L500.488 365.67C501.188 366.594 502.196 367.168 503.778 367.168ZM510.58 367.168C511.196 367.168 511.574 366.986 511.84 366.734L511.532 365.95C511.392 366.104 511.112 366.23 510.818 366.23C510.356 366.23 510.132 365.866 510.132 365.362V361.162H511.504V360.238H510.132V358.39H509.082V360.238H507.962V361.162H509.082V365.586C509.082 366.594 509.586 367.168 510.58 367.168ZM518.616 367V362.226C518.616 360.756 517.874 360.07 516.46 360.07C515.438 360.07 514.514 360.658 514.038 361.218V357.662H512.988V367H514.038V362.058C514.444 361.512 515.228 361.008 516.04 361.008C516.95 361.008 517.566 361.358 517.566 362.548V367H518.616Z" fill="white"/>
<path d="M468.59 407.168C470.256 407.168 471.558 406.216 471.558 404.186V397.662H470.396V404.172C470.396 405.334 469.668 406.132 468.52 406.132C467.708 406.132 467.162 405.698 466.756 405.208L466.154 406.09C466.798 406.846 467.596 407.168 468.59 407.168ZM479.309 407V400.238H478.259V405.208C477.867 405.754 477.083 406.23 476.257 406.23C475.347 406.23 474.745 405.88 474.745 404.69V400.238H473.695V405.012C473.695 406.482 474.437 407.168 475.851 407.168C476.859 407.168 477.741 406.636 478.259 406.048V407H479.309ZM487.019 407V402.254C487.019 400.784 486.277 400.07 484.863 400.07C483.855 400.07 482.931 400.658 482.455 401.218V400.238H481.405V407H482.455V402.058C482.847 401.512 483.631 401.008 484.457 401.008C485.367 401.008 485.969 401.386 485.969 402.576V407H487.019ZM492.168 407.168C493.274 407.168 494.184 406.804 494.856 406.132L494.352 405.446C493.82 405.992 493.036 406.3 492.266 406.3C490.81 406.3 489.914 405.236 489.83 403.962H495.304V403.696C495.304 401.666 494.1 400.07 492.056 400.07C490.124 400.07 488.724 401.652 488.724 403.612C488.724 405.726 490.166 407.168 492.168 407.168ZM494.268 403.192H489.83C489.886 402.156 490.6 400.938 492.042 400.938C493.582 400.938 494.254 402.184 494.268 403.192ZM503.33 407.154C505.948 407.154 507.124 404.858 507.124 402.338C507.124 399.79 506.13 397.508 503.512 397.508C501.482 397.508 500.25 398.95 500.25 400.56C500.25 402.548 501.636 403.542 503.316 403.542C504.506 403.542 505.542 402.73 505.948 402.086C505.962 402.212 505.962 402.338 505.962 402.464C505.962 404.228 505.22 406.118 503.33 406.118C502.364 406.118 501.804 405.726 501.328 405.166L500.74 406.034C501.328 406.706 502.14 407.154 503.33 407.154ZM503.582 402.534C502.378 402.534 501.426 401.89 501.426 400.518C501.426 399.636 502.14 398.544 503.568 398.544C505.192 398.544 505.808 399.986 505.906 401.148C505.416 401.974 504.506 402.534 503.582 402.534ZM510.594 407.168C511.21 407.168 511.588 406.986 511.854 406.734L511.546 405.95C511.406 406.104 511.126 406.23 510.832 406.23C510.37 406.23 510.146 405.866 510.146 405.362V401.162H511.518V400.238H510.146V398.39H509.096V400.238H507.976V401.162H509.096V405.586C509.096 406.594 509.6 407.168 510.594 407.168ZM518.629 407V402.226C518.629 400.756 517.887 400.07 516.473 400.07C515.451 400.07 514.527 400.658 514.051 401.218V397.662H513.001V407H514.051V402.058C514.457 401.512 515.241 401.008 516.053 401.008C516.963 401.008 517.579 401.358 517.579 402.548V407H518.629Z" fill="white"/>
<path d="M468.59 451.168C470.256 451.168 471.558 450.216 471.558 448.186V441.662H470.396V448.172C470.396 449.334 469.668 450.132 468.52 450.132C467.708 450.132 467.162 449.698 466.756 449.208L466.154 450.09C466.798 450.846 467.596 451.168 468.59 451.168ZM479.309 451V444.238H478.259V449.208C477.867 449.754 477.083 450.23 476.257 450.23C475.347 450.23 474.745 449.88 474.745 448.69V444.238H473.695V449.012C473.695 450.482 474.437 451.168 475.851 451.168C476.859 451.168 477.741 450.636 478.259 450.048V451H479.309ZM487.019 451V446.254C487.019 444.784 486.277 444.07 484.863 444.07C483.855 444.07 482.931 444.658 482.455 445.218V444.238H481.405V451H482.455V446.058C482.847 445.512 483.631 445.008 484.457 445.008C485.367 445.008 485.969 445.386 485.969 446.576V451H487.019ZM492.168 451.168C493.274 451.168 494.184 450.804 494.856 450.132L494.352 449.446C493.82 449.992 493.036 450.3 492.266 450.3C490.81 450.3 489.914 449.236 489.83 447.962H495.304V447.696C495.304 445.666 494.1 444.07 492.056 444.07C490.124 444.07 488.724 445.652 488.724 447.612C488.724 449.726 490.166 451.168 492.168 451.168ZM494.268 447.192H489.83C489.886 446.156 490.6 444.938 492.042 444.938C493.582 444.938 494.254 446.184 494.268 447.192ZM503.218 451V441.662H502.196L499.858 444.07L500.558 444.784L502.056 443.202V451H503.218ZM507.963 451V441.662H506.941L504.603 444.07L505.303 444.784L506.801 443.202V451H507.963ZM511.811 451.168C512.427 451.168 512.805 450.986 513.071 450.734L512.763 449.95C512.623 450.104 512.343 450.23 512.049 450.23C511.587 450.23 511.363 449.866 511.363 449.362V445.162H512.735V444.238H511.363V442.39H510.313V444.238H509.193V445.162H510.313V449.586C510.313 450.594 510.817 451.168 511.811 451.168ZM519.846 451V446.226C519.846 444.756 519.104 444.07 517.69 444.07C516.668 444.07 515.744 444.658 515.268 445.218V441.662H514.218V451H515.268V446.058C515.674 445.512 516.458 445.008 517.27 445.008C518.18 445.008 518.796 445.358 518.796 446.548V451H519.846Z" fill="white"/>
<path d="M468.59 494.168C470.256 494.168 471.558 493.216 471.558 491.186V484.662H470.396V491.172C470.396 492.334 469.668 493.132 468.52 493.132C467.708 493.132 467.162 492.698 466.756 492.208L466.154 493.09C466.798 493.846 467.596 494.168 468.59 494.168ZM479.309 494V487.238H478.259V492.208C477.867 492.754 477.083 493.23 476.257 493.23C475.347 493.23 474.745 492.88 474.745 491.69V487.238H473.695V492.012C473.695 493.482 474.437 494.168 475.851 494.168C476.859 494.168 477.741 493.636 478.259 493.048V494H479.309ZM487.019 494V489.254C487.019 487.784 486.277 487.07 484.863 487.07C483.855 487.07 482.931 487.658 482.455 488.218V487.238H481.405V494H482.455V489.058C482.847 488.512 483.631 488.008 484.457 488.008C485.367 488.008 485.969 488.386 485.969 489.576V494H487.019ZM492.168 494.168C493.274 494.168 494.184 493.804 494.856 493.132L494.352 492.446C493.82 492.992 493.036 493.3 492.266 493.3C490.81 493.3 489.914 492.236 489.83 490.962H495.304V490.696C495.304 488.666 494.1 487.07 492.056 487.07C490.124 487.07 488.724 488.652 488.724 490.612C488.724 492.726 490.166 494.168 492.168 494.168ZM494.268 490.192H489.83C489.886 489.156 490.6 487.938 492.042 487.938C493.582 487.938 494.254 489.184 494.268 490.192ZM503.218 494V484.662H502.196L499.858 487.07L500.558 487.784L502.056 486.202V494H503.218ZM507.963 494V484.662H506.941L504.603 487.07L505.303 487.784L506.801 486.202V494H507.963ZM511.811 494.168C512.427 494.168 512.805 493.986 513.071 493.734L512.763 492.95C512.623 493.104 512.343 493.23 512.049 493.23C511.587 493.23 511.363 492.866 511.363 492.362V488.162H512.735V487.238H511.363V485.39H510.313V487.238H509.193V488.162H510.313V492.586C510.313 493.594 510.817 494.168 511.811 494.168ZM519.846 494V489.226C519.846 487.756 519.104 487.07 517.69 487.07C516.668 487.07 515.744 487.658 515.268 488.218V484.662H514.218V494H515.268V489.058C515.674 488.512 516.458 488.008 517.27 488.008C518.18 488.008 518.796 488.358 518.796 489.548V494H519.846Z" fill="white"/>
<defs>
<filter id="filter0_d" x="0" y="92" width="634.133" height="550" filterUnits="userSpaceOnUse" color-interpolation-filters="sRGB">
<feFlood flood-opacity="0" result="BackgroundImageFix"/>
<feColorMatrix in="SourceAlpha" type="matrix" values="0 0 0 0 0 0 0 0 0 0 0 0 0 0 0 0 0 0 127 0" result="hardAlpha"/>
<feMorphology radius="5" operator="dilate" in="SourceAlpha" result="effect1_dropShadow"/>
<feOffset dy="4"/>
<feGaussianBlur stdDeviation="40"/>
<feComposite in2="hardAlpha" operator="out"/>
<feColorMatrix type="matrix" values="0 0 0 0 0.466667 0 0 0 0 0.411765 0 0 0 0 0.956863 0 0 0 0.5 0"/>
<feBlend mode="normal" in2="BackgroundImageFix" result="effect1_dropShadow"/>
<feBlend mode="normal" in="SourceGraphic" in2="effect1_dropShadow" result="shape"/>
</filter>
<linearGradient id="paint0_linear" x1="85" y1="562.114" x2="617.057" y2="326.172" gradientUnits="userSpaceOnUse">
<stop stop-color="#265DE3"/>
<stop offset="1" stop-color="#AF71FF"/>
</linearGradient>
<linearGradient id="paint1_linear" x1="85" y1="562.114" x2="617.057" y2="326.172" gradientUnits="userSpaceOnUse">
<stop stop-color="#5A83E7"/>
<stop offset="1" stop-color="#CAA0FF"/>
</linearGradient>
</defs>
</svg>
