<svg width="966" height="39" viewBox="0 0 966 39" fill="none" xmlns="http://www.w3.org/2000/svg">
<path d="M9.56585 29.5376H3.87602V14.9776H0V10.2372H3.87587V6.86399C3.87587 2.86678 5.59017 0 11.2646 0C12.4647 0 14.3489 0.248314 14.3489 0.248314V4.65008H12.3699C10.3535 4.65008 9.56615 5.2797 9.56615 7.02038V10.2372H14.2734L13.8543 14.9776H9.566L9.56585 29.5376ZM22.6213 9.85833C22.5384 9.85833 22.4531 9.86143 22.3687 9.8636C17.0927 9.8636 14.6789 13.9374 14.6789 19.7202C14.6789 27.005 17.81 29.9206 22.4099 29.9206C25.0417 29.9206 26.7708 28.7835 27.8218 26.6616V29.5396H33.2336V10.2392H27.8218V13.2073C26.9636 11.2977 25.1862 9.88096 22.6213 9.85833ZM23.9974 14.419C26.2133 14.419 27.5433 16.0056 27.5433 18.7043L27.5484 21.4607C27.5484 23.2797 26.4499 25.4077 23.9974 25.4077C20.2269 25.4077 20.3276 21.2286 20.3276 19.8366C20.3276 15.1545 22.3365 14.419 23.9974 14.419ZM35.4192 19.8904C35.4192 17.5451 35.3098 9.87088 45.0499 9.87088C48.9598 9.87088 50.5924 11.147 50.5924 11.147L49.2802 15.3248C49.2802 15.3248 47.6497 14.4032 45.5251 14.4032C42.804 14.4032 41.0676 16.0225 41.0676 18.8716L41.0706 20.9145C41.0706 23.6522 42.746 25.4797 45.5307 25.4797C47.4663 25.4797 49.2502 24.5493 49.2502 24.5493L50.559 28.6399C50.559 28.6399 49.0662 29.924 45.0773 29.924C35.8032 29.924 35.4192 23.0388 35.4192 19.8904ZM82.324 9.8636C87.6001 9.8636 90.052 13.9374 90.052 19.7202C90.052 27.005 86.9207 29.9206 82.3208 29.9206C79.689 29.9206 77.7436 28.7837 76.6926 26.6616V29.5396L71.3489 29.5375V0.58684L77.0225 0.0788964V12.9458C77.8414 10.6947 80.5324 9.8636 82.324 9.8636ZM80.7334 14.419C78.5174 14.419 77.0225 16.0056 77.0225 18.7043L77.0173 21.4607C77.0139 23.2797 78.0525 25.4077 80.7334 25.4077C84.5038 25.4077 84.4031 21.2286 84.4031 19.8366C84.4031 15.1545 82.3944 14.419 80.7334 14.419ZM60.4367 9.87956C54.4526 9.87956 51.2933 13.2287 51.2933 19.1805V20.2863C51.2933 28.0112 55.7299 30 61.0191 30C66.1602 30 68.4873 28.5239 68.4873 28.5239L67.4256 24.593C67.4256 24.593 64.6883 25.7886 61.6994 25.7886C58.6008 25.7886 57.2683 24.9779 56.9267 21.9213H68.9409V18.7677C68.9409 12.3116 65.3952 9.87941 60.4365 9.87941L60.4367 9.87956ZM60.5809 13.8157C62.6523 13.8157 63.9946 15.1196 63.9209 18.1435H56.9371C57.0582 14.9609 58.5057 13.8157 60.5809 13.8157ZM101.365 9.85306C95.2199 9.85306 91.9847 13.4079 91.9847 19.7783C91.9847 28.5189 97.5614 29.9259 101.375 29.9259C106.959 29.9259 110.673 26.8403 110.673 19.8577C110.673 12.5901 106.497 9.85306 101.365 9.85306ZM101.288 14.4348C103.99 14.4348 105.061 16.5107 105.061 18.8738V20.9054C105.061 23.768 103.562 25.4237 101.278 25.4237C99.1406 25.4237 97.6387 23.8749 97.6387 20.9054V18.8738C97.6387 15.7067 99.4258 14.4348 101.288 14.4348ZM121.976 9.85306C115.831 9.85306 112.596 13.4079 112.596 19.7783C112.596 28.5189 118.173 29.9259 121.987 29.9259C127.57 29.9259 131.285 26.8403 131.285 19.8577C131.285 12.5901 127.108 9.85306 121.976 9.85306ZM121.899 14.4348C124.601 14.4348 125.672 16.5107 125.672 18.8738V20.9054C125.672 23.768 124.173 25.4237 121.889 25.4237C119.752 25.4237 118.25 23.8749 118.25 20.9054V18.8738C118.25 15.7067 120.037 14.4348 121.899 14.4348ZM133.429 29.5376V0.58684L139.119 0.0790514V19.4837L144.764 10.2373H150.773L144.884 19.8138L151 29.5376H144.974L139.119 20.0958V29.5376H133.429Z" fill="#252531"/>
<path d="M209.045 5C202.482 5 197 10.2823 197 16.8052C197 23.328 202.482 28.5703 209.045 28.5703C212.607 28.5703 215.208 27.4098 217.329 25.2489C219.49 23.0879 220.13 20.1266 220.13 17.7256C220.13 16.9652 220.09 16.2849 219.97 15.6847H209.085V18.8861H216.849C216.609 20.6869 216.048 22.0475 215.088 22.9679C213.967 24.0884 212.167 25.3689 209.085 25.3689C204.323 25.3689 200.602 21.5272 200.602 16.8052C200.602 12.0831 204.323 8.24142 209.085 8.24142C211.646 8.24142 213.567 9.24186 214.928 10.5624L217.209 8.28144C215.248 6.44064 212.647 5 209.045 5ZM228.814 13.4437C224.692 13.4437 221.251 16.6451 221.251 21.1271C221.251 25.569 224.612 28.8104 228.814 28.8104C233.016 28.8104 236.377 25.569 236.377 21.1271C236.377 16.6851 232.936 13.4437 228.814 13.4437ZM228.814 25.7691C226.533 25.7691 224.572 23.8483 224.572 21.1271C224.572 18.4059 226.533 16.485 228.814 16.485C231.095 16.485 233.056 18.3659 233.056 21.1271C233.056 23.8483 231.055 25.7691 228.814 25.7691ZM245.221 13.4437C241.019 13.4437 237.658 16.6451 237.658 21.1271C237.658 25.569 241.019 28.8104 245.221 28.8104C249.343 28.8104 252.784 25.569 252.784 21.1271C252.784 16.6851 249.423 13.4437 245.221 13.4437ZM245.221 25.7691C242.94 25.7691 240.979 23.8483 240.979 21.1271C240.979 18.4059 242.94 16.485 245.221 16.485C247.502 16.485 249.463 18.3659 249.463 21.1271C249.463 23.8483 247.542 25.7691 245.221 25.7691ZM261.588 13.4437C257.787 13.4437 254.385 16.7652 254.385 21.0871C254.385 25.3289 257.827 28.6504 261.588 28.6504C263.389 28.6504 264.79 27.85 265.55 26.8896H265.67V28.0101C265.67 30.9314 264.149 32.4921 261.668 32.4921C259.627 32.4921 258.427 31.0514 257.867 29.8109L254.945 31.0514C255.746 33.0923 257.987 35.5334 261.628 35.5334C265.55 35.5334 268.791 33.2124 268.791 27.6099V13.9639H265.63V15.2045H265.51C264.79 14.2441 263.389 13.4437 261.588 13.4437ZM261.868 25.649C259.587 25.649 257.667 23.7282 257.667 21.047C257.667 18.3659 259.587 16.405 261.868 16.405C264.149 16.405 265.87 18.3659 265.87 21.047C265.87 23.7282 264.149 25.649 261.868 25.649ZM271.273 5.9204H274.594V28.4103H271.273V5.9204ZM283.478 13.4437C279.516 13.4437 276.195 16.5251 276.195 21.1271C276.195 25.449 279.436 28.8104 283.838 28.8104C287.4 28.8104 289.441 26.6495 290.241 25.449L287.64 23.6882C286.759 24.9688 285.559 25.7691 283.838 25.7691C282.077 25.7691 280.877 25.0088 280.116 23.4481L290.441 19.2062L290.081 18.3258C289.441 16.6451 287.44 13.4437 283.478 13.4437ZM279.516 20.887C279.396 17.9257 281.837 16.405 283.518 16.405C284.838 16.405 286.039 17.0453 286.359 18.0457L279.516 20.887Z" fill="#252531"/>
<path d="M296.244 28.0505L303.928 7.60156H306.889L314.572 28.0505H311.651L309.69 22.5281H301.126L299.165 28.0505H296.244ZM302.007 20.087H308.81L305.488 10.883H305.368L302.007 20.087Z" fill="#252531"/>
<path d="M317.253 26.3688C315.972 24.9282 315.332 23.1674 315.332 21.0865C315.332 19.0456 315.972 17.2848 317.253 15.8042C318.573 14.3636 320.094 13.6433 321.975 13.6433C323.015 13.6433 323.936 13.8834 324.776 14.2835C325.657 14.7637 326.297 15.284 326.737 16.0443H326.857L326.737 14.1235V7.64062H329.338V28.0896H326.857V26.1687H326.737C326.257 26.849 325.617 27.4493 324.776 27.9295C323.896 28.4097 322.975 28.5698 321.975 28.5698C320.134 28.5298 318.533 27.8095 317.253 26.3688ZM325.537 24.7281C326.417 23.8077 326.817 22.5672 326.817 21.0465C326.817 19.6059 326.417 18.3653 325.537 17.4449C324.736 16.5245 323.656 16.0443 322.375 16.0443C321.095 16.0443 320.054 16.5245 319.214 17.4449C318.333 18.3653 317.933 19.6059 317.933 21.0465C317.933 22.4871 318.333 23.7277 319.214 24.6481C320.094 25.5685 321.135 26.0487 322.375 26.0487C323.656 26.1287 324.696 25.6485 325.537 24.7281Z" fill="#252531"/>
<path d="M341.502 27.2495C340.462 28.0498 339.101 28.53 337.501 28.53C336.1 28.53 334.9 28.1699 333.779 27.4095C332.739 26.6492 331.978 25.7288 331.498 24.4883L333.819 23.4878C334.179 24.2882 334.619 25.0085 335.34 25.4487C335.98 25.9289 336.74 26.129 337.501 26.129C338.301 26.129 339.021 25.9689 339.582 25.6088C340.182 25.2486 340.382 24.8084 340.382 24.3282C340.382 23.4478 339.702 22.7675 338.341 22.3673L335.94 21.7671C333.219 21.0868 331.858 19.8062 331.858 17.8053C331.858 16.5248 332.378 15.5243 333.419 14.724C334.459 13.9637 335.82 13.5635 337.381 13.5635C338.621 13.5635 339.702 13.8436 340.742 14.4439C341.743 15.0441 342.423 15.8445 342.823 16.8449L340.502 17.8454C340.222 17.2451 339.822 16.8049 339.221 16.4447C338.621 16.0846 337.941 15.9245 337.181 15.9245C336.5 15.9245 335.9 16.0846 335.3 16.4447C334.779 16.8049 334.499 17.2051 334.499 17.7253C334.499 18.5257 335.26 19.1259 336.78 19.406L338.861 19.9263C341.663 20.6066 342.983 22.0072 342.983 24.1281C343.103 25.3687 342.543 26.4091 341.502 27.2495Z" fill="#252531"/>
<path d="M391.1 28.8699V23.5227C392.07 24.336 393.122 24.9459 394.259 25.3525C395.395 25.7591 396.542 25.9624 397.701 25.9624C398.38 25.9624 398.974 25.9012 399.48 25.7786C399.987 25.6561 400.411 25.4862 400.75 25.269C401.09 25.0517 401.344 24.7955 401.511 24.5003C401.678 24.2051 401.761 23.8848 401.761 23.5394C401.761 23.0716 401.628 22.6538 401.36 22.2862C401.093 21.9185 400.728 21.5788 400.266 21.2669C399.803 20.955 399.255 20.6542 398.62 20.3646C397.985 20.075 397.3 19.7797 396.564 19.479C394.693 18.6991 393.298 17.7467 392.379 16.6215C391.46 15.4964 391 14.1373 391 12.5443C391 11.2966 391.251 10.2244 391.752 9.3276C392.253 8.43083 392.936 7.69284 393.799 7.11355C394.662 6.53427 395.662 6.10815 396.798 5.8352C397.935 5.5623 399.138 5.42578 400.408 5.42578C401.655 5.42578 402.761 5.50099 403.725 5.65138C404.688 5.80177 405.577 6.0329 406.39 6.34484V11.3411C405.989 11.0626 405.552 10.8175 405.078 10.6059C404.605 10.3943 404.117 10.2188 403.616 10.0795C403.115 9.94031 402.616 9.83726 402.121 9.77045C401.625 9.70359 401.154 9.6702 400.709 9.6702C400.096 9.6702 399.539 9.72869 399.038 9.8457C398.536 9.96265 398.113 10.127 397.768 10.3386C397.422 10.5503 397.155 10.8037 396.965 11.0989C396.776 11.3942 396.681 11.7255 396.681 12.0932C396.681 12.4942 396.787 12.8535 396.999 13.171C397.211 13.4885 397.511 13.7893 397.901 14.0733C398.291 14.3574 398.765 14.6359 399.322 14.9088C399.879 15.1817 400.508 15.4631 401.21 15.7527C402.168 16.1537 403.028 16.5798 403.792 17.031C404.555 17.4822 405.209 17.9918 405.755 18.56C406.301 19.1281 406.719 19.777 407.008 20.5067C407.298 21.2364 407.443 22.0858 407.443 23.055C407.443 24.3918 407.189 25.5141 406.682 26.4221C406.175 27.33 405.488 28.0653 404.619 28.6278C403.75 29.1904 402.739 29.5942 401.586 29.8393C400.433 30.0844 399.216 30.2069 397.935 30.2069C396.62 30.2069 395.37 30.0956 394.183 29.8727C392.997 29.6497 391.969 29.3155 391.1 28.8699Z" fill="#252531"/>
<path d="M427.397 29.7877H422.134V20.2796C422.134 17.6283 421.187 16.3026 419.293 16.3026C418.379 16.3026 417.628 16.6535 417.037 17.3553C416.447 18.0572 416.151 18.9483 416.151 20.0289V29.7876H410.871V12.6765H416.151V15.3836H416.218C417.477 13.3004 419.31 12.2588 421.716 12.2588C425.504 12.2588 427.397 14.6093 427.397 19.3104V29.7877H427.397Z" fill="#252531"/>
<path d="M445.804 29.7877H440.808V27.3313H440.741C439.593 29.2474 437.894 30.2054 435.644 30.2054C433.984 30.2054 432.678 29.7348 431.726 28.7934C430.773 27.8521 430.297 26.596 430.297 25.0253C430.297 21.7055 432.263 19.7894 436.196 19.277L440.841 18.6587C440.841 16.7872 439.827 15.8514 437.8 15.8514C435.761 15.8514 433.823 16.4586 431.985 17.6728V13.6958C432.72 13.3171 433.725 12.9829 435.001 12.6932C436.276 12.4036 437.438 12.2588 438.485 12.2588C443.364 12.2588 445.804 14.6929 445.804 19.5611V29.7877H445.804ZM440.841 22.8363V21.6833L437.733 22.0844C436.017 22.3072 435.16 23.0814 435.16 24.407C435.16 25.0086 435.368 25.5015 435.786 25.8859C436.204 26.2702 436.769 26.4624 437.482 26.4624C438.474 26.4624 439.281 26.1199 439.905 25.4347C440.529 24.7496 440.841 23.8835 440.841 22.8363Z" fill="#252531"/>
<path d="M455.332 27.7991H455.265V37.6581H449.984V12.6765H455.265V15.2499H455.332C456.635 13.2558 458.468 12.2588 460.829 12.2588C463.046 12.2588 464.759 13.0191 465.968 14.5397C467.176 16.0603 467.781 18.1296 467.781 20.7475C467.781 23.5993 467.076 25.8886 465.667 27.6154C464.258 29.3421 462.383 30.2054 460.044 30.2054C457.983 30.2054 456.412 29.4033 455.332 27.7991ZM455.181 20.7809V22.1512C455.181 23.332 455.493 24.2956 456.117 25.042C456.741 25.7884 457.56 26.1616 458.573 26.1616C459.777 26.1616 460.709 25.6965 461.372 24.7663C462.035 23.8361 462.367 22.5188 462.367 20.8144C462.367 17.8066 461.197 16.3026 458.857 16.3026C457.777 16.3026 456.894 16.712 456.209 17.5308C455.524 18.3496 455.181 19.433 455.181 20.7809Z" fill="#252531"/>
<path d="M484.176 29.1694C482.984 29.8601 481.263 30.2054 479.012 30.2054C476.383 30.2054 474.256 29.4089 472.629 27.8159C471.003 26.2229 470.189 24.1675 470.189 21.6499C470.189 18.7423 471.061 16.4502 472.805 14.7736C474.548 13.097 476.879 12.2588 479.798 12.2588C481.814 12.2588 483.273 12.5261 484.176 13.0609V17.5392C483.073 16.7149 481.842 16.3027 480.483 16.3027C478.968 16.3027 477.768 16.7455 476.882 17.6311C475.996 18.5167 475.553 19.7394 475.553 21.299C475.553 22.814 475.977 24.0033 476.823 24.8666C477.67 25.7299 478.834 26.1616 480.316 26.1616C481.63 26.1616 482.917 25.7494 484.176 24.9251V29.1694Z" fill="#252531"/>
<path d="M504.059 29.7875H498.795V20.0623C498.795 17.5558 497.882 16.3025 496.055 16.3025C495.119 16.3025 494.361 16.6534 493.782 17.3552C493.203 18.0571 492.913 18.9483 492.913 20.0288V29.7875H487.633V4.45508H492.913V15.2164H492.98C494.272 13.2446 496.027 12.2587 498.244 12.2587C502.12 12.2587 504.059 14.5981 504.059 19.2769V29.7875H504.059Z" fill="#252531"/>
<path d="M522.48 29.7877H517.483V27.3313H517.416C516.269 29.2474 514.57 30.2054 512.32 30.2054C510.66 30.2054 509.354 29.7348 508.401 28.7934C507.449 27.8521 506.973 26.596 506.973 25.0253C506.973 21.7055 508.939 19.7894 512.871 19.277L517.517 18.6587C517.517 16.7872 516.503 15.8514 514.475 15.8514C512.437 15.8514 510.498 16.4586 508.66 17.6728V13.6958C509.396 13.3171 510.401 12.9829 511.677 12.6932C512.952 12.4036 514.113 12.2588 515.161 12.2588C520.04 12.2588 522.48 14.6929 522.48 19.5611V29.7877V29.7877ZM517.517 22.8363V21.6833L514.409 22.0844C512.693 22.3072 511.835 23.0814 511.835 24.407C511.835 25.0086 512.044 25.5015 512.462 25.8859C512.88 26.2702 513.445 26.4624 514.158 26.4624C515.149 26.4624 515.957 26.1199 516.581 25.4347C517.205 24.7496 517.517 23.8835 517.517 22.8363Z" fill="#252531"/>
<path d="M537 29.5898C536.22 30.002 535.045 30.2081 533.474 30.2081C529.753 30.2081 527.893 28.2753 527.893 24.4097V16.5727H525.119V12.6793H527.893V8.98638L533.157 7.48242V12.6793H537V16.5727H533.157V23.4907C533.157 25.273 533.864 26.1643 535.279 26.1643C535.836 26.1643 536.41 26.0027 537 25.6797V29.5898H537Z" fill="#252531"/>
<path d="M721.436 33.8335C721.438 33.8335 721.439 33.8335 721.442 33.8335C721.785 33.8335 722.067 33.5513 722.067 33.2083C722.067 33.1962 722.067 33.1843 722.066 33.1722C722.066 32.7033 721.783 32.4792 721.202 32.4792H720.264V34.9347H720.618V33.8643H721.051L721.06 33.8773L721.734 34.9347H722.111L721.388 33.8403L721.436 33.8335ZM721.027 33.5875H720.618V32.7575H721.137C721.404 32.7575 721.709 32.8012 721.709 33.152C721.709 33.5553 721.401 33.5875 721.025 33.5875H721.027ZM584 6.98574H589.207V25.9536H598.848V30.7591H584V6.98574ZM601.15 14.64H606.152V30.7502H601.15V14.64ZM603.651 6.63086C605.243 6.63116 606.552 7.94103 606.552 9.53284C606.552 11.1248 605.242 12.4348 603.65 12.4348C602.058 12.4348 600.748 11.1248 600.748 9.53284C600.748 7.94088 602.058 6.63086 603.65 6.63086C603.651 6.63086 603.651 6.63086 603.651 6.63086ZM627.078 6.98211H632.081V21.1897L637.75 14.6328H643.884L637.318 22.0912L643.745 30.757H637.458L632.148 22.7935H632.082V30.7559H627.079L627.078 6.98211ZM608.926 14.6417H613.73V16.8433H613.798C614.774 15.1705 616.599 14.168 618.535 14.2409C623.608 14.2409 624.542 17.5785 624.542 21.9145V30.7491H619.539V22.9166C619.539 21.047 619.505 18.6436 616.934 18.6436C614.333 18.6436 613.932 20.6795 613.932 22.7806V30.7471H608.93L608.926 14.6417Z" fill="#252531"/>
<path d="M654.476 20.8295C654.476 20.853 654.477 20.8059 654.476 20.8295C654.476 19.184 653.123 17.7592 651.478 17.7592C651.502 17.7586 651.453 17.7592 651.478 17.7592C649.671 17.6467 648.012 19.0246 647.87 20.8295H654.476ZM658.714 27.9683C657.031 30.0085 654.517 31.1865 651.873 31.1737C646.87 31.1737 642.865 27.8344 642.865 22.6636C642.865 17.4929 646.87 14.1552 651.873 14.1552C656.549 14.1552 659.481 17.4901 659.481 22.6636V24.2322H647.87C648.167 26.063 649.785 27.4091 651.64 27.3687C653.085 27.3596 654.431 26.6174 655.21 25.3999L658.714 27.9683ZM669.908 18.5422C667.407 18.5422 665.906 20.2124 665.906 22.646C665.906 25.0795 667.406 26.751 669.908 26.751C672.41 26.751 673.914 25.0836 673.914 22.646C673.914 20.2082 672.412 18.5422 669.908 18.5422ZM678.519 30.7552H673.914V28.6187C672.743 30.1927 670.833 31.1322 668.872 31.1554C664.065 31.1554 660.899 27.6864 660.899 22.7808C660.899 18.2756 663.701 14.1385 668.307 14.1385C670.377 14.1385 672.311 14.7049 673.446 16.275L673.511 6.98855H678.518L678.519 30.7552ZM712.291 30.7646H707.288V22.9305C707.288 21.0623 707.255 18.6575 704.686 18.6575C702.081 18.6575 701.682 20.6928 701.682 22.7944V30.764H696.68V14.6539H701.482V16.8554C702.46 15.1836 704.352 14.1813 706.288 14.2532C711.358 14.2532 712.293 17.5882 712.293 21.9268L712.291 30.7646ZM691.035 12.4517C689.443 12.4517 688.132 11.1414 688.132 9.54879C688.132 7.95623 689.442 6.64576 691.035 6.64576C692.627 6.64576 693.937 7.95593 693.938 9.54819C693.938 11.1404 692.628 12.4515 691.035 12.4517ZM693.536 30.7646H688.529V14.6539H693.536V30.7646ZM714.784 2.00021H686.015C684.664 1.98496 683.54 3.08311 683.524 4.4336V33.3226C683.54 34.6738 684.664 35.7732 686.015 35.7587H714.784C716.139 35.7757 717.267 34.6765 717.285 33.3226V4.43164C717.267 3.07828 716.138 1.98239 714.784 2.00021ZM721.128 31.3936C719.874 31.4056 718.848 32.441 718.848 33.6956C718.848 34.9586 719.887 35.9979 721.15 35.9979C722.414 35.9979 723.452 34.9586 723.452 33.6956C723.452 32.441 722.383 31.4056 721.128 31.3936ZM721.128 35.7342C721.14 35.7342 721.116 35.7344 721.128 35.7342C720.022 35.7342 719.076 34.8233 719.076 33.7158C719.076 32.6084 719.987 31.6971 721.094 31.6971C722.189 31.6971 723.095 32.5876 723.113 33.6821C723.135 34.7653 722.211 35.7108 721.128 35.7342Z" fill="#252531"/>
<path fill-rule="evenodd" clip-rule="evenodd" d="M816.149 26.9447C814.221 27.3892 813.224 26.7962 813.224 25.5195C813.224 23.7701 815.033 23.0699 817.617 23.0699C818.754 23.0699 819.827 23.1681 819.827 23.1681C819.827 23.9169 818.199 26.4721 816.149 26.9447ZM818.111 9.43066C811.94 9.43066 807.509 11.6996 807.509 11.6996V18.3695C807.509 18.3695 812.401 15.5579 816.369 15.5579C819.535 15.5579 819.925 17.266 819.781 18.6829C819.781 18.6829 818.867 18.4413 816.081 18.4413C809.512 18.4413 806.197 21.4261 806.197 26.2115C806.197 30.751 809.923 32.648 813.062 32.648C817.642 32.648 819.657 29.5699 820.275 28.1101C820.704 27.0973 820.784 26.4144 821.168 26.4144C821.609 26.4144 821.461 26.9043 821.439 27.9121C821.402 29.678 821.486 31.0125 821.766 32.1374H827.84V21.2142C827.84 14.3941 825.426 9.43066 818.111 9.43066" fill="#252531"/>
<path fill-rule="evenodd" clip-rule="evenodd" d="M858.087 21.051C858.087 19.0558 859.942 17.2389 863.347 17.2389C867.057 17.2389 870.043 19.0253 870.712 19.4311V11.7096C870.712 11.7096 868.354 9.43983 862.559 9.43983C856.45 9.43983 851.363 13.0136 851.363 20.7062C851.363 28.398 855.98 32.6637 862.542 32.6637C867.669 32.6637 870.725 29.8471 870.725 29.8471V22.5141C869.758 23.0543 867.065 24.9241 863.385 24.9241C859.489 24.9241 858.088 23.1319 858.088 21.0518L858.087 21.051ZM776.906 9.94541C776.907 9.95035 777.294 11.6098 776.784 13.7798C776.524 14.8833 776.047 15.8219 776.623 15.8219C777.021 15.8219 777.022 15.492 777.539 14.3093C778.296 12.5806 779.89 9.43405 783.616 9.43405C787.159 9.43405 788.827 11.5859 789.38 13.6008C789.801 15.1316 789.433 15.8219 789.946 15.8219C790.311 15.8219 790.437 15.0276 790.886 14.0231C791.692 12.2234 793.444 9.43405 796.99 9.43405C802.34 9.43405 804.382 13.2965 804.382 19.0905V32.1458H796.435V20.1099C796.435 18.1032 796.111 16.1568 794.281 16.1568C792.586 16.1568 791.795 19.1606 791.795 21.0996V32.1507H783.702V20.1107C783.702 17.5432 783.34 16.1576 781.535 16.1576C779.973 16.1576 779.061 18.9214 779.061 21.1004V32.1466H771V9.94541H776.906H776.906ZM830.485 9.97592C830.488 9.97757 831.86 10.7685 834.523 10.7685C837.191 10.7685 838.545 9.97592 838.545 9.97592V32.1516H830.485V9.97592ZM897.031 9.97592C897.034 9.97757 898.406 10.7685 901.069 10.7685C903.736 10.7685 905.092 9.97592 905.092 9.97592V32.1516H897.031V9.97592ZM849.215 3.22434V32.1516H841.154V3.22434H849.215ZM880.291 3.22434C880.292 3.22681 880.625 4.05819 880.625 6.53085C880.625 10.1821 879.831 13.1538 879.456 14.2862C879.257 14.8858 878.902 15.8112 879.411 15.8277C879.705 15.8368 879.881 15.3947 880.241 14.6276C880.599 13.8598 882.374 9.439 887.04 9.439C893.467 9.439 894.412 14.701 894.412 20.3994V32.1507H886.351V19.9169C886.351 17.4079 885.825 16.1617 884.143 16.1617C882.112 16.1617 881.394 19.3057 881.394 21.1054V32.1507H873.333V3.22352H880.292L880.291 3.22434ZM913.721 9.94541C913.722 9.95035 914.109 11.6098 913.599 13.7798C913.339 14.8833 912.862 15.8219 913.438 15.8219C913.836 15.8219 913.837 15.492 914.354 14.3093C915.11 12.5806 916.705 9.43405 920.431 9.43405C924.135 9.43405 925.604 11.5958 926.195 13.6008C926.591 14.9444 926.248 15.8219 926.761 15.8219C927.125 15.8219 927.252 15.0276 927.7 14.0231C928.505 12.2234 930.259 9.43405 933.805 9.43405C939.154 9.43405 941.197 13.2965 941.197 19.0905V32.1458H933.25V20.1099C933.25 18.1032 932.925 16.1568 931.096 16.1568C929.401 16.1568 928.609 19.1606 928.609 21.0996V32.1507H920.516V20.1107C920.516 17.5432 920.156 16.1576 918.35 16.1576C916.788 16.1576 915.876 18.9214 915.876 21.1004V32.1466H907.815V9.94541H913.72H913.721ZM834.491 3C831.767 3 829.557 4.44171 829.557 6.21991C829.557 7.99812 831.766 9.43983 834.491 9.43983C837.216 9.43983 839.426 7.99812 839.426 6.21991C839.426 4.44171 837.217 3 834.491 3ZM901.037 3C898.313 3 896.103 4.44171 896.103 6.21991C896.103 7.99812 898.312 9.43983 901.037 9.43983C903.762 9.43983 905.972 7.99812 905.972 6.21991C905.972 4.44171 903.763 3 901.037 3Z" fill="#252531"/>
<path fill-rule="evenodd" clip-rule="evenodd" d="M954.929 27.3671C953.082 27.3671 951.722 25.0239 951.722 21.7586C951.722 18.5874 953.118 16.1518 954.866 16.1518C957.107 16.1518 958.064 18.208 958.064 21.7586C958.064 25.4528 957.182 27.3671 954.929 27.3671ZM957.141 9.42578C952.999 9.42578 951.099 12.5311 950.274 14.3002C949.729 15.4689 949.758 15.8128 949.359 15.8128C948.784 15.8128 949.261 14.8742 949.52 13.7707C950.032 11.5974 949.643 9.93714 949.643 9.93714H943.74V38.2623H951.798V29.2822C952.751 30.8996 954.517 32.6274 957.24 32.6274C963.068 32.6274 966.001 27.6978 966.001 21.0377C966.001 13.4894 962.491 9.42578 957.143 9.42578" fill="#252531"/>
</svg>
