<?xml version="1.0" encoding="UTF-8"?>
<svg viewBox="0 0 259 34" xmlns="http://www.w3.org/2000/svg">
<path d="m3.6743 10.866h-2.1855v-5.3387h-1.4888v-1.7382h1.4887v-1.2368c0-1.4656 0.65848-2.5168 2.8381-2.5168 0.46098 0 1.1847 0.091049 1.1847 0.091049v1.614h-0.76015c-0.77453 0-1.0769 0.23086-1.0769 0.86911v1.1795h1.8081l-0.16101 1.7382h-1.6471l-6e-5 5.3387zm5.0147-7.2157c-0.03184 0-0.06461 0.00113-0.09704 0.00193-2.0265 0-2.9537 1.4937-2.9537 3.6141 0 2.6711 1.2027 3.7402 2.9695 3.7402 1.0109 0 1.675-0.417 2.0787-1.195v1.0553h2.0787v-7.0769h-2.0787v1.0883c-0.3296-0.7002-1.0123-1.2197-1.9975-1.228zm0.52855 1.6722c0.85117 0 1.362 0.58176 1.362 1.5713l2e-3 1.0107c0 0.66695-0.4219 1.4472-1.364 1.4472-1.4483 0-1.4096-1.5324-1.4096-2.0427 0-1.7168 0.77163-1.9865 1.4096-1.9865zm4.3872 2.0062c0-0.85996-0.042-3.6738 3.6993-3.6738 1.5017 0 2.1288 0.46792 2.1288 0.46792l-0.504 1.5318s-0.6263-0.33793-1.4423-0.33793c-1.0452 0-1.7122 0.59374-1.7122 1.6384l0.0012 0.74907c0 1.0038 0.6435 1.6739 1.7131 1.6739 0.7435 0 1.4287-0.34112 1.4287-0.34112l0.5027 1.4998s-0.5734 0.4709-2.1056 0.4709c-3.5622 0-3.7097-2.5246-3.7097-3.679zm18.016-3.6765c2.0266 0 2.9684 1.4937 2.9684 3.6141 0 2.6711-1.2027 3.7402-2.9696 3.7402-1.0109 0-1.7581-0.4169-2.1618-1.195v1.0553l-2.0526-8e-4v-10.615l2.1793-0.18625v4.7179c0.3145-0.82541 1.3482-1.1302 2.0363-1.1302zm-0.6109 1.6703c-0.8512 0-1.4254 0.58176-1.4254 1.5713l-2e-3 1.0107c-0.0013 0.66695 0.3976 1.4472 1.4274 1.4472 1.4482 0 1.4095-1.5324 1.4095-2.0427 0-1.7168-0.7715-1.9865-1.4095-1.9865zm-7.7961-1.6644c-2.2985 0-3.512 1.228-3.512 3.4104v0.40545c0 2.8324 1.7041 3.5617 3.7357 3.5617 1.9747 0 2.8686-0.5413 2.8686-0.5413l-0.4078-1.4413s-1.0515 0.43837-2.1995 0.43837c-1.1902 0-1.702-0.29725-1.8332-1.418h4.6147v-1.1563c0-2.3673-1.3619-3.259-3.2666-3.259l1e-4 5e-5zm0.0554 1.4432c0.7956 0 1.3112 0.47809 1.2829 1.5869h-2.6825c0.0465-1.167 0.6025-1.5869 1.3996-1.5869zm15.665-1.453c-2.3604 0-3.603 1.3034-3.603 3.6393 0 3.2049 2.142 3.7208 3.607 3.7208 2.1446 0 3.5714-1.1314 3.5714-3.6917 0-2.6648-1.6043-3.6684-3.5754-3.6684zm-0.0297 1.68c1.0379 0 1.4492 0.76118 1.4492 1.6276v0.74493c0 1.0496-0.5755 1.6567-1.4531 1.6567-0.8208 0-1.3977-0.56789-1.3977-1.6567v-0.74493c0-1.1612 0.6864-1.6276 1.4016-1.6276zm7.9466-1.68c-2.3604 0-3.6031 1.3034-3.6031 3.6393 0 3.2049 2.1421 3.7208 3.6071 3.7208 2.1445 0 3.5714-1.1314 3.5714-3.6917 0-2.6648-1.6044-3.6684-3.5754-3.6684zm-0.0297 1.68c1.0379 0 1.4492 0.76118 1.4492 1.6276v0.74493c0 1.0496-0.5755 1.6567-1.4531 1.6567-0.8208 0-1.3977-0.56789-1.3977-1.6567v-0.74493c0-1.1612 0.6864-1.6276 1.4016-1.6276zm4.4286 5.5377v-10.615l2.1856-0.18619v7.115l2.1684-3.3903h2.3082l-2.262 3.5114 2.3491 3.5654h-2.3147l-2.249-3.462v3.462h-2.1856z" fill="#5B5A74"/>
<path d="m68.038 30.179v-2.0097c0.3643 0.3056 0.76 0.5348 1.187 0.6877 0.4271 0.1528 0.8584 0.2292 1.2938 0.2292 0.2554 0 0.4784-0.023 0.6689-0.0691 0.1905-0.046 0.3496-0.1099 0.4773-0.1915 0.1277-0.0817 0.223-0.178 0.2858-0.2889 0.0628-0.111 0.0942-0.2314 0.0942-0.3612 0-0.1758-0.0503-0.3328-0.1508-0.471s-0.2376-0.2659-0.4114-0.3831c-0.1737-0.1172-0.3799-0.2303-0.6186-0.3391-0.2386-0.1089-0.4961-0.2199-0.7725-0.3329-0.7034-0.2931-1.2278-0.6511-1.5733-1.074-0.3454-0.4229-0.5181-0.9337-0.5181-1.5324 0-0.469 0.0942-0.872 0.2826-1.209 0.1884-0.3371 0.4449-0.6144 0.7694-0.8322 0.3245-0.2177 0.7003-0.3778 1.1273-0.4804 0.4271-0.1026 0.8793-0.1539 1.3566-0.1539 0.469 0 0.8845 0.0283 1.2467 0.0848s0.6961 0.1434 1.0017 0.2606v1.8779c-0.1507-0.1047-0.315-0.1968-0.493-0.2764-0.1779-0.0795-0.3611-0.1455-0.5495-0.1978s-0.3758-0.0911-0.5621-0.1162-0.3632-0.0376-0.5307-0.0376c-0.2303 0-0.4397 0.0219-0.6281 0.0659s-0.3475 0.1057-0.4773 0.1853c-0.1298 0.0795-0.2303 0.1748-0.3015 0.2858-0.0711 0.1109-0.1067 0.2355-0.1067 0.3736 0 0.1508 0.0398 0.2858 0.1193 0.4051 0.0796 0.1194 0.1926 0.2324 0.3391 0.3392 0.1466 0.1067 0.3245 0.2114 0.5339 0.314 0.2093 0.1026 0.4459 0.2083 0.7097 0.3172 0.3601 0.1507 0.6835 0.3109 0.9703 0.4804 0.2868 0.1696 0.5328 0.3612 0.738 0.5747 0.2051 0.2135 0.3622 0.4574 0.471 0.7317 0.1089 0.2742 0.1633 0.5935 0.1633 0.9578 0 0.5024-0.0953 0.9242-0.2858 1.2655-0.1905 0.3412-0.449 0.6176-0.7756 0.829-0.3266 0.2115-0.7066 0.3632-1.1399 0.4553-0.4334 0.0922-0.8908 0.1382-1.3723 0.1382-0.494 0-0.964-0.0418-1.41-0.1256-0.4459-0.0838-0.8321-0.2094-1.1587-0.3769z" fill="#5B5A74"/>
<path d="m81.682 30.526h-1.9783v-3.5737c0-0.9965-0.3559-1.4947-1.0677-1.4947-0.3434 0-0.626 0.1319-0.8479 0.3956-0.2219 0.2638-0.3329 0.5988-0.3329 1.0049v3.6678h-1.9846v-6.4312h1.9846v1.0174h0.0252c0.4731-0.7829 1.1619-1.1744 2.0663-1.1744 1.4235 0 2.1353 0.8835 2.1353 2.6504v3.9379z" fill="#5B5A74"/>
<path d="m88.6 30.526h-1.8778v-0.9233h-0.0252c-0.4312 0.7202-1.0697 1.0803-1.9155 1.0803-0.6239 0-1.1148-0.1769-1.4728-0.5307s-0.537-0.8259-0.537-1.4163c0-1.2477 0.739-1.9679 2.217-2.1605l1.746-0.2324c0-0.7034-0.381-1.0551-1.1431-1.0551-0.7662 0-1.4947 0.2282-2.1856 0.6846v-1.4948c0.2763-0.1423 0.6542-0.268 1.1336-0.3768 0.4794-0.1089 0.9159-0.1633 1.3095-0.1633 1.8339 0 2.7509 0.9149 2.7509 2.7446v3.8437zm-1.8653-2.6127v-0.4334l-1.1682 0.1508c-0.6448 0.0837-0.9672 0.3747-0.9672 0.8729 0 0.2261 0.0785 0.4114 0.2355 0.5559 0.157 0.1444 0.3696 0.2167 0.6375 0.2167 0.3727 0 0.6762-0.1288 0.9107-0.3863s0.3517-0.583 0.3517-0.9766z" fill="#5B5A74"/>
<path d="m92.178 29.778h-0.0252v3.7055h-1.9846v-9.3894h1.9846v0.9672h0.0251c0.4899-0.7495 1.1787-1.1242 2.0663-1.1242 0.8332 0 1.477 0.2858 1.9313 0.8573s0.6814 1.3493 0.6814 2.3332c0 1.0719-0.2648 1.9323-0.7945 2.5813-0.5296 0.649-1.2341 0.9735-2.1134 0.9735-0.7746 0-1.3649-0.3015-1.771-0.9044zm-0.0566-2.6378v0.515c0 0.4438 0.1173 0.806 0.3517 1.0865 0.2345 0.2805 0.5422 0.4208 0.9233 0.4208 0.4522 0 0.8028-0.1748 1.052-0.5244 0.2491-0.3497 0.3737-0.8448 0.3737-1.4854 0-1.1305-0.4397-1.6957-1.319-1.6957-0.4061 0-0.7379 0.1539-0.9954 0.4616-0.2575 0.3078-0.3863 0.7149-0.3863 1.2216z" fill="#5B5A74"/>
<path d="m103.02 30.293c-0.448 0.2596-1.094 0.3894-1.94 0.3894-0.988 0-1.7881-0.2994-2.3994-0.8981-0.6113-0.5988-0.9169-1.3713-0.9169-2.3176 0-1.0928 0.3276-1.9542 0.9829-2.5844 0.6552-0.6301 1.5314-0.9452 2.6284-0.9452 0.758 0 1.306 0.1005 1.645 0.3015v1.6832c-0.414-0.3099-0.877-0.4648-1.388-0.4648-0.569 0-1.02 0.1664-1.353 0.4993-0.3329 0.3329-0.4993 0.7924-0.4993 1.3786 0 0.5694 0.1591 1.0164 0.4773 1.3409 0.318 0.3245 0.756 0.4867 1.313 0.4867 0.494 0 0.977-0.1549 1.45-0.4648v1.5953z" fill="#5B5A74"/>
<path d="m110.49 30.521h-1.978v-3.6552c0-0.9421-0.344-1.4131-1.03-1.4131-0.352 0-0.637 0.1319-0.854 0.3956-0.218 0.2638-0.327 0.5988-0.327 1.0049v3.6678h-1.985v-9.5212h1.985v4.0447h0.025c0.486-0.7412 1.145-1.1117 1.978-1.1117 1.458 0 2.186 0.8793 2.186 2.6378v3.9504z" fill="#5B5A74"/>
<path d="m117.42 30.526h-1.878v-0.9233h-0.025c-0.431 0.7202-1.07 1.0803-1.915 1.0803-0.624 0-1.115-0.1769-1.473-0.5307s-0.537-0.8259-0.537-1.4163c0-1.2477 0.739-1.9679 2.217-2.1605l1.746-0.2324c0-0.7034-0.381-1.0551-1.143-1.0551-0.766 0-1.495 0.2282-2.186 0.6846v-1.4948c0.277-0.1423 0.654-0.268 1.134-0.3768 0.479-0.1089 0.916-0.1633 1.309-0.1633 1.834 0 2.751 0.9149 2.751 2.7446v3.8437zm-1.865-2.6127v-0.4334l-1.168 0.1508c-0.645 0.0837-0.968 0.3747-0.968 0.8729 0 0.2261 0.079 0.4114 0.236 0.5559 0.157 0.1444 0.369 0.2167 0.637 0.2167 0.373 0 0.677-0.1288 0.911-0.3863 0.235-0.2575 0.352-0.583 0.352-0.9766z" fill="#5B5A74"/>
<path d="m122.87 30.446c-0.293 0.1549-0.735 0.2324-1.326 0.2324-1.398 0-2.097-0.7264-2.097-2.1793v-2.9456h-1.043v-1.4633h1.043v-1.388l1.978-0.5653v1.9533h1.445v1.4633h-1.445v2.6001c0 0.67 0.266 1.0049 0.798 1.0049 0.209 0 0.425-0.0607 0.647-0.1821v1.4696z" fill="#5B5A74"/>
<path d="m142.65 26.828v-1.106h-2.506v-2.73h-1.218v2.73h-2.52v1.106h2.52v2.842h1.218v-2.842h2.506zm15.033 4.172v-9.338h-2.8l-2.268 5.642-2.268-5.642h-2.786v9.338h1.988v-6.538l2.632 6.538h0.868l2.632-6.538v6.538h2.002zm4.948 0.168c2.24 0 3.584-1.624 3.584-3.556 0-1.918-1.344-3.542-3.584-3.542-2.226 0-3.57 1.624-3.57 3.542 0 1.932 1.344 3.556 3.57 3.556zm0-1.582c-1.106 0-1.722-0.91-1.722-1.974 0-1.05 0.616-1.96 1.722-1.96s1.736 0.91 1.736 1.96c0 1.064-0.63 1.974-1.736 1.974zm6.681 1.414v-4.466c0.294-0.434 1.078-0.77 1.666-0.77 0.196 0 0.364 0.014 0.49 0.042v-1.736c-0.84 0-1.68 0.49-2.156 1.092v-0.924h-1.778v6.762h1.778zm6.445 0.168c1.05 0 2.114-0.322 2.786-0.938l-0.784-1.148c-0.434 0.42-1.232 0.672-1.806 0.672-1.148 0-1.834-0.714-1.946-1.568h5.026v-0.392c0-2.212-1.372-3.724-3.388-3.724-2.058 0-3.5 1.582-3.5 3.542 0 2.17 1.554 3.556 3.612 3.556zm1.554-4.186h-3.332c0.084-0.672 0.56-1.498 1.666-1.498 1.176 0 1.624 0.854 1.666 1.498z" fill="#5B5A74"/>
<path d="m72.24 1.4453c-2.4402 0-4.4787 1.9641-4.4787 4.3894 0 2.4254 2.0385 4.3745 4.4787 4.3745 1.3243 0 2.2915-0.43148 3.0801-1.235 0.8035-0.80349 1.0416-1.9046 1.0416-2.7973 0-0.28271-0.0149-0.53566-0.0596-0.75886h-4.0472v1.1904h2.8866c-0.0892 0.66958-0.2975 1.1755-0.6547 1.5177-0.4166 0.41662-1.0862 0.89276-2.2319 0.89276-1.7706 0-3.1544-1.4284-3.1544-3.1842s1.3838-3.1842 3.1544-3.1842c0.9523 0 1.6665 0.37199 2.1724 0.86301l0.8482-0.84813c-0.7291-0.68445-1.6963-1.2201-3.0355-1.2201zm7.3505 3.1396c-1.5326 0-2.8122 1.1904-2.8122 2.8569 0 1.6516 1.2499 2.8569 2.8122 2.8569s2.8122-1.2052 2.8122-2.8569-1.2796-2.8569-2.8122-2.8569zm0 4.5829c-0.8481 0-1.5772-0.71421-1.5772-1.726 0-1.0118 0.7291-1.726 1.5772-1.726s1.5772 0.69934 1.5772 1.726c0 1.0118-0.7439 1.726-1.5772 1.726zm6.1006-4.5829c-1.5624 0-2.8122 1.1904-2.8122 2.8569 0 1.6516 1.2498 2.8569 2.8122 2.8569 1.5326 0 2.8122-1.2052 2.8122-2.8569s-1.2499-2.8569-2.8122-2.8569zm0 4.5829c-0.8481 0-1.5772-0.71421-1.5772-1.726 0-1.0118 0.7291-1.726 1.5772-1.726s1.5772 0.69934 1.5772 1.726c0 1.0118-0.7142 1.726-1.5772 1.726zm6.0857-4.5829c-1.4136 0-2.6783 1.235-2.6783 2.842 0 1.5772 1.2796 2.8122 2.6783 2.8122 0.6696 0 1.1903-0.29761 1.4731-0.65471h0.0446v0.41661c0 1.0862-0.5654 1.6665-1.488 1.6665-0.7588 0-1.2052-0.5356-1.4135-0.9969l-1.0862 0.4613c0.2976 0.7588 1.1308 1.6665 2.4849 1.6665 1.4582 0 2.6634-0.8631 2.6634-2.9462v-5.0739h-1.1755v0.46127h-0.0446c-0.2679-0.35711-0.7886-0.6547-1.4582-0.6547zm0.1041 4.5382c-0.8481 0-1.5623-0.71421-1.5623-1.7111 0-0.99692 0.7142-1.726 1.5623-1.726 0.8482 0 1.488 0.7291 1.488 1.726 0 0.99693-0.6398 1.7111-1.488 1.7111zm3.4967-7.3356h1.235v8.3623h-1.235v-8.3623zm4.5383 2.7973c-1.4731 0-2.7081 1.1457-2.7081 2.8569 0 1.607 1.2052 2.8569 2.8418 2.8569 1.324 0 2.083-0.80349 2.381-1.2499l-0.967-0.65469c-0.328 0.47614-0.774 0.77373-1.414 0.77373-0.6545 0-1.1009-0.28271-1.3836-0.86301l3.8386-1.5772-0.134-0.32735c-0.238-0.62494-0.982-1.8153-2.4547-1.8153zm-1.4731 2.7676c-0.0446-1.1011 0.863-1.6665 1.4879-1.6665 0.4909 0 0.9379 0.23808 1.0569 0.61006l-2.5448 1.0564z" fill="#5B5A74"/>
<path d="m104.66 10.018 2.857-7.6034h1.101l2.857 7.6034h-1.086l-0.729-2.0534h-3.185l-0.729 2.0534h-1.086zm2.143-2.961h2.529l-1.235-3.4223h-0.044l-1.25 3.4223z" fill="#5B5A74"/>
<path d="m112.47 9.3933c-0.476-0.53566-0.714-1.1904-0.714-1.9641 0-0.75885 0.238-1.4136 0.714-1.9641 0.491-0.53566 1.056-0.80349 1.756-0.80349 0.387 0 0.729 0.08928 1.041 0.23807 0.328 0.17855 0.566 0.37199 0.729 0.6547h0.045l-0.045-0.71422v-2.4105h0.968v7.6034h-0.923v-0.71422h-0.045c-0.178 0.25295-0.416 0.47615-0.729 0.6547-0.327 0.17852-0.669 0.23812-1.041 0.23812-0.685-0.0149-1.28-0.28276-1.756-0.81842zm3.08-0.61006c0.327-0.34222 0.476-0.80349 0.476-1.3689 0-0.53566-0.149-0.99692-0.476-1.3392-0.298-0.34223-0.699-0.52078-1.175-0.52078-0.477 0-0.863 0.17855-1.176 0.52078-0.327 0.34223-0.476 0.80349-0.476 1.3392s0.149 0.99693 0.476 1.3392c0.327 0.34223 0.714 0.52079 1.176 0.52079 0.476 0.02975 0.863-0.1488 1.175-0.49103z" fill="#5B5A74"/>
<path d="m121.49 9.7177c-0.387 0.29761-0.892 0.47611-1.488 0.47611-0.52 0-0.967-0.1339-1.383-0.4166-0.387-0.2827-0.67-0.62493-0.849-1.0862l0.863-0.37199c0.134 0.29759 0.298 0.56542 0.566 0.72909 0.238 0.17856 0.521 0.25295 0.803 0.25295 0.298 0 0.566-0.05952 0.774-0.19343 0.223-0.13392 0.298-0.29759 0.298-0.47614 0-0.32735-0.253-0.5803-0.759-0.7291l-0.893-0.22319c-1.012-0.25295-1.518-0.72909-1.518-1.4731 0-0.47614 0.194-0.84813 0.581-1.1457 0.387-0.28271 0.892-0.4315 1.473-0.4315 0.461 0 0.863 0.10415 1.25 0.32735 0.372 0.22319 0.625 0.52078 0.773 0.89276l-0.863 0.37199c-0.104-0.22319-0.253-0.38686-0.476-0.52078s-0.476-0.19343-0.759-0.19343c-0.253 0-0.476 0.05951-0.699 0.19343-0.193 0.13392-0.298 0.28271-0.298 0.47615 0 0.29758 0.283 0.52077 0.849 0.62493l0.773 0.19344c1.042 0.25295 1.533 0.77373 1.533 1.5623 0.045 0.46126-0.164 0.84813-0.551 1.1606z" fill="#5B5A74"/>
<path d="m186.71 11.831h2e-3c0.127 0 0.232-0.1049 0.232-0.2323v-0.0134c0-0.1743-0.105-0.2575-0.321-0.2575h-0.349v0.9124h0.132v-0.3978h0.161l3e-3 0.0049 0.25 0.3929h0.14l-0.268-0.4067 0.018-0.0025zm-0.152-0.0914h-0.152v-0.3084h0.193c0.099 0 0.212 0.0162 0.212 0.1466 0 0.1498-0.114 0.1618-0.254 0.1618h1e-3zm-50.917-9.8848h1.935v7.0481h3.582v1.7856h-5.517v-8.8338zm6.372 2.8442h1.859v5.9863h-1.859v-5.9863zm0.93-2.9761c0.591 1.1e-4 1.078 0.48683 1.078 1.0783 0 0.59155-0.487 1.0783-1.079 1.0783-0.591 0-1.078-0.48677-1.078-1.0783 0-0.59154 0.487-1.0783 1.078-1.0783h1e-3zm8.705 0.13051h1.859v5.2793l2.106-2.4364h2.279l-2.439 2.7714 2.388 3.22h-2.336l-1.973-2.9591h-0.025v2.9587h-1.859v-8.8339zm-6.745 2.8462h1.785v0.81807h0.025c0.363-0.62156 1.041-0.99409 1.76-0.96699 1.885 0 2.232 1.2402 2.232 2.8514v3.2828h-1.859v-2.9104c0-0.69474-0.012-1.5878-0.968-1.5878-0.966 0-1.115 0.75652-1.115 1.5372v2.9603h-1.859l-1e-3 -5.9846z" fill="#5B5A74"/>
<path d="m161.82 6.9967v0c0-0.61141-0.503-1.1408-1.114-1.1408 9e-3 -2.3e-4 -9e-3 0 0 0-0.671-0.04181-1.288 0.47017-1.341 1.1408h2.455zm1.575 2.6527c-0.625 0.75811-1.56 1.1958-2.542 1.191-1.859 0-3.347-1.2408-3.347-3.1622 0-1.9214 1.488-3.1616 3.347-3.1616 1.737 0 2.827 1.2392 2.827 3.1616v0.58285h-4.315c0.111 0.68031 0.712 1.1805 1.401 1.1655 0.537-0.00337 1.038-0.27917 1.327-0.73155l1.302 0.95437zm4.159-3.5026c-0.929 0-1.487 0.62061-1.487 1.5249 0 0.90426 0.558 1.5254 1.487 1.5254 0.93 0 1.489-0.6196 1.489-1.5254 0-0.90584-0.558-1.5249-1.489-1.5249zm3.2 4.5382h-1.711v-0.79393c-0.435 0.58483-1.145 0.93393-1.874 0.94263-1.786 0-2.962-1.2891-2.962-3.1119 0-1.6741 1.041-3.2114 2.753-3.2114 0.769 0 1.487 0.21048 1.909 0.79388l0.024-3.4507h1.861v8.8313zm12.549 0.0034h-1.859v-2.911c0-0.69417-0.012-1.5878-0.967-1.5878-0.968 0-1.116 0.75629-1.116 1.5372v2.9614h-1.859v-5.9862h1.785v0.81807c0.363-0.62123 1.066-0.99365 1.786-0.96694 1.884 0 2.231 1.2392 2.231 2.8514l-1e-3 3.2839zm-7.898-6.8047c-0.592 0-1.079-0.48689-1.079-1.0787s0.487-1.0787 1.079-1.0787c0.591 0 1.078 0.48683 1.078 1.0785 0 0.59165-0.486 1.0788-1.078 1.0789zm0.929 6.8047h-1.86v-5.9864h1.86v5.9864zm7.896-10.688h-10.69c-0.502-0.0056674-0.92 0.40239-0.926 0.9042v10.735c6e-3 0.5021 0.423 0.9106 0.926 0.9053h10.69c0.503 0.0063 0.922-0.4022 0.929-0.9053v-10.735c-7e-3 -0.50288-0.426-0.9101-0.929-0.90348zm2.357 10.922c-0.466 0.0045-0.847 0.3892-0.847 0.8554 0 0.4694 0.386 0.8555 0.855 0.8555 0.47 0 0.856-0.3861 0.856-0.8555 0-0.4662-0.398-0.8509-0.864-0.8554zm0 1.613c5e-3 0-4e-3 0 0 0-0.411 0-0.762-0.3385-0.762-0.75s0.338-0.7502 0.749-0.7502c0.407 0 0.744 0.3309 0.75 0.7376 9e-3 0.4025-0.335 0.7539-0.737 0.7626z" fill="#5B5A74"/>
<path d="m211.36 8.6154c-0.613 0.14135-0.93-0.0472-0.93-0.45314 0-0.5562 0.575-0.77883 1.396-0.77883 0.362 0 0.703 0.03121 0.703 0.03121 0 0.2381-0.518 1.0505-1.169 1.2008zm0.623-5.5685c-1.962 0-3.371 0.7214-3.371 0.7214v2.1207s1.556-0.89396 2.818-0.89396c1.006 0 1.13 0.54308 1.084 0.9936 0 0-0.29-0.07683-1.176-0.07683-2.089 0-3.143 0.94902-3.143 2.4705 0 1.4433 1.185 2.0464 2.183 2.0464 1.456 0 2.097-0.97862 2.293-1.4428 0.137-0.32203 0.162-0.53915 0.284-0.53915 0.141 0 0.093 0.15576 0.086 0.47621-0.011 0.56144 0.016 0.98573 0.104 1.3434h1.932v-3.473c0-2.1684-0.768-3.7465-3.094-3.7465z" clip-rule="evenodd" fill="#5B5A74" fill-rule="evenodd"/>
<path d="m224.69 6.7392c0-0.63434 0.59-1.212 1.673-1.212 1.179 0 2.128 0.568 2.341 0.69702v-2.455s-0.75-0.72166-2.592-0.72166c-1.942 0-3.56 1.1362-3.56 3.5821 0 2.4456 1.468 3.8019 3.555 3.8019 1.63 0 2.601-0.89555 2.601-0.89555v-2.3315c-0.307 0.17177-1.164 0.76625-2.334 0.76625-1.238 0-1.684-0.56983-1.684-1.2312v-2.7e-4zm-25.811-3.531c0 0.00157 0.123 0.52918-0.039 1.2191-0.083 0.35086-0.234 0.64928-0.051 0.64928 0.126 0 0.127-0.10489 0.291-0.48093 0.241-0.54964 0.748-1.5501 1.932-1.5501 1.127 0 1.657 0.68417 1.833 1.3248 0.134 0.48671 0.017 0.70619 0.18 0.70619 0.116 0 0.156-0.25253 0.299-0.57192 0.256-0.5722 0.813-1.4591 1.94-1.4591 1.701 0 2.351 1.228 2.351 3.0702v4.1509h-2.527v-3.8268c0-0.63802-0.103-1.2569-0.685-1.2569-0.539 0-0.79 0.95505-0.79 1.5716v3.5137h-2.573v-3.8281c0-0.81634-0.116-1.2569-0.689-1.2569-0.497 0-0.787 0.87874-0.787 1.5716v3.5121h-2.563v-7.0588h1.878zm17.035 0.0097c1e-3 5.2e-4 0.437 0.252 1.284 0.252 0.848 0 1.279-0.252 1.279-0.252v7.0506h-2.563v-7.0506zm21.158 0c1e-3 5.2e-4 0.437 0.252 1.284 0.252 0.848 0 1.279-0.252 1.279-0.252v7.0506h-2.563v-7.0506zm-15.203-2.1466v9.1973h-2.563v-9.1973h2.563zm9.881 0c0 7.8e-4 0.106 0.26512 0.106 1.0513 0 1.1609-0.253 2.1057-0.372 2.4658-0.063 0.19064-0.176 0.48487-0.014 0.49011 0.093 0.00289 0.149-0.13767 0.264-0.38155 0.114-0.24414 0.678-1.6497 2.161-1.6497 2.044 0 2.344 1.673 2.344 3.4848v3.7363h-2.563v-3.8897c0-0.79771-0.167-1.1939-0.702-1.1939-0.645 0-0.874 0.99963-0.874 1.5718v3.5119h-2.563v-9.1973h2.213v2.6e-4zm10.629 2.1369c0 0.00157 0.123 0.52918-0.039 1.2191-0.083 0.35086-0.235 0.64928-0.051 0.64928 0.126 0 0.126-0.10489 0.291-0.48093 0.24-0.54964 0.747-1.5501 1.932-1.5501 1.178 0 1.645 0.68732 1.833 1.3248 0.126 0.42718 0.016 0.70619 0.18 0.70619 0.115 0 0.156-0.25253 0.298-0.57192 0.256-0.5722 0.814-1.4591 1.941-1.4591 1.701 0 2.35 1.228 2.35 3.0702v4.1509h-2.526v-3.8268c0-0.63802-0.103-1.2569-0.685-1.2569-0.539 0-0.791 0.95505-0.791 1.5716v3.5137h-2.573v-3.8281c0-0.81634-0.115-1.2569-0.689-1.2569-0.496 0-0.786 0.87874-0.786 1.5716v3.5121h-2.563v-7.0588h1.878zm-25.191-2.2083c-0.866 0-1.569 0.45839-1.569 1.0238s0.702 1.0238 1.569 1.0238c0.866 0 1.569-0.45839 1.569-1.0238s-0.702-1.0238-1.569-1.0238zm21.158 0c-0.866 0-1.569 0.45839-1.569 1.0238s0.702 1.0238 1.569 1.0238c0.866 0 1.569-0.45839 1.569-1.0238s-0.703-1.0238-1.569-1.0238z" clip-rule="evenodd" fill="#5B5A74" fill-rule="evenodd"/>
<path d="m255.48 8.7512c-0.587 0-1.019-0.745-1.019-1.7832 0-1.0083 0.443-1.7827 0.999-1.7827 0.713 0 1.017 0.65374 1.017 1.7827 0 1.1745-0.28 1.7832-0.997 1.7832zm0.704-5.7044c-1.317 0-1.921 0.9873-2.184 1.5498-0.173 0.37159-0.164 0.48094-0.291 0.48094-0.183 0-0.031-0.29842 0.052-0.64929 0.162-0.69098 0.039-1.2189 0.039-1.2189h-1.877v9.0058h2.562v-2.8552c0.303 0.51424 0.864 1.0637 1.73 1.0637 1.853 0 2.786-1.5674 2.786-3.685 0-2.4-1.116-3.692-2.817-3.692" clip-rule="evenodd" fill="#5B5A74" fill-rule="evenodd"/>
</svg>

