<svg width="319" height="56" viewBox="0 0 319 56" fill="none" xmlns="http://www.w3.org/2000/svg">
<path d="M5.38475 16.738H2.18186V8.48731H0V5.80105H2.18178V3.88959C2.18178 1.62451 3.14678 0 6.341 0C7.01658 0 8.07721 0.140711 8.07721 0.140711V2.63505H6.9632C5.82811 2.63505 5.38492 2.99183 5.38492 3.97822V5.80105H8.03471L7.79875 8.48731H5.38484L5.38475 16.738ZM12.7338 5.58639C12.6872 5.58639 12.6392 5.58814 12.5916 5.58937C9.62174 5.58937 8.26293 7.89785 8.26293 11.1748C8.26293 15.3029 10.0255 16.955 12.6149 16.955C14.0963 16.955 15.0697 16.3107 15.6613 15.1082V16.7391H18.7077V5.8022H15.6613V7.48415C15.1782 6.40202 14.1777 5.59921 12.7338 5.58639ZM13.5085 8.17075C14.7558 8.17075 15.5045 9.06983 15.5045 10.5991L15.5074 12.1611C15.5074 13.1918 14.889 14.3977 13.5085 14.3977C11.386 14.3977 11.4427 12.0295 11.4427 11.2408C11.4427 8.58753 12.5735 8.17075 13.5085 8.17075ZM19.9379 11.2712C19.9379 9.9422 19.8764 5.5935 25.3592 5.5935C27.5601 5.5935 28.4792 6.31664 28.4792 6.31664L27.7405 8.68406C27.7405 8.68406 26.8227 8.16179 25.6267 8.16179C24.095 8.16179 23.1175 9.0794 23.1175 10.6939L23.1192 11.8516C23.1192 13.4029 24.0623 14.4385 25.6299 14.4385C26.7194 14.4385 27.7236 13.9113 27.7236 13.9113L28.4604 16.2292C28.4604 16.2292 27.6201 16.957 25.3746 16.957C20.1541 16.957 19.9379 13.0553 19.9379 11.2712ZM46.3413 5.58937C49.3113 5.58937 50.6915 7.89785 50.6915 11.1748C50.6915 15.3029 48.9289 16.955 46.3395 16.955C44.8581 16.955 43.7629 16.3108 43.1713 15.1082V16.7391L40.1633 16.7379V0.332543L43.3571 0.044708V7.33597C43.818 6.06034 45.3328 5.58937 46.3413 5.58937ZM45.4459 8.17075C44.1986 8.17075 43.3571 9.06983 43.3571 10.5991L43.3541 12.1611C43.3522 13.1918 43.9368 14.3977 45.4459 14.3977C47.5684 14.3977 47.5117 12.0295 47.5117 11.2408C47.5117 8.58753 46.3809 8.17075 45.4459 8.17075ZM34.0207 5.59842C30.6521 5.59842 28.8737 7.49627 28.8737 10.8689V11.4956C28.8737 15.873 31.3711 17 34.3485 17C37.2425 17 38.5524 16.1635 38.5524 16.1635L37.9548 13.9361C37.9548 13.9361 36.4139 14.6135 34.7314 14.6135C32.9872 14.6135 32.2371 14.1542 32.0448 12.422H38.8078V10.635C38.8078 6.97655 36.812 5.59842 34.0207 5.59842ZM34.1018 7.8289C35.2679 7.8289 36.0234 8.56777 35.9819 10.2813H32.0507C32.1189 8.47782 32.9337 7.8289 34.1018 7.8289ZM57.0598 5.5834C53.6006 5.5834 51.7794 7.5978 51.7794 11.2077C51.7794 16.1607 54.9187 16.958 57.0656 16.958C60.2086 16.958 62.2996 15.2095 62.2996 11.2527C62.2996 7.13439 59.9485 5.5834 57.0598 5.5834ZM57.0163 8.17971C58.5374 8.17971 59.1401 9.35608 59.1401 10.6951V11.8464C59.1401 13.4685 58.2967 14.4068 57.0105 14.4068C55.8076 14.4068 54.9622 13.5291 54.9622 11.8464V10.6951C54.9622 8.90048 55.9682 8.17971 57.0163 8.17971ZM68.6621 5.5834C65.2029 5.5834 63.3818 7.5978 63.3818 11.2077C63.3818 16.1607 66.521 16.958 68.6679 16.958C71.8108 16.958 73.9019 15.2095 73.9019 11.2527C73.9019 7.13439 71.5507 5.5834 68.6621 5.5834ZM68.6186 8.17971C70.1397 8.17971 70.7424 9.35608 70.7424 10.6951V11.8464C70.7424 13.4685 69.899 14.4068 68.6129 14.4068C67.4099 14.4068 66.5645 13.5291 66.5645 11.8464V10.6951C66.5645 8.90048 67.5705 8.17971 68.6186 8.17971ZM75.1088 16.738V0.332543L78.3119 0.0447958V11.0408L81.4897 5.80114H84.8723L81.5573 11.2278L85 16.738H81.6077L78.3119 11.3876V16.738H75.1088Z" fill="#5B5A74"/>
<path d="M107.26 0C103.304 0 100 3.18388 100 7.11549C100 11.0471 103.304 14.2069 107.26 14.2069C109.407 14.2069 110.975 13.5074 112.253 12.2049C113.556 10.9024 113.942 9.11748 113.942 7.67026C113.942 7.21198 113.917 6.80193 113.845 6.44012H107.284V8.36975H111.964C111.819 9.45516 111.481 10.2752 110.902 10.83C110.227 11.5054 109.142 12.2772 107.284 12.2772C104.414 12.2772 102.171 9.96169 102.171 7.11549C102.171 4.26929 104.414 1.95375 107.284 1.95375C108.828 1.95375 109.986 2.55675 110.806 3.35272L112.181 1.97787C110.999 0.868334 109.431 0 107.26 0ZM119.176 5.08939C116.691 5.08939 114.617 7.01901 114.617 9.72049C114.617 12.3978 116.643 14.3516 119.176 14.3516C121.708 14.3516 123.734 12.3978 123.734 9.72049C123.734 7.04313 121.66 5.08939 119.176 5.08939ZM119.176 12.5184C117.801 12.5184 116.619 11.3607 116.619 9.72049C116.619 8.08031 117.801 6.92253 119.176 6.92253C120.55 6.92253 121.732 8.05619 121.732 9.72049C121.732 11.3607 120.526 12.5184 119.176 12.5184ZM129.065 5.08939C126.532 5.08939 124.506 7.01901 124.506 9.72049C124.506 12.3978 126.532 14.3516 129.065 14.3516C131.549 14.3516 133.624 12.3978 133.624 9.72049C133.624 7.04313 131.598 5.08939 129.065 5.08939ZM129.065 12.5184C127.69 12.5184 126.508 11.3607 126.508 9.72049C126.508 8.08031 127.69 6.92253 129.065 6.92253C130.44 6.92253 131.622 8.05619 131.622 9.72049C131.622 11.3607 130.464 12.5184 129.065 12.5184ZM138.93 5.08939C136.639 5.08939 134.589 7.09137 134.589 9.69637C134.589 12.2531 136.663 14.2551 138.93 14.2551C140.016 14.2551 140.86 13.7727 141.318 13.1938H141.39V13.8692C141.39 15.63 140.474 16.5707 138.978 16.5707C137.748 16.5707 137.025 15.7023 136.687 14.9546L134.926 15.7023C135.409 16.9325 136.759 18.4038 138.954 18.4038C141.318 18.4038 143.272 17.0048 143.272 13.628V5.40295H141.366V6.15068H141.294C140.86 5.57179 140.016 5.08939 138.93 5.08939ZM139.099 12.4461C137.724 12.4461 136.566 11.2883 136.566 9.67224C136.566 8.05618 137.724 6.87429 139.099 6.87429C140.474 6.87429 141.511 8.05618 141.511 9.67224C141.511 11.2883 140.474 12.4461 139.099 12.4461ZM144.767 0.554768H146.769V14.1104H144.767V0.554768ZM152.124 5.08939C149.736 5.08939 147.734 6.94665 147.734 9.72049C147.734 12.3255 149.688 14.3516 152.341 14.3516C154.488 14.3516 155.718 13.0491 156.2 12.3255L154.632 11.2642C154.102 12.036 153.378 12.5184 152.341 12.5184C151.28 12.5184 150.556 12.0602 150.098 11.1195L156.321 8.56271L156.104 8.03207C155.718 7.01901 154.512 5.08939 152.124 5.08939ZM149.736 9.57576C149.664 7.79086 151.135 6.87429 152.148 6.87429C152.944 6.87429 153.668 7.26021 153.861 7.86322L149.736 9.57576Z" fill="#5B5A74"/>
<path d="M159.818 13.8919L164.449 1.56641H166.234L170.865 13.8919H169.105L167.923 10.5633H162.761L161.579 13.8919H159.818ZM163.292 9.09194H167.392L165.39 3.54427H165.318L163.292 9.09194Z" fill="#5B5A74"/>
<path d="M172.482 12.8821C171.71 12.0137 171.324 10.9524 171.324 9.69817C171.324 8.46804 171.71 7.40674 172.482 6.51429C173.278 5.64596 174.195 5.2118 175.328 5.2118C175.955 5.2118 176.51 5.35652 177.017 5.59772C177.547 5.88717 177.933 6.20073 178.199 6.65901H178.271L178.199 5.50124V1.59375H179.766V13.9192H178.271V12.7614H178.199C177.909 13.1715 177.523 13.5333 177.017 13.8227C176.486 14.1122 175.931 14.2087 175.328 14.2087C174.219 14.1845 173.254 13.7504 172.482 12.8821ZM177.475 11.8931C178.006 11.3384 178.247 10.5906 178.247 9.67405C178.247 8.80572 178.006 8.05799 177.475 7.50322C176.992 6.94846 176.341 6.65901 175.569 6.65901C174.798 6.65901 174.17 6.94846 173.664 7.50322C173.133 8.05799 172.892 8.80572 172.892 9.67405C172.892 10.5424 173.133 11.2901 173.664 11.8449C174.195 12.3996 174.822 12.6891 175.569 12.6891C176.341 12.7373 176.968 12.4479 177.475 11.8931Z" fill="#5B5A74"/>
<path d="M187.098 13.4093C186.471 13.8917 185.651 14.1812 184.686 14.1812C183.842 14.1812 183.119 13.9641 182.443 13.5058C181.816 13.0475 181.358 12.4927 181.068 11.745L182.467 11.142C182.684 11.6244 182.95 12.0586 183.384 12.3239C183.77 12.6133 184.228 12.7339 184.686 12.7339C185.169 12.7339 185.603 12.6375 185.941 12.4204C186.302 12.2033 186.423 11.938 186.423 11.6485C186.423 11.1179 186.013 10.7078 185.193 10.4666L183.746 10.1048C182.106 9.69477 181.285 8.92293 181.285 7.71691C181.285 6.94506 181.599 6.34206 182.226 5.85965C182.853 5.40137 183.673 5.16016 184.614 5.16016C185.362 5.16016 186.013 5.329 186.64 5.69081C187.243 6.05261 187.653 6.53502 187.894 7.13802L186.495 7.74103C186.327 7.37923 186.085 7.1139 185.724 6.89682C185.362 6.67974 184.952 6.58326 184.493 6.58326C184.083 6.58326 183.722 6.67974 183.36 6.89682C183.046 7.1139 182.877 7.35511 182.877 7.66867C182.877 8.15108 183.336 8.51288 184.252 8.68172L185.506 8.99529C187.195 9.40534 187.991 10.2495 187.991 11.5279C188.063 12.2757 187.726 12.9028 187.098 13.4093Z" fill="#5B5A74"/>
<path d="M203.06 14.7072V11.4864C203.644 11.9762 204.278 12.3436 204.963 12.5885C205.647 12.8334 206.338 12.9559 207.036 12.9559C207.445 12.9559 207.803 12.919 208.108 12.8452C208.413 12.7714 208.668 12.6691 208.873 12.5382C209.078 12.4074 209.23 12.253 209.331 12.0752C209.432 11.8974 209.482 11.7045 209.482 11.4965C209.482 11.2146 209.401 10.963 209.24 10.7416C209.079 10.5201 208.86 10.3155 208.581 10.1276C208.303 9.93976 207.972 9.75856 207.59 9.58412C207.207 9.40967 206.795 9.23185 206.352 9.05068C205.224 8.58097 204.384 8.00726 203.83 7.32955C203.277 6.65184 203 5.8332 203 4.87367C203 4.12214 203.151 3.47631 203.453 2.93615C203.755 2.39599 204.166 1.95147 204.686 1.60254C205.206 1.25362 205.808 0.996954 206.493 0.832545C207.177 0.668169 207.902 0.585938 208.667 0.585938C209.418 0.585938 210.084 0.631239 210.665 0.721823C211.245 0.812407 211.78 0.951629 212.27 1.13952V4.14897C212.028 3.98122 211.765 3.83359 211.48 3.70611C211.195 3.57863 210.901 3.47292 210.599 3.38906C210.297 3.3052 209.997 3.24313 209.698 3.20289C209.4 3.16261 209.116 3.14251 208.848 3.14251C208.479 3.14251 208.143 3.17773 207.841 3.24821C207.539 3.31866 207.284 3.41763 207.076 3.54511C206.868 3.67262 206.707 3.82527 206.593 4.00309C206.479 4.18092 206.422 4.38051 206.422 4.60195C206.422 4.8435 206.486 5.05992 206.613 5.25116C206.741 5.4424 206.922 5.62357 207.157 5.79466C207.392 5.96576 207.677 6.13352 208.012 6.29793C208.348 6.46231 208.727 6.63177 209.15 6.80622C209.727 7.04777 210.245 7.30443 210.705 7.57618C211.164 7.84793 211.559 8.15494 211.887 8.49714C212.216 8.83934 212.468 9.23021 212.642 9.66971C212.817 10.1092 212.904 10.6209 212.904 11.2047C212.904 12.0099 212.751 12.6859 212.446 13.2328C212.141 13.7797 211.726 14.2225 211.203 14.5614C210.68 14.9002 210.071 15.1435 209.376 15.2911C208.682 15.4387 207.949 15.5125 207.177 15.5125C206.385 15.5125 205.632 15.4454 204.917 15.3112C204.203 15.1769 203.584 14.9756 203.06 14.7072Z" fill="#5B5A74"/>
<path d="M224.925 15.2614H221.755V9.53437C221.755 7.93737 221.184 7.13886 220.043 7.13886C219.493 7.13886 219.04 7.35023 218.685 7.77295C218.329 8.1957 218.151 8.73248 218.151 9.38336V15.2614H214.971V4.95473H218.151V6.58529H218.192C218.95 5.33052 220.054 4.70312 221.503 4.70312C223.784 4.70312 224.925 6.11895 224.925 8.95058V15.2614H224.925Z" fill="#5B5A74"/>
<path d="M236.01 15.2614H233.001V13.7818H232.961C232.27 14.936 231.246 15.5131 229.891 15.5131C228.891 15.5131 228.104 15.2296 227.531 14.6625C226.957 14.0955 226.67 13.339 226.67 12.3928C226.67 10.3933 227.854 9.2391 230.223 8.93042L233.021 8.55802C233.021 7.43073 232.41 6.86709 231.189 6.86709C229.961 6.86709 228.794 7.2328 227.686 7.9642V5.5687C228.129 5.34057 228.735 5.13926 229.503 4.96482C230.272 4.79037 230.971 4.70312 231.602 4.70312C234.541 4.70312 236.01 6.16927 236.01 9.10159V15.2614H236.01ZM233.021 11.0743V10.3798L231.149 10.6214C230.116 10.7556 229.599 11.222 229.599 12.0205C229.599 12.3828 229.725 12.6797 229.976 12.9112C230.228 13.1427 230.568 13.2585 230.998 13.2585C231.595 13.2585 232.082 13.0521 232.457 12.6395C232.833 12.2268 233.021 11.7051 233.021 11.0743Z" fill="#5B5A74"/>
<path d="M241.748 14.0637H241.708V20.0021H238.527V4.95475H241.708V6.50478H241.748C242.533 5.30367 243.637 4.70312 245.06 4.70312C246.395 4.70312 247.427 5.1611 248.155 6.07701C248.883 6.99293 249.247 8.23933 249.247 9.8162C249.247 11.534 248.822 12.9129 247.973 13.953C247.125 14.993 245.996 15.513 244.587 15.513C243.345 15.513 242.399 15.0299 241.748 14.0637ZM241.658 9.83633V10.6617C241.658 11.3729 241.845 11.9534 242.221 12.4029C242.597 12.8525 243.09 13.0773 243.701 13.0773C244.426 13.0773 244.987 12.7971 245.387 12.2368C245.786 11.6765 245.986 10.8831 245.986 9.85647C245.986 8.04475 245.281 7.13887 243.872 7.13887C243.221 7.13887 242.689 7.38547 242.277 7.87867C241.864 8.37186 241.658 9.02438 241.658 9.83633Z" fill="#5B5A74"/>
<path d="M259.122 14.889C258.404 15.3051 257.367 15.5131 256.012 15.5131C254.428 15.5131 253.146 15.0333 252.167 14.0737C251.187 13.1142 250.697 11.8762 250.697 10.3597C250.697 8.60836 251.222 7.22779 252.272 6.21791C253.323 5.20804 254.727 4.70312 256.485 4.70312C257.699 4.70312 258.578 4.86416 259.122 5.18626V7.88372C258.457 7.38718 257.716 7.13891 256.897 7.13891C255.985 7.13891 255.262 7.40564 254.728 7.93908C254.195 8.47252 253.928 9.20897 253.928 10.1484C253.928 11.0609 254.183 11.7772 254.693 12.2973C255.203 12.8173 255.904 13.0773 256.797 13.0773C257.588 13.0773 258.364 12.829 259.122 12.3325V14.889Z" fill="#5B5A74"/>
<path d="M271.099 15.2587H267.929V9.40079C267.929 7.89103 267.378 7.13615 266.278 7.13615C265.714 7.13615 265.258 7.34752 264.909 7.77024C264.56 8.19299 264.386 8.72977 264.386 9.38065V15.2587H261.205V0H264.386V6.48192H264.426C265.204 5.29423 266.261 4.70041 267.596 4.70041C269.932 4.70041 271.099 6.10952 271.099 8.92773V15.2587H271.099Z" fill="#5B5A74"/>
<path d="M282.196 15.2614H279.186V13.7818H279.146C278.455 14.936 277.432 15.5131 276.076 15.5131C275.076 15.5131 274.29 15.2296 273.716 14.6625C273.142 14.0955 272.855 13.339 272.855 12.3928C272.855 10.3933 274.04 9.2391 276.408 8.93042L279.207 8.55802C279.207 7.43073 278.596 6.86709 277.375 6.86709C276.147 6.86709 274.979 7.2328 273.872 7.9642V5.5687C274.315 5.34057 274.92 5.13926 275.689 4.96482C276.457 4.79037 277.157 4.70312 277.787 4.70312C280.726 4.70312 282.196 6.16927 282.196 9.10159V15.2614V15.2614ZM279.207 11.0743V10.3798L277.334 10.6214C276.301 10.7556 275.784 11.222 275.784 12.0205C275.784 12.3828 275.91 12.6797 276.162 12.9112C276.413 13.1427 276.754 13.2585 277.183 13.2585C277.781 13.2585 278.267 13.0521 278.643 12.6395C279.019 12.2268 279.207 11.7051 279.207 11.0743Z" fill="#5B5A74"/>
<path d="M290.941 15.1403C290.472 15.3886 289.764 15.5127 288.818 15.5127C286.577 15.5127 285.456 14.3485 285.456 12.0201V7.29962H283.785V4.95446H285.456V2.7301L288.627 1.82422V4.95446H290.941V7.29962H288.626V11.4666C288.626 12.5402 289.053 13.077 289.905 13.077C290.24 13.077 290.586 12.9797 290.941 12.7851V15.1403H290.941Z" fill="#5B5A74"/>
<path d="M83.7851 54.1746C83.786 54.1746 83.7869 54.1746 83.7887 54.1746C83.9952 54.1746 84.1653 54.0046 84.1653 53.7981C84.1653 53.7908 84.1653 53.7836 84.1644 53.7763C84.1644 53.4939 83.9943 53.3589 83.6441 53.3589H83.0792V54.8379H83.2921V54.1932H83.5531L83.5586 54.201L83.9643 54.8379H84.1917L83.756 54.1787L83.7851 54.1746ZM83.5386 54.0265H83.2921V53.5265H83.605C83.766 53.5265 83.9497 53.5528 83.9497 53.7641C83.9497 54.0071 83.7641 54.0265 83.5376 54.0265H83.5386ZM1 38.0028H4.13654V49.4282H9.94346V52.3228H1V38.0028ZM11.3302 42.6134H14.3435V52.3174H11.3302V42.6134ZM12.8368 37.7891C13.7956 37.7892 14.5845 38.5782 14.5845 39.5371C14.5845 40.496 13.7954 41.2851 12.8365 41.2851C11.8776 41.2851 11.0885 40.496 11.0885 39.5371C11.0885 38.5782 11.8776 37.7891 12.8365 37.7891C12.8366 37.7891 12.8367 37.7891 12.8368 37.7891ZM26.9483 38.0006H29.9616V46.5586L33.3767 42.609H37.0711L33.1162 47.1016L36.9879 52.3215H33.2006L30.0018 47.5247H29.9622V52.3208H26.9489L26.9483 38.0006ZM16.0142 42.6144H18.9079V43.9405H18.949C19.5371 42.933 20.6364 42.3291 21.8022 42.373C24.8579 42.373 25.4203 44.3834 25.4203 46.9952V52.3168H22.407V47.5988C22.407 46.4726 22.3864 45.025 20.8377 45.025C19.2714 45.025 19.0297 46.2513 19.0297 47.5169V52.3156H16.0164L16.0142 42.6144Z" fill="#5B5A74"/>
<path d="M43.451 46.342C43.451 46.3562 43.4513 46.3278 43.451 46.342C43.451 45.3509 42.6359 44.4926 41.6448 44.4926C41.6594 44.4923 41.6301 44.4926 41.6448 44.4926C40.5564 44.4249 39.5573 45.2548 39.4716 46.342H43.451ZM46.0035 50.6421C44.9901 51.871 43.4756 52.5806 41.8828 52.5729C38.8695 52.5729 36.457 50.5614 36.457 47.4468C36.457 44.3322 38.8692 42.3217 41.8828 42.3217C44.6993 42.3217 46.4655 44.3305 46.4655 47.4468V48.3916H39.4716C39.6508 49.4944 40.6254 50.3053 41.7425 50.2809C42.6131 50.2754 43.4238 49.8284 43.8929 49.095L46.0035 50.6421ZM52.7463 44.9643C51.2397 44.9643 50.3357 45.9703 50.3357 47.4362C50.3357 48.902 51.2393 49.9089 52.7463 49.9089C54.2533 49.9089 55.1591 48.9045 55.1591 47.4362C55.1591 45.9678 54.2548 44.9643 52.7463 44.9643ZM57.9332 52.3208H55.1591V51.0339C54.4542 51.982 53.3037 52.5478 52.1223 52.5619C49.2271 52.5619 47.3199 50.4723 47.3199 47.5174C47.3199 44.8036 49.0077 42.3116 51.782 42.3116C53.0291 42.3116 54.1939 42.6528 54.8773 43.5986L54.9168 38.0049H57.9328L57.9332 52.3208ZM78.2756 52.3264H75.2623V47.6075C75.2623 46.4822 75.2422 45.0337 73.6952 45.0337C72.1257 45.0337 71.8856 46.2597 71.8856 47.5256V52.3261H68.8724V42.6221H71.765V43.9482C72.354 42.9412 73.4938 42.3375 74.6597 42.3808C77.7138 42.3808 78.2769 44.3896 78.2769 47.003L78.2756 52.3264ZM65.4724 41.2956C64.5131 41.2956 63.7234 40.5063 63.7234 39.547C63.7234 38.5878 64.5127 37.7984 65.472 37.7984C66.4312 37.7984 67.2205 38.5876 67.2207 39.5467C67.2207 40.5058 66.4315 41.2955 65.4724 41.2956ZM66.979 52.3264H63.9626V42.6221H66.979V52.3264ZM79.7778 35.0001H62.4484C61.6349 34.9909 60.9577 35.6524 60.9478 36.4659V53.8672C60.9573 54.6812 61.6344 55.3434 62.4484 55.3346H79.7778C80.5937 55.3449 81.2732 54.6828 81.2841 53.8672V36.4647C81.2732 35.6495 80.5928 34.9894 79.7778 35.0001ZM83.5991 52.7053C82.8432 52.7126 82.2256 53.3362 82.2256 54.0919C82.2256 54.8527 82.8514 55.4787 83.6118 55.4787C84.3732 55.4787 84.999 54.8527 84.999 54.0919C84.999 53.3362 84.355 52.7126 83.5991 52.7053ZM83.5991 55.3199C83.6064 55.3199 83.5918 55.32 83.5991 55.3199C82.9323 55.3199 82.3629 54.7712 82.3629 54.1041C82.3629 53.4371 82.9114 52.8881 83.5782 52.8881C84.2376 52.8881 84.7834 53.4245 84.7943 54.0838C84.808 54.7363 84.2513 55.3058 83.5991 55.3199Z" fill="#5B5A74"/>
<path fill-rule="evenodd" clip-rule="evenodd" d="M124.663 49.079C123.61 49.3218 123.065 48.9979 123.065 48.3004C123.065 47.3448 124.053 46.9623 125.465 46.9623C126.086 46.9623 126.672 47.0159 126.672 47.0159C126.672 47.425 125.783 48.8208 124.663 49.079ZM125.734 39.5117C122.363 39.5117 119.943 40.7512 119.943 40.7512V44.3947C119.943 44.3947 122.615 42.8588 124.783 42.8588C126.513 42.8588 126.725 43.7919 126.647 44.5659C126.647 44.5659 126.148 44.4339 124.625 44.4339C121.037 44.4339 119.227 46.0644 119.227 48.6784C119.227 51.1582 121.262 52.1945 122.977 52.1945C125.479 52.1945 126.579 50.5131 126.916 49.7156C127.151 49.1623 127.194 48.7893 127.404 48.7893C127.646 48.7893 127.564 49.0569 127.552 49.6075C127.532 50.5721 127.578 51.3011 127.731 51.9156H131.049V45.9486C131.049 42.2231 129.731 39.5117 125.734 39.5117" fill="#5B5A74"/>
<path fill-rule="evenodd" clip-rule="evenodd" d="M147.572 45.8606C147.572 44.7707 148.586 43.7782 150.446 43.7782C152.472 43.7782 154.103 44.754 154.469 44.9757V40.7577C154.469 40.7577 153.181 39.5178 150.015 39.5178C146.678 39.5178 143.899 41.47 143.899 45.6722C143.899 49.874 146.421 52.2042 150.006 52.2042C152.807 52.2042 154.476 50.6656 154.476 50.6656V46.6598C153.948 46.9549 152.477 47.9763 150.466 47.9763C148.338 47.9763 147.573 46.9973 147.573 45.861L147.572 45.8606ZM103.226 39.794C103.227 39.7967 103.438 40.7032 103.16 41.8886C103.018 42.4914 102.757 43.0041 103.072 43.0041C103.289 43.0041 103.29 42.8239 103.572 42.1778C103.985 41.2335 104.856 39.5147 106.892 39.5147C108.827 39.5147 109.738 40.6901 110.04 41.7908C110.27 42.627 110.069 43.0041 110.349 43.0041C110.549 43.0041 110.618 42.5703 110.863 42.0215C111.303 41.0384 112.261 39.5147 114.197 39.5147C117.12 39.5147 118.235 41.6246 118.235 44.7896V51.9213H113.894V45.3465C113.894 44.2503 113.717 43.1871 112.718 43.1871C111.791 43.1871 111.36 44.8279 111.36 45.8871V51.924H106.939V45.3469C106.939 43.9444 106.741 43.1875 105.755 43.1875C104.901 43.1875 104.403 44.6973 104.403 45.8876V51.9217H100V39.794H103.226H103.226ZM132.494 39.8107C132.496 39.8116 133.246 40.2437 134.7 40.2437C136.158 40.2437 136.898 39.8107 136.898 39.8107V51.9244H132.494V39.8107ZM168.846 39.8107C168.848 39.8116 169.597 40.2437 171.052 40.2437C172.509 40.2437 173.249 39.8107 173.249 39.8107V51.9244H168.846V39.8107ZM142.726 36.1225V51.9244H138.322V36.1225H142.726ZM159.702 36.1225C159.702 36.1239 159.884 36.578 159.884 37.9288C159.884 39.9233 159.45 41.5466 159.245 42.1652C159.137 42.4928 158.943 42.9983 159.221 43.0073C159.381 43.0122 159.478 42.7707 159.674 42.3517C159.87 41.9323 160.84 39.5174 163.388 39.5174C166.899 39.5174 167.416 42.3918 167.416 45.5046V51.924H163.012V45.2411C163.012 43.8705 162.725 43.1898 161.806 43.1898C160.696 43.1898 160.304 44.9072 160.304 45.8903V51.924H155.901V36.1221H159.702L159.702 36.1225ZM177.963 39.794C177.964 39.7967 178.175 40.7032 177.897 41.8886C177.755 42.4914 177.494 43.0041 177.809 43.0041C178.026 43.0041 178.026 42.8239 178.309 42.1778C178.722 41.2335 179.593 39.5147 181.629 39.5147C183.652 39.5147 184.455 40.6956 184.777 41.7908C184.994 42.5248 184.806 43.0041 185.086 43.0041C185.286 43.0041 185.354 42.5703 185.6 42.0215C186.039 41.0384 186.997 39.5147 188.934 39.5147C191.857 39.5147 192.972 41.6246 192.972 44.7896V51.9213H188.631V45.3465C188.631 44.2503 188.454 43.1871 187.454 43.1871C186.528 43.1871 186.096 44.8279 186.096 45.8871V51.924H181.675V45.3469C181.675 43.9444 181.478 43.1875 180.492 43.1875C179.638 43.1875 179.14 44.6973 179.14 45.8876V51.9217H174.737V39.794H177.963H177.963ZM134.683 36C133.195 36 131.988 36.7876 131.988 37.7589C131.988 38.7303 133.194 39.5178 134.683 39.5178C136.172 39.5178 137.378 38.7303 137.378 37.7589C137.378 36.7876 136.172 36 134.683 36ZM171.035 36C169.546 36 168.339 36.7876 168.339 37.7589C168.339 38.7303 169.546 39.5178 171.035 39.5178C172.523 39.5178 173.73 38.7303 173.73 37.7589C173.73 36.7876 172.523 36 171.035 36Z" fill="#5B5A74"/>
<path fill-rule="evenodd" clip-rule="evenodd" d="M200.474 49.3124C199.464 49.3124 198.722 48.0324 198.722 46.2487C198.722 44.5163 199.484 43.1859 200.439 43.1859C201.663 43.1859 202.186 44.3091 202.186 46.2487C202.186 48.2667 201.704 49.3124 200.474 49.3124ZM201.682 39.5117C199.419 39.5117 198.381 41.208 197.931 42.1744C197.633 42.8128 197.649 43.0007 197.431 43.0007C197.116 43.0007 197.377 42.488 197.519 41.8852C197.798 40.698 197.586 39.7911 197.586 39.7911H194.361V55.264H198.763V50.3585C199.283 51.242 200.248 52.1859 201.736 52.1859C204.919 52.1859 206.521 49.493 206.521 45.8549C206.521 41.7315 204.604 39.5117 201.683 39.5117" fill="#5B5A74"/>
<path d="M225.5 46.04V44.46H221.92V40.56H220.18V44.46H216.58V46.04H220.18V50.1H221.92V46.04H225.5ZM246.975 52V38.66H242.975L239.735 46.72L236.495 38.66H232.515V52H235.355V42.66L239.115 52H240.355L244.115 42.66V52H246.975ZM254.045 52.24C257.245 52.24 259.165 49.92 259.165 47.16C259.165 44.42 257.245 42.1 254.045 42.1C250.865 42.1 248.945 44.42 248.945 47.16C248.945 49.92 250.865 52.24 254.045 52.24ZM254.045 49.98C252.465 49.98 251.585 48.68 251.585 47.16C251.585 45.66 252.465 44.36 254.045 44.36C255.625 44.36 256.525 45.66 256.525 47.16C256.525 48.68 255.625 49.98 254.045 49.98ZM263.589 52V45.62C264.009 45 265.129 44.52 265.969 44.52C266.249 44.52 266.489 44.54 266.669 44.58V42.1C265.469 42.1 264.269 42.8 263.589 43.66V42.34H261.049V52H263.589ZM272.796 52.24C274.296 52.24 275.816 51.78 276.776 50.9L275.656 49.26C275.036 49.86 273.896 50.22 273.076 50.22C271.436 50.22 270.456 49.2 270.296 47.98H277.476V47.42C277.476 44.26 275.516 42.1 272.636 42.1C269.696 42.1 267.636 44.36 267.636 47.16C267.636 50.26 269.856 52.24 272.796 52.24ZM275.016 46.26H270.256C270.376 45.3 271.056 44.12 272.636 44.12C274.316 44.12 274.956 45.34 275.016 46.26Z" fill="#5B5A74"/>
</svg>
