<svg width="625" height="444" viewBox="0 0 625 444" fill="none" xmlns="http://www.w3.org/2000/svg">
<rect width="625" height="444" rx="20" fill="#FFC95F"/>
<path d="M293.461 100C290.654 100 287.922 99.686 285.299 99.0918C282.145 98.3772 282.465 94.0421 285.536 93.0251V93.0251C288.156 92.1573 287.756 88.4311 285.456 86.9052C283.376 85.5256 282.001 83.7294 281.234 82.212C280.823 81.4006 281.153 80.4486 282.059 80.518V80.518C283.195 80.6049 283.775 79.3752 282.762 78.8537C278.303 76.5557 276.618 72.6283 276.158 69.9285C275.986 68.9186 277.322 68.4148 278.306 68.7009V68.7009C279.532 69.0577 279.817 67.6417 278.985 66.6726C276.621 63.921 275.978 60.8752 276.091 58.2758C276.226 55.1562 279.701 54.9077 281.995 57.0262C287.138 61.7758 293.702 64.6404 301.381 65.3517C302.825 65.4854 303.915 64.1279 303.915 62.6775V62.6775C303.915 55.6759 309.68 50 316.79 50C319.945 50 322.834 51.117 325.073 52.9713C325.812 53.5832 326.719 53.918 327.641 53.6525V53.6525C330.031 52.9641 332.2 55.1262 330.321 56.7556C329.748 57.2528 329.197 57.6485 328.728 57.9197C328.742 57.9539 328.714 57.8854 328.728 57.9197V57.9197C330.922 57.5939 332.672 60.0566 330.938 61.4387C330.851 61.5076 330.765 61.5755 330.678 61.6424C330.058 62.123 329.678 62.8592 329.67 63.6439C329.467 83.2014 314.029 100 293.461 100Z" fill="white"/>
<path d="M294.891 159.714C294.891 162.317 292.677 164.428 289.945 164.428C287.214 164.428 285 162.317 285 159.714C285 157.11 287.214 155 289.945 155C292.677 155 294.891 157.11 294.891 159.714Z" fill="white"/>
<path d="M285.676 172.119C285.676 169.785 287.569 167.893 289.903 167.893V167.893C292.237 167.893 294.13 169.785 294.13 172.119V189.773C294.13 192.108 292.237 194 289.903 194V194C287.569 194 285.676 192.108 285.676 189.773V172.119Z" fill="white"/>
<path d="M307.74 168.744C307.74 168.274 307.359 167.893 306.889 167.893H303.513C301.179 167.893 299.287 169.785 299.287 172.119V189.773C299.287 192.108 301.179 194 303.513 194V194C305.848 194 307.74 192.108 307.74 189.774C307.74 186.995 307.74 183.381 307.74 180.642C307.74 177.558 308.774 174.46 312.897 174.46C317.557 174.46 317.529 178.496 317.507 181.623C317.488 184.317 317.511 187.046 317.529 189.773C317.545 192.108 319.439 194 321.773 194V194C324.108 194 326 192.108 326 189.773V180.221C325.928 171.423 323.679 167.369 316.278 167.369C313.288 167.369 311.071 168.31 309.512 169.492C308.865 169.983 307.74 169.556 307.74 168.744V168.744Z" fill="white"/>
<path d="M113.4 169.675C113.4 171.456 111.923 172.9 110.1 172.9C108.277 172.9 106.8 171.456 106.8 169.675C106.8 167.894 108.277 166.45 110.1 166.45C111.923 166.45 113.4 167.894 113.4 169.675Z" fill="white"/>
<path fill-rule="evenodd" clip-rule="evenodd" d="M98 192.25C104.075 192.25 109 187.437 109 181.5C109 175.563 104.075 170.75 98 170.75C91.9249 170.75 87 175.563 87 181.5C87 187.437 91.9249 192.25 98 192.25ZM98 187.95C101.645 187.95 104.6 185.062 104.6 181.5C104.6 177.938 101.645 175.05 98 175.05C94.3549 175.05 91.4 177.938 91.4 181.5C91.4 185.062 94.3549 187.95 98 187.95Z" fill="white"/>
<path fill-rule="evenodd" clip-rule="evenodd" d="M76 180.64C76 173.415 76 169.803 77.4387 167.044C78.7042 164.616 80.7236 162.643 83.2073 161.406C86.031 160 89.7273 160 97.12 160H98.88C106.273 160 109.969 160 112.793 161.406C115.276 162.643 117.296 164.616 118.561 167.044C120 169.803 120 173.415 120 180.64V182.36C120 189.585 120 193.197 118.561 195.956C117.296 198.384 115.276 200.357 112.793 201.594C109.969 203 106.273 203 98.88 203H97.12C89.7273 203 86.031 203 83.2073 201.594C80.7236 200.357 78.7042 198.384 77.4387 195.956C76 193.197 76 189.585 76 182.36V180.64ZM97.12 164.3H98.88C102.649 164.3 105.211 164.303 107.191 164.461C109.12 164.615 110.107 164.895 110.795 165.237C112.451 166.062 113.797 167.377 114.641 168.996C114.991 169.668 115.277 170.632 115.435 172.517C115.597 174.453 115.6 176.957 115.6 180.64V182.36C115.6 186.043 115.597 188.547 115.435 190.483C115.277 192.368 114.991 193.332 114.641 194.004C113.797 195.623 112.451 196.938 110.795 197.763C110.107 198.105 109.12 198.385 107.191 198.539C105.211 198.697 102.649 198.7 98.88 198.7H97.12C93.3511 198.7 90.789 198.697 88.8086 198.539C86.8795 198.385 85.893 198.105 85.2049 197.763C83.5491 196.938 82.2028 195.623 81.3591 194.004C81.0085 193.332 80.7228 192.368 80.5652 190.483C80.4034 188.547 80.4 186.043 80.4 182.36V180.64C80.4 176.957 80.4034 174.453 80.5652 172.517C80.7228 170.632 81.0085 169.668 81.3591 168.996C82.2028 167.377 83.5491 166.062 85.2049 165.237C85.893 164.895 86.8795 164.615 88.8086 164.461C90.789 164.303 93.3511 164.3 97.12 164.3Z" fill="white"/>
<path d="M108.088 80.7039C110.325 80.7039 112.233 79.0817 112.592 76.8734L112.704 76.1858C113.16 73.3757 110.991 70.8252 108.144 70.8252V70.8252C105.593 70.8252 103.525 68.7572 103.525 66.2061V64.4175C103.525 61.7143 104.926 59.0777 109.428 59.0777V59.0777C111.936 59.0777 114 57.0445 114 54.5364V54.5364C114 52.3068 112.38 50.4054 110.16 50.2078C108.859 50.0921 107.361 50 105.889 50C97.6083 50 92.201 54.7323 92.201 63.2961V66.2248C92.201 68.7655 90.1413 70.8252 87.6005 70.8252V70.8252C85.0597 70.8252 83 72.8849 83 75.4257V76.1034C83 78.6442 85.0597 80.7039 87.6005 80.7039V80.7039C90.1413 80.7039 92.201 82.7636 92.201 85.3044V98.9039C92.201 102.169 94.5984 105 97.8631 105V105V105C101.128 105 103.525 102.169 103.525 98.9039V85.2667C103.525 82.7467 105.568 80.7039 108.088 80.7039V80.7039Z" fill="white"/>
<path d="M522.941 62.8695C525.29 58.7664 523.896 53.5197 519.827 51.1508C515.757 48.7818 510.553 50.1877 508.204 54.2908L490.634 84.9746C488.284 89.0777 489.678 94.3244 493.748 96.6933C497.817 99.0623 503.021 97.6564 505.371 93.5533L522.941 62.8695Z" fill="white" fill-opacity="0.6"/>
<path d="M506.502 89.2686C506.502 94.0079 502.692 97.8498 497.991 97.8498C493.291 97.8498 489.48 94.0079 489.48 89.2686C489.48 84.5294 493.291 80.6875 497.991 80.6875C502.692 80.6875 506.502 84.5294 506.502 89.2686Z" fill="white" fill-opacity="0.8"/>
<path d="M508.229 62.8695C505.88 58.7664 507.274 53.5197 511.344 51.1508C515.413 48.7818 520.617 50.1877 522.966 54.2908L540.537 84.9746C542.886 89.0777 541.492 94.3244 537.422 96.6933C533.353 99.0623 528.149 97.6564 525.799 93.5533L508.229 62.8695Z" fill="white"/>
<path fill-rule="evenodd" clip-rule="evenodd" d="M85.7638 263.3C83.4393 266.242 82.6429 269.734 82.6429 271.81C82.6429 273.735 82.8041 276.408 82.9402 278.325C82.9854 278.962 82.8563 279.704 82.3062 280.293C81.7494 280.89 80.992 281.083 80.3153 281.083C79.3383 281.083 78.5951 280.722 78.1198 280.491L78.0646 280.464C77.5342 280.207 77.2553 280.087 76.8454 280.087C76.4724 280.087 76.0171 280.249 75.656 280.545C75.29 280.844 75.1839 281.137 75.1839 281.305C75.1839 281.646 75.3085 281.89 75.7663 282.189C76.307 282.543 77.0774 282.808 78.0873 283.143L78.1752 283.172C79.0139 283.45 80.0527 283.794 80.8725 284.311C81.7927 284.89 82.6429 285.822 82.6429 287.258C82.6429 287.634 82.5399 287.996 82.4433 288.271C82.3384 288.568 82.1967 288.883 82.0379 289.196C81.7197 289.825 81.2894 290.534 80.8163 291.24C79.8778 292.641 78.6848 294.156 77.6933 295.12C76.6908 296.095 75.1833 297.191 73.6586 298.046C72.8907 298.476 72.089 298.862 71.3159 299.144C70.6446 299.389 69.9226 299.582 69.2268 299.622C69.1844 299.624 69.1424 299.633 69.1045 299.652V299.652C69.0715 299.669 69.0407 299.687 69.0138 299.706L69 299.715C69.0027 299.735 69.0058 299.749 69.0084 299.759C69.0141 299.782 69.0209 299.798 69.03 299.815C69.0581 299.866 69.1023 299.923 69.2813 300.117L69.3282 300.168C69.6506 300.519 70.4451 300.974 71.7044 301.38C72.9038 301.768 74.3221 302.048 75.662 302.176C76.3325 302.241 76.7189 302.664 76.8824 302.892C77.0508 303.127 77.1471 303.375 77.2033 303.54C77.3122 303.858 77.3944 304.251 77.4592 304.56L77.4691 304.607C77.5576 305.029 77.635 305.39 77.736 305.691V305.691C77.7886 305.848 77.933 305.951 78.0984 305.952C78.1109 305.952 78.1238 305.952 78.137 305.952C78.7532 305.95 79.37 305.857 79.9805 305.782C80.9572 305.664 82.1658 305.516 83.4455 305.516C86.4134 305.516 88.3718 306.869 90.2637 308.176L90.3699 308.249C91.07 308.732 91.7715 309.216 92.5605 309.687C94.784 311.016 96.4757 311.006 97.7117 310.999C97.7987 310.998 97.8834 310.998 97.9659 310.998C98.0476 310.998 98.1318 310.998 98.2184 310.999C99.4681 311.006 101.217 311.015 103.439 309.687C104.228 309.216 104.93 308.732 105.63 308.249L105.736 308.176C107.628 306.869 109.587 305.516 112.554 305.516C113.834 305.516 115.043 305.664 116.02 305.782L116.049 305.786C116.839 305.882 117.417 305.95 117.863 305.952C117.876 305.952 117.889 305.952 117.902 305.952C118.067 305.951 118.211 305.848 118.264 305.691V305.691C118.365 305.39 118.442 305.029 118.531 304.607L118.541 304.56C118.606 304.251 118.688 303.858 118.797 303.54C118.853 303.375 118.949 303.127 119.118 302.892C119.281 302.664 119.668 302.241 120.338 302.176C121.678 302.048 123.096 301.768 124.296 301.38C125.555 300.974 126.349 300.519 126.672 300.168L126.719 300.117C126.898 299.923 126.942 299.866 126.97 299.815C126.979 299.798 126.986 299.782 126.992 299.759C126.994 299.749 126.997 299.735 127 299.715L126.986 299.706C126.959 299.687 126.928 299.669 126.895 299.652V299.652C126.858 299.633 126.816 299.624 126.773 299.622C126.077 299.582 125.355 299.389 124.684 299.144C123.911 298.862 123.109 298.476 122.341 298.046C120.817 297.191 119.309 296.095 118.307 295.12C117.315 294.156 116.122 292.641 115.184 291.24C114.711 290.534 114.28 289.825 113.962 289.196C113.803 288.883 113.662 288.568 113.557 288.271C113.46 287.996 113.357 287.634 113.357 287.258C113.357 285.822 114.207 284.89 115.128 284.311C115.947 283.794 116.986 283.45 117.825 283.172L117.913 283.143C118.923 282.808 119.693 282.543 120.234 282.189C120.691 281.89 120.816 281.646 120.816 281.305C120.816 281.137 120.71 280.844 120.344 280.545C119.983 280.249 119.528 280.087 119.155 280.087C118.745 280.087 118.466 280.207 117.935 280.464L117.88 280.491C117.405 280.722 116.662 281.083 115.685 281.083C115.008 281.083 114.251 280.89 113.694 280.293C113.144 279.704 113.015 278.962 113.06 278.325C113.196 276.408 113.357 273.735 113.357 271.81C113.357 269.729 112.575 266.236 110.267 263.297C108.014 260.426 104.246 258 98.0341 258C91.822 258 88.0353 260.426 85.7638 263.3Z" fill="white"/>
<path d="M292.109 291.348C292.407 288.841 293.418 287.438 295.325 285.999C298.052 284.05 301.459 285.152 301.459 285.152V278.613C302.288 278.592 303.116 278.641 303.936 278.762V287.178C303.936 287.178 300.529 286.075 297.802 288.025C295.897 289.463 294.883 290.868 294.586 293.375C294.577 294.736 294.828 296.515 295.986 298.054C295.699 297.905 295.408 297.735 295.111 297.544C292.561 295.804 292.096 293.193 292.109 291.348ZM318.004 266.522C316.127 264.432 315.418 262.322 315.161 260.84H317.522C317.522 260.84 317.051 264.726 320.481 268.548L320.529 268.599C319.604 268.008 318.756 267.311 318.004 266.522ZM329.374 272.446V280.693C329.374 280.693 326.362 280.573 324.133 279.996C321.021 279.19 319.02 277.954 319.02 277.954C319.02 277.954 317.639 277.072 317.527 277.011V294.04C317.527 294.988 317.271 297.356 316.493 299.33C315.476 301.914 313.907 303.61 313.618 303.956C313.618 303.956 311.71 306.249 308.343 307.792C305.308 309.185 302.644 309.15 301.847 309.185C301.847 309.185 297.241 309.37 293.097 306.633C292.2 306.029 291.364 305.346 290.598 304.591L290.618 304.606C294.764 307.344 299.369 307.159 299.369 307.159C300.166 307.123 302.831 307.159 305.865 305.766C309.228 304.222 311.14 301.93 311.14 301.93C311.425 301.583 313.002 299.888 314.014 297.303C314.791 295.329 315.049 292.96 315.049 292.012V274.986C315.16 275.048 316.541 275.93 316.541 275.93C316.541 275.93 318.543 277.167 321.655 277.972C323.885 278.549 326.896 278.668 326.896 278.668V272.207C327.926 272.441 328.804 272.505 329.374 272.446Z" fill="white" fill-opacity="0.8"/>
<path d="M326.897 272.207V278.666C326.897 278.666 323.886 278.547 321.656 277.97C318.544 277.164 316.542 275.928 316.542 275.928C316.542 275.928 315.161 275.046 315.05 274.984V292.014C315.05 292.962 314.794 295.331 314.015 297.305C312.999 299.89 311.429 301.586 311.141 301.932C311.141 301.932 309.231 304.224 305.866 305.768C302.832 307.161 300.167 307.125 299.37 307.161C299.37 307.161 294.765 307.346 290.619 304.608L290.599 304.593C290.161 304.162 289.749 303.708 289.365 303.231C288.042 301.592 287.231 299.653 287.027 299.1C287.027 299.097 287.027 299.095 287.027 299.093C286.699 298.131 286.01 295.823 286.104 293.587C286.271 289.642 287.636 287.221 287.997 286.614C288.953 284.96 290.197 283.48 291.672 282.24C292.974 281.17 294.45 280.319 296.039 279.721C297.757 279.02 299.597 278.643 301.459 278.613V285.152C301.459 285.152 298.052 284.054 295.326 285.999C293.419 287.438 292.408 288.841 292.11 291.348C292.097 293.193 292.562 295.804 295.109 297.545C295.407 297.736 295.698 297.906 295.985 298.055C296.43 298.643 296.971 299.155 297.588 299.571C300.076 301.172 302.162 301.284 304.828 300.244C306.606 299.549 307.945 297.982 308.565 296.246C308.955 295.162 308.95 294.071 308.95 292.942V260.84H315.156C315.413 262.322 316.122 264.432 317.999 266.522C318.751 267.311 319.599 268.008 320.523 268.599C320.796 268.887 322.193 270.306 323.985 271.178C324.912 271.628 325.889 271.974 326.897 272.207V272.207Z" fill="white"/>
<path d="M284.559 297.094V297.099L284.713 297.523C284.695 297.474 284.638 297.323 284.559 297.094Z" fill="white" fill-opacity="0.6"/>
<path d="M296.04 279.723C294.451 280.32 292.975 281.172 291.673 282.242C290.197 283.484 288.954 284.968 287.999 286.625C287.638 287.229 286.273 289.653 286.106 293.597C286.012 295.833 286.701 298.142 287.029 299.103C287.028 299.105 287.028 299.108 287.029 299.11C287.236 299.658 288.044 301.597 289.366 303.241C289.751 303.718 290.163 304.173 290.6 304.604C289.198 303.659 287.947 302.516 286.889 301.214C285.578 299.589 284.769 297.67 284.558 297.104C284.558 297.1 284.558 297.096 284.558 297.092V297.085C284.229 296.125 283.538 293.815 283.634 291.576C283.801 287.631 285.166 285.21 285.527 284.604C286.482 282.946 287.725 281.463 289.201 280.22C290.503 279.15 291.979 278.299 293.568 277.701C294.559 277.301 295.592 277.005 296.648 276.82C298.24 276.549 299.866 276.526 301.465 276.75V278.614C299.601 278.644 297.76 279.02 296.04 279.723Z" fill="white" fill-opacity="0.6"/>
<path d="M315.162 260.84H308.956V292.943C308.956 294.072 308.956 295.16 308.571 296.247C307.944 297.982 306.611 299.549 304.834 300.244C302.167 301.288 300.081 301.172 297.594 299.571C296.976 299.157 296.433 298.646 295.986 298.06C298.106 299.161 300.003 299.142 302.353 298.223C304.129 297.528 305.464 295.961 306.089 294.225C306.48 293.141 306.475 292.049 306.475 290.922V258.812H315.044C315.044 258.812 314.948 259.611 315.162 260.84ZM326.898 270.42V272.207C325.892 271.973 324.917 271.628 323.991 271.178C322.199 270.306 320.802 268.887 320.529 268.599C320.846 268.802 321.175 268.986 321.514 269.152C323.693 270.212 325.84 270.528 326.898 270.42Z" fill="white" fill-opacity="0.6"/>
<path d="M77.8497 389.588L75.1302 393.023C75.0459 393.129 75 393.261 75 393.397C75 393.73 75.27 394 75.603 394H88.4493C88.7828 394 89.0532 393.73 89.0532 393.396C89.0532 393.261 89.0077 393.129 88.924 393.023L84.1966 387.011C83.6759 386.349 83.3929 385.531 83.3929 384.688C83.3929 380.65 88.8918 379.454 90.5688 383.127L95.1874 393.243C95.3981 393.704 95.8587 394 96.3659 394C96.8996 394 97.3786 393.673 97.5727 393.176L100.297 386.2C101.825 382.287 107.635 383.382 107.635 387.582C107.635 388.639 107.194 389.648 106.419 390.367L103.561 393.019C103.445 393.126 103.38 393.277 103.38 393.434C103.38 393.747 103.633 394 103.945 394H121.431C121.745 394 122 393.745 122 393.431C122 393.275 121.936 393.126 121.824 393.019L119.931 391.213C118.61 389.953 117.862 388.206 117.862 386.38V364.58C117.862 362.782 118.612 361.066 119.931 359.845L121.793 358.121C121.925 357.998 122 357.827 122 357.646C122 357.289 121.711 357 121.354 357H114.31C111.192 357 108.383 358.883 107.198 361.767L107.043 362.143C104.286 368.852 94.8532 369.043 91.8276 362.45L91.5532 361.852C90.1962 358.895 87.241 357 83.9877 357H76.3428C75.9677 357 75.6636 357.304 75.6636 357.679C75.6636 357.84 75.721 357.996 75.8254 358.119L78.1815 360.89C79.8068 362.801 80.6993 365.228 80.6993 367.737V381.398C80.6993 384.371 79.6952 387.257 77.8497 389.588Z" fill="white"/>
<path fill-rule="evenodd" clip-rule="evenodd" d="M526.563 179.045V179.045C527.21 178.968 527.84 178.615 527.83 177.964C527.826 177.655 527.789 177.316 527.715 176.965C527.452 175.703 527.095 174.94 526.358 175.059C525.621 175.178 525.594 176.092 525.857 177.353C526.006 178.062 526.27 178.669 526.563 179.045" fill="white"/>
<path fill-rule="evenodd" clip-rule="evenodd" d="M520.236 180.041C520.763 180.273 521.088 180.427 521.214 180.292C521.296 180.209 521.271 180.049 521.145 179.844C520.885 179.419 520.35 178.988 519.781 178.746C518.62 178.246 517.234 178.412 516.166 179.18C515.813 179.438 515.478 179.796 515.526 180.014C515.541 180.084 515.594 180.137 515.718 180.155C516.009 180.188 517.025 179.674 518.197 179.602C519.023 179.552 519.708 179.81 520.235 180.041" fill="white"/>
<path fill-rule="evenodd" clip-rule="evenodd" d="M519.177 180.651C518.49 180.759 518.111 180.986 517.868 181.196C517.66 181.378 517.532 181.578 517.533 181.719C517.534 181.786 517.563 181.825 517.586 181.844C517.617 181.872 517.654 181.887 517.699 181.887C517.738 181.887 517.789 181.879 517.844 181.865C518.088 181.806 518.319 181.701 518.56 181.633C519.322 181.417 519.87 181.457 520.413 181.518C520.758 181.557 520.922 181.578 520.997 181.46C521.019 181.426 521.047 181.352 520.978 181.24C520.817 180.979 520.123 180.538 519.177 180.651" fill="white"/>
<path fill-rule="evenodd" clip-rule="evenodd" d="M524.429 182.87C524.895 183.099 525.409 183.009 525.576 182.669C525.743 182.329 525.5 181.868 525.034 181.638C524.568 181.409 524.054 181.499 523.887 181.839C523.72 182.18 523.962 182.641 524.429 182.87Z" fill="white"/>
<path fill-rule="evenodd" clip-rule="evenodd" d="M527.425 180.25C527.046 180.244 526.732 180.659 526.723 181.179C526.714 181.699 527.014 182.125 527.393 182.132C527.772 182.138 528.086 181.722 528.095 181.202C528.104 180.683 527.803 180.257 527.425 180.25Z" fill="white"/>
<path fill-rule="evenodd" clip-rule="evenodd" d="M501.978 189.618C501.883 189.5 501.728 189.536 501.578 189.571C501.474 189.596 501.355 189.623 501.225 189.621C500.946 189.616 500.71 189.497 500.578 189.293C500.405 189.028 500.415 188.633 500.605 188.181L500.694 187.978C500.998 187.296 501.506 186.155 500.936 185.068C500.506 184.25 499.805 183.74 498.962 183.633C498.153 183.531 497.321 183.83 496.789 184.416C495.951 185.341 495.82 186.599 495.982 187.044C496.042 187.206 496.135 187.252 496.202 187.261C496.344 187.28 496.555 187.176 496.687 186.821L496.725 186.706C496.784 186.518 496.893 186.168 497.073 185.888C497.289 185.55 497.626 185.317 498.022 185.232C498.425 185.145 498.837 185.223 499.182 185.449C499.769 185.833 499.995 186.552 499.745 187.238C499.615 187.593 499.404 188.272 499.451 188.83C499.545 189.959 500.239 190.412 500.863 190.461C501.469 190.484 501.893 190.143 502.001 189.894C502.064 189.747 502.011 189.657 501.976 189.619" fill="white"/>
<path fill-rule="evenodd" clip-rule="evenodd" d="M507.745 168.884C507.745 168.884 507.744 168.884 507.745 168.884C509.723 166.598 512.158 164.61 514.34 163.494C514.415 163.455 514.495 163.537 514.455 163.611C514.282 163.925 513.948 164.597 513.842 165.107C513.826 165.186 513.912 165.246 513.98 165.2C515.337 164.275 517.698 163.283 519.769 163.156C519.858 163.151 519.901 163.265 519.83 163.319C519.515 163.561 519.171 163.895 518.919 164.233C518.876 164.291 518.917 164.374 518.989 164.374C520.443 164.385 522.493 164.894 523.829 165.643C523.919 165.694 523.855 165.869 523.753 165.846C521.732 165.382 518.423 165.031 514.985 165.869C511.916 166.618 509.573 167.774 507.865 169.016C507.779 169.079 507.675 168.965 507.745 168.885C507.745 168.885 507.745 168.884 507.745 168.884V168.884ZM517.598 191.033L517.598 191.034L517.599 191.037L517.598 191.033ZM525.756 191.996C525.756 191.996 525.756 191.996 525.757 191.996C525.815 191.971 525.855 191.905 525.849 191.838C525.847 191.826 525.845 191.815 525.841 191.805C525.798 191.679 525.621 191.715 525.489 191.73C524.93 191.794 523.24 191.945 521.187 191.715C519.061 191.478 518.679 189.937 520.811 190.109V190.109C523.958 190.296 526.779 189.837 528.863 189.238C530.249 188.841 531.968 188.146 533.525 187.188C534.243 186.746 535.215 186.99 535.438 187.803C535.478 187.948 535.513 188.086 535.544 188.215C535.661 188.701 536.182 189.01 536.609 189.272V189.272C536.989 189.506 537.267 189.992 537.077 191.249C536.69 193.596 535.692 195.502 534.015 197.255C532.994 198.354 531.755 199.309 530.337 200.004C529.583 200.4 528.782 200.742 527.935 201.018C521.612 203.083 515.14 200.813 513.054 195.938C512.888 195.572 512.747 195.188 512.636 194.787C511.748 191.575 512.502 187.721 514.861 185.294C514.861 185.294 514.861 185.294 514.861 185.293V185.293C514.861 185.293 514.861 185.293 514.862 185.292C515.007 185.138 515.155 184.956 515.155 184.727C515.155 184.536 515.033 184.334 514.928 184.19C514.102 182.993 511.243 180.953 511.817 177.005C512.229 174.169 514.71 172.172 517.022 172.29L517.608 172.324C518.611 172.383 519.485 172.511 520.31 172.546C521.69 172.606 522.932 172.405 524.403 171.18C524.899 170.767 525.297 170.408 525.97 170.294C526.041 170.282 526.217 170.219 526.568 170.235C526.928 170.255 527.269 170.353 527.576 170.557C528.755 171.342 528.922 173.242 528.983 174.632C529.018 175.425 529.114 177.345 529.147 177.896C529.222 179.156 529.553 179.334 530.224 179.555C530.6 179.679 530.95 179.771 531.466 179.916C533.027 180.354 533.952 180.799 534.535 181.37C534.883 181.727 535.045 182.106 535.095 182.468C535.279 183.81 534.053 185.469 530.807 186.976C527.258 188.623 522.952 189.04 519.978 188.708L518.936 188.59C516.557 188.27 515.199 191.345 516.627 193.452C517.548 194.81 520.055 195.693 522.563 195.694C528.313 195.694 532.733 193.239 534.378 191.118L534.509 190.931C534.59 190.809 534.523 190.742 534.422 190.811C533.084 191.726 527.156 195.352 520.801 194.293C520.754 194.285 520.707 194.277 520.66 194.269C520.455 194.23 519.828 194.104 519.247 193.878V193.878C517.989 193.388 518.826 192.353 520.165 192.524C523.656 192.969 525.75 192 525.757 191.997C525.757 191.997 525.757 191.996 525.756 191.996V191.996ZM497.466 179.756C497.466 179.756 497.466 179.756 497.466 179.756C495.851 180.07 494.409 180.926 493.433 182.12C493.262 182.329 492.952 182.373 492.747 182.197C492.169 181.699 491.442 181.038 491.289 180.746C489.748 177.819 492.971 172.129 495.223 168.916C500.788 160.974 509.503 154.964 513.538 156.054V156.054C515.49 156.606 514.712 159.704 513.024 160.83C511.694 161.717 510.119 162.843 508.593 164.116C503.553 167.996 499.747 173.636 497.466 179.756C497.466 179.756 497.466 179.756 497.466 179.756V179.756ZM500.476 193.185C500.476 193.185 500.476 193.186 500.476 193.186C500.205 193.232 499.929 193.25 499.649 193.243C496.954 193.171 494.043 190.745 493.754 187.867C493.434 184.687 495.06 182.239 497.937 181.659C498.281 181.589 498.697 181.549 499.145 181.573C500.757 181.661 503.133 182.899 503.675 186.411C504.156 189.521 503.393 192.688 500.477 193.185C500.476 193.185 500.476 193.185 500.476 193.185V193.185ZM536.985 187.553C536.962 187.472 536.811 186.922 536.605 186.26V186.26C536.382 185.545 536.478 184.764 536.729 184.059C537.011 183.267 536.995 182.591 536.917 182.152C536.8 181.372 536.475 180.709 535.822 180.022C535.168 179.336 533.83 178.633 531.951 178.105V178.105C531.355 177.94 530.955 177.427 530.939 176.809C530.921 176.061 530.895 175.084 530.871 174.527C530.84 173.818 530.779 172.711 530.436 171.622V171.622C529.824 169.417 529.807 166.713 530.977 164.748C531.894 163.208 532.411 161.674 532.409 160.275C532.402 155.65 526.721 154.25 519.719 157.149V157.149C518.823 157.529 517.781 157.332 517.086 156.65C516.353 155.932 515.536 155.131 515.514 155.112C507.532 148.15 482.575 175.89 490.553 182.628V182.628C491.597 183.513 491.91 184.964 491.795 186.327C491.747 186.885 491.752 187.466 491.813 188.063C491.999 189.918 492.955 191.695 494.506 193.068V193.068C497.15 195.411 500.56 197.438 502.887 200.095C506.582 204.316 512.105 206.804 518.308 206.989C527.232 207.254 534.723 203.067 537.861 195.545C538.067 195.018 538.938 192.639 538.938 190.539C538.938 188.429 537.745 187.555 536.985 187.555" fill="white"/>
<path d="M276.472 363.488C276.719 359.728 279.788 356.782 283.607 356.596C289.138 356.326 297.044 356 303 356C308.956 356 316.862 356.326 322.393 356.596C326.212 356.782 329.281 359.728 329.528 363.488C329.766 367.09 330 371.522 330 375C330 378.478 329.766 382.91 329.528 386.512C329.281 390.272 326.212 393.218 322.393 393.404C316.862 393.674 308.956 394 303 394C297.044 394 289.138 393.674 283.607 393.404C279.788 393.218 276.719 390.272 276.472 386.512C276.234 382.91 276 378.478 276 375C276 371.522 276.234 367.09 276.472 363.488Z" fill="white" fill-opacity="0.6"/>
<path d="M535.735 269.471C534.593 267.644 532.865 266.254 530.831 265.544C528.75 264.817 526.596 264.235 524.382 263.809C523.527 263.645 522.667 264.042 522.264 264.814V264.814C521.826 265.651 520.918 266.157 519.977 266.06C516.976 265.749 513.996 265.748 511.035 266.056C510.09 266.155 509.176 265.648 508.73 264.809V264.809C508.322 264.04 507.462 263.644 506.607 263.809C504.4 264.233 502.253 264.814 500.179 265.538C498.125 266.255 496.384 267.666 495.238 269.515C491.122 276.153 489.296 282.682 489.034 289.136C488.877 292.979 490.997 296.552 494.417 298.31C496.57 299.416 498.696 300.287 500.803 300.987C501.904 301.352 503.115 300.964 503.773 300.009C504.008 299.669 504.235 299.324 504.456 298.975C505.041 298.048 504.571 296.848 503.566 296.411C502.99 296.161 502.425 295.893 501.871 295.609C501.46 295.397 501.433 294.825 501.802 294.546V294.546C501.984 294.409 502.224 294.379 502.434 294.468C510.945 298.051 520.152 298.052 528.565 294.47C528.776 294.38 529.019 294.41 529.202 294.547V294.547C529.572 294.825 529.543 295.397 529.131 295.608C528.577 295.893 528.012 296.16 527.437 296.41C526.426 296.85 525.954 298.057 526.542 298.99C526.761 299.337 526.987 299.679 527.22 300.017C527.877 300.971 529.086 301.357 530.185 300.992C532.295 300.293 534.425 299.421 536.58 298.313C540.004 296.554 542.125 292.978 541.965 289.132C541.666 281.953 539.468 275.442 535.735 269.471ZM506.696 289.464C504.078 289.464 501.931 287.2 501.931 284.444C501.931 281.687 504.032 279.42 506.696 279.42C509.36 279.42 511.506 281.683 511.46 284.444C511.465 287.2 509.36 289.464 506.696 289.464ZM524.304 289.464C521.686 289.464 519.539 287.2 519.539 284.444C519.539 281.687 521.64 279.42 524.304 279.42C526.968 279.42 529.115 281.683 529.069 284.444C529.069 287.2 526.968 289.464 524.304 289.464Z" fill="white"/>
<path d="M516 397.559C529.255 397.559 540 387.037 540 374.059C540 361.08 529.255 350.559 516 350.559C502.745 350.559 492 361.08 492 374.059C492 383.353 497.51 391.387 505.506 395.199C505.805 395.341 506.148 395.13 506.166 394.799V394.799C506.181 394.527 506.192 394.316 506.192 394.197C506.192 393.741 506.397 392.118 506.542 391.026C506.634 390.334 506.767 389.649 506.936 388.972L508.813 381.423C509.369 379.19 508.875 376.755 508.875 374.454V374.454C508.875 368.974 511.99 367.788 513.894 367.788C516.317 367.788 516.865 370.358 516.865 372.251C516.865 373.252 516.335 374.819 515.789 376.431C515.211 378.14 514.615 379.9 514.615 381.092C514.615 383.408 516.952 384.566 518.567 384.566C522.837 384.566 526.76 379.312 526.76 374.059C526.76 368.805 524.25 362.45 516.029 362.45C507.808 362.45 504.115 368.579 504.115 373.268C504.115 376.431 505.327 378.747 505.933 379.143C506.106 379.293 506.4 379.758 506.192 380.414C505.985 381.069 505.606 382.532 505.442 383.182C505.423 383.332 505.24 383.589 504.663 383.408C503.942 383.182 499.356 380.357 499.356 373.268C499.356 366.178 505.038 357.931 516.029 357.931C527.019 357.931 532.644 365.161 532.644 374.059C532.644 382.956 525.288 388.633 519.692 388.633C519.343 388.633 519.011 388.621 518.694 388.599C516.761 388.462 511.944 390.179 511.442 392.051V392.051V392.051C510.526 394.455 511.767 397.331 514.334 397.503C514.885 397.54 515.44 397.559 516 397.559Z" fill="white"/>
<path d="M304.059 380.235C307.447 378.428 307.447 373.572 304.059 371.765C300.862 370.059 297 372.376 297 376C297 379.624 300.862 381.941 304.059 380.235Z" fill="white"/>
<rect width="625" height="21" fill="#FFC95F"/>
</svg>
