<svg width="55" height="55" viewBox="0 0 55 55" fill="none" xmlns="http://www.w3.org/2000/svg">
<circle cx="27.6579" cy="27.6071" r="2.76724" stroke="#252531" stroke-width="3"/>
<path fill-rule="evenodd" clip-rule="evenodd" d="M27.8567 29.7004C28.9459 29.7004 29.851 28.8751 30.0329 27.7891C35.1369 29.183 38.9039 34.0433 38.9039 39.8251C38.9039 46.225 34.2885 51.4959 28.3533 52.1863C29.0256 51.9751 29.5132 51.347 29.5132 50.605C29.5132 49.6898 28.7713 48.9479 27.8561 48.9478V48.7188C31.9738 48.2789 35.4039 44.5984 35.4039 39.8251C35.4039 35.0518 31.9738 31.3713 27.8561 30.9315V29.7004L27.8567 29.7004ZM26.2006 50.5274H20.9727C22.7456 51.6299 24.8159 52.2629 27.0275 52.2629C27.23 52.2629 27.4314 52.2576 27.6315 52.2471C26.8224 52.1375 26.1988 51.4441 26.1988 50.605C26.1988 50.579 26.1994 50.5531 26.2006 50.5274Z" fill="#252531"/>
<path fill-rule="evenodd" clip-rule="evenodd" d="M27.8533 5.31416C26.9397 5.31228 26.1996 4.57105 26.1996 3.65698C26.1996 2.82052 26.8193 2.1288 27.6247 2.01592C27.426 2.00535 27.226 2 27.0249 2C20.4657 2 15.1484 7.6895 15.1484 14.7078C15.1484 21.2275 19.7369 26.6005 25.647 27.3311C25.6884 26.065 26.6602 25.0521 27.8533 25.0511V23.8698C27.5795 23.9002 27.3031 23.9157 27.0249 23.9157C22.618 23.9157 18.6484 20.02 18.6484 14.7078C18.6484 9.39567 22.618 5.5 27.0249 5.5C27.3031 5.5 27.5795 5.51552 27.8533 5.54594V5.31416ZM28.3691 2.08049C29.6647 2.23666 30.8973 2.61589 32.0324 3.18144H29.4447C29.2891 2.6609 28.8844 2.24784 28.3691 2.08049Z" fill="#252531"/>
<circle cx="27.6579" cy="50.3649" r="2.76724" stroke="#252531" stroke-width="3"/>
<circle cx="4.5" cy="27.5" r="3" stroke="#252531" stroke-width="3"/>
<circle cx="28" cy="4" r="2.5" stroke="#252531" stroke-width="3"/>
<circle cx="50.4176" cy="27.6071" r="2.76724" stroke="#252531" stroke-width="3"/>
<path fill-rule="evenodd" clip-rule="evenodd" d="M29.5141 3.65698C29.5141 4.57221 28.7721 5.31416 27.8569 5.31416C26.9416 5.31416 26.1997 4.57221 26.1997 3.65698C26.1997 2.75047 26.9276 2.01397 27.8307 2H13C7.47715 2 3 6.47715 3 12V42.2678C3 47.7907 7.47714 52.2678 13 52.2678H42.163C47.6859 52.2678 52.163 47.7907 52.163 42.2678V12C52.163 6.47715 47.6859 2 42.163 2H27.883C28.7862 2.01397 29.5141 2.75047 29.5141 3.65698ZM42.163 5.5H13C9.41015 5.5 6.5 8.41015 6.5 12V42.2678C6.5 45.8577 9.41014 48.7678 13 48.7678H42.163C45.7529 48.7678 48.663 45.8577 48.663 42.2678V12C48.663 8.41015 45.7529 5.5 42.163 5.5ZM27.8569 52.2668C28.7721 52.2668 29.5141 51.5248 29.5141 50.6096C29.5141 49.6944 28.7721 48.9524 27.8569 48.9524C26.9416 48.9524 26.1997 49.6944 26.1997 50.6096C26.1997 51.5248 26.9416 52.2668 27.8569 52.2668ZM52.1622 27.4102C52.1622 28.3254 51.4203 29.0674 50.5051 29.0674C49.5898 29.0674 48.8479 28.3254 48.8479 27.4102C48.8479 26.4949 49.5898 25.753 50.5051 25.753C51.4203 25.753 52.1622 26.4949 52.1622 27.4102ZM4.65722 29.0674C5.57246 29.0674 6.3144 28.3254 6.3144 27.4102C6.3144 26.4949 5.57246 25.753 4.65722 25.753C3.74199 25.753 3.00004 26.4949 3.00004 27.4102C3.00004 28.3254 3.74199 29.0674 4.65722 29.0674Z" fill="#252531"/>
</svg>
