<?xml version="1.0" encoding="UTF-8"?>
<svg viewBox="0 0 170 33" xmlns="http://www.w3.org/2000/svg">
<circle cx="16.114" cy="16.114" r="16.114" fill="#F0F0F0"/>
<circle cx="62.038" cy="16.114" r="16.114" fill="#F0F0F0"/>
<circle cx="107.96" cy="16.114" r="16.114" fill="#F0F0F0"/>
<circle cx="153.88" cy="16.114" r="16.114" fill="#F0F0F0"/>
<path d="m107.96 16.919h-7.251v-7.2512h7.251v7.2512z" fill="#4A4A4A"/>
<path d="m115.21 16.919h-7.251v-7.2512h7.251v7.2512z" fill="#969696"/>
<path d="m107.96 24.173h-7.251v-7.2512h7.251v7.2512z" fill="#1B1919"/>
<path d="m115.21 24.173h-7.251v-7.2512h7.251v7.2512z" fill="#D2D2D2"/>
<path d="m19.561 16.699 0.4594-3.0389h-2.8733v-1.9721c0-0.8314 0.4013-1.6418 1.6883-1.6418h1.3064v-2.5872s-1.1856-0.20532-2.3191-0.20532c-2.3664 0-3.9131 1.4554-3.9131 4.0902v2.3162h-2.6304v3.0389h2.6304v7.3464c0.5355 0.0852 1.0767 0.1279 1.6188 0.1277 0.5507 0 1.0912-0.0437 1.6187-0.1277v-7.3464h2.4139z" fill="#534141"/>
<path d="m153.91 26.511 2.487-13.946c2.371 0 3.119 0.2591 3.227 1.3171 0 0 1.59-0.5912 2.393-1.792-3.131-1.446-6.276-1.5112-6.276-1.5112l-1.835 2.2285 4e-3 -3e-4 -1.835-2.2286s-3.145 0.0653-6.275 1.5114c0.801 1.2007 2.392 1.7919 2.392 1.7919 0.109-1.058 0.856-1.3172 3.211-1.3189l2.507 13.948z" fill="#534141"/>
<path d="m153.91 9.9369c2.53-0.01929 5.427 0.39028 8.392 1.6786 0.396-0.7111 0.498-1.0254 0.498-1.0254-3.241-1.2784-6.277-1.7158-8.89-1.7268-2.614 0.01098-5.649 0.44854-8.89 1.7268 0 0 0.145 0.3871 0.498 1.0254 2.965-1.2883 5.861-1.6979 8.392-1.6786" fill="#534141"/>
<path d="m62.731 10.448v11.506c0 0.8331 0.0434 1.3461 0.1288 1.5401 0.1568 0.467 0.6571 0.7018 1.5015 0.7018h0.563v0.7801h-6.6236v-0.7801h0.5639c0.6095 0 1.0329-0.1157 1.2717-0.3508 0.2386-0.2336 0.3583-0.8647 0.3583-1.8911v-11.506h-0.4925c-0.7738 0-1.4707 0.2147-2.0877 0.6425-0.9307 0.6507-1.4708 1.9551-1.6188 3.9127h-0.7039l0.1291-5.335h11.862l0.0941 5.335h-0.7165c-0.2983-2.2465-1.0027-3.6462-2.1149-4.2004-0.4786-0.236-1.0618-0.3545-1.7509-0.3545l-0.3637-3e-4z" fill="#534141"/>
</svg>
