<svg width="540" height="102" viewBox="0 0 540 102" fill="none" xmlns="http://www.w3.org/2000/svg">
<path d="M0 5.93866V101.995H540V1.42065C534.362 0.656654 528.676 0.222656 522.911 0.222656C506.032 0.222656 488.367 4.53568 470.391 8.92368C458.696 11.7787 446.871 14.6667 435.045 16.4187C417.722 19.1827 399.571 19.1237 381.622 19.0647C370.703 19.0297 359.859 18.9937 349.322 19.5947C321.628 20.7667 295.76 25.9977 268.347 31.5417C266.061 32.0037 263.765 32.4687 261.455 32.9327C233.595 38.6487 203.592 44.6827 173.589 47.8587C145.729 50.7167 115.726 50.7167 87.866 43.0947C61.585 36.6967 36.9481 24.4507 21.1575 16.6017C18.9212 15.4897 16.8625 14.4667 15.0015 13.5607L0 5.93866Z" fill="url(#paint0_linear_877:337)"/>
<defs>
<linearGradient id="paint0_linear_877:337" x1="435.224" y1="-98.7234" x2="300.566" y2="266.449" gradientUnits="userSpaceOnUse">
<stop stop-color="#FFBC0F"/>
<stop offset="1" stop-color="#FFE600" stop-opacity="0"/>
</linearGradient>
</defs>
</svg>
