<svg width="524" height="26" viewBox="0 0 524 26" fill="none" xmlns="http://www.w3.org/2000/svg">
<path d="M8.982 19H7.092V13.564C7.092 12.364 6.51 11.764 5.346 11.764C4.89 11.764 4.464 11.878 4.068 12.106C3.672 12.334 3.354 12.61 3.114 12.934V19H1.224V10.306H3.114V11.494C3.438 11.11 3.87 10.78 4.41 10.504C4.95 10.228 5.538 10.09 6.174 10.09C7.098 10.09 7.794 10.33 8.262 10.81C8.742 11.29 8.982 11.98 8.982 12.88V19ZM16.1169 19.216C14.9649 19.216 14.0349 18.742 13.3269 17.794V22.312H11.4369V10.306H13.3269V11.494C14.0229 10.558 14.9529 10.09 16.1169 10.09C17.2569 10.09 18.1809 10.498 18.8889 11.314C19.6089 12.13 19.9689 13.24 19.9689 14.644C19.9689 16.048 19.6089 17.164 18.8889 17.992C18.1809 18.808 17.2569 19.216 16.1169 19.216ZM15.5589 17.542C16.3029 17.542 16.8969 17.272 17.3409 16.732C17.7849 16.192 18.0069 15.496 18.0069 14.644C18.0069 13.792 17.7849 13.102 17.3409 12.574C16.8969 12.034 16.3029 11.764 15.5589 11.764C15.1269 11.764 14.7009 11.878 14.2809 12.106C13.8609 12.334 13.5429 12.61 13.3269 12.934V16.372C13.5429 16.696 13.8609 16.972 14.2809 17.2C14.7009 17.428 15.1269 17.542 15.5589 17.542ZM34.3891 19H32.4991V13.33C32.4991 12.286 32.0251 11.764 31.0771 11.764C30.6811 11.764 30.2971 11.878 29.9251 12.106C29.5531 12.334 29.2651 12.604 29.0611 12.916V19H27.1711V13.33C27.1711 12.286 26.6911 11.764 25.7311 11.764C25.3471 11.764 24.9691 11.878 24.5971 12.106C24.2371 12.334 23.9491 12.61 23.7331 12.934V19H21.8431V10.306H23.7331V11.494C23.9491 11.17 24.3211 10.858 24.8491 10.558C25.3891 10.246 25.9591 10.09 26.5591 10.09C27.8191 10.09 28.6111 10.624 28.9351 11.692C29.2111 11.26 29.6191 10.888 30.1591 10.576C30.6991 10.252 31.2751 10.09 31.8871 10.09C33.5551 10.09 34.3891 10.966 34.3891 12.718V19ZM42.3963 9.244C42.0843 9.244 41.8083 9.13 41.5683 8.902C41.3403 8.674 41.2263 8.398 41.2263 8.074C41.2263 7.75 41.3403 7.474 41.5683 7.246C41.8083 7.018 42.0843 6.904 42.3963 6.904C42.7203 6.904 42.9963 7.018 43.2243 7.246C43.4523 7.474 43.5663 7.75 43.5663 8.074C43.5663 8.398 43.4523 8.674 43.2243 8.902C42.9963 9.13 42.7203 9.244 42.3963 9.244ZM43.3503 19H41.4603V10.306H43.3503V19ZM53.5601 19H51.6701V13.564C51.6701 12.364 51.0881 11.764 49.9241 11.764C49.4681 11.764 49.0421 11.878 48.6461 12.106C48.2501 12.334 47.9321 12.61 47.6921 12.934V19H45.8021V10.306H47.6921V11.494C48.0161 11.11 48.4481 10.78 48.9881 10.504C49.5281 10.228 50.1161 10.09 50.7521 10.09C51.6761 10.09 52.3721 10.33 52.8401 10.81C53.3201 11.29 53.5601 11.98 53.5601 12.88V19ZM58.985 19.216C57.425 19.216 56.183 18.766 55.259 17.866L56.123 16.498C56.447 16.834 56.885 17.122 57.437 17.362C57.989 17.602 58.535 17.722 59.075 17.722C59.627 17.722 60.047 17.614 60.335 17.398C60.635 17.182 60.785 16.9 60.785 16.552C60.785 16.24 60.605 16 60.245 15.832C59.885 15.652 59.447 15.514 58.931 15.418C58.415 15.31 57.899 15.184 57.383 15.04C56.867 14.884 56.429 14.614 56.069 14.23C55.709 13.846 55.529 13.348 55.529 12.736C55.529 11.992 55.835 11.368 56.447 10.864C57.059 10.348 57.893 10.09 58.949 10.09C60.281 10.09 61.409 10.498 62.333 11.314L61.541 12.646C61.265 12.334 60.899 12.082 60.443 11.89C59.987 11.698 59.495 11.602 58.967 11.602C58.475 11.602 58.079 11.704 57.779 11.908C57.491 12.1 57.347 12.352 57.347 12.664C57.347 12.904 57.473 13.102 57.725 13.258C57.989 13.402 58.313 13.51 58.697 13.582C59.093 13.654 59.519 13.756 59.975 13.888C60.431 14.008 60.851 14.152 61.235 14.32C61.631 14.488 61.955 14.764 62.207 15.148C62.471 15.52 62.603 15.976 62.603 16.516C62.603 17.308 62.285 17.956 61.649 18.46C61.013 18.964 60.125 19.216 58.985 19.216ZM67.1153 19.216C66.3833 19.216 65.8253 19.024 65.4413 18.64C65.0693 18.256 64.8833 17.704 64.8833 16.984V11.962H63.4433V10.306H64.8833V7.93H66.7733V10.306H68.5373V11.962H66.7733V16.516C66.7733 16.828 66.8453 17.08 66.9893 17.272C67.1333 17.452 67.3373 17.542 67.6013 17.542C67.9853 17.542 68.2673 17.44 68.4473 17.236L68.8973 18.658C68.5013 19.03 67.9073 19.216 67.1153 19.216ZM77.4533 19H75.5633V18.064C74.8913 18.832 73.9553 19.216 72.7553 19.216C71.9633 19.216 71.2613 18.964 70.6493 18.46C70.0373 17.944 69.7313 17.236 69.7313 16.336C69.7313 15.412 70.0313 14.71 70.6313 14.23C71.2433 13.75 71.9513 13.51 72.7553 13.51C73.9913 13.51 74.9273 13.882 75.5633 14.626V13.33C75.5633 12.826 75.3773 12.43 75.0053 12.142C74.6333 11.854 74.1413 11.71 73.5293 11.71C72.5573 11.71 71.6993 12.076 70.9553 12.808L70.1813 11.494C71.1653 10.558 72.3833 10.09 73.8353 10.09C74.9033 10.09 75.7733 10.342 76.4453 10.846C77.1173 11.35 77.4533 12.148 77.4533 13.24V19ZM73.4933 17.92C74.4413 17.92 75.1313 17.62 75.5633 17.02V15.706C75.1313 15.106 74.4413 14.806 73.4933 14.806C72.9533 14.806 72.5093 14.95 72.1613 15.238C71.8133 15.526 71.6393 15.904 71.6393 16.372C71.6393 16.84 71.8133 17.218 72.1613 17.506C72.5093 17.782 72.9533 17.92 73.4933 17.92ZM81.7937 19H79.9037V6.994H81.7937V19ZM86.1355 19H84.2455V6.994H86.1355V19ZM106.973 19.216C105.413 19.216 104.171 18.766 103.247 17.866L104.111 16.498C104.435 16.834 104.873 17.122 105.425 17.362C105.977 17.602 106.523 17.722 107.063 17.722C107.615 17.722 108.035 17.614 108.323 17.398C108.623 17.182 108.773 16.9 108.773 16.552C108.773 16.24 108.593 16 108.233 15.832C107.873 15.652 107.435 15.514 106.919 15.418C106.403 15.31 105.887 15.184 105.371 15.04C104.855 14.884 104.417 14.614 104.057 14.23C103.697 13.846 103.517 13.348 103.517 12.736C103.517 11.992 103.823 11.368 104.435 10.864C105.047 10.348 105.881 10.09 106.937 10.09C108.269 10.09 109.397 10.498 110.321 11.314L109.529 12.646C109.253 12.334 108.887 12.082 108.431 11.89C107.975 11.698 107.483 11.602 106.955 11.602C106.463 11.602 106.067 11.704 105.767 11.908C105.479 12.1 105.335 12.352 105.335 12.664C105.335 12.904 105.461 13.102 105.713 13.258C105.977 13.402 106.301 13.51 106.685 13.582C107.081 13.654 107.507 13.756 107.963 13.888C108.419 14.008 108.839 14.152 109.223 14.32C109.619 14.488 109.943 14.764 110.195 15.148C110.459 15.52 110.591 15.976 110.591 16.516C110.591 17.308 110.273 17.956 109.637 18.46C109.001 18.964 108.113 19.216 106.973 19.216ZM119.694 19H117.804V18.064C117.132 18.832 116.196 19.216 114.996 19.216C114.204 19.216 113.502 18.964 112.89 18.46C112.278 17.944 111.972 17.236 111.972 16.336C111.972 15.412 112.272 14.71 112.872 14.23C113.484 13.75 114.192 13.51 114.996 13.51C116.232 13.51 117.168 13.882 117.804 14.626V13.33C117.804 12.826 117.618 12.43 117.246 12.142C116.874 11.854 116.382 11.71 115.77 11.71C114.798 11.71 113.94 12.076 113.196 12.808L112.422 11.494C113.406 10.558 114.624 10.09 116.076 10.09C117.144 10.09 118.014 10.342 118.686 10.846C119.358 11.35 119.694 12.148 119.694 13.24V19ZM115.734 17.92C116.682 17.92 117.372 17.62 117.804 17.02V15.706C117.372 15.106 116.682 14.806 115.734 14.806C115.194 14.806 114.75 14.95 114.402 15.238C114.054 15.526 113.88 15.904 113.88 16.372C113.88 16.84 114.054 17.218 114.402 17.506C114.75 17.782 115.194 17.92 115.734 17.92ZM126.464 19H124.43L120.884 10.306H122.9L125.438 16.822L127.976 10.306H130.01L126.464 19ZM135.211 19.216C133.891 19.216 132.799 18.796 131.935 17.956C131.083 17.104 130.657 16 130.657 14.644C130.657 13.372 131.071 12.298 131.899 11.422C132.739 10.534 133.795 10.09 135.067 10.09C136.351 10.09 137.383 10.534 138.163 11.422C138.955 12.31 139.351 13.444 139.351 14.824V15.274H132.637C132.709 15.958 132.991 16.528 133.483 16.984C133.975 17.44 134.617 17.668 135.409 17.668C135.853 17.668 136.297 17.584 136.741 17.416C137.197 17.248 137.575 17.014 137.875 16.714L138.739 17.956C137.863 18.796 136.687 19.216 135.211 19.216ZM137.515 13.942C137.491 13.342 137.269 12.808 136.849 12.34C136.441 11.872 135.847 11.638 135.067 11.638C134.323 11.638 133.741 11.872 133.321 12.34C132.901 12.796 132.667 13.33 132.619 13.942H137.515ZM147.729 19H145.839V10.306H147.729V11.584C148.065 11.152 148.485 10.798 148.989 10.522C149.493 10.246 150.015 10.108 150.555 10.108V11.98C150.387 11.944 150.189 11.926 149.961 11.926C149.565 11.926 149.139 12.046 148.683 12.286C148.239 12.514 147.921 12.778 147.729 13.078V19ZM156.093 19.216C154.773 19.216 153.681 18.796 152.817 17.956C151.965 17.104 151.539 16 151.539 14.644C151.539 13.372 151.953 12.298 152.781 11.422C153.621 10.534 154.677 10.09 155.949 10.09C157.233 10.09 158.265 10.534 159.045 11.422C159.837 12.31 160.233 13.444 160.233 14.824V15.274H153.519C153.591 15.958 153.873 16.528 154.365 16.984C154.857 17.44 155.499 17.668 156.291 17.668C156.735 17.668 157.179 17.584 157.623 17.416C158.079 17.248 158.457 17.014 158.757 16.714L159.621 17.956C158.745 18.796 157.569 19.216 156.093 19.216ZM158.397 13.942C158.373 13.342 158.151 12.808 157.731 12.34C157.323 11.872 156.729 11.638 155.949 11.638C155.205 11.638 154.623 11.872 154.203 12.34C153.783 12.796 153.549 13.33 153.501 13.942H158.397ZM169.299 19H167.409V18.064C166.737 18.832 165.801 19.216 164.601 19.216C163.809 19.216 163.107 18.964 162.495 18.46C161.883 17.944 161.577 17.236 161.577 16.336C161.577 15.412 161.877 14.71 162.477 14.23C163.089 13.75 163.797 13.51 164.601 13.51C165.837 13.51 166.773 13.882 167.409 14.626V13.33C167.409 12.826 167.223 12.43 166.851 12.142C166.479 11.854 165.987 11.71 165.375 11.71C164.403 11.71 163.545 12.076 162.801 12.808L162.027 11.494C163.011 10.558 164.229 10.09 165.681 10.09C166.749 10.09 167.619 10.342 168.291 10.846C168.963 11.35 169.299 12.148 169.299 13.24V19ZM165.339 17.92C166.287 17.92 166.977 17.62 167.409 17.02V15.706C166.977 15.106 166.287 14.806 165.339 14.806C164.799 14.806 164.355 14.95 164.007 15.238C163.659 15.526 163.485 15.904 163.485 16.372C163.485 16.84 163.659 17.218 164.007 17.506C164.355 17.782 164.799 17.92 165.339 17.92ZM175.709 19.216C174.389 19.216 173.309 18.79 172.469 17.938C171.629 17.074 171.209 15.976 171.209 14.644C171.209 13.324 171.629 12.238 172.469 11.386C173.309 10.522 174.389 10.09 175.709 10.09C177.161 10.09 178.271 10.606 179.039 11.638L177.797 12.79C177.317 12.106 176.651 11.764 175.799 11.764C175.007 11.764 174.371 12.034 173.891 12.574C173.411 13.102 173.171 13.792 173.171 14.644C173.171 15.496 173.411 16.192 173.891 16.732C174.371 17.272 175.007 17.542 175.799 17.542C176.627 17.542 177.293 17.2 177.797 16.516L179.039 17.668C178.271 18.7 177.161 19.216 175.709 19.216ZM183.307 19.216C182.575 19.216 182.017 19.024 181.633 18.64C181.261 18.256 181.075 17.704 181.075 16.984V11.962H179.635V10.306H181.075V7.93H182.965V10.306H184.729V11.962H182.965V16.516C182.965 16.828 183.037 17.08 183.181 17.272C183.325 17.452 183.529 17.542 183.793 17.542C184.177 17.542 184.459 17.44 184.639 17.236L185.089 18.658C184.693 19.03 184.099 19.216 183.307 19.216ZM199.617 19H197.727V13.528C197.727 12.892 197.571 12.442 197.259 12.178C196.959 11.902 196.527 11.764 195.963 11.764C195.519 11.764 195.099 11.878 194.703 12.106C194.307 12.334 193.983 12.61 193.731 12.934V19H191.841V6.994H193.731V11.494C194.055 11.11 194.487 10.78 195.027 10.504C195.579 10.228 196.173 10.09 196.809 10.09C198.681 10.09 199.617 11.008 199.617 12.844V19ZM206.086 19.216C204.766 19.216 203.674 18.796 202.81 17.956C201.958 17.104 201.532 16 201.532 14.644C201.532 13.372 201.946 12.298 202.774 11.422C203.614 10.534 204.67 10.09 205.942 10.09C207.226 10.09 208.258 10.534 209.038 11.422C209.83 12.31 210.226 13.444 210.226 14.824V15.274H203.512C203.584 15.958 203.866 16.528 204.358 16.984C204.85 17.44 205.492 17.668 206.284 17.668C206.728 17.668 207.172 17.584 207.616 17.416C208.072 17.248 208.45 17.014 208.75 16.714L209.614 17.956C208.738 18.796 207.562 19.216 206.086 19.216ZM208.39 13.942C208.366 13.342 208.144 12.808 207.724 12.34C207.316 11.872 206.722 11.638 205.942 11.638C205.198 11.638 204.616 11.872 204.196 12.34C203.776 12.796 203.542 13.33 203.494 13.942H208.39ZM213.981 19H212.091V6.994H213.981V19ZM228.979 19H227.089V13.33C227.089 12.286 226.615 11.764 225.667 11.764C225.271 11.764 224.887 11.878 224.515 12.106C224.143 12.334 223.855 12.604 223.651 12.916V19H221.761V13.33C221.761 12.286 221.281 11.764 220.321 11.764C219.937 11.764 219.559 11.878 219.187 12.106C218.827 12.334 218.539 12.61 218.323 12.934V19H216.433V10.306H218.323V11.494C218.539 11.17 218.911 10.858 219.439 10.558C219.979 10.246 220.549 10.09 221.149 10.09C222.409 10.09 223.201 10.624 223.525 11.692C223.801 11.26 224.209 10.888 224.749 10.576C225.289 10.252 225.865 10.09 226.477 10.09C228.145 10.09 228.979 10.966 228.979 12.718V19ZM235.441 19.216C234.121 19.216 233.029 18.796 232.165 17.956C231.313 17.104 230.887 16 230.887 14.644C230.887 13.372 231.301 12.298 232.129 11.422C232.969 10.534 234.025 10.09 235.297 10.09C236.581 10.09 237.613 10.534 238.393 11.422C239.185 12.31 239.581 13.444 239.581 14.824V15.274H232.867C232.939 15.958 233.221 16.528 233.713 16.984C234.205 17.44 234.847 17.668 235.639 17.668C236.083 17.668 236.527 17.584 236.971 17.416C237.427 17.248 237.805 17.014 238.105 16.714L238.969 17.956C238.093 18.796 236.917 19.216 235.441 19.216ZM237.745 13.942C237.721 13.342 237.499 12.808 237.079 12.34C236.671 11.872 236.077 11.638 235.297 11.638C234.553 11.638 233.971 11.872 233.551 12.34C233.131 12.796 232.897 13.33 232.849 13.942H237.745ZM244.057 19.216C243.325 19.216 242.767 19.024 242.383 18.64C242.011 18.256 241.825 17.704 241.825 16.984V11.962H240.385V10.306H241.825V7.93H243.715V10.306H245.479V11.962H243.715V16.516C243.715 16.828 243.787 17.08 243.931 17.272C244.075 17.452 244.279 17.542 244.543 17.542C244.927 17.542 245.209 17.44 245.389 17.236L245.839 18.658C245.443 19.03 244.849 19.216 244.057 19.216Z" fill="#008A3A"/>
<path d="M96.8463 15.454H92.5263V13.834H96.8463V15.454ZM102.243 15.454H97.9228V13.834H102.243V15.454ZM190.081 15.454H185.761V13.834H190.081V15.454Z" fill="#D34F7F"/>
</svg>
