<svg width="552" height="286" viewBox="0 0 552 286" fill="none" xmlns="http://www.w3.org/2000/svg">
<path d="M2.16 9.244C1.848 9.244 1.572 9.13 1.332 8.902C1.104 8.674 0.99 8.398 0.99 8.074C0.99 7.75 1.104 7.474 1.332 7.246C1.572 7.018 1.848 6.904 2.16 6.904C2.484 6.904 2.76 7.018 2.988 7.246C3.216 7.474 3.33 7.75 3.33 8.074C3.33 8.398 3.216 8.674 2.988 8.902C2.76 9.13 2.484 9.244 2.16 9.244ZM3.114 19H1.224V10.306H3.114V19ZM18.1118 19H16.2218V13.33C16.2218 12.286 15.7478 11.764 14.7998 11.764C14.4038 11.764 14.0198 11.878 13.6478 12.106C13.2758 12.334 12.9878 12.604 12.7838 12.916V19H10.8938V13.33C10.8938 12.286 10.4138 11.764 9.4538 11.764C9.0698 11.764 8.6918 11.878 8.3198 12.106C7.9598 12.334 7.6718 12.61 7.4558 12.934V19H5.5658V10.306H7.4558V11.494C7.6718 11.17 8.0438 10.858 8.5718 10.558C9.1118 10.246 9.6818 10.09 10.2818 10.09C11.5418 10.09 12.3338 10.624 12.6578 11.692C12.9338 11.26 13.3418 10.888 13.8818 10.576C14.4218 10.252 14.9978 10.09 15.6098 10.09C17.2778 10.09 18.1118 10.966 18.1118 12.718V19ZM25.2399 19.216C24.0879 19.216 23.1579 18.742 22.4499 17.794V22.312H20.5599V10.306H22.4499V11.494C23.1459 10.558 24.0759 10.09 25.2399 10.09C26.3799 10.09 27.3039 10.498 28.0119 11.314C28.7319 12.13 29.0919 13.24 29.0919 14.644C29.0919 16.048 28.7319 17.164 28.0119 17.992C27.3039 18.808 26.3799 19.216 25.2399 19.216ZM24.6819 17.542C25.4259 17.542 26.0199 17.272 26.4639 16.732C26.9079 16.192 27.1299 15.496 27.1299 14.644C27.1299 13.792 26.9079 13.102 26.4639 12.574C26.0199 12.034 25.4259 11.764 24.6819 11.764C24.2499 11.764 23.8239 11.878 23.4039 12.106C22.9839 12.334 22.6659 12.61 22.4499 12.934V16.372C22.6659 16.696 22.9839 16.972 23.4039 17.2C23.8239 17.428 24.2499 17.542 24.6819 17.542ZM34.8902 19.216C33.5462 19.216 32.4662 18.778 31.6502 17.902C30.8342 17.014 30.4262 15.928 30.4262 14.644C30.4262 13.36 30.8342 12.28 31.6502 11.404C32.4662 10.528 33.5462 10.09 34.8902 10.09C36.2462 10.09 37.3322 10.528 38.1482 11.404C38.9642 12.28 39.3722 13.36 39.3722 14.644C39.3722 15.94 38.9642 17.026 38.1482 17.902C37.3322 18.778 36.2462 19.216 34.8902 19.216ZM34.8902 17.542C35.6702 17.542 36.2822 17.266 36.7262 16.714C37.1822 16.15 37.4102 15.46 37.4102 14.644C37.4102 13.84 37.1822 13.162 36.7262 12.61C36.2822 12.046 35.6702 11.764 34.8902 11.764C34.1222 11.764 33.5102 12.046 33.0542 12.61C32.6102 13.162 32.3882 13.84 32.3882 14.644C32.3882 15.46 32.6102 16.15 33.0542 16.714C33.5102 17.266 34.1222 17.542 34.8902 17.542ZM43.1745 19H41.2845V10.306H43.1745V11.584C43.5105 11.152 43.9305 10.798 44.4345 10.522C44.9385 10.246 45.4605 10.108 46.0005 10.108V11.98C45.8325 11.944 45.6345 11.926 45.4065 11.926C45.0105 11.926 44.5845 12.046 44.1285 12.286C43.6845 12.514 43.3665 12.778 43.1745 13.078V19ZM50.1348 19.216C49.4028 19.216 48.8448 19.024 48.4608 18.64C48.0888 18.256 47.9028 17.704 47.9028 16.984V11.962H46.4628V10.306H47.9028V7.93H49.7928V10.306H51.5568V11.962H49.7928V16.516C49.7928 16.828 49.8648 17.08 50.0088 17.272C50.1528 17.452 50.3568 17.542 50.6208 17.542C51.0048 17.542 51.2868 17.44 51.4668 17.236L51.9168 18.658C51.5208 19.03 50.9268 19.216 50.1348 19.216ZM142.185 19H140.295V11.962H138.855V10.306H140.295V9.82C140.295 8.884 140.541 8.152 141.033 7.624C141.537 7.084 142.209 6.814 143.049 6.814C143.949 6.814 144.645 7.066 145.137 7.57L144.399 8.74C144.123 8.488 143.787 8.362 143.391 8.362C143.019 8.362 142.725 8.488 142.509 8.74C142.293 8.98 142.185 9.34 142.185 9.82V10.306H143.949V11.962H142.185V19ZM147.272 19H145.382V10.306H147.272V11.584C147.608 11.152 148.028 10.798 148.532 10.522C149.036 10.246 149.558 10.108 150.098 10.108V11.98C149.93 11.944 149.732 11.926 149.504 11.926C149.108 11.926 148.682 12.046 148.226 12.286C147.782 12.514 147.464 12.778 147.272 13.078V19ZM155.546 19.216C154.202 19.216 153.122 18.778 152.306 17.902C151.49 17.014 151.082 15.928 151.082 14.644C151.082 13.36 151.49 12.28 152.306 11.404C153.122 10.528 154.202 10.09 155.546 10.09C156.902 10.09 157.988 10.528 158.804 11.404C159.62 12.28 160.028 13.36 160.028 14.644C160.028 15.94 159.62 17.026 158.804 17.902C157.988 18.778 156.902 19.216 155.546 19.216ZM155.546 17.542C156.326 17.542 156.938 17.266 157.382 16.714C157.838 16.15 158.066 15.46 158.066 14.644C158.066 13.84 157.838 13.162 157.382 12.61C156.938 12.046 156.326 11.764 155.546 11.764C154.778 11.764 154.166 12.046 153.71 12.61C153.266 13.162 153.044 13.84 153.044 14.644C153.044 15.46 153.266 16.15 153.71 16.714C154.166 17.266 154.778 17.542 155.546 17.542ZM174.487 19H172.597V13.33C172.597 12.286 172.123 11.764 171.175 11.764C170.779 11.764 170.395 11.878 170.023 12.106C169.651 12.334 169.363 12.604 169.159 12.916V19H167.269V13.33C167.269 12.286 166.789 11.764 165.829 11.764C165.445 11.764 165.067 11.878 164.695 12.106C164.335 12.334 164.047 12.61 163.831 12.934V19H161.941V10.306H163.831V11.494C164.047 11.17 164.419 10.858 164.947 10.558C165.487 10.246 166.057 10.09 166.657 10.09C167.917 10.09 168.709 10.624 169.033 11.692C169.309 11.26 169.717 10.888 170.257 10.576C170.797 10.252 171.373 10.09 171.985 10.09C173.653 10.09 174.487 10.966 174.487 12.718V19ZM5.238 45.216C3.918 45.216 2.826 44.796 1.962 43.956C1.11 43.104 0.684 42 0.684 40.644C0.684 39.372 1.098 38.298 1.926 37.422C2.766 36.534 3.822 36.09 5.094 36.09C6.378 36.09 7.41 36.534 8.19 37.422C8.982 38.31 9.378 39.444 9.378 40.824V41.274H2.664C2.736 41.958 3.018 42.528 3.51 42.984C4.002 43.44 4.644 43.668 5.436 43.668C5.88 43.668 6.324 43.584 6.768 43.416C7.224 43.248 7.602 43.014 7.902 42.714L8.766 43.956C7.89 44.796 6.714 45.216 5.238 45.216ZM7.542 39.942C7.518 39.342 7.296 38.808 6.876 38.34C6.468 37.872 5.874 37.638 5.094 37.638C4.35 37.638 3.768 37.872 3.348 38.34C2.928 38.796 2.694 39.33 2.646 39.942H7.542ZM18.8575 45H16.7335L14.4835 41.796L12.2155 45H10.1095L13.2955 40.536L10.2895 36.306H12.4135L14.4835 39.258L16.5355 36.306H18.6595L15.6535 40.536L18.8575 45ZM24.8532 45.216C23.7012 45.216 22.7712 44.742 22.0632 43.794V48.312H20.1732V36.306H22.0632V37.494C22.7592 36.558 23.6892 36.09 24.8532 36.09C25.9932 36.09 26.9172 36.498 27.6252 37.314C28.3452 38.13 28.7052 39.24 28.7052 40.644C28.7052 42.048 28.3452 43.164 27.6252 43.992C26.9172 44.808 25.9932 45.216 24.8532 45.216ZM24.2952 43.542C25.0392 43.542 25.6332 43.272 26.0772 42.732C26.5212 42.192 26.7432 41.496 26.7432 40.644C26.7432 39.792 26.5212 39.102 26.0772 38.574C25.6332 38.034 25.0392 37.764 24.2952 37.764C23.8632 37.764 23.4372 37.878 23.0172 38.106C22.5972 38.334 22.2792 38.61 22.0632 38.934V42.372C22.2792 42.696 22.5972 42.972 23.0172 43.2C23.4372 43.428 23.8632 43.542 24.2952 43.542ZM34.5035 45.216C33.1595 45.216 32.0795 44.778 31.2635 43.902C30.4475 43.014 30.0395 41.928 30.0395 40.644C30.0395 39.36 30.4475 38.28 31.2635 37.404C32.0795 36.528 33.1595 36.09 34.5035 36.09C35.8595 36.09 36.9455 36.528 37.7615 37.404C38.5775 38.28 38.9855 39.36 38.9855 40.644C38.9855 41.94 38.5775 43.026 37.7615 43.902C36.9455 44.778 35.8595 45.216 34.5035 45.216ZM34.5035 43.542C35.2835 43.542 35.8955 43.266 36.3395 42.714C36.7955 42.15 37.0235 41.46 37.0235 40.644C37.0235 39.84 36.7955 39.162 36.3395 38.61C35.8955 38.046 35.2835 37.764 34.5035 37.764C33.7355 37.764 33.1235 38.046 32.6675 38.61C32.2235 39.162 32.0015 39.84 32.0015 40.644C32.0015 41.46 32.2235 42.15 32.6675 42.714C33.1235 43.266 33.7355 43.542 34.5035 43.542ZM42.7878 45H40.8978V36.306H42.7878V37.584C43.1238 37.152 43.5438 36.798 44.0478 36.522C44.5518 36.246 45.0738 36.108 45.6138 36.108V37.98C45.4458 37.944 45.2478 37.926 45.0198 37.926C44.6238 37.926 44.1978 38.046 43.7418 38.286C43.2978 38.514 42.9798 38.778 42.7878 39.078V45ZM49.7481 45.216C49.0161 45.216 48.4581 45.024 48.0741 44.64C47.7021 44.256 47.5161 43.704 47.5161 42.984V37.962H46.0761V36.306H47.5161V33.93H49.4061V36.306H51.1701V37.962H49.4061V42.516C49.4061 42.828 49.4781 43.08 49.6221 43.272C49.7661 43.452 49.9701 43.542 50.2341 43.542C50.6181 43.542 50.9001 43.44 51.0801 43.236L51.5301 44.658C51.1341 45.03 50.5401 45.216 49.7481 45.216ZM65.5192 45H63.6292V43.812C62.9092 44.748 61.9792 45.216 60.8392 45.216C59.6992 45.216 58.7692 44.808 58.0492 43.992C57.3292 43.176 56.9692 42.066 56.9692 40.662C56.9692 39.27 57.3292 38.16 58.0492 37.332C58.7692 36.504 59.6992 36.09 60.8392 36.09C61.9792 36.09 62.9092 36.564 63.6292 37.512V32.994H65.5192V45ZM61.3792 43.542C61.8232 43.542 62.2552 43.434 62.6752 43.218C63.0952 43.002 63.4132 42.726 63.6292 42.39V38.934C63.4132 38.598 63.0952 38.322 62.6752 38.106C62.2552 37.878 61.8232 37.764 61.3792 37.764C60.6352 37.764 60.0412 38.034 59.5972 38.574C59.1532 39.114 58.9312 39.81 58.9312 40.662C58.9312 41.514 59.1532 42.21 59.5972 42.75C60.0412 43.278 60.6352 43.542 61.3792 43.542ZM71.9821 45.216C70.6621 45.216 69.5701 44.796 68.7061 43.956C67.8541 43.104 67.4281 42 67.4281 40.644C67.4281 39.372 67.8421 38.298 68.6701 37.422C69.5101 36.534 70.5661 36.09 71.8381 36.09C73.1221 36.09 74.1541 36.534 74.9341 37.422C75.7261 38.31 76.1221 39.444 76.1221 40.824V41.274H69.4081C69.4801 41.958 69.7621 42.528 70.2541 42.984C70.7461 43.44 71.3881 43.668 72.1801 43.668C72.6241 43.668 73.0681 43.584 73.5121 43.416C73.9681 43.248 74.3461 43.014 74.6461 42.714L75.5101 43.956C74.6341 44.796 73.4581 45.216 71.9821 45.216ZM74.2861 39.942C74.2621 39.342 74.0401 38.808 73.6201 38.34C73.2121 37.872 72.6181 37.638 71.8381 37.638C71.0941 37.638 70.5121 37.872 70.0921 38.34C69.6721 38.796 69.4381 39.33 69.3901 39.942H74.2861ZM80.3277 45H78.4377V37.962H76.9977V36.306H78.4377V35.82C78.4377 34.884 78.6837 34.152 79.1757 33.624C79.6797 33.084 80.3517 32.814 81.1917 32.814C82.0917 32.814 82.7877 33.066 83.2797 33.57L82.5417 34.74C82.2657 34.488 81.9297 34.362 81.5337 34.362C81.1617 34.362 80.8677 34.488 80.6517 34.74C80.4357 34.98 80.3277 35.34 80.3277 35.82V36.306H82.0917V37.962H80.3277V45ZM90.7248 45H88.8348V44.064C88.1628 44.832 87.2268 45.216 86.0268 45.216C85.2348 45.216 84.5328 44.964 83.9208 44.46C83.3088 43.944 83.0028 43.236 83.0028 42.336C83.0028 41.412 83.3028 40.71 83.9028 40.23C84.5148 39.75 85.2228 39.51 86.0268 39.51C87.2628 39.51 88.1988 39.882 88.8348 40.626V39.33C88.8348 38.826 88.6488 38.43 88.2768 38.142C87.9048 37.854 87.4128 37.71 86.8008 37.71C85.8288 37.71 84.9708 38.076 84.2268 38.808L83.4528 37.494C84.4368 36.558 85.6548 36.09 87.1068 36.09C88.1748 36.09 89.0448 36.342 89.7168 36.846C90.3888 37.35 90.7248 38.148 90.7248 39.24V45ZM86.7648 43.92C87.7128 43.92 88.4028 43.62 88.8348 43.02V41.706C88.4028 41.106 87.7128 40.806 86.7648 40.806C86.2248 40.806 85.7808 40.95 85.4328 41.238C85.0848 41.526 84.9108 41.904 84.9108 42.372C84.9108 42.84 85.0848 43.218 85.4328 43.506C85.7808 43.782 86.2248 43.92 86.7648 43.92ZM100.933 45H99.0432V43.848C98.2272 44.76 97.2012 45.216 95.9652 45.216C94.1052 45.216 93.1752 44.298 93.1752 42.462V36.306H95.0652V41.778C95.0652 42.414 95.2152 42.87 95.5152 43.146C95.8152 43.41 96.2472 43.542 96.8112 43.542C97.2672 43.542 97.6932 43.434 98.0892 43.218C98.4852 43.002 98.8032 42.732 99.0432 42.408V36.306H100.933V45ZM105.278 45H103.388V32.994H105.278V45ZM110.34 45.216C109.608 45.216 109.05 45.024 108.666 44.64C108.294 44.256 108.108 43.704 108.108 42.984V37.962H106.668V36.306H108.108V33.93H109.998V36.306H111.762V37.962H109.998V42.516C109.998 42.828 110.07 43.08 110.214 43.272C110.358 43.452 110.562 43.542 110.826 43.542C111.21 43.542 111.492 43.44 111.672 43.236L112.122 44.658C111.726 45.03 111.132 45.216 110.34 45.216ZM120.441 45H118.551V37.962H117.111V36.306H118.551V35.82C118.551 34.884 118.797 34.152 119.289 33.624C119.793 33.084 120.465 32.814 121.305 32.814C122.205 32.814 122.901 33.066 123.393 33.57L122.655 34.74C122.379 34.488 122.043 34.362 121.647 34.362C121.275 34.362 120.981 34.488 120.765 34.74C120.549 34.98 120.441 35.34 120.441 35.82V36.306H122.205V37.962H120.441V45ZM131.396 45H129.506V43.848C128.69 44.76 127.664 45.216 126.428 45.216C124.568 45.216 123.638 44.298 123.638 42.462V36.306H125.528V41.778C125.528 42.414 125.678 42.87 125.978 43.146C126.278 43.41 126.71 43.542 127.274 43.542C127.73 43.542 128.156 43.434 128.552 43.218C128.948 43.002 129.266 42.732 129.506 42.408V36.306H131.396V45ZM141.609 45H139.719V39.564C139.719 38.364 139.137 37.764 137.973 37.764C137.517 37.764 137.091 37.878 136.695 38.106C136.299 38.334 135.981 38.61 135.741 38.934V45H133.851V36.306H135.741V37.494C136.065 37.11 136.497 36.78 137.037 36.504C137.577 36.228 138.165 36.09 138.801 36.09C139.725 36.09 140.421 36.33 140.889 36.81C141.369 37.29 141.609 37.98 141.609 38.88V45ZM148.024 45.216C146.704 45.216 145.624 44.79 144.784 43.938C143.944 43.074 143.524 41.976 143.524 40.644C143.524 39.324 143.944 38.238 144.784 37.386C145.624 36.522 146.704 36.09 148.024 36.09C149.476 36.09 150.586 36.606 151.354 37.638L150.112 38.79C149.632 38.106 148.966 37.764 148.114 37.764C147.322 37.764 146.686 38.034 146.206 38.574C145.726 39.102 145.486 39.792 145.486 40.644C145.486 41.496 145.726 42.192 146.206 42.732C146.686 43.272 147.322 43.542 148.114 43.542C148.942 43.542 149.608 43.2 150.112 42.516L151.354 43.668C150.586 44.7 149.476 45.216 148.024 45.216ZM155.621 45.216C154.889 45.216 154.331 45.024 153.947 44.64C153.575 44.256 153.389 43.704 153.389 42.984V37.962H151.949V36.306H153.389V33.93H155.279V36.306H157.043V37.962H155.279V42.516C155.279 42.828 155.351 43.08 155.495 43.272C155.639 43.452 155.843 43.542 156.107 43.542C156.491 43.542 156.773 43.44 156.953 43.236L157.403 44.658C157.007 45.03 156.413 45.216 155.621 45.216ZM159.695 35.244C159.383 35.244 159.107 35.13 158.867 34.902C158.639 34.674 158.525 34.398 158.525 34.074C158.525 33.75 158.639 33.474 158.867 33.246C159.107 33.018 159.383 32.904 159.695 32.904C160.019 32.904 160.295 33.018 160.523 33.246C160.751 33.474 160.865 33.75 160.865 34.074C160.865 34.398 160.751 34.674 160.523 34.902C160.295 35.13 160.019 35.244 159.695 35.244ZM160.649 45H158.759V36.306H160.649V45ZM167.025 45.216C165.681 45.216 164.601 44.778 163.785 43.902C162.969 43.014 162.561 41.928 162.561 40.644C162.561 39.36 162.969 38.28 163.785 37.404C164.601 36.528 165.681 36.09 167.025 36.09C168.381 36.09 169.467 36.528 170.283 37.404C171.099 38.28 171.507 39.36 171.507 40.644C171.507 41.94 171.099 43.026 170.283 43.902C169.467 44.778 168.381 45.216 167.025 45.216ZM167.025 43.542C167.805 43.542 168.417 43.266 168.861 42.714C169.317 42.15 169.545 41.46 169.545 40.644C169.545 39.84 169.317 39.162 168.861 38.61C168.417 38.046 167.805 37.764 167.025 37.764C166.257 37.764 165.645 38.046 165.189 38.61C164.745 39.162 164.523 39.84 164.523 40.644C164.523 41.46 164.745 42.15 165.189 42.714C165.645 43.266 166.257 43.542 167.025 43.542ZM181.177 45H179.287V39.564C179.287 38.364 178.705 37.764 177.541 37.764C177.085 37.764 176.659 37.878 176.263 38.106C175.867 38.334 175.549 38.61 175.309 38.934V45H173.419V36.306H175.309V37.494C175.633 37.11 176.065 36.78 176.605 36.504C177.145 36.228 177.733 36.09 178.369 36.09C179.293 36.09 179.989 36.33 180.457 36.81C180.937 37.29 181.177 37.98 181.177 38.88V45ZM27.0062 95.38L19.0142 91.654V90.304L27.0062 86.56V88.018L20.4362 90.988L27.0062 93.94V95.38ZM36.7613 97H34.8713V95.812C34.1513 96.748 33.2213 97.216 32.0813 97.216C30.9413 97.216 30.0113 96.808 29.2913 95.992C28.5713 95.176 28.2113 94.066 28.2113 92.662C28.2113 91.27 28.5713 90.16 29.2913 89.332C30.0113 88.504 30.9413 88.09 32.0813 88.09C33.2213 88.09 34.1513 88.564 34.8713 89.512V84.994H36.7613V97ZM32.6213 95.542C33.0653 95.542 33.4973 95.434 33.9173 95.218C34.3373 95.002 34.6553 94.726 34.8713 94.39V90.934C34.6553 90.598 34.3373 90.322 33.9173 90.106C33.4973 89.878 33.0653 89.764 32.6213 89.764C31.8773 89.764 31.2833 90.034 30.8393 90.574C30.3953 91.114 30.1733 91.81 30.1733 92.662C30.1733 93.514 30.3953 94.21 30.8393 94.75C31.2833 95.278 31.8773 95.542 32.6213 95.542ZM40.1463 87.244C39.8343 87.244 39.5583 87.13 39.3183 86.902C39.0903 86.674 38.9763 86.398 38.9763 86.074C38.9763 85.75 39.0903 85.474 39.3183 85.246C39.5583 85.018 39.8343 84.904 40.1463 84.904C40.4703 84.904 40.7463 85.018 40.9743 85.246C41.2023 85.474 41.3163 85.75 41.3163 86.074C41.3163 86.398 41.2023 86.674 40.9743 86.902C40.7463 87.13 40.4703 87.244 40.1463 87.244ZM41.1003 97H39.2103V88.306H41.1003V97ZM47.8721 97H45.8381L42.2921 88.306H44.3081L46.8461 94.822L49.3841 88.306H51.4181L47.8721 97ZM59.8949 91.654L51.9029 95.38V93.94L58.4549 90.988L51.9029 88.018V86.56L59.8949 90.304V91.654ZM36.2523 121.38L28.2603 117.654V116.304L36.2523 112.56V114.018L29.6823 116.988L36.2523 119.94V121.38ZM48.5094 123H46.4034V117.762H40.1574V123H38.0514V110.994H40.1574V115.908H46.4034V110.994H48.5094V123ZM55.0193 123.216C53.6993 123.216 52.6073 122.796 51.7433 121.956C50.8913 121.104 50.4653 120 50.4653 118.644C50.4653 117.372 50.8793 116.298 51.7073 115.422C52.5473 114.534 53.6033 114.09 54.8753 114.09C56.1593 114.09 57.1913 114.534 57.9713 115.422C58.7633 116.31 59.1593 117.444 59.1593 118.824V119.274H52.4453C52.5173 119.958 52.7993 120.528 53.2913 120.984C53.7833 121.44 54.4253 121.668 55.2173 121.668C55.6613 121.668 56.1053 121.584 56.5493 121.416C57.0053 121.248 57.3833 121.014 57.6833 120.714L58.5473 121.956C57.6713 122.796 56.4953 123.216 55.0193 123.216ZM57.3233 117.942C57.2993 117.342 57.0773 116.808 56.6573 116.34C56.2493 115.872 55.6553 115.638 54.8753 115.638C54.1313 115.638 53.5493 115.872 53.1293 116.34C52.7093 116.796 52.4753 117.33 52.4272 117.942H57.3233ZM62.9148 123H61.0248V110.994H62.9148V123ZM77.9126 123H76.0226V117.33C76.0226 116.286 75.5486 115.764 74.6006 115.764C74.2046 115.764 73.8206 115.878 73.4486 116.106C73.0766 116.334 72.7886 116.604 72.5846 116.916V123H70.6946V117.33C70.6946 116.286 70.2146 115.764 69.2546 115.764C68.8706 115.764 68.4926 115.878 68.1206 116.106C67.7606 116.334 67.4726 116.61 67.2566 116.934V123H65.3666V114.306H67.2566V115.494C67.4726 115.17 67.8446 114.858 68.3726 114.558C68.9126 114.246 69.4826 114.09 70.0826 114.09C71.3426 114.09 72.1346 114.624 72.4586 115.692C72.7346 115.26 73.1426 114.888 73.6826 114.576C74.2226 114.252 74.7986 114.09 75.4106 114.09C77.0786 114.09 77.9126 114.966 77.9126 116.718V123ZM84.3747 123.216C83.0547 123.216 81.9627 122.796 81.0987 121.956C80.2467 121.104 79.8207 120 79.8207 118.644C79.8207 117.372 80.2347 116.298 81.0627 115.422C81.9027 114.534 82.9587 114.09 84.2307 114.09C85.5147 114.09 86.5467 114.534 87.3267 115.422C88.1187 116.31 88.5147 117.444 88.5147 118.824V119.274H81.8007C81.8727 119.958 82.1547 120.528 82.6467 120.984C83.1387 121.44 83.7807 121.668 84.5727 121.668C85.0167 121.668 85.4607 121.584 85.9047 121.416C86.3607 121.248 86.7387 121.014 87.0387 120.714L87.9027 121.956C87.0267 122.796 85.8507 123.216 84.3747 123.216ZM86.6787 117.942C86.6547 117.342 86.4327 116.808 86.0127 116.34C85.6047 115.872 85.0107 115.638 84.2307 115.638C83.4867 115.638 82.9047 115.872 82.4847 116.34C82.0647 116.796 81.8307 117.33 81.7827 117.942H86.6787ZM92.9903 123.216C92.2583 123.216 91.7003 123.024 91.3163 122.64C90.9443 122.256 90.7583 121.704 90.7583 120.984V115.962H89.3183V114.306H90.7583V111.93H92.6483V114.306H94.4123V115.962H92.6483V120.516C92.6483 120.828 92.7203 121.08 92.8643 121.272C93.0083 121.452 93.2123 121.542 93.4763 121.542C93.8603 121.542 94.1423 121.44 94.3223 121.236L94.7723 122.658C94.3763 123.03 93.7823 123.216 92.9903 123.216ZM103.418 117.654L95.4263 121.38V119.94L101.978 116.988L95.4263 114.018V112.56L103.418 116.304V117.654ZM45.4984 147.38L37.5064 143.654V142.304L45.4984 138.56V140.018L38.9284 142.988L45.4984 145.94V147.38ZM50.2135 149.216C48.6535 149.216 47.4115 148.766 46.4875 147.866L47.3515 146.498C47.6755 146.834 48.1135 147.122 48.6655 147.362C49.2175 147.602 49.7635 147.722 50.3035 147.722C50.8555 147.722 51.2755 147.614 51.5635 147.398C51.8635 147.182 52.0135 146.9 52.0135 146.552C52.0135 146.24 51.8335 146 51.4735 145.832C51.1135 145.652 50.6755 145.514 50.1595 145.418C49.6435 145.31 49.1275 145.184 48.6115 145.04C48.0955 144.884 47.6575 144.614 47.2975 144.23C46.9375 143.846 46.7575 143.348 46.7575 142.736C46.7575 141.992 47.0635 141.368 47.6755 140.864C48.2875 140.348 49.1215 140.09 50.1775 140.09C51.5095 140.09 52.6375 140.498 53.5615 141.314L52.7695 142.646C52.4935 142.334 52.1275 142.082 51.6715 141.89C51.2155 141.698 50.7235 141.602 50.1955 141.602C49.7035 141.602 49.3075 141.704 49.0075 141.908C48.7195 142.1 48.5755 142.352 48.5755 142.664C48.5755 142.904 48.7015 143.102 48.9535 143.258C49.2175 143.402 49.5415 143.51 49.9255 143.582C50.3215 143.654 50.7475 143.756 51.2035 143.888C51.6595 144.008 52.0795 144.152 52.4635 144.32C52.8595 144.488 53.1835 144.764 53.4355 145.148C53.6995 145.52 53.8315 145.976 53.8315 146.516C53.8315 147.308 53.5135 147.956 52.8775 148.46C52.2415 148.964 51.3535 149.216 50.2135 149.216ZM59.6938 149.216C58.3738 149.216 57.2938 148.79 56.4538 147.938C55.6138 147.074 55.1938 145.976 55.1938 144.644C55.1938 143.324 55.6138 142.238 56.4538 141.386C57.2938 140.522 58.3738 140.09 59.6938 140.09C61.1458 140.09 62.2558 140.606 63.0238 141.638L61.7818 142.79C61.3018 142.106 60.6358 141.764 59.7838 141.764C58.9918 141.764 58.3558 142.034 57.8758 142.574C57.3958 143.102 57.1558 143.792 57.1558 144.644C57.1558 145.496 57.3958 146.192 57.8758 146.732C58.3558 147.272 58.9918 147.542 59.7838 147.542C60.6118 147.542 61.2778 147.2 61.7818 146.516L63.0238 147.668C62.2558 148.7 61.1458 149.216 59.6938 149.216ZM66.571 149H64.681V140.306H66.571V141.584C66.907 141.152 67.327 140.798 67.831 140.522C68.335 140.246 68.857 140.108 69.397 140.108V141.98C69.229 141.944 69.031 141.926 68.803 141.926C68.407 141.926 67.981 142.046 67.525 142.286C67.081 142.514 66.763 142.778 66.571 143.078V149ZM71.8573 139.244C71.5453 139.244 71.2693 139.13 71.0293 138.902C70.8013 138.674 70.6873 138.398 70.6873 138.074C70.6873 137.75 70.8013 137.474 71.0293 137.246C71.2693 137.018 71.5453 136.904 71.8573 136.904C72.1813 136.904 72.4573 137.018 72.6853 137.246C72.9133 137.474 73.0273 137.75 73.0273 138.074C73.0273 138.398 72.9133 138.674 72.6853 138.902C72.4573 139.13 72.1813 139.244 71.8573 139.244ZM72.8113 149H70.9213V140.306H72.8113V149ZM79.9431 149.216C78.7911 149.216 77.8611 148.742 77.1531 147.794V152.312H75.2631V140.306H77.1531V141.494C77.8491 140.558 78.7791 140.09 79.9431 140.09C81.0831 140.09 82.0071 140.498 82.7151 141.314C83.4351 142.13 83.7951 143.24 83.7951 144.644C83.7951 146.048 83.4351 147.164 82.7151 147.992C82.0071 148.808 81.0831 149.216 79.9431 149.216ZM79.3851 147.542C80.1291 147.542 80.7231 147.272 81.1671 146.732C81.6111 146.192 81.8331 145.496 81.8331 144.644C81.8331 143.792 81.6111 143.102 81.1671 142.574C80.7231 142.034 80.1291 141.764 79.3851 141.764C78.9531 141.764 78.5271 141.878 78.1071 142.106C77.6871 142.334 77.3691 142.61 77.1531 142.934V146.372C77.3691 146.696 77.6871 146.972 78.1071 147.2C78.5271 147.428 78.9531 147.542 79.3851 147.542ZM88.2793 149.216C87.5473 149.216 86.9893 149.024 86.6053 148.64C86.2333 148.256 86.0473 147.704 86.0473 146.984V141.962H84.6073V140.306H86.0473V137.93H87.9373V140.306H89.7013V141.962H87.9373V146.516C87.9373 146.828 88.0093 147.08 88.1533 147.272C88.2973 147.452 88.5013 147.542 88.7653 147.542C89.1493 147.542 89.4313 147.44 89.6113 147.236L90.0613 148.658C89.6653 149.03 89.0713 149.216 88.2793 149.216ZM523.817 143.654L515.825 147.38V145.94L522.377 142.988L515.825 140.018V138.56L523.817 142.304V143.654ZM45.4984 173.38L37.5064 169.654V168.304L45.4984 164.56V166.018L38.9284 168.988L45.4984 171.94V173.38ZM47.4235 175.36H46.0195L50.2855 162.634H51.6895L47.4235 175.36ZM55.8913 175.216C54.3313 175.216 53.0893 174.766 52.1653 173.866L53.0293 172.498C53.3533 172.834 53.7913 173.122 54.3433 173.362C54.8953 173.602 55.4413 173.722 55.9813 173.722C56.5333 173.722 56.9533 173.614 57.2413 173.398C57.5413 173.182 57.6913 172.9 57.6913 172.552C57.6913 172.24 57.5113 172 57.1513 171.832C56.7913 171.652 56.3533 171.514 55.8373 171.418C55.3213 171.31 54.8053 171.184 54.2893 171.04C53.7733 170.884 53.3353 170.614 52.9753 170.23C52.6153 169.846 52.4353 169.348 52.4353 168.736C52.4353 167.992 52.7413 167.368 53.3533 166.864C53.9653 166.348 54.7993 166.09 55.8553 166.09C57.1873 166.09 58.3153 166.498 59.2393 167.314L58.4473 168.646C58.1713 168.334 57.8053 168.082 57.3493 167.89C56.8933 167.698 56.4013 167.602 55.8733 167.602C55.3813 167.602 54.9853 167.704 54.6853 167.908C54.3973 168.1 54.2533 168.352 54.2533 168.664C54.2533 168.904 54.3793 169.102 54.6313 169.258C54.8953 169.402 55.2193 169.51 55.6033 169.582C55.9993 169.654 56.4253 169.756 56.8813 169.888C57.3373 170.008 57.7573 170.152 58.1413 170.32C58.5373 170.488 58.8613 170.764 59.1133 171.148C59.3773 171.52 59.5093 171.976 59.5093 172.516C59.5093 173.308 59.1913 173.956 58.5553 174.46C57.9193 174.964 57.0313 175.216 55.8913 175.216ZM65.3715 175.216C64.0515 175.216 62.9715 174.79 62.1315 173.938C61.2915 173.074 60.8715 171.976 60.8715 170.644C60.8715 169.324 61.2915 168.238 62.1315 167.386C62.9715 166.522 64.0515 166.09 65.3715 166.09C66.8235 166.09 67.9335 166.606 68.7015 167.638L67.4595 168.79C66.9795 168.106 66.3135 167.764 65.4615 167.764C64.6695 167.764 64.0335 168.034 63.5535 168.574C63.0735 169.102 62.8335 169.792 62.8335 170.644C62.8335 171.496 63.0735 172.192 63.5535 172.732C64.0335 173.272 64.6695 173.542 65.4615 173.542C66.2895 173.542 66.9555 173.2 67.4595 172.516L68.7015 173.668C67.9335 174.7 66.8235 175.216 65.3715 175.216ZM72.2488 175H70.3588V166.306H72.2488V167.584C72.5848 167.152 73.0048 166.798 73.5088 166.522C74.0128 166.246 74.5348 166.108 75.0748 166.108V167.98C74.9068 167.944 74.7088 167.926 74.4808 167.926C74.0848 167.926 73.6588 168.046 73.2028 168.286C72.7588 168.514 72.4408 168.778 72.2488 169.078V175ZM77.535 165.244C77.223 165.244 76.947 165.13 76.707 164.902C76.479 164.674 76.365 164.398 76.365 164.074C76.365 163.75 76.479 163.474 76.707 163.246C76.947 163.018 77.223 162.904 77.535 162.904C77.859 162.904 78.135 163.018 78.363 163.246C78.591 163.474 78.705 163.75 78.705 164.074C78.705 164.398 78.591 164.674 78.363 164.902C78.135 165.13 77.859 165.244 77.535 165.244ZM78.489 175H76.599V166.306H78.489V175ZM85.6208 175.216C84.4688 175.216 83.5388 174.742 82.8308 173.794V178.312H80.9408V166.306H82.8308V167.494C83.5268 166.558 84.4568 166.09 85.6208 166.09C86.7608 166.09 87.6848 166.498 88.3928 167.314C89.1128 168.13 89.4728 169.24 89.4728 170.644C89.4728 172.048 89.1128 173.164 88.3928 173.992C87.6848 174.808 86.7608 175.216 85.6208 175.216ZM85.0628 173.542C85.8068 173.542 86.4008 173.272 86.8448 172.732C87.2888 172.192 87.5108 171.496 87.5108 170.644C87.5108 169.792 87.2888 169.102 86.8448 168.574C86.4008 168.034 85.8068 167.764 85.0628 167.764C84.6308 167.764 84.2048 167.878 83.7848 168.106C83.3648 168.334 83.0468 168.61 82.8308 168.934V172.372C83.0468 172.696 83.3648 172.972 83.7848 173.2C84.2048 173.428 84.6308 173.542 85.0628 173.542ZM93.957 175.216C93.225 175.216 92.667 175.024 92.283 174.64C91.911 174.256 91.725 173.704 91.725 172.984V167.962H90.285V166.306H91.725V163.93H93.615V166.306H95.379V167.962H93.615V172.516C93.615 172.828 93.687 173.08 93.831 173.272C93.975 173.452 94.179 173.542 94.443 173.542C94.827 173.542 95.109 173.44 95.289 173.236L95.739 174.658C95.343 175.03 94.749 175.216 93.957 175.216ZM104.385 169.654L96.3931 173.38V171.94L102.945 168.988L96.3931 166.018V164.56L104.385 168.304V169.654ZM36.2523 199.38L28.2603 195.654V194.304L36.2523 190.56V192.018L29.6823 194.988L36.2523 197.94V199.38ZM38.1774 201.36H36.7734L41.0394 188.634H42.4434L38.1774 201.36ZM54.1872 201H52.0812V195.762H45.8352V201H43.7292V188.994H45.8352V193.908H52.0812V188.994H54.1872V201ZM60.697 201.216C59.377 201.216 58.285 200.796 57.421 199.956C56.569 199.104 56.143 198 56.143 196.644C56.143 195.372 56.557 194.298 57.385 193.422C58.225 192.534 59.281 192.09 60.553 192.09C61.837 192.09 62.869 192.534 63.649 193.422C64.441 194.31 64.837 195.444 64.837 196.824V197.274H58.123C58.195 197.958 58.477 198.528 58.969 198.984C59.461 199.44 60.103 199.668 60.895 199.668C61.339 199.668 61.783 199.584 62.227 199.416C62.683 199.248 63.061 199.014 63.361 198.714L64.225 199.956C63.349 200.796 62.173 201.216 60.697 201.216ZM63.001 195.942C62.977 195.342 62.755 194.808 62.335 194.34C61.927 193.872 61.333 193.638 60.553 193.638C59.809 193.638 59.227 193.872 58.807 194.34C58.387 194.796 58.153 195.33 58.105 195.942H63.001ZM68.5925 201H66.7025V188.994H68.5925V201ZM83.5903 201H81.7003V195.33C81.7003 194.286 81.2263 193.764 80.2783 193.764C79.8823 193.764 79.4983 193.878 79.1263 194.106C78.7543 194.334 78.4663 194.604 78.2623 194.916V201H76.3723V195.33C76.3723 194.286 75.8923 193.764 74.9323 193.764C74.5483 193.764 74.1703 193.878 73.7983 194.106C73.4383 194.334 73.1503 194.61 72.9343 194.934V201H71.0443V192.306H72.9343V193.494C73.1503 193.17 73.5223 192.858 74.0503 192.558C74.5903 192.246 75.1603 192.09 75.7603 192.09C77.0203 192.09 77.8123 192.624 78.1363 193.692C78.4123 193.26 78.8203 192.888 79.3603 192.576C79.9003 192.252 80.4763 192.09 81.0883 192.09C82.7563 192.09 83.5903 192.966 83.5903 194.718V201ZM90.0525 201.216C88.7325 201.216 87.6405 200.796 86.7765 199.956C85.9245 199.104 85.4985 198 85.4985 196.644C85.4985 195.372 85.9125 194.298 86.7405 193.422C87.5805 192.534 88.6365 192.09 89.9085 192.09C91.1925 192.09 92.2245 192.534 93.0045 193.422C93.7965 194.31 94.1925 195.444 94.1925 196.824V197.274H87.4785C87.5505 197.958 87.8325 198.528 88.3245 198.984C88.8165 199.44 89.4585 199.668 90.2505 199.668C90.6945 199.668 91.1385 199.584 91.5825 199.416C92.0385 199.248 92.4165 199.014 92.7165 198.714L93.5805 199.956C92.7045 200.796 91.5285 201.216 90.0525 201.216ZM92.3565 195.942C92.3325 195.342 92.1105 194.808 91.6905 194.34C91.2825 193.872 90.6885 193.638 89.9085 193.638C89.1645 193.638 88.5825 193.872 88.1625 194.34C87.7425 194.796 87.5085 195.33 87.4605 195.942H92.3565ZM98.668 201.216C97.936 201.216 97.378 201.024 96.994 200.64C96.622 200.256 96.436 199.704 96.436 198.984V193.962H94.996V192.306H96.436V189.93H98.326V192.306H100.09V193.962H98.326V198.516C98.326 198.828 98.398 199.08 98.542 199.272C98.686 199.452 98.89 199.542 99.154 199.542C99.538 199.542 99.82 199.44 100 199.236L100.45 200.658C100.054 201.03 99.46 201.216 98.668 201.216ZM109.096 195.654L101.104 199.38V197.94L107.656 194.988L101.104 192.018V190.56L109.096 194.304V195.654ZM22.3831 225.38L14.3911 221.654V220.304L22.3831 216.56V218.018L15.8131 220.988L22.3831 223.94V225.38ZM24.3083 227.36H22.9043L27.1703 214.634H28.5743L24.3083 227.36ZM37.816 227H35.926V225.812C35.206 226.748 34.276 227.216 33.136 227.216C31.996 227.216 31.066 226.808 30.346 225.992C29.626 225.176 29.266 224.066 29.266 222.662C29.266 221.27 29.626 220.16 30.346 219.332C31.066 218.504 31.996 218.09 33.136 218.09C34.276 218.09 35.206 218.564 35.926 219.512V214.994H37.816V227ZM33.676 225.542C34.12 225.542 34.552 225.434 34.972 225.218C35.392 225.002 35.71 224.726 35.926 224.39V220.934C35.71 220.598 35.392 220.322 34.972 220.106C34.552 219.878 34.12 219.764 33.676 219.764C32.932 219.764 32.338 220.034 31.894 220.574C31.45 221.114 31.228 221.81 31.228 222.662C31.228 223.514 31.45 224.21 31.894 224.75C32.338 225.278 32.932 225.542 33.676 225.542ZM41.201 217.244C40.889 217.244 40.613 217.13 40.373 216.902C40.145 216.674 40.031 216.398 40.031 216.074C40.031 215.75 40.145 215.474 40.373 215.246C40.613 215.018 40.889 214.904 41.201 214.904C41.525 214.904 41.801 215.018 42.029 215.246C42.257 215.474 42.371 215.75 42.371 216.074C42.371 216.398 42.257 216.674 42.029 216.902C41.801 217.13 41.525 217.244 41.201 217.244ZM42.155 227H40.265V218.306H42.155V227ZM48.9268 227H46.8928L43.3468 218.306H45.3628L47.9008 224.822L50.4388 218.306H52.4728L48.9268 227ZM60.9495 221.654L52.9575 225.38V223.94L59.5095 220.988L52.9575 218.018V216.56L60.9495 220.304V221.654Z" fill="#D34F7F"/>
<path d="M61.3339 22.42H60.2359C59.5399 22.42 58.9399 22.174 58.4359 21.682C57.9319 21.19 57.6799 20.548 57.6799 19.756V16.39C57.6799 16.042 57.5959 15.754 57.4279 15.526C57.2719 15.286 57.0439 15.166 56.7439 15.166V14.05C57.0439 14.05 57.2719 13.936 57.4279 13.708C57.5959 13.468 57.6799 13.174 57.6799 12.826V9.478C57.6799 8.686 57.9319 8.044 58.4359 7.552C58.9519 7.048 59.5519 6.796 60.2359 6.796H61.3339V8.092H60.2359C59.9119 8.092 59.6359 8.224 59.4079 8.488C59.1919 8.74 59.0839 9.07 59.0839 9.478V13.006C59.0839 13.834 58.8079 14.368 58.2559 14.608C58.8079 14.848 59.0839 15.382 59.0839 16.21V19.738C59.0839 20.134 59.1919 20.464 59.4079 20.728C59.6359 20.992 59.9119 21.124 60.2359 21.124H61.3339V22.42ZM78.0055 19H75.8995V13.762H69.6535V19H67.5475V6.994H69.6535V11.908H75.8995V6.994H78.0055V19ZM84.5153 19.216C83.1953 19.216 82.1033 18.796 81.2393 17.956C80.3873 17.104 79.9613 16 79.9613 14.644C79.9613 13.372 80.3753 12.298 81.2033 11.422C82.0433 10.534 83.0993 10.09 84.3713 10.09C85.6553 10.09 86.6873 10.534 87.4673 11.422C88.2593 12.31 88.6553 13.444 88.6553 14.824V15.274H81.9413C82.0133 15.958 82.2953 16.528 82.7873 16.984C83.2793 17.44 83.9213 17.668 84.7133 17.668C85.1573 17.668 85.6013 17.584 86.0453 17.416C86.5013 17.248 86.8793 17.014 87.1793 16.714L88.0433 17.956C87.1673 18.796 85.9913 19.216 84.5153 19.216ZM86.8193 13.942C86.7953 13.342 86.5733 12.808 86.1533 12.34C85.7453 11.872 85.1513 11.638 84.3713 11.638C83.6273 11.638 83.0453 11.872 82.6253 12.34C82.2053 12.796 81.9713 13.33 81.9233 13.942H86.8193ZM92.4109 19H90.5209V6.994H92.4109V19ZM107.409 19H105.519V13.33C105.519 12.286 105.045 11.764 104.097 11.764C103.701 11.764 103.317 11.878 102.945 12.106C102.573 12.334 102.285 12.604 102.081 12.916V19H100.191V13.33C100.191 12.286 99.7107 11.764 98.7507 11.764C98.3667 11.764 97.9887 11.878 97.6167 12.106C97.2567 12.334 96.9687 12.61 96.7527 12.934V19H94.8627V10.306H96.7527V11.494C96.9687 11.17 97.3407 10.858 97.8687 10.558C98.4087 10.246 98.9787 10.09 99.5787 10.09C100.839 10.09 101.631 10.624 101.955 11.692C102.231 11.26 102.639 10.888 103.179 10.576C103.719 10.252 104.295 10.09 104.907 10.09C106.575 10.09 107.409 10.966 107.409 12.718V19ZM113.871 19.216C112.551 19.216 111.459 18.796 110.595 17.956C109.743 17.104 109.317 16 109.317 14.644C109.317 13.372 109.731 12.298 110.559 11.422C111.399 10.534 112.455 10.09 113.727 10.09C115.011 10.09 116.043 10.534 116.823 11.422C117.615 12.31 118.011 13.444 118.011 14.824V15.274H111.297C111.369 15.958 111.651 16.528 112.143 16.984C112.635 17.44 113.277 17.668 114.069 17.668C114.513 17.668 114.957 17.584 115.401 17.416C115.857 17.248 116.235 17.014 116.535 16.714L117.399 17.956C116.523 18.796 115.347 19.216 113.871 19.216ZM116.175 13.942C116.151 13.342 115.929 12.808 115.509 12.34C115.101 11.872 114.507 11.638 113.727 11.638C112.983 11.638 112.401 11.872 111.981 12.34C111.561 12.796 111.327 13.33 111.279 13.942H116.175ZM122.486 19.216C121.754 19.216 121.196 19.024 120.812 18.64C120.44 18.256 120.254 17.704 120.254 16.984V11.962H118.814V10.306H120.254V7.93H122.144V10.306H123.908V11.962H122.144V16.516C122.144 16.828 122.216 17.08 122.36 17.272C122.504 17.452 122.708 17.542 122.972 17.542C123.356 17.542 123.638 17.44 123.818 17.236L124.268 18.658C123.872 19.03 123.278 19.216 122.486 19.216ZM129.329 22.42V21.124H130.427C130.751 21.124 131.021 20.992 131.237 20.728C131.465 20.464 131.579 20.134 131.579 19.738V16.21C131.579 15.382 131.855 14.848 132.407 14.608C131.855 14.368 131.579 13.834 131.579 13.006V9.478C131.579 9.07 131.465 8.74 131.237 8.488C131.021 8.224 130.751 8.092 130.427 8.092H129.329V6.796H130.427C131.111 6.796 131.705 7.048 132.209 7.552C132.725 8.044 132.983 8.686 132.983 9.478V12.826C132.983 13.174 133.061 13.468 133.217 13.708C133.385 13.936 133.619 14.05 133.919 14.05V15.166C133.619 15.166 133.385 15.286 133.217 15.526C133.061 15.754 132.983 16.042 132.983 16.39V19.756C132.983 20.548 132.731 21.19 132.227 21.682C131.723 22.174 131.123 22.42 130.427 22.42H129.329ZM298.408 12.322C298.156 12.574 297.862 12.7 297.526 12.7C297.19 12.7 296.896 12.574 296.644 12.322C296.392 12.07 296.266 11.776 296.266 11.44C296.266 11.104 296.392 10.81 296.644 10.558C296.896 10.306 297.19 10.18 297.526 10.18C297.862 10.18 298.156 10.306 298.408 10.558C298.66 10.81 298.786 11.104 298.786 11.44C298.786 11.776 298.66 12.07 298.408 12.322ZM298.894 18.262C298.894 18.862 298.738 19.432 298.426 19.972C298.126 20.524 297.718 20.98 297.202 21.34L296.356 20.638C296.656 20.458 296.932 20.206 297.184 19.882C297.436 19.558 297.592 19.246 297.652 18.946C297.544 18.982 297.442 19 297.346 19C297.034 19 296.776 18.898 296.572 18.694C296.368 18.478 296.266 18.202 296.266 17.866C296.266 17.53 296.386 17.242 296.626 17.002C296.866 16.75 297.154 16.624 297.49 16.624C297.874 16.624 298.204 16.774 298.48 17.074C298.756 17.362 298.894 17.758 298.894 18.262ZM239.189 48.42H238.091C237.395 48.42 236.795 48.174 236.291 47.682C235.787 47.19 235.535 46.548 235.535 45.756V42.39C235.535 42.042 235.451 41.754 235.283 41.526C235.127 41.286 234.899 41.166 234.599 41.166V40.05C234.899 40.05 235.127 39.936 235.283 39.708C235.451 39.468 235.535 39.174 235.535 38.826V35.478C235.535 34.686 235.787 34.044 236.291 33.552C236.807 33.048 237.407 32.796 238.091 32.796H239.189V34.092H238.091C237.767 34.092 237.491 34.224 237.263 34.488C237.047 34.74 236.939 35.07 236.939 35.478V39.006C236.939 39.834 236.663 40.368 236.111 40.608C236.663 40.848 236.939 41.382 236.939 42.21V45.738C236.939 46.134 237.047 46.464 237.263 46.728C237.491 46.992 237.767 47.124 238.091 47.124H239.189V48.42ZM12.3601 71H10.4701V62.306H12.3601V63.584C12.6961 63.152 13.1161 62.798 13.6201 62.522C14.1241 62.246 14.6461 62.108 15.1861 62.108V63.98C15.0181 63.944 14.8201 63.926 14.5921 63.926C14.1961 63.926 13.7701 64.046 13.3141 64.286C12.8701 64.514 12.5521 64.778 12.3601 65.078V71ZM20.7243 71.216C19.4043 71.216 18.3123 70.796 17.4483 69.956C16.5963 69.104 16.1703 68 16.1703 66.644C16.1703 65.372 16.5843 64.298 17.4123 63.422C18.2523 62.534 19.3083 62.09 20.5803 62.09C21.8643 62.09 22.8963 62.534 23.6763 63.422C24.4683 64.31 24.8643 65.444 24.8643 66.824V67.274H18.1503C18.2223 67.958 18.5043 68.528 18.9963 68.984C19.4883 69.44 20.1303 69.668 20.9223 69.668C21.3663 69.668 21.8103 69.584 22.2543 69.416C22.7103 69.248 23.0883 69.014 23.3883 68.714L24.2523 69.956C23.3763 70.796 22.2003 71.216 20.7243 71.216ZM23.0283 65.942C23.0043 65.342 22.7823 64.808 22.3623 64.34C21.9543 63.872 21.3603 63.638 20.5803 63.638C19.8363 63.638 19.2543 63.872 18.8343 64.34C18.4143 64.796 18.1803 65.33 18.1323 65.942H23.0283ZM29.3399 71.216C28.6079 71.216 28.0499 71.024 27.6659 70.64C27.2939 70.256 27.1079 69.704 27.1079 68.984V63.962H25.6679V62.306H27.1079V59.93H28.9979V62.306H30.7619V63.962H28.9979V68.516C28.9979 68.828 29.0699 69.08 29.2139 69.272C29.3579 69.452 29.5619 69.542 29.8259 69.542C30.2099 69.542 30.4919 69.44 30.6719 69.236L31.1219 70.658C30.7259 71.03 30.1319 71.216 29.3399 71.216ZM40.2359 71H38.3459V69.848C37.5299 70.76 36.5039 71.216 35.2679 71.216C33.4079 71.216 32.4779 70.298 32.4779 68.462V62.306H34.3679V67.778C34.3679 68.414 34.5179 68.87 34.8179 69.146C35.1179 69.41 35.5499 69.542 36.1139 69.542C36.5699 69.542 36.9959 69.434 37.3919 69.218C37.7879 69.002 38.1059 68.732 38.3459 68.408V62.306H40.2359V71ZM44.5808 71H42.6908V62.306H44.5808V63.584C44.9168 63.152 45.3368 62.798 45.8408 62.522C46.3448 62.246 46.8668 62.108 47.4068 62.108V63.98C47.2388 63.944 47.0408 63.926 46.8128 63.926C46.4168 63.926 45.9908 64.046 45.5348 64.286C45.0908 64.514 44.7728 64.778 44.5808 65.078V71ZM56.689 71H54.799V65.564C54.799 64.364 54.217 63.764 53.053 63.764C52.597 63.764 52.171 63.878 51.775 64.106C51.379 64.334 51.061 64.61 50.821 64.934V71H48.931V62.306H50.821V63.494C51.145 63.11 51.577 62.78 52.117 62.504C52.657 62.228 53.245 62.09 53.881 62.09C54.805 62.09 55.501 62.33 55.969 62.81C56.449 63.29 56.689 63.98 56.689 64.88V71ZM67.187 73.682L66.017 74.582C65.165 73.55 64.499 72.332 64.019 70.928C63.539 69.512 63.299 68.078 63.299 66.626C63.299 65.186 63.539 63.764 64.019 62.36C64.499 60.944 65.165 59.714 66.017 58.67L67.187 59.552C66.563 60.728 66.101 61.862 65.801 62.954C65.501 64.046 65.351 65.27 65.351 66.626C65.351 67.982 65.501 69.206 65.801 70.298C66.101 71.39 66.563 72.518 67.187 73.682ZM131.631 141.89H123.639V140.666H131.631V141.89ZM131.631 145.31H123.639V144.104H131.631V145.31ZM10.7221 256.582L9.55209 255.682C10.1881 254.518 10.6561 253.39 10.9561 252.298C11.2561 251.206 11.4061 249.982 11.4061 248.626C11.4061 247.27 11.2561 246.046 10.9561 244.954C10.6561 243.862 10.1881 242.728 9.55209 241.552L10.7221 240.67C11.5741 241.714 12.2401 242.938 12.7201 244.342C13.2121 245.746 13.4581 247.174 13.4581 248.626C13.4581 250.078 13.2121 251.512 12.7201 252.928C12.2401 254.332 11.5741 255.55 10.7221 256.582ZM17.2987 246.322C17.0467 246.574 16.7527 246.7 16.4167 246.7C16.0807 246.7 15.7867 246.574 15.5347 246.322C15.2827 246.07 15.1567 245.776 15.1567 245.44C15.1567 245.104 15.2827 244.81 15.5347 244.558C15.7867 244.306 16.0807 244.18 16.4167 244.18C16.7527 244.18 17.0467 244.306 17.2987 244.558C17.5507 244.81 17.6767 245.104 17.6767 245.44C17.6767 245.776 17.5507 246.07 17.2987 246.322ZM17.7847 252.262C17.7847 252.862 17.6287 253.432 17.3167 253.972C17.0167 254.524 16.6087 254.98 16.0927 255.34L15.2467 254.638C15.5467 254.458 15.8227 254.206 16.0747 253.882C16.3267 253.558 16.4827 253.246 16.5427 252.946C16.4347 252.982 16.3327 253 16.2367 253C15.9247 253 15.6667 252.898 15.4627 252.694C15.2587 252.478 15.1567 252.202 15.1567 251.866C15.1567 251.53 15.2767 251.242 15.5167 251.002C15.7567 250.75 16.0447 250.624 16.3807 250.624C16.7647 250.624 17.0947 250.774 17.3707 251.074C17.6467 251.362 17.7847 251.758 17.7847 252.262ZM0.306 282.42V281.124H1.404C1.728 281.124 1.998 280.992 2.214 280.728C2.442 280.464 2.556 280.134 2.556 279.738V276.21C2.556 275.382 2.832 274.848 3.384 274.608C2.832 274.368 2.556 273.834 2.556 273.006V269.478C2.556 269.07 2.442 268.74 2.214 268.488C1.998 268.224 1.728 268.092 1.404 268.092H0.306V266.796H1.404C2.088 266.796 2.682 267.048 3.186 267.552C3.702 268.044 3.96 268.686 3.96 269.478V272.826C3.96 273.174 4.038 273.468 4.194 273.708C4.362 273.936 4.596 274.05 4.896 274.05V275.166C4.596 275.166 4.362 275.286 4.194 275.526C4.038 275.754 3.96 276.042 3.96 276.39V279.756C3.96 280.548 3.708 281.19 3.204 281.682C2.7 282.174 2.1 282.42 1.404 282.42H0.306Z" fill="#61595D"/>
<path d="M182.692 11.962H181.828C181.408 9.442 181.198 8.08 181.198 7.876C181.198 7.588 181.3 7.342 181.504 7.138C181.708 6.922 181.96 6.814 182.26 6.814C182.548 6.814 182.794 6.922 182.998 7.138C183.214 7.342 183.322 7.588 183.322 7.876L182.692 11.962ZM185.662 11.962H184.816C184.396 9.442 184.186 8.08 184.186 7.876C184.186 7.588 184.288 7.342 184.492 7.138C184.696 6.922 184.948 6.814 185.248 6.814C185.536 6.814 185.782 6.922 185.986 7.138C186.19 7.342 186.292 7.588 186.292 7.876L185.662 11.962ZM190.268 19H188.378V10.306H190.268V11.584C190.604 11.152 191.024 10.798 191.528 10.522C192.032 10.246 192.554 10.108 193.094 10.108V11.98C192.926 11.944 192.728 11.926 192.5 11.926C192.104 11.926 191.678 12.046 191.222 12.286C190.778 12.514 190.46 12.778 190.268 13.078V19ZM198.633 19.216C197.313 19.216 196.221 18.796 195.357 17.956C194.505 17.104 194.079 16 194.079 14.644C194.079 13.372 194.493 12.298 195.321 11.422C196.161 10.534 197.217 10.09 198.489 10.09C199.773 10.09 200.805 10.534 201.585 11.422C202.377 12.31 202.773 13.444 202.773 14.824V15.274H196.059C196.131 15.958 196.413 16.528 196.905 16.984C197.397 17.44 198.039 17.668 198.831 17.668C199.275 17.668 199.719 17.584 200.163 17.416C200.619 17.248 200.997 17.014 201.297 16.714L202.161 17.956C201.285 18.796 200.109 19.216 198.633 19.216ZM200.937 13.942C200.913 13.342 200.691 12.808 200.271 12.34C199.863 11.872 199.269 11.638 198.489 11.638C197.745 11.638 197.163 11.872 196.743 12.34C196.323 12.796 196.089 13.33 196.041 13.942H200.937ZM211.838 19H209.948V18.064C209.276 18.832 208.34 19.216 207.14 19.216C206.348 19.216 205.646 18.964 205.034 18.46C204.422 17.944 204.116 17.236 204.116 16.336C204.116 15.412 204.416 14.71 205.016 14.23C205.628 13.75 206.336 13.51 207.14 13.51C208.376 13.51 209.312 13.882 209.948 14.626V13.33C209.948 12.826 209.762 12.43 209.39 12.142C209.018 11.854 208.526 11.71 207.914 11.71C206.942 11.71 206.084 12.076 205.34 12.808L204.566 11.494C205.55 10.558 206.768 10.09 208.22 10.09C209.288 10.09 210.158 10.342 210.83 10.846C211.502 11.35 211.838 12.148 211.838 13.24V19ZM207.878 17.92C208.826 17.92 209.516 17.62 209.948 17.02V15.706C209.516 15.106 208.826 14.806 207.878 14.806C207.338 14.806 206.894 14.95 206.546 15.238C206.198 15.526 206.024 15.904 206.024 16.372C206.024 16.84 206.198 17.218 206.546 17.506C206.894 17.782 207.338 17.92 207.878 17.92ZM218.248 19.216C216.928 19.216 215.848 18.79 215.008 17.938C214.168 17.074 213.748 15.976 213.748 14.644C213.748 13.324 214.168 12.238 215.008 11.386C215.848 10.522 216.928 10.09 218.248 10.09C219.7 10.09 220.81 10.606 221.578 11.638L220.336 12.79C219.856 12.106 219.19 11.764 218.338 11.764C217.546 11.764 216.91 12.034 216.43 12.574C215.95 13.102 215.71 13.792 215.71 14.644C215.71 15.496 215.95 16.192 216.43 16.732C216.91 17.272 217.546 17.542 218.338 17.542C219.166 17.542 219.832 17.2 220.336 16.516L221.578 17.668C220.81 18.7 219.7 19.216 218.248 19.216ZM225.846 19.216C225.114 19.216 224.556 19.024 224.172 18.64C223.8 18.256 223.614 17.704 223.614 16.984V11.962H222.174V10.306H223.614V7.93H225.504V10.306H227.268V11.962H225.504V16.516C225.504 16.828 225.576 17.08 225.72 17.272C225.864 17.452 226.068 17.542 226.332 17.542C226.716 17.542 226.998 17.44 227.178 17.236L227.628 18.658C227.232 19.03 226.638 19.216 225.846 19.216ZM232.62 15.454H228.3V13.834H232.62V15.454ZM242.156 19H240.266V13.528C240.266 12.892 240.11 12.442 239.798 12.178C239.498 11.902 239.066 11.764 238.502 11.764C238.058 11.764 237.638 11.878 237.242 12.106C236.846 12.334 236.522 12.61 236.27 12.934V19H234.38V6.994H236.27V11.494C236.594 11.11 237.026 10.78 237.566 10.504C238.118 10.228 238.712 10.09 239.348 10.09C241.22 10.09 242.156 11.008 242.156 12.844V19ZM248.625 19.216C247.305 19.216 246.213 18.796 245.349 17.956C244.497 17.104 244.071 16 244.071 14.644C244.071 13.372 244.485 12.298 245.313 11.422C246.153 10.534 247.209 10.09 248.481 10.09C249.765 10.09 250.797 10.534 251.577 11.422C252.369 12.31 252.765 13.444 252.765 14.824V15.274H246.051C246.123 15.958 246.405 16.528 246.897 16.984C247.389 17.44 248.031 17.668 248.823 17.668C249.267 17.668 249.711 17.584 250.155 17.416C250.611 17.248 250.989 17.014 251.289 16.714L252.153 17.956C251.277 18.796 250.101 19.216 248.625 19.216ZM250.929 13.942C250.905 13.342 250.683 12.808 250.263 12.34C249.855 11.872 249.261 11.638 248.481 11.638C247.737 11.638 247.155 11.872 246.735 12.34C246.315 12.796 246.081 13.33 246.033 13.942H250.929ZM256.52 19H254.63V6.994H256.52V19ZM271.518 19H269.628V13.33C269.628 12.286 269.154 11.764 268.206 11.764C267.81 11.764 267.426 11.878 267.054 12.106C266.682 12.334 266.394 12.604 266.19 12.916V19H264.3V13.33C264.3 12.286 263.82 11.764 262.86 11.764C262.476 11.764 262.098 11.878 261.726 12.106C261.366 12.334 261.078 12.61 260.862 12.934V19H258.972V10.306H260.862V11.494C261.078 11.17 261.45 10.858 261.978 10.558C262.518 10.246 263.088 10.09 263.688 10.09C264.948 10.09 265.74 10.624 266.064 11.692C266.34 11.26 266.748 10.888 267.288 10.576C267.828 10.252 268.404 10.09 269.016 10.09C270.684 10.09 271.518 10.966 271.518 12.718V19ZM277.98 19.216C276.66 19.216 275.568 18.796 274.704 17.956C273.852 17.104 273.426 16 273.426 14.644C273.426 13.372 273.84 12.298 274.668 11.422C275.508 10.534 276.564 10.09 277.836 10.09C279.12 10.09 280.152 10.534 280.932 11.422C281.724 12.31 282.12 13.444 282.12 14.824V15.274H275.406C275.478 15.958 275.76 16.528 276.252 16.984C276.744 17.44 277.386 17.668 278.178 17.668C278.622 17.668 279.066 17.584 279.51 17.416C279.966 17.248 280.344 17.014 280.644 16.714L281.508 17.956C280.632 18.796 279.456 19.216 277.98 19.216ZM280.284 13.942C280.26 13.342 280.038 12.808 279.618 12.34C279.21 11.872 278.616 11.638 277.836 11.638C277.092 11.638 276.51 11.872 276.09 12.34C275.67 12.796 275.436 13.33 275.388 13.942H280.284ZM286.596 19.216C285.864 19.216 285.306 19.024 284.922 18.64C284.55 18.256 284.364 17.704 284.364 16.984V11.962H282.924V10.306H284.364V7.93H286.254V10.306H288.018V11.962H286.254V16.516C286.254 16.828 286.326 17.08 286.47 17.272C286.614 17.452 286.818 17.542 287.082 17.542C287.466 17.542 287.748 17.44 287.928 17.236L288.378 18.658C287.982 19.03 287.388 19.216 286.596 19.216ZM290.868 11.962H290.004C289.584 9.442 289.374 8.08 289.374 7.876C289.374 7.588 289.476 7.342 289.68 7.138C289.884 6.922 290.136 6.814 290.436 6.814C290.724 6.814 290.97 6.922 291.174 7.138C291.39 7.342 291.498 7.588 291.498 7.876L290.868 11.962ZM293.838 11.962H292.992C292.572 9.442 292.362 8.08 292.362 7.876C292.362 7.588 292.464 7.342 292.668 7.138C292.872 6.922 293.124 6.814 293.424 6.814C293.712 6.814 293.958 6.922 294.162 7.138C294.366 7.342 294.468 7.588 294.468 7.876L293.838 11.962ZM134.51 141.962H133.646C133.226 139.442 133.016 138.08 133.016 137.876C133.016 137.588 133.118 137.342 133.322 137.138C133.526 136.922 133.778 136.814 134.078 136.814C134.366 136.814 134.612 136.922 134.816 137.138C135.032 137.342 135.14 137.588 135.14 137.876L134.51 141.962ZM137.48 141.962H136.634C136.214 139.442 136.004 138.08 136.004 137.876C136.004 137.588 136.106 137.342 136.31 137.138C136.514 136.922 136.766 136.814 137.066 136.814C137.354 136.814 137.6 136.922 137.804 137.138C138.008 137.342 138.11 137.588 138.11 137.876L137.48 141.962ZM147.973 149H146.083V143.528C146.083 142.892 145.927 142.442 145.615 142.178C145.315 141.902 144.883 141.764 144.319 141.764C143.875 141.764 143.455 141.878 143.059 142.106C142.663 142.334 142.339 142.61 142.087 142.934V149H140.197V136.994H142.087V141.494C142.411 141.11 142.843 140.78 143.383 140.504C143.935 140.228 144.529 140.09 145.165 140.09C147.037 140.09 147.973 141.008 147.973 142.844V149ZM153.037 149.216C152.305 149.216 151.747 149.024 151.363 148.64C150.991 148.256 150.805 147.704 150.805 146.984V141.962H149.365V140.306H150.805V137.93H152.695V140.306H154.459V141.962H152.695V146.516C152.695 146.828 152.767 147.08 152.911 147.272C153.055 147.452 153.259 147.542 153.523 147.542C153.907 147.542 154.189 147.44 154.369 147.236L154.819 148.658C154.423 149.03 153.829 149.216 153.037 149.216ZM158.785 149.216C158.053 149.216 157.495 149.024 157.111 148.64C156.739 148.256 156.553 147.704 156.553 146.984V141.962H155.113V140.306H156.553V137.93H158.443V140.306H160.207V141.962H158.443V146.516C158.443 146.828 158.515 147.08 158.659 147.272C158.803 147.452 159.007 147.542 159.271 147.542C159.655 147.542 159.937 147.44 160.117 147.236L160.567 148.658C160.171 149.03 159.577 149.216 158.785 149.216ZM166.603 149.216C165.451 149.216 164.521 148.742 163.813 147.794V152.312H161.923V140.306H163.813V141.494C164.509 140.558 165.439 140.09 166.603 140.09C167.743 140.09 168.667 140.498 169.375 141.314C170.095 142.13 170.455 143.24 170.455 144.644C170.455 146.048 170.095 147.164 169.375 147.992C168.667 148.808 167.743 149.216 166.603 149.216ZM166.045 147.542C166.789 147.542 167.383 147.272 167.827 146.732C168.271 146.192 168.493 145.496 168.493 144.644C168.493 143.792 168.271 143.102 167.827 142.574C167.383 142.034 166.789 141.764 166.045 141.764C165.613 141.764 165.187 141.878 164.767 142.106C164.347 142.334 164.029 142.61 163.813 142.934V146.372C164.029 146.696 164.347 146.972 164.767 147.2C165.187 147.428 165.613 147.542 166.045 147.542ZM175.299 149.216C173.739 149.216 172.497 148.766 171.573 147.866L172.437 146.498C172.761 146.834 173.199 147.122 173.751 147.362C174.303 147.602 174.849 147.722 175.389 147.722C175.941 147.722 176.361 147.614 176.649 147.398C176.949 147.182 177.099 146.9 177.099 146.552C177.099 146.24 176.919 146 176.559 145.832C176.199 145.652 175.761 145.514 175.245 145.418C174.729 145.31 174.213 145.184 173.697 145.04C173.181 144.884 172.743 144.614 172.383 144.23C172.023 143.846 171.843 143.348 171.843 142.736C171.843 141.992 172.149 141.368 172.761 140.864C173.373 140.348 174.207 140.09 175.263 140.09C176.595 140.09 177.723 140.498 178.647 141.314L177.855 142.646C177.579 142.334 177.213 142.082 176.757 141.89C176.301 141.698 175.809 141.602 175.281 141.602C174.789 141.602 174.393 141.704 174.093 141.908C173.805 142.1 173.661 142.352 173.661 142.664C173.661 142.904 173.787 143.102 174.039 143.258C174.303 143.402 174.627 143.51 175.011 143.582C175.407 143.654 175.833 143.756 176.289 143.888C176.745 144.008 177.165 144.152 177.549 144.32C177.945 144.488 178.269 144.764 178.521 145.148C178.785 145.52 178.917 145.976 178.917 146.516C178.917 147.308 178.599 147.956 177.963 148.46C177.327 148.964 176.439 149.216 175.299 149.216ZM182.674 142.322C182.422 142.574 182.128 142.7 181.792 142.7C181.456 142.7 181.162 142.574 180.91 142.322C180.658 142.07 180.532 141.776 180.532 141.44C180.532 141.104 180.658 140.81 180.91 140.558C181.162 140.306 181.456 140.18 181.792 140.18C182.128 140.18 182.422 140.306 182.674 140.558C182.926 140.81 183.052 141.104 183.052 141.44C183.052 141.776 182.926 142.07 182.674 142.322ZM182.674 148.838C182.422 149.078 182.128 149.198 181.792 149.198C181.456 149.198 181.162 149.078 180.91 148.838C180.658 148.586 180.532 148.286 180.532 147.938C180.532 147.59 180.658 147.296 180.91 147.056C181.162 146.804 181.456 146.678 181.792 146.678C182.128 146.678 182.422 146.804 182.674 147.056C182.926 147.296 183.052 147.59 183.052 147.938C183.052 148.286 182.926 148.586 182.674 148.838ZM185.412 149.36H184.008L188.274 136.634H189.678L185.412 149.36ZM191.09 149.36H189.686L193.952 136.634H195.356L191.09 149.36ZM200.601 149.216C199.281 149.216 198.189 148.796 197.325 147.956C196.473 147.104 196.047 146 196.047 144.644C196.047 143.372 196.461 142.298 197.289 141.422C198.129 140.534 199.185 140.09 200.457 140.09C201.741 140.09 202.773 140.534 203.553 141.422C204.345 142.31 204.741 143.444 204.741 144.824V145.274H198.027C198.099 145.958 198.381 146.528 198.873 146.984C199.365 147.44 200.007 147.668 200.799 147.668C201.243 147.668 201.687 147.584 202.131 147.416C202.587 147.248 202.965 147.014 203.265 146.714L204.129 147.956C203.253 148.796 202.077 149.216 200.601 149.216ZM202.905 143.942C202.881 143.342 202.659 142.808 202.239 142.34C201.831 141.872 201.237 141.638 200.457 141.638C199.713 141.638 199.131 141.872 198.711 142.34C198.291 142.796 198.057 143.33 198.009 143.942H202.905ZM214.365 149H212.475V143.564C212.475 142.364 211.893 141.764 210.729 141.764C210.273 141.764 209.847 141.878 209.451 142.106C209.055 142.334 208.737 142.61 208.497 142.934V149H206.607V140.306H208.497V141.494C208.821 141.11 209.253 140.78 209.793 140.504C210.333 140.228 210.921 140.09 211.557 140.09C212.481 140.09 213.177 140.33 213.645 140.81C214.125 141.29 214.365 141.98 214.365 142.88V149ZM220.348 152.528C218.872 152.528 217.66 152.096 216.712 151.232L217.594 149.864C218.242 150.608 219.16 150.98 220.348 150.98C221.068 150.98 221.674 150.788 222.166 150.404C222.67 150.032 222.922 149.438 222.922 148.622V147.578C222.178 148.538 221.248 149.018 220.132 149.018C218.992 149.018 218.062 148.622 217.342 147.83C216.634 147.038 216.28 145.946 216.28 144.554C216.28 143.174 216.634 142.088 217.342 141.296C218.062 140.492 218.992 140.09 220.132 140.09C221.272 140.09 222.202 140.564 222.922 141.512V140.306H224.812V148.55C224.812 149.294 224.68 149.936 224.416 150.476C224.164 151.028 223.816 151.442 223.372 151.718C222.928 152.006 222.454 152.21 221.95 152.33C221.458 152.462 220.924 152.528 220.348 152.528ZM220.69 147.344C221.122 147.344 221.548 147.23 221.968 147.002C222.388 146.774 222.706 146.498 222.922 146.174V142.934C222.706 142.61 222.388 142.334 221.968 142.106C221.548 141.878 221.122 141.764 220.69 141.764C219.946 141.764 219.352 142.022 218.908 142.538C218.464 143.042 218.242 143.714 218.242 144.554C218.242 145.394 218.464 146.072 218.908 146.588C219.352 147.092 219.946 147.344 220.69 147.344ZM228.197 139.244C227.885 139.244 227.609 139.13 227.369 138.902C227.141 138.674 227.027 138.398 227.027 138.074C227.027 137.75 227.141 137.474 227.369 137.246C227.609 137.018 227.885 136.904 228.197 136.904C228.521 136.904 228.797 137.018 229.025 137.246C229.253 137.474 229.367 137.75 229.367 138.074C229.367 138.398 229.253 138.674 229.025 138.902C228.797 139.13 228.521 139.244 228.197 139.244ZM229.151 149H227.261V140.306H229.151V149ZM239.361 149H237.471V143.564C237.471 142.364 236.889 141.764 235.725 141.764C235.269 141.764 234.843 141.878 234.447 142.106C234.051 142.334 233.733 142.61 233.493 142.934V149H231.603V140.306H233.493V141.494C233.817 141.11 234.249 140.78 234.789 140.504C235.329 140.228 235.917 140.09 236.553 140.09C237.477 140.09 238.173 140.33 238.641 140.81C239.121 141.29 239.361 141.98 239.361 142.88V149ZM245.83 149.216C244.51 149.216 243.418 148.796 242.554 147.956C241.702 147.104 241.276 146 241.276 144.644C241.276 143.372 241.69 142.298 242.518 141.422C243.358 140.534 244.414 140.09 245.686 140.09C246.97 140.09 248.002 140.534 248.782 141.422C249.574 142.31 249.97 143.444 249.97 144.824V145.274H243.256C243.328 145.958 243.61 146.528 244.102 146.984C244.594 147.44 245.236 147.668 246.028 147.668C246.472 147.668 246.916 147.584 247.36 147.416C247.816 147.248 248.194 147.014 248.494 146.714L249.358 147.956C248.482 148.796 247.306 149.216 245.83 149.216ZM248.134 143.942C248.11 143.342 247.888 142.808 247.468 142.34C247.06 141.872 246.466 141.638 245.686 141.638C244.942 141.638 244.36 141.872 243.94 142.34C243.52 142.796 243.286 143.33 243.238 143.942H248.134ZM253.601 148.838C253.349 149.078 253.055 149.198 252.719 149.198C252.383 149.198 252.089 149.078 251.837 148.838C251.585 148.586 251.459 148.286 251.459 147.938C251.459 147.59 251.585 147.296 251.837 147.056C252.089 146.804 252.383 146.678 252.719 146.678C253.055 146.678 253.349 146.804 253.601 147.056C253.853 147.296 253.979 147.59 253.979 147.938C253.979 148.286 253.853 148.586 253.601 148.838ZM258.05 146.39C258.254 146.714 258.566 146.99 258.986 147.218C259.418 147.434 259.85 147.542 260.282 147.542C261.026 147.542 261.62 147.278 262.064 146.75C262.52 146.21 262.748 145.514 262.748 144.662C262.748 143.81 262.52 143.114 262.064 142.574C261.62 142.034 261.026 141.764 260.282 141.764C259.85 141.764 259.424 141.878 259.004 142.106C258.584 142.334 258.266 142.616 258.05 142.952V146.39ZM258.05 149H256.16V136.994H258.05V141.512C258.758 140.564 259.688 140.09 260.84 140.09C261.968 140.09 262.892 140.51 263.612 141.35C264.332 142.178 264.692 143.282 264.692 144.662C264.692 146.066 264.332 147.176 263.612 147.992C262.892 148.808 261.968 149.216 260.84 149.216C259.7 149.216 258.77 148.748 258.05 147.812V149ZM273.819 149H271.929V148.064C271.257 148.832 270.321 149.216 269.121 149.216C268.329 149.216 267.627 148.964 267.015 148.46C266.403 147.944 266.097 147.236 266.097 146.336C266.097 145.412 266.397 144.71 266.997 144.23C267.609 143.75 268.317 143.51 269.121 143.51C270.357 143.51 271.293 143.882 271.929 144.626V143.33C271.929 142.826 271.743 142.43 271.371 142.142C270.999 141.854 270.507 141.71 269.895 141.71C268.923 141.71 268.065 142.076 267.321 142.808L266.547 141.494C267.531 140.558 268.749 140.09 270.201 140.09C271.269 140.09 272.139 140.342 272.811 140.846C273.483 141.35 273.819 142.148 273.819 143.24V149ZM269.859 147.92C270.807 147.92 271.497 147.62 271.929 147.02V145.706C271.497 145.106 270.807 144.806 269.859 144.806C269.319 144.806 268.875 144.95 268.527 145.238C268.179 145.526 268.005 145.904 268.005 146.372C268.005 146.84 268.179 147.218 268.527 147.506C268.875 147.782 269.319 147.92 269.859 147.92ZM284.027 149H282.137V143.564C282.137 142.364 281.555 141.764 280.391 141.764C279.935 141.764 279.509 141.878 279.113 142.106C278.717 142.334 278.399 142.61 278.159 142.934V149H276.269V140.306H278.159V141.494C278.483 141.11 278.915 140.78 279.455 140.504C279.995 140.228 280.583 140.09 281.219 140.09C282.143 140.09 282.839 140.33 283.307 140.81C283.787 141.29 284.027 141.98 284.027 142.88V149ZM293.682 149H291.792V148.064C291.12 148.832 290.184 149.216 288.984 149.216C288.192 149.216 287.49 148.964 286.878 148.46C286.266 147.944 285.96 147.236 285.96 146.336C285.96 145.412 286.26 144.71 286.86 144.23C287.472 143.75 288.18 143.51 288.984 143.51C290.22 143.51 291.156 143.882 291.792 144.626V143.33C291.792 142.826 291.606 142.43 291.234 142.142C290.862 141.854 290.37 141.71 289.758 141.71C288.786 141.71 287.928 142.076 287.184 142.808L286.41 141.494C287.394 140.558 288.612 140.09 290.064 140.09C291.132 140.09 292.002 140.342 292.674 140.846C293.346 141.35 293.682 142.148 293.682 143.24V149ZM289.722 147.92C290.67 147.92 291.36 147.62 291.792 147.02V145.706C291.36 145.106 290.67 144.806 289.722 144.806C289.182 144.806 288.738 144.95 288.39 145.238C288.042 145.526 287.868 145.904 287.868 146.372C287.868 146.84 288.042 147.218 288.39 147.506C288.738 147.782 289.182 147.92 289.722 147.92ZM298.022 146.39C298.226 146.714 298.538 146.99 298.958 147.218C299.39 147.434 299.822 147.542 300.254 147.542C300.998 147.542 301.592 147.278 302.036 146.75C302.492 146.21 302.72 145.514 302.72 144.662C302.72 143.81 302.492 143.114 302.036 142.574C301.592 142.034 300.998 141.764 300.254 141.764C299.822 141.764 299.396 141.878 298.976 142.106C298.556 142.334 298.238 142.616 298.022 142.952V146.39ZM298.022 149H296.132V136.994H298.022V141.512C298.73 140.564 299.66 140.09 300.812 140.09C301.94 140.09 302.864 140.51 303.584 141.35C304.304 142.178 304.664 143.282 304.664 144.662C304.664 146.066 304.304 147.176 303.584 147.992C302.864 148.808 301.94 149.216 300.812 149.216C299.672 149.216 298.742 148.748 298.022 147.812V149ZM310.515 149.216C309.171 149.216 308.091 148.778 307.275 147.902C306.459 147.014 306.051 145.928 306.051 144.644C306.051 143.36 306.459 142.28 307.275 141.404C308.091 140.528 309.171 140.09 310.515 140.09C311.871 140.09 312.957 140.528 313.773 141.404C314.589 142.28 314.997 143.36 314.997 144.644C314.997 145.94 314.589 147.026 313.773 147.902C312.957 148.778 311.871 149.216 310.515 149.216ZM310.515 147.542C311.295 147.542 311.907 147.266 312.351 146.714C312.807 146.15 313.035 145.46 313.035 144.644C313.035 143.84 312.807 143.162 312.351 142.61C311.907 142.046 311.295 141.764 310.515 141.764C309.747 141.764 309.135 142.046 308.679 142.61C308.235 143.162 308.013 143.84 308.013 144.644C308.013 145.46 308.235 146.15 308.679 146.714C309.135 147.266 309.747 147.542 310.515 147.542ZM318.676 148.838C318.424 149.078 318.13 149.198 317.794 149.198C317.458 149.198 317.164 149.078 316.912 148.838C316.66 148.586 316.534 148.286 316.534 147.938C316.534 147.59 316.66 147.296 316.912 147.056C317.164 146.804 317.458 146.678 317.794 146.678C318.13 146.678 318.424 146.804 318.676 147.056C318.928 147.296 319.054 147.59 319.054 147.938C319.054 148.286 318.928 148.586 318.676 148.838ZM322.17 139.244C321.858 139.244 321.582 139.13 321.342 138.902C321.114 138.674 321 138.398 321 138.074C321 137.75 321.114 137.474 321.342 137.246C321.582 137.018 321.858 136.904 322.17 136.904C322.494 136.904 322.77 137.018 322.998 137.246C323.226 137.474 323.34 137.75 323.34 138.074C323.34 138.398 323.226 138.674 322.998 138.902C322.77 139.13 322.494 139.244 322.17 139.244ZM323.124 149H321.234V140.306H323.124V149ZM329.5 149.216C328.156 149.216 327.076 148.778 326.26 147.902C325.444 147.014 325.036 145.928 325.036 144.644C325.036 143.36 325.444 142.28 326.26 141.404C327.076 140.528 328.156 140.09 329.5 140.09C330.856 140.09 331.942 140.528 332.758 141.404C333.574 142.28 333.982 143.36 333.982 144.644C333.982 145.94 333.574 147.026 332.758 147.902C331.942 148.778 330.856 149.216 329.5 149.216ZM329.5 147.542C330.28 147.542 330.892 147.266 331.336 146.714C331.792 146.15 332.02 145.46 332.02 144.644C332.02 143.84 331.792 143.162 331.336 142.61C330.892 142.046 330.28 141.764 329.5 141.764C328.732 141.764 328.12 142.046 327.664 142.61C327.22 143.162 326.998 143.84 326.998 144.644C326.998 145.46 327.22 146.15 327.664 146.714C328.12 147.266 328.732 147.542 329.5 147.542ZM336.074 149.36H334.67L338.936 136.634H340.34L336.074 149.36ZM345.586 149.216C344.266 149.216 343.174 148.796 342.31 147.956C341.458 147.104 341.032 146 341.032 144.644C341.032 143.372 341.446 142.298 342.274 141.422C343.114 140.534 344.17 140.09 345.442 140.09C346.726 140.09 347.758 140.534 348.538 141.422C349.33 142.31 349.726 143.444 349.726 144.824V145.274H343.012C343.084 145.958 343.366 146.528 343.858 146.984C344.35 147.44 344.992 147.668 345.784 147.668C346.228 147.668 346.672 147.584 347.116 147.416C347.572 147.248 347.95 147.014 348.25 146.714L349.114 147.956C348.238 148.796 347.062 149.216 345.586 149.216ZM347.89 143.942C347.866 143.342 347.644 142.808 347.224 142.34C346.816 141.872 346.222 141.638 345.442 141.638C344.698 141.638 344.116 141.872 343.696 142.34C343.276 142.796 343.042 143.33 342.994 143.942H347.89ZM364.137 149H362.247V143.33C362.247 142.286 361.773 141.764 360.825 141.764C360.429 141.764 360.045 141.878 359.673 142.106C359.301 142.334 359.013 142.604 358.809 142.916V149H356.919V143.33C356.919 142.286 356.439 141.764 355.479 141.764C355.095 141.764 354.717 141.878 354.345 142.106C353.985 142.334 353.697 142.61 353.481 142.934V149H351.591V140.306H353.481V141.494C353.697 141.17 354.069 140.858 354.597 140.558C355.137 140.246 355.707 140.09 356.307 140.09C357.567 140.09 358.359 140.624 358.683 141.692C358.959 141.26 359.367 140.888 359.907 140.576C360.447 140.252 361.023 140.09 361.635 140.09C363.303 140.09 364.137 140.966 364.137 142.718V149ZM368.475 146.39C368.679 146.714 368.991 146.99 369.411 147.218C369.843 147.434 370.275 147.542 370.707 147.542C371.451 147.542 372.045 147.278 372.489 146.75C372.945 146.21 373.173 145.514 373.173 144.662C373.173 143.81 372.945 143.114 372.489 142.574C372.045 142.034 371.451 141.764 370.707 141.764C370.275 141.764 369.849 141.878 369.429 142.106C369.009 142.334 368.691 142.616 368.475 142.952V146.39ZM368.475 149H366.585V136.994H368.475V141.512C369.183 140.564 370.113 140.09 371.265 140.09C372.393 140.09 373.317 140.51 374.037 141.35C374.757 142.178 375.117 143.282 375.117 144.662C375.117 146.066 374.757 147.176 374.037 147.992C373.317 148.808 372.393 149.216 371.265 149.216C370.125 149.216 369.195 148.748 368.475 147.812V149ZM381.058 149.216C379.738 149.216 378.646 148.796 377.782 147.956C376.93 147.104 376.504 146 376.504 144.644C376.504 143.372 376.918 142.298 377.746 141.422C378.586 140.534 379.642 140.09 380.914 140.09C382.198 140.09 383.23 140.534 384.01 141.422C384.802 142.31 385.198 143.444 385.198 144.824V145.274H378.484C378.556 145.958 378.838 146.528 379.33 146.984C379.822 147.44 380.464 147.668 381.256 147.668C381.7 147.668 382.144 147.584 382.588 147.416C383.044 147.248 383.422 147.014 383.722 146.714L384.586 147.956C383.71 148.796 382.534 149.216 381.058 149.216ZM383.362 143.942C383.338 143.342 383.116 142.808 382.696 142.34C382.288 141.872 381.694 141.638 380.914 141.638C380.17 141.638 379.588 141.872 379.168 142.34C378.748 142.796 378.514 143.33 378.466 143.942H383.362ZM395.074 149H393.184V147.812C392.464 148.748 391.534 149.216 390.394 149.216C389.254 149.216 388.324 148.808 387.604 147.992C386.884 147.176 386.524 146.066 386.524 144.662C386.524 143.27 386.884 142.16 387.604 141.332C388.324 140.504 389.254 140.09 390.394 140.09C391.534 140.09 392.464 140.564 393.184 141.512V136.994H395.074V149ZM390.934 147.542C391.378 147.542 391.81 147.434 392.23 147.218C392.65 147.002 392.968 146.726 393.184 146.39V142.934C392.968 142.598 392.65 142.322 392.23 142.106C391.81 141.878 391.378 141.764 390.934 141.764C390.19 141.764 389.596 142.034 389.152 142.574C388.708 143.114 388.486 143.81 388.486 144.662C388.486 145.514 388.708 146.21 389.152 146.75C389.596 147.278 390.19 147.542 390.934 147.542ZM405.533 149H403.643V147.812C402.923 148.748 401.993 149.216 400.853 149.216C399.713 149.216 398.783 148.808 398.063 147.992C397.343 147.176 396.983 146.066 396.983 144.662C396.983 143.27 397.343 142.16 398.063 141.332C398.783 140.504 399.713 140.09 400.853 140.09C401.993 140.09 402.923 140.564 403.643 141.512V136.994H405.533V149ZM401.393 147.542C401.837 147.542 402.269 147.434 402.689 147.218C403.109 147.002 403.427 146.726 403.643 146.39V142.934C403.427 142.598 403.109 142.322 402.689 142.106C402.269 141.878 401.837 141.764 401.393 141.764C400.649 141.764 400.055 142.034 399.611 142.574C399.167 143.114 398.945 143.81 398.945 144.662C398.945 145.514 399.167 146.21 399.611 146.75C400.055 147.278 400.649 147.542 401.393 147.542ZM415.182 149H413.292V148.064C412.62 148.832 411.684 149.216 410.484 149.216C409.692 149.216 408.99 148.964 408.378 148.46C407.766 147.944 407.46 147.236 407.46 146.336C407.46 145.412 407.76 144.71 408.36 144.23C408.972 143.75 409.68 143.51 410.484 143.51C411.72 143.51 412.656 143.882 413.292 144.626V143.33C413.292 142.826 413.106 142.43 412.734 142.142C412.362 141.854 411.87 141.71 411.258 141.71C410.286 141.71 409.428 142.076 408.684 142.808L407.91 141.494C408.894 140.558 410.112 140.09 411.564 140.09C412.632 140.09 413.502 140.342 414.174 140.846C414.846 141.35 415.182 142.148 415.182 143.24V149ZM411.222 147.92C412.17 147.92 412.86 147.62 413.292 147.02V145.706C412.86 145.106 412.17 144.806 411.222 144.806C410.682 144.806 410.238 144.95 409.89 145.238C409.542 145.526 409.368 145.904 409.368 146.372C409.368 146.84 409.542 147.218 409.89 147.506C410.238 147.782 410.682 147.92 411.222 147.92ZM419.522 146.39C419.726 146.714 420.038 146.99 420.458 147.218C420.89 147.434 421.322 147.542 421.754 147.542C422.498 147.542 423.092 147.278 423.536 146.75C423.992 146.21 424.22 145.514 424.22 144.662C424.22 143.81 423.992 143.114 423.536 142.574C423.092 142.034 422.498 141.764 421.754 141.764C421.322 141.764 420.896 141.878 420.476 142.106C420.056 142.334 419.738 142.616 419.522 142.952V146.39ZM419.522 149H417.632V136.994H419.522V141.512C420.23 140.564 421.16 140.09 422.312 140.09C423.44 140.09 424.364 140.51 425.084 141.35C425.804 142.178 426.164 143.282 426.164 144.662C426.164 146.066 425.804 147.176 425.084 147.992C424.364 148.808 423.44 149.216 422.312 149.216C421.172 149.216 420.242 148.748 419.522 147.812V149ZM429.981 149H428.091V136.994H429.981V149ZM436.447 149.216C435.127 149.216 434.035 148.796 433.171 147.956C432.319 147.104 431.893 146 431.893 144.644C431.893 143.372 432.307 142.298 433.135 141.422C433.975 140.534 435.031 140.09 436.303 140.09C437.587 140.09 438.619 140.534 439.399 141.422C440.191 142.31 440.587 143.444 440.587 144.824V145.274H433.873C433.945 145.958 434.227 146.528 434.719 146.984C435.211 147.44 435.853 147.668 436.645 147.668C437.089 147.668 437.533 147.584 437.977 147.416C438.433 147.248 438.811 147.014 439.111 146.714L439.975 147.956C439.099 148.796 437.923 149.216 436.447 149.216ZM438.751 143.942C438.727 143.342 438.505 142.808 438.085 142.34C437.677 141.872 437.083 141.638 436.303 141.638C435.559 141.638 434.977 141.872 434.557 142.34C434.137 142.796 433.903 143.33 433.855 143.942H438.751ZM442.633 149.36H441.229L445.495 136.634H446.899L442.633 149.36ZM449.066 139.244C448.754 139.244 448.478 139.13 448.238 138.902C448.01 138.674 447.896 138.398 447.896 138.074C447.896 137.75 448.01 137.474 448.238 137.246C448.478 137.018 448.754 136.904 449.066 136.904C449.39 136.904 449.666 137.018 449.894 137.246C450.122 137.474 450.236 137.75 450.236 138.074C450.236 138.398 450.122 138.674 449.894 138.902C449.666 139.13 449.39 139.244 449.066 139.244ZM450.02 149H448.13V140.306H450.02V149ZM460.23 149H458.34V143.564C458.34 142.364 457.758 141.764 456.594 141.764C456.138 141.764 455.712 141.878 455.316 142.106C454.92 142.334 454.602 142.61 454.362 142.934V149H452.472V140.306H454.362V141.494C454.686 141.11 455.118 140.78 455.658 140.504C456.198 140.228 456.786 140.09 457.422 140.09C458.346 140.09 459.042 140.33 459.51 140.81C459.99 141.29 460.23 141.98 460.23 142.88V149ZM470.695 149H468.805V147.812C468.085 148.748 467.155 149.216 466.015 149.216C464.875 149.216 463.945 148.808 463.225 147.992C462.505 147.176 462.145 146.066 462.145 144.662C462.145 143.27 462.505 142.16 463.225 141.332C463.945 140.504 464.875 140.09 466.015 140.09C467.155 140.09 468.085 140.564 468.805 141.512V136.994H470.695V149ZM466.555 147.542C466.999 147.542 467.431 147.434 467.851 147.218C468.271 147.002 468.589 146.726 468.805 146.39V142.934C468.589 142.598 468.271 142.322 467.851 142.106C467.431 141.878 466.999 141.764 466.555 141.764C465.811 141.764 465.217 142.034 464.773 142.574C464.329 143.114 464.107 143.81 464.107 144.662C464.107 145.514 464.329 146.21 464.773 146.75C465.217 147.278 465.811 147.542 466.555 147.542ZM477.158 149.216C475.838 149.216 474.746 148.796 473.882 147.956C473.03 147.104 472.604 146 472.604 144.644C472.604 143.372 473.018 142.298 473.846 141.422C474.686 140.534 475.742 140.09 477.014 140.09C478.298 140.09 479.33 140.534 480.11 141.422C480.902 142.31 481.298 143.444 481.298 144.824V145.274H474.584C474.656 145.958 474.938 146.528 475.43 146.984C475.922 147.44 476.564 147.668 477.356 147.668C477.8 147.668 478.244 147.584 478.688 147.416C479.144 147.248 479.522 147.014 479.822 146.714L480.686 147.956C479.81 148.796 478.634 149.216 477.158 149.216ZM479.462 143.942C479.438 143.342 479.216 142.808 478.796 142.34C478.388 141.872 477.794 141.638 477.014 141.638C476.27 141.638 475.688 141.872 475.268 142.34C474.848 142.796 474.614 143.33 474.566 143.942H479.462ZM490.777 149H488.653L486.403 145.796L484.135 149H482.029L485.215 144.536L482.209 140.306H484.333L486.403 143.258L488.455 140.306H490.579L487.573 144.536L490.777 149ZM493.947 148.838C493.695 149.078 493.401 149.198 493.065 149.198C492.729 149.198 492.435 149.078 492.183 148.838C491.931 148.586 491.805 148.286 491.805 147.938C491.805 147.59 491.931 147.296 492.183 147.056C492.435 146.804 492.729 146.678 493.065 146.678C493.401 146.678 493.695 146.804 493.947 147.056C494.199 147.296 494.325 147.59 494.325 147.938C494.325 148.286 494.199 148.586 493.947 148.838ZM498.162 139.244C497.85 139.244 497.574 139.13 497.334 138.902C497.106 138.674 496.992 138.398 496.992 138.074C496.992 137.75 497.106 137.474 497.334 137.246C497.574 137.018 497.85 136.904 498.162 136.904C498.486 136.904 498.762 137.018 498.99 137.246C499.218 137.474 499.332 137.75 499.332 138.074C499.332 138.398 499.218 138.674 498.99 138.902C498.762 139.13 498.486 139.244 498.162 139.244ZM496.236 152.528C495.756 152.528 495.372 152.48 495.084 152.384C494.796 152.288 494.496 152.126 494.184 151.898L494.742 150.494C495.102 150.818 495.504 150.98 495.948 150.98C496.332 150.98 496.638 150.854 496.866 150.602C497.106 150.362 497.226 149.996 497.226 149.504V140.306H499.116V149.504C499.116 150.452 498.87 151.19 498.378 151.718C497.886 152.258 497.172 152.528 496.236 152.528ZM504.538 149.216C502.978 149.216 501.736 148.766 500.812 147.866L501.676 146.498C502 146.834 502.438 147.122 502.99 147.362C503.542 147.602 504.088 147.722 504.628 147.722C505.18 147.722 505.6 147.614 505.888 147.398C506.188 147.182 506.338 146.9 506.338 146.552C506.338 146.24 506.158 146 505.798 145.832C505.438 145.652 505 145.514 504.484 145.418C503.968 145.31 503.452 145.184 502.936 145.04C502.42 144.884 501.982 144.614 501.622 144.23C501.262 143.846 501.082 143.348 501.082 142.736C501.082 141.992 501.388 141.368 502 140.864C502.612 140.348 503.446 140.09 504.502 140.09C505.834 140.09 506.962 140.498 507.886 141.314L507.094 142.646C506.818 142.334 506.452 142.082 505.996 141.89C505.54 141.698 505.048 141.602 504.52 141.602C504.028 141.602 503.632 141.704 503.332 141.908C503.044 142.1 502.9 142.352 502.9 142.664C502.9 142.904 503.026 143.102 503.278 143.258C503.542 143.402 503.866 143.51 504.25 143.582C504.646 143.654 505.072 143.756 505.528 143.888C505.984 144.008 506.404 144.152 506.788 144.32C507.184 144.488 507.508 144.764 507.76 145.148C508.024 145.52 508.156 145.976 508.156 146.516C508.156 147.308 507.838 147.956 507.202 148.46C506.566 148.964 505.678 149.216 504.538 149.216ZM510.84 141.962H509.976C509.556 139.442 509.346 138.08 509.346 137.876C509.346 137.588 509.448 137.342 509.652 137.138C509.856 136.922 510.108 136.814 510.408 136.814C510.696 136.814 510.942 136.922 511.146 137.138C511.362 137.342 511.47 137.588 511.47 137.876L510.84 141.962ZM513.81 141.962H512.964C512.544 139.442 512.334 138.08 512.334 137.876C512.334 137.588 512.436 137.342 512.64 137.138C512.844 136.922 513.096 136.814 513.396 136.814C513.684 136.814 513.93 136.922 514.134 137.138C514.338 137.342 514.44 137.588 514.44 137.876L513.81 141.962Z" fill="#AD6B31"/>
<path d="M199.109 45H196.715L195.833 42.696H190.325L189.443 45H187.049L191.765 32.994H194.393L199.109 45ZM195.239 40.842L193.079 35.118L190.919 40.842H195.239ZM205.047 45.216C203.895 45.216 202.965 44.742 202.257 43.794V48.312H200.367V36.306H202.257V37.494C202.953 36.558 203.883 36.09 205.047 36.09C206.187 36.09 207.111 36.498 207.819 37.314C208.539 38.13 208.899 39.24 208.899 40.644C208.899 42.048 208.539 43.164 207.819 43.992C207.111 44.808 206.187 45.216 205.047 45.216ZM204.489 43.542C205.233 43.542 205.827 43.272 206.271 42.732C206.715 42.192 206.937 41.496 206.937 40.644C206.937 39.792 206.715 39.102 206.271 38.574C205.827 38.034 205.233 37.764 204.489 37.764C204.057 37.764 203.631 37.878 203.211 38.106C202.791 38.334 202.473 38.61 202.257 38.934V42.372C202.473 42.696 202.791 42.972 203.211 43.2C203.631 43.428 204.057 43.542 204.489 43.542ZM215.453 45.216C214.301 45.216 213.371 44.742 212.663 43.794V48.312H210.773V36.306H212.663V37.494C213.359 36.558 214.289 36.09 215.453 36.09C216.593 36.09 217.517 36.498 218.225 37.314C218.945 38.13 219.305 39.24 219.305 40.644C219.305 42.048 218.945 43.164 218.225 43.992C217.517 44.808 216.593 45.216 215.453 45.216ZM214.895 43.542C215.639 43.542 216.233 43.272 216.677 42.732C217.121 42.192 217.343 41.496 217.343 40.644C217.343 39.792 217.121 39.102 216.677 38.574C216.233 38.034 215.639 37.764 214.895 37.764C214.463 37.764 214.037 37.878 213.617 38.106C213.197 38.334 212.879 38.61 212.663 38.934V42.372C212.879 42.696 213.197 42.972 213.617 43.2C214.037 43.428 214.463 43.542 214.895 43.542ZM224.599 47.682L223.429 48.582C222.577 47.55 221.911 46.332 221.431 44.928C220.951 43.512 220.711 42.078 220.711 40.626C220.711 39.186 220.951 37.764 221.431 36.36C221.911 34.944 222.577 33.714 223.429 32.67L224.599 33.552C223.975 34.728 223.513 35.862 223.213 36.954C222.913 38.046 222.763 39.27 222.763 40.626C222.763 41.982 222.913 43.206 223.213 44.298C223.513 45.39 223.975 46.518 224.599 47.682ZM226.406 48.582L225.236 47.682C225.872 46.518 226.34 45.39 226.64 44.298C226.94 43.206 227.09 41.982 227.09 40.626C227.09 39.27 226.94 38.046 226.64 36.954C226.34 35.862 225.872 34.728 225.236 33.552L226.406 32.67C227.258 33.714 227.924 34.938 228.404 36.342C228.896 37.746 229.142 39.174 229.142 40.626C229.142 42.078 228.896 43.512 228.404 44.928C227.924 46.332 227.258 47.55 226.406 48.582ZM103.633 149.216C102.073 149.216 100.831 148.766 99.9075 147.866L100.771 146.498C101.095 146.834 101.533 147.122 102.085 147.362C102.637 147.602 103.183 147.722 103.723 147.722C104.275 147.722 104.695 147.614 104.983 147.398C105.283 147.182 105.433 146.9 105.433 146.552C105.433 146.24 105.253 146 104.893 145.832C104.533 145.652 104.095 145.514 103.579 145.418C103.063 145.31 102.547 145.184 102.031 145.04C101.515 144.884 101.077 144.614 100.717 144.23C100.357 143.846 100.177 143.348 100.177 142.736C100.177 141.992 100.483 141.368 101.095 140.864C101.707 140.348 102.541 140.09 103.597 140.09C104.929 140.09 106.057 140.498 106.981 141.314L106.189 142.646C105.913 142.334 105.547 142.082 105.091 141.89C104.635 141.698 104.143 141.602 103.615 141.602C103.123 141.602 102.727 141.704 102.427 141.908C102.139 142.1 101.995 142.352 101.995 142.664C101.995 142.904 102.121 143.102 102.373 143.258C102.637 143.402 102.961 143.51 103.345 143.582C103.741 143.654 104.167 143.756 104.623 143.888C105.079 144.008 105.499 144.152 105.883 144.32C106.279 144.488 106.603 144.764 106.855 145.148C107.119 145.52 107.251 145.976 107.251 146.516C107.251 147.308 106.933 147.956 106.297 148.46C105.661 148.964 104.773 149.216 103.633 149.216ZM111.044 149H109.154V140.306H111.044V141.584C111.38 141.152 111.8 140.798 112.304 140.522C112.808 140.246 113.33 140.108 113.87 140.108V141.98C113.702 141.944 113.504 141.926 113.276 141.926C112.88 141.926 112.454 142.046 111.998 142.286C111.554 142.514 111.236 142.778 111.044 143.078V149ZM119.354 149.216C118.034 149.216 116.954 148.79 116.114 147.938C115.274 147.074 114.854 145.976 114.854 144.644C114.854 143.324 115.274 142.238 116.114 141.386C116.954 140.522 118.034 140.09 119.354 140.09C120.806 140.09 121.916 140.606 122.684 141.638L121.442 142.79C120.962 142.106 120.296 141.764 119.444 141.764C118.652 141.764 118.016 142.034 117.536 142.574C117.056 143.102 116.816 143.792 116.816 144.644C116.816 145.496 117.056 146.192 117.536 146.732C118.016 147.272 118.652 147.542 119.444 147.542C120.272 147.542 120.938 147.2 121.442 146.516L122.684 147.668C121.916 148.7 120.806 149.216 119.354 149.216Z" fill="#008A3A"/>
</svg>
