<svg width="525" height="26" viewBox="0 0 525 26" fill="none" xmlns="http://www.w3.org/2000/svg">
<path d="M1.846 22.402L2.134 20.71C2.35 20.806 2.59 20.854 2.854 20.854C3.466 20.854 3.88 20.602 4.096 20.098L4.528 19.108L0.964 10.306H2.98L5.518 16.822L8.056 10.306H10.09L5.896 20.566C5.38 21.85 4.384 22.504 2.908 22.528C2.512 22.528 2.158 22.486 1.846 22.402ZM18.4767 19H16.5867V18.064C15.9147 18.832 14.9787 19.216 13.7787 19.216C12.9867 19.216 12.2847 18.964 11.6727 18.46C11.0607 17.944 10.7547 17.236 10.7547 16.336C10.7547 15.412 11.0547 14.71 11.6547 14.23C12.2667 13.75 12.9747 13.51 13.7787 13.51C15.0147 13.51 15.9507 13.882 16.5867 14.626V13.33C16.5867 12.826 16.4007 12.43 16.0287 12.142C15.6567 11.854 15.1647 11.71 14.5527 11.71C13.5807 11.71 12.7227 12.076 11.9787 12.808L11.2047 11.494C12.1887 10.558 13.4067 10.09 14.8587 10.09C15.9267 10.09 16.7967 10.342 17.4687 10.846C18.1407 11.35 18.4767 12.148 18.4767 13.24V19ZM14.5167 17.92C15.4647 17.92 16.1547 17.62 16.5867 17.02V15.706C16.1547 15.106 15.4647 14.806 14.5167 14.806C13.9767 14.806 13.5327 14.95 13.1847 15.238C12.8367 15.526 12.6627 15.904 12.6627 16.372C12.6627 16.84 12.8367 17.218 13.1847 17.506C13.5327 17.782 13.9767 17.92 14.5167 17.92ZM22.8171 19H20.9271V10.306H22.8171V11.584C23.1531 11.152 23.5731 10.798 24.0771 10.522C24.5811 10.246 25.1031 10.108 25.6431 10.108V11.98C25.4751 11.944 25.2771 11.926 25.0491 11.926C24.6531 11.926 24.2271 12.046 23.7711 12.286C23.3271 12.514 23.0091 12.778 22.8171 13.078V19ZM34.9254 19H33.0354V13.564C33.0354 12.364 32.4534 11.764 31.2894 11.764C30.8334 11.764 30.4074 11.878 30.0114 12.106C29.6154 12.334 29.2974 12.61 29.0574 12.934V19H27.1674V10.306H29.0574V11.494C29.3814 11.11 29.8134 10.78 30.3534 10.504C30.8934 10.228 31.4814 10.09 32.1174 10.09C33.0414 10.09 33.7374 10.33 34.2054 10.81C34.6854 11.29 34.9254 11.98 34.9254 12.88V19ZM49.2033 19H47.3133V18.064C46.6413 18.832 45.7053 19.216 44.5053 19.216C43.7133 19.216 43.0113 18.964 42.3993 18.46C41.7873 17.944 41.4813 17.236 41.4813 16.336C41.4813 15.412 41.7813 14.71 42.3813 14.23C42.9933 13.75 43.7013 13.51 44.5053 13.51C45.7413 13.51 46.6773 13.882 47.3133 14.626V13.33C47.3133 12.826 47.1273 12.43 46.7553 12.142C46.3833 11.854 45.8913 11.71 45.2793 11.71C44.3073 11.71 43.4493 12.076 42.7053 12.808L41.9313 11.494C42.9153 10.558 44.1333 10.09 45.5853 10.09C46.6533 10.09 47.5233 10.342 48.1953 10.846C48.8673 11.35 49.2033 12.148 49.2033 13.24V19ZM45.2433 17.92C46.1913 17.92 46.8813 17.62 47.3133 17.02V15.706C46.8813 15.106 46.1913 14.806 45.2433 14.806C44.7033 14.806 44.2593 14.95 43.9113 15.238C43.5633 15.526 43.3893 15.904 43.3893 16.372C43.3893 16.84 43.5633 17.218 43.9113 17.506C44.2593 17.782 44.7033 17.92 45.2433 17.92ZM59.6637 19H57.7737V17.812C57.0537 18.748 56.1237 19.216 54.9837 19.216C53.8437 19.216 52.9137 18.808 52.1937 17.992C51.4737 17.176 51.1137 16.066 51.1137 14.662C51.1137 13.27 51.4737 12.16 52.1937 11.332C52.9137 10.504 53.8437 10.09 54.9837 10.09C56.1237 10.09 57.0537 10.564 57.7737 11.512V6.994H59.6637V19ZM55.5237 17.542C55.9677 17.542 56.3997 17.434 56.8197 17.218C57.2397 17.002 57.5577 16.726 57.7737 16.39V12.934C57.5577 12.598 57.2397 12.322 56.8197 12.106C56.3997 11.878 55.9677 11.764 55.5237 11.764C54.7797 11.764 54.1857 12.034 53.7417 12.574C53.2977 13.114 53.0757 13.81 53.0757 14.662C53.0757 15.514 53.2977 16.21 53.7417 16.75C54.1857 17.278 54.7797 17.542 55.5237 17.542ZM70.1227 19H68.2327V17.812C67.5127 18.748 66.5827 19.216 65.4427 19.216C64.3027 19.216 63.3727 18.808 62.6527 17.992C61.9327 17.176 61.5727 16.066 61.5727 14.662C61.5727 13.27 61.9327 12.16 62.6527 11.332C63.3727 10.504 64.3027 10.09 65.4427 10.09C66.5827 10.09 67.5127 10.564 68.2327 11.512V6.994H70.1227V19ZM65.9827 17.542C66.4267 17.542 66.8587 17.434 67.2787 17.218C67.6987 17.002 68.0167 16.726 68.2327 16.39V12.934C68.0167 12.598 67.6987 12.322 67.2787 12.106C66.8587 11.878 66.4267 11.764 65.9827 11.764C65.2387 11.764 64.6447 12.034 64.2007 12.574C63.7567 13.114 63.5347 13.81 63.5347 14.662C63.5347 15.514 63.7567 16.21 64.2007 16.75C64.6447 17.278 65.2387 17.542 65.9827 17.542ZM79.0847 19H77.1947V10.306H79.0847V11.584C79.4207 11.152 79.8407 10.798 80.3447 10.522C80.8487 10.246 81.3707 10.108 81.9107 10.108V11.98C81.7427 11.944 81.5447 11.926 81.3167 11.926C80.9207 11.926 80.4947 12.046 80.0387 12.286C79.5947 12.514 79.2767 12.778 79.0847 13.078V19ZM87.4489 19.216C86.1289 19.216 85.0369 18.796 84.1729 17.956C83.3209 17.104 82.8949 16 82.8949 14.644C82.8949 13.372 83.3089 12.298 84.1369 11.422C84.9769 10.534 86.0329 10.09 87.3049 10.09C88.5889 10.09 89.6209 10.534 90.4009 11.422C91.1929 12.31 91.5889 13.444 91.5889 14.824V15.274H84.8749C84.9469 15.958 85.2289 16.528 85.7209 16.984C86.2129 17.44 86.8549 17.668 87.6469 17.668C88.0909 17.668 88.5349 17.584 88.9789 17.416C89.4349 17.248 89.8129 17.014 90.1129 16.714L90.9769 17.956C90.1009 18.796 88.9249 19.216 87.4489 19.216ZM89.7529 13.942C89.7289 13.342 89.5069 12.808 89.0869 12.34C88.6789 11.872 88.0849 11.638 87.3049 11.638C86.5609 11.638 85.9789 11.872 85.5589 12.34C85.1389 12.796 84.9049 13.33 84.8569 13.942H89.7529ZM100.654 19H98.7645V18.064C98.0925 18.832 97.1565 19.216 95.9565 19.216C95.1645 19.216 94.4625 18.964 93.8505 18.46C93.2385 17.944 92.9325 17.236 92.9325 16.336C92.9325 15.412 93.2325 14.71 93.8325 14.23C94.4445 13.75 95.1525 13.51 95.9565 13.51C97.1925 13.51 98.1285 13.882 98.7645 14.626V13.33C98.7645 12.826 98.5785 12.43 98.2065 12.142C97.8345 11.854 97.3425 11.71 96.7305 11.71C95.7585 11.71 94.9005 12.076 94.1565 12.808L93.3825 11.494C94.3665 10.558 95.5845 10.09 97.0365 10.09C98.1045 10.09 98.9745 10.342 99.6465 10.846C100.318 11.35 100.654 12.148 100.654 13.24V19ZM96.6945 17.92C97.6425 17.92 98.3325 17.62 98.7645 17.02V15.706C98.3325 15.106 97.6425 14.806 96.6945 14.806C96.1545 14.806 95.7105 14.95 95.3625 15.238C95.0145 15.526 94.8405 15.904 94.8405 16.372C94.8405 16.84 95.0145 17.218 95.3625 17.506C95.7105 17.782 96.1545 17.92 96.6945 17.92ZM107.065 19.216C105.745 19.216 104.665 18.79 103.825 17.938C102.985 17.074 102.565 15.976 102.565 14.644C102.565 13.324 102.985 12.238 103.825 11.386C104.665 10.522 105.745 10.09 107.065 10.09C108.517 10.09 109.627 10.606 110.395 11.638L109.153 12.79C108.673 12.106 108.007 11.764 107.155 11.764C106.363 11.764 105.727 12.034 105.247 12.574C104.767 13.102 104.527 13.792 104.527 14.644C104.527 15.496 104.767 16.192 105.247 16.732C105.727 17.272 106.363 17.542 107.155 17.542C107.983 17.542 108.649 17.2 109.153 16.516L110.395 17.668C109.627 18.7 108.517 19.216 107.065 19.216ZM114.662 19.216C113.93 19.216 113.372 19.024 112.988 18.64C112.616 18.256 112.43 17.704 112.43 16.984V11.962H110.99V10.306H112.43V7.93H114.32V10.306H116.084V11.962H114.32V16.516C114.32 16.828 114.392 17.08 114.536 17.272C114.68 17.452 114.884 17.542 115.148 17.542C115.532 17.542 115.814 17.44 115.994 17.236L116.444 18.658C116.048 19.03 115.454 19.216 114.662 19.216ZM130.973 19H129.083V13.528C129.083 12.892 128.927 12.442 128.615 12.178C128.315 11.902 127.883 11.764 127.319 11.764C126.875 11.764 126.455 11.878 126.059 12.106C125.663 12.334 125.339 12.61 125.087 12.934V19H123.197V6.994H125.087V11.494C125.411 11.11 125.843 10.78 126.383 10.504C126.935 10.228 127.529 10.09 128.165 10.09C130.037 10.09 130.973 11.008 130.973 12.844V19ZM137.441 19.216C136.121 19.216 135.029 18.796 134.165 17.956C133.313 17.104 132.887 16 132.887 14.644C132.887 13.372 133.301 12.298 134.129 11.422C134.969 10.534 136.025 10.09 137.297 10.09C138.581 10.09 139.613 10.534 140.393 11.422C141.185 12.31 141.581 13.444 141.581 14.824V15.274H134.867C134.939 15.958 135.221 16.528 135.713 16.984C136.205 17.44 136.847 17.668 137.639 17.668C138.083 17.668 138.527 17.584 138.971 17.416C139.427 17.248 139.805 17.014 140.105 16.714L140.969 17.956C140.093 18.796 138.917 19.216 137.441 19.216ZM139.745 13.942C139.721 13.342 139.499 12.808 139.079 12.34C138.671 11.872 138.077 11.638 137.297 11.638C136.553 11.638 135.971 11.872 135.551 12.34C135.131 12.796 134.897 13.33 134.849 13.942H139.745ZM145.337 19H143.447V6.994H145.337V19ZM160.334 19H158.444V13.33C158.444 12.286 157.97 11.764 157.022 11.764C156.626 11.764 156.242 11.878 155.87 12.106C155.498 12.334 155.21 12.604 155.006 12.916V19H153.116V13.33C153.116 12.286 152.636 11.764 151.676 11.764C151.292 11.764 150.914 11.878 150.542 12.106C150.182 12.334 149.894 12.61 149.678 12.934V19H147.788V10.306H149.678V11.494C149.894 11.17 150.266 10.858 150.794 10.558C151.334 10.246 151.904 10.09 152.504 10.09C153.764 10.09 154.556 10.624 154.88 11.692C155.156 11.26 155.564 10.888 156.104 10.576C156.644 10.252 157.22 10.09 157.832 10.09C159.5 10.09 160.334 10.966 160.334 12.718V19ZM166.797 19.216C165.477 19.216 164.385 18.796 163.521 17.956C162.669 17.104 162.243 16 162.243 14.644C162.243 13.372 162.657 12.298 163.485 11.422C164.325 10.534 165.381 10.09 166.653 10.09C167.937 10.09 168.969 10.534 169.749 11.422C170.541 12.31 170.937 13.444 170.937 14.824V15.274H164.223C164.295 15.958 164.577 16.528 165.069 16.984C165.561 17.44 166.203 17.668 166.995 17.668C167.439 17.668 167.883 17.584 168.327 17.416C168.783 17.248 169.161 17.014 169.461 16.714L170.325 17.956C169.449 18.796 168.273 19.216 166.797 19.216ZM169.101 13.942C169.077 13.342 168.855 12.808 168.435 12.34C168.027 11.872 167.433 11.638 166.653 11.638C165.909 11.638 165.327 11.872 164.907 12.34C164.487 12.796 164.253 13.33 164.205 13.942H169.101ZM175.412 19.216C174.68 19.216 174.122 19.024 173.738 18.64C173.366 18.256 173.18 17.704 173.18 16.984V11.962H171.74V10.306H173.18V7.93H175.07V10.306H176.834V11.962H175.07V16.516C175.07 16.828 175.142 17.08 175.286 17.272C175.43 17.452 175.634 17.542 175.898 17.542C176.282 17.542 176.564 17.44 176.744 17.236L177.194 18.658C176.798 19.03 176.204 19.216 175.412 19.216Z" fill="#008A3A"/>
<path d="M121.436 15.454H117.116V13.834H121.436V15.454Z" fill="#D34F7F"/>
</svg>
