<svg width="524" height="208" viewBox="0 0 524 208" fill="none" xmlns="http://www.w3.org/2000/svg">
<path d="M8.514 17.38L0.522 13.654V12.304L8.514 8.56V10.018L1.944 12.988L8.514 15.94V17.38ZM12.0592 15.328H10.4212L10.0792 6.994H12.3832L12.0592 15.328ZM12.1132 18.82C11.8612 19.06 11.5672 19.18 11.2312 19.18C10.8952 19.18 10.6012 19.06 10.3492 18.82C10.1092 18.568 9.98916 18.274 9.98916 17.938C9.98916 17.59 10.1092 17.296 10.3492 17.056C10.6012 16.804 10.8952 16.678 11.2312 16.678C11.5672 16.678 11.8612 16.804 12.1132 17.056C12.3652 17.296 12.4912 17.59 12.4912 17.938C12.4912 18.274 12.3652 18.568 12.1132 18.82ZM19.1893 19H14.7253V6.994H19.1893C21.0493 6.994 22.5613 7.552 23.7253 8.668C24.8893 9.784 25.4713 11.23 25.4713 13.006C25.4713 14.77 24.8893 16.21 23.7253 17.326C22.5733 18.442 21.0613 19 19.1893 19ZM19.1893 17.146C20.4493 17.146 21.4513 16.75 22.1953 15.958C22.9393 15.166 23.3113 14.182 23.3113 13.006C23.3113 11.794 22.9453 10.798 22.2133 10.018C21.4933 9.238 20.4853 8.848 19.1893 8.848H16.8313V17.146H19.1893ZM37.5126 17.47C36.3606 18.634 34.8906 19.216 33.1026 19.216C31.3146 19.216 29.8446 18.634 28.6926 17.47C27.5406 16.294 26.9646 14.806 26.9646 13.006C26.9646 11.206 27.5406 9.724 28.6926 8.56C29.8446 7.384 31.3146 6.796 33.1026 6.796C34.8906 6.796 36.3606 7.384 37.5126 8.56C38.6646 9.724 39.2406 11.206 39.2406 13.006C39.2406 14.806 38.6646 16.294 37.5126 17.47ZM33.1026 17.344C34.2906 17.344 35.2506 16.936 35.9826 16.12C36.7146 15.292 37.0806 14.254 37.0806 13.006C37.0806 11.746 36.7146 10.708 35.9826 9.892C35.2506 9.076 34.2906 8.668 33.1026 8.668C31.9026 8.668 30.9366 9.076 30.2046 9.892C29.4846 10.708 29.1246 11.746 29.1246 13.006C29.1246 14.266 29.4846 15.304 30.2046 16.12C30.9366 16.936 31.9026 17.344 33.1026 17.344ZM47.0282 19.216C45.2282 19.216 43.7282 18.64 42.5282 17.488C41.3282 16.324 40.7282 14.83 40.7282 13.006C40.7282 11.182 41.3282 9.694 42.5282 8.542C43.7282 7.378 45.2282 6.796 47.0282 6.796C49.1162 6.796 50.7242 7.696 51.8522 9.496L50.0522 10.414C49.7522 9.898 49.3262 9.478 48.7742 9.154C48.2342 8.83 47.6522 8.668 47.0282 8.668C45.8402 8.668 44.8502 9.076 44.0582 9.892C43.2782 10.708 42.8882 11.746 42.8882 13.006C42.8882 14.266 43.2782 15.304 44.0582 16.12C44.8502 16.936 45.8402 17.344 47.0282 17.344C47.6642 17.344 48.2522 17.182 48.7922 16.858C49.3322 16.534 49.7522 16.114 50.0522 15.598L51.8522 16.516C50.7002 18.316 49.0922 19.216 47.0282 19.216ZM58.5058 19H56.3998V8.848H52.7638V6.994H62.1418V8.848H58.5058V19ZM69.4344 19H67.3284V14.014L62.6664 6.994H65.0784L68.3904 12.142L71.6664 6.994H74.0784L69.4344 14.014V19ZM77.4934 19H75.3874V6.994H80.6614C81.8734 6.994 82.8274 7.354 83.5234 8.074C84.2314 8.794 84.5854 9.688 84.5854 10.756C84.5854 11.812 84.2314 12.706 83.5234 13.438C82.8274 14.158 81.8734 14.518 80.6614 14.518H77.4934V19ZM80.3734 12.664C80.9734 12.664 81.4654 12.49 81.8494 12.142C82.2334 11.794 82.4254 11.332 82.4254 10.756C82.4254 10.18 82.2334 9.718 81.8494 9.37C81.4654 9.022 80.9734 8.848 80.3734 8.848H77.4934V12.664H80.3734ZM94.5645 19H86.3385V6.994H94.5645V8.848H88.4445V11.962H94.4385V13.816H88.4445V17.146H94.5645V19ZM109.072 19H107.182V13.528C107.182 12.892 107.026 12.442 106.714 12.178C106.414 11.902 105.982 11.764 105.418 11.764C104.974 11.764 104.554 11.878 104.158 12.106C103.762 12.334 103.438 12.61 103.186 12.934V19H101.296V6.994H103.186V11.494C103.51 11.11 103.942 10.78 104.482 10.504C105.034 10.228 105.628 10.09 106.264 10.09C108.136 10.09 109.072 11.008 109.072 12.844V19ZM114.137 19.216C113.405 19.216 112.847 19.024 112.463 18.64C112.091 18.256 111.905 17.704 111.905 16.984V11.962H110.465V10.306H111.905V7.93H113.795V10.306H115.559V11.962H113.795V16.516C113.795 16.828 113.867 17.08 114.011 17.272C114.155 17.452 114.359 17.542 114.623 17.542C115.007 17.542 115.289 17.44 115.469 17.236L115.919 18.658C115.523 19.03 114.929 19.216 114.137 19.216ZM129.821 19H127.931V13.33C127.931 12.286 127.457 11.764 126.509 11.764C126.113 11.764 125.729 11.878 125.357 12.106C124.985 12.334 124.697 12.604 124.493 12.916V19H122.603V13.33C122.603 12.286 122.123 11.764 121.163 11.764C120.779 11.764 120.401 11.878 120.029 12.106C119.669 12.334 119.381 12.61 119.165 12.934V19H117.275V10.306H119.165V11.494C119.381 11.17 119.753 10.858 120.281 10.558C120.821 10.246 121.391 10.09 121.991 10.09C123.251 10.09 124.043 10.624 124.367 11.692C124.643 11.26 125.051 10.888 125.591 10.576C126.131 10.252 126.707 10.09 127.319 10.09C128.987 10.09 129.821 10.966 129.821 12.718V19ZM134.159 19H132.269V6.994H134.159V19ZM143.901 13.654L135.909 17.38V15.94L142.461 12.988L135.909 10.018V8.56L143.901 12.304V13.654ZM113.139 89.89H105.147V88.666H113.139V89.89ZM113.139 93.31H105.147V92.104H113.139V93.31Z" fill="#61595D"/>
<path d="M8.514 43.38L0.522 39.654V38.304L8.514 34.56V36.018L1.944 38.988L8.514 41.94V43.38ZM18.0352 45H16.1452V39.528C16.1452 38.892 15.9892 38.442 15.6772 38.178C15.3772 37.902 14.9452 37.764 14.3812 37.764C13.9372 37.764 13.5172 37.878 13.1212 38.106C12.7252 38.334 12.4012 38.61 12.1492 38.934V45H10.2592V32.994H12.1492V37.494C12.4732 37.11 12.9052 36.78 13.4452 36.504C13.9972 36.228 14.5912 36.09 15.2272 36.09C17.0992 36.09 18.0352 37.008 18.0352 38.844V45ZM23.0996 45.216C22.3676 45.216 21.8096 45.024 21.4256 44.64C21.0536 44.256 20.8676 43.704 20.8676 42.984V37.962H19.4276V36.306H20.8676V33.93H22.7576V36.306H24.5216V37.962H22.7576V42.516C22.7576 42.828 22.8296 43.08 22.9736 43.272C23.1176 43.452 23.3216 43.542 23.5856 43.542C23.9696 43.542 24.2516 43.44 24.4316 43.236L24.8816 44.658C24.4856 45.03 23.8916 45.216 23.0996 45.216ZM38.7837 45H36.8937V39.33C36.8937 38.286 36.4197 37.764 35.4717 37.764C35.0757 37.764 34.6917 37.878 34.3197 38.106C33.9477 38.334 33.6597 38.604 33.4557 38.916V45H31.5657V39.33C31.5657 38.286 31.0857 37.764 30.1257 37.764C29.7417 37.764 29.3637 37.878 28.9917 38.106C28.6317 38.334 28.3437 38.61 28.1277 38.934V45H26.2377V36.306H28.1277V37.494C28.3437 37.17 28.7157 36.858 29.2437 36.558C29.7837 36.246 30.3537 36.09 30.9537 36.09C32.2137 36.09 33.0057 36.624 33.3297 37.692C33.6057 37.26 34.0137 36.888 34.5537 36.576C35.0937 36.252 35.6697 36.09 36.2817 36.09C37.9497 36.09 38.7837 36.966 38.7837 38.718V45ZM43.1218 45H41.2318V32.994H43.1218V45ZM52.8636 39.654L44.8716 43.38V41.94L51.4236 38.988L44.8716 36.018V34.56L52.8636 38.304V39.654ZM17.7601 69.38L9.76809 65.654V64.304L17.7601 60.56V62.018L11.1901 64.988L17.7601 67.94V69.38ZM27.2812 71H25.3913V65.528C25.3913 64.892 25.2353 64.442 24.9233 64.178C24.6233 63.902 24.1913 63.764 23.6273 63.764C23.1833 63.764 22.7633 63.878 22.3673 64.106C21.9713 64.334 21.6473 64.61 21.3953 64.934V71H19.5053V58.994H21.3953V63.494C21.7193 63.11 22.1513 62.78 22.6913 62.504C23.2433 62.228 23.8373 62.09 24.4733 62.09C26.3453 62.09 27.2812 63.008 27.2812 64.844V71ZM33.7497 71.216C32.4297 71.216 31.3377 70.796 30.4737 69.956C29.6217 69.104 29.1957 68 29.1957 66.644C29.1957 65.372 29.6097 64.298 30.4377 63.422C31.2777 62.534 32.3337 62.09 33.6057 62.09C34.8897 62.09 35.9217 62.534 36.7017 63.422C37.4937 64.31 37.8897 65.444 37.8897 66.824V67.274H31.1757C31.2477 67.958 31.5297 68.528 32.0217 68.984C32.5137 69.44 33.1557 69.668 33.9477 69.668C34.3917 69.668 34.8357 69.584 35.2797 69.416C35.7357 69.248 36.1137 69.014 36.4137 68.714L37.2777 69.956C36.4017 70.796 35.2257 71.216 33.7497 71.216ZM36.0537 65.942C36.0297 65.342 35.8077 64.808 35.3877 64.34C34.9797 63.872 34.3857 63.638 33.6057 63.638C32.8617 63.638 32.2797 63.872 31.8597 64.34C31.4397 64.796 31.2057 65.33 31.1577 65.942H36.0537ZM46.9553 71H45.0653V70.064C44.3933 70.832 43.4573 71.216 42.2573 71.216C41.4653 71.216 40.7633 70.964 40.1513 70.46C39.5393 69.944 39.2333 69.236 39.2333 68.336C39.2333 67.412 39.5333 66.71 40.1333 66.23C40.7453 65.75 41.4533 65.51 42.2573 65.51C43.4933 65.51 44.4293 65.882 45.0653 66.626V65.33C45.0653 64.826 44.8793 64.43 44.5073 64.142C44.1353 63.854 43.6433 63.71 43.0312 63.71C42.0593 63.71 41.2013 64.076 40.4573 64.808L39.6833 63.494C40.6673 62.558 41.8853 62.09 43.3373 62.09C44.4053 62.09 45.2753 62.342 45.9473 62.846C46.6193 63.35 46.9553 64.148 46.9553 65.24V71ZM42.9953 69.92C43.9433 69.92 44.6333 69.62 45.0653 69.02V67.706C44.6333 67.106 43.9433 66.806 42.9953 66.806C42.4553 66.806 42.0113 66.95 41.6633 67.238C41.3153 67.526 41.1413 67.904 41.1413 68.372C41.1413 68.84 41.3153 69.218 41.6633 69.506C42.0113 69.782 42.4553 69.92 42.9953 69.92ZM57.4156 71H55.5256V69.812C54.8056 70.748 53.8756 71.216 52.7356 71.216C51.5956 71.216 50.6656 70.808 49.9456 69.992C49.2256 69.176 48.8656 68.066 48.8656 66.662C48.8656 65.27 49.2256 64.16 49.9456 63.332C50.6656 62.504 51.5956 62.09 52.7356 62.09C53.8756 62.09 54.8056 62.564 55.5256 63.512V58.994H57.4156V71ZM53.2756 69.542C53.7196 69.542 54.1516 69.434 54.5716 69.218C54.9916 69.002 55.3096 68.726 55.5256 68.39V64.934C55.3096 64.598 54.9916 64.322 54.5716 64.106C54.1516 63.878 53.7196 63.764 53.2756 63.764C52.5316 63.764 51.9376 64.034 51.4936 64.574C51.0496 65.114 50.8276 65.81 50.8276 66.662C50.8276 67.514 51.0496 68.21 51.4936 68.75C51.9376 69.278 52.5316 69.542 53.2756 69.542ZM67.1546 65.654L59.1626 69.38V67.94L65.7146 64.988L59.1626 62.018V60.56L67.1546 64.304V65.654ZM27.0062 95.38L19.0142 91.654V90.304L27.0062 86.56V88.018L20.4362 90.988L27.0062 93.94V95.38ZM31.7213 97.216C30.1613 97.216 28.9193 96.766 27.9953 95.866L28.8593 94.498C29.1833 94.834 29.6213 95.122 30.1733 95.362C30.7253 95.602 31.2713 95.722 31.8113 95.722C32.3633 95.722 32.7833 95.614 33.0713 95.398C33.3713 95.182 33.5213 94.9 33.5213 94.552C33.5213 94.24 33.3413 94 32.9813 93.832C32.6213 93.652 32.1833 93.514 31.6673 93.418C31.1513 93.31 30.6353 93.184 30.1193 93.04C29.6033 92.884 29.1653 92.614 28.8053 92.23C28.4453 91.846 28.2653 91.348 28.2653 90.736C28.2653 89.992 28.5713 89.368 29.1833 88.864C29.7953 88.348 30.6293 88.09 31.6853 88.09C33.0173 88.09 34.1453 88.498 35.0693 89.314L34.2773 90.646C34.0013 90.334 33.6353 90.082 33.1793 89.89C32.7233 89.698 32.2313 89.602 31.7033 89.602C31.2113 89.602 30.8153 89.704 30.5153 89.908C30.2273 90.1 30.0833 90.352 30.0833 90.664C30.0833 90.904 30.2093 91.102 30.4613 91.258C30.7253 91.402 31.0493 91.51 31.4333 91.582C31.8293 91.654 32.2553 91.756 32.7113 91.888C33.1673 92.008 33.5873 92.152 33.9713 92.32C34.3673 92.488 34.6913 92.764 34.9433 93.148C35.2073 93.52 35.3393 93.976 35.3393 94.516C35.3393 95.308 35.0213 95.956 34.3853 96.46C33.7493 96.964 32.8613 97.216 31.7213 97.216ZM41.2016 97.216C39.8816 97.216 38.8016 96.79 37.9616 95.938C37.1216 95.074 36.7016 93.976 36.7016 92.644C36.7016 91.324 37.1216 90.238 37.9616 89.386C38.8016 88.522 39.8816 88.09 41.2016 88.09C42.6536 88.09 43.7636 88.606 44.5316 89.638L43.2896 90.79C42.8096 90.106 42.1436 89.764 41.2916 89.764C40.4996 89.764 39.8636 90.034 39.3836 90.574C38.9036 91.102 38.6636 91.792 38.6636 92.644C38.6636 93.496 38.9036 94.192 39.3836 94.732C39.8636 95.272 40.4996 95.542 41.2916 95.542C42.1196 95.542 42.7856 95.2 43.2896 94.516L44.5316 95.668C43.7636 96.7 42.6536 97.216 41.2016 97.216ZM48.0788 97H46.1888V88.306H48.0788V89.584C48.4148 89.152 48.8348 88.798 49.3388 88.522C49.8428 88.246 50.3648 88.108 50.9048 88.108V89.98C50.7368 89.944 50.5388 89.926 50.3108 89.926C49.9148 89.926 49.4888 90.046 49.0328 90.286C48.5888 90.514 48.2708 90.778 48.0788 91.078V97ZM53.3651 87.244C53.0531 87.244 52.7771 87.13 52.5371 86.902C52.3091 86.674 52.1951 86.398 52.1951 86.074C52.1951 85.75 52.3091 85.474 52.5371 85.246C52.7771 85.018 53.0531 84.904 53.3651 84.904C53.6891 84.904 53.9651 85.018 54.1931 85.246C54.4211 85.474 54.5351 85.75 54.5351 86.074C54.5351 86.398 54.4211 86.674 54.1931 86.902C53.9651 87.13 53.6891 87.244 53.3651 87.244ZM54.3191 97H52.4291V88.306H54.3191V97ZM61.4509 97.216C60.2989 97.216 59.3689 96.742 58.6609 95.794V100.312H56.7709V88.306H58.6609V89.494C59.3569 88.558 60.2869 88.09 61.4509 88.09C62.5909 88.09 63.5149 88.498 64.2229 89.314C64.9429 90.13 65.3029 91.24 65.3029 92.644C65.3029 94.048 64.9429 95.164 64.2229 95.992C63.5149 96.808 62.5909 97.216 61.4509 97.216ZM60.8929 95.542C61.6369 95.542 62.2309 95.272 62.6749 94.732C63.1189 94.192 63.3409 93.496 63.3409 92.644C63.3409 91.792 63.1189 91.102 62.6749 90.574C62.2309 90.034 61.6369 89.764 60.8929 89.764C60.4609 89.764 60.0349 89.878 59.6149 90.106C59.1949 90.334 58.8769 90.61 58.6609 90.934V94.372C58.8769 94.696 59.1949 94.972 59.6149 95.2C60.0349 95.428 60.4609 95.542 60.8929 95.542ZM69.7871 97.216C69.0551 97.216 68.4971 97.024 68.1131 96.64C67.7411 96.256 67.5551 95.704 67.5551 94.984V89.962H66.1151V88.306H67.5551V85.93H69.4451V88.306H71.2091V89.962H69.4451V94.516C69.4451 94.828 69.5171 95.08 69.6611 95.272C69.8051 95.452 70.0091 95.542 70.2731 95.542C70.6571 95.542 70.9391 95.44 71.1191 95.236L71.5691 96.658C71.1731 97.03 70.5791 97.216 69.7871 97.216ZM505.325 91.654L497.333 95.38V93.94L503.885 90.988L497.333 88.018V86.56L505.325 90.304V91.654ZM27.0062 121.38L19.0142 117.654V116.304L27.0062 112.56V114.018L20.4362 116.988L27.0062 119.94V121.38ZM28.9313 123.36H27.5273L31.7933 110.634H33.1973L28.9313 123.36ZM37.3991 123.216C35.8391 123.216 34.5971 122.766 33.6731 121.866L34.5371 120.498C34.8611 120.834 35.2991 121.122 35.8511 121.362C36.4031 121.602 36.9491 121.722 37.4891 121.722C38.0411 121.722 38.4611 121.614 38.7491 121.398C39.0491 121.182 39.1991 120.9 39.1991 120.552C39.1991 120.24 39.0191 120 38.6591 119.832C38.2991 119.652 37.8611 119.514 37.3451 119.418C36.8291 119.31 36.3131 119.184 35.7971 119.04C35.2811 118.884 34.8431 118.614 34.4831 118.23C34.1231 117.846 33.9431 117.348 33.9431 116.736C33.9431 115.992 34.2491 115.368 34.8611 114.864C35.4731 114.348 36.3071 114.09 37.3631 114.09C38.6951 114.09 39.8231 114.498 40.7471 115.314L39.9551 116.646C39.6791 116.334 39.3131 116.082 38.8571 115.89C38.4011 115.698 37.9091 115.602 37.3811 115.602C36.8891 115.602 36.4931 115.704 36.1931 115.908C35.9051 116.1 35.7611 116.352 35.7611 116.664C35.7611 116.904 35.8871 117.102 36.1391 117.258C36.4031 117.402 36.7271 117.51 37.1111 117.582C37.5071 117.654 37.9331 117.756 38.3891 117.888C38.8451 118.008 39.2651 118.152 39.6491 118.32C40.0451 118.488 40.3691 118.764 40.6211 119.148C40.8851 119.52 41.0171 119.976 41.0171 120.516C41.0171 121.308 40.6991 121.956 40.0631 122.46C39.4271 122.964 38.5391 123.216 37.3991 123.216ZM46.8793 123.216C45.5593 123.216 44.4793 122.79 43.6393 121.938C42.7993 121.074 42.3793 119.976 42.3793 118.644C42.3793 117.324 42.7993 116.238 43.6393 115.386C44.4793 114.522 45.5593 114.09 46.8793 114.09C48.3313 114.09 49.4413 114.606 50.2093 115.638L48.9673 116.79C48.4873 116.106 47.8213 115.764 46.9693 115.764C46.1773 115.764 45.5413 116.034 45.0613 116.574C44.5813 117.102 44.3413 117.792 44.3413 118.644C44.3413 119.496 44.5813 120.192 45.0613 120.732C45.5413 121.272 46.1773 121.542 46.9693 121.542C47.7973 121.542 48.4633 121.2 48.9673 120.516L50.2093 121.668C49.4413 122.7 48.3313 123.216 46.8793 123.216ZM53.7566 123H51.8666V114.306H53.7566V115.584C54.0926 115.152 54.5126 114.798 55.0166 114.522C55.5206 114.246 56.0426 114.108 56.5826 114.108V115.98C56.4146 115.944 56.2166 115.926 55.9886 115.926C55.5926 115.926 55.1666 116.046 54.7106 116.286C54.2666 116.514 53.9486 116.778 53.7566 117.078V123ZM59.0428 113.244C58.7308 113.244 58.4548 113.13 58.2148 112.902C57.9868 112.674 57.8728 112.398 57.8728 112.074C57.8728 111.75 57.9868 111.474 58.2148 111.246C58.4548 111.018 58.7308 110.904 59.0428 110.904C59.3668 110.904 59.6428 111.018 59.8708 111.246C60.0988 111.474 60.2128 111.75 60.2128 112.074C60.2128 112.398 60.0988 112.674 59.8708 112.902C59.6428 113.13 59.3668 113.244 59.0428 113.244ZM59.9968 123H58.1068V114.306H59.9968V123ZM67.1286 123.216C65.9766 123.216 65.0466 122.742 64.3386 121.794V126.312H62.4486V114.306H64.3386V115.494C65.0346 114.558 65.9646 114.09 67.1286 114.09C68.2686 114.09 69.1926 114.498 69.9006 115.314C70.6206 116.13 70.9806 117.24 70.9806 118.644C70.9806 120.048 70.6206 121.164 69.9006 121.992C69.1926 122.808 68.2686 123.216 67.1286 123.216ZM66.5706 121.542C67.3146 121.542 67.9086 121.272 68.3526 120.732C68.7966 120.192 69.0186 119.496 69.0186 118.644C69.0186 117.792 68.7966 117.102 68.3526 116.574C67.9086 116.034 67.3146 115.764 66.5706 115.764C66.1386 115.764 65.7126 115.878 65.2926 116.106C64.8726 116.334 64.5546 116.61 64.3386 116.934V120.372C64.5546 120.696 64.8726 120.972 65.2926 121.2C65.7126 121.428 66.1386 121.542 66.5706 121.542ZM75.4649 123.216C74.7329 123.216 74.1749 123.024 73.7909 122.64C73.4189 122.256 73.2329 121.704 73.2329 120.984V115.962H71.7929V114.306H73.2329V111.93H75.1229V114.306H76.8869V115.962H75.1229V120.516C75.1229 120.828 75.1949 121.08 75.3389 121.272C75.4829 121.452 75.6869 121.542 75.9509 121.542C76.3349 121.542 76.6169 121.44 76.7969 121.236L77.2469 122.658C76.8509 123.03 76.2569 123.216 75.4649 123.216ZM85.8929 117.654L77.9009 121.38V119.94L84.4529 116.988L77.9009 114.018V112.56L85.8929 116.304V117.654ZM17.7601 147.38L9.76809 143.654V142.304L17.7601 138.56V140.018L11.1901 142.988L17.7601 145.94V147.38ZM19.6853 149.36H18.2812L22.5473 136.634H23.9513L19.6853 149.36ZM32.959 149H31.069V143.528C31.069 142.892 30.913 142.442 30.601 142.178C30.301 141.902 29.869 141.764 29.305 141.764C28.861 141.764 28.441 141.878 28.045 142.106C27.649 142.334 27.325 142.61 27.073 142.934V149H25.183V136.994H27.073V141.494C27.397 141.11 27.829 140.78 28.369 140.504C28.921 140.228 29.515 140.09 30.151 140.09C32.023 140.09 32.959 141.008 32.959 142.844V149ZM39.4275 149.216C38.1075 149.216 37.0155 148.796 36.1515 147.956C35.2995 147.104 34.8735 146 34.8735 144.644C34.8735 143.372 35.2875 142.298 36.1155 141.422C36.9555 140.534 38.0115 140.09 39.2835 140.09C40.5675 140.09 41.5995 140.534 42.3795 141.422C43.1715 142.31 43.5675 143.444 43.5675 144.824V145.274H36.8535C36.9255 145.958 37.2075 146.528 37.6995 146.984C38.1915 147.44 38.8335 147.668 39.6255 147.668C40.0695 147.668 40.5135 147.584 40.9575 147.416C41.4135 147.248 41.7915 147.014 42.0915 146.714L42.9555 147.956C42.0795 148.796 40.9035 149.216 39.4275 149.216ZM41.7315 143.942C41.7075 143.342 41.4855 142.808 41.0655 142.34C40.6575 141.872 40.0635 141.638 39.2835 141.638C38.5395 141.638 37.9575 141.872 37.5375 142.34C37.1175 142.796 36.8835 143.33 36.8355 143.942H41.7315ZM52.633 149H50.743V148.064C50.071 148.832 49.135 149.216 47.935 149.216C47.143 149.216 46.441 148.964 45.829 148.46C45.217 147.944 44.911 147.236 44.911 146.336C44.911 145.412 45.211 144.71 45.811 144.23C46.423 143.75 47.131 143.51 47.935 143.51C49.171 143.51 50.107 143.882 50.743 144.626V143.33C50.743 142.826 50.557 142.43 50.185 142.142C49.813 141.854 49.321 141.71 48.709 141.71C47.737 141.71 46.879 142.076 46.135 142.808L45.361 141.494C46.345 140.558 47.563 140.09 49.015 140.09C50.083 140.09 50.953 140.342 51.625 140.846C52.297 141.35 52.633 142.148 52.633 143.24V149ZM48.673 147.92C49.621 147.92 50.311 147.62 50.743 147.02V145.706C50.311 145.106 49.621 144.806 48.673 144.806C48.133 144.806 47.689 144.95 47.341 145.238C46.993 145.526 46.819 145.904 46.819 146.372C46.819 146.84 46.993 147.218 47.341 147.506C47.689 147.782 48.133 147.92 48.673 147.92ZM63.0934 149H61.2034V147.812C60.4834 148.748 59.5534 149.216 58.4134 149.216C57.2734 149.216 56.3434 148.808 55.6234 147.992C54.9034 147.176 54.5434 146.066 54.5434 144.662C54.5434 143.27 54.9034 142.16 55.6234 141.332C56.3434 140.504 57.2734 140.09 58.4134 140.09C59.5534 140.09 60.4834 140.564 61.2034 141.512V136.994H63.0934V149ZM58.9534 147.542C59.3974 147.542 59.8294 147.434 60.2494 147.218C60.6694 147.002 60.9874 146.726 61.2034 146.39V142.934C60.9874 142.598 60.6694 142.322 60.2494 142.106C59.8294 141.878 59.3974 141.764 58.9534 141.764C58.2094 141.764 57.6154 142.034 57.1714 142.574C56.7274 143.114 56.5054 143.81 56.5054 144.662C56.5054 145.514 56.7274 146.21 57.1714 146.75C57.6154 147.278 58.2094 147.542 58.9534 147.542ZM72.8324 143.654L64.8404 147.38V145.94L71.3924 142.988L64.8404 140.018V138.56L72.8324 142.304V143.654ZM17.7601 173.38L9.76809 169.654V168.304L17.7601 164.56V166.018L11.1901 168.988L17.7601 171.94V173.38ZM21.3953 172.39C21.5993 172.714 21.9113 172.99 22.3313 173.218C22.7633 173.434 23.1953 173.542 23.6273 173.542C24.3713 173.542 24.9653 173.278 25.4093 172.75C25.8653 172.21 26.0933 171.514 26.0933 170.662C26.0933 169.81 25.8653 169.114 25.4093 168.574C24.9653 168.034 24.3713 167.764 23.6273 167.764C23.1953 167.764 22.7693 167.878 22.3493 168.106C21.9293 168.334 21.6113 168.616 21.3953 168.952V172.39ZM21.3953 175H19.5053V162.994H21.3953V167.512C22.1033 166.564 23.0333 166.09 24.1853 166.09C25.3133 166.09 26.2373 166.51 26.9573 167.35C27.6773 168.178 28.0373 169.282 28.0373 170.662C28.0373 172.066 27.6773 173.176 26.9573 173.992C26.2373 174.808 25.3133 175.216 24.1853 175.216C23.0453 175.216 22.1153 174.748 21.3953 173.812V175ZM33.8882 175.216C32.5442 175.216 31.4642 174.778 30.6482 173.902C29.8322 173.014 29.4242 171.928 29.4242 170.644C29.4242 169.36 29.8322 168.28 30.6482 167.404C31.4642 166.528 32.5442 166.09 33.8882 166.09C35.2442 166.09 36.3302 166.528 37.1462 167.404C37.9622 168.28 38.3702 169.36 38.3702 170.644C38.3702 171.94 37.9622 173.026 37.1462 173.902C36.3302 174.778 35.2442 175.216 33.8882 175.216ZM33.8882 173.542C34.6682 173.542 35.2802 173.266 35.7242 172.714C36.1802 172.15 36.4082 171.46 36.4082 170.644C36.4082 169.84 36.1802 169.162 35.7242 168.61C35.2802 168.046 34.6682 167.764 33.8882 167.764C33.1202 167.764 32.5082 168.046 32.0522 168.61C31.6082 169.162 31.3862 169.84 31.3862 170.644C31.3862 171.46 31.6082 172.15 32.0522 172.714C32.5082 173.266 33.1202 173.542 33.8882 173.542ZM48.2926 175H46.4026V173.812C45.6826 174.748 44.7526 175.216 43.6126 175.216C42.4726 175.216 41.5426 174.808 40.8226 173.992C40.1026 173.176 39.7426 172.066 39.7426 170.662C39.7426 169.27 40.1026 168.16 40.8226 167.332C41.5426 166.504 42.4726 166.09 43.6126 166.09C44.7526 166.09 45.6826 166.564 46.4026 167.512V162.994H48.2926V175ZM44.1526 173.542C44.5966 173.542 45.0286 173.434 45.4486 173.218C45.8686 173.002 46.1866 172.726 46.4026 172.39V168.934C46.1866 168.598 45.8686 168.322 45.4486 168.106C45.0286 167.878 44.5966 167.764 44.1526 167.764C43.4086 167.764 42.8146 168.034 42.3706 168.574C41.9266 169.114 41.7046 169.81 41.7046 170.662C41.7046 171.514 41.9266 172.21 42.3706 172.75C42.8146 173.278 43.4086 173.542 44.1526 173.542ZM50.3636 178.402L50.6516 176.71C50.8676 176.806 51.1076 176.854 51.3716 176.854C51.9836 176.854 52.3976 176.602 52.6136 176.098L53.0456 175.108L49.4816 166.306H51.4976L54.0356 172.822L56.5736 166.306H58.6076L54.4136 176.566C53.8976 177.85 52.9016 178.504 51.4256 178.528C51.0296 178.528 50.6756 178.486 50.3636 178.402ZM67.0843 169.654L59.0923 173.38V171.94L65.6443 168.988L59.0923 166.018V164.56L67.0843 168.304V169.654ZM333.34 173.38L325.348 169.654V168.304L333.34 164.56V166.018L326.77 168.988L333.34 171.94V173.38ZM335.265 175.36H333.861L338.127 162.634H339.531L335.265 175.36ZM342.653 172.39C342.857 172.714 343.169 172.99 343.589 173.218C344.021 173.434 344.453 173.542 344.885 173.542C345.629 173.542 346.223 173.278 346.667 172.75C347.123 172.21 347.351 171.514 347.351 170.662C347.351 169.81 347.123 169.114 346.667 168.574C346.223 168.034 345.629 167.764 344.885 167.764C344.453 167.764 344.027 167.878 343.607 168.106C343.187 168.334 342.869 168.616 342.653 168.952V172.39ZM342.653 175H340.763V162.994H342.653V167.512C343.361 166.564 344.291 166.09 345.443 166.09C346.571 166.09 347.495 166.51 348.215 167.35C348.935 168.178 349.295 169.282 349.295 170.662C349.295 172.066 348.935 173.176 348.215 173.992C347.495 174.808 346.571 175.216 345.443 175.216C344.303 175.216 343.373 174.748 342.653 173.812V175ZM355.146 175.216C353.802 175.216 352.722 174.778 351.906 173.902C351.09 173.014 350.682 171.928 350.682 170.644C350.682 169.36 351.09 168.28 351.906 167.404C352.722 166.528 353.802 166.09 355.146 166.09C356.502 166.09 357.588 166.528 358.404 167.404C359.22 168.28 359.628 169.36 359.628 170.644C359.628 171.94 359.22 173.026 358.404 173.902C357.588 174.778 356.502 175.216 355.146 175.216ZM355.146 173.542C355.926 173.542 356.538 173.266 356.982 172.714C357.438 172.15 357.666 171.46 357.666 170.644C357.666 169.84 357.438 169.162 356.982 168.61C356.538 168.046 355.926 167.764 355.146 167.764C354.378 167.764 353.766 168.046 353.31 168.61C352.866 169.162 352.644 169.84 352.644 170.644C352.644 171.46 352.866 172.15 353.31 172.714C353.766 173.266 354.378 173.542 355.146 173.542ZM369.55 175H367.66V173.812C366.94 174.748 366.01 175.216 364.87 175.216C363.73 175.216 362.8 174.808 362.08 173.992C361.36 173.176 361 172.066 361 170.662C361 169.27 361.36 168.16 362.08 167.332C362.8 166.504 363.73 166.09 364.87 166.09C366.01 166.09 366.94 166.564 367.66 167.512V162.994H369.55V175ZM365.41 173.542C365.854 173.542 366.286 173.434 366.706 173.218C367.126 173.002 367.444 172.726 367.66 172.39V168.934C367.444 168.598 367.126 168.322 366.706 168.106C366.286 167.878 365.854 167.764 365.41 167.764C364.666 167.764 364.072 168.034 363.628 168.574C363.184 169.114 362.962 169.81 362.962 170.662C362.962 171.514 363.184 172.21 363.628 172.75C364.072 173.278 364.666 173.542 365.41 173.542ZM371.621 178.402L371.909 176.71C372.125 176.806 372.365 176.854 372.629 176.854C373.241 176.854 373.655 176.602 373.871 176.098L374.303 175.108L370.739 166.306H372.755L375.293 172.822L377.831 166.306H379.865L375.671 176.566C375.155 177.85 374.159 178.504 372.683 178.528C372.287 178.528 371.933 178.486 371.621 178.402ZM388.342 169.654L380.35 173.38V171.94L386.902 168.988L380.35 166.018V164.56L388.342 168.304V169.654ZM8.514 199.38L0.522 195.654V194.304L8.514 190.56V192.018L1.944 194.988L8.514 197.94V199.38ZM10.4392 201.36H9.03516L13.3012 188.634H14.7052L10.4392 201.36ZM23.7129 201H21.8229V195.528C21.8229 194.892 21.6669 194.442 21.3549 194.178C21.0549 193.902 20.6229 193.764 20.0589 193.764C19.6149 193.764 19.1949 193.878 18.7989 194.106C18.4029 194.334 18.0789 194.61 17.8269 194.934V201H15.9369V188.994H17.8269V193.494C18.1509 193.11 18.5829 192.78 19.1229 192.504C19.6749 192.228 20.2689 192.09 20.9049 192.09C22.7769 192.09 23.7129 193.008 23.7129 194.844V201ZM28.7774 201.216C28.0454 201.216 27.4874 201.024 27.1034 200.64C26.7314 200.256 26.5454 199.704 26.5454 198.984V193.962H25.1054V192.306H26.5454V189.93H28.4354V192.306H30.1994V193.962H28.4354V198.516C28.4354 198.828 28.5074 199.08 28.6514 199.272C28.7954 199.452 28.9994 199.542 29.2634 199.542C29.6474 199.542 29.9294 199.44 30.1094 199.236L30.5594 200.658C30.1634 201.03 29.5694 201.216 28.7774 201.216ZM44.4614 201H42.5714V195.33C42.5714 194.286 42.0974 193.764 41.1494 193.764C40.7534 193.764 40.3694 193.878 39.9974 194.106C39.6254 194.334 39.3374 194.604 39.1334 194.916V201H37.2434V195.33C37.2434 194.286 36.7634 193.764 35.8034 193.764C35.4194 193.764 35.0414 193.878 34.6694 194.106C34.3094 194.334 34.0214 194.61 33.8054 194.934V201H31.9154V192.306H33.8054V193.494C34.0214 193.17 34.3934 192.858 34.9214 192.558C35.4614 192.246 36.0314 192.09 36.6314 192.09C37.8914 192.09 38.6834 192.624 39.0074 193.692C39.2834 193.26 39.6914 192.888 40.2314 192.576C40.7714 192.252 41.3474 192.09 41.9594 192.09C43.6274 192.09 44.4614 192.966 44.4614 194.718V201ZM48.7995 201H46.9095V188.994H48.7995V201ZM58.5413 195.654L50.5493 199.38V197.94L57.1013 194.988L50.5493 192.018V190.56L58.5413 194.304V195.654Z" fill="#D34F7F"/>
<path d="M94.682 69.38L86.69 65.654V64.304L94.682 60.56V62.018L88.112 64.988L94.682 67.94V69.38ZM98.2271 67.328H96.5891L96.2471 58.994H98.5511L98.2271 67.328ZM98.2811 70.82C98.0291 71.06 97.7351 71.18 97.3991 71.18C97.0631 71.18 96.7691 71.06 96.5171 70.82C96.2771 70.568 96.1571 70.274 96.1571 69.938C96.1571 69.59 96.2771 69.296 96.5171 69.056C96.7691 68.804 97.0631 68.678 97.3991 68.678C97.7351 68.678 98.0291 68.804 98.2811 69.056C98.5331 69.296 98.6591 69.59 98.6591 69.938C98.6591 70.274 98.5331 70.568 98.2811 70.82ZM104.475 67.454H100.155V65.834H104.475V67.454ZM109.872 67.454H105.552V65.834H109.872V67.454ZM121.817 71H119.711V66.014L115.049 58.994H117.461L120.773 64.142L124.049 58.994H126.461L121.817 66.014V71ZM129.39 71.216C128.046 71.216 126.966 70.778 126.15 69.902C125.334 69.014 124.926 67.928 124.926 66.644C124.926 65.36 125.334 64.28 126.15 63.404C126.966 62.528 128.046 62.09 129.39 62.09C130.746 62.09 131.832 62.528 132.648 63.404C133.464 64.28 133.872 65.36 133.872 66.644C133.872 67.94 133.464 69.026 132.648 69.902C131.832 70.778 130.746 71.216 129.39 71.216ZM129.39 69.542C130.17 69.542 130.782 69.266 131.226 68.714C131.682 68.15 131.91 67.46 131.91 66.644C131.91 65.84 131.682 65.162 131.226 64.61C130.782 64.046 130.17 63.764 129.39 63.764C128.622 63.764 128.01 64.046 127.554 64.61C127.11 65.162 126.888 65.84 126.888 66.644C126.888 67.46 127.11 68.15 127.554 68.714C128.01 69.266 128.622 69.542 129.39 69.542ZM143.543 71H141.653V69.848C140.837 70.76 139.811 71.216 138.575 71.216C136.715 71.216 135.785 70.298 135.785 68.462V62.306H137.675V67.778C137.675 68.414 137.825 68.87 138.125 69.146C138.425 69.41 138.857 69.542 139.421 69.542C139.877 69.542 140.303 69.434 140.699 69.218C141.095 69.002 141.413 68.732 141.653 68.408V62.306H143.543V71ZM147.887 71H145.997V62.306H147.887V63.584C148.223 63.152 148.643 62.798 149.147 62.522C149.651 62.246 150.173 62.108 150.713 62.108V63.98C150.545 63.944 150.347 63.926 150.119 63.926C149.723 63.926 149.297 64.046 148.841 64.286C148.397 64.514 148.079 64.778 147.887 65.078V71ZM166.419 71H164.439L162.423 64.628L160.407 71H158.427L155.727 62.306H157.689L159.525 68.624L161.595 62.306H163.251L165.321 68.624L167.157 62.306H169.119L166.419 71ZM174.445 71.216C173.125 71.216 172.033 70.796 171.169 69.956C170.317 69.104 169.891 68 169.891 66.644C169.891 65.372 170.305 64.298 171.133 63.422C171.973 62.534 173.029 62.09 174.301 62.09C175.585 62.09 176.617 62.534 177.397 63.422C178.189 64.31 178.585 65.444 178.585 66.824V67.274H171.871C171.943 67.958 172.225 68.528 172.717 68.984C173.209 69.44 173.851 69.668 174.643 69.668C175.087 69.668 175.531 69.584 175.975 69.416C176.431 69.248 176.809 69.014 177.109 68.714L177.973 69.956C177.097 70.796 175.921 71.216 174.445 71.216ZM176.749 65.942C176.725 65.342 176.503 64.808 176.083 64.34C175.675 63.872 175.081 63.638 174.301 63.638C173.557 63.638 172.975 63.872 172.555 64.34C172.135 64.796 171.901 65.33 171.853 65.942H176.749ZM182.341 68.39C182.545 68.714 182.857 68.99 183.277 69.218C183.709 69.434 184.141 69.542 184.573 69.542C185.317 69.542 185.911 69.278 186.355 68.75C186.811 68.21 187.039 67.514 187.039 66.662C187.039 65.81 186.811 65.114 186.355 64.574C185.911 64.034 185.317 63.764 184.573 63.764C184.141 63.764 183.715 63.878 183.295 64.106C182.875 64.334 182.557 64.616 182.341 64.952V68.39ZM182.341 71H180.451V58.994H182.341V63.512C183.049 62.564 183.979 62.09 185.131 62.09C186.259 62.09 187.183 62.51 187.903 63.35C188.623 64.178 188.983 65.282 188.983 66.662C188.983 68.066 188.623 69.176 187.903 69.992C187.183 70.808 186.259 71.216 185.131 71.216C183.991 71.216 183.061 70.748 182.341 69.812V71ZM193.88 71.216C192.32 71.216 191.078 70.766 190.154 69.866L191.018 68.498C191.342 68.834 191.78 69.122 192.332 69.362C192.884 69.602 193.43 69.722 193.97 69.722C194.522 69.722 194.942 69.614 195.23 69.398C195.53 69.182 195.68 68.9 195.68 68.552C195.68 68.24 195.5 68 195.14 67.832C194.78 67.652 194.342 67.514 193.826 67.418C193.31 67.31 192.794 67.184 192.278 67.04C191.762 66.884 191.324 66.614 190.964 66.23C190.604 65.846 190.424 65.348 190.424 64.736C190.424 63.992 190.73 63.368 191.342 62.864C191.954 62.348 192.788 62.09 193.844 62.09C195.176 62.09 196.304 62.498 197.228 63.314L196.436 64.646C196.16 64.334 195.794 64.082 195.338 63.89C194.882 63.698 194.39 63.602 193.862 63.602C193.37 63.602 192.974 63.704 192.674 63.908C192.386 64.1 192.242 64.352 192.242 64.664C192.242 64.904 192.368 65.102 192.62 65.258C192.884 65.402 193.208 65.51 193.592 65.582C193.988 65.654 194.414 65.756 194.87 65.888C195.326 66.008 195.746 66.152 196.13 66.32C196.526 66.488 196.85 66.764 197.102 67.148C197.366 67.52 197.498 67.976 197.498 68.516C197.498 69.308 197.18 69.956 196.544 70.46C195.908 70.964 195.02 71.216 193.88 71.216ZM200.336 61.244C200.024 61.244 199.748 61.13 199.508 60.902C199.28 60.674 199.166 60.398 199.166 60.074C199.166 59.75 199.28 59.474 199.508 59.246C199.748 59.018 200.024 58.904 200.336 58.904C200.66 58.904 200.936 59.018 201.164 59.246C201.392 59.474 201.506 59.75 201.506 60.074C201.506 60.398 201.392 60.674 201.164 60.902C200.936 61.13 200.66 61.244 200.336 61.244ZM201.29 71H199.4V62.306H201.29V71ZM206.352 71.216C205.62 71.216 205.062 71.024 204.678 70.64C204.306 70.256 204.12 69.704 204.12 68.984V63.962H202.68V62.306H204.12V59.93H206.01V62.306H207.774V63.962H206.01V68.516C206.01 68.828 206.082 69.08 206.226 69.272C206.37 69.452 206.574 69.542 206.838 69.542C207.222 69.542 207.504 69.44 207.684 69.236L208.134 70.658C207.738 71.03 207.144 71.216 206.352 71.216ZM213.504 71.216C212.184 71.216 211.092 70.796 210.228 69.956C209.376 69.104 208.95 68 208.95 66.644C208.95 65.372 209.364 64.298 210.192 63.422C211.032 62.534 212.088 62.09 213.36 62.09C214.644 62.09 215.676 62.534 216.456 63.422C217.248 64.31 217.644 65.444 217.644 66.824V67.274H210.93C211.002 67.958 211.284 68.528 211.776 68.984C212.268 69.44 212.91 69.668 213.702 69.668C214.146 69.668 214.59 69.584 215.034 69.416C215.49 69.248 215.868 69.014 216.168 68.714L217.032 69.956C216.156 70.796 214.98 71.216 213.504 71.216ZM215.808 65.942C215.784 65.342 215.562 64.808 215.142 64.34C214.734 63.872 214.14 63.638 213.36 63.638C212.616 63.638 212.034 63.872 211.614 64.34C211.194 64.796 210.96 65.33 210.912 65.942H215.808ZM220.555 63.962H219.691C219.271 61.442 219.061 60.08 219.061 59.876C219.061 59.588 219.163 59.342 219.367 59.138C219.571 58.922 219.823 58.814 220.123 58.814C220.411 58.814 220.657 58.922 220.861 59.138C221.077 59.342 221.185 59.588 221.185 59.876L220.555 63.962ZM225.696 71.216C224.136 71.216 222.894 70.766 221.97 69.866L222.834 68.498C223.158 68.834 223.596 69.122 224.148 69.362C224.7 69.602 225.246 69.722 225.786 69.722C226.338 69.722 226.758 69.614 227.046 69.398C227.346 69.182 227.496 68.9 227.496 68.552C227.496 68.24 227.316 68 226.956 67.832C226.596 67.652 226.158 67.514 225.642 67.418C225.126 67.31 224.61 67.184 224.094 67.04C223.578 66.884 223.14 66.614 222.78 66.23C222.42 65.846 222.24 65.348 222.24 64.736C222.24 63.992 222.546 63.368 223.158 62.864C223.77 62.348 224.604 62.09 225.66 62.09C226.992 62.09 228.12 62.498 229.044 63.314L228.252 64.646C227.976 64.334 227.61 64.082 227.154 63.89C226.698 63.698 226.206 63.602 225.678 63.602C225.186 63.602 224.79 63.704 224.49 63.908C224.202 64.1 224.058 64.352 224.058 64.664C224.058 64.904 224.184 65.102 224.436 65.258C224.7 65.402 225.024 65.51 225.408 65.582C225.804 65.654 226.23 65.756 226.686 65.888C227.142 66.008 227.562 66.152 227.946 66.32C228.342 66.488 228.666 66.764 228.918 67.148C229.182 67.52 229.314 67.976 229.314 68.516C229.314 69.308 228.996 69.956 228.36 70.46C227.724 70.964 226.836 71.216 225.696 71.216ZM243.615 71H241.725V65.528C241.725 64.892 241.569 64.442 241.257 64.178C240.957 63.902 240.525 63.764 239.961 63.764C239.517 63.764 239.097 63.878 238.701 64.106C238.305 64.334 237.981 64.61 237.729 64.934V71H235.839V58.994H237.729V63.494C238.053 63.11 238.485 62.78 239.025 62.504C239.577 62.228 240.171 62.09 240.807 62.09C242.679 62.09 243.615 63.008 243.615 64.844V71ZM250.084 71.216C248.764 71.216 247.672 70.796 246.808 69.956C245.956 69.104 245.53 68 245.53 66.644C245.53 65.372 245.944 64.298 246.772 63.422C247.612 62.534 248.668 62.09 249.94 62.09C251.224 62.09 252.256 62.534 253.036 63.422C253.828 64.31 254.224 65.444 254.224 66.824V67.274H247.51C247.582 67.958 247.864 68.528 248.356 68.984C248.848 69.44 249.49 69.668 250.282 69.668C250.726 69.668 251.17 69.584 251.614 69.416C252.07 69.248 252.448 69.014 252.748 68.714L253.612 69.956C252.736 70.796 251.56 71.216 250.084 71.216ZM252.388 65.942C252.364 65.342 252.142 64.808 251.722 64.34C251.314 63.872 250.72 63.638 249.94 63.638C249.196 63.638 248.614 63.872 248.194 64.34C247.774 64.796 247.54 65.33 247.492 65.942H252.388ZM263.289 71H261.399V70.064C260.727 70.832 259.791 71.216 258.591 71.216C257.799 71.216 257.097 70.964 256.485 70.46C255.873 69.944 255.567 69.236 255.567 68.336C255.567 67.412 255.867 66.71 256.467 66.23C257.079 65.75 257.787 65.51 258.591 65.51C259.827 65.51 260.763 65.882 261.399 66.626V65.33C261.399 64.826 261.213 64.43 260.841 64.142C260.469 63.854 259.977 63.71 259.365 63.71C258.393 63.71 257.535 64.076 256.791 64.808L256.017 63.494C257.001 62.558 258.219 62.09 259.671 62.09C260.739 62.09 261.609 62.342 262.281 62.846C262.953 63.35 263.289 64.148 263.289 65.24V71ZM259.329 69.92C260.277 69.92 260.967 69.62 261.399 69.02V67.706C260.967 67.106 260.277 66.806 259.329 66.806C258.789 66.806 258.345 66.95 257.997 67.238C257.649 67.526 257.475 67.904 257.475 68.372C257.475 68.84 257.649 69.218 257.997 69.506C258.345 69.782 258.789 69.92 259.329 69.92ZM273.75 71H271.86V69.812C271.14 70.748 270.21 71.216 269.07 71.216C267.93 71.216 267 70.808 266.28 69.992C265.56 69.176 265.2 68.066 265.2 66.662C265.2 65.27 265.56 64.16 266.28 63.332C267 62.504 267.93 62.09 269.07 62.09C270.21 62.09 271.14 62.564 271.86 63.512V58.994H273.75V71ZM269.61 69.542C270.054 69.542 270.486 69.434 270.906 69.218C271.326 69.002 271.644 68.726 271.86 68.39V64.934C271.644 64.598 271.326 64.322 270.906 64.106C270.486 63.878 270.054 63.764 269.61 63.764C268.866 63.764 268.272 64.034 267.828 64.574C267.384 65.114 267.162 65.81 267.162 66.662C267.162 67.514 267.384 68.21 267.828 68.75C268.272 69.278 268.866 69.542 269.61 69.542ZM280.213 71.216C278.893 71.216 277.801 70.796 276.937 69.956C276.085 69.104 275.659 68 275.659 66.644C275.659 65.372 276.073 64.298 276.901 63.422C277.741 62.534 278.797 62.09 280.069 62.09C281.353 62.09 282.385 62.534 283.165 63.422C283.957 64.31 284.353 65.444 284.353 66.824V67.274H277.639C277.711 67.958 277.993 68.528 278.485 68.984C278.977 69.44 279.619 69.668 280.411 69.668C280.855 69.668 281.299 69.584 281.743 69.416C282.199 69.248 282.577 69.014 282.877 68.714L283.741 69.956C282.865 70.796 281.689 71.216 280.213 71.216ZM282.517 65.942C282.493 65.342 282.271 64.808 281.851 64.34C281.443 63.872 280.849 63.638 280.069 63.638C279.325 63.638 278.743 63.872 278.323 64.34C277.903 64.796 277.669 65.33 277.621 65.942H282.517ZM288.108 71H286.218V62.306H288.108V63.584C288.444 63.152 288.864 62.798 289.368 62.522C289.872 62.246 290.394 62.108 290.934 62.108V63.98C290.766 63.944 290.568 63.926 290.34 63.926C289.944 63.926 289.518 64.046 289.062 64.286C288.618 64.514 288.3 64.778 288.108 65.078V71ZM295.428 71.216C293.868 71.216 292.626 70.766 291.702 69.866L292.566 68.498C292.89 68.834 293.328 69.122 293.88 69.362C294.432 69.602 294.978 69.722 295.518 69.722C296.07 69.722 296.49 69.614 296.778 69.398C297.078 69.182 297.228 68.9 297.228 68.552C297.228 68.24 297.048 68 296.688 67.832C296.328 67.652 295.89 67.514 295.374 67.418C294.858 67.31 294.342 67.184 293.826 67.04C293.31 66.884 292.872 66.614 292.512 66.23C292.152 65.846 291.972 65.348 291.972 64.736C291.972 63.992 292.278 63.368 292.89 62.864C293.502 62.348 294.336 62.09 295.392 62.09C296.724 62.09 297.852 62.498 298.776 63.314L297.984 64.646C297.708 64.334 297.342 64.082 296.886 63.89C296.43 63.698 295.938 63.602 295.41 63.602C294.918 63.602 294.522 63.704 294.222 63.908C293.934 64.1 293.79 64.352 293.79 64.664C293.79 64.904 293.916 65.102 294.168 65.258C294.432 65.402 294.756 65.51 295.14 65.582C295.536 65.654 295.962 65.756 296.418 65.888C296.874 66.008 297.294 66.152 297.678 66.32C298.074 66.488 298.398 66.764 298.65 67.148C298.914 67.52 299.046 67.976 299.046 68.516C299.046 69.308 298.728 69.956 298.092 70.46C297.456 70.964 296.568 71.216 295.428 71.216ZM309.208 67.454H304.888V65.834H309.208V67.454ZM314.604 67.454H310.284V65.834H314.604V67.454ZM323.655 65.654L315.663 69.38V67.94L322.215 64.988L315.663 62.018V60.56L323.655 64.304V65.654ZM94.6117 173.38L86.6197 169.654V168.304L94.6117 164.56V166.018L88.0417 168.988L94.6117 171.94V173.38ZM98.1568 171.328H96.5188L96.1768 162.994H98.4808L98.1568 171.328ZM98.2108 174.82C97.9588 175.06 97.6648 175.18 97.3288 175.18C96.9928 175.18 96.6988 175.06 96.4468 174.82C96.2068 174.568 96.0868 174.274 96.0868 173.938C96.0868 173.59 96.2068 173.296 96.4468 173.056C96.6988 172.804 96.9928 172.678 97.3288 172.678C97.6648 172.678 97.9588 172.804 98.2108 173.056C98.4628 173.296 98.5888 173.59 98.5888 173.938C98.5888 174.274 98.4628 174.568 98.2108 174.82ZM104.405 171.454H100.085V169.834H104.405V171.454ZM109.801 171.454H105.481V169.834H109.801V171.454ZM121.747 175H119.641V170.014L114.979 162.994H117.391L120.703 168.142L123.979 162.994H126.391L121.747 170.014V175ZM129.32 175.216C127.976 175.216 126.896 174.778 126.08 173.902C125.264 173.014 124.856 171.928 124.856 170.644C124.856 169.36 125.264 168.28 126.08 167.404C126.896 166.528 127.976 166.09 129.32 166.09C130.676 166.09 131.762 166.528 132.578 167.404C133.394 168.28 133.802 169.36 133.802 170.644C133.802 171.94 133.394 173.026 132.578 173.902C131.762 174.778 130.676 175.216 129.32 175.216ZM129.32 173.542C130.1 173.542 130.712 173.266 131.156 172.714C131.612 172.15 131.84 171.46 131.84 170.644C131.84 169.84 131.612 169.162 131.156 168.61C130.712 168.046 130.1 167.764 129.32 167.764C128.552 167.764 127.94 168.046 127.484 168.61C127.04 169.162 126.818 169.84 126.818 170.644C126.818 171.46 127.04 172.15 127.484 172.714C127.94 173.266 128.552 173.542 129.32 173.542ZM143.472 175H141.582V173.848C140.766 174.76 139.74 175.216 138.504 175.216C136.644 175.216 135.714 174.298 135.714 172.462V166.306H137.604V171.778C137.604 172.414 137.754 172.87 138.054 173.146C138.354 173.41 138.786 173.542 139.35 173.542C139.806 173.542 140.232 173.434 140.628 173.218C141.024 173.002 141.342 172.732 141.582 172.408V166.306H143.472V175ZM147.817 175H145.927V166.306H147.817V167.584C148.153 167.152 148.573 166.798 149.077 166.522C149.581 166.246 150.103 166.108 150.643 166.108V167.98C150.475 167.944 150.277 167.926 150.049 167.926C149.653 167.926 149.227 168.046 148.771 168.286C148.327 168.514 148.009 168.778 147.817 169.078V175ZM166.348 175H164.368L162.352 168.628L160.336 175H158.356L155.656 166.306H157.618L159.454 172.624L161.524 166.306H163.18L165.25 172.624L167.086 166.306H169.048L166.348 175ZM174.375 175.216C173.055 175.216 171.963 174.796 171.099 173.956C170.247 173.104 169.821 172 169.821 170.644C169.821 169.372 170.235 168.298 171.063 167.422C171.903 166.534 172.959 166.09 174.231 166.09C175.515 166.09 176.547 166.534 177.327 167.422C178.119 168.31 178.515 169.444 178.515 170.824V171.274H171.801C171.873 171.958 172.155 172.528 172.647 172.984C173.139 173.44 173.781 173.668 174.573 173.668C175.017 173.668 175.461 173.584 175.905 173.416C176.361 173.248 176.739 173.014 177.039 172.714L177.903 173.956C177.027 174.796 175.851 175.216 174.375 175.216ZM176.679 169.942C176.655 169.342 176.433 168.808 176.013 168.34C175.605 167.872 175.011 167.638 174.231 167.638C173.487 167.638 172.905 167.872 172.485 168.34C172.065 168.796 171.831 169.33 171.783 169.942H176.679ZM182.27 172.39C182.474 172.714 182.786 172.99 183.206 173.218C183.638 173.434 184.07 173.542 184.502 173.542C185.246 173.542 185.84 173.278 186.284 172.75C186.74 172.21 186.968 171.514 186.968 170.662C186.968 169.81 186.74 169.114 186.284 168.574C185.84 168.034 185.246 167.764 184.502 167.764C184.07 167.764 183.644 167.878 183.224 168.106C182.804 168.334 182.486 168.616 182.27 168.952V172.39ZM182.27 175H180.38V162.994H182.27V167.512C182.978 166.564 183.908 166.09 185.06 166.09C186.188 166.09 187.112 166.51 187.832 167.35C188.552 168.178 188.912 169.282 188.912 170.662C188.912 172.066 188.552 173.176 187.832 173.992C187.112 174.808 186.188 175.216 185.06 175.216C183.92 175.216 182.99 174.748 182.27 173.812V175ZM193.809 175.216C192.249 175.216 191.007 174.766 190.083 173.866L190.947 172.498C191.271 172.834 191.709 173.122 192.261 173.362C192.813 173.602 193.359 173.722 193.899 173.722C194.451 173.722 194.871 173.614 195.159 173.398C195.459 173.182 195.609 172.9 195.609 172.552C195.609 172.24 195.429 172 195.069 171.832C194.709 171.652 194.271 171.514 193.755 171.418C193.239 171.31 192.723 171.184 192.207 171.04C191.691 170.884 191.253 170.614 190.893 170.23C190.533 169.846 190.353 169.348 190.353 168.736C190.353 167.992 190.659 167.368 191.271 166.864C191.883 166.348 192.717 166.09 193.773 166.09C195.105 166.09 196.233 166.498 197.157 167.314L196.365 168.646C196.089 168.334 195.723 168.082 195.267 167.89C194.811 167.698 194.319 167.602 193.791 167.602C193.299 167.602 192.903 167.704 192.603 167.908C192.315 168.1 192.171 168.352 192.171 168.664C192.171 168.904 192.297 169.102 192.549 169.258C192.813 169.402 193.137 169.51 193.521 169.582C193.917 169.654 194.343 169.756 194.799 169.888C195.255 170.008 195.675 170.152 196.059 170.32C196.455 170.488 196.779 170.764 197.031 171.148C197.295 171.52 197.427 171.976 197.427 172.516C197.427 173.308 197.109 173.956 196.473 174.46C195.837 174.964 194.949 175.216 193.809 175.216ZM200.265 165.244C199.953 165.244 199.677 165.13 199.437 164.902C199.209 164.674 199.095 164.398 199.095 164.074C199.095 163.75 199.209 163.474 199.437 163.246C199.677 163.018 199.953 162.904 200.265 162.904C200.589 162.904 200.865 163.018 201.093 163.246C201.321 163.474 201.435 163.75 201.435 164.074C201.435 164.398 201.321 164.674 201.093 164.902C200.865 165.13 200.589 165.244 200.265 165.244ZM201.219 175H199.329V166.306H201.219V175ZM206.281 175.216C205.549 175.216 204.991 175.024 204.607 174.64C204.235 174.256 204.049 173.704 204.049 172.984V167.962H202.609V166.306H204.049V163.93H205.939V166.306H207.703V167.962H205.939V172.516C205.939 172.828 206.011 173.08 206.155 173.272C206.299 173.452 206.503 173.542 206.767 173.542C207.151 173.542 207.433 173.44 207.613 173.236L208.063 174.658C207.667 175.03 207.073 175.216 206.281 175.216ZM213.433 175.216C212.113 175.216 211.021 174.796 210.157 173.956C209.305 173.104 208.879 172 208.879 170.644C208.879 169.372 209.293 168.298 210.121 167.422C210.961 166.534 212.017 166.09 213.289 166.09C214.573 166.09 215.605 166.534 216.385 167.422C217.177 168.31 217.573 169.444 217.573 170.824V171.274H210.859C210.931 171.958 211.213 172.528 211.705 172.984C212.197 173.44 212.839 173.668 213.631 173.668C214.075 173.668 214.519 173.584 214.963 173.416C215.419 173.248 215.797 173.014 216.097 172.714L216.961 173.956C216.085 174.796 214.909 175.216 213.433 175.216ZM215.737 169.942C215.713 169.342 215.491 168.808 215.071 168.34C214.663 167.872 214.069 167.638 213.289 167.638C212.545 167.638 211.963 167.872 211.543 168.34C211.123 168.796 210.889 169.33 210.841 169.942H215.737ZM220.485 167.962H219.621C219.201 165.442 218.991 164.08 218.991 163.876C218.991 163.588 219.093 163.342 219.297 163.138C219.501 162.922 219.753 162.814 220.053 162.814C220.341 162.814 220.587 162.922 220.791 163.138C221.007 163.342 221.115 163.588 221.115 163.876L220.485 167.962ZM225.626 175.216C224.066 175.216 222.824 174.766 221.9 173.866L222.764 172.498C223.088 172.834 223.526 173.122 224.078 173.362C224.63 173.602 225.176 173.722 225.716 173.722C226.268 173.722 226.688 173.614 226.976 173.398C227.276 173.182 227.426 172.9 227.426 172.552C227.426 172.24 227.246 172 226.886 171.832C226.526 171.652 226.088 171.514 225.572 171.418C225.056 171.31 224.54 171.184 224.024 171.04C223.508 170.884 223.07 170.614 222.71 170.23C222.35 169.846 222.17 169.348 222.17 168.736C222.17 167.992 222.476 167.368 223.088 166.864C223.7 166.348 224.534 166.09 225.59 166.09C226.922 166.09 228.05 166.498 228.974 167.314L228.182 168.646C227.906 168.334 227.54 168.082 227.084 167.89C226.628 167.698 226.136 167.602 225.608 167.602C225.116 167.602 224.72 167.704 224.42 167.908C224.132 168.1 223.988 168.352 223.988 168.664C223.988 168.904 224.114 169.102 224.366 169.258C224.63 169.402 224.954 169.51 225.338 169.582C225.734 169.654 226.16 169.756 226.616 169.888C227.072 170.008 227.492 170.152 227.876 170.32C228.272 170.488 228.596 170.764 228.848 171.148C229.112 171.52 229.244 171.976 229.244 172.516C229.244 173.308 228.926 173.956 228.29 174.46C227.654 174.964 226.766 175.216 225.626 175.216ZM239.729 175.216C238.409 175.216 237.329 174.79 236.489 173.938C235.649 173.074 235.229 171.976 235.229 170.644C235.229 169.324 235.649 168.238 236.489 167.386C237.329 166.522 238.409 166.09 239.729 166.09C241.181 166.09 242.291 166.606 243.059 167.638L241.817 168.79C241.337 168.106 240.671 167.764 239.819 167.764C239.027 167.764 238.391 168.034 237.911 168.574C237.431 169.102 237.191 169.792 237.191 170.644C237.191 171.496 237.431 172.192 237.911 172.732C238.391 173.272 239.027 173.542 239.819 173.542C240.647 173.542 241.313 173.2 241.817 172.516L243.059 173.668C242.291 174.7 241.181 175.216 239.729 175.216ZM248.64 175.216C247.296 175.216 246.216 174.778 245.4 173.902C244.584 173.014 244.176 171.928 244.176 170.644C244.176 169.36 244.584 168.28 245.4 167.404C246.216 166.528 247.296 166.09 248.64 166.09C249.996 166.09 251.082 166.528 251.898 167.404C252.714 168.28 253.122 169.36 253.122 170.644C253.122 171.94 252.714 173.026 251.898 173.902C251.082 174.778 249.996 175.216 248.64 175.216ZM248.64 173.542C249.42 173.542 250.032 173.266 250.476 172.714C250.932 172.15 251.16 171.46 251.16 170.644C251.16 169.84 250.932 169.162 250.476 168.61C250.032 168.046 249.42 167.764 248.64 167.764C247.872 167.764 247.26 168.046 246.804 168.61C246.36 169.162 246.138 169.84 246.138 170.644C246.138 171.46 246.36 172.15 246.804 172.714C247.26 173.266 247.872 173.542 248.64 173.542ZM262.793 175H260.903V169.564C260.903 168.364 260.321 167.764 259.157 167.764C258.701 167.764 258.275 167.878 257.879 168.106C257.483 168.334 257.165 168.61 256.925 168.934V175H255.035V166.306H256.925V167.494C257.249 167.11 257.681 166.78 258.221 166.504C258.761 166.228 259.349 166.09 259.985 166.09C260.909 166.09 261.605 166.33 262.073 166.81C262.553 167.29 262.793 167.98 262.793 168.88V175ZM267.857 175.216C267.125 175.216 266.567 175.024 266.183 174.64C265.811 174.256 265.625 173.704 265.625 172.984V167.962H264.185V166.306H265.625V163.93H267.515V166.306H269.279V167.962H267.515V172.516C267.515 172.828 267.587 173.08 267.731 173.272C267.875 173.452 268.079 173.542 268.343 173.542C268.727 173.542 269.009 173.44 269.189 173.236L269.639 174.658C269.243 175.03 268.649 175.216 267.857 175.216ZM275.009 175.216C273.689 175.216 272.597 174.796 271.733 173.956C270.881 173.104 270.455 172 270.455 170.644C270.455 169.372 270.869 168.298 271.697 167.422C272.537 166.534 273.593 166.09 274.865 166.09C276.149 166.09 277.181 166.534 277.961 167.422C278.753 168.31 279.149 169.444 279.149 170.824V171.274H272.435C272.507 171.958 272.789 172.528 273.281 172.984C273.773 173.44 274.415 173.668 275.207 173.668C275.651 173.668 276.095 173.584 276.539 173.416C276.995 173.248 277.373 173.014 277.673 172.714L278.537 173.956C277.661 174.796 276.485 175.216 275.009 175.216ZM277.313 169.942C277.289 169.342 277.067 168.808 276.647 168.34C276.239 167.872 275.645 167.638 274.865 167.638C274.121 167.638 273.539 167.872 273.119 168.34C272.699 168.796 272.465 169.33 272.417 169.942H277.313ZM288.773 175H286.883V169.564C286.883 168.364 286.301 167.764 285.137 167.764C284.681 167.764 284.255 167.878 283.859 168.106C283.463 168.334 283.145 168.61 282.905 168.934V175H281.015V166.306H282.905V167.494C283.229 167.11 283.661 166.78 284.201 166.504C284.741 166.228 285.329 166.09 285.965 166.09C286.889 166.09 287.585 166.33 288.053 166.81C288.533 167.29 288.773 167.98 288.773 168.88V175ZM293.838 175.216C293.106 175.216 292.548 175.024 292.164 174.64C291.792 174.256 291.606 173.704 291.606 172.984V167.962H290.166V166.306H291.606V163.93H293.496V166.306H295.26V167.962H293.496V172.516C293.496 172.828 293.568 173.08 293.712 173.272C293.856 173.452 294.06 173.542 294.324 173.542C294.708 173.542 294.99 173.44 295.17 173.236L295.62 174.658C295.224 175.03 294.63 175.216 293.838 175.216ZM300.612 171.454H296.292V169.834H300.612V171.454ZM306.008 171.454H301.688V169.834H306.008V171.454ZM315.059 169.654L307.067 173.38V171.94L313.619 168.988L307.067 166.018V164.56L315.059 168.304V169.654Z" fill="#818990"/>
<path d="M85.1413 97.216C83.5813 97.216 82.3393 96.766 81.4153 95.866L82.2793 94.498C82.6033 94.834 83.0413 95.122 83.5933 95.362C84.1453 95.602 84.6913 95.722 85.2313 95.722C85.7833 95.722 86.2033 95.614 86.4913 95.398C86.7913 95.182 86.9413 94.9 86.9413 94.552C86.9413 94.24 86.7613 94 86.4013 93.832C86.0413 93.652 85.6033 93.514 85.0873 93.418C84.5713 93.31 84.0553 93.184 83.5393 93.04C83.0233 92.884 82.5853 92.614 82.2253 92.23C81.8653 91.846 81.6853 91.348 81.6853 90.736C81.6853 89.992 81.9913 89.368 82.6033 88.864C83.2153 88.348 84.0493 88.09 85.1053 88.09C86.4373 88.09 87.5653 88.498 88.4893 89.314L87.6973 90.646C87.4213 90.334 87.0553 90.082 86.5993 89.89C86.1433 89.698 85.6513 89.602 85.1233 89.602C84.6313 89.602 84.2353 89.704 83.9353 89.908C83.6473 90.1 83.5033 90.352 83.5033 90.664C83.5033 90.904 83.6293 91.102 83.8813 91.258C84.1453 91.402 84.4693 91.51 84.8533 91.582C85.2493 91.654 85.6753 91.756 86.1313 91.888C86.5873 92.008 87.0073 92.152 87.3913 92.32C87.7873 92.488 88.1113 92.764 88.3633 93.148C88.6273 93.52 88.7593 93.976 88.7593 94.516C88.7593 95.308 88.4413 95.956 87.8053 96.46C87.1693 96.964 86.2813 97.216 85.1413 97.216ZM92.5515 97H90.6615V88.306H92.5515V89.584C92.8875 89.152 93.3075 88.798 93.8115 88.522C94.3155 88.246 94.8375 88.108 95.3775 88.108V89.98C95.2095 89.944 95.0115 89.926 94.7835 89.926C94.3875 89.926 93.9615 90.046 93.5055 90.286C93.0615 90.514 92.7435 90.778 92.5515 91.078V97ZM100.862 97.216C99.5417 97.216 98.4617 96.79 97.6217 95.938C96.7817 95.074 96.3617 93.976 96.3617 92.644C96.3617 91.324 96.7817 90.238 97.6217 89.386C98.4617 88.522 99.5417 88.09 100.862 88.09C102.314 88.09 103.424 88.606 104.192 89.638L102.95 90.79C102.47 90.106 101.804 89.764 100.952 89.764C100.16 89.764 99.5237 90.034 99.0437 90.574C98.5637 91.102 98.3237 91.792 98.3237 92.644C98.3237 93.496 98.5637 94.192 99.0437 94.732C99.5237 95.272 100.16 95.542 100.952 95.542C101.78 95.542 102.446 95.2 102.95 94.516L104.192 95.668C103.424 96.7 102.314 97.216 100.862 97.216Z" fill="#008A3A"/>
<path d="M116.018 89.962H115.154C114.734 87.442 114.524 86.08 114.524 85.876C114.524 85.588 114.626 85.342 114.83 85.138C115.034 84.922 115.286 84.814 115.586 84.814C115.874 84.814 116.12 84.922 116.324 85.138C116.54 85.342 116.648 85.588 116.648 85.876L116.018 89.962ZM118.988 89.962H118.142C117.722 87.442 117.512 86.08 117.512 85.876C117.512 85.588 117.614 85.342 117.818 85.138C118.022 84.922 118.274 84.814 118.574 84.814C118.862 84.814 119.108 84.922 119.312 85.138C119.516 85.342 119.618 85.588 119.618 85.876L118.988 89.962ZM129.48 97H127.59V91.528C127.59 90.892 127.434 90.442 127.122 90.178C126.822 89.902 126.39 89.764 125.826 89.764C125.382 89.764 124.962 89.878 124.566 90.106C124.17 90.334 123.846 90.61 123.594 90.934V97H121.704V84.994H123.594V89.494C123.918 89.11 124.35 88.78 124.89 88.504C125.442 88.228 126.036 88.09 126.672 88.09C128.544 88.09 129.48 89.008 129.48 90.844V97ZM134.545 97.216C133.813 97.216 133.255 97.024 132.871 96.64C132.499 96.256 132.313 95.704 132.313 94.984V89.962H130.873V88.306H132.313V85.93H134.203V88.306H135.967V89.962H134.203V94.516C134.203 94.828 134.275 95.08 134.419 95.272C134.563 95.452 134.767 95.542 135.031 95.542C135.415 95.542 135.697 95.44 135.877 95.236L136.327 96.658C135.931 97.03 135.337 97.216 134.545 97.216ZM140.293 97.216C139.561 97.216 139.003 97.024 138.619 96.64C138.247 96.256 138.061 95.704 138.061 94.984V89.962H136.621V88.306H138.061V85.93H139.951V88.306H141.715V89.962H139.951V94.516C139.951 94.828 140.023 95.08 140.167 95.272C140.311 95.452 140.515 95.542 140.779 95.542C141.163 95.542 141.445 95.44 141.625 95.236L142.075 96.658C141.679 97.03 141.085 97.216 140.293 97.216ZM148.111 97.216C146.959 97.216 146.029 96.742 145.321 95.794V100.312H143.431V88.306H145.321V89.494C146.017 88.558 146.947 88.09 148.111 88.09C149.251 88.09 150.175 88.498 150.883 89.314C151.603 90.13 151.963 91.24 151.963 92.644C151.963 94.048 151.603 95.164 150.883 95.992C150.175 96.808 149.251 97.216 148.111 97.216ZM147.553 95.542C148.297 95.542 148.891 95.272 149.335 94.732C149.779 94.192 150.001 93.496 150.001 92.644C150.001 91.792 149.779 91.102 149.335 90.574C148.891 90.034 148.297 89.764 147.553 89.764C147.121 89.764 146.695 89.878 146.275 90.106C145.855 90.334 145.537 90.61 145.321 90.934V94.372C145.537 94.696 145.855 94.972 146.275 95.2C146.695 95.428 147.121 95.542 147.553 95.542ZM156.807 97.216C155.247 97.216 154.005 96.766 153.081 95.866L153.945 94.498C154.269 94.834 154.707 95.122 155.259 95.362C155.811 95.602 156.357 95.722 156.897 95.722C157.449 95.722 157.869 95.614 158.157 95.398C158.457 95.182 158.607 94.9 158.607 94.552C158.607 94.24 158.427 94 158.067 93.832C157.707 93.652 157.269 93.514 156.753 93.418C156.237 93.31 155.721 93.184 155.205 93.04C154.689 92.884 154.251 92.614 153.891 92.23C153.531 91.846 153.351 91.348 153.351 90.736C153.351 89.992 153.657 89.368 154.269 88.864C154.881 88.348 155.715 88.09 156.771 88.09C158.103 88.09 159.231 88.498 160.155 89.314L159.363 90.646C159.087 90.334 158.721 90.082 158.265 89.89C157.809 89.698 157.317 89.602 156.789 89.602C156.297 89.602 155.901 89.704 155.601 89.908C155.313 90.1 155.169 90.352 155.169 90.664C155.169 90.904 155.295 91.102 155.547 91.258C155.811 91.402 156.135 91.51 156.519 91.582C156.915 91.654 157.341 91.756 157.797 91.888C158.253 92.008 158.673 92.152 159.057 92.32C159.453 92.488 159.777 92.764 160.029 93.148C160.293 93.52 160.425 93.976 160.425 94.516C160.425 95.308 160.107 95.956 159.471 96.46C158.835 96.964 157.947 97.216 156.807 97.216ZM164.182 90.322C163.93 90.574 163.636 90.7 163.3 90.7C162.964 90.7 162.67 90.574 162.418 90.322C162.166 90.07 162.04 89.776 162.04 89.44C162.04 89.104 162.166 88.81 162.418 88.558C162.67 88.306 162.964 88.18 163.3 88.18C163.636 88.18 163.93 88.306 164.182 88.558C164.434 88.81 164.56 89.104 164.56 89.44C164.56 89.776 164.434 90.07 164.182 90.322ZM164.182 96.838C163.93 97.078 163.636 97.198 163.3 97.198C162.964 97.198 162.67 97.078 162.418 96.838C162.166 96.586 162.04 96.286 162.04 95.938C162.04 95.59 162.166 95.296 162.418 95.056C162.67 94.804 162.964 94.678 163.3 94.678C163.636 94.678 163.93 94.804 164.182 95.056C164.434 95.296 164.56 95.59 164.56 95.938C164.56 96.286 164.434 96.586 164.182 96.838ZM166.92 97.36H165.516L169.782 84.634H171.186L166.92 97.36ZM172.597 97.36H171.193L175.459 84.634H176.863L172.597 97.36ZM182.109 97.216C180.789 97.216 179.697 96.796 178.833 95.956C177.981 95.104 177.555 94 177.555 92.644C177.555 91.372 177.969 90.298 178.797 89.422C179.637 88.534 180.693 88.09 181.965 88.09C183.249 88.09 184.281 88.534 185.061 89.422C185.853 90.31 186.249 91.444 186.249 92.824V93.274H179.535C179.607 93.958 179.889 94.528 180.381 94.984C180.873 95.44 181.515 95.668 182.307 95.668C182.751 95.668 183.195 95.584 183.639 95.416C184.095 95.248 184.473 95.014 184.773 94.714L185.637 95.956C184.761 96.796 183.585 97.216 182.109 97.216ZM184.413 91.942C184.389 91.342 184.167 90.808 183.747 90.34C183.339 89.872 182.745 89.638 181.965 89.638C181.221 89.638 180.639 89.872 180.219 90.34C179.799 90.796 179.565 91.33 179.517 91.942H184.413ZM195.873 97H193.983V91.564C193.983 90.364 193.401 89.764 192.237 89.764C191.781 89.764 191.355 89.878 190.959 90.106C190.563 90.334 190.245 90.61 190.005 90.934V97H188.115V88.306H190.005V89.494C190.329 89.11 190.761 88.78 191.301 88.504C191.841 88.228 192.429 88.09 193.065 88.09C193.989 88.09 194.685 88.33 195.153 88.81C195.633 89.29 195.873 89.98 195.873 90.88V97ZM201.856 100.528C200.38 100.528 199.168 100.096 198.22 99.232L199.102 97.864C199.75 98.608 200.668 98.98 201.856 98.98C202.576 98.98 203.182 98.788 203.674 98.404C204.178 98.032 204.43 97.438 204.43 96.622V95.578C203.686 96.538 202.756 97.018 201.64 97.018C200.5 97.018 199.57 96.622 198.85 95.83C198.142 95.038 197.788 93.946 197.788 92.554C197.788 91.174 198.142 90.088 198.85 89.296C199.57 88.492 200.5 88.09 201.64 88.09C202.78 88.09 203.71 88.564 204.43 89.512V88.306H206.32V96.55C206.32 97.294 206.188 97.936 205.924 98.476C205.672 99.028 205.324 99.442 204.88 99.718C204.436 100.006 203.962 100.21 203.458 100.33C202.966 100.462 202.432 100.528 201.856 100.528ZM202.198 95.344C202.63 95.344 203.056 95.23 203.476 95.002C203.896 94.774 204.214 94.498 204.43 94.174V90.934C204.214 90.61 203.896 90.334 203.476 90.106C203.056 89.878 202.63 89.764 202.198 89.764C201.454 89.764 200.86 90.022 200.416 90.538C199.972 91.042 199.75 91.714 199.75 92.554C199.75 93.394 199.972 94.072 200.416 94.588C200.86 95.092 201.454 95.344 202.198 95.344ZM209.705 87.244C209.393 87.244 209.117 87.13 208.877 86.902C208.649 86.674 208.535 86.398 208.535 86.074C208.535 85.75 208.649 85.474 208.877 85.246C209.117 85.018 209.393 84.904 209.705 84.904C210.029 84.904 210.305 85.018 210.533 85.246C210.761 85.474 210.875 85.75 210.875 86.074C210.875 86.398 210.761 86.674 210.533 86.902C210.305 87.13 210.029 87.244 209.705 87.244ZM210.659 97H208.769V88.306H210.659V97ZM220.869 97H218.979V91.564C218.979 90.364 218.397 89.764 217.233 89.764C216.777 89.764 216.351 89.878 215.955 90.106C215.559 90.334 215.241 90.61 215.001 90.934V97H213.111V88.306H215.001V89.494C215.325 89.11 215.757 88.78 216.297 88.504C216.837 88.228 217.425 88.09 218.061 88.09C218.985 88.09 219.681 88.33 220.149 88.81C220.629 89.29 220.869 89.98 220.869 90.88V97ZM227.338 97.216C226.018 97.216 224.926 96.796 224.062 95.956C223.21 95.104 222.784 94 222.784 92.644C222.784 91.372 223.198 90.298 224.026 89.422C224.866 88.534 225.922 88.09 227.194 88.09C228.478 88.09 229.51 88.534 230.29 89.422C231.082 90.31 231.478 91.444 231.478 92.824V93.274H224.764C224.836 93.958 225.118 94.528 225.61 94.984C226.102 95.44 226.744 95.668 227.536 95.668C227.98 95.668 228.424 95.584 228.868 95.416C229.324 95.248 229.702 95.014 230.002 94.714L230.866 95.956C229.99 96.796 228.814 97.216 227.338 97.216ZM229.642 91.942C229.618 91.342 229.396 90.808 228.976 90.34C228.568 89.872 227.974 89.638 227.194 89.638C226.45 89.638 225.868 89.872 225.448 90.34C225.028 90.796 224.794 91.33 224.746 91.942H229.642ZM235.109 96.838C234.857 97.078 234.563 97.198 234.227 97.198C233.891 97.198 233.597 97.078 233.345 96.838C233.093 96.586 232.967 96.286 232.967 95.938C232.967 95.59 233.093 95.296 233.345 95.056C233.597 94.804 233.891 94.678 234.227 94.678C234.563 94.678 234.857 94.804 235.109 95.056C235.361 95.296 235.487 95.59 235.487 95.938C235.487 96.286 235.361 96.586 235.109 96.838ZM239.557 94.39C239.761 94.714 240.073 94.99 240.493 95.218C240.925 95.434 241.357 95.542 241.789 95.542C242.533 95.542 243.127 95.278 243.571 94.75C244.027 94.21 244.255 93.514 244.255 92.662C244.255 91.81 244.027 91.114 243.571 90.574C243.127 90.034 242.533 89.764 241.789 89.764C241.357 89.764 240.931 89.878 240.511 90.106C240.091 90.334 239.773 90.616 239.557 90.952V94.39ZM239.557 97H237.667V84.994H239.557V89.512C240.265 88.564 241.195 88.09 242.347 88.09C243.475 88.09 244.399 88.51 245.119 89.35C245.839 90.178 246.199 91.282 246.199 92.662C246.199 94.066 245.839 95.176 245.119 95.992C244.399 96.808 243.475 97.216 242.347 97.216C241.207 97.216 240.277 96.748 239.557 95.812V97ZM255.326 97H253.436V96.064C252.764 96.832 251.828 97.216 250.628 97.216C249.836 97.216 249.134 96.964 248.522 96.46C247.91 95.944 247.604 95.236 247.604 94.336C247.604 93.412 247.904 92.71 248.504 92.23C249.116 91.75 249.824 91.51 250.628 91.51C251.864 91.51 252.8 91.882 253.436 92.626V91.33C253.436 90.826 253.25 90.43 252.878 90.142C252.506 89.854 252.014 89.71 251.402 89.71C250.43 89.71 249.572 90.076 248.828 90.808L248.054 89.494C249.038 88.558 250.256 88.09 251.708 88.09C252.776 88.09 253.646 88.342 254.318 88.846C254.99 89.35 255.326 90.148 255.326 91.24V97ZM251.366 95.92C252.314 95.92 253.004 95.62 253.436 95.02V93.706C253.004 93.106 252.314 92.806 251.366 92.806C250.826 92.806 250.382 92.95 250.034 93.238C249.686 93.526 249.512 93.904 249.512 94.372C249.512 94.84 249.686 95.218 250.034 95.506C250.382 95.782 250.826 95.92 251.366 95.92ZM265.535 97H263.645V91.564C263.645 90.364 263.063 89.764 261.899 89.764C261.443 89.764 261.017 89.878 260.621 90.106C260.225 90.334 259.907 90.61 259.667 90.934V97H257.777V88.306H259.667V89.494C259.991 89.11 260.423 88.78 260.963 88.504C261.503 88.228 262.091 88.09 262.727 88.09C263.651 88.09 264.347 88.33 264.815 88.81C265.295 89.29 265.535 89.98 265.535 90.88V97ZM275.19 97H273.3V96.064C272.628 96.832 271.692 97.216 270.492 97.216C269.7 97.216 268.998 96.964 268.386 96.46C267.774 95.944 267.468 95.236 267.468 94.336C267.468 93.412 267.768 92.71 268.368 92.23C268.98 91.75 269.688 91.51 270.492 91.51C271.728 91.51 272.664 91.882 273.3 92.626V91.33C273.3 90.826 273.114 90.43 272.742 90.142C272.37 89.854 271.878 89.71 271.266 89.71C270.294 89.71 269.436 90.076 268.692 90.808L267.918 89.494C268.902 88.558 270.12 88.09 271.572 88.09C272.64 88.09 273.51 88.342 274.182 88.846C274.854 89.35 275.19 90.148 275.19 91.24V97ZM271.23 95.92C272.178 95.92 272.868 95.62 273.3 95.02V93.706C272.868 93.106 272.178 92.806 271.23 92.806C270.69 92.806 270.246 92.95 269.898 93.238C269.55 93.526 269.376 93.904 269.376 94.372C269.376 94.84 269.55 95.218 269.898 95.506C270.246 95.782 270.69 95.92 271.23 95.92ZM279.53 94.39C279.734 94.714 280.046 94.99 280.466 95.218C280.898 95.434 281.33 95.542 281.762 95.542C282.506 95.542 283.1 95.278 283.544 94.75C284 94.21 284.228 93.514 284.228 92.662C284.228 91.81 284 91.114 283.544 90.574C283.1 90.034 282.506 89.764 281.762 89.764C281.33 89.764 280.904 89.878 280.484 90.106C280.064 90.334 279.746 90.616 279.53 90.952V94.39ZM279.53 97H277.64V84.994H279.53V89.512C280.238 88.564 281.168 88.09 282.32 88.09C283.448 88.09 284.372 88.51 285.092 89.35C285.812 90.178 286.172 91.282 286.172 92.662C286.172 94.066 285.812 95.176 285.092 95.992C284.372 96.808 283.448 97.216 282.32 97.216C281.18 97.216 280.25 96.748 279.53 95.812V97ZM292.023 97.216C290.679 97.216 289.599 96.778 288.783 95.902C287.967 95.014 287.559 93.928 287.559 92.644C287.559 91.36 287.967 90.28 288.783 89.404C289.599 88.528 290.679 88.09 292.023 88.09C293.379 88.09 294.465 88.528 295.281 89.404C296.097 90.28 296.505 91.36 296.505 92.644C296.505 93.94 296.097 95.026 295.281 95.902C294.465 96.778 293.379 97.216 292.023 97.216ZM292.023 95.542C292.803 95.542 293.415 95.266 293.859 94.714C294.315 94.15 294.543 93.46 294.543 92.644C294.543 91.84 294.315 91.162 293.859 90.61C293.415 90.046 292.803 89.764 292.023 89.764C291.255 89.764 290.643 90.046 290.187 90.61C289.743 91.162 289.521 91.84 289.521 92.644C289.521 93.46 289.743 94.15 290.187 94.714C290.643 95.266 291.255 95.542 292.023 95.542ZM300.183 96.838C299.931 97.078 299.637 97.198 299.301 97.198C298.965 97.198 298.671 97.078 298.419 96.838C298.167 96.586 298.041 96.286 298.041 95.938C298.041 95.59 298.167 95.296 298.419 95.056C298.671 94.804 298.965 94.678 299.301 94.678C299.637 94.678 299.931 94.804 300.183 95.056C300.435 95.296 300.561 95.59 300.561 95.938C300.561 96.286 300.435 96.586 300.183 96.838ZM303.678 87.244C303.366 87.244 303.09 87.13 302.85 86.902C302.622 86.674 302.508 86.398 302.508 86.074C302.508 85.75 302.622 85.474 302.85 85.246C303.09 85.018 303.366 84.904 303.678 84.904C304.002 84.904 304.278 85.018 304.506 85.246C304.734 85.474 304.848 85.75 304.848 86.074C304.848 86.398 304.734 86.674 304.506 86.902C304.278 87.13 304.002 87.244 303.678 87.244ZM304.632 97H302.742V88.306H304.632V97ZM311.007 97.216C309.663 97.216 308.583 96.778 307.767 95.902C306.951 95.014 306.543 93.928 306.543 92.644C306.543 91.36 306.951 90.28 307.767 89.404C308.583 88.528 309.663 88.09 311.007 88.09C312.363 88.09 313.449 88.528 314.265 89.404C315.081 90.28 315.489 91.36 315.489 92.644C315.489 93.94 315.081 95.026 314.265 95.902C313.449 96.778 312.363 97.216 311.007 97.216ZM311.007 95.542C311.787 95.542 312.399 95.266 312.843 94.714C313.299 94.15 313.527 93.46 313.527 92.644C313.527 91.84 313.299 91.162 312.843 90.61C312.399 90.046 311.787 89.764 311.007 89.764C310.239 89.764 309.627 90.046 309.171 90.61C308.727 91.162 308.505 91.84 308.505 92.644C308.505 93.46 308.727 94.15 309.171 94.714C309.627 95.266 310.239 95.542 311.007 95.542ZM317.582 97.36H316.178L320.444 84.634H321.848L317.582 97.36ZM327.093 97.216C325.773 97.216 324.681 96.796 323.817 95.956C322.965 95.104 322.539 94 322.539 92.644C322.539 91.372 322.953 90.298 323.781 89.422C324.621 88.534 325.677 88.09 326.949 88.09C328.233 88.09 329.265 88.534 330.045 89.422C330.837 90.31 331.233 91.444 331.233 92.824V93.274H324.519C324.591 93.958 324.873 94.528 325.365 94.984C325.857 95.44 326.499 95.668 327.291 95.668C327.735 95.668 328.179 95.584 328.623 95.416C329.079 95.248 329.457 95.014 329.757 94.714L330.621 95.956C329.745 96.796 328.569 97.216 327.093 97.216ZM329.397 91.942C329.373 91.342 329.151 90.808 328.731 90.34C328.323 89.872 327.729 89.638 326.949 89.638C326.205 89.638 325.623 89.872 325.203 90.34C324.783 90.796 324.549 91.33 324.501 91.942H329.397ZM345.645 97H343.755V91.33C343.755 90.286 343.281 89.764 342.333 89.764C341.937 89.764 341.553 89.878 341.181 90.106C340.809 90.334 340.521 90.604 340.317 90.916V97H338.427V91.33C338.427 90.286 337.947 89.764 336.987 89.764C336.603 89.764 336.225 89.878 335.853 90.106C335.493 90.334 335.205 90.61 334.989 90.934V97H333.099V88.306H334.989V89.494C335.205 89.17 335.577 88.858 336.105 88.558C336.645 88.246 337.215 88.09 337.815 88.09C339.075 88.09 339.867 88.624 340.191 89.692C340.467 89.26 340.875 88.888 341.415 88.576C341.955 88.252 342.531 88.09 343.143 88.09C344.811 88.09 345.645 88.966 345.645 90.718V97ZM349.983 94.39C350.187 94.714 350.499 94.99 350.919 95.218C351.351 95.434 351.783 95.542 352.215 95.542C352.959 95.542 353.553 95.278 353.997 94.75C354.453 94.21 354.681 93.514 354.681 92.662C354.681 91.81 354.453 91.114 353.997 90.574C353.553 90.034 352.959 89.764 352.215 89.764C351.783 89.764 351.357 89.878 350.937 90.106C350.517 90.334 350.199 90.616 349.983 90.952V94.39ZM349.983 97H348.093V84.994H349.983V89.512C350.691 88.564 351.621 88.09 352.773 88.09C353.901 88.09 354.825 88.51 355.545 89.35C356.265 90.178 356.625 91.282 356.625 92.662C356.625 94.066 356.265 95.176 355.545 95.992C354.825 96.808 353.901 97.216 352.773 97.216C351.633 97.216 350.703 96.748 349.983 95.812V97ZM362.566 97.216C361.246 97.216 360.154 96.796 359.29 95.956C358.438 95.104 358.012 94 358.012 92.644C358.012 91.372 358.426 90.298 359.254 89.422C360.094 88.534 361.15 88.09 362.422 88.09C363.706 88.09 364.738 88.534 365.518 89.422C366.31 90.31 366.706 91.444 366.706 92.824V93.274H359.992C360.064 93.958 360.346 94.528 360.838 94.984C361.33 95.44 361.972 95.668 362.764 95.668C363.208 95.668 363.652 95.584 364.096 95.416C364.552 95.248 364.93 95.014 365.23 94.714L366.094 95.956C365.218 96.796 364.042 97.216 362.566 97.216ZM364.87 91.942C364.846 91.342 364.624 90.808 364.204 90.34C363.796 89.872 363.202 89.638 362.422 89.638C361.678 89.638 361.096 89.872 360.676 90.34C360.256 90.796 360.022 91.33 359.974 91.942H364.87ZM376.582 97H374.692V95.812C373.972 96.748 373.042 97.216 371.902 97.216C370.762 97.216 369.832 96.808 369.112 95.992C368.392 95.176 368.032 94.066 368.032 92.662C368.032 91.27 368.392 90.16 369.112 89.332C369.832 88.504 370.762 88.09 371.902 88.09C373.042 88.09 373.972 88.564 374.692 89.512V84.994H376.582V97ZM372.442 95.542C372.886 95.542 373.318 95.434 373.738 95.218C374.158 95.002 374.476 94.726 374.692 94.39V90.934C374.476 90.598 374.158 90.322 373.738 90.106C373.318 89.878 372.886 89.764 372.442 89.764C371.698 89.764 371.104 90.034 370.66 90.574C370.216 91.114 369.994 91.81 369.994 92.662C369.994 93.514 370.216 94.21 370.66 94.75C371.104 95.278 371.698 95.542 372.442 95.542ZM387.041 97H385.151V95.812C384.431 96.748 383.501 97.216 382.361 97.216C381.221 97.216 380.291 96.808 379.571 95.992C378.851 95.176 378.491 94.066 378.491 92.662C378.491 91.27 378.851 90.16 379.571 89.332C380.291 88.504 381.221 88.09 382.361 88.09C383.501 88.09 384.431 88.564 385.151 89.512V84.994H387.041V97ZM382.901 95.542C383.345 95.542 383.777 95.434 384.197 95.218C384.617 95.002 384.935 94.726 385.151 94.39V90.934C384.935 90.598 384.617 90.322 384.197 90.106C383.777 89.878 383.345 89.764 382.901 89.764C382.157 89.764 381.563 90.034 381.119 90.574C380.675 91.114 380.453 91.81 380.453 92.662C380.453 93.514 380.675 94.21 381.119 94.75C381.563 95.278 382.157 95.542 382.901 95.542ZM396.69 97H394.8V96.064C394.128 96.832 393.192 97.216 391.992 97.216C391.2 97.216 390.498 96.964 389.886 96.46C389.274 95.944 388.968 95.236 388.968 94.336C388.968 93.412 389.268 92.71 389.868 92.23C390.48 91.75 391.188 91.51 391.992 91.51C393.228 91.51 394.164 91.882 394.8 92.626V91.33C394.8 90.826 394.614 90.43 394.242 90.142C393.87 89.854 393.378 89.71 392.766 89.71C391.794 89.71 390.936 90.076 390.192 90.808L389.418 89.494C390.402 88.558 391.62 88.09 393.072 88.09C394.14 88.09 395.01 88.342 395.682 88.846C396.354 89.35 396.69 90.148 396.69 91.24V97ZM392.73 95.92C393.678 95.92 394.368 95.62 394.8 95.02V93.706C394.368 93.106 393.678 92.806 392.73 92.806C392.19 92.806 391.746 92.95 391.398 93.238C391.05 93.526 390.876 93.904 390.876 94.372C390.876 94.84 391.05 95.218 391.398 95.506C391.746 95.782 392.19 95.92 392.73 95.92ZM401.03 94.39C401.234 94.714 401.546 94.99 401.966 95.218C402.398 95.434 402.83 95.542 403.262 95.542C404.006 95.542 404.6 95.278 405.044 94.75C405.5 94.21 405.728 93.514 405.728 92.662C405.728 91.81 405.5 91.114 405.044 90.574C404.6 90.034 404.006 89.764 403.262 89.764C402.83 89.764 402.404 89.878 401.984 90.106C401.564 90.334 401.246 90.616 401.03 90.952V94.39ZM401.03 97H399.14V84.994H401.03V89.512C401.738 88.564 402.668 88.09 403.82 88.09C404.948 88.09 405.872 88.51 406.592 89.35C407.312 90.178 407.672 91.282 407.672 92.662C407.672 94.066 407.312 95.176 406.592 95.992C405.872 96.808 404.948 97.216 403.82 97.216C402.68 97.216 401.75 96.748 401.03 95.812V97ZM411.489 97H409.599V84.994H411.489V97ZM417.955 97.216C416.635 97.216 415.543 96.796 414.679 95.956C413.827 95.104 413.401 94 413.401 92.644C413.401 91.372 413.815 90.298 414.643 89.422C415.483 88.534 416.539 88.09 417.811 88.09C419.095 88.09 420.127 88.534 420.907 89.422C421.699 90.31 422.095 91.444 422.095 92.824V93.274H415.381C415.453 93.958 415.735 94.528 416.227 94.984C416.719 95.44 417.361 95.668 418.153 95.668C418.597 95.668 419.041 95.584 419.485 95.416C419.941 95.248 420.319 95.014 420.619 94.714L421.483 95.956C420.607 96.796 419.431 97.216 417.955 97.216ZM420.259 91.942C420.235 91.342 420.013 90.808 419.593 90.34C419.185 89.872 418.591 89.638 417.811 89.638C417.067 89.638 416.485 89.872 416.065 90.34C415.645 90.796 415.411 91.33 415.363 91.942H420.259ZM424.14 97.36H422.736L427.002 84.634H428.406L424.14 97.36ZM430.574 87.244C430.262 87.244 429.986 87.13 429.746 86.902C429.518 86.674 429.404 86.398 429.404 86.074C429.404 85.75 429.518 85.474 429.746 85.246C429.986 85.018 430.262 84.904 430.574 84.904C430.898 84.904 431.174 85.018 431.402 85.246C431.63 85.474 431.744 85.75 431.744 86.074C431.744 86.398 431.63 86.674 431.402 86.902C431.174 87.13 430.898 87.244 430.574 87.244ZM431.528 97H429.638V88.306H431.528V97ZM441.738 97H439.848V91.564C439.848 90.364 439.266 89.764 438.102 89.764C437.646 89.764 437.22 89.878 436.824 90.106C436.428 90.334 436.11 90.61 435.87 90.934V97H433.98V88.306H435.87V89.494C436.194 89.11 436.626 88.78 437.166 88.504C437.706 88.228 438.294 88.09 438.93 88.09C439.854 88.09 440.55 88.33 441.018 88.81C441.498 89.29 441.738 89.98 441.738 90.88V97ZM452.203 97H450.313V95.812C449.593 96.748 448.663 97.216 447.523 97.216C446.383 97.216 445.453 96.808 444.733 95.992C444.013 95.176 443.653 94.066 443.653 92.662C443.653 91.27 444.013 90.16 444.733 89.332C445.453 88.504 446.383 88.09 447.523 88.09C448.663 88.09 449.593 88.564 450.313 89.512V84.994H452.203V97ZM448.063 95.542C448.507 95.542 448.939 95.434 449.359 95.218C449.779 95.002 450.097 94.726 450.313 94.39V90.934C450.097 90.598 449.779 90.322 449.359 90.106C448.939 89.878 448.507 89.764 448.063 89.764C447.319 89.764 446.725 90.034 446.281 90.574C445.837 91.114 445.615 91.81 445.615 92.662C445.615 93.514 445.837 94.21 446.281 94.75C446.725 95.278 447.319 95.542 448.063 95.542ZM458.666 97.216C457.346 97.216 456.254 96.796 455.39 95.956C454.538 95.104 454.112 94 454.112 92.644C454.112 91.372 454.526 90.298 455.354 89.422C456.194 88.534 457.25 88.09 458.522 88.09C459.806 88.09 460.838 88.534 461.618 89.422C462.41 90.31 462.806 91.444 462.806 92.824V93.274H456.092C456.164 93.958 456.446 94.528 456.938 94.984C457.43 95.44 458.072 95.668 458.864 95.668C459.308 95.668 459.752 95.584 460.196 95.416C460.652 95.248 461.03 95.014 461.33 94.714L462.194 95.956C461.318 96.796 460.142 97.216 458.666 97.216ZM460.97 91.942C460.946 91.342 460.724 90.808 460.304 90.34C459.896 89.872 459.302 89.638 458.522 89.638C457.778 89.638 457.196 89.872 456.776 90.34C456.356 90.796 456.122 91.33 456.074 91.942H460.97ZM472.285 97H470.161L467.911 93.796L465.643 97H463.537L466.723 92.536L463.717 88.306H465.841L467.911 91.258L469.963 88.306H472.087L469.081 92.536L472.285 97ZM475.455 96.838C475.203 97.078 474.909 97.198 474.573 97.198C474.237 97.198 473.943 97.078 473.691 96.838C473.439 96.586 473.313 96.286 473.313 95.938C473.313 95.59 473.439 95.296 473.691 95.056C473.943 94.804 474.237 94.678 474.573 94.678C474.909 94.678 475.203 94.804 475.455 95.056C475.707 95.296 475.833 95.59 475.833 95.938C475.833 96.286 475.707 96.586 475.455 96.838ZM479.67 87.244C479.358 87.244 479.082 87.13 478.842 86.902C478.614 86.674 478.5 86.398 478.5 86.074C478.5 85.75 478.614 85.474 478.842 85.246C479.082 85.018 479.358 84.904 479.67 84.904C479.994 84.904 480.27 85.018 480.498 85.246C480.726 85.474 480.84 85.75 480.84 86.074C480.84 86.398 480.726 86.674 480.498 86.902C480.27 87.13 479.994 87.244 479.67 87.244ZM477.744 100.528C477.264 100.528 476.88 100.48 476.592 100.384C476.304 100.288 476.004 100.126 475.692 99.898L476.25 98.494C476.61 98.818 477.012 98.98 477.456 98.98C477.84 98.98 478.146 98.854 478.374 98.602C478.614 98.362 478.734 97.996 478.734 97.504V88.306H480.624V97.504C480.624 98.452 480.378 99.19 479.886 99.718C479.394 100.258 478.68 100.528 477.744 100.528ZM486.046 97.216C484.486 97.216 483.244 96.766 482.32 95.866L483.184 94.498C483.508 94.834 483.946 95.122 484.498 95.362C485.05 95.602 485.596 95.722 486.136 95.722C486.688 95.722 487.108 95.614 487.396 95.398C487.696 95.182 487.846 94.9 487.846 94.552C487.846 94.24 487.666 94 487.306 93.832C486.946 93.652 486.508 93.514 485.992 93.418C485.476 93.31 484.96 93.184 484.444 93.04C483.928 92.884 483.49 92.614 483.13 92.23C482.77 91.846 482.59 91.348 482.59 90.736C482.59 89.992 482.896 89.368 483.508 88.864C484.12 88.348 484.954 88.09 486.01 88.09C487.342 88.09 488.47 88.498 489.394 89.314L488.602 90.646C488.326 90.334 487.96 90.082 487.504 89.89C487.048 89.698 486.556 89.602 486.028 89.602C485.536 89.602 485.14 89.704 484.84 89.908C484.552 90.1 484.408 90.352 484.408 90.664C484.408 90.904 484.534 91.102 484.786 91.258C485.05 91.402 485.374 91.51 485.758 91.582C486.154 91.654 486.58 91.756 487.036 91.888C487.492 92.008 487.912 92.152 488.296 92.32C488.692 92.488 489.016 92.764 489.268 93.148C489.532 93.52 489.664 93.976 489.664 94.516C489.664 95.308 489.346 95.956 488.71 96.46C488.074 96.964 487.186 97.216 486.046 97.216ZM492.348 89.962H491.484C491.064 87.442 490.854 86.08 490.854 85.876C490.854 85.588 490.956 85.342 491.16 85.138C491.364 84.922 491.616 84.814 491.916 84.814C492.204 84.814 492.45 84.922 492.654 85.138C492.87 85.342 492.978 85.588 492.978 85.876L492.348 89.962ZM495.318 89.962H494.472C494.052 87.442 493.842 86.08 493.842 85.876C493.842 85.588 493.944 85.342 494.148 85.138C494.352 84.922 494.604 84.814 494.904 84.814C495.192 84.814 495.438 84.922 495.642 85.138C495.846 85.342 495.948 85.588 495.948 85.876L495.318 89.962Z" fill="#AD6B31"/>
</svg>
