<svg width="465" height="558" viewBox="0 0 465 558" fill="none" xmlns="http://www.w3.org/2000/svg">
<path d="M128.187 58.9877C128.187 58.9945 128.181 59 128.175 59H102C101.448 59 101 58.5523 101 58V2C101 1.44771 101.448 1 102 1H127.56C130.002 1.00213 132.377 1.90155 134.328 3.56276C136.278 5.22397 137.699 7.55699 138.375 10.2104C139.051 12.8638 138.947 15.6938 138.077 18.2741C137.399 20.287 136.283 22.0629 134.845 23.4451C134.298 23.9702 134.378 24.9313 135.017 25.339C137.172 26.7143 139.014 28.6562 140.381 31.0111C142.047 33.883 142.934 37.2435 142.932 40.6785V41.3883C142.935 45.8979 141.407 50.2368 138.663 53.5096C135.922 56.7792 132.177 58.7354 128.198 58.9755C128.192 58.9759 128.187 58.9812 128.187 58.9877V58.9877ZM103.991 54.6179C103.991 55.1702 104.439 55.6179 104.991 55.6179H115.399C116.336 55.6179 116.809 54.3839 116.198 53.6736C114.854 52.1118 113.772 50.2769 113.012 48.2564C112.199 46.0897 111.781 43.7599 111.782 41.4063V40.6961C111.779 36.2498 113.263 31.9664 115.936 28.7057C118.609 25.4449 122.274 23.4482 126.195 23.116C126.595 23.0824 127.004 23.0659 127.407 23.0676C127.566 23.0676 127.725 23.0708 127.883 23.0774C130.021 22.9824 132.043 21.9544 133.525 20.2093C135.007 18.4642 135.833 16.1377 135.829 13.7185C135.822 8.57013 132.113 4.38171 127.559 4.38171H104.991C104.439 4.38171 103.991 4.82942 103.991 5.38171V54.6179ZM127.356 26.448C127.042 26.448 126.726 26.4612 126.415 26.4891C119.879 27.035 114.766 33.2747 114.773 40.6949V41.4047C114.78 49.243 120.425 55.6199 127.357 55.6199C134.295 55.6199 139.94 49.2365 139.94 41.3899V40.6785C139.94 33.0385 134.57 26.7692 127.874 26.4604C127.771 26.4636 127.668 26.4652 127.566 26.4653C127.561 26.4653 127.558 26.4619 127.558 26.4577V26.4577C127.558 26.4535 127.555 26.4501 127.55 26.4501C127.499 26.4501 127.447 26.4501 127.396 26.4501L127.356 26.448Z" fill="white" stroke="white" stroke-width="0.3"/>
<path d="M183.905 45C190.255 45 193.605 41 193.605 36C193.605 31.8 190.755 28.35 187.205 27.8C190.355 27.15 192.955 24.35 192.955 20.15C192.955 15.7 189.705 11.65 183.355 11.65H165.805V45H183.905ZM181.805 25H172.905V17.75H181.805C184.205 17.75 185.705 19.3 185.705 21.4C185.705 23.5 184.205 25 181.805 25ZM182.055 38.85H172.905V31.1H182.055C184.855 31.1 186.355 32.9 186.355 35C186.355 37.4 184.755 38.85 182.055 38.85ZM219.66 45V29.4C219.66 22.45 214.61 20.25 209.11 20.25C205.31 20.25 201.51 21.45 198.56 24.05L200.96 28.3C203.01 26.4 205.41 25.45 208.01 25.45C211.21 25.45 213.31 27.05 213.31 29.5V32.75C211.71 30.85 208.86 29.8 205.66 29.8C201.81 29.8 197.26 31.95 197.26 37.6C197.26 43 201.81 45.6 205.66 45.6C208.81 45.6 211.66 44.45 213.31 42.5V45H219.66ZM208.21 41.3C205.71 41.3 203.66 40 203.66 37.75C203.66 35.4 205.71 34.1 208.21 34.1C210.26 34.1 212.26 34.8 213.31 36.2V39.2C212.26 40.6 210.26 41.3 208.21 41.3ZM248.608 45V27.95C248.608 23.25 246.058 20.25 240.758 20.25C236.808 20.25 233.858 22.15 232.308 24V20.85H225.958V45H232.308V28.75C233.358 27.3 235.308 25.9 237.808 25.9C240.508 25.9 242.258 27.05 242.258 30.4V45H248.608ZM275.763 45V29.4C275.763 22.45 270.713 20.25 265.213 20.25C261.413 20.25 257.613 21.45 254.663 24.05L257.063 28.3C259.113 26.4 261.513 25.45 264.113 25.45C267.313 25.45 269.413 27.05 269.413 29.5V32.75C267.813 30.85 264.963 29.8 261.763 29.8C257.913 29.8 253.363 31.95 253.363 37.6C253.363 43 257.913 45.6 261.763 45.6C264.913 45.6 267.763 44.45 269.413 42.5V45H275.763ZM264.313 41.3C261.813 41.3 259.763 40 259.763 37.75C259.763 35.4 261.813 34.1 264.313 34.1C266.363 34.1 268.363 34.8 269.413 36.2V39.2C268.363 40.6 266.363 41.3 264.313 41.3ZM288.412 37.25V28.7C289.462 27.1 291.812 25.9 293.862 25.9C297.562 25.9 300.012 28.75 300.012 32.95C300.012 37.15 297.562 39.95 293.862 39.95C291.812 39.95 289.462 38.8 288.412 37.25ZM288.412 45V41.9C290.312 44.3 292.962 45.6 295.862 45.6C301.962 45.6 306.562 41 306.562 32.95C306.562 25.05 302.012 20.25 295.862 20.25C293.012 20.25 290.312 21.5 288.412 23.95V11.65H282.062V45H288.412ZM322.558 45.6C330.558 45.6 335.358 39.8 335.358 32.9C335.358 26.05 330.558 20.25 322.558 20.25C314.608 20.25 309.808 26.05 309.808 32.9C309.808 39.8 314.608 45.6 322.558 45.6ZM322.558 39.95C318.608 39.95 316.408 36.7 316.408 32.9C316.408 29.15 318.608 25.9 322.558 25.9C326.508 25.9 328.758 29.15 328.758 32.9C328.758 36.7 326.508 39.95 322.558 39.95Z" fill="white"/>
<path d="M31.0538 110.24C33.4138 110.24 35.0138 109.12 36.1338 107.6L34.7138 106.82C33.9538 107.96 32.5738 108.76 31.0538 108.76C28.1338 108.76 25.9138 106.5 25.9138 103.34C25.9138 100.16 28.1338 97.92 31.0538 97.92C32.5738 97.92 33.9538 98.74 34.7138 99.86L36.1138 99.08C35.0538 97.58 33.4138 96.44 31.0538 96.44C27.2138 96.44 24.1938 99.24 24.1938 103.34C24.1938 107.44 27.2138 110.24 31.0538 110.24ZM42.4095 110.24C45.3495 110.24 47.1895 107.96 47.1895 105.16C47.1895 102.36 45.3495 100.1 42.4095 100.1C39.4695 100.1 37.6295 102.36 37.6295 105.16C37.6295 107.96 39.4695 110.24 42.4095 110.24ZM42.4095 108.9C40.3495 108.9 39.1895 107.14 39.1895 105.16C39.1895 103.2 40.3495 101.44 42.4095 101.44C44.4695 101.44 45.6095 103.2 45.6095 105.16C45.6095 107.14 44.4695 108.9 42.4095 108.9ZM62.7948 110V103.02C62.7948 101.08 61.8548 100.1 60.0948 100.1C58.6948 100.1 57.3948 101.02 56.8548 101.9C56.5748 100.9 55.7348 100.1 54.2548 100.1C52.8348 100.1 51.5348 101.12 51.1348 101.74V100.34H49.6348V110H51.1348V102.94C51.6548 102.16 52.6948 101.44 53.6748 101.44C54.9348 101.44 55.4548 102.22 55.4548 103.44V110H56.9548V102.92C57.4548 102.16 58.5148 101.44 59.5148 101.44C60.7548 101.44 61.2948 102.22 61.2948 103.44V110H62.7948ZM70.5471 110.24C73.0871 110.24 74.8471 108.28 74.8471 105.16C74.8471 102.02 73.0871 100.1 70.5471 100.1C69.1871 100.1 67.9871 100.8 67.2871 101.78V100.34H65.7871V113.68H67.2871V108.54C68.0671 109.62 69.2271 110.24 70.5471 110.24ZM70.1671 108.9C68.9871 108.9 67.8071 108.18 67.2871 107.34V102.98C67.8071 102.14 68.9871 101.44 70.1671 101.44C72.1071 101.44 73.2671 103.02 73.2671 105.16C73.2671 107.3 72.1071 108.9 70.1671 108.9ZM78.7324 110V96.66H77.2324V110H78.7324ZM86.0846 110.24C87.6646 110.24 88.9646 109.72 89.9246 108.76L89.2046 107.78C88.4446 108.56 87.3246 109 86.2246 109C84.1446 109 82.8646 107.48 82.7446 105.66H90.5646V105.28C90.5646 102.38 88.8446 100.1 85.9246 100.1C83.1646 100.1 81.1646 102.36 81.1646 105.16C81.1646 108.18 83.2246 110.24 86.0846 110.24ZM89.0846 104.56H82.7446C82.8246 103.08 83.8446 101.34 85.9046 101.34C88.1046 101.34 89.0646 103.12 89.0846 104.56ZM95.4341 110.24C96.3141 110.24 96.8541 109.98 97.2341 109.62L96.7941 108.5C96.5941 108.72 96.1941 108.9 95.7741 108.9C95.1141 108.9 94.7941 108.38 94.7941 107.66V101.66H96.7541V100.34H94.7941V97.7H93.2941V100.34H91.6941V101.66H93.2941V107.98C93.2941 109.42 94.0141 110.24 95.4341 110.24ZM103.233 110.24C104.813 110.24 106.113 109.72 107.073 108.76L106.353 107.78C105.593 108.56 104.473 109 103.373 109C101.293 109 100.013 107.48 99.893 105.66H107.713V105.28C107.713 102.38 105.993 100.1 103.073 100.1C100.313 100.1 98.313 102.36 98.313 105.16C98.313 108.18 100.373 110.24 103.233 110.24ZM106.233 104.56H99.893C99.973 103.08 100.993 101.34 103.053 101.34C105.253 101.34 106.213 103.12 106.233 104.56ZM111.643 110V96.66H110.143V110H111.643ZM114.095 113.78C114.375 113.86 114.875 113.92 115.195 113.92C116.475 113.9 117.455 113.36 118.035 111.96L122.875 100.34H121.235L118.035 108.26L114.815 100.34H113.195L117.235 110.1L116.595 111.56C116.255 112.36 115.815 112.58 115.155 112.58C114.915 112.58 114.555 112.52 114.335 112.42L114.095 113.78ZM142.756 110V103.02C142.756 101.08 141.816 100.1 140.056 100.1C138.656 100.1 137.356 101.02 136.816 101.9C136.536 100.9 135.696 100.1 134.216 100.1C132.796 100.1 131.496 101.12 131.096 101.74V100.34H129.596V110H131.096V102.94C131.616 102.16 132.656 101.44 133.636 101.44C134.896 101.44 135.416 102.22 135.416 103.44V110H136.916V102.92C137.416 102.16 138.476 101.44 139.476 101.44C140.716 101.44 141.256 102.22 141.256 103.44V110H142.756ZM153.288 110V103.36C153.288 101.02 151.588 100.1 149.548 100.1C147.968 100.1 146.728 100.62 145.688 101.7L146.388 102.74C147.248 101.82 148.188 101.4 149.348 101.4C150.748 101.4 151.788 102.14 151.788 103.44V105.18C151.008 104.28 149.908 103.86 148.588 103.86C146.948 103.86 145.208 104.88 145.208 107.04C145.208 109.14 146.948 110.24 148.588 110.24C149.888 110.24 150.988 109.78 151.788 108.9V110H153.288ZM149.128 109.16C147.728 109.16 146.748 108.28 146.748 107.06C146.748 105.82 147.728 104.94 149.128 104.94C150.188 104.94 151.208 105.34 151.788 106.14V107.96C151.208 108.76 150.188 109.16 149.128 109.16ZM161.055 110.24C163.595 110.24 165.355 108.28 165.355 105.16C165.355 102.02 163.595 100.1 161.055 100.1C159.695 100.1 158.495 100.8 157.795 101.78V100.34H156.295V113.68H157.795V108.54C158.575 109.62 159.735 110.24 161.055 110.24ZM160.675 108.9C159.495 108.9 158.315 108.18 157.795 107.34V102.98C158.315 102.14 159.495 101.44 160.675 101.44C162.615 101.44 163.775 103.02 163.775 105.16C163.775 107.3 162.615 108.9 160.675 108.9ZM177.256 110.24C178.836 110.24 180.136 109.72 181.096 108.76L180.376 107.78C179.616 108.56 178.496 109 177.396 109C175.316 109 174.036 107.48 173.916 105.66H181.736V105.28C181.736 102.38 180.016 100.1 177.096 100.1C174.336 100.1 172.336 102.36 172.336 105.16C172.336 108.18 174.396 110.24 177.256 110.24ZM180.256 104.56H173.916C173.996 103.08 175.016 101.34 177.076 101.34C179.276 101.34 180.236 103.12 180.256 104.56ZM188.386 110L192.406 100.34H190.766L187.566 108.26L184.346 100.34H182.726L186.746 110H188.386ZM198.331 110.24C199.911 110.24 201.211 109.72 202.171 108.76L201.451 107.78C200.691 108.56 199.571 109 198.471 109C196.391 109 195.111 107.48 194.991 105.66H202.811V105.28C202.811 102.38 201.091 100.1 198.171 100.1C195.411 100.1 193.411 102.36 193.411 105.16C193.411 108.18 195.471 110.24 198.331 110.24ZM201.331 104.56H194.991C195.071 103.08 196.091 101.34 198.151 101.34C200.351 101.34 201.311 103.12 201.331 104.56ZM206.74 110V103.16C207.18 102.38 208.44 101.62 209.36 101.62C209.6 101.62 209.78 101.64 209.96 101.68V100.14C208.64 100.14 207.52 100.88 206.74 101.9V100.34H205.24V110H206.74ZM211.302 113.78C211.582 113.86 212.082 113.92 212.402 113.92C213.682 113.9 214.662 113.36 215.242 111.96L220.082 100.34H218.442L215.242 108.26L212.022 100.34H210.402L214.442 110.1L213.802 111.56C213.462 112.36 213.022 112.58 212.362 112.58C212.122 112.58 211.762 112.52 211.542 112.42L211.302 113.78ZM234.823 110V100.34H233.323V107.44C232.763 108.22 231.643 108.9 230.463 108.9C229.163 108.9 228.303 108.4 228.303 106.7V100.34H226.803V107.16C226.803 109.26 227.863 110.24 229.883 110.24C231.323 110.24 232.583 109.48 233.323 108.64V110H234.823ZM245.838 110V103.22C245.838 101.12 244.778 100.1 242.758 100.1C241.318 100.1 239.998 100.94 239.318 101.74V100.34H237.818V110H239.318V102.94C239.878 102.16 240.998 101.44 242.178 101.44C243.478 101.44 244.338 101.98 244.338 103.68V110H245.838ZM249.574 98.96C250.134 98.96 250.594 98.52 250.594 97.96C250.594 97.4 250.134 96.94 249.574 96.94C249.034 96.94 248.574 97.4 248.574 97.96C248.574 98.52 249.034 98.96 249.574 98.96ZM250.334 110V100.34H248.834V110H250.334ZM257.366 108.9C255.426 108.9 254.286 107.3 254.286 105.16C254.286 103.02 255.426 101.44 257.366 101.44C258.566 101.44 259.746 102.14 260.246 102.98V107.34C259.746 108.18 258.566 108.9 257.366 108.9ZM257.006 110.24C258.306 110.24 259.466 109.62 260.246 108.54V113.68H261.746V100.34H260.246V101.78C259.566 100.8 258.366 100.1 257.006 100.1C254.466 100.1 252.706 102.02 252.706 105.16C252.706 108.28 254.466 110.24 257.006 110.24ZM272.791 110V100.34H271.291V107.44C270.731 108.22 269.611 108.9 268.431 108.9C267.131 108.9 266.271 108.4 266.271 106.7V100.34H264.771V107.16C264.771 109.26 265.831 110.24 267.851 110.24C269.291 110.24 270.551 109.48 271.291 108.64V110H272.791ZM280.147 110.24C281.727 110.24 283.027 109.72 283.987 108.76L283.267 107.78C282.507 108.56 281.387 109 280.287 109C278.207 109 276.927 107.48 276.807 105.66H284.627V105.28C284.627 102.38 282.907 100.1 279.987 100.1C277.227 100.1 275.227 102.36 275.227 105.16C275.227 108.18 277.287 110.24 280.147 110.24ZM283.147 104.56H276.807C276.887 103.08 277.907 101.34 279.967 101.34C282.167 101.34 283.127 103.12 283.147 104.56ZM296.433 110L300.453 100.34H298.813L295.613 108.26L292.393 100.34H290.773L294.793 110H296.433ZM302.758 98.96C303.318 98.96 303.778 98.52 303.778 97.96C303.778 97.4 303.318 96.94 302.758 96.94C302.218 96.94 301.758 97.4 301.758 97.96C301.758 98.52 302.218 98.96 302.758 98.96ZM303.518 110V100.34H302.018V110H303.518ZM309.57 110.24C312.07 110.24 313.37 108.94 313.37 107.32C313.37 103.56 307.39 104.96 307.39 102.84C307.39 101.98 308.21 101.32 309.53 101.32C310.77 101.32 311.83 101.84 312.41 102.54L313.11 101.5C312.33 100.72 311.17 100.1 309.53 100.1C307.23 100.1 305.93 101.38 305.93 102.88C305.93 106.46 311.91 105.02 311.91 107.36C311.91 108.32 311.11 109.02 309.63 109.02C308.31 109.02 307.09 108.38 306.45 107.64L305.67 108.72C306.65 109.76 307.99 110.24 309.57 110.24ZM316.547 98.96C317.107 98.96 317.567 98.52 317.567 97.96C317.567 97.4 317.107 96.94 316.547 96.94C316.007 96.94 315.547 97.4 315.547 97.96C315.547 98.52 316.007 98.96 316.547 98.96ZM317.307 110V100.34H315.807V110H317.307ZM322.739 110.24C323.619 110.24 324.159 109.98 324.539 109.62L324.099 108.5C323.899 108.72 323.499 108.9 323.079 108.9C322.419 108.9 322.099 108.38 322.099 107.66V101.66H324.059V100.34H322.099V97.7H320.599V100.34H318.999V101.66H320.599V107.98C320.599 109.42 321.319 110.24 322.739 110.24ZM330.398 110.24C333.338 110.24 335.178 107.96 335.178 105.16C335.178 102.36 333.338 100.1 330.398 100.1C327.458 100.1 325.618 102.36 325.618 105.16C325.618 107.96 327.458 110.24 330.398 110.24ZM330.398 108.9C328.338 108.9 327.178 107.14 327.178 105.16C327.178 103.2 328.338 101.44 330.398 101.44C332.458 101.44 333.598 103.2 333.598 105.16C333.598 107.14 332.458 108.9 330.398 108.9ZM339.123 110V103.16C339.563 102.38 340.823 101.62 341.743 101.62C341.983 101.62 342.163 101.64 342.343 101.68V100.14C341.023 100.14 339.903 100.88 339.123 101.9V100.34H337.623V110H339.123ZM346.245 97.98C346.245 97 345.645 96.46 344.985 96.46C344.385 96.46 343.925 96.96 343.925 97.54C343.925 98.14 344.325 98.56 344.885 98.56C344.985 98.56 345.125 98.54 345.165 98.52C345.085 99.16 344.505 99.96 343.865 100.38L344.605 101C345.525 100.34 346.245 99.2 346.245 97.98ZM351.289 110.24C353.789 110.24 355.089 108.94 355.089 107.32C355.089 103.56 349.109 104.96 349.109 102.84C349.109 101.98 349.929 101.32 351.249 101.32C352.489 101.32 353.549 101.84 354.129 102.54L354.829 101.5C354.049 100.72 352.889 100.1 351.249 100.1C348.949 100.1 347.649 101.38 347.649 102.88C347.649 106.46 353.629 105.02 353.629 107.36C353.629 108.32 352.829 109.02 351.349 109.02C350.029 109.02 348.809 108.38 348.169 107.64L347.389 108.72C348.369 109.76 349.709 110.24 351.289 110.24ZM363.422 98.96C363.982 98.96 364.442 98.52 364.442 97.96C364.442 97.4 363.982 96.94 363.422 96.94C362.882 96.94 362.422 97.4 362.422 97.96C362.422 98.52 362.882 98.96 363.422 98.96ZM361.322 113.92C363.162 113.92 364.182 112.84 364.182 110.94V100.34H362.682V110.94C362.682 112.16 362.022 112.68 361.122 112.68C360.522 112.68 360.082 112.4 359.742 112.06L359.202 113.2C359.822 113.68 360.342 113.92 361.322 113.92ZM371.394 110.24C374.334 110.24 376.174 107.96 376.174 105.16C376.174 102.36 374.334 100.1 371.394 100.1C368.454 100.1 366.614 102.36 366.614 105.16C366.614 107.96 368.454 110.24 371.394 110.24ZM371.394 108.9C369.334 108.9 368.174 107.14 368.174 105.16C368.174 103.2 369.334 101.44 371.394 101.44C373.454 101.44 374.594 103.2 374.594 105.16C374.594 107.14 373.454 108.9 371.394 108.9ZM386.639 110V100.34H385.139V107.44C384.579 108.22 383.459 108.9 382.279 108.9C380.979 108.9 380.119 108.4 380.119 106.7V100.34H378.619V107.16C378.619 109.26 379.679 110.24 381.699 110.24C383.139 110.24 384.399 109.48 385.139 108.64V110H386.639ZM391.135 110V103.16C391.575 102.38 392.835 101.62 393.755 101.62C393.995 101.62 394.175 101.64 394.355 101.68V100.14C393.035 100.14 391.915 100.88 391.135 101.9V100.34H389.635V110H391.135ZM404.256 110V103.22C404.256 101.12 403.196 100.1 401.176 100.1C399.736 100.1 398.416 100.94 397.736 101.74V100.34H396.236V110H397.736V102.94C398.296 102.16 399.416 101.44 400.596 101.44C401.896 101.44 402.756 101.98 402.756 103.68V110H404.256ZM411.612 110.24C413.192 110.24 414.492 109.72 415.452 108.76L414.732 107.78C413.972 108.56 412.852 109 411.752 109C409.672 109 408.392 107.48 408.272 105.66H416.092V105.28C416.092 102.38 414.372 100.1 411.452 100.1C408.692 100.1 406.692 102.36 406.692 105.16C406.692 108.18 408.752 110.24 411.612 110.24ZM414.612 104.56H408.272C408.352 103.08 409.372 101.34 411.432 101.34C413.632 101.34 414.592 103.12 414.612 104.56ZM417.981 113.78C418.261 113.86 418.761 113.92 419.081 113.92C420.361 113.9 421.341 113.36 421.921 111.96L426.761 100.34H425.121L421.921 108.26L418.701 100.34H417.081L421.121 110.1L420.481 111.56C420.141 112.36 419.701 112.58 419.041 112.58C418.801 112.58 418.441 112.52 418.221 112.42L417.981 113.78ZM80.5885 134L83.6685 124.34H82.1085L79.7485 132.04L77.2085 124.34H75.9285L73.3885 132.04L71.0285 124.34H69.4685L72.5485 134H74.0485L76.5685 126.24L79.0885 134H80.5885ZM86.156 122.96C86.716 122.96 87.176 122.52 87.176 121.96C87.176 121.4 86.716 120.94 86.156 120.94C85.616 120.94 85.156 121.4 85.156 121.96C85.156 122.52 85.616 122.96 86.156 122.96ZM86.916 134V124.34H85.416V134H86.916ZM92.3482 134.24C93.2282 134.24 93.7682 133.98 94.1482 133.62L93.7082 132.5C93.5082 132.72 93.1082 132.9 92.6882 132.9C92.0282 132.9 91.7082 132.38 91.7082 131.66V125.66H93.6682V124.34H91.7082V121.7H90.2082V124.34H88.6082V125.66H90.2082V131.98C90.2082 133.42 90.9282 134.24 92.3482 134.24ZM103.827 134V127.18C103.827 125.08 102.767 124.1 100.747 124.1C99.2871 124.1 97.9671 124.94 97.2871 125.74V120.66H95.7871V134H97.2871V126.94C97.8671 126.16 98.9871 125.44 100.147 125.44C101.447 125.44 102.327 125.94 102.327 127.64V134H103.827ZM111.439 137.78C111.719 137.86 112.219 137.92 112.539 137.92C113.819 137.9 114.799 137.36 115.379 135.96L120.219 124.34H118.579L115.379 132.26L112.159 124.34H110.539L114.579 134.1L113.939 135.56C113.599 136.36 113.159 136.58 112.499 136.58C112.259 136.58 111.899 136.52 111.679 136.42L111.439 137.78ZM126.003 134.24C128.943 134.24 130.783 131.96 130.783 129.16C130.783 126.36 128.943 124.1 126.003 124.1C123.063 124.1 121.223 126.36 121.223 129.16C121.223 131.96 123.063 134.24 126.003 134.24ZM126.003 132.9C123.943 132.9 122.783 131.14 122.783 129.16C122.783 127.2 123.943 125.44 126.003 125.44C128.063 125.44 129.203 127.2 129.203 129.16C129.203 131.14 128.063 132.9 126.003 132.9ZM141.249 134V124.34H139.749V131.44C139.189 132.22 138.069 132.9 136.889 132.9C135.589 132.9 134.729 132.4 134.729 130.7V124.34H133.229V131.16C133.229 133.26 134.289 134.24 136.309 134.24C137.749 134.24 139.009 133.48 139.749 132.64V134H141.249ZM145.744 134V127.16C146.184 126.38 147.444 125.62 148.364 125.62C148.604 125.62 148.784 125.64 148.964 125.68V124.14C147.644 124.14 146.524 124.88 145.744 125.9V124.34H144.244V134H145.744ZM157.502 131.38V127C158.022 126.16 159.202 125.44 160.382 125.44C162.342 125.44 163.502 127.04 163.502 129.18C163.502 131.32 162.342 132.9 160.382 132.9C159.202 132.9 158.022 132.22 157.502 131.38ZM157.502 134V132.56C158.222 133.54 159.402 134.24 160.762 134.24C163.282 134.24 165.062 132.32 165.062 129.18C165.062 126.1 163.282 124.1 160.762 124.1C159.442 124.1 158.282 124.74 157.502 125.8V120.66H156.002V134H157.502ZM169.006 134V127.16C169.446 126.38 170.706 125.62 171.626 125.62C171.866 125.62 172.046 125.64 172.226 125.68V124.14C170.906 124.14 169.786 124.88 169.006 125.9V124.34H167.506V134H169.006ZM181.647 134V127.36C181.647 125.02 179.947 124.1 177.907 124.1C176.327 124.1 175.087 124.62 174.047 125.7L174.747 126.74C175.607 125.82 176.547 125.4 177.707 125.4C179.107 125.4 180.147 126.14 180.147 127.44V129.18C179.367 128.28 178.267 127.86 176.947 127.86C175.307 127.86 173.567 128.88 173.567 131.04C173.567 133.14 175.307 134.24 176.947 134.24C178.247 134.24 179.347 133.78 180.147 132.9V134H181.647ZM177.487 133.16C176.087 133.16 175.107 132.28 175.107 131.06C175.107 129.82 176.087 128.94 177.487 128.94C178.547 128.94 179.567 129.34 180.147 130.14V131.96C179.567 132.76 178.547 133.16 177.487 133.16ZM192.674 134V127.22C192.674 125.12 191.614 124.1 189.594 124.1C188.154 124.1 186.834 124.94 186.154 125.74V124.34H184.654V134H186.154V126.94C186.714 126.16 187.834 125.44 189.014 125.44C190.314 125.44 191.174 125.98 191.174 127.68V134H192.674ZM204.17 134V120.66H202.67V125.8C201.89 124.74 200.71 124.1 199.41 124.1C196.87 124.1 195.11 126.1 195.11 129.18C195.11 132.32 196.89 134.24 199.41 134.24C200.77 134.24 201.95 133.54 202.67 132.56V134H204.17ZM199.77 132.9C197.83 132.9 196.67 131.32 196.67 129.18C196.67 127.04 197.83 125.44 199.77 125.44C200.97 125.44 202.13 126.16 202.67 127V131.38C202.13 132.22 200.97 132.9 199.77 132.9ZM214.77 134.24C215.65 134.24 216.19 133.98 216.57 133.62L216.13 132.5C215.93 132.72 215.53 132.9 215.11 132.9C214.45 132.9 214.13 132.38 214.13 131.66V125.66H216.09V124.34H214.13V121.7H212.63V124.34H211.03V125.66H212.63V131.98C212.63 133.42 213.35 134.24 214.77 134.24ZM226.249 134V127.18C226.249 125.08 225.189 124.1 223.169 124.1C221.709 124.1 220.389 124.94 219.709 125.74V120.66H218.209V134H219.709V126.94C220.289 126.16 221.409 125.44 222.569 125.44C223.869 125.44 224.749 125.94 224.749 127.64V134H226.249ZM230.744 134V127.16C231.184 126.38 232.444 125.62 233.364 125.62C233.604 125.62 233.784 125.64 233.964 125.68V124.14C232.644 124.14 231.524 124.88 230.744 125.9V124.34H229.244V134H230.744ZM240.066 134.24C243.006 134.24 244.846 131.96 244.846 129.16C244.846 126.36 243.006 124.1 240.066 124.1C237.126 124.1 235.286 126.36 235.286 129.16C235.286 131.96 237.126 134.24 240.066 134.24ZM240.066 132.9C238.006 132.9 236.846 131.14 236.846 129.16C236.846 127.2 238.006 125.44 240.066 125.44C242.126 125.44 243.266 127.2 243.266 129.16C243.266 131.14 242.126 132.9 240.066 132.9ZM255.311 134V124.34H253.811V131.44C253.251 132.22 252.131 132.9 250.951 132.9C249.651 132.9 248.791 132.4 248.791 130.7V124.34H247.291V131.16C247.291 133.26 248.351 134.24 250.371 134.24C251.811 134.24 253.071 133.48 253.811 132.64V134H255.311ZM262.187 137.92C264.547 137.92 266.787 136.92 266.787 133.72V124.34H265.287V125.8C264.507 124.74 263.347 124.1 262.047 124.1C259.507 124.1 257.747 126.02 257.747 129.12C257.747 132.24 259.527 134.12 262.047 134.12C263.407 134.12 264.587 133.38 265.287 132.4V133.78C265.287 135.9 263.787 136.68 262.187 136.68C260.807 136.68 259.847 136.32 259.047 135.36L258.287 136.48C259.427 137.6 260.547 137.92 262.187 137.92ZM262.407 132.8C260.467 132.8 259.307 131.24 259.307 129.12C259.307 126.98 260.467 125.44 262.407 125.44C263.607 125.44 264.767 126.16 265.287 127V131.22C264.767 132.06 263.607 132.8 262.407 132.8ZM277.831 134V127.18C277.831 125.08 276.771 124.1 274.751 124.1C273.291 124.1 271.971 124.94 271.291 125.74V120.66H269.791V134H271.291V126.94C271.871 126.16 272.991 125.44 274.151 125.44C275.451 125.44 276.331 125.94 276.331 127.64V134H277.831ZM290.242 134.24C292.002 134.24 293.042 133.52 293.782 132.56L292.782 131.64C292.142 132.5 291.322 132.9 290.322 132.9C288.262 132.9 286.982 131.3 286.982 129.16C286.982 127.02 288.262 125.44 290.322 125.44C291.322 125.44 292.142 125.82 292.782 126.7L293.782 125.78C293.042 124.82 292.002 124.1 290.242 124.1C287.362 124.1 285.422 126.3 285.422 129.16C285.422 132.04 287.362 134.24 290.242 134.24ZM300.105 134.24C303.045 134.24 304.885 131.96 304.885 129.16C304.885 126.36 303.045 124.1 300.105 124.1C297.165 124.1 295.325 126.36 295.325 129.16C295.325 131.96 297.165 134.24 300.105 134.24ZM300.105 132.9C298.045 132.9 296.885 131.14 296.885 129.16C296.885 127.2 298.045 125.44 300.105 125.44C302.165 125.44 303.305 127.2 303.305 129.16C303.305 131.14 302.165 132.9 300.105 132.9ZM315.35 134V127.22C315.35 125.12 314.29 124.1 312.27 124.1C310.83 124.1 309.51 124.94 308.83 125.74V124.34H307.33V134H308.83V126.94C309.39 126.16 310.51 125.44 311.69 125.44C312.99 125.44 313.85 125.98 313.85 127.68V134H315.35ZM322.566 134L326.586 124.34H324.946L321.746 132.26L318.526 124.34H316.906L320.926 134H322.566ZM332.51 134.24C334.09 134.24 335.39 133.72 336.35 132.76L335.63 131.78C334.87 132.56 333.75 133 332.65 133C330.57 133 329.29 131.48 329.17 129.66H336.99V129.28C336.99 126.38 335.27 124.1 332.35 124.1C329.59 124.1 327.59 126.36 327.59 129.16C327.59 132.18 329.65 134.24 332.51 134.24ZM335.51 128.56H329.17C329.25 127.08 330.27 125.34 332.33 125.34C334.53 125.34 335.49 127.12 335.51 128.56ZM340.92 134V127.16C341.36 126.38 342.62 125.62 343.54 125.62C343.78 125.62 343.96 125.64 344.14 125.68V124.14C342.82 124.14 341.7 124.88 340.92 125.9V124.34H339.42V134H340.92ZM349.081 134.24C351.581 134.24 352.881 132.94 352.881 131.32C352.881 127.56 346.901 128.96 346.901 126.84C346.901 125.98 347.721 125.32 349.041 125.32C350.281 125.32 351.341 125.84 351.921 126.54L352.621 125.5C351.841 124.72 350.681 124.1 349.041 124.1C346.741 124.1 345.441 125.38 345.441 126.88C345.441 130.46 351.421 129.02 351.421 131.36C351.421 132.32 350.621 133.02 349.141 133.02C347.821 133.02 346.601 132.38 345.961 131.64L345.181 132.72C346.161 133.76 347.501 134.24 349.081 134.24ZM356.058 122.96C356.618 122.96 357.078 122.52 357.078 121.96C357.078 121.4 356.618 120.94 356.058 120.94C355.518 120.94 355.058 121.4 355.058 121.96C355.058 122.52 355.518 122.96 356.058 122.96ZM356.818 134V124.34H355.318V134H356.818ZM364.031 134.24C366.971 134.24 368.811 131.96 368.811 129.16C368.811 126.36 366.971 124.1 364.031 124.1C361.091 124.1 359.251 126.36 359.251 129.16C359.251 131.96 361.091 134.24 364.031 134.24ZM364.031 132.9C361.971 132.9 360.811 131.14 360.811 129.16C360.811 127.2 361.971 125.44 364.031 125.44C366.091 125.44 367.231 127.2 367.231 129.16C367.231 131.14 366.091 132.9 364.031 132.9ZM379.276 134V127.22C379.276 125.12 378.216 124.1 376.196 124.1C374.756 124.1 373.436 124.94 372.756 125.74V124.34H371.256V134H372.756V126.94C373.316 126.16 374.436 125.44 375.616 125.44C376.916 125.44 377.776 125.98 377.776 127.68V134H379.276Z" fill="white"/>
<rect x="1" y="179" width="462.133" height="378" rx="29" fill="url(#paint0_linear)" stroke="url(#paint1_linear)" stroke-width="2"/>
<path d="M35.758 219L40.384 206.994H37.468L34.156 216.228L30.826 206.994H27.91L32.554 219H35.758ZM42.5727 209.37C43.3287 209.37 43.9407 208.758 43.9407 208.002C43.9407 207.246 43.3287 206.652 42.5727 206.652C41.8347 206.652 41.2047 207.246 41.2047 208.002C41.2047 208.758 41.8347 209.37 42.5727 209.37ZM43.7247 219V210.306H41.4387V219H43.7247ZM49.1234 219.216C51.5354 219.216 52.8854 218.01 52.8854 216.426C52.8854 212.916 47.7374 213.996 47.7374 212.7C47.7374 212.214 48.2774 211.836 49.1054 211.836C50.1674 211.836 51.1574 212.286 51.6794 212.844L52.5974 211.278C51.7334 210.594 50.5634 210.09 49.0874 210.09C46.8014 210.09 45.5234 211.368 45.5234 212.826C45.5234 216.246 50.6894 215.076 50.6894 216.516C50.6894 217.056 50.2214 217.452 49.2314 217.452C48.1514 217.452 46.8554 216.858 46.2254 216.264L45.2354 217.866C46.1534 218.712 47.6114 219.216 49.1234 219.216ZM55.7035 209.37C56.4595 209.37 57.0715 208.758 57.0715 208.002C57.0715 207.246 56.4595 206.652 55.7035 206.652C54.9655 206.652 54.3355 207.246 54.3355 208.002C54.3355 208.758 54.9655 209.37 55.7035 209.37ZM56.8555 219V210.306H54.5695V219H56.8555ZM62.0383 219.216C62.9923 219.216 63.6043 218.964 63.9463 218.658L63.4603 216.93C63.3343 217.056 63.0103 217.182 62.6683 217.182C62.1643 217.182 61.8763 216.768 61.8763 216.228V212.304H63.6403V210.306H61.8763V207.93H59.5723V210.306H58.1323V212.304H59.5723V216.84C59.5723 218.388 60.4363 219.216 62.0383 219.216ZM69.2363 219.216C72.1163 219.216 73.8443 217.128 73.8443 214.644C73.8443 212.178 72.1163 210.09 69.2363 210.09C66.3743 210.09 64.6463 212.178 64.6463 214.644C64.6463 217.128 66.3743 219.216 69.2363 219.216ZM69.2363 217.182C67.8143 217.182 67.0223 216.012 67.0223 214.644C67.0223 213.294 67.8143 212.124 69.2363 212.124C70.6583 212.124 71.4683 213.294 71.4683 214.644C71.4683 216.012 70.6583 217.182 69.2363 217.182ZM77.8263 219V213.258C78.2043 212.7 79.2123 212.268 79.9683 212.268C80.2203 212.268 80.4363 212.286 80.5983 212.322V210.09C79.5183 210.09 78.4383 210.72 77.8263 211.494V210.306H75.5403V219H77.8263ZM91.078 219.216C94.498 219.216 96.046 216.102 96.046 213.006C96.046 209.91 94.498 206.814 91.078 206.814C87.64 206.814 86.11 209.91 86.11 213.006C86.11 216.102 87.64 219.216 91.078 219.216ZM91.078 216.948C89.35 216.948 88.702 215.22 88.702 213.006C88.702 210.792 89.35 209.082 91.078 209.082C92.788 209.082 93.436 210.792 93.436 213.006C93.436 215.22 92.788 216.948 91.078 216.948ZM101.394 219.198C104.94 219.198 106.974 216.624 106.974 213.006C106.974 209.604 105.444 206.796 101.808 206.796C99.0722 206.796 97.2002 208.578 97.2002 210.918C97.2002 213.474 99.1442 214.824 101.304 214.824C102.618 214.824 103.824 214.086 104.4 213.276C104.4 213.366 104.4 213.456 104.4 213.546C104.4 215.274 103.374 216.93 101.394 216.93C100.332 216.93 99.6482 216.606 99.0002 215.994L97.8662 217.956C98.7122 218.712 99.9362 219.198 101.394 219.198ZM102.024 212.628C100.908 212.628 99.8102 212.088 99.8102 210.828C99.8102 210 100.566 209.064 101.934 209.064C103.626 209.064 104.274 210.36 104.382 211.512C103.806 212.214 102.924 212.628 102.024 212.628ZM113.065 219.216C115.585 219.216 117.889 218.118 117.889 215.886C117.889 214.428 116.737 213.312 115.297 212.808C116.629 212.34 117.691 211.476 117.691 209.982C117.691 207.732 115.279 206.814 113.065 206.814C110.833 206.814 108.439 207.732 108.439 209.982C108.439 211.476 109.483 212.34 110.815 212.808C109.375 213.312 108.241 214.428 108.241 215.886C108.241 218.136 110.545 219.216 113.065 219.216ZM113.065 211.8C112.327 211.692 111.031 211.278 111.031 210.378C111.031 209.514 111.877 209.01 113.065 209.01C114.235 209.01 115.081 209.514 115.081 210.378C115.081 211.278 113.803 211.692 113.065 211.8ZM113.065 217.02C111.805 217.02 110.833 216.444 110.833 215.562C110.833 214.554 112.309 214.068 113.065 213.96C113.803 214.068 115.297 214.554 115.297 215.562C115.297 216.444 114.289 217.02 113.065 217.02ZM124.737 219V206.994H122.505L118.725 210.792L120.183 212.322L122.181 210.288V219H124.737ZM131.508 219.216C134.928 219.216 136.476 216.102 136.476 213.006C136.476 209.91 134.928 206.814 131.508 206.814C128.07 206.814 126.54 209.91 126.54 213.006C126.54 216.102 128.07 219.216 131.508 219.216ZM131.508 216.948C129.78 216.948 129.132 215.22 129.132 213.006C129.132 210.792 129.78 209.082 131.508 209.082C133.218 209.082 133.866 210.792 133.866 213.006C133.866 215.22 133.218 216.948 131.508 216.948ZM146.972 219V216.75H142.076C145.19 214.482 146.882 212.7 146.882 210.648C146.882 208.254 144.848 206.814 142.292 206.814C140.618 206.814 138.836 207.426 137.666 208.776L139.124 210.468C139.934 209.622 140.978 209.082 142.346 209.082C143.336 209.082 144.29 209.604 144.29 210.648C144.29 212.124 142.85 213.366 137.936 217.002V219H146.972Z" fill="white"/>
<rect x="28" y="224" width="133" height="2" rx="1" fill="white"/>
<rect x="28.0444" y="285.97" width="410.148" height="0.701107" rx="0.350553" fill="white"/>
<rect x="28.0444" y="330.14" width="410.148" height="0.701107" rx="0.350553" fill="white"/>
<rect x="28.0444" y="372.908" width="410.148" height="0.701107" rx="0.350553" fill="white"/>
<rect x="28.0444" y="460.546" width="410.148" height="0.701107" rx="0.350553" fill="white"/>
<rect x="28.0444" y="415.675" width="410.148" height="0.701107" rx="0.350553" fill="white"/>
<path d="M39.286 280.47C38.134 281.634 36.664 282.216 34.876 282.216C33.088 282.216 31.618 281.634 30.466 280.47C29.314 279.294 28.738 277.806 28.738 276.006C28.738 274.206 29.314 272.724 30.466 271.56C31.618 270.384 33.088 269.796 34.876 269.796C36.664 269.796 38.134 270.384 39.286 271.56C40.438 272.724 41.014 274.206 41.014 276.006C41.014 277.806 40.438 279.294 39.286 280.47ZM34.876 280.344C36.064 280.344 37.024 279.936 37.756 279.12C38.488 278.292 38.854 277.254 38.854 276.006C38.854 274.746 38.488 273.708 37.756 272.892C37.024 272.076 36.064 271.668 34.876 271.668C33.676 271.668 32.71 272.076 31.978 272.892C31.258 273.708 30.898 274.746 30.898 276.006C30.898 277.266 31.258 278.304 31.978 279.12C32.71 279.936 33.676 280.344 34.876 280.344ZM44.8777 282H42.9877V273.306H44.8777V274.584C45.2137 274.152 45.6337 273.798 46.1377 273.522C46.6417 273.246 47.1637 273.108 47.7037 273.108V274.98C47.5357 274.944 47.3377 274.926 47.1097 274.926C46.7137 274.926 46.2877 275.046 45.8317 275.286C45.3877 275.514 45.0697 275.778 44.8777 276.078V282ZM52.7559 285.528C51.2799 285.528 50.0679 285.096 49.1199 284.232L50.0019 282.864C50.6499 283.608 51.5679 283.98 52.7559 283.98C53.4759 283.98 54.0819 283.788 54.5739 283.404C55.0779 283.032 55.3299 282.438 55.3299 281.622V280.578C54.5859 281.538 53.6559 282.018 52.5399 282.018C51.3999 282.018 50.4699 281.622 49.7499 280.83C49.0419 280.038 48.6879 278.946 48.6879 277.554C48.6879 276.174 49.0419 275.088 49.7499 274.296C50.4699 273.492 51.3999 273.09 52.5399 273.09C53.6799 273.09 54.6099 273.564 55.3299 274.512V273.306H57.2199V281.55C57.2199 282.294 57.0879 282.936 56.8239 283.476C56.5719 284.028 56.2239 284.442 55.7799 284.718C55.3359 285.006 54.8619 285.21 54.3579 285.33C53.8659 285.462 53.3319 285.528 52.7559 285.528ZM53.0979 280.344C53.5299 280.344 53.9559 280.23 54.3759 280.002C54.7959 279.774 55.1139 279.498 55.3299 279.174V275.934C55.1139 275.61 54.7959 275.334 54.3759 275.106C53.9559 274.878 53.5299 274.764 53.0979 274.764C52.3539 274.764 51.7599 275.022 51.3159 275.538C50.8719 276.042 50.6499 276.714 50.6499 277.554C50.6499 278.394 50.8719 279.072 51.3159 279.588C51.7599 280.092 52.3539 280.344 53.0979 280.344ZM66.8693 282H64.9793V281.064C64.3073 281.832 63.3713 282.216 62.1713 282.216C61.3793 282.216 60.6773 281.964 60.0653 281.46C59.4533 280.944 59.1473 280.236 59.1473 279.336C59.1473 278.412 59.4473 277.71 60.0473 277.23C60.6593 276.75 61.3673 276.51 62.1713 276.51C63.4073 276.51 64.3433 276.882 64.9793 277.626V276.33C64.9793 275.826 64.7933 275.43 64.4213 275.142C64.0493 274.854 63.5573 274.71 62.9453 274.71C61.9733 274.71 61.1153 275.076 60.3713 275.808L59.5973 274.494C60.5813 273.558 61.7993 273.09 63.2513 273.09C64.3193 273.09 65.1893 273.342 65.8613 273.846C66.5333 274.35 66.8693 275.148 66.8693 276.24V282ZM62.9093 280.92C63.8573 280.92 64.5473 280.62 64.9793 280.02V278.706C64.5473 278.106 63.8573 277.806 62.9093 277.806C62.3693 277.806 61.9253 277.95 61.5773 278.238C61.2293 278.526 61.0553 278.904 61.0553 279.372C61.0553 279.84 61.2293 280.218 61.5773 280.506C61.9253 280.782 62.3693 280.92 62.9093 280.92ZM77.0777 282H75.1877V276.564C75.1877 275.364 74.6057 274.764 73.4417 274.764C72.9857 274.764 72.5597 274.878 72.1637 275.106C71.7677 275.334 71.4497 275.61 71.2097 275.934V282H69.3197V273.306H71.2097V274.494C71.5337 274.11 71.9657 273.78 72.5057 273.504C73.0457 273.228 73.6337 273.09 74.2697 273.09C75.1937 273.09 75.8897 273.33 76.3577 273.81C76.8377 274.29 77.0777 274.98 77.0777 275.88V282ZM80.4686 272.244C80.1566 272.244 79.8806 272.13 79.6406 271.902C79.4126 271.674 79.2986 271.398 79.2986 271.074C79.2986 270.75 79.4126 270.474 79.6406 270.246C79.8806 270.018 80.1566 269.904 80.4686 269.904C80.7926 269.904 81.0686 270.018 81.2966 270.246C81.5246 270.474 81.6386 270.75 81.6386 271.074C81.6386 271.398 81.5246 271.674 81.2966 271.902C81.0686 272.13 80.7926 272.244 80.4686 272.244ZM81.4226 282H79.5326V273.306H81.4226V282ZM87.8344 282.216C86.5144 282.216 85.4344 281.79 84.5944 280.938C83.7544 280.074 83.3344 278.976 83.3344 277.644C83.3344 276.324 83.7544 275.238 84.5944 274.386C85.4344 273.522 86.5144 273.09 87.8344 273.09C89.2864 273.09 90.3964 273.606 91.1644 274.638L89.9224 275.79C89.4424 275.106 88.7764 274.764 87.9244 274.764C87.1324 274.764 86.4964 275.034 86.0164 275.574C85.5364 276.102 85.2964 276.792 85.2964 277.644C85.2964 278.496 85.5364 279.192 86.0164 279.732C86.4964 280.272 87.1324 280.542 87.9244 280.542C88.7524 280.542 89.4184 280.2 89.9224 279.516L91.1644 280.668C90.3964 281.7 89.2864 282.216 87.8344 282.216ZM101.603 282.216C99.5387 282.216 97.9127 281.58 96.7247 280.308L97.8947 278.688C98.9267 279.792 100.193 280.344 101.693 280.344C102.497 280.344 103.097 280.182 103.493 279.858C103.901 279.534 104.105 279.15 104.105 278.706C104.105 278.25 103.865 277.89 103.385 277.626C102.905 277.35 102.323 277.134 101.639 276.978C100.955 276.822 100.265 276.636 99.5687 276.42C98.8847 276.204 98.3027 275.838 97.8227 275.322C97.3427 274.806 97.1027 274.14 97.1027 273.324C97.1027 272.316 97.5047 271.482 98.3087 270.822C99.1247 270.15 100.181 269.814 101.477 269.814C103.325 269.814 104.825 270.372 105.977 271.488L104.771 273.054C103.859 272.142 102.701 271.686 101.297 271.686C100.673 271.686 100.175 271.824 99.8027 272.1C99.4427 272.364 99.2627 272.724 99.2627 273.18C99.2627 273.48 99.3887 273.732 99.6407 273.936C99.9047 274.14 100.241 274.308 100.649 274.44C101.057 274.56 101.507 274.68 101.999 274.8C102.503 274.92 103.001 275.07 103.493 275.25C103.997 275.418 104.453 275.628 104.861 275.88C105.269 276.132 105.599 276.48 105.851 276.924C106.115 277.368 106.247 277.896 106.247 278.508C106.247 279.588 105.857 280.476 105.077 281.172C104.297 281.868 103.139 282.216 101.603 282.216ZM116.412 282H108.186V269.994H116.412V271.848H110.292V274.962H116.286V276.816H110.292V280.146H116.412V282ZM128.583 280.47C127.431 281.634 125.961 282.216 124.173 282.216C122.385 282.216 120.915 281.634 119.763 280.47C118.611 279.294 118.035 277.806 118.035 276.006C118.035 274.206 118.611 272.724 119.763 271.56C120.915 270.384 122.385 269.796 124.173 269.796C125.961 269.796 127.431 270.384 128.583 271.56C129.735 272.724 130.311 274.206 130.311 276.006C130.311 277.806 129.735 279.294 128.583 280.47ZM124.173 280.344C125.361 280.344 126.321 279.936 127.053 279.12C127.785 278.292 128.151 277.254 128.151 276.006C128.151 274.746 127.785 273.708 127.053 272.892C126.321 272.076 125.361 271.668 124.173 271.668C122.973 271.668 122.007 272.076 121.275 272.892C120.555 273.708 120.195 274.746 120.195 276.006C120.195 277.266 120.555 278.304 121.275 279.12C122.007 279.936 122.973 280.344 124.173 280.344Z" fill="white"/>
<path d="M39.3304 453.684C38.1784 454.848 36.7084 455.43 34.9204 455.43C33.1324 455.43 31.6624 454.848 30.5104 453.684C29.3584 452.508 28.7824 451.02 28.7824 449.22C28.7824 447.42 29.3584 445.938 30.5104 444.774C31.6624 443.598 33.1324 443.01 34.9204 443.01C36.7084 443.01 38.1784 443.598 39.3304 444.774C40.4824 445.938 41.0584 447.42 41.0584 449.22C41.0584 451.02 40.4824 452.508 39.3304 453.684ZM34.9204 453.558C36.1084 453.558 37.0684 453.15 37.8004 452.334C38.5324 451.506 38.8984 450.468 38.8984 449.22C38.8984 447.96 38.5324 446.922 37.8004 446.106C37.0684 445.29 36.1084 444.882 34.9204 444.882C33.7204 444.882 32.7544 445.29 32.0224 446.106C31.3024 446.922 30.9424 447.96 30.9424 449.22C30.9424 450.48 31.3024 451.518 32.0224 452.334C32.7544 453.15 33.7204 453.558 34.9204 453.558ZM44.9221 455.214H43.0321V446.52H44.9221V447.798C45.2581 447.366 45.6781 447.012 46.1821 446.736C46.6861 446.46 47.2081 446.322 47.7481 446.322V448.194C47.5801 448.158 47.3821 448.14 47.1541 448.14C46.7581 448.14 46.3321 448.26 45.8761 448.5C45.4321 448.728 45.1141 448.992 44.9221 449.292V455.214ZM52.8003 458.742C51.3243 458.742 50.1123 458.31 49.1643 457.446L50.0463 456.078C50.6943 456.822 51.6123 457.194 52.8003 457.194C53.5203 457.194 54.1263 457.002 54.6183 456.618C55.1223 456.246 55.3743 455.652 55.3743 454.836V453.792C54.6303 454.752 53.7003 455.232 52.5843 455.232C51.4443 455.232 50.5143 454.836 49.7943 454.044C49.0863 453.252 48.7323 452.16 48.7323 450.768C48.7323 449.388 49.0863 448.302 49.7943 447.51C50.5143 446.706 51.4443 446.304 52.5843 446.304C53.7243 446.304 54.6543 446.778 55.3743 447.726V446.52H57.2643V454.764C57.2643 455.508 57.1323 456.15 56.8683 456.69C56.6163 457.242 56.2683 457.656 55.8243 457.932C55.3803 458.22 54.9063 458.424 54.4023 458.544C53.9103 458.676 53.3763 458.742 52.8003 458.742ZM53.1423 453.558C53.5743 453.558 54.0003 453.444 54.4203 453.216C54.8403 452.988 55.1583 452.712 55.3743 452.388V449.148C55.1583 448.824 54.8403 448.548 54.4203 448.32C54.0003 448.092 53.5743 447.978 53.1423 447.978C52.3983 447.978 51.8043 448.236 51.3603 448.752C50.9163 449.256 50.6943 449.928 50.6943 450.768C50.6943 451.608 50.9163 452.286 51.3603 452.802C51.8043 453.306 52.3983 453.558 53.1423 453.558ZM66.9137 455.214H65.0237V454.278C64.3517 455.046 63.4157 455.43 62.2157 455.43C61.4237 455.43 60.7217 455.178 60.1097 454.674C59.4977 454.158 59.1917 453.45 59.1917 452.55C59.1917 451.626 59.4917 450.924 60.0917 450.444C60.7037 449.964 61.4117 449.724 62.2157 449.724C63.4517 449.724 64.3877 450.096 65.0237 450.84V449.544C65.0237 449.04 64.8377 448.644 64.4657 448.356C64.0937 448.068 63.6017 447.924 62.9897 447.924C62.0177 447.924 61.1597 448.29 60.4157 449.022L59.6417 447.708C60.6257 446.772 61.8437 446.304 63.2957 446.304C64.3637 446.304 65.2337 446.556 65.9057 447.06C66.5777 447.564 66.9137 448.362 66.9137 449.454V455.214ZM62.9537 454.134C63.9017 454.134 64.5917 453.834 65.0237 453.234V451.92C64.5917 451.32 63.9017 451.02 62.9537 451.02C62.4137 451.02 61.9697 451.164 61.6217 451.452C61.2737 451.74 61.0997 452.118 61.0997 452.586C61.0997 453.054 61.2737 453.432 61.6217 453.72C61.9697 453.996 62.4137 454.134 62.9537 454.134ZM77.1221 455.214H75.2321V449.778C75.2321 448.578 74.6501 447.978 73.4861 447.978C73.0301 447.978 72.6041 448.092 72.2081 448.32C71.8121 448.548 71.4941 448.824 71.2541 449.148V455.214H69.3641V446.52H71.2541V447.708C71.5781 447.324 72.0101 446.994 72.5501 446.718C73.0901 446.442 73.6781 446.304 74.3141 446.304C75.2381 446.304 75.9341 446.544 76.4021 447.024C76.8821 447.504 77.1221 448.194 77.1221 449.094V455.214ZM80.513 445.458C80.201 445.458 79.925 445.344 79.685 445.116C79.457 444.888 79.343 444.612 79.343 444.288C79.343 443.964 79.457 443.688 79.685 443.46C79.925 443.232 80.201 443.118 80.513 443.118C80.837 443.118 81.113 443.232 81.341 443.46C81.569 443.688 81.683 443.964 81.683 444.288C81.683 444.612 81.569 444.888 81.341 445.116C81.113 445.344 80.837 445.458 80.513 445.458ZM81.467 455.214H79.577V446.52H81.467V455.214ZM87.8788 455.43C86.5588 455.43 85.4788 455.004 84.6388 454.152C83.7988 453.288 83.3788 452.19 83.3788 450.858C83.3788 449.538 83.7988 448.452 84.6388 447.6C85.4788 446.736 86.5588 446.304 87.8788 446.304C89.3308 446.304 90.4408 446.82 91.2088 447.852L89.9668 449.004C89.4868 448.32 88.8208 447.978 87.9688 447.978C87.1768 447.978 86.5408 448.248 86.0608 448.788C85.5808 449.316 85.3408 450.006 85.3408 450.858C85.3408 451.71 85.5808 452.406 86.0608 452.946C86.5408 453.486 87.1768 453.756 87.9688 453.756C88.7968 453.756 89.4628 453.414 89.9668 452.73L91.2088 453.882C90.4408 454.914 89.3308 455.43 87.8788 455.43ZM101.647 455.43C99.5831 455.43 97.9571 454.794 96.7691 453.522L97.9391 451.902C98.9711 453.006 100.237 453.558 101.737 453.558C102.541 453.558 103.141 453.396 103.537 453.072C103.945 452.748 104.149 452.364 104.149 451.92C104.149 451.464 103.909 451.104 103.429 450.84C102.949 450.564 102.367 450.348 101.683 450.192C100.999 450.036 100.309 449.85 99.6131 449.634C98.9291 449.418 98.3471 449.052 97.8671 448.536C97.3871 448.02 97.1471 447.354 97.1471 446.538C97.1471 445.53 97.5491 444.696 98.3531 444.036C99.1691 443.364 100.225 443.028 101.521 443.028C103.369 443.028 104.869 443.586 106.021 444.702L104.815 446.268C103.903 445.356 102.745 444.9 101.341 444.9C100.717 444.9 100.219 445.038 99.8471 445.314C99.4871 445.578 99.3071 445.938 99.3071 446.394C99.3071 446.694 99.4331 446.946 99.6851 447.15C99.9491 447.354 100.285 447.522 100.693 447.654C101.101 447.774 101.551 447.894 102.043 448.014C102.547 448.134 103.045 448.284 103.537 448.464C104.041 448.632 104.497 448.842 104.905 449.094C105.313 449.346 105.643 449.694 105.895 450.138C106.159 450.582 106.291 451.11 106.291 451.722C106.291 452.802 105.901 453.69 105.121 454.386C104.341 455.082 103.183 455.43 101.647 455.43ZM116.457 455.214H108.231V443.208H116.457V445.062H110.337V448.176H116.331V450.03H110.337V453.36H116.457V455.214ZM128.627 453.684C127.475 454.848 126.005 455.43 124.217 455.43C122.429 455.43 120.959 454.848 119.807 453.684C118.655 452.508 118.079 451.02 118.079 449.22C118.079 447.42 118.655 445.938 119.807 444.774C120.959 443.598 122.429 443.01 124.217 443.01C126.005 443.01 127.475 443.598 128.627 444.774C129.779 445.938 130.355 447.42 130.355 449.22C130.355 451.02 129.779 452.508 128.627 453.684ZM124.217 453.558C125.405 453.558 126.365 453.15 127.097 452.334C127.829 451.506 128.195 450.468 128.195 449.22C128.195 447.96 127.829 446.922 127.097 446.106C126.365 445.29 125.405 444.882 124.217 444.882C123.017 444.882 122.051 445.29 121.319 446.106C120.599 446.922 120.239 447.96 120.239 449.22C120.239 450.48 120.599 451.518 121.319 452.334C122.051 453.15 123.017 453.558 124.217 453.558Z" fill="white"/>
<rect x="28.0444" y="504.015" width="410.148" height="0.701107" rx="0.350553" fill="white"/>
<path d="M40.7524 498.683H38.5024L36.1624 489.827L33.8404 498.683H31.5904L28.1524 486.677H30.5104L32.8504 495.929L35.3344 486.677H37.0084L39.4924 495.929L41.8144 486.677H44.1724L40.7524 498.683ZM48.8215 498.899C47.5015 498.899 46.4095 498.479 45.5455 497.639C44.6935 496.787 44.2675 495.683 44.2675 494.327C44.2675 493.055 44.6815 491.981 45.5095 491.105C46.3495 490.217 47.4055 489.773 48.6775 489.773C49.9615 489.773 50.9935 490.217 51.7735 491.105C52.5655 491.993 52.9615 493.127 52.9615 494.507V494.957H46.2475C46.3195 495.641 46.6015 496.211 47.0935 496.667C47.5855 497.123 48.2275 497.351 49.0195 497.351C49.4635 497.351 49.9075 497.267 50.3515 497.099C50.8075 496.931 51.1855 496.697 51.4855 496.397L52.3495 497.639C51.4735 498.479 50.2975 498.899 48.8215 498.899ZM51.1255 493.625C51.1015 493.025 50.8795 492.491 50.4595 492.023C50.0515 491.555 49.4575 491.321 48.6775 491.321C47.9335 491.321 47.3515 491.555 46.9315 492.023C46.5115 492.479 46.2775 493.013 46.2295 493.625H51.1255ZM56.717 496.073C56.921 496.397 57.233 496.673 57.653 496.901C58.085 497.117 58.517 497.225 58.949 497.225C59.693 497.225 60.287 496.961 60.731 496.433C61.187 495.893 61.415 495.197 61.415 494.345C61.415 493.493 61.187 492.797 60.731 492.257C60.287 491.717 59.693 491.447 58.949 491.447C58.517 491.447 58.091 491.561 57.671 491.789C57.251 492.017 56.933 492.299 56.717 492.635V496.073ZM56.717 498.683H54.827V486.677H56.717V491.195C57.425 490.247 58.355 489.773 59.507 489.773C60.635 489.773 61.559 490.193 62.279 491.033C62.999 491.861 63.359 492.965 63.359 494.345C63.359 495.749 62.999 496.859 62.279 497.675C61.559 498.491 60.635 498.899 59.507 498.899C58.367 498.899 57.437 498.431 56.717 497.495V498.683ZM68.256 498.899C66.696 498.899 65.454 498.449 64.53 497.549L65.394 496.181C65.718 496.517 66.156 496.805 66.708 497.045C67.26 497.285 67.806 497.405 68.346 497.405C68.898 497.405 69.318 497.297 69.606 497.081C69.906 496.865 70.056 496.583 70.056 496.235C70.056 495.923 69.876 495.683 69.516 495.515C69.156 495.335 68.718 495.197 68.202 495.101C67.686 494.993 67.17 494.867 66.654 494.723C66.138 494.567 65.7 494.297 65.34 493.913C64.98 493.529 64.8 493.031 64.8 492.419C64.8 491.675 65.106 491.051 65.718 490.547C66.33 490.031 67.164 489.773 68.22 489.773C69.552 489.773 70.68 490.181 71.604 490.997L70.812 492.329C70.536 492.017 70.17 491.765 69.714 491.573C69.258 491.381 68.766 491.285 68.238 491.285C67.746 491.285 67.35 491.387 67.05 491.591C66.762 491.783 66.618 492.035 66.618 492.347C66.618 492.587 66.744 492.785 66.996 492.941C67.26 493.085 67.584 493.193 67.968 493.265C68.364 493.337 68.79 493.439 69.246 493.571C69.702 493.691 70.122 493.835 70.506 494.003C70.902 494.171 71.226 494.447 71.478 494.831C71.742 495.203 71.874 495.659 71.874 496.199C71.874 496.991 71.556 497.639 70.92 498.143C70.284 498.647 69.396 498.899 68.256 498.899ZM74.7122 488.927C74.4002 488.927 74.1242 488.813 73.8842 488.585C73.6562 488.357 73.5422 488.081 73.5422 487.757C73.5422 487.433 73.6562 487.157 73.8842 486.929C74.1242 486.701 74.4002 486.587 74.7122 486.587C75.0362 486.587 75.3122 486.701 75.5402 486.929C75.7682 487.157 75.8822 487.433 75.8822 487.757C75.8822 488.081 75.7682 488.357 75.5402 488.585C75.3122 488.813 75.0362 488.927 74.7122 488.927ZM75.6662 498.683H73.7762V489.989H75.6662V498.683ZM80.728 498.899C79.996 498.899 79.438 498.707 79.054 498.323C78.682 497.939 78.496 497.387 78.496 496.667V491.645H77.056V489.989H78.496V487.613H80.386V489.989H82.15V491.645H80.386V496.199C80.386 496.511 80.458 496.763 80.602 496.955C80.746 497.135 80.95 497.225 81.214 497.225C81.598 497.225 81.88 497.123 82.06 496.919L82.51 498.341C82.114 498.713 81.52 498.899 80.728 498.899ZM87.8801 498.899C86.5601 498.899 85.4681 498.479 84.6041 497.639C83.7521 496.787 83.3261 495.683 83.3261 494.327C83.3261 493.055 83.7401 491.981 84.5681 491.105C85.4081 490.217 86.4641 489.773 87.7361 489.773C89.0201 489.773 90.0521 490.217 90.8321 491.105C91.6241 491.993 92.0201 493.127 92.0201 494.507V494.957H85.3061C85.3781 495.641 85.6601 496.211 86.1521 496.667C86.6441 497.123 87.2861 497.351 88.0781 497.351C88.5221 497.351 88.9661 497.267 89.4101 497.099C89.8661 496.931 90.2441 496.697 90.5441 496.397L91.4081 497.639C90.5321 498.479 89.3561 498.899 87.8801 498.899ZM90.1841 493.625C90.1601 493.025 89.9381 492.491 89.5181 492.023C89.1101 491.555 88.5161 491.321 87.7361 491.321C86.9921 491.321 86.4101 491.555 85.9901 492.023C85.5701 492.479 85.3361 493.013 85.2881 493.625H90.1841ZM100.669 498.683H98.5627V486.677H103.837C105.049 486.677 106.003 487.037 106.699 487.757C107.407 488.477 107.761 489.371 107.761 490.439C107.761 491.495 107.407 492.389 106.699 493.121C106.003 493.841 105.049 494.201 103.837 494.201H100.669V498.683ZM103.549 492.347C104.149 492.347 104.641 492.173 105.025 491.825C105.409 491.477 105.601 491.015 105.601 490.439C105.601 489.863 105.409 489.401 105.025 489.053C104.641 488.705 104.149 488.531 103.549 488.531H100.669V492.347H103.549ZM117.218 498.683H115.328V497.531C114.512 498.443 113.486 498.899 112.25 498.899C110.39 498.899 109.46 497.981 109.46 496.145V489.989H111.35V495.461C111.35 496.097 111.5 496.553 111.8 496.829C112.1 497.093 112.532 497.225 113.096 497.225C113.552 497.225 113.978 497.117 114.374 496.901C114.77 496.685 115.088 496.415 115.328 496.091V489.989H117.218V498.683ZM121.563 498.683H119.673V489.989H121.563V491.267C121.899 490.835 122.319 490.481 122.823 490.205C123.327 489.929 123.849 489.791 124.389 489.791V491.663C124.221 491.627 124.023 491.609 123.795 491.609C123.399 491.609 122.973 491.729 122.517 491.969C122.073 492.197 121.755 492.461 121.563 492.761V498.683ZM129.873 498.899C128.553 498.899 127.473 498.473 126.633 497.621C125.793 496.757 125.373 495.659 125.373 494.327C125.373 493.007 125.793 491.921 126.633 491.069C127.473 490.205 128.553 489.773 129.873 489.773C131.325 489.773 132.435 490.289 133.203 491.321L131.961 492.473C131.481 491.789 130.815 491.447 129.963 491.447C129.171 491.447 128.535 491.717 128.055 492.257C127.575 492.785 127.335 493.475 127.335 494.327C127.335 495.179 127.575 495.875 128.055 496.415C128.535 496.955 129.171 497.225 129.963 497.225C130.791 497.225 131.457 496.883 131.961 496.199L133.203 497.351C132.435 498.383 131.325 498.899 129.873 498.899ZM142.636 498.683H140.746V493.211C140.746 492.575 140.59 492.125 140.278 491.861C139.978 491.585 139.546 491.447 138.982 491.447C138.538 491.447 138.118 491.561 137.722 491.789C137.326 492.017 137.002 492.293 136.75 492.617V498.683H134.86V486.677H136.75V491.177C137.074 490.793 137.506 490.463 138.046 490.187C138.598 489.911 139.192 489.773 139.828 489.773C141.7 489.773 142.636 490.691 142.636 492.527V498.683ZM152.291 498.683H150.401V497.747C149.729 498.515 148.793 498.899 147.593 498.899C146.801 498.899 146.099 498.647 145.487 498.143C144.875 497.627 144.569 496.919 144.569 496.019C144.569 495.095 144.869 494.393 145.469 493.913C146.081 493.433 146.789 493.193 147.593 493.193C148.829 493.193 149.765 493.565 150.401 494.309V493.013C150.401 492.509 150.215 492.113 149.843 491.825C149.471 491.537 148.979 491.393 148.367 491.393C147.395 491.393 146.537 491.759 145.793 492.491L145.019 491.177C146.003 490.241 147.221 489.773 148.673 489.773C149.741 489.773 150.611 490.025 151.283 490.529C151.955 491.033 152.291 491.831 152.291 492.923V498.683ZM148.331 497.603C149.279 497.603 149.969 497.303 150.401 496.703V495.389C149.969 494.789 149.279 494.489 148.331 494.489C147.791 494.489 147.347 494.633 146.999 494.921C146.651 495.209 146.477 495.587 146.477 496.055C146.477 496.523 146.651 496.901 146.999 497.189C147.347 497.465 147.791 497.603 148.331 497.603ZM157.711 498.899C156.151 498.899 154.909 498.449 153.985 497.549L154.849 496.181C155.173 496.517 155.611 496.805 156.163 497.045C156.715 497.285 157.261 497.405 157.801 497.405C158.353 497.405 158.773 497.297 159.061 497.081C159.361 496.865 159.511 496.583 159.511 496.235C159.511 495.923 159.331 495.683 158.971 495.515C158.611 495.335 158.173 495.197 157.657 495.101C157.141 494.993 156.625 494.867 156.109 494.723C155.593 494.567 155.155 494.297 154.795 493.913C154.435 493.529 154.255 493.031 154.255 492.419C154.255 491.675 154.561 491.051 155.173 490.547C155.785 490.031 156.619 489.773 157.675 489.773C159.007 489.773 160.135 490.181 161.059 490.997L160.267 492.329C159.991 492.017 159.625 491.765 159.169 491.573C158.713 491.381 158.221 491.285 157.693 491.285C157.201 491.285 156.805 491.387 156.505 491.591C156.217 491.783 156.073 492.035 156.073 492.347C156.073 492.587 156.199 492.785 156.451 492.941C156.715 493.085 157.039 493.193 157.423 493.265C157.819 493.337 158.245 493.439 158.701 493.571C159.157 493.691 159.577 493.835 159.961 494.003C160.357 494.171 160.681 494.447 160.933 494.831C161.197 495.203 161.329 495.659 161.329 496.199C161.329 496.991 161.011 497.639 160.375 498.143C159.739 498.647 158.851 498.899 157.711 498.899ZM167.245 498.899C165.925 498.899 164.833 498.479 163.969 497.639C163.117 496.787 162.691 495.683 162.691 494.327C162.691 493.055 163.105 491.981 163.933 491.105C164.773 490.217 165.829 489.773 167.101 489.773C168.385 489.773 169.417 490.217 170.197 491.105C170.989 491.993 171.385 493.127 171.385 494.507V494.957H164.671C164.743 495.641 165.025 496.211 165.517 496.667C166.009 497.123 166.651 497.351 167.443 497.351C167.887 497.351 168.331 497.267 168.775 497.099C169.231 496.931 169.609 496.697 169.909 496.397L170.773 497.639C169.897 498.479 168.721 498.899 167.245 498.899ZM169.549 493.625C169.525 493.025 169.303 492.491 168.883 492.023C168.475 491.555 167.881 491.321 167.101 491.321C166.357 491.321 165.775 491.555 165.355 492.023C164.935 492.479 164.701 493.013 164.653 493.625H169.549Z" fill="white"/>
<path d="M33.382 325.216C31.318 325.216 29.692 324.58 28.504 323.308L29.674 321.688C30.706 322.792 31.972 323.344 33.472 323.344C34.276 323.344 34.876 323.182 35.272 322.858C35.68 322.534 35.884 322.15 35.884 321.706C35.884 321.25 35.644 320.89 35.164 320.626C34.684 320.35 34.102 320.134 33.418 319.978C32.734 319.822 32.044 319.636 31.348 319.42C30.664 319.204 30.082 318.838 29.602 318.322C29.122 317.806 28.882 317.14 28.882 316.324C28.882 315.316 29.284 314.482 30.088 313.822C30.904 313.15 31.96 312.814 33.256 312.814C35.104 312.814 36.604 313.372 37.756 314.488L36.55 316.054C35.638 315.142 34.48 314.686 33.076 314.686C32.452 314.686 31.954 314.824 31.582 315.1C31.222 315.364 31.042 315.724 31.042 316.18C31.042 316.48 31.168 316.732 31.42 316.936C31.684 317.14 32.02 317.308 32.428 317.44C32.836 317.56 33.286 317.68 33.778 317.8C34.282 317.92 34.78 318.07 35.272 318.25C35.776 318.418 36.232 318.628 36.64 318.88C37.048 319.132 37.378 319.48 37.63 319.924C37.894 320.368 38.026 320.896 38.026 321.508C38.026 322.588 37.636 323.476 36.856 324.172C36.076 324.868 34.918 325.216 33.382 325.216ZM47.6695 325H45.7795V319.564C45.7795 318.364 45.1975 317.764 44.0335 317.764C43.5775 317.764 43.1515 317.878 42.7555 318.106C42.3595 318.334 42.0415 318.61 41.8015 318.934V325H39.9115V316.306H41.8015V317.494C42.1255 317.11 42.5575 316.78 43.0975 316.504C43.6375 316.228 44.2255 316.09 44.8615 316.09C45.7855 316.09 46.4815 316.33 46.9495 316.81C47.4295 317.29 47.6695 317.98 47.6695 318.88V325ZM57.3244 325H55.4344V324.064C54.7624 324.832 53.8264 325.216 52.6264 325.216C51.8344 325.216 51.1324 324.964 50.5204 324.46C49.9084 323.944 49.6024 323.236 49.6024 322.336C49.6024 321.412 49.9024 320.71 50.5024 320.23C51.1144 319.75 51.8224 319.51 52.6264 319.51C53.8624 319.51 54.7984 319.882 55.4344 320.626V319.33C55.4344 318.826 55.2484 318.43 54.8764 318.142C54.5044 317.854 54.0124 317.71 53.4004 317.71C52.4284 317.71 51.5704 318.076 50.8264 318.808L50.0524 317.494C51.0364 316.558 52.2544 316.09 53.7064 316.09C54.7744 316.09 55.6444 316.342 56.3164 316.846C56.9884 317.35 57.3244 318.148 57.3244 319.24V325ZM53.3644 323.92C54.3124 323.92 55.0024 323.62 55.4344 323.02V321.706C55.0024 321.106 54.3124 320.806 53.3644 320.806C52.8244 320.806 52.3804 320.95 52.0324 321.238C51.6844 321.526 51.5104 321.904 51.5104 322.372C51.5104 322.84 51.6844 323.218 52.0324 323.506C52.3804 323.782 52.8244 323.92 53.3644 323.92ZM64.4548 325.216C63.3028 325.216 62.3728 324.742 61.6648 323.794V328.312H59.7748V316.306H61.6648V317.494C62.3608 316.558 63.2908 316.09 64.4548 316.09C65.5948 316.09 66.5188 316.498 67.2268 317.314C67.9468 318.13 68.3068 319.24 68.3068 320.644C68.3068 322.048 67.9468 323.164 67.2268 323.992C66.5188 324.808 65.5948 325.216 64.4548 325.216ZM63.8968 323.542C64.6408 323.542 65.2348 323.272 65.6788 322.732C66.1228 322.192 66.3448 321.496 66.3448 320.644C66.3448 319.792 66.1228 319.102 65.6788 318.574C65.2348 318.034 64.6408 317.764 63.8968 317.764C63.4648 317.764 63.0388 317.878 62.6188 318.106C62.1988 318.334 61.8808 318.61 61.6648 318.934V322.372C61.8808 322.696 62.1988 322.972 62.6188 323.2C63.0388 323.428 63.4648 323.542 63.8968 323.542ZM74.141 325.216C72.821 325.216 71.741 324.79 70.901 323.938C70.061 323.074 69.641 321.976 69.641 320.644C69.641 319.324 70.061 318.238 70.901 317.386C71.741 316.522 72.821 316.09 74.141 316.09C75.593 316.09 76.703 316.606 77.471 317.638L76.229 318.79C75.749 318.106 75.083 317.764 74.231 317.764C73.439 317.764 72.803 318.034 72.323 318.574C71.843 319.102 71.603 319.792 71.603 320.644C71.603 321.496 71.843 322.192 72.323 322.732C72.803 323.272 73.439 323.542 74.231 323.542C75.059 323.542 75.725 323.2 76.229 322.516L77.471 323.668C76.703 324.7 75.593 325.216 74.141 325.216ZM86.9043 325H85.0143V319.528C85.0143 318.892 84.8583 318.442 84.5463 318.178C84.2463 317.902 83.8143 317.764 83.2503 317.764C82.8063 317.764 82.3863 317.878 81.9903 318.106C81.5943 318.334 81.2703 318.61 81.0183 318.934V325H79.1283V312.994H81.0183V317.494C81.3423 317.11 81.7743 316.78 82.3143 316.504C82.8663 316.228 83.4603 316.09 84.0963 316.09C85.9683 316.09 86.9043 317.008 86.9043 318.844V325ZM96.5588 325H94.6688V324.064C93.9968 324.832 93.0608 325.216 91.8608 325.216C91.0688 325.216 90.3668 324.964 89.7548 324.46C89.1428 323.944 88.8368 323.236 88.8368 322.336C88.8368 321.412 89.1368 320.71 89.7368 320.23C90.3488 319.75 91.0568 319.51 91.8608 319.51C93.0968 319.51 94.0328 319.882 94.6688 320.626V319.33C94.6688 318.826 94.4828 318.43 94.1108 318.142C93.7388 317.854 93.2468 317.71 92.6348 317.71C91.6628 317.71 90.8048 318.076 90.0608 318.808L89.2868 317.494C90.2708 316.558 91.4888 316.09 92.9408 316.09C94.0088 316.09 94.8788 316.342 95.5508 316.846C96.2228 317.35 96.5588 318.148 96.5588 319.24V325ZM92.5988 323.92C93.5468 323.92 94.2368 323.62 94.6688 323.02V321.706C94.2368 321.106 93.5468 320.806 92.5988 320.806C92.0588 320.806 91.6148 320.95 91.2668 321.238C90.9188 321.526 90.7448 321.904 90.7448 322.372C90.7448 322.84 90.9188 323.218 91.2668 323.506C91.6148 323.782 92.0588 323.92 92.5988 323.92ZM101.619 325.216C100.887 325.216 100.329 325.024 99.9452 324.64C99.5732 324.256 99.3872 323.704 99.3872 322.984V317.962H97.9472V316.306H99.3872V313.93H101.277V316.306H103.041V317.962H101.277V322.516C101.277 322.828 101.349 323.08 101.493 323.272C101.637 323.452 101.841 323.542 102.105 323.542C102.489 323.542 102.771 323.44 102.951 323.236L103.401 324.658C103.005 325.03 102.411 325.216 101.619 325.216ZM113.538 325.216C111.474 325.216 109.848 324.58 108.66 323.308L109.83 321.688C110.862 322.792 112.128 323.344 113.628 323.344C114.432 323.344 115.032 323.182 115.428 322.858C115.836 322.534 116.04 322.15 116.04 321.706C116.04 321.25 115.8 320.89 115.32 320.626C114.84 320.35 114.258 320.134 113.574 319.978C112.89 319.822 112.2 319.636 111.504 319.42C110.82 319.204 110.238 318.838 109.758 318.322C109.278 317.806 109.038 317.14 109.038 316.324C109.038 315.316 109.44 314.482 110.244 313.822C111.06 313.15 112.116 312.814 113.412 312.814C115.26 312.814 116.76 313.372 117.912 314.488L116.706 316.054C115.794 315.142 114.636 314.686 113.232 314.686C112.608 314.686 112.11 314.824 111.738 315.1C111.378 315.364 111.198 315.724 111.198 316.18C111.198 316.48 111.324 316.732 111.576 316.936C111.84 317.14 112.176 317.308 112.584 317.44C112.992 317.56 113.442 317.68 113.934 317.8C114.438 317.92 114.936 318.07 115.428 318.25C115.932 318.418 116.388 318.628 116.796 318.88C117.204 319.132 117.534 319.48 117.786 319.924C118.05 320.368 118.182 320.896 118.182 321.508C118.182 322.588 117.792 323.476 117.012 324.172C116.232 324.868 115.074 325.216 113.538 325.216ZM122.414 325.216C121.682 325.216 121.124 325.024 120.74 324.64C120.368 324.256 120.182 323.704 120.182 322.984V317.962H118.742V316.306H120.182V313.93H122.072V316.306H123.836V317.962H122.072V322.516C122.072 322.828 122.144 323.08 122.288 323.272C122.432 323.452 122.636 323.542 122.9 323.542C123.284 323.542 123.566 323.44 123.746 323.236L124.196 324.658C123.8 325.03 123.206 325.216 122.414 325.216ZM129.476 325.216C128.132 325.216 127.052 324.778 126.236 323.902C125.42 323.014 125.012 321.928 125.012 320.644C125.012 319.36 125.42 318.28 126.236 317.404C127.052 316.528 128.132 316.09 129.476 316.09C130.832 316.09 131.918 316.528 132.734 317.404C133.55 318.28 133.958 319.36 133.958 320.644C133.958 321.94 133.55 323.026 132.734 323.902C131.918 324.778 130.832 325.216 129.476 325.216ZM129.476 323.542C130.256 323.542 130.868 323.266 131.312 322.714C131.768 322.15 131.996 321.46 131.996 320.644C131.996 319.84 131.768 319.162 131.312 318.61C130.868 318.046 130.256 317.764 129.476 317.764C128.708 317.764 128.096 318.046 127.64 318.61C127.196 319.162 126.974 319.84 126.974 320.644C126.974 321.46 127.196 322.15 127.64 322.714C128.096 323.266 128.708 323.542 129.476 323.542ZM137.76 325H135.87V316.306H137.76V317.584C138.096 317.152 138.516 316.798 139.02 316.522C139.524 316.246 140.046 316.108 140.586 316.108V317.98C140.418 317.944 140.22 317.926 139.992 317.926C139.596 317.926 139.17 318.046 138.714 318.286C138.27 318.514 137.952 318.778 137.76 319.078V325ZM143.047 315.244C142.735 315.244 142.459 315.13 142.219 314.902C141.991 314.674 141.877 314.398 141.877 314.074C141.877 313.75 141.991 313.474 142.219 313.246C142.459 313.018 142.735 312.904 143.047 312.904C143.371 312.904 143.647 313.018 143.875 313.246C144.103 313.474 144.217 313.75 144.217 314.074C144.217 314.398 144.103 314.674 143.875 314.902C143.647 315.13 143.371 315.244 143.047 315.244ZM144.001 325H142.111V316.306H144.001V325ZM150.467 325.216C149.147 325.216 148.055 324.796 147.191 323.956C146.339 323.104 145.913 322 145.913 320.644C145.913 319.372 146.327 318.298 147.155 317.422C147.995 316.534 149.051 316.09 150.323 316.09C151.607 316.09 152.639 316.534 153.419 317.422C154.211 318.31 154.607 319.444 154.607 320.824V321.274H147.893C147.965 321.958 148.247 322.528 148.739 322.984C149.231 323.44 149.873 323.668 150.665 323.668C151.109 323.668 151.553 323.584 151.997 323.416C152.453 323.248 152.831 323.014 153.131 322.714L153.995 323.956C153.119 324.796 151.943 325.216 150.467 325.216ZM152.771 319.942C152.747 319.342 152.525 318.808 152.105 318.34C151.697 317.872 151.103 317.638 150.323 317.638C149.579 317.638 148.997 317.872 148.577 318.34C148.157 318.796 147.923 319.33 147.875 319.942H152.771ZM159.442 325.216C157.882 325.216 156.64 324.766 155.716 323.866L156.58 322.498C156.904 322.834 157.342 323.122 157.894 323.362C158.446 323.602 158.992 323.722 159.532 323.722C160.084 323.722 160.504 323.614 160.792 323.398C161.092 323.182 161.242 322.9 161.242 322.552C161.242 322.24 161.062 322 160.702 321.832C160.342 321.652 159.904 321.514 159.388 321.418C158.872 321.31 158.356 321.184 157.84 321.04C157.324 320.884 156.886 320.614 156.526 320.23C156.166 319.846 155.986 319.348 155.986 318.736C155.986 317.992 156.292 317.368 156.904 316.864C157.516 316.348 158.35 316.09 159.406 316.09C160.738 316.09 161.866 316.498 162.79 317.314L161.998 318.646C161.722 318.334 161.356 318.082 160.9 317.89C160.444 317.698 159.952 317.602 159.424 317.602C158.932 317.602 158.536 317.704 158.236 317.908C157.948 318.1 157.804 318.352 157.804 318.664C157.804 318.904 157.93 319.102 158.182 319.258C158.446 319.402 158.77 319.51 159.154 319.582C159.55 319.654 159.976 319.756 160.432 319.888C160.888 320.008 161.308 320.152 161.692 320.32C162.088 320.488 162.412 320.764 162.664 321.148C162.928 321.52 163.06 321.976 163.06 322.516C163.06 323.308 162.742 323.956 162.106 324.46C161.47 324.964 160.582 325.216 159.442 325.216ZM180.439 325H178.045L177.163 322.696H171.655L170.773 325H168.379L173.095 312.994H175.723L180.439 325ZM176.569 320.842L174.409 315.118L172.249 320.842H176.569ZM189.707 325H187.817V323.812C187.097 324.748 186.167 325.216 185.027 325.216C183.887 325.216 182.957 324.808 182.237 323.992C181.517 323.176 181.157 322.066 181.157 320.662C181.157 319.27 181.517 318.16 182.237 317.332C182.957 316.504 183.887 316.09 185.027 316.09C186.167 316.09 187.097 316.564 187.817 317.512V312.994H189.707V325ZM185.567 323.542C186.011 323.542 186.443 323.434 186.863 323.218C187.283 323.002 187.601 322.726 187.817 322.39V318.934C187.601 318.598 187.283 318.322 186.863 318.106C186.443 317.878 186.011 317.764 185.567 317.764C184.823 317.764 184.229 318.034 183.785 318.574C183.341 319.114 183.119 319.81 183.119 320.662C183.119 321.514 183.341 322.21 183.785 322.75C184.229 323.278 184.823 323.542 185.567 323.542Z" fill="white"/>
<path d="M31.384 369H29.278V356.994H37.504V358.848H31.384V361.962H37.378V363.816H31.384V369ZM46.5314 369H44.6414V368.064C43.9694 368.832 43.0334 369.216 41.8334 369.216C41.0414 369.216 40.3394 368.964 39.7274 368.46C39.1154 367.944 38.8094 367.236 38.8094 366.336C38.8094 365.412 39.1094 364.71 39.7094 364.23C40.3214 363.75 41.0294 363.51 41.8334 363.51C43.0694 363.51 44.0054 363.882 44.6414 364.626V363.33C44.6414 362.826 44.4554 362.43 44.0834 362.142C43.7114 361.854 43.2194 361.71 42.6074 361.71C41.6354 361.71 40.7774 362.076 40.0334 362.808L39.2594 361.494C40.2434 360.558 41.4614 360.09 42.9134 360.09C43.9814 360.09 44.8514 360.342 45.5234 360.846C46.1954 361.35 46.5314 362.148 46.5314 363.24V369ZM42.5714 367.92C43.5194 367.92 44.2094 367.62 44.6414 367.02V365.706C44.2094 365.106 43.5194 364.806 42.5714 364.806C42.0314 364.806 41.5874 364.95 41.2394 365.238C40.8914 365.526 40.7174 365.904 40.7174 366.372C40.7174 366.84 40.8914 367.218 41.2394 367.506C41.5874 367.782 42.0314 367.92 42.5714 367.92ZM52.9418 369.216C51.6218 369.216 50.5418 368.79 49.7018 367.938C48.8618 367.074 48.4418 365.976 48.4418 364.644C48.4418 363.324 48.8618 362.238 49.7018 361.386C50.5418 360.522 51.6218 360.09 52.9418 360.09C54.3938 360.09 55.5038 360.606 56.2718 361.638L55.0298 362.79C54.5498 362.106 53.8838 361.764 53.0318 361.764C52.2398 361.764 51.6038 362.034 51.1238 362.574C50.6438 363.102 50.4038 363.792 50.4038 364.644C50.4038 365.496 50.6438 366.192 51.1238 366.732C51.6038 367.272 52.2398 367.542 53.0318 367.542C53.8598 367.542 54.5258 367.2 55.0298 366.516L56.2718 367.668C55.5038 368.7 54.3938 369.216 52.9418 369.216ZM61.9431 369.216C60.6231 369.216 59.5311 368.796 58.6671 367.956C57.8151 367.104 57.3891 366 57.3891 364.644C57.3891 363.372 57.8031 362.298 58.6311 361.422C59.4711 360.534 60.5271 360.09 61.7991 360.09C63.0831 360.09 64.1151 360.534 64.8951 361.422C65.6871 362.31 66.0831 363.444 66.0831 364.824V365.274H59.3691C59.4411 365.958 59.7231 366.528 60.2151 366.984C60.7071 367.44 61.3491 367.668 62.1411 367.668C62.5851 367.668 63.0291 367.584 63.4731 367.416C63.9291 367.248 64.3071 367.014 64.6071 366.714L65.4711 367.956C64.5951 368.796 63.4191 369.216 61.9431 369.216ZM64.2471 363.942C64.2231 363.342 64.0011 362.808 63.5811 362.34C63.1731 361.872 62.5791 361.638 61.7991 361.638C61.0551 361.638 60.4731 361.872 60.0531 362.34C59.6331 362.796 59.3991 363.33 59.3511 363.942H64.2471ZM69.8386 366.39C70.0426 366.714 70.3546 366.99 70.7746 367.218C71.2066 367.434 71.6386 367.542 72.0706 367.542C72.8146 367.542 73.4086 367.278 73.8526 366.75C74.3086 366.21 74.5366 365.514 74.5366 364.662C74.5366 363.81 74.3086 363.114 73.8526 362.574C73.4086 362.034 72.8146 361.764 72.0706 361.764C71.6386 361.764 71.2126 361.878 70.7926 362.106C70.3726 362.334 70.0546 362.616 69.8386 362.952V366.39ZM69.8386 369H67.9486V356.994H69.8386V361.512C70.5466 360.564 71.4766 360.09 72.6286 360.09C73.7566 360.09 74.6806 360.51 75.4006 361.35C76.1206 362.178 76.4806 363.282 76.4806 364.662C76.4806 366.066 76.1206 367.176 75.4006 367.992C74.6806 368.808 73.7566 369.216 72.6286 369.216C71.4886 369.216 70.5586 368.748 69.8386 367.812V369ZM82.3316 369.216C80.9876 369.216 79.9076 368.778 79.0916 367.902C78.2756 367.014 77.8676 365.928 77.8676 364.644C77.8676 363.36 78.2756 362.28 79.0916 361.404C79.9076 360.528 80.9876 360.09 82.3316 360.09C83.6876 360.09 84.7736 360.528 85.5896 361.404C86.4056 362.28 86.8136 363.36 86.8136 364.644C86.8136 365.94 86.4056 367.026 85.5896 367.902C84.7736 368.778 83.6876 369.216 82.3316 369.216ZM82.3316 367.542C83.1116 367.542 83.7236 367.266 84.1676 366.714C84.6236 366.15 84.8516 365.46 84.8516 364.644C84.8516 363.84 84.6236 363.162 84.1676 362.61C83.7236 362.046 83.1116 361.764 82.3316 361.764C81.5636 361.764 80.9516 362.046 80.4956 362.61C80.0516 363.162 79.8296 363.84 79.8296 364.644C79.8296 365.46 80.0516 366.15 80.4956 366.714C80.9516 367.266 81.5636 367.542 82.3316 367.542ZM92.65 369.216C91.306 369.216 90.226 368.778 89.41 367.902C88.594 367.014 88.186 365.928 88.186 364.644C88.186 363.36 88.594 362.28 89.41 361.404C90.226 360.528 91.306 360.09 92.65 360.09C94.006 360.09 95.092 360.528 95.908 361.404C96.724 362.28 97.132 363.36 97.132 364.644C97.132 365.94 96.724 367.026 95.908 367.902C95.092 368.778 94.006 369.216 92.65 369.216ZM92.65 367.542C93.43 367.542 94.042 367.266 94.486 366.714C94.942 366.15 95.17 365.46 95.17 364.644C95.17 363.84 94.942 363.162 94.486 362.61C94.042 362.046 93.43 361.764 92.65 361.764C91.882 361.764 91.27 362.046 90.814 362.61C90.37 363.162 90.148 363.84 90.148 364.644C90.148 365.46 90.37 366.15 90.814 366.714C91.27 367.266 91.882 367.542 92.65 367.542ZM107.18 369H104.804L102.14 365.418L100.934 366.66V369H99.0443V356.994H100.934V364.5L104.768 360.306H107.108L103.49 364.248L107.18 369ZM115.302 369H113.196V356.994H115.302V369ZM125.558 369H123.668V363.564C123.668 362.364 123.086 361.764 121.922 361.764C121.466 361.764 121.04 361.878 120.644 362.106C120.248 362.334 119.93 362.61 119.69 362.934V369H117.8V360.306H119.69V361.494C120.014 361.11 120.446 360.78 120.986 360.504C121.526 360.228 122.114 360.09 122.75 360.09C123.674 360.09 124.37 360.33 124.838 360.81C125.318 361.29 125.558 361.98 125.558 362.88V369ZM131.649 365.454H127.329V363.834H131.649V365.454ZM135.57 369H133.464V356.994H141.69V358.848H135.57V361.962H141.564V363.816H135.57V369ZM147.531 369.216C146.211 369.216 145.119 368.796 144.255 367.956C143.403 367.104 142.977 366 142.977 364.644C142.977 363.372 143.391 362.298 144.219 361.422C145.059 360.534 146.115 360.09 147.387 360.09C148.671 360.09 149.703 360.534 150.483 361.422C151.275 362.31 151.671 363.444 151.671 364.824V365.274H144.957C145.029 365.958 145.311 366.528 145.803 366.984C146.295 367.44 146.937 367.668 147.729 367.668C148.173 367.668 148.617 367.584 149.061 367.416C149.517 367.248 149.895 367.014 150.195 366.714L151.059 367.956C150.183 368.796 149.007 369.216 147.531 369.216ZM149.835 363.942C149.811 363.342 149.589 362.808 149.169 362.34C148.761 361.872 148.167 361.638 147.387 361.638C146.643 361.638 146.061 361.872 145.641 362.34C145.221 362.796 144.987 363.33 144.939 363.942H149.835ZM157.551 369.216C156.231 369.216 155.139 368.796 154.275 367.956C153.423 367.104 152.997 366 152.997 364.644C152.997 363.372 153.411 362.298 154.239 361.422C155.079 360.534 156.135 360.09 157.407 360.09C158.691 360.09 159.723 360.534 160.503 361.422C161.295 362.31 161.691 363.444 161.691 364.824V365.274H154.977C155.049 365.958 155.331 366.528 155.823 366.984C156.315 367.44 156.957 367.668 157.749 367.668C158.193 367.668 158.637 367.584 159.081 367.416C159.537 367.248 159.915 367.014 160.215 366.714L161.079 367.956C160.203 368.796 159.027 369.216 157.551 369.216ZM159.855 363.942C159.831 363.342 159.609 362.808 159.189 362.34C158.781 361.872 158.187 361.638 157.407 361.638C156.663 361.638 156.081 361.872 155.661 362.34C155.241 362.796 155.007 363.33 154.958 363.942H159.855ZM171.566 369H169.676V367.812C168.956 368.748 168.026 369.216 166.886 369.216C165.746 369.216 164.816 368.808 164.096 367.992C163.376 367.176 163.016 366.066 163.016 364.662C163.016 363.27 163.376 362.16 164.096 361.332C164.816 360.504 165.746 360.09 166.886 360.09C168.026 360.09 168.956 360.564 169.676 361.512V356.994H171.566V369ZM167.426 367.542C167.87 367.542 168.302 367.434 168.722 367.218C169.142 367.002 169.46 366.726 169.676 366.39V362.934C169.46 362.598 169.142 362.322 168.722 362.106C168.302 361.878 167.87 361.764 167.426 361.764C166.682 361.764 166.088 362.034 165.644 362.574C165.2 363.114 164.978 363.81 164.978 364.662C164.978 365.514 165.2 366.21 165.644 366.75C166.088 367.278 166.682 367.542 167.426 367.542ZM189.492 369H187.098L186.216 366.696H180.708L179.826 369H177.432L182.148 356.994H184.776L189.492 369ZM185.622 364.842L183.462 359.118L181.302 364.842H185.622ZM198.759 369H196.869V367.812C196.149 368.748 195.219 369.216 194.079 369.216C192.939 369.216 192.009 368.808 191.289 367.992C190.569 367.176 190.209 366.066 190.209 364.662C190.209 363.27 190.569 362.16 191.289 361.332C192.009 360.504 192.939 360.09 194.079 360.09C195.219 360.09 196.149 360.564 196.869 361.512V356.994H198.759V369ZM194.619 367.542C195.063 367.542 195.495 367.434 195.915 367.218C196.335 367.002 196.653 366.726 196.869 366.39V362.934C196.653 362.598 196.335 362.322 195.915 362.106C195.495 361.878 195.063 361.764 194.619 361.764C193.875 361.764 193.281 362.034 192.837 362.574C192.393 363.114 192.171 363.81 192.171 364.662C192.171 365.514 192.393 366.21 192.837 366.75C193.281 367.278 193.875 367.542 194.619 367.542Z" fill="white"/>
<path d="M41.752 412H39.646V403.09L35.956 412H35.056L31.384 403.09V412H29.278V399.994H32.248L35.506 407.896L38.782 399.994H41.752V412ZM51.4533 412H49.5633V411.064C48.8913 411.832 47.9553 412.216 46.7553 412.216C45.9633 412.216 45.2613 411.964 44.6493 411.46C44.0373 410.944 43.7313 410.236 43.7313 409.336C43.7313 408.412 44.0313 407.71 44.6313 407.23C45.2433 406.75 45.9513 406.51 46.7553 406.51C47.9913 406.51 48.9273 406.882 49.5633 407.626V406.33C49.5633 405.826 49.3773 405.43 49.0053 405.142C48.6333 404.854 48.1413 404.71 47.5293 404.71C46.5573 404.71 45.6993 405.076 44.9553 405.808L44.1813 404.494C45.1653 403.558 46.3833 403.09 47.8353 403.09C48.9033 403.09 49.7733 403.342 50.4453 403.846C51.1173 404.35 51.4533 405.148 51.4533 406.24V412ZM47.4933 410.92C48.4413 410.92 49.1313 410.62 49.5633 410.02V408.706C49.1313 408.106 48.4413 407.806 47.4933 407.806C46.9533 407.806 46.5093 407.95 46.1613 408.238C45.8133 408.526 45.6393 408.904 45.6393 409.372C45.6393 409.84 45.8133 410.218 46.1613 410.506C46.5093 410.782 46.9533 410.92 47.4933 410.92ZM54.8397 402.244C54.5277 402.244 54.2517 402.13 54.0117 401.902C53.7837 401.674 53.6697 401.398 53.6697 401.074C53.6697 400.75 53.7837 400.474 54.0117 400.246C54.2517 400.018 54.5277 399.904 54.8397 399.904C55.1637 399.904 55.4397 400.018 55.6677 400.246C55.8957 400.474 56.0097 400.75 56.0097 401.074C56.0097 401.398 55.8957 401.674 55.6677 401.902C55.4397 402.13 55.1637 402.244 54.8397 402.244ZM55.7937 412H53.9037V403.306H55.7937V412ZM60.1355 412H58.2455V399.994H60.1355V412ZM66.5473 412.216C65.2273 412.216 64.1473 411.79 63.3073 410.938C62.4673 410.074 62.0473 408.976 62.0473 407.644C62.0473 406.324 62.4673 405.238 63.3073 404.386C64.1473 403.522 65.2273 403.09 66.5473 403.09C67.9993 403.09 69.1093 403.606 69.8773 404.638L68.6353 405.79C68.1553 405.106 67.4893 404.764 66.6373 404.764C65.8453 404.764 65.2093 405.034 64.7293 405.574C64.2493 406.102 64.0093 406.792 64.0093 407.644C64.0093 408.496 64.2493 409.192 64.7293 409.732C65.2093 410.272 65.8453 410.542 66.6373 410.542C67.4653 410.542 68.1313 410.2 68.6353 409.516L69.8773 410.668C69.1093 411.7 67.9993 412.216 66.5473 412.216ZM79.3105 412H77.4205V406.528C77.4205 405.892 77.2645 405.442 76.9525 405.178C76.6525 404.902 76.2205 404.764 75.6565 404.764C75.2125 404.764 74.7925 404.878 74.3965 405.106C74.0005 405.334 73.6765 405.61 73.4245 405.934V412H71.5345V399.994H73.4245V404.494C73.7485 404.11 74.1805 403.78 74.7205 403.504C75.2725 403.228 75.8665 403.09 76.5025 403.09C78.3745 403.09 79.3105 404.008 79.3105 405.844V412ZM82.701 402.244C82.389 402.244 82.113 402.13 81.873 401.902C81.645 401.674 81.531 401.398 81.531 401.074C81.531 400.75 81.645 400.474 81.873 400.246C82.113 400.018 82.389 399.904 82.701 399.904C83.025 399.904 83.301 400.018 83.529 400.246C83.757 400.474 83.871 400.75 83.871 401.074C83.871 401.398 83.757 401.674 83.529 401.902C83.301 402.13 83.025 402.244 82.701 402.244ZM83.655 412H81.765V403.306H83.655V412ZM98.6528 412H96.7628V406.33C96.7628 405.286 96.2888 404.764 95.3408 404.764C94.9448 404.764 94.5608 404.878 94.1888 405.106C93.8168 405.334 93.5288 405.604 93.3248 405.916V412H91.4348V406.33C91.4348 405.286 90.9548 404.764 89.9948 404.764C89.6108 404.764 89.2328 404.878 88.8608 405.106C88.5008 405.334 88.2128 405.61 87.9968 405.934V412H86.1068V403.306H87.9968V404.494C88.2128 404.17 88.5848 403.858 89.1128 403.558C89.6528 403.246 90.2228 403.09 90.8228 403.09C92.0828 403.09 92.8748 403.624 93.1988 404.692C93.4748 404.26 93.8828 403.888 94.4228 403.576C94.9628 403.252 95.5388 403.09 96.1508 403.09C97.8188 403.09 98.6528 403.966 98.6528 405.718V412ZM105.781 412.216C104.629 412.216 103.699 411.742 102.991 410.794V415.312H101.101V403.306H102.991V404.494C103.687 403.558 104.617 403.09 105.781 403.09C106.921 403.09 107.845 403.498 108.553 404.314C109.273 405.13 109.633 406.24 109.633 407.644C109.633 409.048 109.273 410.164 108.553 410.992C107.845 411.808 106.921 412.216 105.781 412.216ZM105.223 410.542C105.967 410.542 106.561 410.272 107.005 409.732C107.449 409.192 107.671 408.496 107.671 407.644C107.671 406.792 107.449 406.102 107.005 405.574C106.561 405.034 105.967 404.764 105.223 404.764C104.791 404.764 104.365 404.878 103.945 405.106C103.525 405.334 103.207 405.61 102.991 405.934V409.372C103.207 409.696 103.525 409.972 103.945 410.2C104.365 410.428 104.791 410.542 105.223 410.542ZM124.41 412H116.184V399.994H124.41V401.848H118.29V404.962H124.284V406.816H118.29V410.146H124.41V412ZM139.065 412H137.175V406.33C137.175 405.286 136.701 404.764 135.753 404.764C135.357 404.764 134.973 404.878 134.601 405.106C134.229 405.334 133.941 405.604 133.737 405.916V412H131.847V406.33C131.847 405.286 131.367 404.764 130.407 404.764C130.023 404.764 129.645 404.878 129.273 405.106C128.913 405.334 128.625 405.61 128.409 405.934V412H126.519V403.306H128.409V404.494C128.625 404.17 128.997 403.858 129.525 403.558C130.065 403.246 130.635 403.09 131.235 403.09C132.495 403.09 133.287 403.624 133.611 404.692C133.887 404.26 134.295 403.888 134.835 403.576C135.375 403.252 135.951 403.09 136.563 403.09C138.231 403.09 139.065 403.966 139.065 405.718V412ZM148.713 412H146.823V411.064C146.151 411.832 145.215 412.216 144.015 412.216C143.223 412.216 142.521 411.964 141.909 411.46C141.297 410.944 140.991 410.236 140.991 409.336C140.991 408.412 141.291 407.71 141.891 407.23C142.503 406.75 143.211 406.51 144.015 406.51C145.251 406.51 146.187 406.882 146.823 407.626V406.33C146.823 405.826 146.637 405.43 146.265 405.142C145.893 404.854 145.401 404.71 144.789 404.71C143.817 404.71 142.959 405.076 142.215 405.808L141.441 404.494C142.425 403.558 143.643 403.09 145.095 403.09C146.163 403.09 147.033 403.342 147.705 403.846C148.377 404.35 148.713 405.148 148.713 406.24V412ZM144.753 410.92C145.701 410.92 146.391 410.62 146.823 410.02V408.706C146.391 408.106 145.701 407.806 144.753 407.806C144.213 407.806 143.769 407.95 143.421 408.238C143.073 408.526 142.899 408.904 142.899 409.372C142.899 409.84 143.073 410.218 143.421 410.506C143.769 410.782 144.213 410.92 144.753 410.92ZM152.099 402.244C151.787 402.244 151.511 402.13 151.271 401.902C151.043 401.674 150.929 401.398 150.929 401.074C150.929 400.75 151.043 400.474 151.271 400.246C151.511 400.018 151.787 399.904 152.099 399.904C152.423 399.904 152.699 400.018 152.927 400.246C153.155 400.474 153.269 400.75 153.269 401.074C153.269 401.398 153.155 401.674 152.927 401.902C152.699 402.13 152.423 402.244 152.099 402.244ZM153.053 412H151.163V403.306H153.053V412ZM157.395 412H155.505V399.994H157.395V412Z" fill="white"/>
<path d="M383.59 282.168C385.256 282.168 386.558 281.216 386.558 279.186V272.662H385.396V279.172C385.396 280.334 384.668 281.132 383.52 281.132C382.708 281.132 382.162 280.698 381.756 280.208L381.154 281.09C381.798 281.846 382.596 282.168 383.59 282.168ZM394.309 282V275.238H393.259V280.208C392.867 280.754 392.083 281.23 391.257 281.23C390.347 281.23 389.745 280.88 389.745 279.69V275.238H388.695V280.012C388.695 281.482 389.437 282.168 390.851 282.168C391.859 282.168 392.741 281.636 393.259 281.048V282H394.309ZM402.019 282V277.254C402.019 275.784 401.277 275.07 399.863 275.07C398.855 275.07 397.931 275.658 397.455 276.218V275.238H396.405V282H397.455V277.058C397.847 276.512 398.631 276.008 399.457 276.008C400.367 276.008 400.969 276.386 400.969 277.576V282H402.019ZM407.168 282.168C408.274 282.168 409.184 281.804 409.856 281.132L409.352 280.446C408.82 280.992 408.036 281.3 407.266 281.3C405.81 281.3 404.914 280.236 404.83 278.962H410.304V278.696C410.304 276.666 409.1 275.07 407.056 275.07C405.124 275.07 403.724 276.652 403.724 278.612C403.724 280.726 405.166 282.168 407.168 282.168ZM409.268 278.192H404.83C404.886 277.156 405.6 275.938 407.042 275.938C408.582 275.938 409.254 277.184 409.268 278.192ZM418.218 282V272.662H417.196L414.858 275.07L415.558 275.784L417.056 274.202V282H418.218ZM422.501 282.168C424.251 282.168 425.161 281.258 425.161 280.124C425.161 277.492 420.975 278.472 420.975 276.988C420.975 276.386 421.549 275.924 422.473 275.924C423.341 275.924 424.083 276.288 424.489 276.778L424.979 276.05C424.433 275.504 423.621 275.07 422.473 275.07C420.863 275.07 419.953 275.966 419.953 277.016C419.953 279.522 424.139 278.514 424.139 280.152C424.139 280.824 423.579 281.314 422.543 281.314C421.619 281.314 420.765 280.866 420.317 280.348L419.771 281.104C420.457 281.832 421.395 282.168 422.501 282.168ZM428.574 282.168C429.19 282.168 429.568 281.986 429.834 281.734L429.526 280.95C429.386 281.104 429.106 281.23 428.812 281.23C428.35 281.23 428.126 280.866 428.126 280.362V276.162H429.498V275.238H428.126V273.39H427.076V275.238H425.956V276.162H427.076V280.586C427.076 281.594 427.58 282.168 428.574 282.168Z" fill="white"/>
<path d="M383.59 326.168C385.256 326.168 386.558 325.216 386.558 323.186V316.662H385.396V323.172C385.396 324.334 384.668 325.132 383.52 325.132C382.708 325.132 382.162 324.698 381.756 324.208L381.154 325.09C381.798 325.846 382.596 326.168 383.59 326.168ZM394.309 326V319.238H393.259V324.208C392.867 324.754 392.083 325.23 391.257 325.23C390.347 325.23 389.745 324.88 389.745 323.69V319.238H388.695V324.012C388.695 325.482 389.437 326.168 390.851 326.168C391.859 326.168 392.741 325.636 393.259 325.048V326H394.309ZM402.019 326V321.254C402.019 319.784 401.277 319.07 399.863 319.07C398.855 319.07 397.931 319.658 397.455 320.218V319.238H396.405V326H397.455V321.058C397.847 320.512 398.631 320.008 399.457 320.008C400.367 320.008 400.969 320.386 400.969 321.576V326H402.019ZM407.168 326.168C408.274 326.168 409.184 325.804 409.856 325.132L409.352 324.446C408.82 324.992 408.036 325.3 407.266 325.3C405.81 325.3 404.914 324.236 404.83 322.962H410.304V322.696C410.304 320.666 409.1 319.07 407.056 319.07C405.124 319.07 403.724 320.652 403.724 322.612C403.724 324.726 405.166 326.168 407.168 326.168ZM409.268 322.192H404.83C404.886 321.156 405.6 319.938 407.042 319.938C408.582 319.938 409.254 321.184 409.268 322.192ZM420.612 326V323.634H421.928V322.612H420.612V316.662H419.016L415.012 322.668V323.634H419.45V326H420.612ZM419.45 322.612H416.174L419.45 317.74V322.612ZM425.129 326.168C425.745 326.168 426.123 325.986 426.389 325.734L426.081 324.95C425.941 325.104 425.661 325.23 425.367 325.23C424.905 325.23 424.681 324.866 424.681 324.362V320.162H426.053V319.238H424.681V317.39H423.631V319.238H422.511V320.162H423.631V324.586C423.631 325.594 424.135 326.168 425.129 326.168ZM433.164 326V321.226C433.164 319.756 432.422 319.07 431.008 319.07C429.986 319.07 429.062 319.658 428.586 320.218V316.662H427.536V326H428.586V321.058C428.992 320.512 429.776 320.008 430.588 320.008C431.498 320.008 432.114 320.358 432.114 321.548V326H433.164Z" fill="white"/>
<path d="M383.59 372.168C385.256 372.168 386.558 371.216 386.558 369.186V362.662H385.396V369.172C385.396 370.334 384.668 371.132 383.52 371.132C382.708 371.132 382.162 370.698 381.756 370.208L381.154 371.09C381.798 371.846 382.596 372.168 383.59 372.168ZM394.309 372V365.238H393.259V370.208C392.867 370.754 392.083 371.23 391.257 371.23C390.347 371.23 389.745 370.88 389.745 369.69V365.238H388.695V370.012C388.695 371.482 389.437 372.168 390.851 372.168C391.859 372.168 392.741 371.636 393.259 371.048V372H394.309ZM402.019 372V367.254C402.019 365.784 401.277 365.07 399.863 365.07C398.855 365.07 397.931 365.658 397.455 366.218V365.238H396.405V372H397.455V367.058C397.847 366.512 398.631 366.008 399.457 366.008C400.367 366.008 400.969 366.386 400.969 367.576V372H402.019ZM407.168 372.168C408.274 372.168 409.184 371.804 409.856 371.132L409.352 370.446C408.82 370.992 408.036 371.3 407.266 371.3C405.81 371.3 404.914 370.236 404.83 368.962H410.304V368.696C410.304 366.666 409.1 365.07 407.056 365.07C405.124 365.07 403.724 366.652 403.724 368.612C403.724 370.726 405.166 372.168 407.168 372.168ZM409.268 368.192H404.83C404.886 367.156 405.6 365.938 407.042 365.938C408.582 365.938 409.254 367.184 409.268 368.192ZM418.778 372.168C420.654 372.168 422.096 370.992 422.096 369.088C422.096 367.17 420.682 366.106 419.128 366.106C418.19 366.106 417.392 366.498 416.944 366.946V363.698H421.494V362.662H415.782V367.702L416.636 367.996C417.266 367.38 417.966 367.114 418.792 367.114C420.052 367.114 420.934 367.898 420.934 369.13C420.934 370.264 420.052 371.132 418.778 371.132C417.63 371.132 416.818 370.684 416.202 369.9L415.488 370.67C416.188 371.594 417.196 372.168 418.778 372.168ZM425.58 372.168C426.196 372.168 426.574 371.986 426.84 371.734L426.532 370.95C426.392 371.104 426.112 371.23 425.818 371.23C425.356 371.23 425.132 370.866 425.132 370.362V366.162H426.504V365.238H425.132V363.39H424.082V365.238H422.962V366.162H424.082V370.586C424.082 371.594 424.586 372.168 425.58 372.168ZM433.616 372V367.226C433.616 365.756 432.874 365.07 431.46 365.07C430.438 365.07 429.514 365.658 429.038 366.218V362.662H427.988V372H429.038V367.058C429.444 366.512 430.228 366.008 431.04 366.008C431.95 366.008 432.566 366.358 432.566 367.548V372H433.616Z" fill="white"/>
<path d="M383.59 412.168C385.256 412.168 386.558 411.216 386.558 409.186V402.662H385.396V409.172C385.396 410.334 384.668 411.132 383.52 411.132C382.708 411.132 382.162 410.698 381.756 410.208L381.154 411.09C381.798 411.846 382.596 412.168 383.59 412.168ZM394.309 412V405.238H393.259V410.208C392.867 410.754 392.083 411.23 391.257 411.23C390.347 411.23 389.745 410.88 389.745 409.69V405.238H388.695V410.012C388.695 411.482 389.437 412.168 390.851 412.168C391.859 412.168 392.741 411.636 393.259 411.048V412H394.309ZM402.019 412V407.254C402.019 405.784 401.277 405.07 399.863 405.07C398.855 405.07 397.931 405.658 397.455 406.218V405.238H396.405V412H397.455V407.058C397.847 406.512 398.631 406.008 399.457 406.008C400.367 406.008 400.969 406.386 400.969 407.576V412H402.019ZM407.168 412.168C408.274 412.168 409.184 411.804 409.856 411.132L409.352 410.446C408.82 410.992 408.036 411.3 407.266 411.3C405.81 411.3 404.914 410.236 404.83 408.962H410.304V408.696C410.304 406.666 409.1 405.07 407.056 405.07C405.124 405.07 403.724 406.652 403.724 408.612C403.724 410.726 405.166 412.168 407.168 412.168ZM409.268 408.192H404.83C404.886 407.156 405.6 405.938 407.042 405.938C408.582 405.938 409.254 407.184 409.268 408.192ZM418.33 412.154C420.948 412.154 422.124 409.858 422.124 407.338C422.124 404.79 421.13 402.508 418.512 402.508C416.482 402.508 415.25 403.95 415.25 405.56C415.25 407.548 416.636 408.542 418.316 408.542C419.506 408.542 420.542 407.73 420.948 407.086C420.962 407.212 420.962 407.338 420.962 407.464C420.962 409.228 420.22 411.118 418.33 411.118C417.364 411.118 416.804 410.726 416.328 410.166L415.74 411.034C416.328 411.706 417.14 412.154 418.33 412.154ZM418.582 407.534C417.378 407.534 416.426 406.89 416.426 405.518C416.426 404.636 417.14 403.544 418.568 403.544C420.192 403.544 420.808 404.986 420.906 406.148C420.416 406.974 419.506 407.534 418.582 407.534ZM425.594 412.168C426.21 412.168 426.588 411.986 426.854 411.734L426.546 410.95C426.406 411.104 426.126 411.23 425.832 411.23C425.37 411.23 425.146 410.866 425.146 410.362V406.162H426.518V405.238H425.146V403.39H424.096V405.238H422.976V406.162H424.096V410.586C424.096 411.594 424.6 412.168 425.594 412.168ZM433.629 412V407.226C433.629 405.756 432.887 405.07 431.473 405.07C430.451 405.07 429.527 405.658 429.051 406.218V402.662H428.001V412H429.051V407.058C429.457 406.512 430.241 406.008 431.053 406.008C431.963 406.008 432.579 406.358 432.579 407.548V412H433.629Z" fill="white"/>
<path d="M383.59 456.168C385.256 456.168 386.558 455.216 386.558 453.186V446.662H385.396V453.172C385.396 454.334 384.668 455.132 383.52 455.132C382.708 455.132 382.162 454.698 381.756 454.208L381.154 455.09C381.798 455.846 382.596 456.168 383.59 456.168ZM394.309 456V449.238H393.259V454.208C392.867 454.754 392.083 455.23 391.257 455.23C390.347 455.23 389.745 454.88 389.745 453.69V449.238H388.695V454.012C388.695 455.482 389.437 456.168 390.851 456.168C391.859 456.168 392.741 455.636 393.259 455.048V456H394.309ZM402.019 456V451.254C402.019 449.784 401.277 449.07 399.863 449.07C398.855 449.07 397.931 449.658 397.455 450.218V449.238H396.405V456H397.455V451.058C397.847 450.512 398.631 450.008 399.457 450.008C400.367 450.008 400.969 450.386 400.969 451.576V456H402.019ZM407.168 456.168C408.274 456.168 409.184 455.804 409.856 455.132L409.352 454.446C408.82 454.992 408.036 455.3 407.266 455.3C405.81 455.3 404.914 454.236 404.83 452.962H410.304V452.696C410.304 450.666 409.1 449.07 407.056 449.07C405.124 449.07 403.724 450.652 403.724 452.612C403.724 454.726 405.166 456.168 407.168 456.168ZM409.268 452.192H404.83C404.886 451.156 405.6 449.938 407.042 449.938C408.582 449.938 409.254 451.184 409.268 452.192ZM418.218 456V446.662H417.196L414.858 449.07L415.558 449.784L417.056 448.202V456H418.218ZM422.963 456V446.662H421.941L419.603 449.07L420.303 449.784L421.801 448.202V456H422.963ZM426.811 456.168C427.427 456.168 427.805 455.986 428.071 455.734L427.763 454.95C427.623 455.104 427.343 455.23 427.049 455.23C426.587 455.23 426.363 454.866 426.363 454.362V450.162H427.735V449.238H426.363V447.39H425.313V449.238H424.193V450.162H425.313V454.586C425.313 455.594 425.817 456.168 426.811 456.168ZM434.846 456V451.226C434.846 449.756 434.104 449.07 432.69 449.07C431.668 449.07 430.744 449.658 430.268 450.218V446.662H429.218V456H430.268V451.058C430.674 450.512 431.458 450.008 432.27 450.008C433.18 450.008 433.796 450.358 433.796 451.548V456H434.846Z" fill="white"/>
<path d="M383.59 499.168C385.256 499.168 386.558 498.216 386.558 496.186V489.662H385.396V496.172C385.396 497.334 384.668 498.132 383.52 498.132C382.708 498.132 382.162 497.698 381.756 497.208L381.154 498.09C381.798 498.846 382.596 499.168 383.59 499.168ZM394.309 499V492.238H393.259V497.208C392.867 497.754 392.083 498.23 391.257 498.23C390.347 498.23 389.745 497.88 389.745 496.69V492.238H388.695V497.012C388.695 498.482 389.437 499.168 390.851 499.168C391.859 499.168 392.741 498.636 393.259 498.048V499H394.309ZM402.019 499V494.254C402.019 492.784 401.277 492.07 399.863 492.07C398.855 492.07 397.931 492.658 397.455 493.218V492.238H396.405V499H397.455V494.058C397.847 493.512 398.631 493.008 399.457 493.008C400.367 493.008 400.969 493.386 400.969 494.576V499H402.019ZM407.168 499.168C408.274 499.168 409.184 498.804 409.856 498.132L409.352 497.446C408.82 497.992 408.036 498.3 407.266 498.3C405.81 498.3 404.914 497.236 404.83 495.962H410.304V495.696C410.304 493.666 409.1 492.07 407.056 492.07C405.124 492.07 403.724 493.652 403.724 495.612C403.724 497.726 405.166 499.168 407.168 499.168ZM409.268 495.192H404.83C404.886 494.156 405.6 492.938 407.042 492.938C408.582 492.938 409.254 494.184 409.268 495.192ZM418.218 499V489.662H417.196L414.858 492.07L415.558 492.784L417.056 491.202V499H418.218ZM422.963 499V489.662H421.941L419.603 492.07L420.303 492.784L421.801 491.202V499H422.963ZM426.811 499.168C427.427 499.168 427.805 498.986 428.071 498.734L427.763 497.95C427.623 498.104 427.343 498.23 427.049 498.23C426.587 498.23 426.363 497.866 426.363 497.362V493.162H427.735V492.238H426.363V490.39H425.313V492.238H424.193V493.162H425.313V497.586C425.313 498.594 425.817 499.168 426.811 499.168ZM434.846 499V494.226C434.846 492.756 434.104 492.07 432.69 492.07C431.668 492.07 430.744 492.658 430.268 493.218V489.662H429.218V499H430.268V494.058C430.674 493.512 431.458 493.008 432.27 493.008C433.18 493.008 433.796 493.358 433.796 494.548V499H434.846Z" fill="white"/>
<defs>
<linearGradient id="paint0_linear" x1="-4.41656e-06" y1="567.114" x2="532.057" y2="331.172" gradientUnits="userSpaceOnUse">
<stop stop-color="#265DE3"/>
<stop offset="1" stop-color="#AF71FF"/>
</linearGradient>
<linearGradient id="paint1_linear" x1="-4.41656e-06" y1="567.114" x2="532.057" y2="331.172" gradientUnits="userSpaceOnUse">
<stop stop-color="#5A83E7"/>
<stop offset="1" stop-color="#CAA0FF"/>
</linearGradient>
</defs>
</svg>
