<svg width="594" height="26" viewBox="0 0 594 26" fill="none" xmlns="http://www.w3.org/2000/svg">
<path d="M8.514 17.38L0.522 13.654V12.304L8.514 8.56V10.018L1.944 12.988L8.514 15.94V17.38ZM13.2292 19.216C11.6692 19.216 10.4272 18.766 9.50316 17.866L10.3672 16.498C10.6912 16.834 11.1292 17.122 11.6812 17.362C12.2332 17.602 12.7792 17.722 13.3192 17.722C13.8712 17.722 14.2912 17.614 14.5792 17.398C14.8792 17.182 15.0292 16.9 15.0292 16.552C15.0292 16.24 14.8492 16 14.4892 15.832C14.1292 15.652 13.6912 15.514 13.1752 15.418C12.6592 15.31 12.1432 15.184 11.6272 15.04C11.1112 14.884 10.6732 14.614 10.3132 14.23C9.95316 13.846 9.77316 13.348 9.77316 12.736C9.77316 11.992 10.0792 11.368 10.6912 10.864C11.3032 10.348 12.1372 10.09 13.1932 10.09C14.5252 10.09 15.6532 10.498 16.5772 11.314L15.7852 12.646C15.5092 12.334 15.1432 12.082 14.6872 11.89C14.2312 11.698 13.7392 11.602 13.2112 11.602C12.7192 11.602 12.3232 11.704 12.0232 11.908C11.7352 12.1 11.5912 12.352 11.5912 12.664C11.5912 12.904 11.7172 13.102 11.9692 13.258C12.2332 13.402 12.5572 13.51 12.9412 13.582C13.3372 13.654 13.7632 13.756 14.2192 13.888C14.6752 14.008 15.0952 14.152 15.4792 14.32C15.8752 14.488 16.1992 14.764 16.4512 15.148C16.7152 15.52 16.8472 15.976 16.8472 16.516C16.8472 17.308 16.5292 17.956 15.8932 18.46C15.2572 18.964 14.3692 19.216 13.2292 19.216ZM22.7094 19.216C21.3894 19.216 20.3094 18.79 19.4694 17.938C18.6294 17.074 18.2094 15.976 18.2094 14.644C18.2094 13.324 18.6294 12.238 19.4694 11.386C20.3094 10.522 21.3894 10.09 22.7094 10.09C24.1614 10.09 25.2714 10.606 26.0394 11.638L24.7974 12.79C24.3174 12.106 23.6514 11.764 22.7994 11.764C22.0074 11.764 21.3714 12.034 20.8914 12.574C20.4114 13.102 20.1714 13.792 20.1714 14.644C20.1714 15.496 20.4114 16.192 20.8914 16.732C21.3714 17.272 22.0074 17.542 22.7994 17.542C23.6274 17.542 24.2934 17.2 24.7974 16.516L26.0394 17.668C25.2714 18.7 24.1614 19.216 22.7094 19.216ZM29.5867 19H27.6967V10.306H29.5867V11.584C29.9227 11.152 30.3427 10.798 30.8467 10.522C31.3507 10.246 31.8727 10.108 32.4127 10.108V11.98C32.2447 11.944 32.0467 11.926 31.8187 11.926C31.4227 11.926 30.9967 12.046 30.5407 12.286C30.0967 12.514 29.7787 12.778 29.5867 13.078V19ZM34.8729 9.244C34.5609 9.244 34.2849 9.13 34.0449 8.902C33.8169 8.674 33.7029 8.398 33.7029 8.074C33.7029 7.75 33.8169 7.474 34.0449 7.246C34.2849 7.018 34.5609 6.904 34.8729 6.904C35.1969 6.904 35.4729 7.018 35.7009 7.246C35.9289 7.474 36.0429 7.75 36.0429 8.074C36.0429 8.398 35.9289 8.674 35.7009 8.902C35.4729 9.13 35.1969 9.244 34.8729 9.244ZM35.8269 19H33.9369V10.306H35.8269V19ZM42.9587 19.216C41.8067 19.216 40.8767 18.742 40.1687 17.794V22.312H38.2787V10.306H40.1687V11.494C40.8647 10.558 41.7947 10.09 42.9587 10.09C44.0987 10.09 45.0227 10.498 45.7307 11.314C46.4507 12.13 46.8107 13.24 46.8107 14.644C46.8107 16.048 46.4507 17.164 45.7307 17.992C45.0227 18.808 44.0987 19.216 42.9587 19.216ZM42.4007 17.542C43.1447 17.542 43.7387 17.272 44.1827 16.732C44.6267 16.192 44.8487 15.496 44.8487 14.644C44.8487 13.792 44.6267 13.102 44.1827 12.574C43.7387 12.034 43.1447 11.764 42.4007 11.764C41.9687 11.764 41.5427 11.878 41.1227 12.106C40.7027 12.334 40.3847 12.61 40.1687 12.934V16.372C40.3847 16.696 40.7027 16.972 41.1227 17.2C41.5427 17.428 41.9687 17.542 42.4007 17.542ZM51.2949 19.216C50.5629 19.216 50.0049 19.024 49.6209 18.64C49.2489 18.256 49.0629 17.704 49.0629 16.984V11.962H47.6229V10.306H49.0629V7.93H50.9529V10.306H52.7169V11.962H50.9529V16.516C50.9529 16.828 51.0249 17.08 51.1689 17.272C51.3129 17.452 51.5169 17.542 51.7809 17.542C52.1649 17.542 52.4469 17.44 52.6269 17.236L53.0769 18.658C52.6809 19.03 52.0869 19.216 51.2949 19.216ZM486.832 13.654L478.84 17.38V15.94L485.392 12.988L478.84 10.018V8.56L486.832 12.304V13.654ZM500.491 17.38L492.499 13.654V12.304L500.491 8.56V10.018L493.921 12.988L500.491 15.94V17.38ZM502.416 19.36H501.012L505.278 6.634H506.682L502.416 19.36ZM510.883 19.216C509.323 19.216 508.081 18.766 507.157 17.866L508.021 16.498C508.345 16.834 508.783 17.122 509.335 17.362C509.887 17.602 510.433 17.722 510.973 17.722C511.525 17.722 511.945 17.614 512.233 17.398C512.533 17.182 512.683 16.9 512.683 16.552C512.683 16.24 512.503 16 512.143 15.832C511.783 15.652 511.345 15.514 510.829 15.418C510.313 15.31 509.797 15.184 509.281 15.04C508.765 14.884 508.327 14.614 507.967 14.23C507.607 13.846 507.427 13.348 507.427 12.736C507.427 11.992 507.733 11.368 508.345 10.864C508.957 10.348 509.791 10.09 510.847 10.09C512.179 10.09 513.307 10.498 514.231 11.314L513.439 12.646C513.163 12.334 512.797 12.082 512.341 11.89C511.885 11.698 511.393 11.602 510.865 11.602C510.373 11.602 509.977 11.704 509.677 11.908C509.389 12.1 509.245 12.352 509.245 12.664C509.245 12.904 509.371 13.102 509.623 13.258C509.887 13.402 510.211 13.51 510.595 13.582C510.991 13.654 511.417 13.756 511.873 13.888C512.329 14.008 512.749 14.152 513.133 14.32C513.529 14.488 513.853 14.764 514.105 15.148C514.369 15.52 514.501 15.976 514.501 16.516C514.501 17.308 514.183 17.956 513.547 18.46C512.911 18.964 512.023 19.216 510.883 19.216ZM520.364 19.216C519.044 19.216 517.964 18.79 517.124 17.938C516.284 17.074 515.864 15.976 515.864 14.644C515.864 13.324 516.284 12.238 517.124 11.386C517.964 10.522 519.044 10.09 520.364 10.09C521.816 10.09 522.926 10.606 523.694 11.638L522.452 12.79C521.972 12.106 521.306 11.764 520.454 11.764C519.662 11.764 519.026 12.034 518.546 12.574C518.066 13.102 517.826 13.792 517.826 14.644C517.826 15.496 518.066 16.192 518.546 16.732C519.026 17.272 519.662 17.542 520.454 17.542C521.282 17.542 521.948 17.2 522.452 16.516L523.694 17.668C522.926 18.7 521.816 19.216 520.364 19.216ZM527.241 19H525.351V10.306H527.241V11.584C527.577 11.152 527.997 10.798 528.501 10.522C529.005 10.246 529.527 10.108 530.067 10.108V11.98C529.899 11.944 529.701 11.926 529.473 11.926C529.077 11.926 528.651 12.046 528.195 12.286C527.751 12.514 527.433 12.778 527.241 13.078V19ZM532.527 9.244C532.215 9.244 531.939 9.13 531.699 8.902C531.471 8.674 531.357 8.398 531.357 8.074C531.357 7.75 531.471 7.474 531.699 7.246C531.939 7.018 532.215 6.904 532.527 6.904C532.851 6.904 533.127 7.018 533.355 7.246C533.583 7.474 533.697 7.75 533.697 8.074C533.697 8.398 533.583 8.674 533.355 8.902C533.127 9.13 532.851 9.244 532.527 9.244ZM533.481 19H531.591V10.306H533.481V19ZM540.613 19.216C539.461 19.216 538.531 18.742 537.823 17.794V22.312H535.933V10.306H537.823V11.494C538.519 10.558 539.449 10.09 540.613 10.09C541.753 10.09 542.677 10.498 543.385 11.314C544.105 12.13 544.465 13.24 544.465 14.644C544.465 16.048 544.105 17.164 543.385 17.992C542.677 18.808 541.753 19.216 540.613 19.216ZM540.055 17.542C540.799 17.542 541.393 17.272 541.837 16.732C542.281 16.192 542.503 15.496 542.503 14.644C542.503 13.792 542.281 13.102 541.837 12.574C541.393 12.034 540.799 11.764 540.055 11.764C539.623 11.764 539.197 11.878 538.777 12.106C538.357 12.334 538.039 12.61 537.823 12.934V16.372C538.039 16.696 538.357 16.972 538.777 17.2C539.197 17.428 539.623 17.542 540.055 17.542ZM548.949 19.216C548.217 19.216 547.659 19.024 547.275 18.64C546.903 18.256 546.717 17.704 546.717 16.984V11.962H545.277V10.306H546.717V7.93H548.607V10.306H550.371V11.962H548.607V16.516C548.607 16.828 548.679 17.08 548.823 17.272C548.967 17.452 549.171 17.542 549.435 17.542C549.819 17.542 550.101 17.44 550.281 17.236L550.731 18.658C550.335 19.03 549.741 19.216 548.949 19.216ZM559.377 13.654L551.385 17.38V15.94L557.937 12.988L551.385 10.018V8.56L559.377 12.304V13.654Z" fill="#D34F7F"/>
<path d="M94.6468 11.89H86.6548V10.666H94.6468V11.89ZM94.6468 15.31H86.6548V14.104H94.6468V15.31Z" fill="#61595D"/>
<path d="M66.6491 19.216C65.0891 19.216 63.8471 18.766 62.9231 17.866L63.7871 16.498C64.1111 16.834 64.5491 17.122 65.1011 17.362C65.6531 17.602 66.1991 17.722 66.7391 17.722C67.2911 17.722 67.7111 17.614 67.9991 17.398C68.2991 17.182 68.4491 16.9 68.4491 16.552C68.4491 16.24 68.2691 16 67.9091 15.832C67.5491 15.652 67.1111 15.514 66.5951 15.418C66.0791 15.31 65.5631 15.184 65.0471 15.04C64.5311 14.884 64.0931 14.614 63.7331 14.23C63.3731 13.846 63.1931 13.348 63.1931 12.736C63.1931 11.992 63.4991 11.368 64.1111 10.864C64.7231 10.348 65.5571 10.09 66.6131 10.09C67.9451 10.09 69.0731 10.498 69.9971 11.314L69.2051 12.646C68.9291 12.334 68.5631 12.082 68.1071 11.89C67.6511 11.698 67.1591 11.602 66.6311 11.602C66.1391 11.602 65.7431 11.704 65.4431 11.908C65.1551 12.1 65.0111 12.352 65.0111 12.664C65.0111 12.904 65.1371 13.102 65.3891 13.258C65.6531 13.402 65.9771 13.51 66.3611 13.582C66.7571 13.654 67.1831 13.756 67.6391 13.888C68.0951 14.008 68.5151 14.152 68.8991 14.32C69.2951 14.488 69.6191 14.764 69.8711 15.148C70.1351 15.52 70.2671 15.976 70.2671 16.516C70.2671 17.308 69.9491 17.956 69.3131 18.46C68.6771 18.964 67.7891 19.216 66.6491 19.216ZM74.0593 19H72.1693V10.306H74.0593V11.584C74.3953 11.152 74.8153 10.798 75.3193 10.522C75.8233 10.246 76.3453 10.108 76.8853 10.108V11.98C76.7173 11.944 76.5193 11.926 76.2913 11.926C75.8953 11.926 75.4693 12.046 75.0133 12.286C74.5693 12.514 74.2513 12.778 74.0593 13.078V19ZM82.3695 19.216C81.0495 19.216 79.9695 18.79 79.1295 17.938C78.2895 17.074 77.8695 15.976 77.8695 14.644C77.8695 13.324 78.2895 12.238 79.1295 11.386C79.9695 10.522 81.0495 10.09 82.3695 10.09C83.8215 10.09 84.9315 10.606 85.6995 11.638L84.4575 12.79C83.9775 12.106 83.3115 11.764 82.4595 11.764C81.6675 11.764 81.0315 12.034 80.5515 12.574C80.0715 13.102 79.8315 13.792 79.8315 14.644C79.8315 15.496 80.0715 16.192 80.5515 16.732C81.0315 17.272 81.6675 17.542 82.4595 17.542C83.2875 17.542 83.9535 17.2 84.4575 16.516L85.6995 17.668C84.9315 18.7 83.8215 19.216 82.3695 19.216Z" fill="#008A3A"/>
<path d="M97.526 11.962H96.662C96.242 9.442 96.032 8.08 96.032 7.876C96.032 7.588 96.134 7.342 96.338 7.138C96.542 6.922 96.794 6.814 97.094 6.814C97.382 6.814 97.628 6.922 97.832 7.138C98.048 7.342 98.156 7.588 98.156 7.876L97.526 11.962ZM100.496 11.962H99.65C99.23 9.442 99.02 8.08 99.02 7.876C99.02 7.588 99.122 7.342 99.326 7.138C99.53 6.922 99.782 6.814 100.082 6.814C100.37 6.814 100.616 6.922 100.82 7.138C101.024 7.342 101.126 7.588 101.126 7.876L100.496 11.962ZM110.988 19H109.098V13.528C109.098 12.892 108.942 12.442 108.63 12.178C108.33 11.902 107.898 11.764 107.334 11.764C106.89 11.764 106.47 11.878 106.074 12.106C105.678 12.334 105.354 12.61 105.102 12.934V19H103.212V6.994H105.102V11.494C105.426 11.11 105.858 10.78 106.398 10.504C106.95 10.228 107.544 10.09 108.18 10.09C110.052 10.09 110.988 11.008 110.988 12.844V19ZM116.053 19.216C115.321 19.216 114.763 19.024 114.379 18.64C114.007 18.256 113.821 17.704 113.821 16.984V11.962H112.381V10.306H113.821V7.93H115.711V10.306H117.475V11.962H115.711V16.516C115.711 16.828 115.783 17.08 115.927 17.272C116.071 17.452 116.275 17.542 116.539 17.542C116.923 17.542 117.205 17.44 117.385 17.236L117.835 18.658C117.439 19.03 116.845 19.216 116.053 19.216ZM121.801 19.216C121.069 19.216 120.511 19.024 120.127 18.64C119.755 18.256 119.569 17.704 119.569 16.984V11.962H118.129V10.306H119.569V7.93H121.459V10.306H123.223V11.962H121.459V16.516C121.459 16.828 121.531 17.08 121.675 17.272C121.819 17.452 122.023 17.542 122.287 17.542C122.671 17.542 122.953 17.44 123.133 17.236L123.583 18.658C123.187 19.03 122.593 19.216 121.801 19.216ZM129.619 19.216C128.467 19.216 127.537 18.742 126.829 17.794V22.312H124.939V10.306H126.829V11.494C127.525 10.558 128.455 10.09 129.619 10.09C130.759 10.09 131.683 10.498 132.391 11.314C133.111 12.13 133.471 13.24 133.471 14.644C133.471 16.048 133.111 17.164 132.391 17.992C131.683 18.808 130.759 19.216 129.619 19.216ZM129.061 17.542C129.805 17.542 130.399 17.272 130.843 16.732C131.287 16.192 131.509 15.496 131.509 14.644C131.509 13.792 131.287 13.102 130.843 12.574C130.399 12.034 129.805 11.764 129.061 11.764C128.629 11.764 128.203 11.878 127.783 12.106C127.363 12.334 127.045 12.61 126.829 12.934V16.372C127.045 16.696 127.363 16.972 127.783 17.2C128.203 17.428 128.629 17.542 129.061 17.542ZM138.315 19.216C136.755 19.216 135.513 18.766 134.589 17.866L135.453 16.498C135.777 16.834 136.215 17.122 136.767 17.362C137.319 17.602 137.865 17.722 138.405 17.722C138.957 17.722 139.377 17.614 139.665 17.398C139.965 17.182 140.115 16.9 140.115 16.552C140.115 16.24 139.935 16 139.575 15.832C139.215 15.652 138.777 15.514 138.261 15.418C137.745 15.31 137.229 15.184 136.713 15.04C136.197 14.884 135.759 14.614 135.399 14.23C135.039 13.846 134.859 13.348 134.859 12.736C134.859 11.992 135.165 11.368 135.777 10.864C136.389 10.348 137.223 10.09 138.279 10.09C139.611 10.09 140.739 10.498 141.663 11.314L140.871 12.646C140.595 12.334 140.229 12.082 139.773 11.89C139.317 11.698 138.825 11.602 138.297 11.602C137.805 11.602 137.409 11.704 137.109 11.908C136.821 12.1 136.677 12.352 136.677 12.664C136.677 12.904 136.803 13.102 137.055 13.258C137.319 13.402 137.643 13.51 138.027 13.582C138.423 13.654 138.849 13.756 139.305 13.888C139.761 14.008 140.181 14.152 140.565 14.32C140.961 14.488 141.285 14.764 141.537 15.148C141.801 15.52 141.933 15.976 141.933 16.516C141.933 17.308 141.615 17.956 140.979 18.46C140.343 18.964 139.455 19.216 138.315 19.216ZM145.689 12.322C145.437 12.574 145.143 12.7 144.807 12.7C144.471 12.7 144.177 12.574 143.925 12.322C143.673 12.07 143.547 11.776 143.547 11.44C143.547 11.104 143.673 10.81 143.925 10.558C144.177 10.306 144.471 10.18 144.807 10.18C145.143 10.18 145.437 10.306 145.689 10.558C145.941 10.81 146.067 11.104 146.067 11.44C146.067 11.776 145.941 12.07 145.689 12.322ZM145.689 18.838C145.437 19.078 145.143 19.198 144.807 19.198C144.471 19.198 144.177 19.078 143.925 18.838C143.673 18.586 143.547 18.286 143.547 17.938C143.547 17.59 143.673 17.296 143.925 17.056C144.177 16.804 144.471 16.678 144.807 16.678C145.143 16.678 145.437 16.804 145.689 17.056C145.941 17.296 146.067 17.59 146.067 17.938C146.067 18.286 145.941 18.586 145.689 18.838ZM148.427 19.36H147.023L151.289 6.634H152.693L148.427 19.36ZM154.105 19.36H152.701L156.967 6.634H158.371L154.105 19.36ZM163.617 19.216C162.297 19.216 161.205 18.796 160.341 17.956C159.489 17.104 159.063 16 159.063 14.644C159.063 13.372 159.477 12.298 160.305 11.422C161.145 10.534 162.201 10.09 163.473 10.09C164.757 10.09 165.789 10.534 166.569 11.422C167.361 12.31 167.757 13.444 167.757 14.824V15.274H161.043C161.115 15.958 161.397 16.528 161.889 16.984C162.381 17.44 163.023 17.668 163.815 17.668C164.259 17.668 164.703 17.584 165.147 17.416C165.603 17.248 165.981 17.014 166.281 16.714L167.145 17.956C166.269 18.796 165.093 19.216 163.617 19.216ZM165.921 13.942C165.897 13.342 165.675 12.808 165.255 12.34C164.847 11.872 164.253 11.638 163.473 11.638C162.729 11.638 162.147 11.872 161.727 12.34C161.307 12.796 161.073 13.33 161.025 13.942H165.921ZM177.38 19H175.49V13.564C175.49 12.364 174.908 11.764 173.744 11.764C173.288 11.764 172.862 11.878 172.466 12.106C172.07 12.334 171.752 12.61 171.512 12.934V19H169.622V10.306H171.512V11.494C171.836 11.11 172.268 10.78 172.808 10.504C173.348 10.228 173.936 10.09 174.572 10.09C175.496 10.09 176.192 10.33 176.66 10.81C177.14 11.29 177.38 11.98 177.38 12.88V19ZM183.363 22.528C181.887 22.528 180.675 22.096 179.727 21.232L180.609 19.864C181.257 20.608 182.175 20.98 183.363 20.98C184.083 20.98 184.689 20.788 185.181 20.404C185.685 20.032 185.937 19.438 185.937 18.622V17.578C185.193 18.538 184.263 19.018 183.147 19.018C182.007 19.018 181.077 18.622 180.357 17.83C179.649 17.038 179.295 15.946 179.295 14.554C179.295 13.174 179.649 12.088 180.357 11.296C181.077 10.492 182.007 10.09 183.147 10.09C184.287 10.09 185.217 10.564 185.937 11.512V10.306H187.827V18.55C187.827 19.294 187.695 19.936 187.431 20.476C187.179 21.028 186.831 21.442 186.387 21.718C185.943 22.006 185.469 22.21 184.965 22.33C184.473 22.462 183.939 22.528 183.363 22.528ZM183.705 17.344C184.137 17.344 184.563 17.23 184.983 17.002C185.403 16.774 185.721 16.498 185.937 16.174V12.934C185.721 12.61 185.403 12.334 184.983 12.106C184.563 11.878 184.137 11.764 183.705 11.764C182.961 11.764 182.367 12.022 181.923 12.538C181.479 13.042 181.257 13.714 181.257 14.554C181.257 15.394 181.479 16.072 181.923 16.588C182.367 17.092 182.961 17.344 183.705 17.344ZM191.213 9.244C190.901 9.244 190.625 9.13 190.385 8.902C190.157 8.674 190.043 8.398 190.043 8.074C190.043 7.75 190.157 7.474 190.385 7.246C190.625 7.018 190.901 6.904 191.213 6.904C191.537 6.904 191.813 7.018 192.041 7.246C192.269 7.474 192.383 7.75 192.383 8.074C192.383 8.398 192.269 8.674 192.041 8.902C191.813 9.13 191.537 9.244 191.213 9.244ZM192.167 19H190.277V10.306H192.167V19ZM202.377 19H200.487V13.564C200.487 12.364 199.905 11.764 198.741 11.764C198.285 11.764 197.859 11.878 197.463 12.106C197.067 12.334 196.749 12.61 196.509 12.934V19H194.619V10.306H196.509V11.494C196.833 11.11 197.265 10.78 197.805 10.504C198.345 10.228 198.933 10.09 199.569 10.09C200.493 10.09 201.189 10.33 201.657 10.81C202.137 11.29 202.377 11.98 202.377 12.88V19ZM208.845 19.216C207.525 19.216 206.433 18.796 205.569 17.956C204.717 17.104 204.291 16 204.291 14.644C204.291 13.372 204.705 12.298 205.533 11.422C206.373 10.534 207.429 10.09 208.701 10.09C209.985 10.09 211.017 10.534 211.797 11.422C212.589 12.31 212.985 13.444 212.985 14.824V15.274H206.271C206.343 15.958 206.625 16.528 207.117 16.984C207.609 17.44 208.251 17.668 209.043 17.668C209.487 17.668 209.931 17.584 210.375 17.416C210.831 17.248 211.209 17.014 211.509 16.714L212.373 17.956C211.497 18.796 210.321 19.216 208.845 19.216ZM211.149 13.942C211.125 13.342 210.903 12.808 210.483 12.34C210.075 11.872 209.481 11.638 208.701 11.638C207.957 11.638 207.375 11.872 206.955 12.34C206.535 12.796 206.301 13.33 206.253 13.942H211.149ZM216.617 18.838C216.365 19.078 216.071 19.198 215.735 19.198C215.399 19.198 215.105 19.078 214.853 18.838C214.601 18.586 214.475 18.286 214.475 17.938C214.475 17.59 214.601 17.296 214.853 17.056C215.105 16.804 215.399 16.678 215.735 16.678C216.071 16.678 216.365 16.804 216.617 17.056C216.869 17.296 216.995 17.59 216.995 17.938C216.995 18.286 216.869 18.586 216.617 18.838ZM221.065 16.39C221.269 16.714 221.581 16.99 222.001 17.218C222.433 17.434 222.865 17.542 223.297 17.542C224.041 17.542 224.635 17.278 225.079 16.75C225.535 16.21 225.763 15.514 225.763 14.662C225.763 13.81 225.535 13.114 225.079 12.574C224.635 12.034 224.041 11.764 223.297 11.764C222.865 11.764 222.439 11.878 222.019 12.106C221.599 12.334 221.281 12.616 221.065 12.952V16.39ZM221.065 19H219.175V6.994H221.065V11.512C221.773 10.564 222.703 10.09 223.855 10.09C224.983 10.09 225.907 10.51 226.627 11.35C227.347 12.178 227.707 13.282 227.707 14.662C227.707 16.066 227.347 17.176 226.627 17.992C225.907 18.808 224.983 19.216 223.855 19.216C222.715 19.216 221.785 18.748 221.065 17.812V19ZM236.834 19H234.944V18.064C234.272 18.832 233.336 19.216 232.136 19.216C231.344 19.216 230.642 18.964 230.03 18.46C229.418 17.944 229.112 17.236 229.112 16.336C229.112 15.412 229.412 14.71 230.012 14.23C230.624 13.75 231.332 13.51 232.136 13.51C233.372 13.51 234.308 13.882 234.944 14.626V13.33C234.944 12.826 234.758 12.43 234.386 12.142C234.014 11.854 233.522 11.71 232.91 11.71C231.938 11.71 231.08 12.076 230.336 12.808L229.562 11.494C230.546 10.558 231.764 10.09 233.216 10.09C234.284 10.09 235.154 10.342 235.826 10.846C236.498 11.35 236.834 12.148 236.834 13.24V19ZM232.874 17.92C233.822 17.92 234.512 17.62 234.944 17.02V15.706C234.512 15.106 233.822 14.806 232.874 14.806C232.334 14.806 231.89 14.95 231.542 15.238C231.194 15.526 231.02 15.904 231.02 16.372C231.02 16.84 231.194 17.218 231.542 17.506C231.89 17.782 232.334 17.92 232.874 17.92ZM247.043 19H245.153V13.564C245.153 12.364 244.571 11.764 243.407 11.764C242.951 11.764 242.525 11.878 242.129 12.106C241.733 12.334 241.415 12.61 241.175 12.934V19H239.285V10.306H241.175V11.494C241.499 11.11 241.931 10.78 242.471 10.504C243.011 10.228 243.599 10.09 244.235 10.09C245.159 10.09 245.855 10.33 246.323 10.81C246.803 11.29 247.043 11.98 247.043 12.88V19ZM256.697 19H254.807V18.064C254.135 18.832 253.199 19.216 251.999 19.216C251.207 19.216 250.505 18.964 249.893 18.46C249.281 17.944 248.975 17.236 248.975 16.336C248.975 15.412 249.275 14.71 249.875 14.23C250.487 13.75 251.195 13.51 251.999 13.51C253.235 13.51 254.171 13.882 254.807 14.626V13.33C254.807 12.826 254.621 12.43 254.249 12.142C253.877 11.854 253.385 11.71 252.773 11.71C251.801 11.71 250.943 12.076 250.199 12.808L249.425 11.494C250.409 10.558 251.627 10.09 253.079 10.09C254.147 10.09 255.017 10.342 255.689 10.846C256.361 11.35 256.697 12.148 256.697 13.24V19ZM252.737 17.92C253.685 17.92 254.375 17.62 254.807 17.02V15.706C254.375 15.106 253.685 14.806 252.737 14.806C252.197 14.806 251.753 14.95 251.405 15.238C251.057 15.526 250.883 15.904 250.883 16.372C250.883 16.84 251.057 17.218 251.405 17.506C251.753 17.782 252.197 17.92 252.737 17.92ZM261.038 16.39C261.242 16.714 261.554 16.99 261.974 17.218C262.406 17.434 262.838 17.542 263.27 17.542C264.014 17.542 264.608 17.278 265.052 16.75C265.508 16.21 265.736 15.514 265.736 14.662C265.736 13.81 265.508 13.114 265.052 12.574C264.608 12.034 264.014 11.764 263.27 11.764C262.838 11.764 262.412 11.878 261.992 12.106C261.572 12.334 261.254 12.616 261.038 12.952V16.39ZM261.038 19H259.148V6.994H261.038V11.512C261.746 10.564 262.676 10.09 263.828 10.09C264.956 10.09 265.88 10.51 266.6 11.35C267.32 12.178 267.68 13.282 267.68 14.662C267.68 16.066 267.32 17.176 266.6 17.992C265.88 18.808 264.956 19.216 263.828 19.216C262.688 19.216 261.758 18.748 261.038 17.812V19ZM273.531 19.216C272.187 19.216 271.107 18.778 270.291 17.902C269.475 17.014 269.067 15.928 269.067 14.644C269.067 13.36 269.475 12.28 270.291 11.404C271.107 10.528 272.187 10.09 273.531 10.09C274.887 10.09 275.973 10.528 276.789 11.404C277.605 12.28 278.013 13.36 278.013 14.644C278.013 15.94 277.605 17.026 276.789 17.902C275.973 18.778 274.887 19.216 273.531 19.216ZM273.531 17.542C274.311 17.542 274.923 17.266 275.367 16.714C275.823 16.15 276.051 15.46 276.051 14.644C276.051 13.84 275.823 13.162 275.367 12.61C274.923 12.046 274.311 11.764 273.531 11.764C272.763 11.764 272.151 12.046 271.695 12.61C271.251 13.162 271.029 13.84 271.029 14.644C271.029 15.46 271.251 16.15 271.695 16.714C272.151 17.266 272.763 17.542 273.531 17.542ZM281.691 18.838C281.439 19.078 281.145 19.198 280.809 19.198C280.473 19.198 280.179 19.078 279.927 18.838C279.675 18.586 279.549 18.286 279.549 17.938C279.549 17.59 279.675 17.296 279.927 17.056C280.179 16.804 280.473 16.678 280.809 16.678C281.145 16.678 281.439 16.804 281.691 17.056C281.943 17.296 282.069 17.59 282.069 17.938C282.069 18.286 281.943 18.586 281.691 18.838ZM285.185 9.244C284.873 9.244 284.597 9.13 284.357 8.902C284.129 8.674 284.015 8.398 284.015 8.074C284.015 7.75 284.129 7.474 284.357 7.246C284.597 7.018 284.873 6.904 285.185 6.904C285.509 6.904 285.785 7.018 286.013 7.246C286.241 7.474 286.355 7.75 286.355 8.074C286.355 8.398 286.241 8.674 286.013 8.902C285.785 9.13 285.509 9.244 285.185 9.244ZM286.139 19H284.249V10.306H286.139V19ZM292.515 19.216C291.171 19.216 290.091 18.778 289.275 17.902C288.459 17.014 288.051 15.928 288.051 14.644C288.051 13.36 288.459 12.28 289.275 11.404C290.091 10.528 291.171 10.09 292.515 10.09C293.871 10.09 294.957 10.528 295.773 11.404C296.589 12.28 296.997 13.36 296.997 14.644C296.997 15.94 296.589 17.026 295.773 17.902C294.957 18.778 293.871 19.216 292.515 19.216ZM292.515 17.542C293.295 17.542 293.907 17.266 294.351 16.714C294.807 16.15 295.035 15.46 295.035 14.644C295.035 13.84 294.807 13.162 294.351 12.61C293.907 12.046 293.295 11.764 292.515 11.764C291.747 11.764 291.135 12.046 290.679 12.61C290.235 13.162 290.013 13.84 290.013 14.644C290.013 15.46 290.235 16.15 290.679 16.714C291.135 17.266 291.747 17.542 292.515 17.542ZM299.09 19.36H297.686L301.952 6.634H303.356L299.09 19.36ZM308.601 19.216C307.281 19.216 306.189 18.796 305.325 17.956C304.473 17.104 304.047 16 304.047 14.644C304.047 13.372 304.461 12.298 305.289 11.422C306.129 10.534 307.185 10.09 308.457 10.09C309.741 10.09 310.773 10.534 311.553 11.422C312.345 12.31 312.741 13.444 312.741 14.824V15.274H306.027C306.099 15.958 306.381 16.528 306.873 16.984C307.365 17.44 308.007 17.668 308.799 17.668C309.243 17.668 309.687 17.584 310.131 17.416C310.587 17.248 310.965 17.014 311.265 16.714L312.129 17.956C311.253 18.796 310.077 19.216 308.601 19.216ZM310.905 13.942C310.881 13.342 310.659 12.808 310.239 12.34C309.831 11.872 309.237 11.638 308.457 11.638C307.713 11.638 307.131 11.872 306.711 12.34C306.291 12.796 306.057 13.33 306.009 13.942H310.905ZM327.153 19H325.263V13.33C325.263 12.286 324.789 11.764 323.841 11.764C323.445 11.764 323.061 11.878 322.689 12.106C322.317 12.334 322.029 12.604 321.825 12.916V19H319.935V13.33C319.935 12.286 319.455 11.764 318.495 11.764C318.111 11.764 317.733 11.878 317.361 12.106C317.001 12.334 316.713 12.61 316.497 12.934V19H314.607V10.306H316.497V11.494C316.713 11.17 317.085 10.858 317.613 10.558C318.153 10.246 318.723 10.09 319.323 10.09C320.583 10.09 321.375 10.624 321.699 11.692C321.975 11.26 322.383 10.888 322.923 10.576C323.463 10.252 324.039 10.09 324.651 10.09C326.319 10.09 327.153 10.966 327.153 12.718V19ZM331.491 16.39C331.695 16.714 332.007 16.99 332.427 17.218C332.859 17.434 333.291 17.542 333.723 17.542C334.467 17.542 335.061 17.278 335.505 16.75C335.961 16.21 336.189 15.514 336.189 14.662C336.189 13.81 335.961 13.114 335.505 12.574C335.061 12.034 334.467 11.764 333.723 11.764C333.291 11.764 332.865 11.878 332.445 12.106C332.025 12.334 331.707 12.616 331.491 12.952V16.39ZM331.491 19H329.601V6.994H331.491V11.512C332.199 10.564 333.129 10.09 334.281 10.09C335.409 10.09 336.333 10.51 337.053 11.35C337.773 12.178 338.133 13.282 338.133 14.662C338.133 16.066 337.773 17.176 337.053 17.992C336.333 18.808 335.409 19.216 334.281 19.216C333.141 19.216 332.211 18.748 331.491 17.812V19ZM344.074 19.216C342.754 19.216 341.662 18.796 340.798 17.956C339.946 17.104 339.52 16 339.52 14.644C339.52 13.372 339.934 12.298 340.762 11.422C341.602 10.534 342.658 10.09 343.93 10.09C345.214 10.09 346.246 10.534 347.026 11.422C347.818 12.31 348.214 13.444 348.214 14.824V15.274H341.5C341.572 15.958 341.854 16.528 342.346 16.984C342.838 17.44 343.48 17.668 344.272 17.668C344.716 17.668 345.16 17.584 345.604 17.416C346.06 17.248 346.438 17.014 346.738 16.714L347.602 17.956C346.726 18.796 345.55 19.216 344.074 19.216ZM346.378 13.942C346.354 13.342 346.132 12.808 345.712 12.34C345.304 11.872 344.71 11.638 343.93 11.638C343.186 11.638 342.604 11.872 342.184 12.34C341.764 12.796 341.53 13.33 341.482 13.942H346.378ZM358.089 19H356.199V17.812C355.479 18.748 354.549 19.216 353.409 19.216C352.269 19.216 351.339 18.808 350.619 17.992C349.899 17.176 349.539 16.066 349.539 14.662C349.539 13.27 349.899 12.16 350.619 11.332C351.339 10.504 352.269 10.09 353.409 10.09C354.549 10.09 355.479 10.564 356.199 11.512V6.994H358.089V19ZM353.949 17.542C354.393 17.542 354.825 17.434 355.245 17.218C355.665 17.002 355.983 16.726 356.199 16.39V12.934C355.983 12.598 355.665 12.322 355.245 12.106C354.825 11.878 354.393 11.764 353.949 11.764C353.205 11.764 352.611 12.034 352.167 12.574C351.723 13.114 351.501 13.81 351.501 14.662C351.501 15.514 351.723 16.21 352.167 16.75C352.611 17.278 353.205 17.542 353.949 17.542ZM368.548 19H366.658V17.812C365.938 18.748 365.008 19.216 363.868 19.216C362.728 19.216 361.798 18.808 361.078 17.992C360.358 17.176 359.998 16.066 359.998 14.662C359.998 13.27 360.358 12.16 361.078 11.332C361.798 10.504 362.728 10.09 363.868 10.09C365.008 10.09 365.938 10.564 366.658 11.512V6.994H368.548V19ZM364.408 17.542C364.852 17.542 365.284 17.434 365.704 17.218C366.124 17.002 366.442 16.726 366.658 16.39V12.934C366.442 12.598 366.124 12.322 365.704 12.106C365.284 11.878 364.852 11.764 364.408 11.764C363.664 11.764 363.07 12.034 362.626 12.574C362.182 13.114 361.96 13.81 361.96 14.662C361.96 15.514 362.182 16.21 362.626 16.75C363.07 17.278 363.664 17.542 364.408 17.542ZM378.197 19H376.307V18.064C375.635 18.832 374.699 19.216 373.499 19.216C372.707 19.216 372.005 18.964 371.393 18.46C370.781 17.944 370.475 17.236 370.475 16.336C370.475 15.412 370.775 14.71 371.375 14.23C371.987 13.75 372.695 13.51 373.499 13.51C374.735 13.51 375.671 13.882 376.307 14.626V13.33C376.307 12.826 376.121 12.43 375.749 12.142C375.377 11.854 374.885 11.71 374.273 11.71C373.301 11.71 372.443 12.076 371.699 12.808L370.925 11.494C371.909 10.558 373.127 10.09 374.579 10.09C375.647 10.09 376.517 10.342 377.189 10.846C377.861 11.35 378.197 12.148 378.197 13.24V19ZM374.237 17.92C375.185 17.92 375.875 17.62 376.307 17.02V15.706C375.875 15.106 375.185 14.806 374.237 14.806C373.697 14.806 373.253 14.95 372.905 15.238C372.557 15.526 372.383 15.904 372.383 16.372C372.383 16.84 372.557 17.218 372.905 17.506C373.253 17.782 373.697 17.92 374.237 17.92ZM382.538 16.39C382.742 16.714 383.054 16.99 383.474 17.218C383.906 17.434 384.338 17.542 384.77 17.542C385.514 17.542 386.108 17.278 386.552 16.75C387.008 16.21 387.236 15.514 387.236 14.662C387.236 13.81 387.008 13.114 386.552 12.574C386.108 12.034 385.514 11.764 384.77 11.764C384.338 11.764 383.912 11.878 383.492 12.106C383.072 12.334 382.754 12.616 382.538 12.952V16.39ZM382.538 19H380.648V6.994H382.538V11.512C383.246 10.564 384.176 10.09 385.328 10.09C386.456 10.09 387.38 10.51 388.1 11.35C388.82 12.178 389.18 13.282 389.18 14.662C389.18 16.066 388.82 17.176 388.1 17.992C387.38 18.808 386.456 19.216 385.328 19.216C384.188 19.216 383.258 18.748 382.538 17.812V19ZM392.997 19H391.107V6.994H392.997V19ZM399.463 19.216C398.143 19.216 397.051 18.796 396.187 17.956C395.335 17.104 394.909 16 394.909 14.644C394.909 13.372 395.323 12.298 396.151 11.422C396.991 10.534 398.047 10.09 399.319 10.09C400.603 10.09 401.635 10.534 402.415 11.422C403.207 12.31 403.603 13.444 403.603 14.824V15.274H396.889C396.961 15.958 397.243 16.528 397.735 16.984C398.227 17.44 398.869 17.668 399.661 17.668C400.105 17.668 400.549 17.584 400.993 17.416C401.449 17.248 401.827 17.014 402.127 16.714L402.991 17.956C402.115 18.796 400.939 19.216 399.463 19.216ZM401.767 13.942C401.743 13.342 401.521 12.808 401.101 12.34C400.693 11.872 400.099 11.638 399.319 11.638C398.575 11.638 397.993 11.872 397.573 12.34C397.153 12.796 396.919 13.33 396.871 13.942H401.767ZM405.648 19.36H404.244L408.51 6.634H409.914L405.648 19.36ZM412.082 9.244C411.77 9.244 411.494 9.13 411.254 8.902C411.026 8.674 410.912 8.398 410.912 8.074C410.912 7.75 411.026 7.474 411.254 7.246C411.494 7.018 411.77 6.904 412.082 6.904C412.406 6.904 412.682 7.018 412.91 7.246C413.138 7.474 413.252 7.75 413.252 8.074C413.252 8.398 413.138 8.674 412.91 8.902C412.682 9.13 412.406 9.244 412.082 9.244ZM413.036 19H411.146V10.306H413.036V19ZM423.246 19H421.356V13.564C421.356 12.364 420.774 11.764 419.61 11.764C419.154 11.764 418.728 11.878 418.332 12.106C417.936 12.334 417.618 12.61 417.378 12.934V19H415.488V10.306H417.378V11.494C417.702 11.11 418.134 10.78 418.674 10.504C419.214 10.228 419.802 10.09 420.438 10.09C421.362 10.09 422.058 10.33 422.526 10.81C423.006 11.29 423.246 11.98 423.246 12.88V19ZM433.711 19H431.821V17.812C431.101 18.748 430.171 19.216 429.031 19.216C427.891 19.216 426.961 18.808 426.241 17.992C425.521 17.176 425.161 16.066 425.161 14.662C425.161 13.27 425.521 12.16 426.241 11.332C426.961 10.504 427.891 10.09 429.031 10.09C430.171 10.09 431.101 10.564 431.821 11.512V6.994H433.711V19ZM429.571 17.542C430.015 17.542 430.447 17.434 430.867 17.218C431.287 17.002 431.605 16.726 431.821 16.39V12.934C431.605 12.598 431.287 12.322 430.867 12.106C430.447 11.878 430.015 11.764 429.571 11.764C428.827 11.764 428.233 12.034 427.789 12.574C427.345 13.114 427.123 13.81 427.123 14.662C427.123 15.514 427.345 16.21 427.789 16.75C428.233 17.278 428.827 17.542 429.571 17.542ZM440.174 19.216C438.854 19.216 437.762 18.796 436.898 17.956C436.046 17.104 435.62 16 435.62 14.644C435.62 13.372 436.034 12.298 436.862 11.422C437.702 10.534 438.758 10.09 440.03 10.09C441.314 10.09 442.346 10.534 443.126 11.422C443.918 12.31 444.314 13.444 444.314 14.824V15.274H437.6C437.672 15.958 437.954 16.528 438.446 16.984C438.938 17.44 439.58 17.668 440.372 17.668C440.816 17.668 441.26 17.584 441.704 17.416C442.16 17.248 442.538 17.014 442.838 16.714L443.702 17.956C442.826 18.796 441.65 19.216 440.174 19.216ZM442.478 13.942C442.454 13.342 442.232 12.808 441.812 12.34C441.404 11.872 440.81 11.638 440.03 11.638C439.286 11.638 438.704 11.872 438.284 12.34C437.864 12.796 437.63 13.33 437.582 13.942H442.478ZM453.793 19H451.669L449.419 15.796L447.151 19H445.045L448.231 14.536L445.225 10.306H447.349L449.419 13.258L451.471 10.306H453.595L450.589 14.536L453.793 19ZM456.963 18.838C456.711 19.078 456.417 19.198 456.081 19.198C455.745 19.198 455.451 19.078 455.199 18.838C454.947 18.586 454.821 18.286 454.821 17.938C454.821 17.59 454.947 17.296 455.199 17.056C455.451 16.804 455.745 16.678 456.081 16.678C456.417 16.678 456.711 16.804 456.963 17.056C457.215 17.296 457.341 17.59 457.341 17.938C457.341 18.286 457.215 18.586 456.963 18.838ZM461.178 9.244C460.866 9.244 460.59 9.13 460.35 8.902C460.122 8.674 460.008 8.398 460.008 8.074C460.008 7.75 460.122 7.474 460.35 7.246C460.59 7.018 460.866 6.904 461.178 6.904C461.502 6.904 461.778 7.018 462.006 7.246C462.234 7.474 462.348 7.75 462.348 8.074C462.348 8.398 462.234 8.674 462.006 8.902C461.778 9.13 461.502 9.244 461.178 9.244ZM459.252 22.528C458.772 22.528 458.388 22.48 458.1 22.384C457.812 22.288 457.512 22.126 457.2 21.898L457.758 20.494C458.118 20.818 458.52 20.98 458.964 20.98C459.348 20.98 459.654 20.854 459.882 20.602C460.122 20.362 460.242 19.996 460.242 19.504V10.306H462.132V19.504C462.132 20.452 461.886 21.19 461.394 21.718C460.902 22.258 460.188 22.528 459.252 22.528ZM467.553 19.216C465.993 19.216 464.751 18.766 463.827 17.866L464.691 16.498C465.015 16.834 465.453 17.122 466.005 17.362C466.557 17.602 467.103 17.722 467.643 17.722C468.195 17.722 468.615 17.614 468.903 17.398C469.203 17.182 469.353 16.9 469.353 16.552C469.353 16.24 469.173 16 468.813 15.832C468.453 15.652 468.015 15.514 467.499 15.418C466.983 15.31 466.467 15.184 465.951 15.04C465.435 14.884 464.997 14.614 464.637 14.23C464.277 13.846 464.097 13.348 464.097 12.736C464.097 11.992 464.403 11.368 465.015 10.864C465.627 10.348 466.461 10.09 467.517 10.09C468.849 10.09 469.977 10.498 470.901 11.314L470.109 12.646C469.833 12.334 469.467 12.082 469.011 11.89C468.555 11.698 468.063 11.602 467.535 11.602C467.043 11.602 466.647 11.704 466.347 11.908C466.059 12.1 465.915 12.352 465.915 12.664C465.915 12.904 466.041 13.102 466.293 13.258C466.557 13.402 466.881 13.51 467.265 13.582C467.661 13.654 468.087 13.756 468.543 13.888C468.999 14.008 469.419 14.152 469.803 14.32C470.199 14.488 470.523 14.764 470.775 15.148C471.039 15.52 471.171 15.976 471.171 16.516C471.171 17.308 470.853 17.956 470.217 18.46C469.581 18.964 468.693 19.216 467.553 19.216ZM473.856 11.962H472.992C472.572 9.442 472.362 8.08 472.362 7.876C472.362 7.588 472.464 7.342 472.668 7.138C472.872 6.922 473.124 6.814 473.424 6.814C473.712 6.814 473.958 6.922 474.162 7.138C474.378 7.342 474.486 7.588 474.486 7.876L473.856 11.962ZM476.826 11.962H475.98C475.56 9.442 475.35 8.08 475.35 7.876C475.35 7.588 475.452 7.342 475.656 7.138C475.86 6.922 476.112 6.814 476.412 6.814C476.7 6.814 476.946 6.922 477.15 7.138C477.354 7.342 477.456 7.588 477.456 7.876L476.826 11.962Z" fill="#AD6B31"/>
</svg>
