<svg width="60" height="60" viewBox="0 0 60 60" fill="none" xmlns="http://www.w3.org/2000/svg">
<circle cx="30" cy="30" r="30" fill="white" fill-opacity="0.3"/>
<path d="M27.2024 21.5783C28.3879 18.5261 28.9807 17 30 17C31.0193 17 31.6121 18.5261 32.7976 21.5783L32.8528 21.7204C33.5226 23.4448 33.8575 24.307 34.54 24.831C35.2225 25.355 36.1184 25.4379 37.9103 25.6036L38.2342 25.6336C41.1668 25.9048 42.6332 26.0404 42.9469 27.0039C43.2607 27.9673 42.1717 28.9904 39.9938 31.0366L39.267 31.7196C38.1645 32.7554 37.6132 33.2734 37.3563 33.9522C37.3084 34.0788 37.2685 34.2085 37.237 34.3405C37.0682 35.0482 37.2296 35.7995 37.5524 37.3022L37.6529 37.77C38.2462 40.5317 38.5429 41.9125 38.0249 42.5081C37.8314 42.7307 37.5798 42.8909 37.3004 42.9697C36.5525 43.1804 35.4908 42.2869 33.3673 40.5C31.9729 39.3266 31.2757 38.7399 30.4753 38.6079C30.1604 38.556 29.8396 38.556 29.5247 38.6079C28.7243 38.7399 28.0271 39.3266 26.6327 40.5C24.5092 42.2869 23.4475 43.1804 22.6996 42.9697C22.4202 42.8909 22.1686 42.7307 21.9751 42.5081C21.4571 41.9125 21.7538 40.5317 22.3471 37.77L22.4476 37.3022C22.7704 35.7995 22.9318 35.0482 22.763 34.3405C22.7315 34.2085 22.6916 34.0788 22.6437 33.9522C22.3868 33.2734 21.8355 32.7554 20.733 31.7196L20.0062 31.0366C17.8283 28.9904 16.7393 27.9673 17.0531 27.0039C17.3668 26.0404 18.8331 25.9048 21.7658 25.6336L22.0897 25.6036C23.8816 25.4379 24.7775 25.355 25.46 24.831C26.1425 24.307 26.4774 23.4448 27.1472 21.7204L27.2024 21.5783Z" stroke="white" stroke-width="2"/>
</svg>
