<svg width="20" height="19" viewBox="0 0 20 19" fill="none" xmlns="http://www.w3.org/2000/svg">
<path d="M8.67079 3.99351C9.44594 1.99784 9.83352 1 10.5 1C11.1665 1 11.5541 1.99784 12.3292 3.99351L12.3653 4.08644C12.8032 5.2139 13.0222 5.77762 13.4684 6.12027C13.9147 6.46291 14.5005 6.51709 15.6721 6.62545L15.8839 6.64504C17.8014 6.82238 18.7601 6.91105 18.9653 7.54098C19.1704 8.17091 18.4584 8.83988 17.0344 10.1778L16.5592 10.6243C15.8383 11.3016 15.4779 11.6403 15.3099 12.0841C15.2786 12.1669 15.2525 12.2517 15.2319 12.338C15.1215 12.8007 15.227 13.292 15.4381 14.2745L15.5038 14.5804C15.8918 16.3861 16.0857 17.2889 15.7471 17.6784C15.6205 17.8239 15.456 17.9287 15.2733 17.9802C14.7843 18.1179 14.0901 17.5337 12.7017 16.3654C11.79 15.5981 11.3341 15.2145 10.8108 15.1282C10.6049 15.0943 10.3951 15.0943 10.1892 15.1282C9.66588 15.2145 9.21003 15.5981 8.29832 16.3654C6.90988 17.5337 6.21566 18.1179 5.72669 17.9802C5.54397 17.9287 5.37949 17.8239 5.25294 17.6784C4.91426 17.2889 5.10823 16.3861 5.49617 14.5804L5.56188 14.2745C5.77297 13.292 5.87851 12.8007 5.76809 12.338C5.74749 12.2517 5.72144 12.1669 5.6901 12.0841C5.52211 11.6403 5.16168 11.3016 4.44083 10.6243L3.96557 10.1778C2.54156 8.83988 1.82956 8.17091 2.03471 7.54098C2.23986 6.91105 3.1986 6.82238 5.11608 6.64504L5.32789 6.62545C6.4995 6.51709 7.0853 6.46291 7.53156 6.12027C7.97781 5.77762 8.19677 5.2139 8.6347 4.08644L8.67079 3.99351Z" stroke="white" stroke-width="2"/>
</svg>
