<svg xmlns="http://www.w3.org/2000/svg" xmlns:xlink="http://www.w3.org/1999/xlink" width="619" height="561" fill="none" xmlns:v="https://vecta.io/nano"><g fill="#fff"><rect width="619" height="561" rx="20"/><path d="M126.234 519v-9.338h-1.666l-2.912 7.028-2.898-7.028h-1.666V519h1.162v-7.686l3.164 7.686h.476l3.178-7.686V519h1.162zm7.414 0v-4.648c0-1.638-1.19-2.282-2.618-2.282-1.106 0-1.974.364-2.702 1.12l.49.728c.602-.644 1.26-.938 2.072-.938.98 0 1.708.518 1.708 1.428v1.218c-.546-.63-1.316-.924-2.24-.924-1.148 0-2.366.714-2.366 2.226 0 1.47 1.218 2.24 2.366 2.24.91 0 1.68-.322 2.24-.938v.77h1.05zm-2.912-.588c-.98 0-1.666-.616-1.666-1.47 0-.868.686-1.484 1.666-1.484.742 0 1.456.28 1.862.84v1.274c-.406.56-1.12.84-1.862.84zm5.535-7.14c.392 0 .714-.308.714-.7s-.322-.714-.714-.714c-.378 0-.7.322-.7.714s.322.7.7.7zm.532 7.728v-6.762h-1.05V519h1.05zm3.145 0v-9.338h-1.05V519h1.05zm5.076.168c1.232 0 1.96-.504 2.478-1.176l-.7-.644c-.448.602-1.022.882-1.722.882-1.442 0-2.338-1.12-2.338-2.618s.896-2.604 2.338-2.604c.7 0 1.274.266 1.722.882l.7-.644c-.518-.672-1.246-1.176-2.478-1.176-2.016 0-3.374 1.54-3.374 3.542 0 2.016 1.358 3.556 3.374 3.556zm9.578-.168v-4.774c0-1.47-.742-2.156-2.156-2.156-1.022 0-1.946.588-2.422 1.148v-3.556h-1.05V519h1.05v-4.942c.406-.546 1.19-1.05 2.002-1.05.91 0 1.526.35 1.526 1.54V519h1.05zm2.614-7.728c.392 0 .714-.308.714-.7s-.322-.714-.714-.714c-.378 0-.7.322-.7.714s.322.7.7.7zm.532 7.728v-6.762h-1.05V519h1.05zm11.307 0v-4.886c0-1.358-.658-2.044-1.89-2.044a2.85 2.85 0 0 0-2.268 1.26c-.196-.7-.784-1.26-1.82-1.26-.994 0-1.904.714-2.184 1.148v-.98h-1.05V519h1.05v-4.942c.364-.546 1.092-1.05 1.778-1.05.882 0 1.246.546 1.246 1.4V519h1.05v-4.956c.35-.532 1.092-1.036 1.792-1.036.868 0 1.246.546 1.246 1.4V519h1.05zm5.427.168c1.778 0 3.01-1.372 3.01-3.556 0-2.198-1.232-3.542-3.01-3.542-.952 0-1.792.49-2.282 1.176v-1.008h-1.05v9.338h1.05v-3.598c.546.756 1.358 1.19 2.282 1.19zm-.266-.938c-.826 0-1.652-.504-2.016-1.092v-3.052c.364-.588 1.19-1.078 2.016-1.078 1.358 0 2.17 1.106 2.17 2.604s-.812 2.618-2.17 2.618zm176.038-.23v-3.71h2.59c1.848 0 2.926-1.288 2.926-2.814s-1.05-2.814-2.926-2.814h-3.752V518h1.162zm2.45-4.746h-2.45v-3.556h2.45c1.106 0 1.862.728 1.862 1.778s-.756 1.778-1.862 1.778zm5.081-2.982c.392 0 .714-.308.714-.7s-.322-.714-.714-.714c-.378 0-.7.322-.7.714s.322.7.7.7zm.532 7.728v-6.762h-1.05V518h1.05zm7.708 0v-4.746c0-1.47-.742-2.184-2.156-2.184-1.008 0-1.932.588-2.408 1.148v-.98h-1.05V518h1.05v-4.942c.392-.546 1.176-1.05 2.002-1.05.91 0 1.512.378 1.512 1.568V518h1.05zm3.805.168c.616 0 .994-.182 1.26-.434l-.308-.784c-.14.154-.42.28-.714.28-.462 0-.686-.364-.686-.868v-4.2h1.372v-.924h-1.372v-1.848h-1.05v1.848h-1.12v.924h1.12v4.424c0 1.008.504 1.582 1.498 1.582zm5.46 0c1.106 0 2.016-.364 2.688-1.036l-.504-.686c-.532.546-1.316.854-2.086.854-1.456 0-2.353-1.064-2.436-2.338h5.474v-.266c0-2.03-1.204-3.626-3.248-3.626-1.933 0-3.332 1.582-3.332 3.542 0 2.114 1.442 3.556 3.444 3.556zm2.1-3.976h-4.438c.056-1.036.77-2.254 2.212-2.254 1.54 0 2.212 1.246 2.226 2.254zm3.786 3.808v-4.788c.308-.546 1.19-1.078 1.834-1.078a1.85 1.85 0 0 1 .42.042v-1.078c-.924 0-1.708.518-2.254 1.232v-1.092h-1.05V518h1.05zm6.623.168c1.106 0 2.016-.364 2.688-1.036l-.504-.686c-.532.546-1.316.854-2.086.854-1.456 0-2.352-1.064-2.436-2.338h5.474v-.266c0-2.03-1.204-3.626-3.248-3.626-1.932 0-3.332 1.582-3.332 3.542 0 2.114 1.442 3.556 3.444 3.556zm2.1-3.976h-4.438c.056-1.036.77-2.254 2.212-2.254 1.54 0 2.212 1.246 2.226 2.254zm4.879 3.976c1.75 0 2.66-.91 2.66-2.044 0-2.632-4.186-1.652-4.186-3.136 0-.602.574-1.064 1.498-1.064.868 0 1.61.364 2.016.854l.49-.728c-.546-.546-1.358-.98-2.506-.98-1.61 0-2.52.896-2.52 1.946 0 2.506 4.186 1.498 4.186 3.136 0 .672-.56 1.162-1.596 1.162-.924 0-1.778-.448-2.226-.966l-.546.756c.686.728 1.624 1.064 2.73 1.064zm6.074 0c.616 0 .994-.182 1.26-.434l-.308-.784c-.14.154-.42.28-.714.28-.462 0-.686-.364-.686-.868v-4.2h1.372v-.924h-1.372v-1.848h-1.05v1.848h-1.12v.924h1.12v4.424c0 1.008.504 1.582 1.498 1.582z"/><use xlink:href="#B"/><use xlink:href="#C"/><path d="M233.254 519v-4.256h4.858v-1.036h-4.858v-3.01h4.956v-1.036h-6.118V519h1.162zm11.771 0v-4.648c0-1.638-1.19-2.282-2.618-2.282-1.106 0-1.974.364-2.702 1.12l.49.728c.602-.644 1.26-.938 2.072-.938.98 0 1.708.518 1.708 1.428v1.218c-.546-.63-1.316-.924-2.24-.924-1.148 0-2.366.714-2.366 2.226 0 1.47 1.218 2.24 2.366 2.24.91 0 1.68-.322 2.24-.938v.77h1.05zm-2.912-.588c-.98 0-1.666-.616-1.666-1.47 0-.868.686-1.484 1.666-1.484.742 0 1.456.28 1.862.84v1.274c-.406.56-1.12.84-1.862.84zm7.999.756c1.232 0 1.96-.504 2.478-1.176l-.7-.644c-.448.602-1.022.882-1.722.882-1.442 0-2.338-1.12-2.338-2.618s.896-2.604 2.338-2.604c.7 0 1.274.266 1.722.882l.7-.644c-.518-.672-1.246-1.176-2.478-1.176-2.016 0-3.374 1.54-3.374 3.542 0 2.016 1.358 3.556 3.374 3.556zm7.002 0c1.106 0 2.016-.364 2.688-1.036l-.504-.686c-.532.546-1.316.854-2.086.854-1.456 0-2.352-1.064-2.436-2.338h5.474v-.266c0-2.03-1.204-3.626-3.248-3.626-1.932 0-3.332 1.582-3.332 3.542 0 2.114 1.442 3.556 3.444 3.556zm2.1-3.976h-4.438c.056-1.036.77-2.254 2.212-2.254 1.54 0 2.212 1.246 2.226 2.254zm3.786 1.974V514.1c.364-.588 1.19-1.092 2.016-1.092 1.372 0 2.184 1.12 2.184 2.618s-.812 2.604-2.184 2.604c-.826 0-1.652-.476-2.016-1.064zm0 1.834v-1.008c.504.686 1.33 1.176 2.282 1.176 1.764 0 3.01-1.344 3.01-3.542 0-2.156-1.246-3.556-3.01-3.556-.924 0-1.736.448-2.282 1.19v-3.598h-1.05V519H263zm9.957.168c2.058 0 3.346-1.596 3.346-3.556s-1.288-3.542-3.346-3.542-3.346 1.582-3.346 3.542 1.288 3.556 3.346 3.556zm0-.938c-1.442 0-2.254-1.232-2.254-2.618 0-1.372.812-2.604 2.254-2.604s2.24 1.232 2.24 2.604c0 1.386-.798 2.618-2.24 2.618zm8.012.938c2.058 0 3.346-1.596 3.346-3.556s-1.288-3.542-3.346-3.542-3.346 1.582-3.346 3.542 1.288 3.556 3.346 3.556zm0-.938c-1.442 0-2.254-1.232-2.254-2.618 0-1.372.812-2.604 2.254-2.604s2.24 1.232 2.24 2.604c0 1.386-.798 2.618-2.24 2.618zm11.008.77l-3.01-3.696 2.996-3.066h-1.33l-3.556 3.598v-6.174h-1.05V519h1.05v-1.932l1.12-1.106 2.436 3.038h1.344z"/><use xlink:href="#B" x="-115"/><use xlink:href="#C" x="-115"/><path d="M460.348 519.168c2.758 0 4.634-2.072 4.634-4.83s-1.876-4.83-4.634-4.83c-2.772 0-4.634 2.072-4.634 4.83s1.862 4.83 4.634 4.83zm0-1.036c-2.1 0-3.43-1.624-3.43-3.794 0-2.184 1.33-3.794 3.43-3.794 2.086 0 3.43 1.61 3.43 3.794 0 2.17-1.344 3.794-3.43 3.794zm7.457.868v-4.788c.308-.546 1.19-1.078 1.834-1.078a1.85 1.85 0 0 1 .42.042v-1.078c-.924 0-1.708.518-2.254 1.232v-1.092h-1.05V519h1.05zm6.287 2.744c1.652 0 3.22-.7 3.22-2.94v-6.566h-1.05v1.022c-.546-.742-1.358-1.19-2.268-1.19-1.778 0-3.01 1.344-3.01 3.514 0 2.184 1.246 3.5 3.01 3.5.952 0 1.778-.518 2.268-1.204v.966c0 1.484-1.05 2.03-2.17 2.03-.966 0-1.638-.252-2.198-.924l-.532.784c.798.784 1.582 1.008 2.73 1.008zm.154-3.584c-1.358 0-2.17-1.092-2.17-2.576 0-1.498.812-2.576 2.17-2.576.84 0 1.652.504 2.016 1.092v2.954c-.364.588-1.176 1.106-2.016 1.106zm10.447.84v-4.648c0-1.638-1.19-2.282-2.618-2.282-1.106 0-1.974.364-2.702 1.12l.49.728c.602-.644 1.26-.938 2.072-.938.98 0 1.708.518 1.708 1.428v1.218c-.546-.63-1.316-.924-2.24-.924-1.148 0-2.366.714-2.366 2.226 0 1.47 1.218 2.24 2.366 2.24.91 0 1.68-.322 2.24-.938v.77h1.05zm-2.912-.588c-.98 0-1.666-.616-1.666-1.47 0-.868.686-1.484 1.666-1.484.742 0 1.456.28 1.862.84v1.274c-.406.56-1.12.84-1.862.84zm10.631.588v-4.746c0-1.47-.742-2.184-2.156-2.184-1.008 0-1.932.588-2.408 1.148v-.98h-1.05V519h1.05v-4.942c.392-.546 1.176-1.05 2.002-1.05.91 0 1.512.378 1.512 1.568V519h1.05zm2.615-7.728c.392 0 .714-.308.714-.7s-.322-.714-.714-.714c-.378 0-.7.322-.7.714s.322.7.7.7zm.532 7.728v-6.762h-1.05V519h1.05zm5.077.168c1.232 0 1.96-.504 2.478-1.176l-.7-.644c-.448.602-1.022.882-1.722.882-1.442 0-2.338-1.12-2.338-2.618s.896-2.604 2.338-2.604c.7 0 1.274.266 1.722.882l.7-.644c-.518-.672-1.246-1.176-2.478-1.176-2.016 0-3.374 1.54-3.374 3.542 0 2.016 1.358 3.556 3.374 3.556z"/><use xlink:href="#B" x="109"/><use xlink:href="#C" x="109"/></g><path d="M123.456 65.288c2.832 0 4.752-1.344 6.096-3.168l-1.704-.936a5.34 5.34 0 0 1-4.392 2.328c-3.504 0-6.168-2.712-6.168-6.504 0-3.816 2.664-6.504 6.168-6.504 1.824 0 3.48.984 4.392 2.328l1.68-.936c-1.272-1.8-3.24-3.168-6.072-3.168-4.608 0-8.232 3.36-8.232 8.28s3.624 8.28 8.232 8.28zM141.667 65v-8.184c0-2.52-1.272-3.696-3.696-3.696-1.752 0-3.336 1.008-4.152 1.968v-6.096h-1.8V65h1.8v-8.472c.696-.936 2.04-1.8 3.432-1.8 1.56 0 2.616.6 2.616 2.64V65h1.8zm12.642 0v-7.968c0-2.808-2.04-3.912-4.488-3.912-1.896 0-3.384.624-4.632 1.92l.84 1.248c1.032-1.104 2.16-1.608 3.552-1.608 1.68 0 2.928.888 2.928 2.448v2.088c-.936-1.08-2.256-1.584-3.84-1.584-1.968 0-4.056 1.224-4.056 3.816 0 2.52 2.088 3.84 4.056 3.84 1.56 0 2.88-.552 3.84-1.608V65h1.8zm-4.992-1.008c-1.68 0-2.856-1.056-2.856-2.52 0-1.488 1.176-2.544 2.856-2.544 1.272 0 2.496.48 3.192 1.44v2.184c-.696.96-1.92 1.44-3.192 1.44zM167.541 65v-8.136c0-2.52-1.272-3.744-3.696-3.744-1.728 0-3.312 1.008-4.128 1.968v-1.68h-1.8V65h1.8v-8.472c.672-.936 2.016-1.8 3.432-1.8 1.56 0 2.592.648 2.592 2.688V65h1.8zm13.219 0v-8.136c0-2.52-1.272-3.744-3.696-3.744-1.728 0-3.312 1.008-4.128 1.968v-1.68h-1.8V65h1.8v-8.472c.672-.936 2.016-1.8 3.432-1.8 1.56 0 2.592.648 2.592 2.688V65h1.8zm8.827.288c1.896 0 3.456-.624 4.608-1.776l-.864-1.176c-.912.936-2.256 1.464-3.576 1.464-2.496 0-4.032-1.824-4.176-4.008h9.384v-.456c0-3.48-2.064-6.216-5.568-6.216-3.312 0-5.712 2.712-5.712 6.072 0 3.624 2.472 6.096 5.904 6.096zm3.6-6.816h-7.608c.096-1.776 1.32-3.864 3.792-3.864 2.64 0 3.792 2.136 3.816 3.864zM199.678 65V48.992h-1.8V65h1.8zm7.263.288c3 0 4.56-1.56 4.56-3.504 0-4.512-7.176-2.832-7.176-5.376 0-1.032.984-1.824 2.568-1.824 1.488 0 2.76.624 3.456 1.464l.84-1.248c-.936-.936-2.328-1.68-4.296-1.68-2.76 0-4.32 1.536-4.32 3.336 0 4.296 7.176 2.568 7.176 5.376 0 1.152-.96 1.992-2.736 1.992-1.584 0-3.048-.768-3.816-1.656l-.936 1.296c1.176 1.248 2.784 1.824 4.68 1.824zM230.812 65V48.992h-1.799v6.168c-.936-1.272-2.352-2.04-3.912-2.04-3.048 0-5.16 2.4-5.16 6.096 0 3.768 2.136 6.072 5.16 6.072 1.632 0 3.048-.84 3.912-2.016V65h1.799zm-5.279-1.32c-2.328 0-3.721-1.896-3.721-4.464s1.393-4.488 3.721-4.488c1.44 0 2.832.864 3.48 1.872v5.256c-.648 1.008-2.04 1.824-3.48 1.824zM236.217 65v-8.208c.528-.936 2.04-1.848 3.144-1.848.288 0 .504.024.72.072v-1.848c-1.584 0-2.928.888-3.864 2.112v-1.872h-1.8V65h1.8zm7.01-13.248c.672 0 1.224-.528 1.224-1.2a1.23 1.23 0 0 0-1.224-1.224c-.648 0-1.2.552-1.2 1.224s.552 1.2 1.2 1.2zM244.139 65V53.408h-1.8V65h1.8zm8.655 0l4.824-11.592h-1.968l-3.84 9.504-3.864-9.504h-1.944L250.826 65h1.968zm7.589-13.248c.672 0 1.224-.528 1.224-1.2a1.23 1.23 0 0 0-1.224-1.224c-.648 0-1.2.552-1.2 1.224s.552 1.2 1.2 1.2zM261.295 65V53.408h-1.8V65h1.8zm13.215 0v-8.136c0-2.52-1.272-3.744-3.696-3.744-1.728 0-3.312 1.008-4.128 1.968v-1.68h-1.8V65h1.8v-8.472c.672-.936 2.016-1.8 3.432-1.8 1.56 0 2.592.648 2.592 2.688V65h1.8zm8.251 4.704c2.832 0 5.52-1.2 5.52-5.04V53.408h-1.8v1.752c-.936-1.272-2.328-2.04-3.888-2.04-3.048 0-5.16 2.304-5.16 6.024 0 3.744 2.136 6 5.16 6 1.632 0 3.048-.888 3.888-2.064v1.656c0 2.544-1.8 3.48-3.72 3.48-1.656 0-2.808-.432-3.768-1.584l-.912 1.344c1.368 1.344 2.712 1.728 4.68 1.728zm.264-6.144c-2.328 0-3.72-1.872-3.72-4.416 0-2.568 1.392-4.416 3.72-4.416 1.44 0 2.832.864 3.456 1.872v5.064c-.624 1.008-2.016 1.896-3.456 1.896zm20.28 1.728c1.896 0 3.456-.624 4.608-1.776l-.864-1.176c-.912.936-2.256 1.464-3.576 1.464-2.496 0-4.032-1.824-4.176-4.008h9.384v-.456c0-3.48-2.064-6.216-5.568-6.216-3.312 0-5.712 2.712-5.712 6.072 0 3.624 2.472 6.096 5.904 6.096zm3.6-6.816h-7.608c.096-1.776 1.32-3.864 3.792-3.864 2.64 0 3.792 2.136 3.816 3.864zM316.661 65l4.824-11.592h-1.968l-3.84 9.504-3.864-9.504h-1.944L314.693 65h1.968zm11.934.288c1.896 0 3.456-.624 4.608-1.776l-.864-1.176c-.912.936-2.256 1.464-3.576 1.464-2.496 0-4.033-1.824-4.176-4.008h9.384v-.456c0-3.48-2.064-6.216-5.568-6.216-3.313 0-5.712 2.712-5.712 6.072 0 3.624 2.472 6.096 5.904 6.096zm3.6-6.816h-7.608c.096-1.776 1.32-3.864 3.792-3.864 2.64 0 3.792 2.136 3.816 3.864zM338.686 65v-8.208c.528-.936 2.04-1.848 3.144-1.848.288 0 .504.024.72.072v-1.848c-1.584 0-2.928.888-3.864 2.112v-1.872h-1.8V65h1.8zm5.474 4.536c.336.096.936.168 1.32.168 1.536-.024 2.712-.672 3.408-2.352l5.808-13.944h-1.968l-3.84 9.504-3.864-9.504h-1.944l4.848 11.712-.768 1.752c-.408.96-.936 1.224-1.728 1.224-.288 0-.72-.072-.984-.192l-.288 1.632zm23.713-4.248c2.112 0 3.36-.864 4.248-2.016l-1.2-1.104c-.768 1.032-1.752 1.512-2.952 1.512-2.472 0-4.008-1.92-4.008-4.488s1.536-4.464 4.008-4.464c1.2 0 2.184.456 2.952 1.512l1.2-1.104c-.888-1.152-2.136-2.016-4.248-2.016-3.456 0-5.784 2.64-5.784 6.072 0 3.456 2.328 6.096 5.784 6.096zm11.835 0c3.528 0 5.736-2.736 5.736-6.096s-2.208-6.072-5.736-6.072-5.736 2.712-5.736 6.072 2.208 6.096 5.736 6.096zm0-1.608c-2.472 0-3.864-2.112-3.864-4.488 0-2.352 1.392-4.464 3.864-4.464s3.84 2.112 3.84 4.464c0 2.376-1.368 4.488-3.84 4.488zM398.002 65v-8.136c0-2.52-1.272-3.744-3.696-3.744-1.728 0-3.312 1.008-4.128 1.968v-1.68h-1.8V65h1.8v-8.472c.672-.936 2.016-1.8 3.432-1.8 1.56 0 2.592.648 2.592 2.688V65h1.8zm8.659 0l4.824-11.592h-1.968l-3.84 9.504-3.864-9.504h-1.944L404.693 65h1.968zm11.934.288c1.896 0 3.456-.624 4.608-1.776l-.864-1.176c-.912.936-2.256 1.464-3.576 1.464-2.496 0-4.033-1.824-4.176-4.008h9.384v-.456c0-3.48-2.064-6.216-5.568-6.216-3.313 0-5.712 2.712-5.712 6.072 0 3.624 2.472 6.096 5.904 6.096zm3.6-6.816h-7.608c.096-1.776 1.32-3.864 3.792-3.864 2.64 0 3.792 2.136 3.816 3.864zM428.686 65v-8.208c.528-.936 2.04-1.848 3.144-1.848.288 0 .504.024.72.072v-1.848c-1.584 0-2.928.888-3.864 2.112v-1.872h-1.8V65h1.8zm9.794.288c3 0 4.56-1.56 4.56-3.504 0-4.512-7.176-2.832-7.176-5.376 0-1.032.984-1.824 2.568-1.824 1.488 0 2.76.624 3.456 1.464l.84-1.248c-.936-.936-2.328-1.68-4.296-1.68-2.76 0-4.32 1.536-4.32 3.336 0 4.296 7.176 2.568 7.176 5.376 0 1.152-.96 1.992-2.736 1.992-1.584 0-3.048-.768-3.816-1.656l-.936 1.296c1.176 1.248 2.784 1.824 4.68 1.824zm8.372-13.536c.672 0 1.224-.528 1.224-1.2a1.23 1.23 0 0 0-1.224-1.224c-.648 0-1.2.552-1.2 1.224s.552 1.2 1.2 1.2zM447.764 65V53.408h-1.8V65h1.8zm8.655.288c3.528 0 5.736-2.736 5.736-6.096s-2.208-6.072-5.736-6.072-5.736 2.712-5.736 6.072 2.208 6.096 5.736 6.096zm0-1.608c-2.472 0-3.864-2.112-3.864-4.488 0-2.352 1.392-4.464 3.864-4.464s3.84 2.112 3.84 4.464c0 2.376-1.368 4.488-3.84 4.488zM474.713 65v-8.136c0-2.52-1.272-3.744-3.696-3.744-1.728 0-3.312 1.008-4.128 1.968v-1.68h-1.8V65h1.8v-8.472c.672-.936 2.016-1.8 3.432-1.8 1.56 0 2.592.648 2.592 2.688V65h1.8z" fill="#3a3a3a"/><path d="M0 136c0-11.046 8.954-20 20-20h579c11.046 0 20 8.954 20 20v405c0 11.046-8.954 20-20 20H20c-11.046 0-20-8.954-20-20V136z" fill="#ffc95f"/><g stroke-width="6"><path d="M48 464l115.531-101.862a5 5 0 0 1 6.074-.414l67.826 45.075a5 5 0 0 0 6.035-.379l95.922-82.804c2.611-2.254 6.665-1.25 7.923 1.961l43.174 110.234c1.468 3.749 6.541 4.313 8.797.978l40.375-59.69a5 5 0 0 1 3.824-2.188l100.958-6.428a5 5 0 0 0 4.159-2.762L568 326.733" stroke="#a4d2fd"/><path d="M48 421.908l199.337 52.463a5 5 0 0 0 4.342-.889l161.412-125.533a5 5 0 0 1 6.89.722l86.288 102.226a5 5 0 0 0 3.821 1.775H568" stroke="#c7fc9d"/><path d="M46 404.297l197.41 21.592a5.01 5.01 0 0 0 1.993-.185l165.883-50.248a5 5 0 0 1 2.999.031l87.67 28.564a5 5 0 0 0 1.549.246H563" stroke="#dc9efa"/><path d="M48 439.796l143.364 71.614a4.99 4.99 0 0 0 2.498.52l79.781-4.22a5.01 5.01 0 0 0 2.473-.809l75.43-49.329a5 5 0 0 1 2.736-.816h150.81a5 5 0 0 0 4.378-2.585L573 339" stroke="#fb9090"/></g><g filter="url(#A)"><rect x="40" y="142" width="189" height="124" rx="4" fill="#fff"/></g><path d="M194.108 168.156c-.615 0-1.157-.117-1.625-.351-.468-.243-.841-.572-1.118-.988s-.485-.884-.624-1.404a6.79 6.79 0 0 1-.208-1.729c0-1.309.334-2.383 1.001-3.224s1.608-1.261 2.821-1.261c1.005 0 1.837.321 2.496.962l-.715 1.157a2.36 2.36 0 0 0-1.781-.767c-.693 0-1.248.277-1.664.832s-.624 1.231-.624 2.028a1.62 1.62 0 0 0 .013.247c.217-.321.537-.602.962-.845s.88-.364 1.365-.364c.823 0 1.512.247 2.067.741.555.485.832 1.17.832 2.054 0 .823-.295 1.517-.884 2.08-.589.555-1.361.832-2.314.832zm-.078-1.352c.537 0 .962-.152 1.274-.455.312-.312.468-.663.468-1.053 0-.503-.169-.884-.507-1.144-.338-.269-.763-.403-1.274-.403a2.11 2.11 0 0 0-1.053.286c-.338.182-.62.429-.845.741a2.67 2.67 0 0 0 .546 1.43c.312.399.776.598 1.391.598zm9.342.962c-.46.26-.98.39-1.56.39s-1.101-.13-1.56-.39a2.99 2.99 0 0 1-1.092-1.04 5.24 5.24 0 0 1-.611-1.43c-.139-.52-.208-1.062-.208-1.625s.069-1.105.208-1.625.342-.992.611-1.417a2.99 2.99 0 0 1 1.092-1.04c.459-.26.979-.39 1.56-.39s1.1.13 1.56.39.823.607 1.092 1.04c.268.425.472.897.611 1.417a6.31 6.31 0 0 1 .208 1.625 6.31 6.31 0 0 1-.208 1.625c-.139.52-.343.997-.611 1.43s-.633.78-1.092 1.04zm-3.016-1.846a1.54 1.54 0 0 0 1.456.884 1.54 1.54 0 0 0 1.456-.884c.312-.589.468-1.339.468-2.249 0-.581-.061-1.096-.182-1.547-.113-.451-.321-.823-.624-1.118-.295-.303-.668-.455-1.118-.455s-.828.152-1.131.455c-.295.295-.503.667-.624 1.118-.113.451-.169.966-.169 1.547 0 .91.156 1.66.468 2.249zm7.971-2.418c-.632 0-1.148-.199-1.547-.598-.398-.407-.598-.919-.598-1.534 0-.624.2-1.14.598-1.547.399-.416.915-.624 1.547-.624.642 0 1.162.208 1.56.624.408.407.611.923.611 1.547 0 .615-.203 1.127-.611 1.534-.398.399-.918.598-1.56.598zm.026 4.498h-.858l5.538-8.671h.871L208.353 168zm6.188-.442c-.398.399-.914.598-1.547.598s-1.148-.199-1.547-.598c-.398-.407-.598-.919-.598-1.534 0-.624.2-1.14.598-1.547.399-.416.915-.624 1.547-.624s1.149.208 1.547.624c.408.416.611.932.611 1.547s-.203 1.127-.611 1.534zm-6.214-4.914c.338 0 .616-.117.832-.351.217-.243.325-.55.325-.923 0-.39-.108-.702-.325-.936-.216-.243-.494-.364-.832-.364s-.615.121-.832.364c-.208.234-.312.546-.312.936 0 .373.109.68.325.923a1.07 1.07 0 0 0 .819.351zm3.835 4.303c.217.234.494.351.832.351s.616-.117.832-.351c.217-.243.325-.55.325-.923 0-.39-.108-.702-.325-.936-.216-.243-.494-.364-.832-.364s-.615.121-.832.364c-.208.234-.312.546-.312.936 0 .373.104.68.312.923zM83.083 193.169c-1.283 0-2.362-.416-3.237-1.248s-1.313-1.915-1.313-3.25.438-2.414 1.313-3.237c.875-.832 1.954-1.248 3.237-1.248 1.491 0 2.656.602 3.497 1.807l-1.248.702a2.82 2.82 0 0 0-.962-.832 2.6 2.6 0 0 0-1.287-.325c-.858 0-1.573.295-2.145.884-.563.589-.845 1.339-.845 2.249s.282 1.664.845 2.262c.572.589 1.287.884 2.145.884.407 0 .793-.078 1.157-.234.373-.156.672-.338.897-.546v-1.352H82.55v-1.339h4.108v3.25a4.6 4.6 0 0 1-3.575 1.573zm7.953-.013c-.971 0-1.751-.316-2.34-.949-.589-.641-.884-1.426-.884-2.353s.295-1.707.884-2.34 1.369-.949 2.34-.949c.979 0 1.764.316 2.353.949s.884 1.413.884 2.34c0 .936-.295 1.72-.884 2.353s-1.374.949-2.353.949zm0-1.209c.563 0 1.005-.199 1.326-.598.329-.407.494-.906.494-1.495 0-.581-.165-1.07-.494-1.469-.321-.407-.763-.611-1.326-.611-.555 0-.997.204-1.326.611-.321.399-.481.888-.481 1.469 0 .589.16 1.088.481 1.495.329.399.771.598 1.326.598zm7.452 1.209c-.971 0-1.751-.316-2.34-.949-.589-.641-.884-1.426-.884-2.353s.295-1.707.884-2.34 1.369-.949 2.34-.949c.979 0 1.763.316 2.353.949s.884 1.413.884 2.34c0 .936-.295 1.72-.884 2.353s-1.374.949-2.353.949zm0-1.209c.563 0 1.005-.199 1.326-.598.33-.407.495-.906.495-1.495 0-.581-.165-1.07-.495-1.469-.321-.407-.763-.611-1.326-.611-.555 0-.997.204-1.326.611-.321.399-.481.888-.481 1.469 0 .589.16 1.088.481 1.495.329.399.771.598 1.326.598zm7.166 3.601c-1.066 0-1.942-.312-2.626-.936l.637-.988c.468.537 1.131.806 1.989.806.52 0 .957-.139 1.313-.416.364-.269.546-.698.546-1.287v-.754c-.538.693-1.209 1.04-2.015 1.04-.824 0-1.495-.286-2.015-.858-.512-.572-.767-1.361-.767-2.366 0-.997.255-1.781.767-2.353.52-.581 1.191-.871 2.015-.871s1.495.342 2.015 1.027v-.871h1.365v5.954c0 .537-.096 1.001-.286 1.391-.182.399-.434.698-.754.897-.321.208-.663.355-1.027.442-.356.095-.741.143-1.157.143zm.247-3.744c.312 0 .619-.082.923-.247s.533-.364.689-.598v-2.34c-.156-.234-.386-.433-.689-.598a1.91 1.91 0 0 0-.923-.247c-.538 0-.967.186-1.287.559-.321.364-.481.849-.481 1.456s.16 1.096.481 1.469c.32.364.749.546 1.287.546zm6.111 1.196h-1.365v-8.671h1.365V193zm4.669.156c-.953 0-1.742-.303-2.366-.91-.615-.615-.923-1.413-.923-2.392 0-.919.299-1.694.897-2.327.607-.641 1.37-.962 2.288-.962.928 0 1.673.321 2.236.962.572.641.858 1.46.858 2.457v.325h-4.849a1.9 1.9 0 0 0 .611 1.235c.356.329.819.494 1.391.494.321 0 .642-.061.962-.182.33-.121.603-.29.819-.507l.624.897c-.632.607-1.482.91-2.548.91zm1.664-3.809c-.017-.433-.177-.819-.481-1.157-.294-.338-.723-.507-1.287-.507-.537 0-.957.169-1.261.507-.303.329-.472.715-.507 1.157h3.536zM132.198 193h-1.729l-.637-1.664h-3.978l-.637 1.664h-1.729l3.406-8.671h1.898l3.406 8.671zm-2.795-3.003l-1.56-4.134-1.56 4.134h3.12zm9.488 3.003h-1.365v-.858c-.52.676-1.192 1.014-2.015 1.014s-1.495-.295-2.015-.884-.78-1.391-.78-2.405c0-1.005.26-1.807.78-2.405s1.191-.897 2.015-.897 1.495.342 2.015 1.027v-3.263h1.365V193zm-2.99-1.053c.32 0 .632-.078.936-.234s.533-.355.689-.598v-2.496c-.156-.243-.386-.442-.689-.598a1.94 1.94 0 0 0-.936-.247c-.538 0-.967.195-1.287.585s-.481.893-.481 1.508.16 1.118.481 1.508c.32.381.749.572 1.287.572zm6.903 1.209c-1.126 0-2.023-.325-2.691-.975l.624-.988c.234.243.551.451.949.624s.793.26 1.183.26c.399 0 .702-.078.91-.234a.72.72 0 0 0 .325-.611c0-.225-.13-.399-.39-.52-.26-.13-.576-.23-.949-.299l-1.118-.273c-.372-.113-.689-.308-.949-.585s-.39-.637-.39-1.079c0-.537.221-.988.663-1.352.442-.373 1.045-.559 1.807-.559.962 0 1.777.295 2.444.884l-.572.962c-.199-.225-.463-.407-.793-.546a2.71 2.71 0 0 0-1.066-.208c-.355 0-.641.074-.858.221-.208.139-.312.321-.312.546 0 .173.091.316.273.429a2.39 2.39 0 0 0 .702.234 9.43 9.43 0 0 1 .923.221c.33.087.633.191.91.312.286.121.52.321.702.598.191.269.286.598.286.988 0 .572-.229 1.04-.689 1.404s-1.1.546-1.924.546zM84.266 221h-5.343v-8.671h1.521v7.332h3.822V221zm2.01-7.046a.84.84 0 0 1-.598-.247c-.165-.165-.247-.364-.247-.598s.082-.433.247-.598a.84.84 0 0 1 .598-.247c.234 0 .433.082.598.247s.247.364.247.598-.082.433-.247.598-.364.247-.598.247zm.689 7.046H85.6v-6.279h1.365V221zm7.374 0h-1.365v-3.926c0-.867-.42-1.3-1.261-1.3-.329 0-.637.082-.923.247a2.22 2.22 0 0 0-.689.598V221h-1.365v-6.279h1.365v.858c.234-.277.546-.516.936-.715s.815-.299 1.274-.299c.667 0 1.17.173 1.508.52.347.347.52.845.52 1.495V221zm7.649 0h-1.716l-1.925-2.587-.871.897V221h-1.365v-8.671h1.365v5.421l2.769-3.029h1.69l-2.614 2.847 2.665 3.432zm3.802.156c-.953 0-1.742-.303-2.366-.91-.615-.615-.923-1.413-.923-2.392 0-.919.299-1.694.897-2.327.607-.641 1.369-.962 2.288-.962.927 0 1.673.321 2.236.962.572.641.858 1.46.858 2.457v.325h-4.849a1.9 1.9 0 0 0 .611 1.235c.355.329.819.494 1.391.494a2.71 2.71 0 0 0 .962-.182c.329-.121.602-.29.819-.507l.624.897c-.633.607-1.482.91-2.548.91zm1.664-3.809c-.017-.433-.178-.819-.481-1.157-.295-.338-.724-.507-1.287-.507-.537 0-.958.169-1.261.507-.303.329-.472.715-.507 1.157h3.536zm8.458 3.653h-1.365v-.858c-.52.676-1.192 1.014-2.015 1.014s-1.495-.295-2.015-.884-.78-1.391-.78-2.405c0-1.005.26-1.807.78-2.405s1.192-.897 2.015-.897 1.495.342 2.015 1.027v-3.263h1.365V221zm-2.99-1.053a2.02 2.02 0 0 0 .936-.234c.303-.156.533-.355.689-.598v-2.496c-.156-.243-.386-.442-.689-.598-.303-.165-.615-.247-.936-.247a1.58 1.58 0 0 0-1.287.585c-.321.39-.481.893-.481 1.508s.16 1.118.481 1.508c.321.381.75.572 1.287.572zm6.319 1.053h-1.521v-8.671h1.521V221zm7.407 0h-1.365v-3.926c0-.867-.42-1.3-1.261-1.3-.329 0-.637.082-.923.247a2.22 2.22 0 0 0-.689.598V221h-1.365v-6.279h1.365v.858c.234-.277.546-.516.936-.715s.815-.299 1.274-.299c.667 0 1.17.173 1.508.52.347.347.52.845.52 1.495V221zm12.951 0h-1.729l-.637-1.664h-3.978l-.637 1.664h-1.729l3.406-8.671h1.898l3.406 8.671zm-2.795-3.003l-1.56-4.134-1.56 4.134h3.12zm9.488 3.003h-1.365v-.858c-.52.676-1.192 1.014-2.015 1.014s-1.495-.295-2.015-.884-.78-1.391-.78-2.405c0-1.005.26-1.807.78-2.405s1.192-.897 2.015-.897 1.495.342 2.015 1.027v-3.263h1.365V221zm-2.99-1.053a2.02 2.02 0 0 0 .936-.234c.303-.156.533-.355.689-.598v-2.496c-.156-.243-.386-.442-.689-.598-.303-.165-.615-.247-.936-.247a1.58 1.58 0 0 0-1.287.585c-.321.39-.481.893-.481 1.508s.16 1.118.481 1.508c.321.381.75.572 1.287.572zm6.904 1.209c-1.127 0-2.024-.325-2.691-.975l.624-.988c.234.243.55.451.949.624s.793.26 1.183.26c.398 0 .702-.078.91-.234.216-.156.325-.36.325-.611 0-.225-.13-.399-.39-.52-.26-.13-.577-.23-.949-.299l-1.118-.273a2.12 2.12 0 0 1-.949-.585c-.26-.277-.39-.637-.39-1.079 0-.537.221-.988.663-1.352.442-.373 1.044-.559 1.807-.559.962 0 1.776.295 2.444.884l-.572.962c-.2-.225-.464-.407-.793-.546s-.685-.208-1.066-.208c-.356 0-.642.074-.858.221-.208.139-.312.321-.312.546 0 .173.091.316.273.429a2.37 2.37 0 0 0 .702.234 9.5 9.5 0 0 1 .923.221c.329.087.632.191.91.312.286.121.52.321.702.598.19.269.286.598.286.988a1.71 1.71 0 0 1-.689 1.404c-.46.364-1.101.546-1.924.546zM80.444 167h-1.521v-8.671h5.941v1.339h-4.42v2.249h4.329v1.339h-4.329V167zm10.94 0h-1.365v-.676c-.485.555-1.161.832-2.028.832-.572 0-1.079-.182-1.521-.546-.442-.373-.663-.884-.663-1.534 0-.667.217-1.174.65-1.521.442-.347.953-.52 1.534-.52.893 0 1.569.269 2.028.806v-.936c0-.364-.134-.65-.403-.858s-.624-.312-1.066-.312c-.702 0-1.322.264-1.859.793l-.559-.949c.711-.676 1.59-1.014 2.639-1.014.771 0 1.4.182 1.885.546s.728.94.728 1.729V167zm-2.86-.78c.685 0 1.183-.217 1.495-.65v-.949c-.312-.433-.81-.65-1.495-.65-.39 0-.711.104-.962.312a1.01 1.01 0 0 0-.377.819 1.01 1.01 0 0 0 .377.819c.251.199.572.299.962.299zm7.49.936c-.953 0-1.733-.308-2.34-.923-.607-.624-.91-1.417-.91-2.379 0-.953.303-1.738.91-2.353.607-.624 1.387-.936 2.34-.936 1.049 0 1.85.373 2.405 1.118l-.897.832c-.347-.494-.828-.741-1.443-.741-.572 0-1.031.195-1.378.585-.347.381-.52.88-.52 1.495s.173 1.118.52 1.508.806.585 1.378.585c.598 0 1.079-.247 1.443-.741l.897.832c-.555.745-1.356 1.118-2.405 1.118zm6.501 0c-.953 0-1.742-.303-2.366-.91-.615-.615-.923-1.413-.923-2.392 0-.919.299-1.694.897-2.327.607-.641 1.37-.962 2.288-.962.928 0 1.673.321 2.236.962.572.641.858 1.46.858 2.457v.325h-4.849a1.9 1.9 0 0 0 .611 1.235c.356.329.819.494 1.391.494.321 0 .642-.061.962-.182.33-.121.603-.29.819-.507l.624.897c-.632.607-1.482.91-2.548.91zm1.664-3.809c-.017-.433-.177-.819-.481-1.157-.294-.338-.723-.507-1.287-.507-.537 0-.957.169-1.261.507-.303.329-.472.715-.507 1.157h3.536zm4.039 1.768c.147.234.372.433.676.598.312.156.624.234.936.234.537 0 .966-.191 1.287-.572.329-.39.494-.893.494-1.508s-.165-1.118-.494-1.508a1.58 1.58 0 0 0-1.287-.585 1.91 1.91 0 0 0-.923.247c-.304.165-.533.368-.689.611v2.483zm0 1.885h-1.365v-8.671h1.365v3.263c.511-.685 1.183-1.027 2.015-1.027.814 0 1.482.303 2.002.91.52.598.78 1.395.78 2.392 0 1.014-.26 1.816-.78 2.405s-1.188.884-2.002.884c-.824 0-1.495-.338-2.015-1.014V167zm9.022.156c-.97 0-1.75-.316-2.34-.949-.589-.641-.884-1.426-.884-2.353s.295-1.707.884-2.34 1.37-.949 2.34-.949c.98 0 1.764.316 2.353.949s.884 1.413.884 2.34c0 .936-.294 1.72-.884 2.353s-1.373.949-2.353.949zm0-1.209c.564 0 1.006-.199 1.326-.598.33-.407.494-.906.494-1.495 0-.581-.164-1.07-.494-1.469-.32-.407-.762-.611-1.326-.611-.554 0-.996.204-1.326.611-.32.399-.481.888-.481 1.469 0 .589.161 1.088.481 1.495.33.399.772.598 1.326.598zm7.453 1.209c-.971 0-1.751-.316-2.34-.949-.59-.641-.884-1.426-.884-2.353s.294-1.707.884-2.34 1.369-.949 2.34-.949c.979 0 1.763.316 2.353.949s.884 1.413.884 2.34c0 .936-.295 1.72-.884 2.353s-1.374.949-2.353.949zm0-1.209c.563 0 1.005-.199 1.326-.598.329-.407.494-.906.494-1.495 0-.581-.165-1.07-.494-1.469-.321-.407-.763-.611-1.326-.611-.555 0-.997.204-1.326.611-.321.399-.481.888-.481 1.469 0 .589.16 1.088.481 1.495.329.399.771.598 1.326.598zM135.186 167h-1.716l-1.924-2.587-.871.897V167h-1.365v-8.671h1.365v5.421l2.769-3.029h1.69l-2.613 2.847 2.665 3.432z" fill="#1d1d26"/><circle cx="60" cy="189" r="8" fill="#dc9efa"/><path d="M87.932 248h-1.521v-6.435L83.746 248h-.65l-2.652-6.435V248h-1.521v-8.671h2.145l2.353 5.707 2.366-5.707h2.145V248zm7.007 0h-1.365v-.676c-.485.555-1.161.832-2.028.832-.572 0-1.079-.182-1.521-.546-.442-.373-.663-.884-.663-1.534 0-.667.217-1.174.65-1.521.442-.347.953-.52 1.534-.52.893 0 1.569.269 2.028.806v-.936c0-.364-.134-.65-.403-.858s-.624-.312-1.066-.312c-.702 0-1.322.264-1.859.793l-.559-.949c.711-.676 1.59-1.014 2.639-1.014.771 0 1.4.182 1.885.546s.728.94.728 1.729V248zm-2.86-.78c.685 0 1.183-.217 1.495-.65v-.949c-.312-.433-.81-.65-1.495-.65-.39 0-.711.104-.962.312a1.01 1.01 0 0 0-.377.819 1.01 1.01 0 0 0 .377.819c.251.199.572.299.962.299zm5.306-6.266a.84.84 0 0 1-.598-.247c-.165-.165-.247-.364-.247-.598s.082-.433.247-.598a.84.84 0 0 1 .598-.247c.234 0 .433.082.598.247s.247.364.247.598-.082.433-.247.598-.364.247-.598.247zm.689 7.046h-1.365v-6.279h1.365V248zm3.136 0h-1.365v-8.671h1.365V248zm4.631.156c-.954 0-1.734-.308-2.34-.923-.607-.624-.91-1.417-.91-2.379 0-.953.303-1.738.91-2.353.606-.624 1.386-.936 2.34-.936 1.048 0 1.85.373 2.405 1.118l-.897.832c-.347-.494-.828-.741-1.443-.741-.572 0-1.032.195-1.378.585-.347.381-.52.88-.52 1.495s.173 1.118.52 1.508.806.585 1.378.585c.598 0 1.079-.247 1.443-.741l.897.832c-.555.745-1.357 1.118-2.405 1.118zm9.218-.156h-1.365v-3.952c0-.459-.113-.784-.338-.975-.217-.199-.529-.299-.936-.299a1.79 1.79 0 0 0-.91.247c-.286.165-.52.364-.702.598V248h-1.365v-8.671h1.365v3.25c.234-.277.546-.516.936-.715a2.84 2.84 0 0 1 1.287-.299c1.352 0 2.028.663 2.028 1.989V248zm2.448-7.046c-.225 0-.424-.082-.598-.247-.164-.165-.247-.364-.247-.598s.083-.433.247-.598c.174-.165.373-.247.598-.247a.81.81 0 0 1 .598.247c.165.165.247.364.247.598s-.082.433-.247.598a.81.81 0 0 1-.598.247zm.689 7.046h-1.365v-6.279h1.365V248zm10.832 0h-1.365v-4.095c0-.754-.342-1.131-1.027-1.131a1.57 1.57 0 0 0-.832.247c-.269.165-.477.36-.624.585V248h-1.365v-4.095c0-.754-.347-1.131-1.04-1.131a1.55 1.55 0 0 0-.819.247c-.26.165-.468.364-.624.598V248h-1.365v-6.279h1.365v.858c.156-.234.425-.459.806-.676.39-.225.802-.338 1.235-.338.91 0 1.482.386 1.716 1.157.199-.312.494-.581.884-.806.39-.234.806-.351 1.248-.351 1.205 0 1.807.633 1.807 1.898V248zm5.148.156c-.832 0-1.504-.342-2.015-1.027v3.263h-1.365v-8.671h1.365v.858c.503-.676 1.174-1.014 2.015-1.014.823 0 1.491.295 2.002.884.52.589.78 1.391.78 2.405s-.26 1.82-.78 2.418c-.511.589-1.179.884-2.002.884zm-.403-1.209a1.58 1.58 0 0 0 1.287-.585c.321-.39.481-.893.481-1.508s-.16-1.114-.481-1.495a1.58 1.58 0 0 0-1.287-.585 1.91 1.91 0 0 0-.923.247c-.303.165-.533.364-.689.598v2.483c.156.234.386.433.689.598a1.91 1.91 0 0 0 .923.247zM147.63 248h-5.941v-8.671h5.941v1.339h-4.42v2.249h4.329v1.339h-4.329v2.405h4.42V248zm10.584 0h-1.365v-4.095c0-.754-.343-1.131-1.027-1.131-.286 0-.564.082-.832.247s-.477.36-.624.585V248h-1.365v-4.095c0-.754-.347-1.131-1.04-1.131-.278 0-.551.082-.819.247-.26.165-.468.364-.624.598V248h-1.365v-6.279h1.365v.858c.156-.234.424-.459.806-.676.39-.225.801-.338 1.235-.338.91 0 1.482.386 1.716 1.157.199-.312.494-.581.884-.806.39-.234.806-.351 1.248-.351 1.204 0 1.807.633 1.807 1.898V248zm6.968 0h-1.365v-.676c-.486.555-1.162.832-2.028.832-.572 0-1.079-.182-1.521-.546-.442-.373-.663-.884-.663-1.534 0-.667.216-1.174.65-1.521.442-.347.953-.52 1.534-.52.892 0 1.568.269 2.028.806v-.936c0-.364-.135-.65-.403-.858s-.624-.312-1.066-.312c-.702 0-1.322.264-1.859.793l-.559-.949c.71-.676 1.59-1.014 2.639-1.014.771 0 1.399.182 1.885.546s.728.94.728 1.729V248zm-2.86-.78c.684 0 1.183-.217 1.495-.65v-.949c-.312-.433-.811-.65-1.495-.65-.39 0-.711.104-.962.312a1.01 1.01 0 0 0-.377.819 1.01 1.01 0 0 0 .377.819c.251.199.572.299.962.299zm5.305-6.266c-.225 0-.424-.082-.598-.247-.164-.165-.247-.364-.247-.598s.083-.433.247-.598c.174-.165.373-.247.598-.247a.81.81 0 0 1 .598.247c.165.165.247.364.247.598s-.082.433-.247.598a.81.81 0 0 1-.598.247zm.689 7.046h-1.365v-6.279h1.365V248zm3.136 0h-1.365v-8.671h1.365V248zm3.916.156c-1.127 0-2.024-.325-2.691-.975l.624-.988c.234.243.55.451.949.624s.793.26 1.183.26c.399 0 .702-.078.91-.234a.72.72 0 0 0 .325-.611c0-.225-.13-.399-.39-.52-.26-.13-.576-.23-.949-.299l-1.118-.273a2.12 2.12 0 0 1-.949-.585c-.26-.277-.39-.637-.39-1.079 0-.537.221-.988.663-1.352.442-.373 1.044-.559 1.807-.559.962 0 1.777.295 2.444.884l-.572.962a2.16 2.16 0 0 0-.793-.546c-.329-.139-.685-.208-1.066-.208-.355 0-.641.074-.858.221-.208.139-.312.321-.312.546 0 .173.091.316.273.429a2.39 2.39 0 0 0 .702.234 9.43 9.43 0 0 1 .923.221c.329.087.633.191.91.312.286.121.52.321.702.598.191.269.286.598.286.988a1.71 1.71 0 0 1-.689 1.404c-.459.364-1.101.546-1.924.546z" fill="#1d1d26"/><circle cx="60" cy="244" r="8" fill="#fb9090"/><circle cx="60" cy="217" r="8" fill="#c7fc9d"/><circle cx="60" cy="162" r="8" fill="#a4d2fd"/><path d="M196.227 247.532c-.633.416-1.417.624-2.353.624s-1.725-.208-2.366-.624c-.641-.425-.962-1.01-.962-1.755a1.95 1.95 0 0 1 .546-1.378c.373-.39.841-.68 1.404-.871-.537-.173-.975-.429-1.313-.767-.329-.338-.494-.767-.494-1.287 0-.381.091-.724.273-1.027.191-.303.438-.542.741-.715.312-.173.65-.303 1.014-.39.373-.095.758-.143 1.157-.143a4.51 4.51 0 0 1 1.144.143c.364.087.702.217 1.014.39s.559.412.741.715c.191.303.286.646.286 1.027 0 .979-.607 1.664-1.82 2.054.563.191 1.027.481 1.391.871.373.39.559.849.559 1.378 0 .745-.321 1.33-.962 1.755zm-2.353-4.602a5.52 5.52 0 0 0 .676-.169c.217-.078.429-.208.637-.39.217-.191.325-.412.325-.663 0-.355-.156-.637-.468-.845-.303-.208-.693-.312-1.17-.312-.485 0-.884.104-1.196.312-.303.208-.455.49-.455.845 0 .251.108.472.325.663.217.182.433.312.65.39a5.52 5.52 0 0 0 .676.169zm0 3.874c.494 0 .914-.113 1.261-.338s.52-.52.52-.884c0-.39-.204-.702-.611-.936-.399-.243-.789-.386-1.17-.429-.225.026-.464.087-.715.182-.251.087-.494.238-.728.455-.234.208-.351.451-.351.728 0 .364.169.659.507.884.347.225.776.338 1.287.338zm6.366-3.302c-.632 0-1.148-.199-1.547-.598-.398-.407-.598-.919-.598-1.534 0-.624.2-1.14.598-1.547.399-.416.915-.624 1.547-.624.642 0 1.162.208 1.56.624.408.407.611.923.611 1.547 0 .615-.203 1.127-.611 1.534-.398.399-.918.598-1.56.598zm.026 4.498h-.858l5.538-8.671h.871L200.266 248zm6.188-.442c-.398.399-.914.598-1.547.598s-1.148-.199-1.547-.598c-.398-.407-.598-.919-.598-1.534 0-.624.2-1.14.598-1.547.399-.416.915-.624 1.547-.624s1.149.208 1.547.624c.408.416.611.932.611 1.547s-.203 1.127-.611 1.534zm-6.214-4.914c.338 0 .616-.117.832-.351.217-.243.325-.55.325-.923 0-.39-.108-.702-.325-.936-.216-.243-.494-.364-.832-.364s-.615.121-.832.364c-.208.234-.312.546-.312.936 0 .373.109.68.325.923a1.07 1.07 0 0 0 .819.351zm3.835 4.303c.217.234.494.351.832.351s.616-.117.832-.351c.217-.243.325-.55.325-.923 0-.39-.108-.702-.325-.936-.216-.243-.494-.364-.832-.364s-.615.121-.832.364c-.208.234-.312.546-.312.936 0 .373.104.68.312.923zM194.017 221h-1.521v-6.695l-1.417 1.469-.884-.923 2.496-2.522h1.326V221zm6.485-.234c-.459.26-.979.39-1.56.39s-1.1-.13-1.56-.39-.823-.607-1.092-1.04a5.27 5.27 0 0 1-.611-1.43 6.31 6.31 0 0 1-.208-1.625 6.31 6.31 0 0 1 .208-1.625c.139-.52.343-.992.611-1.417.269-.433.633-.78 1.092-1.04s.98-.39 1.56-.39 1.101.13 1.56.39a2.99 2.99 0 0 1 1.092 1.04c.269.425.473.897.611 1.417a6.31 6.31 0 0 1 .208 1.625c0 .563-.069 1.105-.208 1.625a5.24 5.24 0 0 1-.611 1.43 2.99 2.99 0 0 1-1.092 1.04zm-3.016-1.846a1.54 1.54 0 0 0 1.456.884 1.54 1.54 0 0 0 1.456-.884c.312-.589.468-1.339.468-2.249 0-.581-.06-1.096-.182-1.547-.112-.451-.32-.823-.624-1.118-.294-.303-.667-.455-1.118-.455s-.827.152-1.131.455c-.294.295-.502.667-.624 1.118-.112.451-.169.966-.169 1.547 0 .91.156 1.66.468 2.249zm7.972-2.418c-.632 0-1.148-.199-1.547-.598-.398-.407-.598-.919-.598-1.534 0-.624.2-1.14.598-1.547.399-.416.915-.624 1.547-.624.642 0 1.162.208 1.56.624.408.407.611.923.611 1.547 0 .615-.203 1.127-.611 1.534-.398.399-.918.598-1.56.598zm.026 4.498h-.858l5.538-8.671h.871L205.484 221zm6.188-.442c-.398.399-.914.598-1.547.598s-1.148-.199-1.547-.598c-.398-.407-.598-.919-.598-1.534 0-.624.2-1.14.598-1.547.399-.416.915-.624 1.547-.624s1.149.208 1.547.624c.408.416.611.932.611 1.547s-.203 1.127-.611 1.534zm-6.214-4.914c.338 0 .616-.117.832-.351.217-.243.325-.55.325-.923 0-.39-.108-.702-.325-.936-.216-.243-.494-.364-.832-.364s-.615.121-.832.364c-.208.234-.312.546-.312.936 0 .373.109.68.325.923a1.07 1.07 0 0 0 .819.351zm3.835 4.303c.217.234.494.351.832.351s.616-.117.832-.351c.217-.243.325-.55.325-.923 0-.39-.108-.702-.325-.936-.216-.243-.494-.364-.832-.364s-.615.121-.832.364c-.208.234-.312.546-.312.936 0 .373.104.68.312.923zM196.929 193h-6.279v-1.196l3.692-3.042c.659-.667.988-1.296.988-1.885 0-.425-.156-.75-.468-.975-.303-.234-.672-.351-1.105-.351-.953 0-1.733.347-2.34 1.04l-.884-1.001c.373-.451.841-.793 1.404-1.027a4.54 4.54 0 0 1 1.794-.364c.884 0 1.629.238 2.236.715s.91 1.131.91 1.963c0 .745-.312 1.486-.936 2.223s-1.577 1.59-2.86 2.561h3.848V193zm7.731 0h-6.279v-1.196l3.692-3.042c.659-.667.988-1.296.988-1.885 0-.425-.156-.75-.468-.975-.303-.234-.671-.351-1.105-.351-.953 0-1.733.347-2.34 1.04l-.884-1.001c.373-.451.841-.793 1.404-1.027a4.54 4.54 0 0 1 1.794-.364c.884 0 1.63.238 2.236.715s.91 1.131.91 1.963c0 .745-.312 1.486-.936 2.223s-1.577 1.59-2.86 2.561h3.848V193zm3.312-4.498c-.633 0-1.148-.199-1.547-.598-.399-.407-.598-.919-.598-1.534 0-.624.199-1.14.598-1.547.399-.416.914-.624 1.547-.624.641 0 1.161.208 1.56.624.407.407.611.923.611 1.547 0 .615-.204 1.127-.611 1.534-.399.399-.919.598-1.56.598zm.026 4.498h-.858l5.538-8.671h.871L207.998 193zm6.188-.442c-.399.399-.914.598-1.547.598s-1.148-.199-1.547-.598c-.399-.407-.598-.919-.598-1.534 0-.624.199-1.14.598-1.547.399-.416.914-.624 1.547-.624s1.148.208 1.547.624c.407.416.611.932.611 1.547s-.204 1.127-.611 1.534zm-6.214-4.914c.338 0 .615-.117.832-.351.217-.243.325-.55.325-.923 0-.39-.108-.702-.325-.936-.217-.243-.494-.364-.832-.364s-.615.121-.832.364c-.208.234-.312.546-.312.936 0 .373.108.68.325.923a1.07 1.07 0 0 0 .819.351zm3.835 4.303c.217.234.494.351.832.351s.615-.117.832-.351c.217-.243.325-.55.325-.923 0-.39-.108-.702-.325-.936-.217-.243-.494-.364-.832-.364s-.615.121-.832.364c-.208.234-.312.546-.312.936 0 .373.104.68.312.923z" fill="#1d1d26"/><path fill="#ffc95f" d="M0 116h619v19H0z"/><defs><filter id="A" x="5" y="107" width="259" height="194" filterUnits="userSpaceOnUse" color-interpolation-filters="sRGB"><feFlood flood-opacity="0" result="A"/><feColorMatrix in="SourceAlpha" values="0 0 0 0 0 0 0 0 0 0 0 0 0 0 0 0 0 0 127 0"/><feMorphology radius="5" operator="dilate" in="SourceAlpha"/><feOffset/><feGaussianBlur stdDeviation="15"/><feColorMatrix values="0 0 0 0 0.683333 0 0 0 0 0.683333 0 0 0 0 0.683333 0 0 0 0.18 0"/><feBlend in2="A"/><feBlend in="SourceGraphic"/></filter><path id="B" d="M332.346 514.079l-5.576-3.584a.5.5 0 0 0-.77.421v7.168a.5.5 0 0 0 .77.421l5.576-3.584a.5.5 0 0 0 0-.842z"/><path id="C" d="M326 514.5a.5.5 0 1 1 0 1v-1zm-21 1a.5.5 0 1 1 0-1v1zm21 0h-21v-1h21v1z"/></defs></svg>