<svg width="689" height="631" viewBox="0 0 689 631" fill="none" xmlns="http://www.w3.org/2000/svg">
<g filter="url(#filter0_d)">
<rect x="35" y="35" width="619" height="561" rx="20" fill="white"/>
<path d="M161.234 554V544.662H159.568L156.656 551.69L153.758 544.662H152.092V554H153.254V546.314L156.418 554H156.894L160.072 546.314V554H161.234ZM168.648 554V549.352C168.648 547.714 167.458 547.07 166.03 547.07C164.924 547.07 164.056 547.434 163.328 548.19L163.818 548.918C164.42 548.274 165.078 547.98 165.89 547.98C166.87 547.98 167.598 548.498 167.598 549.408V550.626C167.052 549.996 166.282 549.702 165.358 549.702C164.21 549.702 162.992 550.416 162.992 551.928C162.992 553.398 164.21 554.168 165.358 554.168C166.268 554.168 167.038 553.846 167.598 553.23V554H168.648ZM165.736 553.412C164.756 553.412 164.07 552.796 164.07 551.942C164.07 551.074 164.756 550.458 165.736 550.458C166.478 550.458 167.192 550.738 167.598 551.298V552.572C167.192 553.132 166.478 553.412 165.736 553.412ZM171.271 546.272C171.663 546.272 171.985 545.964 171.985 545.572C171.985 545.18 171.663 544.858 171.271 544.858C170.893 544.858 170.571 545.18 170.571 545.572C170.571 545.964 170.893 546.272 171.271 546.272ZM171.803 554V547.238H170.753V554H171.803ZM174.948 554V544.662H173.898V554H174.948ZM180.024 554.168C181.256 554.168 181.984 553.664 182.502 552.992L181.802 552.348C181.354 552.95 180.78 553.23 180.08 553.23C178.638 553.23 177.742 552.11 177.742 550.612C177.742 549.114 178.638 548.008 180.08 548.008C180.78 548.008 181.354 548.274 181.802 548.89L182.502 548.246C181.984 547.574 181.256 547.07 180.024 547.07C178.008 547.07 176.65 548.61 176.65 550.612C176.65 552.628 178.008 554.168 180.024 554.168ZM189.602 554V549.226C189.602 547.756 188.86 547.07 187.446 547.07C186.424 547.07 185.5 547.658 185.024 548.218V544.662H183.974V554H185.024V549.058C185.43 548.512 186.214 548.008 187.026 548.008C187.936 548.008 188.552 548.358 188.552 549.548V554H189.602ZM192.216 546.272C192.608 546.272 192.93 545.964 192.93 545.572C192.93 545.18 192.608 544.858 192.216 544.858C191.838 544.858 191.516 545.18 191.516 545.572C191.516 545.964 191.838 546.272 192.216 546.272ZM192.748 554V547.238H191.698V554H192.748ZM204.055 554V549.114C204.055 547.756 203.397 547.07 202.165 547.07C201.185 547.07 200.275 547.714 199.897 548.33C199.701 547.63 199.113 547.07 198.077 547.07C197.083 547.07 196.173 547.784 195.893 548.218V547.238H194.843V554H195.893V549.058C196.257 548.512 196.985 548.008 197.671 548.008C198.553 548.008 198.917 548.554 198.917 549.408V554H199.967V549.044C200.317 548.512 201.059 548.008 201.759 548.008C202.627 548.008 203.005 548.554 203.005 549.408V554H204.055ZM209.482 554.168C211.26 554.168 212.492 552.796 212.492 550.612C212.492 548.414 211.26 547.07 209.482 547.07C208.53 547.07 207.69 547.56 207.2 548.246V547.238H206.15V556.576H207.2V552.978C207.746 553.734 208.558 554.168 209.482 554.168ZM209.216 553.23C208.39 553.23 207.564 552.726 207.2 552.138V549.086C207.564 548.498 208.39 548.008 209.216 548.008C210.574 548.008 211.386 549.114 211.386 550.612C211.386 552.11 210.574 553.23 209.216 553.23Z" fill="white"/>
<path d="M385.254 553V549.29H387.844C389.692 549.29 390.77 548.002 390.77 546.476C390.77 544.95 389.72 543.662 387.844 543.662H384.092V553H385.254ZM387.704 548.254H385.254V544.698H387.704C388.81 544.698 389.566 545.426 389.566 546.476C389.566 547.526 388.81 548.254 387.704 548.254ZM392.785 545.272C393.177 545.272 393.499 544.964 393.499 544.572C393.499 544.18 393.177 543.858 392.785 543.858C392.407 543.858 392.085 544.18 392.085 544.572C392.085 544.964 392.407 545.272 392.785 545.272ZM393.317 553V546.238H392.267V553H393.317ZM401.025 553V548.254C401.025 546.784 400.283 546.07 398.869 546.07C397.861 546.07 396.937 546.658 396.461 547.218V546.238H395.411V553H396.461V548.058C396.853 547.512 397.637 547.008 398.463 547.008C399.373 547.008 399.975 547.386 399.975 548.576V553H401.025ZM404.83 553.168C405.446 553.168 405.824 552.986 406.09 552.734L405.782 551.95C405.642 552.104 405.362 552.23 405.068 552.23C404.606 552.23 404.382 551.866 404.382 551.362V547.162H405.754V546.238H404.382V544.39H403.332V546.238H402.212V547.162H403.332V551.586C403.332 552.594 403.836 553.168 404.83 553.168ZM410.29 553.168C411.396 553.168 412.306 552.804 412.978 552.132L412.474 551.446C411.942 551.992 411.158 552.3 410.388 552.3C408.932 552.3 408.035 551.236 407.952 549.962H413.426V549.696C413.426 547.666 412.222 546.07 410.178 546.07C408.245 546.07 406.846 547.652 406.846 549.612C406.846 551.726 408.288 553.168 410.29 553.168ZM412.39 549.192H407.952C408.008 548.156 408.722 546.938 410.164 546.938C411.704 546.938 412.376 548.184 412.39 549.192ZM416.176 553V548.212C416.484 547.666 417.366 547.134 418.01 547.134C418.178 547.134 418.304 547.148 418.43 547.176V546.098C417.506 546.098 416.722 546.616 416.176 547.33V546.238H415.126V553H416.176ZM422.799 553.168C423.905 553.168 424.815 552.804 425.487 552.132L424.983 551.446C424.451 551.992 423.667 552.3 422.897 552.3C421.441 552.3 420.545 551.236 420.461 549.962H425.935V549.696C425.935 547.666 424.731 546.07 422.687 546.07C420.755 546.07 419.355 547.652 419.355 549.612C419.355 551.726 420.797 553.168 422.799 553.168ZM424.899 549.192H420.461C420.517 548.156 421.231 546.938 422.673 546.938C424.213 546.938 424.885 548.184 424.899 549.192ZM429.778 553.168C431.528 553.168 432.438 552.258 432.438 551.124C432.438 548.492 428.252 549.472 428.252 547.988C428.252 547.386 428.826 546.924 429.75 546.924C430.618 546.924 431.36 547.288 431.766 547.778L432.256 547.05C431.71 546.504 430.898 546.07 429.75 546.07C428.14 546.07 427.23 546.966 427.23 548.016C427.23 550.522 431.416 549.514 431.416 551.152C431.416 551.824 430.856 552.314 429.82 552.314C428.896 552.314 428.042 551.866 427.594 551.348L427.048 552.104C427.734 552.832 428.672 553.168 429.778 553.168ZM435.852 553.168C436.468 553.168 436.846 552.986 437.112 552.734L436.804 551.95C436.664 552.104 436.384 552.23 436.09 552.23C435.628 552.23 435.404 551.866 435.404 551.362V547.162H436.776V546.238H435.404V544.39H434.354V546.238H433.234V547.162H434.354V551.586C434.354 552.594 434.858 553.168 435.852 553.168Z" fill="white"/>
<path d="M367.346 549.079L361.77 545.495C361.438 545.281 361 545.52 361 545.916V553.084C361 553.48 361.438 553.719 361.77 553.505L367.346 549.921C367.652 549.724 367.652 549.276 367.346 549.079Z" fill="white"/>
<path d="M361 549.5C361.276 549.5 361.5 549.724 361.5 550C361.5 550.276 361.276 550.5 361 550.5V549.5ZM340 550.5C339.724 550.5 339.5 550.276 339.5 550C339.5 549.724 339.724 549.5 340 549.5V550.5ZM361 550.5H340V549.5H361V550.5Z" fill="white"/>
<path d="M268.254 554V549.744H273.112V548.708H268.254V545.698H273.21V544.662H267.092V554H268.254ZM280.025 554V549.352C280.025 547.714 278.835 547.07 277.407 547.07C276.301 547.07 275.433 547.434 274.705 548.19L275.195 548.918C275.797 548.274 276.455 547.98 277.267 547.98C278.247 547.98 278.975 548.498 278.975 549.408V550.626C278.429 549.996 277.659 549.702 276.735 549.702C275.587 549.702 274.369 550.416 274.369 551.928C274.369 553.398 275.587 554.168 276.735 554.168C277.645 554.168 278.415 553.846 278.975 553.23V554H280.025ZM277.113 553.412C276.133 553.412 275.447 552.796 275.447 551.942C275.447 551.074 276.133 550.458 277.113 550.458C277.855 550.458 278.569 550.738 278.975 551.298V552.572C278.569 553.132 277.855 553.412 277.113 553.412ZM285.112 554.168C286.344 554.168 287.072 553.664 287.59 552.992L286.89 552.348C286.442 552.95 285.868 553.23 285.168 553.23C283.726 553.23 282.83 552.11 282.83 550.612C282.83 549.114 283.726 548.008 285.168 548.008C285.868 548.008 286.442 548.274 286.89 548.89L287.59 548.246C287.072 547.574 286.344 547.07 285.112 547.07C283.096 547.07 281.738 548.61 281.738 550.612C281.738 552.628 283.096 554.168 285.112 554.168ZM292.114 554.168C293.22 554.168 294.13 553.804 294.802 553.132L294.298 552.446C293.766 552.992 292.982 553.3 292.212 553.3C290.756 553.3 289.86 552.236 289.776 550.962H295.25V550.696C295.25 548.666 294.046 547.07 292.002 547.07C290.07 547.07 288.67 548.652 288.67 550.612C288.67 552.726 290.112 554.168 292.114 554.168ZM294.214 550.192H289.776C289.832 549.156 290.546 547.938 291.988 547.938C293.528 547.938 294.2 549.184 294.214 550.192ZM298 552.166V549.1C298.364 548.512 299.19 548.008 300.016 548.008C301.388 548.008 302.2 549.128 302.2 550.626C302.2 552.124 301.388 553.23 300.016 553.23C299.19 553.23 298.364 552.754 298 552.166ZM298 554V552.992C298.504 553.678 299.33 554.168 300.282 554.168C302.046 554.168 303.292 552.824 303.292 550.626C303.292 548.47 302.046 547.07 300.282 547.07C299.358 547.07 298.546 547.518 298 548.26V544.662H296.95V554H298ZM307.957 554.168C310.015 554.168 311.303 552.572 311.303 550.612C311.303 548.652 310.015 547.07 307.957 547.07C305.899 547.07 304.611 548.652 304.611 550.612C304.611 552.572 305.899 554.168 307.957 554.168ZM307.957 553.23C306.515 553.23 305.703 551.998 305.703 550.612C305.703 549.24 306.515 548.008 307.957 548.008C309.399 548.008 310.197 549.24 310.197 550.612C310.197 551.998 309.399 553.23 307.957 553.23ZM315.969 554.168C318.027 554.168 319.315 552.572 319.315 550.612C319.315 548.652 318.027 547.07 315.969 547.07C313.911 547.07 312.623 548.652 312.623 550.612C312.623 552.572 313.911 554.168 315.969 554.168ZM315.969 553.23C314.527 553.23 313.715 551.998 313.715 550.612C313.715 549.24 314.527 548.008 315.969 548.008C317.411 548.008 318.209 549.24 318.209 550.612C318.209 551.998 317.411 553.23 315.969 553.23ZM326.977 554L323.967 550.304L326.963 547.238H325.633L322.077 550.836V544.662H321.027V554H322.077V552.068L323.197 550.962L325.633 554H326.977Z" fill="white"/>
<path d="M252.346 549.079L246.77 545.495C246.438 545.281 246 545.52 246 545.916V553.084C246 553.48 246.438 553.719 246.77 553.505L252.346 549.921C252.652 549.724 252.652 549.276 252.346 549.079Z" fill="white"/>
<path d="M246 549.5C246.276 549.5 246.5 549.724 246.5 550C246.5 550.276 246.276 550.5 246 550.5V549.5ZM225 550.5C224.724 550.5 224.5 550.276 224.5 550C224.5 549.724 224.724 549.5 225 549.5V550.5ZM246 550.5H225V549.5H246V550.5Z" fill="white"/>
<path d="M495.348 554.168C498.106 554.168 499.982 552.096 499.982 549.338C499.982 546.58 498.106 544.508 495.348 544.508C492.576 544.508 490.714 546.58 490.714 549.338C490.714 552.096 492.576 554.168 495.348 554.168ZM495.348 553.132C493.248 553.132 491.918 551.508 491.918 549.338C491.918 547.154 493.248 545.544 495.348 545.544C497.434 545.544 498.778 547.154 498.778 549.338C498.778 551.508 497.434 553.132 495.348 553.132ZM502.805 554V549.212C503.113 548.666 503.995 548.134 504.639 548.134C504.807 548.134 504.933 548.148 505.059 548.176V547.098C504.135 547.098 503.351 547.616 502.805 548.33V547.238H501.755V554H502.805ZM509.092 556.744C510.744 556.744 512.312 556.044 512.312 553.804V547.238H511.262V548.26C510.716 547.518 509.904 547.07 508.994 547.07C507.216 547.07 505.984 548.414 505.984 550.584C505.984 552.768 507.23 554.084 508.994 554.084C509.946 554.084 510.772 553.566 511.262 552.88V553.846C511.262 555.33 510.212 555.876 509.092 555.876C508.126 555.876 507.454 555.624 506.894 554.952L506.362 555.736C507.16 556.52 507.944 556.744 509.092 556.744ZM509.246 553.16C507.888 553.16 507.076 552.068 507.076 550.584C507.076 549.086 507.888 548.008 509.246 548.008C510.086 548.008 510.898 548.512 511.262 549.1V552.054C510.898 552.642 510.086 553.16 509.246 553.16ZM519.693 554V549.352C519.693 547.714 518.503 547.07 517.075 547.07C515.969 547.07 515.101 547.434 514.373 548.19L514.863 548.918C515.465 548.274 516.123 547.98 516.935 547.98C517.915 547.98 518.643 548.498 518.643 549.408V550.626C518.097 549.996 517.327 549.702 516.403 549.702C515.255 549.702 514.037 550.416 514.037 551.928C514.037 553.398 515.255 554.168 516.403 554.168C517.313 554.168 518.083 553.846 518.643 553.23V554H519.693ZM516.781 553.412C515.801 553.412 515.115 552.796 515.115 551.942C515.115 551.074 515.801 550.458 516.781 550.458C517.523 550.458 518.237 550.738 518.643 551.298V552.572C518.237 553.132 517.523 553.412 516.781 553.412ZM527.412 554V549.254C527.412 547.784 526.67 547.07 525.256 547.07C524.248 547.07 523.324 547.658 522.848 548.218V547.238H521.798V554H522.848V549.058C523.24 548.512 524.024 548.008 524.85 548.008C525.76 548.008 526.362 548.386 526.362 549.576V554H527.412ZM530.027 546.272C530.419 546.272 530.741 545.964 530.741 545.572C530.741 545.18 530.419 544.858 530.027 544.858C529.649 544.858 529.327 545.18 529.327 545.572C529.327 545.964 529.649 546.272 530.027 546.272ZM530.559 554V547.238H529.509V554H530.559ZM535.636 554.168C536.868 554.168 537.596 553.664 538.114 552.992L537.414 552.348C536.966 552.95 536.392 553.23 535.692 553.23C534.25 553.23 533.354 552.11 533.354 550.612C533.354 549.114 534.25 548.008 535.692 548.008C536.392 548.008 536.966 548.274 537.414 548.89L538.114 548.246C537.596 547.574 536.868 547.07 535.636 547.07C533.62 547.07 532.262 548.61 532.262 550.612C532.262 552.628 533.62 554.168 535.636 554.168Z" fill="white"/>
<path d="M476.346 549.079L470.77 545.495C470.438 545.281 470 545.52 470 545.916V553.084C470 553.48 470.438 553.719 470.77 553.505L476.346 549.921C476.652 549.724 476.652 549.276 476.346 549.079Z" fill="white"/>
<path d="M470 549.5C470.276 549.5 470.5 549.724 470.5 550C470.5 550.276 470.276 550.5 470 550.5V549.5ZM449 550.5C448.724 550.5 448.5 550.276 448.5 550C448.5 549.724 448.724 549.5 449 549.5V550.5ZM470 550.5H449V549.5H470V550.5Z" fill="white"/>
<path d="M164.576 100L158.12 83.992H155.648L149.216 100H151.496L152.912 96.448H160.88L162.296 100H164.576ZM160.28 94.672H153.488L156.896 86.056L160.28 94.672ZM169.267 100.288C170.323 100.288 170.971 99.976 171.427 99.544L170.899 98.2C170.659 98.464 170.179 98.68 169.675 98.68C168.883 98.68 168.499 98.056 168.499 97.192V89.992H170.851V88.408H168.499V85.24H166.699V88.408H164.779V89.992H166.699V97.576C166.699 99.304 167.563 100.288 169.267 100.288ZM176.322 100.288C177.378 100.288 178.026 99.976 178.482 99.544L177.954 98.2C177.714 98.464 177.234 98.68 176.73 98.68C175.938 98.68 175.554 98.056 175.554 97.192V89.992H177.906V88.408H175.554V85.24H173.754V88.408H171.834V89.992H173.754V97.576C173.754 99.304 174.618 100.288 176.322 100.288ZM182.248 100V91.792C182.776 90.856 184.288 89.944 185.392 89.944C185.68 89.944 185.896 89.968 186.112 90.016V88.168C184.528 88.168 183.184 89.056 182.248 90.28V88.408H180.448V100H182.248ZM189.258 86.752C189.93 86.752 190.482 86.224 190.482 85.552C190.482 84.88 189.93 84.328 189.258 84.328C188.61 84.328 188.058 84.88 188.058 85.552C188.058 86.224 188.61 86.752 189.258 86.752ZM190.17 100V88.408H188.37V100H190.17ZM195.561 96.856V91.6C196.185 90.592 197.601 89.728 199.017 89.728C201.369 89.728 202.761 91.648 202.761 94.216C202.761 96.784 201.369 98.68 199.017 98.68C197.601 98.68 196.185 97.864 195.561 96.856ZM195.561 100V98.272C196.425 99.448 197.841 100.288 199.473 100.288C202.497 100.288 204.633 97.984 204.633 94.216C204.633 90.52 202.497 88.12 199.473 88.12C197.889 88.12 196.497 88.888 195.561 90.16V83.992H193.761V100H195.561ZM217.19 100V88.408H215.39V96.928C214.718 97.864 213.374 98.68 211.958 98.68C210.398 98.68 209.366 98.08 209.366 96.04V88.408H207.566V96.592C207.566 99.112 208.838 100.288 211.262 100.288C212.99 100.288 214.502 99.376 215.39 98.368V100H217.19ZM223.712 100.288C224.768 100.288 225.416 99.976 225.872 99.544L225.344 98.2C225.104 98.464 224.624 98.68 224.12 98.68C223.328 98.68 222.944 98.056 222.944 97.192V89.992H225.296V88.408H222.944V85.24H221.144V88.408H219.224V89.992H221.144V97.576C221.144 99.304 222.008 100.288 223.712 100.288ZM228.727 86.752C229.399 86.752 229.951 86.224 229.951 85.552C229.951 84.88 229.399 84.328 228.727 84.328C228.079 84.328 227.527 84.88 227.527 85.552C227.527 86.224 228.079 86.752 228.727 86.752ZM229.639 100V88.408H227.839V100H229.639ZM238.294 100.288C241.822 100.288 244.03 97.552 244.03 94.192C244.03 90.832 241.822 88.12 238.294 88.12C234.766 88.12 232.558 90.832 232.558 94.192C232.558 97.552 234.766 100.288 238.294 100.288ZM238.294 98.68C235.822 98.68 234.43 96.568 234.43 94.192C234.43 91.84 235.822 89.728 238.294 89.728C240.766 89.728 242.134 91.84 242.134 94.192C242.134 96.568 240.766 98.68 238.294 98.68ZM256.588 100V91.864C256.588 89.344 255.316 88.12 252.892 88.12C251.164 88.12 249.58 89.128 248.764 90.088V88.408H246.964V100H248.764V91.528C249.436 90.592 250.78 89.728 252.196 89.728C253.756 89.728 254.788 90.376 254.788 92.416V100H256.588ZM272.082 100.288C275.13 100.288 277.242 97.936 277.242 94.192C277.242 90.424 275.13 88.12 272.082 88.12C270.45 88.12 269.01 88.96 268.17 90.136V88.408H266.37V104.416H268.17V98.248C269.106 99.544 270.498 100.288 272.082 100.288ZM271.626 98.68C270.21 98.68 268.794 97.816 268.17 96.808V91.576C268.794 90.568 270.21 89.728 271.626 89.728C273.954 89.728 275.346 91.624 275.346 94.192C275.346 96.76 273.954 98.68 271.626 98.68ZM285.337 100.288C287.233 100.288 288.793 99.664 289.945 98.512L289.081 97.336C288.169 98.272 286.825 98.8 285.505 98.8C283.009 98.8 281.473 96.976 281.329 94.792H290.713V94.336C290.713 90.856 288.649 88.12 285.145 88.12C281.833 88.12 279.433 90.832 279.433 94.192C279.433 97.816 281.905 100.288 285.337 100.288ZM288.937 93.472H281.329C281.425 91.696 282.649 89.608 285.121 89.608C287.761 89.608 288.913 91.744 288.937 93.472ZM295.428 100V91.792C295.956 90.856 297.468 89.944 298.572 89.944C298.86 89.944 299.076 89.968 299.292 90.016V88.168C297.708 88.168 296.364 89.056 295.428 90.28V88.408H293.628V100H295.428ZM306.662 100.288C308.774 100.288 310.022 99.424 310.91 98.272L309.71 97.168C308.942 98.2 307.958 98.68 306.758 98.68C304.286 98.68 302.75 96.76 302.75 94.192C302.75 91.624 304.286 89.728 306.758 89.728C307.958 89.728 308.942 90.184 309.71 91.24L310.91 90.136C310.022 88.984 308.774 88.12 306.662 88.12C303.206 88.12 300.878 90.76 300.878 94.192C300.878 97.648 303.206 100.288 306.662 100.288ZM318.665 100.288C320.561 100.288 322.121 99.664 323.273 98.512L322.409 97.336C321.497 98.272 320.153 98.8 318.833 98.8C316.337 98.8 314.801 96.976 314.657 94.792H324.041V94.336C324.041 90.856 321.977 88.12 318.473 88.12C315.161 88.12 312.761 90.832 312.761 94.192C312.761 97.816 315.233 100.288 318.665 100.288ZM322.265 93.472H314.657C314.753 91.696 315.977 89.608 318.449 89.608C321.089 89.608 322.241 91.744 322.265 93.472ZM336.58 100V91.864C336.58 89.344 335.308 88.12 332.884 88.12C331.156 88.12 329.572 89.128 328.756 90.088V88.408H326.956V100H328.756V91.528C329.428 90.592 330.772 89.728 332.188 89.728C333.748 89.728 334.78 90.376 334.78 92.416V100H336.58ZM343.103 100.288C344.159 100.288 344.807 99.976 345.263 99.544L344.735 98.2C344.495 98.464 344.015 98.68 343.511 98.68C342.719 98.68 342.335 98.056 342.335 97.192V89.992H344.687V88.408H342.335V85.24H340.535V88.408H338.615V89.992H340.535V97.576C340.535 99.304 341.399 100.288 343.103 100.288ZM356.278 100V92.032C356.278 89.224 354.238 88.12 351.79 88.12C349.894 88.12 348.406 88.744 347.158 90.04L347.998 91.288C349.03 90.184 350.158 89.68 351.55 89.68C353.23 89.68 354.478 90.568 354.478 92.128V94.216C353.542 93.136 352.222 92.632 350.638 92.632C348.67 92.632 346.582 93.856 346.582 96.448C346.582 98.968 348.67 100.288 350.638 100.288C352.198 100.288 353.518 99.736 354.478 98.68V100H356.278ZM351.286 98.992C349.606 98.992 348.43 97.936 348.43 96.472C348.43 94.984 349.606 93.928 351.286 93.928C352.558 93.928 353.782 94.408 354.478 95.368V97.552C353.782 98.512 352.558 98.992 351.286 98.992ZM364.542 104.704C367.374 104.704 370.062 103.504 370.062 99.664V88.408H368.262V90.16C367.326 88.888 365.934 88.12 364.374 88.12C361.326 88.12 359.214 90.424 359.214 94.144C359.214 97.888 361.35 100.144 364.374 100.144C366.006 100.144 367.422 99.256 368.262 98.08V99.736C368.262 102.28 366.462 103.216 364.542 103.216C362.886 103.216 361.734 102.784 360.774 101.632L359.862 102.976C361.23 104.32 362.574 104.704 364.542 104.704ZM364.806 98.56C362.478 98.56 361.086 96.688 361.086 94.144C361.086 91.576 362.478 89.728 364.806 89.728C366.246 89.728 367.638 90.592 368.262 91.6V96.664C367.638 97.672 366.246 98.56 364.806 98.56ZM378.899 100.288C380.795 100.288 382.355 99.664 383.507 98.512L382.643 97.336C381.731 98.272 380.387 98.8 379.067 98.8C376.571 98.8 375.035 96.976 374.891 94.792H384.275V94.336C384.275 90.856 382.211 88.12 378.707 88.12C375.395 88.12 372.995 90.832 372.995 94.192C372.995 97.816 375.467 100.288 378.899 100.288ZM382.499 93.472H374.891C374.987 91.696 376.211 89.608 378.683 89.608C381.323 89.608 382.475 91.744 382.499 93.472ZM395.682 100V89.992H398.034V88.408H395.682V87.52C395.682 86.056 396.33 85.24 397.506 85.24C398.106 85.24 398.562 85.48 398.946 85.816L399.69 84.64C398.97 83.968 398.154 83.752 397.242 83.752C395.178 83.752 393.882 85.144 393.882 87.52V88.408H391.962V89.992H393.882V100H395.682ZM405.239 100.288C408.767 100.288 410.975 97.552 410.975 94.192C410.975 90.832 408.767 88.12 405.239 88.12C401.711 88.12 399.503 90.832 399.503 94.192C399.503 97.552 401.711 100.288 405.239 100.288ZM405.239 98.68C402.767 98.68 401.375 96.568 401.375 94.192C401.375 91.84 402.767 89.728 405.239 89.728C407.711 89.728 409.079 91.84 409.079 94.192C409.079 96.568 407.711 98.68 405.239 98.68ZM415.709 100V91.792C416.237 90.856 417.749 89.944 418.853 89.944C419.141 89.944 419.357 89.968 419.573 90.016V88.168C417.989 88.168 416.645 89.056 415.709 90.28V88.408H413.909V100H415.709ZM433.251 100.288C435.147 100.288 436.707 99.664 437.859 98.512L436.995 97.336C436.083 98.272 434.739 98.8 433.419 98.8C430.923 98.8 429.387 96.976 429.243 94.792H438.627V94.336C438.627 90.856 436.563 88.12 433.059 88.12C429.747 88.12 427.347 90.832 427.347 94.192C427.347 97.816 429.819 100.288 433.251 100.288ZM436.851 93.472H429.243C429.339 91.696 430.563 89.608 433.035 89.608C435.675 89.608 436.827 91.744 436.851 93.472ZM446.606 100L451.43 88.408H449.462L445.622 97.912L441.758 88.408H439.814L444.638 100H446.606ZM458.54 100.288C460.436 100.288 461.996 99.664 463.148 98.512L462.284 97.336C461.372 98.272 460.028 98.8 458.708 98.8C456.212 98.8 454.676 96.976 454.532 94.792H463.916V94.336C463.916 90.856 461.852 88.12 458.348 88.12C455.036 88.12 452.636 90.832 452.636 94.192C452.636 97.816 455.108 100.288 458.54 100.288ZM462.14 93.472H454.532C454.628 91.696 455.852 89.608 458.324 89.608C460.964 89.608 462.116 91.744 462.14 93.472ZM468.631 100V91.792C469.159 90.856 470.671 89.944 471.775 89.944C472.063 89.944 472.279 89.968 472.495 90.016V88.168C470.911 88.168 469.567 89.056 468.631 90.28V88.408H466.831V100H468.631ZM474.105 104.536C474.441 104.632 475.041 104.704 475.425 104.704C476.961 104.68 478.137 104.032 478.833 102.352L484.641 88.408H482.673L478.833 97.912L474.969 88.408H473.025L477.873 100.12L477.105 101.872C476.697 102.832 476.169 103.096 475.377 103.096C475.089 103.096 474.657 103.024 474.393 102.904L474.105 104.536ZM497.818 100.288C499.93 100.288 501.178 99.424 502.066 98.272L500.866 97.168C500.098 98.2 499.114 98.68 497.914 98.68C495.442 98.68 493.906 96.76 493.906 94.192C493.906 91.624 495.442 89.728 497.914 89.728C499.114 89.728 500.098 90.184 500.866 91.24L502.066 90.136C501.178 88.984 499.93 88.12 497.818 88.12C494.362 88.12 492.034 90.76 492.034 94.192C492.034 97.648 494.362 100.288 497.818 100.288ZM509.653 100.288C513.181 100.288 515.389 97.552 515.389 94.192C515.389 90.832 513.181 88.12 509.653 88.12C506.125 88.12 503.917 90.832 503.917 94.192C503.917 97.552 506.125 100.288 509.653 100.288ZM509.653 98.68C507.181 98.68 505.789 96.568 505.789 94.192C505.789 91.84 507.181 89.728 509.653 89.728C512.125 89.728 513.493 91.84 513.493 94.192C513.493 96.568 512.125 98.68 509.653 98.68ZM527.947 100V91.864C527.947 89.344 526.675 88.12 524.251 88.12C522.523 88.12 520.939 89.128 520.123 90.088V88.408H518.323V100H520.123V91.528C520.795 90.592 522.139 89.728 523.555 89.728C525.115 89.728 526.147 90.376 526.147 92.416V100H527.947ZM536.606 100L541.43 88.408H539.462L535.622 97.912L531.758 88.408H529.814L534.638 100H536.606ZM548.54 100.288C550.436 100.288 551.996 99.664 553.148 98.512L552.284 97.336C551.372 98.272 550.028 98.8 548.708 98.8C546.212 98.8 544.676 96.976 544.532 94.792H553.916V94.336C553.916 90.856 551.852 88.12 548.348 88.12C545.036 88.12 542.636 90.832 542.636 94.192C542.636 97.816 545.108 100.288 548.54 100.288ZM552.14 93.472H544.532C544.628 91.696 545.852 89.608 548.324 89.608C550.964 89.608 552.116 91.744 552.14 93.472ZM558.631 100V91.792C559.159 90.856 560.671 89.944 561.775 89.944C562.063 89.944 562.279 89.968 562.495 90.016V88.168C560.911 88.168 559.567 89.056 558.631 90.28V88.408H556.831V100H558.631ZM568.425 100.288C571.425 100.288 572.985 98.728 572.985 96.784C572.985 92.272 565.809 93.952 565.809 91.408C565.809 90.376 566.793 89.584 568.377 89.584C569.865 89.584 571.137 90.208 571.833 91.048L572.673 89.8C571.737 88.864 570.345 88.12 568.377 88.12C565.617 88.12 564.057 89.656 564.057 91.456C564.057 95.752 571.233 94.024 571.233 96.832C571.233 97.984 570.273 98.824 568.497 98.824C566.913 98.824 565.449 98.056 564.681 97.168L563.745 98.464C564.921 99.712 566.529 100.288 568.425 100.288ZM576.797 86.752C577.469 86.752 578.021 86.224 578.021 85.552C578.021 84.88 577.469 84.328 576.797 84.328C576.149 84.328 575.597 84.88 575.597 85.552C575.597 86.224 576.149 86.752 576.797 86.752ZM577.709 100V88.408H575.909V100H577.709ZM586.364 100.288C589.892 100.288 592.1 97.552 592.1 94.192C592.1 90.832 589.892 88.12 586.364 88.12C582.836 88.12 580.628 90.832 580.628 94.192C580.628 97.552 582.836 100.288 586.364 100.288ZM586.364 98.68C583.892 98.68 582.5 96.568 582.5 94.192C582.5 91.84 583.892 89.728 586.364 89.728C588.836 89.728 590.204 91.84 590.204 94.192C590.204 96.568 588.836 98.68 586.364 98.68ZM604.658 100V91.864C604.658 89.344 603.386 88.12 600.962 88.12C599.234 88.12 597.65 89.128 596.834 90.088V88.408H595.034V100H596.834V91.528C597.506 90.592 598.85 89.728 600.266 89.728C601.826 89.728 602.858 90.376 602.858 92.416V100H604.658Z" fill="#3A3A3A"/>
<path d="M35 171C35 159.954 43.9543 151 55 151H634C645.046 151 654 159.954 654 171V576C654 587.046 645.046 596 634 596H55C43.9543 596 35 587.046 35 576V171Z" fill="#FFC95F"/>
<path d="M35 151H654V170H35V151Z" fill="#FFC95F"/>
<path d="M83 499L198.531 397.138C200.228 395.641 202.72 395.471 204.605 396.724L272.431 441.799C274.3 443.041 276.767 442.886 278.466 441.42L374.388 358.616C376.999 356.362 381.053 357.366 382.311 360.577L425.485 470.811C426.953 474.56 432.026 475.124 434.282 471.789L474.657 412.099C475.524 410.817 476.936 410.009 478.481 409.911L579.439 403.483C581.219 403.37 582.803 402.317 583.598 400.721L603 361.733" stroke="#A4D9FD" stroke-width="6"/>
<path d="M83 456.908L282.337 509.371C283.843 509.767 285.449 509.439 286.679 508.482L448.091 382.949C450.209 381.302 453.25 381.62 454.981 383.671L541.269 485.897C542.219 487.022 543.617 487.672 545.09 487.672H603" stroke="#C7FC9D" stroke-width="6"/>
<path d="M81 439.297L278.41 460.889C279.08 460.962 279.758 460.899 280.403 460.704L446.286 410.456C447.266 410.159 448.312 410.17 449.285 410.487L536.955 439.051C537.455 439.214 537.978 439.297 538.504 439.297H598" stroke="#DC9EFA" stroke-width="6"/>
<path d="M83 474.796L226.364 546.41C227.138 546.797 227.999 546.976 228.862 546.93L308.643 542.71C309.524 542.663 310.377 542.384 311.116 541.901L386.546 492.572C387.359 492.04 388.31 491.756 389.282 491.756H540.092C541.913 491.756 543.59 490.766 544.47 489.171L608 374" stroke="#FB9090" stroke-width="6"/>
<g filter="url(#filter1_d)">
<rect x="77" y="177" width="177" height="116" rx="4" fill="white"/>
</g>
<path d="M226.396 202H220.6V200.896C222.272 199.632 223.408 198.696 224.008 198.088C224.616 197.472 224.92 196.892 224.92 196.348C224.92 195.956 224.776 195.656 224.488 195.448C224.208 195.232 223.868 195.124 223.468 195.124C222.588 195.124 221.868 195.444 221.308 196.084L220.492 195.16C220.836 194.744 221.268 194.428 221.788 194.212C222.316 193.988 222.868 193.876 223.444 193.876C224.26 193.876 224.948 194.096 225.508 194.536C226.068 194.976 226.348 195.58 226.348 196.348C226.348 197.036 226.06 197.72 225.484 198.4C224.908 199.08 224.028 199.868 222.844 200.764H226.396V202ZM232.273 201.784C231.849 202.024 231.369 202.144 230.833 202.144C230.297 202.144 229.817 202.024 229.393 201.784C228.969 201.544 228.633 201.224 228.385 200.824C228.137 200.424 227.949 199.984 227.821 199.504C227.693 199.024 227.629 198.524 227.629 198.004C227.629 197.484 227.693 196.984 227.821 196.504C227.949 196.024 228.137 195.588 228.385 195.196C228.633 194.796 228.969 194.476 229.393 194.236C229.817 193.996 230.297 193.876 230.833 193.876C231.369 193.876 231.849 193.996 232.273 194.236C232.697 194.476 233.033 194.796 233.281 195.196C233.529 195.588 233.717 196.024 233.845 196.504C233.973 196.984 234.037 197.484 234.037 198.004C234.037 198.524 233.973 199.024 233.845 199.504C233.717 199.984 233.529 200.424 233.281 200.824C233.033 201.224 232.697 201.544 232.273 201.784ZM229.489 200.08C229.777 200.624 230.225 200.896 230.833 200.896C231.441 200.896 231.889 200.624 232.177 200.08C232.465 199.536 232.609 198.844 232.609 198.004C232.609 197.468 232.553 196.992 232.441 196.576C232.337 196.16 232.145 195.816 231.865 195.544C231.593 195.264 231.249 195.124 230.833 195.124C230.417 195.124 230.069 195.264 229.789 195.544C229.517 195.816 229.325 196.16 229.213 196.576C229.109 196.992 229.057 197.468 229.057 198.004C229.057 198.844 229.201 199.536 229.489 200.08ZM236.847 197.848C236.263 197.848 235.787 197.664 235.419 197.296C235.051 196.92 234.867 196.448 234.867 195.88C234.867 195.304 235.051 194.828 235.419 194.452C235.787 194.068 236.263 193.876 236.847 193.876C237.439 193.876 237.919 194.068 238.287 194.452C238.663 194.828 238.851 195.304 238.851 195.88C238.851 196.448 238.663 196.92 238.287 197.296C237.919 197.664 237.439 197.848 236.847 197.848ZM236.871 202H236.079L241.191 193.996H241.995L236.871 202ZM242.583 201.592C242.215 201.96 241.739 202.144 241.155 202.144C240.571 202.144 240.095 201.96 239.727 201.592C239.359 201.216 239.175 200.744 239.175 200.176C239.175 199.6 239.359 199.124 239.727 198.748C240.095 198.364 240.571 198.172 241.155 198.172C241.739 198.172 242.215 198.364 242.583 198.748C242.959 199.132 243.147 199.608 243.147 200.176C243.147 200.744 242.959 201.216 242.583 201.592ZM236.847 197.056C237.159 197.056 237.415 196.948 237.615 196.732C237.815 196.508 237.915 196.224 237.915 195.88C237.915 195.52 237.815 195.232 237.615 195.016C237.415 194.792 237.159 194.68 236.847 194.68C236.535 194.68 236.279 194.792 236.079 195.016C235.887 195.232 235.791 195.52 235.791 195.88C235.791 196.224 235.891 196.508 236.091 196.732C236.291 196.948 236.543 197.056 236.847 197.056ZM240.387 201.028C240.587 201.244 240.843 201.352 241.155 201.352C241.467 201.352 241.723 201.244 241.923 201.028C242.123 200.804 242.223 200.52 242.223 200.176C242.223 199.816 242.123 199.528 241.923 199.312C241.723 199.088 241.467 198.976 241.155 198.976C240.843 198.976 240.587 199.088 240.387 199.312C240.195 199.528 240.099 199.816 240.099 200.176C240.099 200.52 240.195 200.804 240.387 201.028Z" fill="#1D1D26"/>
<path d="M119.692 224.156C118.508 224.156 117.512 223.772 116.704 223.004C115.896 222.236 115.492 221.236 115.492 220.004C115.492 218.772 115.896 217.776 116.704 217.016C117.512 216.248 118.508 215.864 119.692 215.864C121.068 215.864 122.144 216.42 122.92 217.532L121.768 218.18C121.544 217.868 121.248 217.612 120.88 217.412C120.52 217.212 120.124 217.112 119.692 217.112C118.9 217.112 118.24 217.384 117.712 217.928C117.192 218.472 116.932 219.164 116.932 220.004C116.932 220.844 117.192 221.54 117.712 222.092C118.24 222.636 118.9 222.908 119.692 222.908C120.068 222.908 120.424 222.836 120.76 222.692C121.104 222.548 121.38 222.38 121.588 222.188V220.94H119.2V219.704H122.992V222.704C122.12 223.672 121.02 224.156 119.692 224.156ZM127.034 224.144C126.138 224.144 125.418 223.852 124.874 223.268C124.33 222.676 124.058 221.952 124.058 221.096C124.058 220.24 124.33 219.52 124.874 218.936C125.418 218.352 126.138 218.06 127.034 218.06C127.938 218.06 128.662 218.352 129.206 218.936C129.75 219.52 130.022 220.24 130.022 221.096C130.022 221.96 129.75 222.684 129.206 223.268C128.662 223.852 127.938 224.144 127.034 224.144ZM127.034 223.028C127.554 223.028 127.962 222.844 128.258 222.476C128.562 222.1 128.714 221.64 128.714 221.096C128.714 220.56 128.562 220.108 128.258 219.74C127.962 219.364 127.554 219.176 127.034 219.176C126.522 219.176 126.114 219.364 125.81 219.74C125.514 220.108 125.366 220.56 125.366 221.096C125.366 221.64 125.514 222.1 125.81 222.476C126.114 222.844 126.522 223.028 127.034 223.028ZM133.912 224.144C133.016 224.144 132.296 223.852 131.752 223.268C131.208 222.676 130.936 221.952 130.936 221.096C130.936 220.24 131.208 219.52 131.752 218.936C132.296 218.352 133.016 218.06 133.912 218.06C134.816 218.06 135.54 218.352 136.084 218.936C136.628 219.52 136.9 220.24 136.9 221.096C136.9 221.96 136.628 222.684 136.084 223.268C135.54 223.852 134.816 224.144 133.912 224.144ZM133.912 223.028C134.432 223.028 134.84 222.844 135.136 222.476C135.44 222.1 135.592 221.64 135.592 221.096C135.592 220.56 135.44 220.108 135.136 219.74C134.84 219.364 134.432 219.176 133.912 219.176C133.4 219.176 132.992 219.364 132.688 219.74C132.392 220.108 132.244 220.56 132.244 221.096C132.244 221.64 132.392 222.1 132.688 222.476C132.992 222.844 133.4 223.028 133.912 223.028ZM140.527 226.352C139.543 226.352 138.735 226.064 138.103 225.488L138.691 224.576C139.123 225.072 139.735 225.32 140.527 225.32C141.007 225.32 141.411 225.192 141.739 224.936C142.075 224.688 142.243 224.292 142.243 223.748V223.052C141.747 223.692 141.127 224.012 140.383 224.012C139.623 224.012 139.003 223.748 138.523 223.22C138.051 222.692 137.815 221.964 137.815 221.036C137.815 220.116 138.051 219.392 138.523 218.864C139.003 218.328 139.623 218.06 140.383 218.06C141.143 218.06 141.763 218.376 142.243 219.008V218.204H143.503V223.7C143.503 224.196 143.415 224.624 143.239 224.984C143.071 225.352 142.839 225.628 142.543 225.812C142.247 226.004 141.931 226.14 141.595 226.22C141.267 226.308 140.911 226.352 140.527 226.352ZM140.755 222.896C141.043 222.896 141.327 222.82 141.607 222.668C141.887 222.516 142.099 222.332 142.243 222.116V219.956C142.099 219.74 141.887 219.556 141.607 219.404C141.327 219.252 141.043 219.176 140.755 219.176C140.259 219.176 139.863 219.348 139.567 219.692C139.271 220.028 139.123 220.476 139.123 221.036C139.123 221.596 139.271 222.048 139.567 222.392C139.863 222.728 140.259 222.896 140.755 222.896ZM146.396 224H145.136V215.996H146.396V224ZM150.707 224.144C149.827 224.144 149.099 223.864 148.523 223.304C147.955 222.736 147.671 222 147.671 221.096C147.671 220.248 147.947 219.532 148.499 218.948C149.059 218.356 149.763 218.06 150.611 218.06C151.467 218.06 152.155 218.356 152.675 218.948C153.203 219.54 153.467 220.296 153.467 221.216V221.516H148.991C149.039 221.972 149.227 222.352 149.555 222.656C149.883 222.96 150.311 223.112 150.839 223.112C151.135 223.112 151.431 223.056 151.727 222.944C152.031 222.832 152.283 222.676 152.483 222.476L153.059 223.304C152.475 223.864 151.691 224.144 150.707 224.144ZM152.243 220.628C152.227 220.228 152.079 219.872 151.799 219.56C151.527 219.248 151.131 219.092 150.611 219.092C150.115 219.092 149.727 219.248 149.447 219.56C149.167 219.864 149.011 220.22 148.979 220.628H152.243ZM165.029 224H163.433L162.845 222.464H159.173L158.585 224H156.989L160.133 215.996H161.885L165.029 224ZM162.449 221.228L161.009 217.412L159.569 221.228H162.449ZM171.207 224H169.947V223.208C169.467 223.832 168.847 224.144 168.087 224.144C167.327 224.144 166.707 223.872 166.227 223.328C165.747 222.784 165.507 222.044 165.507 221.108C165.507 220.18 165.747 219.44 166.227 218.888C166.707 218.336 167.327 218.06 168.087 218.06C168.847 218.06 169.467 218.376 169.947 219.008V215.996H171.207V224ZM168.447 223.028C168.743 223.028 169.031 222.956 169.311 222.812C169.591 222.668 169.803 222.484 169.947 222.26V219.956C169.803 219.732 169.591 219.548 169.311 219.404C169.031 219.252 168.743 219.176 168.447 219.176C167.951 219.176 167.555 219.356 167.259 219.716C166.963 220.076 166.815 220.54 166.815 221.108C166.815 221.676 166.963 222.14 167.259 222.5C167.555 222.852 167.951 223.028 168.447 223.028ZM174.819 224.144C173.779 224.144 172.951 223.844 172.335 223.244L172.911 222.332C173.127 222.556 173.419 222.748 173.787 222.908C174.155 223.068 174.519 223.148 174.879 223.148C175.247 223.148 175.527 223.076 175.719 222.932C175.919 222.788 176.019 222.6 176.019 222.368C176.019 222.16 175.899 222 175.659 221.888C175.419 221.768 175.127 221.676 174.783 221.612C174.439 221.54 174.095 221.456 173.751 221.36C173.407 221.256 173.115 221.076 172.875 220.82C172.635 220.564 172.515 220.232 172.515 219.824C172.515 219.328 172.719 218.912 173.127 218.576C173.535 218.232 174.091 218.06 174.795 218.06C175.683 218.06 176.435 218.332 177.051 218.876L176.523 219.764C176.339 219.556 176.095 219.388 175.791 219.26C175.487 219.132 175.159 219.068 174.807 219.068C174.479 219.068 174.215 219.136 174.015 219.272C173.823 219.4 173.727 219.568 173.727 219.776C173.727 219.936 173.811 220.068 173.979 220.172C174.155 220.268 174.371 220.34 174.627 220.388C174.891 220.436 175.175 220.504 175.479 220.592C175.783 220.672 176.063 220.768 176.319 220.88C176.583 220.992 176.799 221.176 176.967 221.432C177.143 221.68 177.231 221.984 177.231 222.344C177.231 222.872 177.019 223.304 176.595 223.64C176.171 223.976 175.579 224.144 174.819 224.144Z" fill="#1D1D26"/>
<path d="M120.784 248H115.852V239.996H117.256V246.764H120.784V248ZM122.639 241.496C122.431 241.496 122.247 241.42 122.087 241.268C121.935 241.116 121.859 240.932 121.859 240.716C121.859 240.5 121.935 240.316 122.087 240.164C122.247 240.012 122.431 239.936 122.639 239.936C122.855 239.936 123.039 240.012 123.191 240.164C123.343 240.316 123.419 240.5 123.419 240.716C123.419 240.932 123.343 241.116 123.191 241.268C123.039 241.42 122.855 241.496 122.639 241.496ZM123.275 248H122.015V242.204H123.275V248ZM130.082 248H128.822V244.376C128.822 243.576 128.434 243.176 127.658 243.176C127.354 243.176 127.07 243.252 126.806 243.404C126.542 243.556 126.33 243.74 126.17 243.956V248H124.91V242.204H126.17V242.996C126.386 242.74 126.674 242.52 127.034 242.336C127.394 242.152 127.786 242.06 128.21 242.06C128.826 242.06 129.29 242.22 129.602 242.54C129.922 242.86 130.082 243.32 130.082 243.92V248ZM137.142 248H135.558L133.782 245.612L132.978 246.44V248H131.718V239.996H132.978V245L135.534 242.204H137.094L134.682 244.832L137.142 248ZM140.652 248.144C139.772 248.144 139.044 247.864 138.468 247.304C137.9 246.736 137.616 246 137.616 245.096C137.616 244.248 137.892 243.532 138.444 242.948C139.004 242.356 139.708 242.06 140.556 242.06C141.412 242.06 142.1 242.356 142.62 242.948C143.148 243.54 143.412 244.296 143.412 245.216V245.516H138.936C138.984 245.972 139.172 246.352 139.5 246.656C139.828 246.96 140.256 247.112 140.784 247.112C141.08 247.112 141.376 247.056 141.672 246.944C141.976 246.832 142.228 246.676 142.428 246.476L143.004 247.304C142.42 247.864 141.636 248.144 140.652 248.144ZM142.188 244.628C142.172 244.228 142.024 243.872 141.744 243.56C141.472 243.248 141.076 243.092 140.556 243.092C140.06 243.092 139.672 243.248 139.392 243.56C139.112 243.864 138.956 244.22 138.924 244.628H142.188ZM149.996 248H148.736V247.208C148.256 247.832 147.636 248.144 146.876 248.144C146.116 248.144 145.496 247.872 145.016 247.328C144.536 246.784 144.296 246.044 144.296 245.108C144.296 244.18 144.536 243.44 145.016 242.888C145.496 242.336 146.116 242.06 146.876 242.06C147.636 242.06 148.256 242.376 148.736 243.008V239.996H149.996V248ZM147.236 247.028C147.532 247.028 147.82 246.956 148.1 246.812C148.38 246.668 148.592 246.484 148.736 246.26V243.956C148.592 243.732 148.38 243.548 148.1 243.404C147.82 243.252 147.532 243.176 147.236 243.176C146.74 243.176 146.344 243.356 146.048 243.716C145.752 244.076 145.604 244.54 145.604 245.108C145.604 245.676 145.752 246.14 146.048 246.5C146.344 246.852 146.74 247.028 147.236 247.028ZM153.069 248H151.665V239.996H153.069V248ZM159.906 248H158.646V244.376C158.646 243.576 158.258 243.176 157.482 243.176C157.178 243.176 156.894 243.252 156.63 243.404C156.366 243.556 156.154 243.74 155.994 243.956V248H154.734V242.204H155.994V242.996C156.21 242.74 156.498 242.52 156.858 242.336C157.218 242.152 157.61 242.06 158.034 242.06C158.65 242.06 159.114 242.22 159.426 242.54C159.746 242.86 159.906 243.32 159.906 243.92V248ZM171.861 248H170.265L169.677 246.464H166.005L165.417 248H163.821L166.965 239.996H168.717L171.861 248ZM169.281 245.228L167.841 241.412L166.401 245.228H169.281ZM178.039 248H176.779V247.208C176.299 247.832 175.679 248.144 174.919 248.144C174.159 248.144 173.539 247.872 173.059 247.328C172.579 246.784 172.339 246.044 172.339 245.108C172.339 244.18 172.579 243.44 173.059 242.888C173.539 242.336 174.159 242.06 174.919 242.06C175.679 242.06 176.299 242.376 176.779 243.008V239.996H178.039V248ZM175.279 247.028C175.575 247.028 175.863 246.956 176.143 246.812C176.423 246.668 176.635 246.484 176.779 246.26V243.956C176.635 243.732 176.423 243.548 176.143 243.404C175.863 243.252 175.575 243.176 175.279 243.176C174.783 243.176 174.387 243.356 174.091 243.716C173.795 244.076 173.647 244.54 173.647 245.108C173.647 245.676 173.795 246.14 174.091 246.5C174.387 246.852 174.783 247.028 175.279 247.028ZM181.651 248.144C180.611 248.144 179.783 247.844 179.167 247.244L179.743 246.332C179.959 246.556 180.251 246.748 180.619 246.908C180.987 247.068 181.351 247.148 181.711 247.148C182.079 247.148 182.359 247.076 182.551 246.932C182.751 246.788 182.851 246.6 182.851 246.368C182.851 246.16 182.731 246 182.491 245.888C182.251 245.768 181.959 245.676 181.615 245.612C181.271 245.54 180.927 245.456 180.583 245.36C180.239 245.256 179.947 245.076 179.707 244.82C179.467 244.564 179.347 244.232 179.347 243.824C179.347 243.328 179.551 242.912 179.959 242.576C180.367 242.232 180.923 242.06 181.627 242.06C182.515 242.06 183.267 242.332 183.883 242.876L183.355 243.764C183.171 243.556 182.927 243.388 182.623 243.26C182.319 243.132 181.991 243.068 181.639 243.068C181.311 243.068 181.047 243.136 180.847 243.272C180.655 243.4 180.559 243.568 180.559 243.776C180.559 243.936 180.643 244.068 180.811 244.172C180.987 244.268 181.203 244.34 181.459 244.388C181.723 244.436 182.007 244.504 182.311 244.592C182.615 244.672 182.895 244.768 183.151 244.88C183.415 244.992 183.631 245.176 183.799 245.432C183.975 245.68 184.063 245.984 184.063 246.344C184.063 246.872 183.851 247.304 183.427 247.64C183.003 247.976 182.411 248.144 181.651 248.144Z" fill="#1D1D26"/>
<path d="M117.256 201H115.852V192.996H121.336V194.232H117.256V196.308H121.252V197.544H117.256V201ZM127.354 201H126.094V200.376C125.646 200.888 125.022 201.144 124.222 201.144C123.694 201.144 123.226 200.976 122.818 200.64C122.41 200.296 122.206 199.824 122.206 199.224C122.206 198.608 122.406 198.14 122.806 197.82C123.214 197.5 123.686 197.34 124.222 197.34C125.046 197.34 125.67 197.588 126.094 198.084V197.22C126.094 196.884 125.97 196.62 125.722 196.428C125.474 196.236 125.146 196.14 124.738 196.14C124.09 196.14 123.518 196.384 123.022 196.872L122.506 195.996C123.162 195.372 123.974 195.06 124.942 195.06C125.654 195.06 126.234 195.228 126.682 195.564C127.13 195.9 127.354 196.432 127.354 197.16V201ZM124.714 200.28C125.346 200.28 125.806 200.08 126.094 199.68V198.804C125.806 198.404 125.346 198.204 124.714 198.204C124.354 198.204 124.058 198.3 123.826 198.492C123.594 198.684 123.478 198.936 123.478 199.248C123.478 199.56 123.594 199.812 123.826 200.004C124.058 200.188 124.354 200.28 124.714 200.28ZM131.628 201.144C130.748 201.144 130.028 200.86 129.468 200.292C128.908 199.716 128.628 198.984 128.628 198.096C128.628 197.216 128.908 196.492 129.468 195.924C130.028 195.348 130.748 195.06 131.628 195.06C132.596 195.06 133.336 195.404 133.848 196.092L133.02 196.86C132.7 196.404 132.256 196.176 131.688 196.176C131.16 196.176 130.736 196.356 130.416 196.716C130.096 197.068 129.936 197.528 129.936 198.096C129.936 198.664 130.096 199.128 130.416 199.488C130.736 199.848 131.16 200.028 131.688 200.028C132.24 200.028 132.684 199.8 133.02 199.344L133.848 200.112C133.336 200.8 132.596 201.144 131.628 201.144ZM137.629 201.144C136.749 201.144 136.021 200.864 135.445 200.304C134.877 199.736 134.593 199 134.593 198.096C134.593 197.248 134.869 196.532 135.421 195.948C135.981 195.356 136.685 195.06 137.533 195.06C138.389 195.06 139.077 195.356 139.597 195.948C140.125 196.54 140.389 197.296 140.389 198.216V198.516H135.913C135.961 198.972 136.149 199.352 136.477 199.656C136.805 199.96 137.233 200.112 137.761 200.112C138.057 200.112 138.353 200.056 138.649 199.944C138.953 199.832 139.205 199.676 139.405 199.476L139.981 200.304C139.397 200.864 138.613 201.144 137.629 201.144ZM139.165 197.628C139.149 197.228 139.001 196.872 138.721 196.56C138.449 196.248 138.053 196.092 137.533 196.092C137.037 196.092 136.649 196.248 136.369 196.56C136.089 196.864 135.933 197.22 135.901 197.628H139.165ZM142.892 199.26C143.028 199.476 143.236 199.66 143.516 199.812C143.804 199.956 144.092 200.028 144.38 200.028C144.876 200.028 145.272 199.852 145.568 199.5C145.872 199.14 146.024 198.676 146.024 198.108C146.024 197.54 145.872 197.076 145.568 196.716C145.272 196.356 144.876 196.176 144.38 196.176C144.092 196.176 143.808 196.252 143.528 196.404C143.248 196.556 143.036 196.744 142.892 196.968V199.26ZM142.892 201H141.632V192.996H142.892V196.008C143.364 195.376 143.984 195.06 144.752 195.06C145.504 195.06 146.12 195.34 146.6 195.9C147.08 196.452 147.32 197.188 147.32 198.108C147.32 199.044 147.08 199.784 146.6 200.328C146.12 200.872 145.504 201.144 144.752 201.144C143.992 201.144 143.372 200.832 142.892 200.208V201ZM151.221 201.144C150.325 201.144 149.605 200.852 149.061 200.268C148.517 199.676 148.245 198.952 148.245 198.096C148.245 197.24 148.517 196.52 149.061 195.936C149.605 195.352 150.325 195.06 151.221 195.06C152.125 195.06 152.849 195.352 153.393 195.936C153.937 196.52 154.209 197.24 154.209 198.096C154.209 198.96 153.937 199.684 153.393 200.268C152.849 200.852 152.125 201.144 151.221 201.144ZM151.221 200.028C151.741 200.028 152.149 199.844 152.445 199.476C152.749 199.1 152.901 198.64 152.901 198.096C152.901 197.56 152.749 197.108 152.445 196.74C152.149 196.364 151.741 196.176 151.221 196.176C150.709 196.176 150.301 196.364 149.997 196.74C149.701 197.108 149.553 197.56 149.553 198.096C149.553 198.64 149.701 199.1 149.997 199.476C150.301 199.844 150.709 200.028 151.221 200.028ZM158.1 201.144C157.204 201.144 156.484 200.852 155.94 200.268C155.396 199.676 155.124 198.952 155.124 198.096C155.124 197.24 155.396 196.52 155.94 195.936C156.484 195.352 157.204 195.06 158.1 195.06C159.004 195.06 159.728 195.352 160.272 195.936C160.816 196.52 161.088 197.24 161.088 198.096C161.088 198.96 160.816 199.684 160.272 200.268C159.728 200.852 159.004 201.144 158.1 201.144ZM158.1 200.028C158.62 200.028 159.028 199.844 159.324 199.476C159.628 199.1 159.78 198.64 159.78 198.096C159.78 197.56 159.628 197.108 159.324 196.74C159.028 196.364 158.62 196.176 158.1 196.176C157.588 196.176 157.18 196.364 156.876 196.74C156.58 197.108 156.432 197.56 156.432 198.096C156.432 198.64 156.58 199.1 156.876 199.476C157.18 199.844 157.588 200.028 158.1 200.028ZM167.787 201H166.203L164.427 198.612L163.623 199.44V201H162.363V192.996H163.623V198L166.179 195.204H167.739L165.327 197.832L167.787 201Z" fill="#1D1D26"/>
<circle cx="95" cy="221" r="8" fill="#5609F9"/>
<path d="M124.168 272H122.764V266.06L120.304 272H119.704L117.256 266.06V272H115.852V263.996H117.832L120.004 269.264L122.188 263.996H124.168V272ZM130.636 272H129.376V271.376C128.928 271.888 128.304 272.144 127.504 272.144C126.976 272.144 126.508 271.976 126.1 271.64C125.692 271.296 125.488 270.824 125.488 270.224C125.488 269.608 125.688 269.14 126.088 268.82C126.496 268.5 126.968 268.34 127.504 268.34C128.328 268.34 128.952 268.588 129.376 269.084V268.22C129.376 267.884 129.252 267.62 129.004 267.428C128.756 267.236 128.428 267.14 128.02 267.14C127.372 267.14 126.8 267.384 126.304 267.872L125.788 266.996C126.444 266.372 127.256 266.06 128.224 266.06C128.936 266.06 129.516 266.228 129.964 266.564C130.412 266.9 130.636 267.432 130.636 268.16V272ZM127.996 271.28C128.628 271.28 129.088 271.08 129.376 270.68V269.804C129.088 269.404 128.628 269.204 127.996 269.204C127.636 269.204 127.34 269.3 127.108 269.492C126.876 269.684 126.76 269.936 126.76 270.248C126.76 270.56 126.876 270.812 127.108 271.004C127.34 271.188 127.636 271.28 127.996 271.28ZM132.893 265.496C132.685 265.496 132.501 265.42 132.341 265.268C132.189 265.116 132.113 264.932 132.113 264.716C132.113 264.5 132.189 264.316 132.341 264.164C132.501 264.012 132.685 263.936 132.893 263.936C133.109 263.936 133.293 264.012 133.445 264.164C133.597 264.316 133.673 264.5 133.673 264.716C133.673 264.932 133.597 265.116 133.445 265.268C133.293 265.42 133.109 265.496 132.893 265.496ZM133.529 272H132.269V266.204H133.529V272ZM136.424 272H135.164V263.996H136.424V272ZM140.698 272.144C139.818 272.144 139.098 271.86 138.538 271.292C137.978 270.716 137.698 269.984 137.698 269.096C137.698 268.216 137.978 267.492 138.538 266.924C139.098 266.348 139.818 266.06 140.698 266.06C141.666 266.06 142.406 266.404 142.918 267.092L142.09 267.86C141.77 267.404 141.326 267.176 140.758 267.176C140.23 267.176 139.806 267.356 139.486 267.716C139.166 268.068 139.006 268.528 139.006 269.096C139.006 269.664 139.166 270.128 139.486 270.488C139.806 270.848 140.23 271.028 140.758 271.028C141.31 271.028 141.754 270.8 142.09 270.344L142.918 271.112C142.406 271.8 141.666 272.144 140.698 272.144ZM149.207 272H147.947V268.352C147.947 267.928 147.843 267.628 147.635 267.452C147.435 267.268 147.147 267.176 146.771 267.176C146.475 267.176 146.195 267.252 145.931 267.404C145.667 267.556 145.451 267.74 145.283 267.956V272H144.023V263.996H145.283V266.996C145.499 266.74 145.787 266.52 146.147 266.336C146.515 266.152 146.911 266.06 147.335 266.06C148.583 266.06 149.207 266.672 149.207 267.896V272ZM151.467 265.496C151.259 265.496 151.075 265.42 150.915 265.268C150.763 265.116 150.687 264.932 150.687 264.716C150.687 264.5 150.763 264.316 150.915 264.164C151.075 264.012 151.259 263.936 151.467 263.936C151.683 263.936 151.867 264.012 152.019 264.164C152.171 264.316 152.247 264.5 152.247 264.716C152.247 264.932 152.171 265.116 152.019 265.268C151.867 265.42 151.683 265.496 151.467 265.496ZM152.103 272H150.843V266.204H152.103V272ZM162.102 272H160.842V268.22C160.842 267.524 160.526 267.176 159.894 267.176C159.63 267.176 159.374 267.252 159.126 267.404C158.878 267.556 158.686 267.736 158.55 267.944V272H157.29V268.22C157.29 267.524 156.97 267.176 156.33 267.176C156.074 267.176 155.822 267.252 155.574 267.404C155.334 267.556 155.142 267.74 154.998 267.956V272H153.738V266.204H154.998V266.996C155.142 266.78 155.39 266.572 155.742 266.372C156.102 266.164 156.482 266.06 156.882 266.06C157.722 266.06 158.25 266.416 158.466 267.128C158.65 266.84 158.922 266.592 159.282 266.384C159.642 266.168 160.026 266.06 160.434 266.06C161.546 266.06 162.102 266.644 162.102 267.812V272ZM166.854 272.144C166.086 272.144 165.466 271.828 164.994 271.196V274.208H163.734V266.204H164.994V266.996C165.458 266.372 166.078 266.06 166.854 266.06C167.614 266.06 168.23 266.332 168.702 266.876C169.182 267.42 169.422 268.16 169.422 269.096C169.422 270.032 169.182 270.776 168.702 271.328C168.23 271.872 167.614 272.144 166.854 272.144ZM166.482 271.028C166.978 271.028 167.374 270.848 167.67 270.488C167.966 270.128 168.114 269.664 168.114 269.096C168.114 268.528 167.966 268.068 167.67 267.716C167.374 267.356 166.978 267.176 166.482 267.176C166.194 267.176 165.91 267.252 165.63 267.404C165.35 267.556 165.138 267.74 164.994 267.956V270.248C165.138 270.464 165.35 270.648 165.63 270.8C165.91 270.952 166.194 271.028 166.482 271.028ZM179.273 272H173.79V263.996H179.273V265.232H175.194V267.308H179.19V268.544H175.194V270.764H179.273V272ZM189.043 272H187.783V268.22C187.783 267.524 187.467 267.176 186.835 267.176C186.571 267.176 186.315 267.252 186.067 267.404C185.819 267.556 185.627 267.736 185.491 267.944V272H184.231V268.22C184.231 267.524 183.911 267.176 183.271 267.176C183.015 267.176 182.763 267.252 182.515 267.404C182.275 267.556 182.083 267.74 181.939 267.956V272H180.679V266.204H181.939V266.996C182.083 266.78 182.331 266.572 182.683 266.372C183.043 266.164 183.423 266.06 183.823 266.06C184.663 266.06 185.191 266.416 185.407 267.128C185.591 266.84 185.863 266.592 186.223 266.384C186.583 266.168 186.967 266.06 187.375 266.06C188.487 266.06 189.043 266.644 189.043 267.812V272ZM195.475 272H194.215V271.376C193.767 271.888 193.143 272.144 192.343 272.144C191.815 272.144 191.347 271.976 190.939 271.64C190.531 271.296 190.327 270.824 190.327 270.224C190.327 269.608 190.527 269.14 190.927 268.82C191.335 268.5 191.807 268.34 192.343 268.34C193.167 268.34 193.791 268.588 194.215 269.084V268.22C194.215 267.884 194.091 267.62 193.843 267.428C193.595 267.236 193.267 267.14 192.859 267.14C192.211 267.14 191.639 267.384 191.143 267.872L190.627 266.996C191.283 266.372 192.095 266.06 193.063 266.06C193.775 266.06 194.355 266.228 194.803 266.564C195.251 266.9 195.475 267.432 195.475 268.16V272ZM192.835 271.28C193.467 271.28 193.927 271.08 194.215 270.68V269.804C193.927 269.404 193.467 269.204 192.835 269.204C192.475 269.204 192.179 269.3 191.947 269.492C191.715 269.684 191.599 269.936 191.599 270.248C191.599 270.56 191.715 270.812 191.947 271.004C192.179 271.188 192.475 271.28 192.835 271.28ZM197.733 265.496C197.525 265.496 197.341 265.42 197.181 265.268C197.029 265.116 196.953 264.932 196.953 264.716C196.953 264.5 197.029 264.316 197.181 264.164C197.341 264.012 197.525 263.936 197.733 263.936C197.949 263.936 198.133 264.012 198.285 264.164C198.437 264.316 198.513 264.5 198.513 264.716C198.513 264.932 198.437 265.116 198.285 265.268C198.133 265.42 197.949 265.496 197.733 265.496ZM198.369 272H197.109V266.204H198.369V272ZM201.264 272H200.004V263.996H201.264V272ZM204.878 272.144C203.838 272.144 203.01 271.844 202.394 271.244L202.97 270.332C203.186 270.556 203.478 270.748 203.846 270.908C204.214 271.068 204.578 271.148 204.938 271.148C205.306 271.148 205.586 271.076 205.778 270.932C205.978 270.788 206.078 270.6 206.078 270.368C206.078 270.16 205.958 270 205.718 269.888C205.478 269.768 205.186 269.676 204.842 269.612C204.498 269.54 204.154 269.456 203.81 269.36C203.466 269.256 203.174 269.076 202.934 268.82C202.694 268.564 202.574 268.232 202.574 267.824C202.574 267.328 202.778 266.912 203.186 266.576C203.594 266.232 204.15 266.06 204.854 266.06C205.742 266.06 206.494 266.332 207.11 266.876L206.582 267.764C206.398 267.556 206.154 267.388 205.85 267.26C205.546 267.132 205.218 267.068 204.866 267.068C204.538 267.068 204.274 267.136 204.074 267.272C203.882 267.4 203.786 267.568 203.786 267.776C203.786 267.936 203.87 268.068 204.038 268.172C204.214 268.268 204.43 268.34 204.686 268.388C204.95 268.436 205.234 268.504 205.538 268.592C205.842 268.672 206.122 268.768 206.378 268.88C206.642 268.992 206.858 269.176 207.026 269.432C207.202 269.68 207.29 269.984 207.29 270.344C207.29 270.872 207.078 271.304 206.654 271.64C206.23 271.976 205.638 272.144 204.878 272.144Z" fill="#1D1D26"/>
<circle cx="95" cy="269" r="8" fill="#09CEF9"/>
<circle cx="95" cy="245" r="8" fill="#0969F9"/>
<circle cx="95" cy="197" r="8" fill="#6DC7C7"/>
<path d="M225.556 272H224.152V270.188H220.336V269.06L223.624 263.996H225.556V268.952H226.624V270.188H225.556V272ZM224.152 268.952V265.256L221.716 268.952H224.152ZM229.277 267.848C228.693 267.848 228.217 267.664 227.849 267.296C227.481 266.92 227.297 266.448 227.297 265.88C227.297 265.304 227.481 264.828 227.849 264.452C228.217 264.068 228.693 263.876 229.277 263.876C229.869 263.876 230.349 264.068 230.717 264.452C231.093 264.828 231.281 265.304 231.281 265.88C231.281 266.448 231.093 266.92 230.717 267.296C230.349 267.664 229.869 267.848 229.277 267.848ZM229.301 272H228.509L233.621 263.996H234.425L229.301 272ZM235.013 271.592C234.645 271.96 234.169 272.144 233.585 272.144C233.001 272.144 232.525 271.96 232.157 271.592C231.789 271.216 231.605 270.744 231.605 270.176C231.605 269.6 231.789 269.124 232.157 268.748C232.525 268.364 233.001 268.172 233.585 268.172C234.169 268.172 234.645 268.364 235.013 268.748C235.389 269.132 235.577 269.608 235.577 270.176C235.577 270.744 235.389 271.216 235.013 271.592ZM229.277 267.056C229.589 267.056 229.845 266.948 230.045 266.732C230.245 266.508 230.345 266.224 230.345 265.88C230.345 265.52 230.245 265.232 230.045 265.016C229.845 264.792 229.589 264.68 229.277 264.68C228.965 264.68 228.709 264.792 228.509 265.016C228.317 265.232 228.221 265.52 228.221 265.88C228.221 266.224 228.321 266.508 228.521 266.732C228.721 266.948 228.973 267.056 229.277 267.056ZM232.817 271.028C233.017 271.244 233.273 271.352 233.585 271.352C233.897 271.352 234.153 271.244 234.353 271.028C234.553 270.804 234.653 270.52 234.653 270.176C234.653 269.816 234.553 269.528 234.353 269.312C234.153 269.088 233.897 268.976 233.585 268.976C233.273 268.976 233.017 269.088 232.817 269.312C232.625 269.528 232.529 269.816 232.529 270.176C232.529 270.52 232.625 270.804 232.817 271.028Z" fill="#1D1D26"/>
<path d="M223.708 226H222.304V219.82L220.996 221.176L220.18 220.324L222.484 217.996H223.708V226ZM230.955 226H225.159V224.896C226.831 223.632 227.967 222.696 228.567 222.088C229.175 221.472 229.479 220.892 229.479 220.348C229.479 219.956 229.335 219.656 229.047 219.448C228.767 219.232 228.427 219.124 228.027 219.124C227.147 219.124 226.427 219.444 225.867 220.084L225.051 219.16C225.395 218.744 225.827 218.428 226.347 218.212C226.875 217.988 227.427 217.876 228.003 217.876C228.819 217.876 229.507 218.096 230.067 218.536C230.627 218.976 230.907 219.58 230.907 220.348C230.907 221.036 230.619 221.72 230.043 222.4C229.467 223.08 228.587 223.868 227.403 224.764H230.955V226ZM234.011 221.848C233.427 221.848 232.951 221.664 232.583 221.296C232.215 220.92 232.031 220.448 232.031 219.88C232.031 219.304 232.215 218.828 232.583 218.452C232.951 218.068 233.427 217.876 234.011 217.876C234.603 217.876 235.083 218.068 235.451 218.452C235.827 218.828 236.015 219.304 236.015 219.88C236.015 220.448 235.827 220.92 235.451 221.296C235.083 221.664 234.603 221.848 234.011 221.848ZM234.035 226H233.243L238.355 217.996H239.159L234.035 226ZM239.747 225.592C239.379 225.96 238.903 226.144 238.319 226.144C237.735 226.144 237.259 225.96 236.891 225.592C236.523 225.216 236.339 224.744 236.339 224.176C236.339 223.6 236.523 223.124 236.891 222.748C237.259 222.364 237.735 222.172 238.319 222.172C238.903 222.172 239.379 222.364 239.747 222.748C240.123 223.132 240.311 223.608 240.311 224.176C240.311 224.744 240.123 225.216 239.747 225.592ZM234.011 221.056C234.323 221.056 234.579 220.948 234.779 220.732C234.979 220.508 235.079 220.224 235.079 219.88C235.079 219.52 234.979 219.232 234.779 219.016C234.579 218.792 234.323 218.68 234.011 218.68C233.699 218.68 233.443 218.792 233.243 219.016C233.051 219.232 232.955 219.52 232.955 219.88C232.955 220.224 233.055 220.508 233.255 220.732C233.455 220.948 233.707 221.056 234.011 221.056ZM237.551 225.028C237.751 225.244 238.007 225.352 238.319 225.352C238.631 225.352 238.887 225.244 239.087 225.028C239.287 224.804 239.387 224.52 239.387 224.176C239.387 223.816 239.287 223.528 239.087 223.312C238.887 223.088 238.631 222.976 238.319 222.976C238.007 222.976 237.751 223.088 237.551 223.312C237.359 223.528 237.263 223.816 237.263 224.176C237.263 224.52 237.359 224.804 237.551 225.028Z" fill="#1D1D26"/>
</g>
<path d="M225.748 247.568C225.164 247.952 224.44 248.144 223.576 248.144C222.712 248.144 221.984 247.952 221.392 247.568C220.8 247.176 220.504 246.636 220.504 245.948C220.504 245.46 220.672 245.036 221.008 244.676C221.352 244.316 221.784 244.048 222.304 243.872C221.808 243.712 221.404 243.476 221.092 243.164C220.788 242.852 220.636 242.456 220.636 241.976C220.636 241.624 220.72 241.308 220.888 241.028C221.064 240.748 221.292 240.528 221.572 240.368C221.86 240.208 222.172 240.088 222.508 240.008C222.852 239.92 223.208 239.876 223.576 239.876C223.944 239.876 224.296 239.92 224.632 240.008C224.968 240.088 225.28 240.208 225.568 240.368C225.856 240.528 226.084 240.748 226.252 241.028C226.428 241.308 226.516 241.624 226.516 241.976C226.516 242.88 225.956 243.512 224.836 243.872C225.356 244.048 225.784 244.316 226.12 244.676C226.464 245.036 226.636 245.46 226.636 245.948C226.636 246.636 226.34 247.176 225.748 247.568ZM223.576 243.32C223.792 243.28 224 243.228 224.2 243.164C224.4 243.092 224.596 242.972 224.788 242.804C224.988 242.628 225.088 242.424 225.088 242.192C225.088 241.864 224.944 241.604 224.656 241.412C224.376 241.22 224.016 241.124 223.576 241.124C223.128 241.124 222.76 241.22 222.472 241.412C222.192 241.604 222.052 241.864 222.052 242.192C222.052 242.424 222.152 242.628 222.352 242.804C222.552 242.972 222.752 243.092 222.952 243.164C223.152 243.228 223.36 243.28 223.576 243.32ZM223.576 246.896C224.032 246.896 224.42 246.792 224.74 246.584C225.06 246.376 225.22 246.104 225.22 245.768C225.22 245.408 225.032 245.12 224.656 244.904C224.288 244.68 223.928 244.548 223.576 244.508C223.368 244.532 223.148 244.588 222.916 244.676C222.684 244.756 222.46 244.896 222.244 245.096C222.028 245.288 221.92 245.512 221.92 245.768C221.92 246.104 222.076 246.376 222.388 246.584C222.708 246.792 223.104 246.896 223.576 246.896ZM229.453 243.848C228.869 243.848 228.393 243.664 228.025 243.296C227.657 242.92 227.473 242.448 227.473 241.88C227.473 241.304 227.657 240.828 228.025 240.452C228.393 240.068 228.869 239.876 229.453 239.876C230.045 239.876 230.525 240.068 230.893 240.452C231.269 240.828 231.457 241.304 231.457 241.88C231.457 242.448 231.269 242.92 230.893 243.296C230.525 243.664 230.045 243.848 229.453 243.848ZM229.477 248H228.685L233.797 239.996H234.601L229.477 248ZM235.189 247.592C234.821 247.96 234.345 248.144 233.761 248.144C233.177 248.144 232.701 247.96 232.333 247.592C231.965 247.216 231.781 246.744 231.781 246.176C231.781 245.6 231.965 245.124 232.333 244.748C232.701 244.364 233.177 244.172 233.761 244.172C234.345 244.172 234.821 244.364 235.189 244.748C235.565 245.132 235.753 245.608 235.753 246.176C235.753 246.744 235.565 247.216 235.189 247.592ZM229.453 243.056C229.765 243.056 230.021 242.948 230.221 242.732C230.421 242.508 230.521 242.224 230.521 241.88C230.521 241.52 230.421 241.232 230.221 241.016C230.021 240.792 229.765 240.68 229.453 240.68C229.141 240.68 228.885 240.792 228.685 241.016C228.493 241.232 228.397 241.52 228.397 241.88C228.397 242.224 228.497 242.508 228.697 242.732C228.897 242.948 229.149 243.056 229.453 243.056ZM232.993 247.028C233.193 247.244 233.449 247.352 233.761 247.352C234.073 247.352 234.329 247.244 234.529 247.028C234.729 246.804 234.829 246.52 234.829 246.176C234.829 245.816 234.729 245.528 234.529 245.312C234.329 245.088 234.073 244.976 233.761 244.976C233.449 244.976 233.193 245.088 232.993 245.312C232.801 245.528 232.705 245.816 232.705 246.176C232.705 246.52 232.801 246.804 232.993 247.028Z" fill="#1D1D26"/>
<defs>
<filter id="filter0_d" x="0" y="0" width="689" height="631" filterUnits="userSpaceOnUse" color-interpolation-filters="sRGB">
<feFlood flood-opacity="0" result="BackgroundImageFix"/>
<feColorMatrix in="SourceAlpha" type="matrix" values="0 0 0 0 0 0 0 0 0 0 0 0 0 0 0 0 0 0 127 0" result="hardAlpha"/>
<feMorphology radius="5" operator="dilate" in="SourceAlpha" result="effect1_dropShadow"/>
<feOffset/>
<feGaussianBlur stdDeviation="15"/>
<feColorMatrix type="matrix" values="0 0 0 0 0.683333 0 0 0 0 0.683333 0 0 0 0 0.683333 0 0 0 0.18 0"/>
<feBlend mode="normal" in2="BackgroundImageFix" result="effect1_dropShadow"/>
<feBlend mode="normal" in="SourceGraphic" in2="effect1_dropShadow" result="shape"/>
</filter>
<filter id="filter1_d" x="42" y="142" width="247" height="186" filterUnits="userSpaceOnUse" color-interpolation-filters="sRGB">
<feFlood flood-opacity="0" result="BackgroundImageFix"/>
<feColorMatrix in="SourceAlpha" type="matrix" values="0 0 0 0 0 0 0 0 0 0 0 0 0 0 0 0 0 0 127 0" result="hardAlpha"/>
<feMorphology radius="5" operator="dilate" in="SourceAlpha" result="effect1_dropShadow"/>
<feOffset/>
<feGaussianBlur stdDeviation="15"/>
<feColorMatrix type="matrix" values="0 0 0 0 0.683333 0 0 0 0 0.683333 0 0 0 0 0.683333 0 0 0 0.18 0"/>
<feBlend mode="normal" in2="BackgroundImageFix" result="effect1_dropShadow"/>
<feBlend mode="normal" in="SourceGraphic" in2="effect1_dropShadow" result="shape"/>
</filter>
</defs>
</svg>
