<svg width="321" height="404" viewBox="0 0 321 404" fill="none" xmlns="http://www.w3.org/2000/svg">
<g clip-path="url(#clip0)">
<rect width="321" height="404" rx="20" fill="white"/>
<rect x="-13" y="91" width="348" height="587" fill="#FFC95F"/>
<path d="M35 356L88.4529 284.338C90.2816 281.886 93.8634 281.636 96.0148 283.81L123.547 311.632C125.684 313.791 129.237 313.562 131.078 311.145L171.413 258.201C173.944 254.879 179.191 255.94 180.233 259.984L197.745 327.972C198.926 332.559 205.23 333.085 207.155 328.758L222.773 293.65C223.505 292.004 225.066 290.879 226.859 290.706L271.801 286.355C273.778 286.164 275.454 284.821 276.072 282.933L285 255.653" stroke="#A4D9FD" stroke-width="6"/>
<path d="M35 320.569L128.534 359.562C130.58 360.415 132.943 359.819 134.34 358.098L207.597 267.852C209.852 265.074 214.209 265.494 215.892 268.652L254.63 341.348C255.499 342.978 257.196 343.996 259.043 343.996H285" stroke="#C7FC9D" stroke-width="6"/>
<path d="M34 314.021L127.052 336.486C128.41 336.813 129.843 336.558 131.005 335.782L207.063 284.928C208.797 283.768 211.068 283.807 212.761 285.025L251.771 313.08C252.622 313.692 253.643 314.021 254.691 314.021H282" stroke="#DC9EFA" stroke-width="6"/>
<path d="M35 351.454L103.391 378.607C104.044 378.866 104.744 378.985 105.446 378.955L142.844 377.383C143.576 377.352 144.291 377.161 144.94 376.824L180.216 358.488C180.929 358.118 181.72 357.924 182.522 357.924H253.205C254.844 357.924 256.378 357.121 257.313 355.775L287 313" stroke="#FB9090" stroke-width="6"/>
<g filter="url(#filter0_d)">
<rect x="18" y="108" width="177" height="116" rx="4" fill="white"/>
</g>
<path d="M167.396 133H161.6V131.896C163.272 130.632 164.408 129.696 165.008 129.088C165.616 128.472 165.92 127.892 165.92 127.348C165.92 126.956 165.776 126.656 165.488 126.448C165.208 126.232 164.868 126.124 164.468 126.124C163.588 126.124 162.868 126.444 162.308 127.084L161.492 126.16C161.836 125.744 162.268 125.428 162.788 125.212C163.316 124.988 163.868 124.876 164.444 124.876C165.26 124.876 165.948 125.096 166.508 125.536C167.068 125.976 167.348 126.58 167.348 127.348C167.348 128.036 167.06 128.72 166.484 129.4C165.908 130.08 165.028 130.868 163.844 131.764H167.396V133ZM173.273 132.784C172.849 133.024 172.369 133.144 171.833 133.144C171.297 133.144 170.817 133.024 170.393 132.784C169.969 132.544 169.633 132.224 169.385 131.824C169.137 131.424 168.949 130.984 168.821 130.504C168.693 130.024 168.629 129.524 168.629 129.004C168.629 128.484 168.693 127.984 168.821 127.504C168.949 127.024 169.137 126.588 169.385 126.196C169.633 125.796 169.969 125.476 170.393 125.236C170.817 124.996 171.297 124.876 171.833 124.876C172.369 124.876 172.849 124.996 173.273 125.236C173.697 125.476 174.033 125.796 174.281 126.196C174.529 126.588 174.717 127.024 174.845 127.504C174.973 127.984 175.037 128.484 175.037 129.004C175.037 129.524 174.973 130.024 174.845 130.504C174.717 130.984 174.529 131.424 174.281 131.824C174.033 132.224 173.697 132.544 173.273 132.784ZM170.489 131.08C170.777 131.624 171.225 131.896 171.833 131.896C172.441 131.896 172.889 131.624 173.177 131.08C173.465 130.536 173.609 129.844 173.609 129.004C173.609 128.468 173.553 127.992 173.441 127.576C173.337 127.16 173.145 126.816 172.865 126.544C172.593 126.264 172.249 126.124 171.833 126.124C171.417 126.124 171.069 126.264 170.789 126.544C170.517 126.816 170.325 127.16 170.213 127.576C170.109 127.992 170.057 128.468 170.057 129.004C170.057 129.844 170.201 130.536 170.489 131.08ZM177.847 128.848C177.263 128.848 176.787 128.664 176.419 128.296C176.051 127.92 175.867 127.448 175.867 126.88C175.867 126.304 176.051 125.828 176.419 125.452C176.787 125.068 177.263 124.876 177.847 124.876C178.439 124.876 178.919 125.068 179.287 125.452C179.663 125.828 179.851 126.304 179.851 126.88C179.851 127.448 179.663 127.92 179.287 128.296C178.919 128.664 178.439 128.848 177.847 128.848ZM177.871 133H177.079L182.191 124.996H182.995L177.871 133ZM183.583 132.592C183.215 132.96 182.739 133.144 182.155 133.144C181.571 133.144 181.095 132.96 180.727 132.592C180.359 132.216 180.175 131.744 180.175 131.176C180.175 130.6 180.359 130.124 180.727 129.748C181.095 129.364 181.571 129.172 182.155 129.172C182.739 129.172 183.215 129.364 183.583 129.748C183.959 130.132 184.147 130.608 184.147 131.176C184.147 131.744 183.959 132.216 183.583 132.592ZM177.847 128.056C178.159 128.056 178.415 127.948 178.615 127.732C178.815 127.508 178.915 127.224 178.915 126.88C178.915 126.52 178.815 126.232 178.615 126.016C178.415 125.792 178.159 125.68 177.847 125.68C177.535 125.68 177.279 125.792 177.079 126.016C176.887 126.232 176.791 126.52 176.791 126.88C176.791 127.224 176.891 127.508 177.091 127.732C177.291 127.948 177.543 128.056 177.847 128.056ZM181.387 132.028C181.587 132.244 181.843 132.352 182.155 132.352C182.467 132.352 182.723 132.244 182.923 132.028C183.123 131.804 183.223 131.52 183.223 131.176C183.223 130.816 183.123 130.528 182.923 130.312C182.723 130.088 182.467 129.976 182.155 129.976C181.843 129.976 181.587 130.088 181.387 130.312C181.195 130.528 181.099 130.816 181.099 131.176C181.099 131.52 181.195 131.804 181.387 132.028Z" fill="#1D1D26"/>
<path d="M60.692 155.156C59.508 155.156 58.512 154.772 57.704 154.004C56.896 153.236 56.492 152.236 56.492 151.004C56.492 149.772 56.896 148.776 57.704 148.016C58.512 147.248 59.508 146.864 60.692 146.864C62.068 146.864 63.144 147.42 63.92 148.532L62.768 149.18C62.544 148.868 62.248 148.612 61.88 148.412C61.52 148.212 61.124 148.112 60.692 148.112C59.9 148.112 59.24 148.384 58.712 148.928C58.192 149.472 57.932 150.164 57.932 151.004C57.932 151.844 58.192 152.54 58.712 153.092C59.24 153.636 59.9 153.908 60.692 153.908C61.068 153.908 61.424 153.836 61.76 153.692C62.104 153.548 62.38 153.38 62.588 153.188V151.94H60.2V150.704H63.992V153.704C63.12 154.672 62.02 155.156 60.692 155.156ZM68.0336 155.144C67.1376 155.144 66.4176 154.852 65.8736 154.268C65.3296 153.676 65.0576 152.952 65.0576 152.096C65.0576 151.24 65.3296 150.52 65.8736 149.936C66.4176 149.352 67.1376 149.06 68.0336 149.06C68.9376 149.06 69.6616 149.352 70.2056 149.936C70.7496 150.52 71.0216 151.24 71.0216 152.096C71.0216 152.96 70.7496 153.684 70.2056 154.268C69.6616 154.852 68.9376 155.144 68.0336 155.144ZM68.0336 154.028C68.5536 154.028 68.9616 153.844 69.2576 153.476C69.5616 153.1 69.7136 152.64 69.7136 152.096C69.7136 151.56 69.5616 151.108 69.2576 150.74C68.9616 150.364 68.5536 150.176 68.0336 150.176C67.5216 150.176 67.1136 150.364 66.8096 150.74C66.5136 151.108 66.3656 151.56 66.3656 152.096C66.3656 152.64 66.5136 153.1 66.8096 153.476C67.1136 153.844 67.5216 154.028 68.0336 154.028ZM74.9125 155.144C74.0165 155.144 73.2965 154.852 72.7525 154.268C72.2085 153.676 71.9365 152.952 71.9365 152.096C71.9365 151.24 72.2085 150.52 72.7525 149.936C73.2965 149.352 74.0165 149.06 74.9125 149.06C75.8165 149.06 76.5405 149.352 77.0845 149.936C77.6285 150.52 77.9005 151.24 77.9005 152.096C77.9005 152.96 77.6285 153.684 77.0845 154.268C76.5405 154.852 75.8165 155.144 74.9125 155.144ZM74.9125 154.028C75.4325 154.028 75.8405 153.844 76.1365 153.476C76.4405 153.1 76.5925 152.64 76.5925 152.096C76.5925 151.56 76.4405 151.108 76.1365 150.74C75.8405 150.364 75.4325 150.176 74.9125 150.176C74.4005 150.176 73.9925 150.364 73.6885 150.74C73.3925 151.108 73.2445 151.56 73.2445 152.096C73.2445 152.64 73.3925 153.1 73.6885 153.476C73.9925 153.844 74.4005 154.028 74.9125 154.028ZM81.5274 157.352C80.5434 157.352 79.7354 157.064 79.1034 156.488L79.6914 155.576C80.1234 156.072 80.7354 156.32 81.5274 156.32C82.0074 156.32 82.4114 156.192 82.7394 155.936C83.0754 155.688 83.2434 155.292 83.2434 154.748V154.052C82.7474 154.692 82.1274 155.012 81.3834 155.012C80.6234 155.012 80.0034 154.748 79.5234 154.22C79.0514 153.692 78.8154 152.964 78.8154 152.036C78.8154 151.116 79.0514 150.392 79.5234 149.864C80.0034 149.328 80.6234 149.06 81.3834 149.06C82.1434 149.06 82.7634 149.376 83.2434 150.008V149.204H84.5034V154.7C84.5034 155.196 84.4154 155.624 84.2394 155.984C84.0714 156.352 83.8394 156.628 83.5434 156.812C83.2474 157.004 82.9314 157.14 82.5954 157.22C82.2674 157.308 81.9114 157.352 81.5274 157.352ZM81.7554 153.896C82.0434 153.896 82.3274 153.82 82.6074 153.668C82.8874 153.516 83.0994 153.332 83.2434 153.116V150.956C83.0994 150.74 82.8874 150.556 82.6074 150.404C82.3274 150.252 82.0434 150.176 81.7554 150.176C81.2594 150.176 80.8634 150.348 80.5674 150.692C80.2714 151.028 80.1234 151.476 80.1234 152.036C80.1234 152.596 80.2714 153.048 80.5674 153.392C80.8634 153.728 81.2594 153.896 81.7554 153.896ZM87.3963 155H86.1363V146.996H87.3963V155ZM91.7068 155.144C90.8268 155.144 90.0988 154.864 89.5228 154.304C88.9548 153.736 88.6708 153 88.6708 152.096C88.6708 151.248 88.9468 150.532 89.4988 149.948C90.0588 149.356 90.7628 149.06 91.6108 149.06C92.4668 149.06 93.1548 149.356 93.6748 149.948C94.2028 150.54 94.4668 151.296 94.4668 152.216V152.516H89.9908C90.0388 152.972 90.2268 153.352 90.5548 153.656C90.8828 153.96 91.3108 154.112 91.8388 154.112C92.1348 154.112 92.4308 154.056 92.7268 153.944C93.0308 153.832 93.2828 153.676 93.4828 153.476L94.0588 154.304C93.4748 154.864 92.6908 155.144 91.7068 155.144ZM93.2428 151.628C93.2268 151.228 93.0788 150.872 92.7988 150.56C92.5268 150.248 92.1308 150.092 91.6108 150.092C91.1148 150.092 90.7268 150.248 90.4468 150.56C90.1668 150.864 90.0108 151.22 89.9788 151.628H93.2428ZM106.029 155H104.433L103.845 153.464H100.173L99.5846 155H97.9886L101.133 146.996H102.885L106.029 155ZM103.449 152.228L102.009 148.412L100.569 152.228H103.449ZM112.207 155H110.947V154.208C110.467 154.832 109.847 155.144 109.087 155.144C108.327 155.144 107.707 154.872 107.227 154.328C106.747 153.784 106.507 153.044 106.507 152.108C106.507 151.18 106.747 150.44 107.227 149.888C107.707 149.336 108.327 149.06 109.087 149.06C109.847 149.06 110.467 149.376 110.947 150.008V146.996H112.207V155ZM109.447 154.028C109.743 154.028 110.031 153.956 110.311 153.812C110.591 153.668 110.803 153.484 110.947 153.26V150.956C110.803 150.732 110.591 150.548 110.311 150.404C110.031 150.252 109.743 150.176 109.447 150.176C108.951 150.176 108.555 150.356 108.259 150.716C107.963 151.076 107.815 151.54 107.815 152.108C107.815 152.676 107.963 153.14 108.259 153.5C108.555 153.852 108.951 154.028 109.447 154.028ZM115.819 155.144C114.779 155.144 113.951 154.844 113.335 154.244L113.911 153.332C114.127 153.556 114.419 153.748 114.787 153.908C115.155 154.068 115.519 154.148 115.879 154.148C116.247 154.148 116.527 154.076 116.719 153.932C116.919 153.788 117.019 153.6 117.019 153.368C117.019 153.16 116.899 153 116.659 152.888C116.419 152.768 116.127 152.676 115.783 152.612C115.439 152.54 115.095 152.456 114.751 152.36C114.407 152.256 114.115 152.076 113.875 151.82C113.635 151.564 113.515 151.232 113.515 150.824C113.515 150.328 113.719 149.912 114.127 149.576C114.535 149.232 115.091 149.06 115.795 149.06C116.683 149.06 117.435 149.332 118.051 149.876L117.523 150.764C117.339 150.556 117.095 150.388 116.791 150.26C116.487 150.132 116.159 150.068 115.807 150.068C115.479 150.068 115.215 150.136 115.015 150.272C114.823 150.4 114.727 150.568 114.727 150.776C114.727 150.936 114.811 151.068 114.979 151.172C115.155 151.268 115.371 151.34 115.627 151.388C115.891 151.436 116.175 151.504 116.479 151.592C116.783 151.672 117.063 151.768 117.319 151.88C117.583 151.992 117.799 152.176 117.967 152.432C118.143 152.68 118.231 152.984 118.231 153.344C118.231 153.872 118.019 154.304 117.595 154.64C117.171 154.976 116.579 155.144 115.819 155.144Z" fill="#1D1D26"/>
<path d="M61.784 179H56.852V170.996H58.256V177.764H61.784V179ZM63.6392 172.496C63.4312 172.496 63.2472 172.42 63.0872 172.268C62.9352 172.116 62.8592 171.932 62.8592 171.716C62.8592 171.5 62.9352 171.316 63.0872 171.164C63.2472 171.012 63.4312 170.936 63.6392 170.936C63.8552 170.936 64.0392 171.012 64.1912 171.164C64.3432 171.316 64.4192 171.5 64.4192 171.716C64.4192 171.932 64.3432 172.116 64.1912 172.268C64.0392 172.42 63.8552 172.496 63.6392 172.496ZM64.2752 179H63.0152V173.204H64.2752V179ZM71.0818 179H69.8218V175.376C69.8218 174.576 69.4338 174.176 68.6578 174.176C68.3538 174.176 68.0698 174.252 67.8058 174.404C67.5418 174.556 67.3298 174.74 67.1698 174.956V179H65.9098V173.204H67.1698V173.996C67.3858 173.74 67.6738 173.52 68.0338 173.336C68.3938 173.152 68.7858 173.06 69.2098 173.06C69.8258 173.06 70.2898 173.22 70.6018 173.54C70.9218 173.86 71.0818 174.32 71.0818 174.92V179ZM78.1423 179H76.5583L74.7823 176.612L73.9783 177.44V179H72.7183V170.996H73.9783V176L76.5343 173.204H78.0943L75.6823 175.832L78.1423 179ZM81.6522 179.144C80.7722 179.144 80.0442 178.864 79.4682 178.304C78.9002 177.736 78.6162 177 78.6162 176.096C78.6162 175.248 78.8922 174.532 79.4442 173.948C80.0042 173.356 80.7082 173.06 81.5562 173.06C82.4122 173.06 83.1002 173.356 83.6202 173.948C84.1482 174.54 84.4122 175.296 84.4122 176.216V176.516H79.9362C79.9842 176.972 80.1722 177.352 80.5002 177.656C80.8282 177.96 81.2562 178.112 81.7842 178.112C82.0802 178.112 82.3762 178.056 82.6722 177.944C82.9762 177.832 83.2282 177.676 83.4282 177.476L84.0042 178.304C83.4202 178.864 82.6362 179.144 81.6522 179.144ZM83.1882 175.628C83.1722 175.228 83.0242 174.872 82.7442 174.56C82.4722 174.248 82.0762 174.092 81.5562 174.092C81.0602 174.092 80.6722 174.248 80.3922 174.56C80.1122 174.864 79.9562 175.22 79.9242 175.628H83.1882ZM90.9958 179H89.7358V178.208C89.2558 178.832 88.6358 179.144 87.8758 179.144C87.1158 179.144 86.4958 178.872 86.0158 178.328C85.5358 177.784 85.2958 177.044 85.2958 176.108C85.2958 175.18 85.5358 174.44 86.0158 173.888C86.4958 173.336 87.1158 173.06 87.8758 173.06C88.6358 173.06 89.2558 173.376 89.7358 174.008V170.996H90.9958V179ZM88.2358 178.028C88.5318 178.028 88.8198 177.956 89.0998 177.812C89.3798 177.668 89.5918 177.484 89.7358 177.26V174.956C89.5918 174.732 89.3798 174.548 89.0998 174.404C88.8198 174.252 88.5318 174.176 88.2358 174.176C87.7398 174.176 87.3438 174.356 87.0478 174.716C86.7518 175.076 86.6038 175.54 86.6038 176.108C86.6038 176.676 86.7518 177.14 87.0478 177.5C87.3438 177.852 87.7398 178.028 88.2358 178.028ZM94.0685 179H92.6645V170.996H94.0685V179ZM100.906 179H99.646V175.376C99.646 174.576 99.258 174.176 98.482 174.176C98.178 174.176 97.894 174.252 97.63 174.404C97.366 174.556 97.154 174.74 96.994 174.956V179H95.734V173.204H96.994V173.996C97.21 173.74 97.498 173.52 97.858 173.336C98.218 173.152 98.61 173.06 99.034 173.06C99.65 173.06 100.114 173.22 100.426 173.54C100.746 173.86 100.906 174.32 100.906 174.92V179ZM112.861 179H111.265L110.677 177.464H107.005L106.417 179H104.821L107.965 170.996H109.717L112.861 179ZM110.281 176.228L108.841 172.412L107.401 176.228H110.281ZM119.039 179H117.779V178.208C117.299 178.832 116.679 179.144 115.919 179.144C115.159 179.144 114.539 178.872 114.059 178.328C113.579 177.784 113.339 177.044 113.339 176.108C113.339 175.18 113.579 174.44 114.059 173.888C114.539 173.336 115.159 173.06 115.919 173.06C116.679 173.06 117.299 173.376 117.779 174.008V170.996H119.039V179ZM116.279 178.028C116.575 178.028 116.863 177.956 117.143 177.812C117.423 177.668 117.635 177.484 117.779 177.26V174.956C117.635 174.732 117.423 174.548 117.143 174.404C116.863 174.252 116.575 174.176 116.279 174.176C115.783 174.176 115.387 174.356 115.091 174.716C114.795 175.076 114.647 175.54 114.647 176.108C114.647 176.676 114.795 177.14 115.091 177.5C115.387 177.852 115.783 178.028 116.279 178.028ZM122.651 179.144C121.611 179.144 120.783 178.844 120.167 178.244L120.743 177.332C120.959 177.556 121.251 177.748 121.619 177.908C121.987 178.068 122.351 178.148 122.711 178.148C123.079 178.148 123.359 178.076 123.551 177.932C123.751 177.788 123.851 177.6 123.851 177.368C123.851 177.16 123.731 177 123.491 176.888C123.251 176.768 122.959 176.676 122.615 176.612C122.271 176.54 121.927 176.456 121.583 176.36C121.239 176.256 120.947 176.076 120.707 175.82C120.467 175.564 120.347 175.232 120.347 174.824C120.347 174.328 120.551 173.912 120.959 173.576C121.367 173.232 121.923 173.06 122.627 173.06C123.515 173.06 124.267 173.332 124.883 173.876L124.355 174.764C124.171 174.556 123.927 174.388 123.623 174.26C123.319 174.132 122.991 174.068 122.639 174.068C122.311 174.068 122.047 174.136 121.847 174.272C121.655 174.4 121.559 174.568 121.559 174.776C121.559 174.936 121.643 175.068 121.811 175.172C121.987 175.268 122.203 175.34 122.459 175.388C122.723 175.436 123.007 175.504 123.311 175.592C123.615 175.672 123.895 175.768 124.151 175.88C124.415 175.992 124.631 176.176 124.799 176.432C124.975 176.68 125.063 176.984 125.063 177.344C125.063 177.872 124.851 178.304 124.427 178.64C124.003 178.976 123.411 179.144 122.651 179.144Z" fill="#1D1D26"/>
<path d="M58.256 132H56.852V123.996H62.336V125.232H58.256V127.308H62.252V128.544H58.256V132ZM68.3543 132H67.0943V131.376C66.6463 131.888 66.0223 132.144 65.2223 132.144C64.6943 132.144 64.2263 131.976 63.8183 131.64C63.4103 131.296 63.2063 130.824 63.2063 130.224C63.2063 129.608 63.4063 129.14 63.8063 128.82C64.2143 128.5 64.6863 128.34 65.2223 128.34C66.0463 128.34 66.6703 128.588 67.0943 129.084V128.22C67.0943 127.884 66.9703 127.62 66.7223 127.428C66.4743 127.236 66.1463 127.14 65.7383 127.14C65.0903 127.14 64.5183 127.384 64.0223 127.872L63.5063 126.996C64.1623 126.372 64.9743 126.06 65.9423 126.06C66.6543 126.06 67.2343 126.228 67.6823 126.564C68.1303 126.9 68.3543 127.432 68.3543 128.16V132ZM65.7143 131.28C66.3463 131.28 66.8063 131.08 67.0943 130.68V129.804C66.8063 129.404 66.3463 129.204 65.7143 129.204C65.3543 129.204 65.0583 129.3 64.8263 129.492C64.5943 129.684 64.4783 129.936 64.4783 130.248C64.4783 130.56 64.5943 130.812 64.8263 131.004C65.0583 131.188 65.3543 131.28 65.7143 131.28ZM72.6279 132.144C71.7479 132.144 71.0279 131.86 70.4679 131.292C69.9079 130.716 69.6279 129.984 69.6279 129.096C69.6279 128.216 69.9079 127.492 70.4679 126.924C71.0279 126.348 71.7479 126.06 72.6279 126.06C73.5959 126.06 74.3359 126.404 74.8479 127.092L74.0199 127.86C73.6999 127.404 73.2559 127.176 72.6879 127.176C72.1599 127.176 71.7359 127.356 71.4159 127.716C71.0959 128.068 70.9359 128.528 70.9359 129.096C70.9359 129.664 71.0959 130.128 71.4159 130.488C71.7359 130.848 72.1599 131.028 72.6879 131.028C73.2399 131.028 73.6839 130.8 74.0199 130.344L74.8479 131.112C74.3359 131.8 73.5959 132.144 72.6279 132.144ZM78.6287 132.144C77.7487 132.144 77.0207 131.864 76.4447 131.304C75.8767 130.736 75.5927 130 75.5927 129.096C75.5927 128.248 75.8687 127.532 76.4207 126.948C76.9807 126.356 77.6847 126.06 78.5327 126.06C79.3887 126.06 80.0767 126.356 80.5967 126.948C81.1247 127.54 81.3887 128.296 81.3887 129.216V129.516H76.9127C76.9607 129.972 77.1487 130.352 77.4767 130.656C77.8047 130.96 78.2327 131.112 78.7607 131.112C79.0567 131.112 79.3527 131.056 79.6487 130.944C79.9527 130.832 80.2047 130.676 80.4047 130.476L80.9807 131.304C80.3967 131.864 79.6127 132.144 78.6287 132.144ZM80.1647 128.628C80.1487 128.228 80.0007 127.872 79.7207 127.56C79.4487 127.248 79.0527 127.092 78.5327 127.092C78.0367 127.092 77.6487 127.248 77.3687 127.56C77.0887 127.864 76.9327 128.22 76.9007 128.628H80.1647ZM83.8924 130.26C84.0284 130.476 84.2364 130.66 84.5164 130.812C84.8044 130.956 85.0924 131.028 85.3804 131.028C85.8764 131.028 86.2724 130.852 86.5684 130.5C86.8724 130.14 87.0244 129.676 87.0244 129.108C87.0244 128.54 86.8724 128.076 86.5684 127.716C86.2724 127.356 85.8764 127.176 85.3804 127.176C85.0924 127.176 84.8084 127.252 84.5284 127.404C84.2484 127.556 84.0364 127.744 83.8924 127.968V130.26ZM83.8924 132H82.6324V123.996H83.8924V127.008C84.3644 126.376 84.9844 126.06 85.7524 126.06C86.5044 126.06 87.1204 126.34 87.6004 126.9C88.0804 127.452 88.3204 128.188 88.3204 129.108C88.3204 130.044 88.0804 130.784 87.6004 131.328C87.1204 131.872 86.5044 132.144 85.7524 132.144C84.9924 132.144 84.3724 131.832 83.8924 131.208V132ZM92.2211 132.144C91.3251 132.144 90.6051 131.852 90.0611 131.268C89.5171 130.676 89.2451 129.952 89.2451 129.096C89.2451 128.24 89.5171 127.52 90.0611 126.936C90.6051 126.352 91.3251 126.06 92.2211 126.06C93.1251 126.06 93.8491 126.352 94.3931 126.936C94.9371 127.52 95.2091 128.24 95.2091 129.096C95.2091 129.96 94.9371 130.684 94.3931 131.268C93.8491 131.852 93.1251 132.144 92.2211 132.144ZM92.2211 131.028C92.7411 131.028 93.1491 130.844 93.4451 130.476C93.7491 130.1 93.9011 129.64 93.9011 129.096C93.9011 128.56 93.7491 128.108 93.4451 127.74C93.1491 127.364 92.7411 127.176 92.2211 127.176C91.7091 127.176 91.3011 127.364 90.9971 127.74C90.7011 128.108 90.5531 128.56 90.5531 129.096C90.5531 129.64 90.7011 130.1 90.9971 130.476C91.3011 130.844 91.7091 131.028 92.2211 131.028ZM99.1 132.144C98.204 132.144 97.484 131.852 96.94 131.268C96.396 130.676 96.124 129.952 96.124 129.096C96.124 128.24 96.396 127.52 96.94 126.936C97.484 126.352 98.204 126.06 99.1 126.06C100.004 126.06 100.728 126.352 101.272 126.936C101.816 127.52 102.088 128.24 102.088 129.096C102.088 129.96 101.816 130.684 101.272 131.268C100.728 131.852 100.004 132.144 99.1 132.144ZM99.1 131.028C99.62 131.028 100.028 130.844 100.324 130.476C100.628 130.1 100.78 129.64 100.78 129.096C100.78 128.56 100.628 128.108 100.324 127.74C100.028 127.364 99.62 127.176 99.1 127.176C98.588 127.176 98.18 127.364 97.876 127.74C97.58 128.108 97.432 128.56 97.432 129.096C97.432 129.64 97.58 130.1 97.876 130.476C98.18 130.844 98.588 131.028 99.1 131.028ZM108.787 132H107.203L105.427 129.612L104.623 130.44V132H103.363V123.996H104.623V129L107.179 126.204H108.739L106.327 128.832L108.787 132Z" fill="#1D1D26"/>
<circle cx="36" cy="152" r="8" fill="#A4D9FD"/>
<path d="M65.168 203H63.764V197.06L61.304 203H60.704L58.256 197.06V203H56.852V194.996H58.832L61.004 200.264L63.188 194.996H65.168V203ZM71.6355 203H70.3755V202.376C69.9275 202.888 69.3035 203.144 68.5035 203.144C67.9755 203.144 67.5075 202.976 67.0995 202.64C66.6915 202.296 66.4875 201.824 66.4875 201.224C66.4875 200.608 66.6875 200.14 67.0875 199.82C67.4955 199.5 67.9675 199.34 68.5035 199.34C69.3275 199.34 69.9515 199.588 70.3755 200.084V199.22C70.3755 198.884 70.2515 198.62 70.0035 198.428C69.7555 198.236 69.4275 198.14 69.0195 198.14C68.3715 198.14 67.7995 198.384 67.3035 198.872L66.7875 197.996C67.4435 197.372 68.2555 197.06 69.2235 197.06C69.9355 197.06 70.5155 197.228 70.9635 197.564C71.4115 197.9 71.6355 198.432 71.6355 199.16V203ZM68.9955 202.28C69.6275 202.28 70.0875 202.08 70.3755 201.68V200.804C70.0875 200.404 69.6275 200.204 68.9955 200.204C68.6355 200.204 68.3395 200.3 68.1075 200.492C67.8755 200.684 67.7595 200.936 67.7595 201.248C67.7595 201.56 67.8755 201.812 68.1075 202.004C68.3395 202.188 68.6355 202.28 68.9955 202.28ZM73.8931 196.496C73.6851 196.496 73.5011 196.42 73.3411 196.268C73.1891 196.116 73.1131 195.932 73.1131 195.716C73.1131 195.5 73.1891 195.316 73.3411 195.164C73.5011 195.012 73.6851 194.936 73.8931 194.936C74.1091 194.936 74.2931 195.012 74.4451 195.164C74.5971 195.316 74.6731 195.5 74.6731 195.716C74.6731 195.932 74.5971 196.116 74.4451 196.268C74.2931 196.42 74.1091 196.496 73.8931 196.496ZM74.5291 203H73.2691V197.204H74.5291V203ZM77.4237 203H76.1637V194.996H77.4237V203ZM81.6982 203.144C80.8182 203.144 80.0982 202.86 79.5382 202.292C78.9782 201.716 78.6982 200.984 78.6982 200.096C78.6982 199.216 78.9782 198.492 79.5382 197.924C80.0982 197.348 80.8182 197.06 81.6982 197.06C82.6662 197.06 83.4062 197.404 83.9182 198.092L83.0902 198.86C82.7702 198.404 82.3262 198.176 81.7582 198.176C81.2302 198.176 80.8062 198.356 80.4862 198.716C80.1662 199.068 80.0062 199.528 80.0062 200.096C80.0062 200.664 80.1662 201.128 80.4862 201.488C80.8062 201.848 81.2302 202.028 81.7582 202.028C82.3102 202.028 82.7542 201.8 83.0902 201.344L83.9182 202.112C83.4062 202.8 82.6662 203.144 81.6982 203.144ZM90.207 203H88.947V199.352C88.947 198.928 88.843 198.628 88.635 198.452C88.435 198.268 88.147 198.176 87.771 198.176C87.475 198.176 87.195 198.252 86.931 198.404C86.667 198.556 86.451 198.74 86.283 198.956V203H85.023V194.996H86.283V197.996C86.499 197.74 86.787 197.52 87.147 197.336C87.515 197.152 87.911 197.06 88.335 197.06C89.583 197.06 90.207 197.672 90.207 198.896V203ZM92.4673 196.496C92.2593 196.496 92.0753 196.42 91.9153 196.268C91.7633 196.116 91.6873 195.932 91.6873 195.716C91.6873 195.5 91.7633 195.316 91.9153 195.164C92.0753 195.012 92.2593 194.936 92.4673 194.936C92.6833 194.936 92.8673 195.012 93.0193 195.164C93.1713 195.316 93.2473 195.5 93.2473 195.716C93.2473 195.932 93.1713 196.116 93.0193 196.268C92.8673 196.42 92.6833 196.496 92.4673 196.496ZM93.1033 203H91.8433V197.204H93.1033V203ZM103.102 203H101.842V199.22C101.842 198.524 101.526 198.176 100.894 198.176C100.63 198.176 100.374 198.252 100.126 198.404C99.8779 198.556 99.6859 198.736 99.5499 198.944V203H98.2899V199.22C98.2899 198.524 97.9699 198.176 97.3299 198.176C97.0739 198.176 96.8219 198.252 96.5739 198.404C96.3339 198.556 96.1419 198.74 95.9979 198.956V203H94.7379V197.204H95.9979V197.996C96.1419 197.78 96.3899 197.572 96.7419 197.372C97.1019 197.164 97.4819 197.06 97.8819 197.06C98.7219 197.06 99.2499 197.416 99.4659 198.128C99.6499 197.84 99.9219 197.592 100.282 197.384C100.642 197.168 101.026 197.06 101.434 197.06C102.546 197.06 103.102 197.644 103.102 198.812V203ZM107.854 203.144C107.086 203.144 106.466 202.828 105.994 202.196V205.208H104.734V197.204H105.994V197.996C106.458 197.372 107.078 197.06 107.854 197.06C108.614 197.06 109.23 197.332 109.702 197.876C110.182 198.42 110.422 199.16 110.422 200.096C110.422 201.032 110.182 201.776 109.702 202.328C109.23 202.872 108.614 203.144 107.854 203.144ZM107.482 202.028C107.978 202.028 108.374 201.848 108.67 201.488C108.966 201.128 109.114 200.664 109.114 200.096C109.114 199.528 108.966 199.068 108.67 198.716C108.374 198.356 107.978 198.176 107.482 198.176C107.194 198.176 106.91 198.252 106.63 198.404C106.35 198.556 106.138 198.74 105.994 198.956V201.248C106.138 201.464 106.35 201.648 106.63 201.8C106.91 201.952 107.194 202.028 107.482 202.028ZM120.273 203H114.79V194.996H120.273V196.232H116.194V198.308H120.19V199.544H116.194V201.764H120.273V203ZM130.043 203H128.783V199.22C128.783 198.524 128.467 198.176 127.835 198.176C127.571 198.176 127.315 198.252 127.067 198.404C126.819 198.556 126.627 198.736 126.491 198.944V203H125.231V199.22C125.231 198.524 124.911 198.176 124.271 198.176C124.015 198.176 123.763 198.252 123.515 198.404C123.275 198.556 123.083 198.74 122.939 198.956V203H121.679V197.204H122.939V197.996C123.083 197.78 123.331 197.572 123.683 197.372C124.043 197.164 124.423 197.06 124.823 197.06C125.663 197.06 126.191 197.416 126.407 198.128C126.591 197.84 126.863 197.592 127.223 197.384C127.583 197.168 127.967 197.06 128.375 197.06C129.487 197.06 130.043 197.644 130.043 198.812V203ZM136.475 203H135.215V202.376C134.767 202.888 134.143 203.144 133.343 203.144C132.815 203.144 132.347 202.976 131.939 202.64C131.531 202.296 131.327 201.824 131.327 201.224C131.327 200.608 131.527 200.14 131.927 199.82C132.335 199.5 132.807 199.34 133.343 199.34C134.167 199.34 134.791 199.588 135.215 200.084V199.22C135.215 198.884 135.091 198.62 134.843 198.428C134.595 198.236 134.267 198.14 133.859 198.14C133.211 198.14 132.639 198.384 132.143 198.872L131.627 197.996C132.283 197.372 133.095 197.06 134.063 197.06C134.775 197.06 135.355 197.228 135.803 197.564C136.251 197.9 136.475 198.432 136.475 199.16V203ZM133.835 202.28C134.467 202.28 134.927 202.08 135.215 201.68V200.804C134.927 200.404 134.467 200.204 133.835 200.204C133.475 200.204 133.179 200.3 132.947 200.492C132.715 200.684 132.599 200.936 132.599 201.248C132.599 201.56 132.715 201.812 132.947 202.004C133.179 202.188 133.475 202.28 133.835 202.28ZM138.733 196.496C138.525 196.496 138.341 196.42 138.181 196.268C138.029 196.116 137.953 195.932 137.953 195.716C137.953 195.5 138.029 195.316 138.181 195.164C138.341 195.012 138.525 194.936 138.733 194.936C138.949 194.936 139.133 195.012 139.285 195.164C139.437 195.316 139.513 195.5 139.513 195.716C139.513 195.932 139.437 196.116 139.285 196.268C139.133 196.42 138.949 196.496 138.733 196.496ZM139.369 203H138.109V197.204H139.369V203ZM142.264 203H141.004V194.996H142.264V203ZM145.878 203.144C144.838 203.144 144.01 202.844 143.394 202.244L143.97 201.332C144.186 201.556 144.478 201.748 144.846 201.908C145.214 202.068 145.578 202.148 145.938 202.148C146.306 202.148 146.586 202.076 146.778 201.932C146.978 201.788 147.078 201.6 147.078 201.368C147.078 201.16 146.958 201 146.718 200.888C146.478 200.768 146.186 200.676 145.842 200.612C145.498 200.54 145.154 200.456 144.81 200.36C144.466 200.256 144.174 200.076 143.934 199.82C143.694 199.564 143.574 199.232 143.574 198.824C143.574 198.328 143.778 197.912 144.186 197.576C144.594 197.232 145.15 197.06 145.854 197.06C146.742 197.06 147.494 197.332 148.11 197.876L147.582 198.764C147.398 198.556 147.154 198.388 146.85 198.26C146.546 198.132 146.218 198.068 145.866 198.068C145.538 198.068 145.274 198.136 145.074 198.272C144.882 198.4 144.786 198.568 144.786 198.776C144.786 198.936 144.87 199.068 145.038 199.172C145.214 199.268 145.43 199.34 145.686 199.388C145.95 199.436 146.234 199.504 146.538 199.592C146.842 199.672 147.122 199.768 147.378 199.88C147.642 199.992 147.858 200.176 148.026 200.432C148.202 200.68 148.29 200.984 148.29 201.344C148.29 201.872 148.078 202.304 147.654 202.64C147.23 202.976 146.638 203.144 145.878 203.144Z" fill="#1D1D26"/>
<circle cx="36" cy="200" r="8" fill="#FB9090"/>
<circle cx="36" cy="176" r="8" fill="#DC9EFA"/>
<circle cx="36" cy="128" r="8" fill="#C7FC9D"/>
<path d="M166.556 203H165.152V201.188H161.336V200.06L164.624 194.996H166.556V199.952H167.624V201.188H166.556V203ZM165.152 199.952V196.256L162.716 199.952H165.152ZM170.277 198.848C169.693 198.848 169.217 198.664 168.849 198.296C168.481 197.92 168.297 197.448 168.297 196.88C168.297 196.304 168.481 195.828 168.849 195.452C169.217 195.068 169.693 194.876 170.277 194.876C170.869 194.876 171.349 195.068 171.717 195.452C172.093 195.828 172.281 196.304 172.281 196.88C172.281 197.448 172.093 197.92 171.717 198.296C171.349 198.664 170.869 198.848 170.277 198.848ZM170.301 203H169.509L174.621 194.996H175.425L170.301 203ZM176.013 202.592C175.645 202.96 175.169 203.144 174.585 203.144C174.001 203.144 173.525 202.96 173.157 202.592C172.789 202.216 172.605 201.744 172.605 201.176C172.605 200.6 172.789 200.124 173.157 199.748C173.525 199.364 174.001 199.172 174.585 199.172C175.169 199.172 175.645 199.364 176.013 199.748C176.389 200.132 176.577 200.608 176.577 201.176C176.577 201.744 176.389 202.216 176.013 202.592ZM170.277 198.056C170.589 198.056 170.845 197.948 171.045 197.732C171.245 197.508 171.345 197.224 171.345 196.88C171.345 196.52 171.245 196.232 171.045 196.016C170.845 195.792 170.589 195.68 170.277 195.68C169.965 195.68 169.709 195.792 169.509 196.016C169.317 196.232 169.221 196.52 169.221 196.88C169.221 197.224 169.321 197.508 169.521 197.732C169.721 197.948 169.973 198.056 170.277 198.056ZM173.817 202.028C174.017 202.244 174.273 202.352 174.585 202.352C174.897 202.352 175.153 202.244 175.353 202.028C175.553 201.804 175.653 201.52 175.653 201.176C175.653 200.816 175.553 200.528 175.353 200.312C175.153 200.088 174.897 199.976 174.585 199.976C174.273 199.976 174.017 200.088 173.817 200.312C173.625 200.528 173.529 200.816 173.529 201.176C173.529 201.52 173.625 201.804 173.817 202.028Z" fill="#1D1D26"/>
<path d="M164.708 157H163.304V150.82L161.996 152.176L161.18 151.324L163.484 148.996H164.708V157ZM171.955 157H166.159V155.896C167.831 154.632 168.967 153.696 169.567 153.088C170.175 152.472 170.479 151.892 170.479 151.348C170.479 150.956 170.335 150.656 170.047 150.448C169.767 150.232 169.427 150.124 169.027 150.124C168.147 150.124 167.427 150.444 166.867 151.084L166.051 150.16C166.395 149.744 166.827 149.428 167.347 149.212C167.875 148.988 168.427 148.876 169.003 148.876C169.819 148.876 170.507 149.096 171.067 149.536C171.627 149.976 171.907 150.58 171.907 151.348C171.907 152.036 171.619 152.72 171.043 153.4C170.467 154.08 169.587 154.868 168.403 155.764H171.955V157ZM175.011 152.848C174.427 152.848 173.951 152.664 173.583 152.296C173.215 151.92 173.031 151.448 173.031 150.88C173.031 150.304 173.215 149.828 173.583 149.452C173.951 149.068 174.427 148.876 175.011 148.876C175.603 148.876 176.083 149.068 176.451 149.452C176.827 149.828 177.015 150.304 177.015 150.88C177.015 151.448 176.827 151.92 176.451 152.296C176.083 152.664 175.603 152.848 175.011 152.848ZM175.035 157H174.243L179.355 148.996H180.159L175.035 157ZM180.747 156.592C180.379 156.96 179.903 157.144 179.319 157.144C178.735 157.144 178.259 156.96 177.891 156.592C177.523 156.216 177.339 155.744 177.339 155.176C177.339 154.6 177.523 154.124 177.891 153.748C178.259 153.364 178.735 153.172 179.319 153.172C179.903 153.172 180.379 153.364 180.747 153.748C181.123 154.132 181.311 154.608 181.311 155.176C181.311 155.744 181.123 156.216 180.747 156.592ZM175.011 152.056C175.323 152.056 175.579 151.948 175.779 151.732C175.979 151.508 176.079 151.224 176.079 150.88C176.079 150.52 175.979 150.232 175.779 150.016C175.579 149.792 175.323 149.68 175.011 149.68C174.699 149.68 174.443 149.792 174.243 150.016C174.051 150.232 173.955 150.52 173.955 150.88C173.955 151.224 174.055 151.508 174.255 151.732C174.455 151.948 174.707 152.056 175.011 152.056ZM178.551 156.028C178.751 156.244 179.007 156.352 179.319 156.352C179.631 156.352 179.887 156.244 180.087 156.028C180.287 155.804 180.387 155.52 180.387 155.176C180.387 154.816 180.287 154.528 180.087 154.312C179.887 154.088 179.631 153.976 179.319 153.976C179.007 153.976 178.751 154.088 178.551 154.312C178.359 154.528 178.263 154.816 178.263 155.176C178.263 155.52 178.359 155.804 178.551 156.028Z" fill="#1D1D26"/>
<path d="M167.748 178.568C167.164 178.952 166.44 179.144 165.576 179.144C164.712 179.144 163.984 178.952 163.392 178.568C162.8 178.176 162.504 177.636 162.504 176.948C162.504 176.46 162.672 176.036 163.008 175.676C163.352 175.316 163.784 175.048 164.304 174.872C163.808 174.712 163.404 174.476 163.092 174.164C162.788 173.852 162.636 173.456 162.636 172.976C162.636 172.624 162.72 172.308 162.888 172.028C163.064 171.748 163.292 171.528 163.572 171.368C163.86 171.208 164.172 171.088 164.508 171.008C164.852 170.92 165.208 170.876 165.576 170.876C165.944 170.876 166.296 170.92 166.632 171.008C166.968 171.088 167.28 171.208 167.568 171.368C167.856 171.528 168.084 171.748 168.252 172.028C168.428 172.308 168.516 172.624 168.516 172.976C168.516 173.88 167.956 174.512 166.836 174.872C167.356 175.048 167.784 175.316 168.12 175.676C168.464 176.036 168.636 176.46 168.636 176.948C168.636 177.636 168.34 178.176 167.748 178.568ZM165.576 174.32C165.792 174.28 166 174.228 166.2 174.164C166.4 174.092 166.596 173.972 166.788 173.804C166.988 173.628 167.088 173.424 167.088 173.192C167.088 172.864 166.944 172.604 166.656 172.412C166.376 172.22 166.016 172.124 165.576 172.124C165.128 172.124 164.76 172.22 164.472 172.412C164.192 172.604 164.052 172.864 164.052 173.192C164.052 173.424 164.152 173.628 164.352 173.804C164.552 173.972 164.752 174.092 164.952 174.164C165.152 174.228 165.36 174.28 165.576 174.32ZM165.576 177.896C166.032 177.896 166.42 177.792 166.74 177.584C167.06 177.376 167.22 177.104 167.22 176.768C167.22 176.408 167.032 176.12 166.656 175.904C166.288 175.68 165.928 175.548 165.576 175.508C165.368 175.532 165.148 175.588 164.916 175.676C164.684 175.756 164.46 175.896 164.244 176.096C164.028 176.288 163.92 176.512 163.92 176.768C163.92 177.104 164.076 177.376 164.388 177.584C164.708 177.792 165.104 177.896 165.576 177.896ZM171.453 174.848C170.869 174.848 170.393 174.664 170.025 174.296C169.657 173.92 169.473 173.448 169.473 172.88C169.473 172.304 169.657 171.828 170.025 171.452C170.393 171.068 170.869 170.876 171.453 170.876C172.045 170.876 172.525 171.068 172.893 171.452C173.269 171.828 173.457 172.304 173.457 172.88C173.457 173.448 173.269 173.92 172.893 174.296C172.525 174.664 172.045 174.848 171.453 174.848ZM171.477 179H170.685L175.797 170.996H176.601L171.477 179ZM177.189 178.592C176.821 178.96 176.345 179.144 175.761 179.144C175.177 179.144 174.701 178.96 174.333 178.592C173.965 178.216 173.781 177.744 173.781 177.176C173.781 176.6 173.965 176.124 174.333 175.748C174.701 175.364 175.177 175.172 175.761 175.172C176.345 175.172 176.821 175.364 177.189 175.748C177.565 176.132 177.753 176.608 177.753 177.176C177.753 177.744 177.565 178.216 177.189 178.592ZM171.453 174.056C171.765 174.056 172.021 173.948 172.221 173.732C172.421 173.508 172.521 173.224 172.521 172.88C172.521 172.52 172.421 172.232 172.221 172.016C172.021 171.792 171.765 171.68 171.453 171.68C171.141 171.68 170.885 171.792 170.685 172.016C170.493 172.232 170.397 172.52 170.397 172.88C170.397 173.224 170.497 173.508 170.697 173.732C170.897 173.948 171.149 174.056 171.453 174.056ZM174.993 178.028C175.193 178.244 175.449 178.352 175.761 178.352C176.073 178.352 176.329 178.244 176.529 178.028C176.729 177.804 176.829 177.52 176.829 177.176C176.829 176.816 176.729 176.528 176.529 176.312C176.329 176.088 176.073 175.976 175.761 175.976C175.449 175.976 175.193 176.088 174.993 176.312C174.801 176.528 174.705 176.816 174.705 177.176C174.705 177.52 174.801 177.804 174.993 178.028Z" fill="#1D1D26"/>
</g>
<path d="M82.98 54L77.6 40.66H75.54L70.18 54H72.08L73.26 51.04H79.9L81.08 54H82.98ZM79.4 49.56H73.74L76.58 42.38L79.4 49.56ZM86.8892 54.24C87.7692 54.24 88.3092 53.98 88.6892 53.62L88.2492 52.5C88.0492 52.72 87.6492 52.9 87.2292 52.9C86.5692 52.9 86.2492 52.38 86.2492 51.66V45.66H88.2092V44.34H86.2492V41.7H84.7492V44.34H83.1492V45.66H84.7492V51.98C84.7492 53.42 85.4692 54.24 86.8892 54.24ZM92.7681 54.24C93.6481 54.24 94.1881 53.98 94.5681 53.62L94.1281 52.5C93.9281 52.72 93.5281 52.9 93.1081 52.9C92.4481 52.9 92.1281 52.38 92.1281 51.66V45.66H94.0881V44.34H92.1281V41.7H90.6281V44.34H89.0281V45.66H90.6281V51.98C90.6281 53.42 91.3481 54.24 92.7681 54.24ZM97.707 54V47.16C98.147 46.38 99.407 45.62 100.327 45.62C100.567 45.62 100.747 45.64 100.927 45.68V44.14C99.607 44.14 98.487 44.88 97.707 45.9V44.34H96.207V54H97.707ZM103.549 42.96C104.109 42.96 104.569 42.52 104.569 41.96C104.569 41.4 104.109 40.94 103.549 40.94C103.009 40.94 102.549 41.4 102.549 41.96C102.549 42.52 103.009 42.96 103.549 42.96ZM104.309 54V44.34H102.809V54H104.309ZM108.801 51.38V47C109.321 46.16 110.501 45.44 111.681 45.44C113.641 45.44 114.801 47.04 114.801 49.18C114.801 51.32 113.641 52.9 111.681 52.9C110.501 52.9 109.321 52.22 108.801 51.38ZM108.801 54V52.56C109.521 53.54 110.701 54.24 112.061 54.24C114.581 54.24 116.361 52.32 116.361 49.18C116.361 46.1 114.581 44.1 112.061 44.1C110.741 44.1 109.581 44.74 108.801 45.8V40.66H107.301V54H108.801ZM126.825 54V44.34H125.325V51.44C124.765 52.22 123.645 52.9 122.465 52.9C121.165 52.9 120.305 52.4 120.305 50.7V44.34H118.805V51.16C118.805 53.26 119.865 54.24 121.885 54.24C123.325 54.24 124.585 53.48 125.325 52.64V54H126.825ZM132.26 54.24C133.14 54.24 133.68 53.98 134.06 53.62L133.62 52.5C133.42 52.72 133.02 52.9 132.6 52.9C131.94 52.9 131.62 52.38 131.62 51.66V45.66H133.58V44.34H131.62V41.7H130.12V44.34H128.52V45.66H130.12V51.98C130.12 53.42 130.84 54.24 132.26 54.24ZM140.059 54.24C141.639 54.24 142.939 53.72 143.899 52.76L143.179 51.78C142.419 52.56 141.299 53 140.199 53C138.119 53 136.839 51.48 136.719 49.66H144.539V49.28C144.539 46.38 142.819 44.1 139.899 44.1C137.139 44.1 135.139 46.36 135.139 49.16C135.139 52.18 137.199 54.24 140.059 54.24ZM143.059 48.56H136.719C136.799 47.08 137.819 45.34 139.879 45.34C142.079 45.34 143.039 47.12 143.059 48.56ZM156.385 54.24C158.145 54.24 159.185 53.52 159.925 52.56L158.925 51.64C158.285 52.5 157.465 52.9 156.465 52.9C154.405 52.9 153.125 51.3 153.125 49.16C153.125 47.02 154.405 45.44 156.465 45.44C157.465 45.44 158.285 45.82 158.925 46.7L159.925 45.78C159.185 44.82 158.145 44.1 156.385 44.1C153.505 44.1 151.565 46.3 151.565 49.16C151.565 52.04 153.505 54.24 156.385 54.24ZM170.067 54V47.18C170.067 45.08 169.007 44.1 166.987 44.1C165.527 44.1 164.207 44.94 163.527 45.74V40.66H162.027V54H163.527V46.94C164.107 46.16 165.227 45.44 166.387 45.44C167.687 45.44 168.567 45.94 168.567 47.64V54H170.067ZM180.603 54V47.36C180.603 45.02 178.903 44.1 176.863 44.1C175.283 44.1 174.043 44.62 173.003 45.7L173.703 46.74C174.563 45.82 175.503 45.4 176.663 45.4C178.063 45.4 179.103 46.14 179.103 47.44V49.18C178.323 48.28 177.223 47.86 175.903 47.86C174.263 47.86 172.523 48.88 172.523 51.04C172.523 53.14 174.263 54.24 175.903 54.24C177.203 54.24 178.303 53.78 179.103 52.9V54H180.603ZM176.443 53.16C175.043 53.16 174.062 52.28 174.062 51.06C174.062 49.82 175.043 48.94 176.443 48.94C177.503 48.94 178.523 49.34 179.103 50.14V51.96C178.523 52.76 177.503 53.16 176.443 53.16ZM191.629 54V47.22C191.629 45.12 190.569 44.1 188.549 44.1C187.109 44.1 185.789 44.94 185.109 45.74V44.34H183.609V54H185.109V46.94C185.669 46.16 186.789 45.44 187.969 45.44C189.269 45.44 190.129 45.98 190.129 47.68V54H191.629ZM202.645 54V47.22C202.645 45.12 201.585 44.1 199.565 44.1C198.125 44.1 196.805 44.94 196.125 45.74V44.34H194.625V54H196.125V46.94C196.685 46.16 197.805 45.44 198.985 45.44C200.285 45.44 201.145 45.98 201.145 47.68V54H202.645ZM210.001 54.24C211.581 54.24 212.881 53.72 213.841 52.76L213.121 51.78C212.361 52.56 211.241 53 210.141 53C208.061 53 206.781 51.48 206.661 49.66H214.481V49.28C214.481 46.38 212.761 44.1 209.841 44.1C207.081 44.1 205.081 46.36 205.081 49.16C205.081 52.18 207.141 54.24 210.001 54.24ZM213.001 48.56H206.661C206.741 47.08 207.761 45.34 209.821 45.34C212.021 45.34 212.981 47.12 213.001 48.56ZM218.41 54V40.66H216.91V54H218.41ZM229.619 54.24C232.119 54.24 233.419 52.94 233.419 51.32C233.419 47.56 227.439 48.96 227.439 46.84C227.439 45.98 228.259 45.32 229.579 45.32C230.819 45.32 231.879 45.84 232.459 46.54L233.159 45.5C232.379 44.72 231.219 44.1 229.579 44.1C227.279 44.1 225.979 45.38 225.979 46.88C225.979 50.46 231.959 49.02 231.959 51.36C231.959 52.32 231.159 53.02 229.679 53.02C228.359 53.02 227.139 52.38 226.499 51.64L225.719 52.72C226.699 53.76 228.039 54.24 229.619 54.24ZM243.875 54V44.34H242.375V51.44C241.815 52.22 240.695 52.9 239.515 52.9C238.215 52.9 237.355 52.4 237.355 50.7V44.34H235.855V51.16C235.855 53.26 236.915 54.24 238.935 54.24C240.375 54.24 241.635 53.48 242.375 52.64V54H243.875ZM251.131 54.24C252.891 54.24 253.931 53.52 254.671 52.56L253.671 51.64C253.031 52.5 252.211 52.9 251.211 52.9C249.151 52.9 247.871 51.3 247.871 49.16C247.871 47.02 249.151 45.44 251.211 45.44C252.211 45.44 253.031 45.82 253.671 46.7L254.671 45.78C253.931 44.82 252.891 44.1 251.131 44.1C248.251 44.1 246.311 46.3 246.311 49.16C246.311 52.04 248.251 54.24 251.131 54.24ZM261.033 54.24C262.793 54.24 263.833 53.52 264.573 52.56L263.573 51.64C262.933 52.5 262.113 52.9 261.113 52.9C259.053 52.9 257.773 51.3 257.773 49.16C257.773 47.02 259.053 45.44 261.113 45.44C262.113 45.44 262.933 45.82 263.573 46.7L264.573 45.78C263.833 44.82 262.793 44.1 261.033 44.1C258.153 44.1 256.213 46.3 256.213 49.16C256.213 52.04 258.153 54.24 261.033 54.24ZM271.036 54.24C272.616 54.24 273.916 53.72 274.876 52.76L274.156 51.78C273.396 52.56 272.276 53 271.176 53C269.096 53 267.816 51.48 267.696 49.66H275.516V49.28C275.516 46.38 273.796 44.1 270.876 44.1C268.116 44.1 266.116 46.36 266.116 49.16C266.116 52.18 268.176 54.24 271.036 54.24ZM274.036 48.56H267.696C267.776 47.08 268.796 45.34 270.856 45.34C273.056 45.34 274.016 47.12 274.036 48.56ZM281.005 54.24C283.505 54.24 284.805 52.94 284.805 51.32C284.805 47.56 278.825 48.96 278.825 46.84C278.825 45.98 279.645 45.32 280.965 45.32C282.205 45.32 283.265 45.84 283.845 46.54L284.545 45.5C283.765 44.72 282.605 44.1 280.965 44.1C278.665 44.1 277.365 45.38 277.365 46.88C277.365 50.46 283.345 49.02 283.345 51.36C283.345 52.32 282.545 53.02 281.065 53.02C279.745 53.02 278.525 52.38 277.885 51.64L277.105 52.72C278.085 53.76 279.425 54.24 281.005 54.24ZM290.302 54.24C292.802 54.24 294.102 52.94 294.102 51.32C294.102 47.56 288.122 48.96 288.122 46.84C288.122 45.98 288.942 45.32 290.262 45.32C291.502 45.32 292.562 45.84 293.142 46.54L293.842 45.5C293.062 44.72 291.902 44.1 290.262 44.1C287.962 44.1 286.662 45.38 286.662 46.88C286.662 50.46 292.642 49.02 292.642 51.36C292.642 52.32 291.842 53.02 290.362 53.02C289.042 53.02 287.822 52.38 287.182 51.64L286.402 52.72C287.382 53.76 288.722 54.24 290.302 54.24Z" fill="#3A3A3A"/>
<defs>
<filter id="filter0_d" x="-17" y="73" width="247" height="186" filterUnits="userSpaceOnUse" color-interpolation-filters="sRGB">
<feFlood flood-opacity="0" result="BackgroundImageFix"/>
<feColorMatrix in="SourceAlpha" type="matrix" values="0 0 0 0 0 0 0 0 0 0 0 0 0 0 0 0 0 0 127 0" result="hardAlpha"/>
<feMorphology radius="5" operator="dilate" in="SourceAlpha" result="effect1_dropShadow"/>
<feOffset/>
<feGaussianBlur stdDeviation="15"/>
<feColorMatrix type="matrix" values="0 0 0 0 0.683333 0 0 0 0 0.683333 0 0 0 0 0.683333 0 0 0 0.18 0"/>
<feBlend mode="normal" in2="BackgroundImageFix" result="effect1_dropShadow"/>
<feBlend mode="normal" in="SourceGraphic" in2="effect1_dropShadow" result="shape"/>
</filter>
<clipPath id="clip0">
<rect width="321" height="404" rx="20" fill="white"/>
</clipPath>
</defs>
</svg>
