<svg viewBox="0 0 1728 1117" fill="none" xmlns="http://www.w3.org/2000/svg">
<rect width="1728" height="1117" fill="#211E38"/>
<path d="M109.79 142.56C136.31 142.56 156.07 124.1 156.07 97.71C156.07 71.32 136.31 52.86 109.79 52.86C83.27 52.86 63.38 71.32 63.38 97.71C63.38 124.1 83.27 142.56 109.79 142.56ZM109.79 122.8C95.36 122.8 86.13 111.75 86.13 97.71C86.13 83.54 95.36 72.62 109.79 72.62C124.09 72.62 133.32 83.54 133.32 97.71C133.32 111.75 124.09 122.8 109.79 122.8ZM208.411 142.56C236.101 142.56 249.231 127.35 249.231 105.77V54.29H226.611V105.12C226.611 115.39 220.371 122.8 208.411 122.8C196.191 122.8 190.081 115.39 190.081 105.12V54.29H167.331V105.9C167.331 127.22 180.461 142.56 208.411 142.56ZM338.801 141L321.121 109.15C329.181 106.29 338.411 98.23 338.411 83.15C338.411 67.03 327.491 54.29 308.251 54.29H264.831V141H287.191V111.88H298.631L313.191 141H338.801ZM304.871 92.38H287.191V73.79H304.871C310.721 73.79 315.661 77.17 315.661 83.02C315.661 89.13 310.721 92.38 304.871 92.38ZM491.644 142.56C519.334 142.56 532.464 127.35 532.464 105.77V54.29H509.844V105.12C509.844 115.39 503.604 122.8 491.644 122.8C479.424 122.8 473.314 115.39 473.314 105.12V54.29H450.564V105.9C450.564 127.22 463.694 142.56 491.644 142.56ZM628.664 141V54.29H606.174V102L571.074 54.29H548.064V141H570.424V90.82L607.084 141H628.664ZM666.654 141V54.29H644.294V141H666.654ZM724.763 142.56C745.693 142.56 757.003 130.47 762.593 119.29L743.353 110.19C740.493 117.08 733.083 122.8 724.763 122.8C710.593 122.8 700.583 111.88 700.583 97.71C700.583 83.54 710.593 72.62 724.763 72.62C733.083 72.62 740.493 78.34 743.353 85.23L762.593 76.13C756.873 64.69 745.693 52.86 724.763 52.86C698.113 52.86 677.833 70.93 677.833 97.71C677.833 124.36 698.113 142.56 724.763 142.56ZM814.253 142.56C840.773 142.56 860.533 124.1 860.533 97.71C860.533 71.32 840.773 52.86 814.253 52.86C787.733 52.86 767.843 71.32 767.843 97.71C767.843 124.1 787.733 142.56 814.253 142.56ZM814.253 122.8C799.823 122.8 790.593 111.75 790.593 97.71C790.593 83.54 799.823 72.62 814.253 72.62C828.553 72.62 837.783 83.54 837.783 97.71C837.783 111.75 828.553 122.8 814.253 122.8ZM945.764 141L928.084 109.15C936.144 106.29 945.374 98.23 945.374 83.15C945.374 67.03 934.454 54.29 915.214 54.29H871.794V141H894.154V111.88H905.594L920.154 141H945.764ZM911.834 92.38H894.154V73.79H911.834C917.684 73.79 922.624 77.17 922.624 83.02C922.624 89.13 917.684 92.38 911.834 92.38ZM1038.34 141V54.29H1015.85V102L980.751 54.29H957.741V141H980.101V90.82L1016.76 141H1038.34ZM1234.49 141V54.29H1212.13V86.66H1176.12V54.29H1153.76V141H1176.12V106.16H1212.13V141H1234.49ZM1292.1 142.56C1318.62 142.56 1338.38 124.1 1338.38 97.71C1338.38 71.32 1318.62 52.86 1292.1 52.86C1265.58 52.86 1245.69 71.32 1245.69 97.71C1245.69 124.1 1265.58 142.56 1292.1 142.56ZM1292.1 122.8C1277.67 122.8 1268.44 111.75 1268.44 97.71C1268.44 83.54 1277.67 72.62 1292.1 72.62C1306.4 72.62 1315.63 83.54 1315.63 97.71C1315.63 111.75 1306.4 122.8 1292.1 122.8ZM1423.62 141L1405.94 109.15C1414 106.29 1423.23 98.23 1423.23 83.15C1423.23 67.03 1412.31 54.29 1393.07 54.29H1349.65V141H1372.01V111.88H1383.45L1398.01 141H1423.62ZM1389.69 92.38H1372.01V73.79H1389.69C1395.54 73.79 1400.48 77.17 1400.48 83.02C1400.48 89.13 1395.54 92.38 1389.69 92.38ZM1516.19 141V54.29H1493.7V102L1458.6 54.29H1435.59V141H1457.95V90.82L1494.61 141H1516.19ZM1564.06 142.56C1587.33 142.56 1600.2 130.99 1600.2 113.57C1600.2 81.33 1551.19 89.39 1551.19 78.34C1551.19 74.7 1554.05 72.1 1560.55 72.1C1569.13 72.1 1578.62 75.09 1585.9 81.07L1598.12 65.08C1588.89 57.15 1576.8 52.99 1562.89 52.99C1540.66 52.99 1528.31 65.99 1528.31 80.55C1528.31 113.96 1577.45 104.47 1577.45 116.3C1577.45 120.46 1572.77 123.45 1565.1 123.45C1553.27 123.45 1543.65 118.25 1537.41 112.01L1525.58 128.78C1534.29 137.1 1546.51 142.56 1564.06 142.56ZM104.33 271C131.5 271 151.13 254.49 151.13 227.58C151.13 200.67 131.5 184.29 104.2 184.29H67.8V271H104.33ZM104.2 251.5H90.16V203.79H104.33C120.19 203.79 128.25 214.19 128.25 227.58C128.25 240.45 119.41 251.5 104.2 251.5ZM225.823 271V251.5H184.613V236.81H224.913V217.31H184.613V203.79H225.823V184.29H162.253V271H225.823ZM261.166 271V236.81H301.466V217.31H261.166V203.79H302.376V184.29H238.806V271H261.166ZM378.04 271V251.5H336.83V236.81H377.13V217.31H336.83V203.79H378.04V184.29H314.47V271H378.04ZM475.263 271L442.503 184.29H414.423L381.793 271H407.143L411.433 258.52H445.623L449.913 271H475.263ZM439.513 239.02H417.413L428.463 206.39L439.513 239.02ZM515.399 271V203.79H539.579V184.29H468.729V203.79H493.039V271H515.399ZM625.994 272.56C646.924 272.56 658.234 260.47 663.824 249.29L644.584 240.19C641.724 247.08 634.314 252.8 625.994 252.8C611.824 252.8 601.814 241.88 601.814 227.71C601.814 213.54 611.824 202.62 625.994 202.62C634.314 202.62 641.724 208.34 644.584 215.23L663.824 206.13C658.104 194.69 646.924 182.86 625.994 182.86C599.344 182.86 579.064 200.93 579.064 227.71C579.064 254.36 599.344 272.56 625.994 272.56ZM747.463 271L729.783 239.15C737.843 236.29 747.073 228.23 747.073 213.15C747.073 197.03 736.153 184.29 716.913 184.29H673.493V271H695.853V241.88H707.293L721.853 271H747.463ZM713.533 222.38H695.853V203.79H713.533C719.383 203.79 724.323 207.17 724.323 213.02C724.323 219.13 719.383 222.38 713.533 222.38ZM803.049 271V236.03L835.809 184.29H810.459L791.869 216.27L773.019 184.29H747.799L780.689 236.03V271H803.049ZM864.574 271V241.88H885.634C905.134 241.88 915.794 228.75 915.794 213.15C915.794 197.42 905.134 184.29 885.634 184.29H842.214V271H864.574ZM882.644 222.38H864.574V203.79H882.644C888.624 203.79 893.044 207.17 893.044 213.15C893.044 219 888.624 222.38 882.644 222.38ZM967.479 271V203.79H991.659V184.29H920.809V203.79H945.119V271H967.479ZM1041.37 272.56C1067.89 272.56 1087.65 254.1 1087.65 227.71C1087.65 201.32 1067.89 182.86 1041.37 182.86C1014.85 182.86 994.962 201.32 994.962 227.71C994.962 254.1 1014.85 272.56 1041.37 272.56ZM1041.37 252.8C1026.94 252.8 1017.71 241.75 1017.71 227.71C1017.71 213.54 1026.94 202.62 1041.37 202.62C1055.67 202.62 1064.9 213.54 1064.9 227.71C1064.9 241.75 1055.67 252.8 1041.37 252.8ZM1222.01 271L1246.84 184.29H1221.62L1208.62 242.14L1193.8 184.29H1176.64L1161.82 242.14L1148.69 184.29H1123.59L1148.43 271H1172.09L1185.22 216.66L1198.35 271H1222.01ZM1334.53 271V184.29H1312.17V216.66H1276.16V184.29H1253.8V271H1276.16V236.16H1312.17V271H1334.53ZM1434.39 271L1401.63 184.29H1373.55L1340.92 271H1366.27L1370.56 258.52H1404.75L1409.04 271H1434.39ZM1398.64 239.02H1376.54L1387.59 206.39L1398.64 239.02ZM1498 271V251.5H1463.16V184.29H1440.8V271H1498ZM1573.18 271V251.5H1531.97V236.81H1572.27V217.31H1531.97V203.79H1573.18V184.29H1509.61V271H1573.18ZM1618.4 272.56C1641.67 272.56 1654.54 260.99 1654.54 243.57C1654.54 211.33 1605.53 219.39 1605.53 208.34C1605.53 204.7 1608.39 202.1 1614.89 202.1C1623.47 202.1 1632.96 205.09 1640.24 211.07L1652.46 195.08C1643.23 187.15 1631.14 182.99 1617.23 182.99C1595 182.99 1582.65 195.99 1582.65 210.55C1582.65 243.96 1631.79 234.47 1631.79 246.3C1631.79 250.46 1627.11 253.45 1619.44 253.45C1607.61 253.45 1597.99 248.25 1591.75 242.01L1579.92 258.78C1588.63 267.1 1600.85 272.56 1618.4 272.56Z" fill="url(#paint0_linear_9_852)"/>
<path d="M109.79 408.56C136.31 408.56 156.07 390.1 156.07 363.71C156.07 337.32 136.31 318.86 109.79 318.86C83.27 318.86 63.38 337.32 63.38 363.71C63.38 390.1 83.27 408.56 109.79 408.56ZM109.79 388.8C95.36 388.8 86.13 377.75 86.13 363.71C86.13 349.54 95.36 338.62 109.79 338.62C124.09 338.62 133.32 349.54 133.32 363.71C133.32 377.75 124.09 388.8 109.79 388.8ZM208.411 408.56C236.101 408.56 249.231 393.35 249.231 371.77V320.29H226.611V371.12C226.611 381.39 220.371 388.8 208.411 388.8C196.191 388.8 190.081 381.39 190.081 371.12V320.29H167.331V371.9C167.331 393.22 180.461 408.56 208.411 408.56ZM338.801 407L321.121 375.15C329.181 372.29 338.411 364.23 338.411 349.15C338.411 333.03 327.491 320.29 308.251 320.29H264.831V407H287.191V377.88H298.631L313.191 407H338.801ZM304.871 358.38H287.191V339.79H304.871C310.721 339.79 315.661 343.17 315.661 349.02C315.661 355.13 310.721 358.38 304.871 358.38ZM491.644 408.56C519.334 408.56 532.464 393.35 532.464 371.77V320.29H509.844V371.12C509.844 381.39 503.604 388.8 491.644 388.8C479.424 388.8 473.314 381.39 473.314 371.12V320.29H450.564V371.9C450.564 393.22 463.694 408.56 491.644 408.56ZM628.664 407V320.29H606.174V368L571.074 320.29H548.064V407H570.424V356.82L607.084 407H628.664ZM666.654 407V320.29H644.294V407H666.654ZM724.763 408.56C745.693 408.56 757.003 396.47 762.593 385.29L743.353 376.19C740.493 383.08 733.083 388.8 724.763 388.8C710.593 388.8 700.583 377.88 700.583 363.71C700.583 349.54 710.593 338.62 724.763 338.62C733.083 338.62 740.493 344.34 743.353 351.23L762.593 342.13C756.873 330.69 745.693 318.86 724.763 318.86C698.113 318.86 677.833 336.93 677.833 363.71C677.833 390.36 698.113 408.56 724.763 408.56ZM814.253 408.56C840.773 408.56 860.533 390.1 860.533 363.71C860.533 337.32 840.773 318.86 814.253 318.86C787.733 318.86 767.843 337.32 767.843 363.71C767.843 390.1 787.733 408.56 814.253 408.56ZM814.253 388.8C799.823 388.8 790.593 377.75 790.593 363.71C790.593 349.54 799.823 338.62 814.253 338.62C828.553 338.62 837.783 349.54 837.783 363.71C837.783 377.75 828.553 388.8 814.253 388.8ZM945.764 407L928.084 375.15C936.144 372.29 945.374 364.23 945.374 349.15C945.374 333.03 934.454 320.29 915.214 320.29H871.794V407H894.154V377.88H905.594L920.154 407H945.764ZM911.834 358.38H894.154V339.79H911.834C917.684 339.79 922.624 343.17 922.624 349.02C922.624 355.13 917.684 358.38 911.834 358.38ZM1038.34 407V320.29H1015.85V368L980.751 320.29H957.741V407H980.101V356.82L1016.76 407H1038.34ZM1234.49 407V320.29H1212.13V352.66H1176.12V320.29H1153.76V407H1176.12V372.16H1212.13V407H1234.49ZM1292.1 408.56C1318.62 408.56 1338.38 390.1 1338.38 363.71C1338.38 337.32 1318.62 318.86 1292.1 318.86C1265.58 318.86 1245.69 337.32 1245.69 363.71C1245.69 390.1 1265.58 408.56 1292.1 408.56ZM1292.1 388.8C1277.67 388.8 1268.44 377.75 1268.44 363.71C1268.44 349.54 1277.67 338.62 1292.1 338.62C1306.4 338.62 1315.63 349.54 1315.63 363.71C1315.63 377.75 1306.4 388.8 1292.1 388.8ZM1423.62 407L1405.94 375.15C1414 372.29 1423.23 364.23 1423.23 349.15C1423.23 333.03 1412.31 320.29 1393.07 320.29H1349.65V407H1372.01V377.88H1383.45L1398.01 407H1423.62ZM1389.69 358.38H1372.01V339.79H1389.69C1395.54 339.79 1400.48 343.17 1400.48 349.02C1400.48 355.13 1395.54 358.38 1389.69 358.38ZM1516.19 407V320.29H1493.7V368L1458.6 320.29H1435.59V407H1457.95V356.82L1494.61 407H1516.19ZM1564.06 408.56C1587.33 408.56 1600.2 396.99 1600.2 379.57C1600.2 347.33 1551.19 355.39 1551.19 344.34C1551.19 340.7 1554.05 338.1 1560.55 338.1C1569.13 338.1 1578.62 341.09 1585.9 347.07L1598.12 331.08C1588.89 323.15 1576.8 318.99 1562.89 318.99C1540.66 318.99 1528.31 331.99 1528.31 346.55C1528.31 379.96 1577.45 370.47 1577.45 382.3C1577.45 386.46 1572.77 389.45 1565.1 389.45C1553.27 389.45 1543.65 384.25 1537.41 378.01L1525.58 394.78C1534.29 403.1 1546.51 408.56 1564.06 408.56ZM104.33 537C131.5 537 151.13 520.49 151.13 493.58C151.13 466.67 131.5 450.29 104.2 450.29H67.8V537H104.33ZM104.2 517.5H90.16V469.79H104.33C120.19 469.79 128.25 480.19 128.25 493.58C128.25 506.45 119.41 517.5 104.2 517.5ZM225.823 537V517.5H184.613V502.81H224.913V483.31H184.613V469.79H225.823V450.29H162.253V537H225.823ZM261.166 537V502.81H301.466V483.31H261.166V469.79H302.376V450.29H238.806V537H261.166ZM378.04 537V517.5H336.83V502.81H377.13V483.31H336.83V469.79H378.04V450.29H314.47V537H378.04ZM475.263 537L442.503 450.29H414.423L381.793 537H407.143L411.433 524.52H445.623L449.913 537H475.263ZM439.513 505.02H417.413L428.463 472.39L439.513 505.02ZM515.399 537V469.79H539.579V450.29H468.729V469.79H493.039V537H515.399ZM625.994 538.56C646.924 538.56 658.234 526.47 663.824 515.29L644.584 506.19C641.724 513.08 634.314 518.8 625.994 518.8C611.824 518.8 601.814 507.88 601.814 493.71C601.814 479.54 611.824 468.62 625.994 468.62C634.314 468.62 641.724 474.34 644.584 481.23L663.824 472.13C658.104 460.69 646.924 448.86 625.994 448.86C599.344 448.86 579.064 466.93 579.064 493.71C579.064 520.36 599.344 538.56 625.994 538.56ZM747.463 537L729.783 505.15C737.843 502.29 747.073 494.23 747.073 479.15C747.073 463.03 736.153 450.29 716.913 450.29H673.493V537H695.853V507.88H707.293L721.853 537H747.463ZM713.533 488.38H695.853V469.79H713.533C719.383 469.79 724.323 473.17 724.323 479.02C724.323 485.13 719.383 488.38 713.533 488.38ZM803.049 537V502.03L835.809 450.29H810.459L791.869 482.27L773.019 450.29H747.799L780.689 502.03V537H803.049ZM864.574 537V507.88H885.634C905.134 507.88 915.794 494.75 915.794 479.15C915.794 463.42 905.134 450.29 885.634 450.29H842.214V537H864.574ZM882.644 488.38H864.574V469.79H882.644C888.624 469.79 893.044 473.17 893.044 479.15C893.044 485 888.624 488.38 882.644 488.38ZM967.479 537V469.79H991.659V450.29H920.809V469.79H945.119V537H967.479ZM1041.37 538.56C1067.89 538.56 1087.65 520.1 1087.65 493.71C1087.65 467.32 1067.89 448.86 1041.37 448.86C1014.85 448.86 994.962 467.32 994.962 493.71C994.962 520.1 1014.85 538.56 1041.37 538.56ZM1041.37 518.8C1026.94 518.8 1017.71 507.75 1017.71 493.71C1017.71 479.54 1026.94 468.62 1041.37 468.62C1055.67 468.62 1064.9 479.54 1064.9 493.71C1064.9 507.75 1055.67 518.8 1041.37 518.8ZM1222.01 537L1246.84 450.29H1221.62L1208.62 508.14L1193.8 450.29H1176.64L1161.82 508.14L1148.69 450.29H1123.59L1148.43 537H1172.09L1185.22 482.66L1198.35 537H1222.01ZM1334.53 537V450.29H1312.17V482.66H1276.16V450.29H1253.8V537H1276.16V502.16H1312.17V537H1334.53ZM1434.39 537L1401.63 450.29H1373.55L1340.92 537H1366.27L1370.56 524.52H1404.75L1409.04 537H1434.39ZM1398.64 505.02H1376.54L1387.59 472.39L1398.64 505.02ZM1498 537V517.5H1463.16V450.29H1440.8V537H1498ZM1573.18 537V517.5H1531.97V502.81H1572.27V483.31H1531.97V469.79H1573.18V450.29H1509.61V537H1573.18ZM1618.4 538.56C1641.67 538.56 1654.54 526.99 1654.54 509.57C1654.54 477.33 1605.53 485.39 1605.53 474.34C1605.53 470.7 1608.39 468.1 1614.89 468.1C1623.47 468.1 1632.96 471.09 1640.24 477.07L1652.46 461.08C1643.23 453.15 1631.14 448.99 1617.23 448.99C1595 448.99 1582.65 461.99 1582.65 476.55C1582.65 509.96 1631.79 500.47 1631.79 512.3C1631.79 516.46 1627.11 519.45 1619.44 519.45C1607.61 519.45 1597.99 514.25 1591.75 508.01L1579.92 524.78C1588.63 533.1 1600.85 538.56 1618.4 538.56Z" fill="url(#paint1_linear_9_852)"/>
<path d="M109.79 940.56C136.31 940.56 156.07 922.1 156.07 895.71C156.07 869.32 136.31 850.86 109.79 850.86C83.27 850.86 63.38 869.32 63.38 895.71C63.38 922.1 83.27 940.56 109.79 940.56ZM109.79 920.8C95.36 920.8 86.13 909.75 86.13 895.71C86.13 881.54 95.36 870.62 109.79 870.62C124.09 870.62 133.32 881.54 133.32 895.71C133.32 909.75 124.09 920.8 109.79 920.8ZM208.411 940.56C236.101 940.56 249.231 925.35 249.231 903.77V852.29H226.611V903.12C226.611 913.39 220.371 920.8 208.411 920.8C196.191 920.8 190.081 913.39 190.081 903.12V852.29H167.331V903.9C167.331 925.22 180.461 940.56 208.411 940.56ZM338.801 939L321.121 907.15C329.181 904.29 338.411 896.23 338.411 881.15C338.411 865.03 327.491 852.29 308.251 852.29H264.831V939H287.191V909.88H298.631L313.191 939H338.801ZM304.871 890.38H287.191V871.79H304.871C310.721 871.79 315.661 875.17 315.661 881.02C315.661 887.13 310.721 890.38 304.871 890.38ZM491.644 940.56C519.334 940.56 532.464 925.35 532.464 903.77V852.29H509.844V903.12C509.844 913.39 503.604 920.8 491.644 920.8C479.424 920.8 473.314 913.39 473.314 903.12V852.29H450.564V903.9C450.564 925.22 463.694 940.56 491.644 940.56ZM628.664 939V852.29H606.174V900L571.074 852.29H548.064V939H570.424V888.82L607.084 939H628.664ZM666.654 939V852.29H644.294V939H666.654ZM724.763 940.56C745.693 940.56 757.003 928.47 762.593 917.29L743.353 908.19C740.493 915.08 733.083 920.8 724.763 920.8C710.593 920.8 700.583 909.88 700.583 895.71C700.583 881.54 710.593 870.62 724.763 870.62C733.083 870.62 740.493 876.34 743.353 883.23L762.593 874.13C756.873 862.69 745.693 850.86 724.763 850.86C698.113 850.86 677.833 868.93 677.833 895.71C677.833 922.36 698.113 940.56 724.763 940.56ZM814.253 940.56C840.773 940.56 860.533 922.1 860.533 895.71C860.533 869.32 840.773 850.86 814.253 850.86C787.733 850.86 767.843 869.32 767.843 895.71C767.843 922.1 787.733 940.56 814.253 940.56ZM814.253 920.8C799.823 920.8 790.593 909.75 790.593 895.71C790.593 881.54 799.823 870.62 814.253 870.62C828.553 870.62 837.783 881.54 837.783 895.71C837.783 909.75 828.553 920.8 814.253 920.8ZM945.764 939L928.084 907.15C936.144 904.29 945.374 896.23 945.374 881.15C945.374 865.03 934.454 852.29 915.214 852.29H871.794V939H894.154V909.88H905.594L920.154 939H945.764ZM911.834 890.38H894.154V871.79H911.834C917.684 871.79 922.624 875.17 922.624 881.02C922.624 887.13 917.684 890.38 911.834 890.38ZM1038.34 939V852.29H1015.85V900L980.751 852.29H957.741V939H980.101V888.82L1016.76 939H1038.34ZM1234.49 939V852.29H1212.13V884.66H1176.12V852.29H1153.76V939H1176.12V904.16H1212.13V939H1234.49ZM1292.1 940.56C1318.62 940.56 1338.38 922.1 1338.38 895.71C1338.38 869.32 1318.62 850.86 1292.1 850.86C1265.58 850.86 1245.69 869.32 1245.69 895.71C1245.69 922.1 1265.58 940.56 1292.1 940.56ZM1292.1 920.8C1277.67 920.8 1268.44 909.75 1268.44 895.71C1268.44 881.54 1277.67 870.62 1292.1 870.62C1306.4 870.62 1315.63 881.54 1315.63 895.71C1315.63 909.75 1306.4 920.8 1292.1 920.8ZM1423.62 939L1405.94 907.15C1414 904.29 1423.23 896.23 1423.23 881.15C1423.23 865.03 1412.31 852.29 1393.07 852.29H1349.65V939H1372.01V909.88H1383.45L1398.01 939H1423.62ZM1389.69 890.38H1372.01V871.79H1389.69C1395.54 871.79 1400.48 875.17 1400.48 881.02C1400.48 887.13 1395.54 890.38 1389.69 890.38ZM1516.19 939V852.29H1493.7V900L1458.6 852.29H1435.59V939H1457.95V888.82L1494.61 939H1516.19ZM1564.06 940.56C1587.33 940.56 1600.2 928.99 1600.2 911.57C1600.2 879.33 1551.19 887.39 1551.19 876.34C1551.19 872.7 1554.05 870.1 1560.55 870.1C1569.13 870.1 1578.62 873.09 1585.9 879.07L1598.12 863.08C1588.89 855.15 1576.8 850.99 1562.89 850.99C1540.66 850.99 1528.31 863.99 1528.31 878.55C1528.31 911.96 1577.45 902.47 1577.45 914.3C1577.45 918.46 1572.77 921.45 1565.1 921.45C1553.27 921.45 1543.65 916.25 1537.41 910.01L1525.58 926.78C1534.29 935.1 1546.51 940.56 1564.06 940.56ZM104.33 1069C131.5 1069 151.13 1052.49 151.13 1025.58C151.13 998.67 131.5 982.29 104.2 982.29H67.8V1069H104.33ZM104.2 1049.5H90.16V1001.79H104.33C120.19 1001.79 128.25 1012.19 128.25 1025.58C128.25 1038.45 119.41 1049.5 104.2 1049.5ZM225.823 1069V1049.5H184.613V1034.81H224.913V1015.31H184.613V1001.79H225.823V982.29H162.253V1069H225.823ZM261.166 1069V1034.81H301.466V1015.31H261.166V1001.79H302.376V982.29H238.806V1069H261.166ZM378.04 1069V1049.5H336.83V1034.81H377.13V1015.31H336.83V1001.79H378.04V982.29H314.47V1069H378.04ZM475.263 1069L442.503 982.29H414.423L381.793 1069H407.143L411.433 1056.52H445.623L449.913 1069H475.263ZM439.513 1037.02H417.413L428.463 1004.39L439.513 1037.02ZM515.399 1069V1001.79H539.579V982.29H468.729V1001.79H493.039V1069H515.399ZM625.994 1070.56C646.924 1070.56 658.234 1058.47 663.824 1047.29L644.584 1038.19C641.724 1045.08 634.314 1050.8 625.994 1050.8C611.824 1050.8 601.814 1039.88 601.814 1025.71C601.814 1011.54 611.824 1000.62 625.994 1000.62C634.314 1000.62 641.724 1006.34 644.584 1013.23L663.824 1004.13C658.104 992.69 646.924 980.86 625.994 980.86C599.344 980.86 579.064 998.93 579.064 1025.71C579.064 1052.36 599.344 1070.56 625.994 1070.56ZM747.463 1069L729.783 1037.15C737.843 1034.29 747.073 1026.23 747.073 1011.15C747.073 995.03 736.153 982.29 716.913 982.29H673.493V1069H695.853V1039.88H707.293L721.853 1069H747.463ZM713.533 1020.38H695.853V1001.79H713.533C719.383 1001.79 724.323 1005.17 724.323 1011.02C724.323 1017.13 719.383 1020.38 713.533 1020.38ZM803.049 1069V1034.03L835.809 982.29H810.459L791.869 1014.27L773.019 982.29H747.799L780.689 1034.03V1069H803.049ZM864.574 1069V1039.88H885.634C905.134 1039.88 915.794 1026.75 915.794 1011.15C915.794 995.42 905.134 982.29 885.634 982.29H842.214V1069H864.574ZM882.644 1020.38H864.574V1001.79H882.644C888.624 1001.79 893.044 1005.17 893.044 1011.15C893.044 1017 888.624 1020.38 882.644 1020.38ZM967.479 1069V1001.79H991.659V982.29H920.809V1001.79H945.119V1069H967.479ZM1041.37 1070.56C1067.89 1070.56 1087.65 1052.1 1087.65 1025.71C1087.65 999.32 1067.89 980.86 1041.37 980.86C1014.85 980.86 994.962 999.32 994.962 1025.71C994.962 1052.1 1014.85 1070.56 1041.37 1070.56ZM1041.37 1050.8C1026.94 1050.8 1017.71 1039.75 1017.71 1025.71C1017.71 1011.54 1026.94 1000.62 1041.37 1000.62C1055.67 1000.62 1064.9 1011.54 1064.9 1025.71C1064.9 1039.75 1055.67 1050.8 1041.37 1050.8ZM1222.01 1069L1246.84 982.29H1221.62L1208.62 1040.14L1193.8 982.29H1176.64L1161.82 1040.14L1148.69 982.29H1123.59L1148.43 1069H1172.09L1185.22 1014.66L1198.35 1069H1222.01ZM1334.53 1069V982.29H1312.17V1014.66H1276.16V982.29H1253.8V1069H1276.16V1034.16H1312.17V1069H1334.53ZM1434.39 1069L1401.63 982.29H1373.55L1340.92 1069H1366.27L1370.56 1056.52H1404.75L1409.04 1069H1434.39ZM1398.64 1037.02H1376.54L1387.59 1004.39L1398.64 1037.02ZM1498 1069V1049.5H1463.16V982.29H1440.8V1069H1498ZM1573.18 1069V1049.5H1531.97V1034.81H1572.27V1015.31H1531.97V1001.79H1573.18V982.29H1509.61V1069H1573.18ZM1618.4 1070.56C1641.67 1070.56 1654.54 1058.99 1654.54 1041.57C1654.54 1009.33 1605.53 1017.39 1605.53 1006.34C1605.53 1002.7 1608.39 1000.1 1614.89 1000.1C1623.47 1000.1 1632.96 1003.09 1640.24 1009.07L1652.46 993.08C1643.23 985.15 1631.14 980.99 1617.23 980.99C1595 980.99 1582.65 993.99 1582.65 1008.55C1582.65 1041.96 1631.79 1032.47 1631.79 1044.3C1631.79 1048.46 1627.11 1051.45 1619.44 1051.45C1607.61 1051.45 1597.99 1046.25 1591.75 1040.01L1579.92 1056.78C1588.63 1065.1 1600.85 1070.56 1618.4 1070.56Z" fill="url(#paint2_linear_9_852)"/>
<path d="M109.79 674.56C136.31 674.56 156.07 656.1 156.07 629.71C156.07 603.32 136.31 584.86 109.79 584.86C83.27 584.86 63.38 603.32 63.38 629.71C63.38 656.1 83.27 674.56 109.79 674.56ZM109.79 654.8C95.36 654.8 86.13 643.75 86.13 629.71C86.13 615.54 95.36 604.62 109.79 604.62C124.09 604.62 133.32 615.54 133.32 629.71C133.32 643.75 124.09 654.8 109.79 654.8ZM208.411 674.56C236.101 674.56 249.231 659.35 249.231 637.77V586.29H226.611V637.12C226.611 647.39 220.371 654.8 208.411 654.8C196.191 654.8 190.081 647.39 190.081 637.12V586.29H167.331V637.9C167.331 659.22 180.461 674.56 208.411 674.56ZM338.801 673L321.121 641.15C329.181 638.29 338.411 630.23 338.411 615.15C338.411 599.03 327.491 586.29 308.251 586.29H264.831V673H287.191V643.88H298.631L313.191 673H338.801ZM304.871 624.38H287.191V605.79H304.871C310.721 605.79 315.661 609.17 315.661 615.02C315.661 621.13 310.721 624.38 304.871 624.38ZM491.644 674.56C519.334 674.56 532.464 659.35 532.464 637.77V586.29H509.844V637.12C509.844 647.39 503.604 654.8 491.644 654.8C479.424 654.8 473.314 647.39 473.314 637.12V586.29H450.564V637.9C450.564 659.22 463.694 674.56 491.644 674.56ZM628.664 673V586.29H606.174V634L571.074 586.29H548.064V673H570.424V622.82L607.084 673H628.664ZM666.654 673V586.29H644.294V673H666.654ZM724.763 674.56C745.693 674.56 757.003 662.47 762.593 651.29L743.353 642.19C740.493 649.08 733.083 654.8 724.763 654.8C710.593 654.8 700.583 643.88 700.583 629.71C700.583 615.54 710.593 604.62 724.763 604.62C733.083 604.62 740.493 610.34 743.353 617.23L762.593 608.13C756.873 596.69 745.693 584.86 724.763 584.86C698.113 584.86 677.833 602.93 677.833 629.71C677.833 656.36 698.113 674.56 724.763 674.56ZM814.253 674.56C840.773 674.56 860.533 656.1 860.533 629.71C860.533 603.32 840.773 584.86 814.253 584.86C787.733 584.86 767.843 603.32 767.843 629.71C767.843 656.1 787.733 674.56 814.253 674.56ZM814.253 654.8C799.823 654.8 790.593 643.75 790.593 629.71C790.593 615.54 799.823 604.62 814.253 604.62C828.553 604.62 837.783 615.54 837.783 629.71C837.783 643.75 828.553 654.8 814.253 654.8ZM945.764 673L928.084 641.15C936.144 638.29 945.374 630.23 945.374 615.15C945.374 599.03 934.454 586.29 915.214 586.29H871.794V673H894.154V643.88H905.594L920.154 673H945.764ZM911.834 624.38H894.154V605.79H911.834C917.684 605.79 922.624 609.17 922.624 615.02C922.624 621.13 917.684 624.38 911.834 624.38ZM1038.34 673V586.29H1015.85V634L980.751 586.29H957.741V673H980.101V622.82L1016.76 673H1038.34ZM1234.49 673V586.29H1212.13V618.66H1176.12V586.29H1153.76V673H1176.12V638.16H1212.13V673H1234.49ZM1292.1 674.56C1318.62 674.56 1338.38 656.1 1338.38 629.71C1338.38 603.32 1318.62 584.86 1292.1 584.86C1265.58 584.86 1245.69 603.32 1245.69 629.71C1245.69 656.1 1265.58 674.56 1292.1 674.56ZM1292.1 654.8C1277.67 654.8 1268.44 643.75 1268.44 629.71C1268.44 615.54 1277.67 604.62 1292.1 604.62C1306.4 604.62 1315.63 615.54 1315.63 629.71C1315.63 643.75 1306.4 654.8 1292.1 654.8ZM1423.62 673L1405.94 641.15C1414 638.29 1423.23 630.23 1423.23 615.15C1423.23 599.03 1412.31 586.29 1393.07 586.29H1349.65V673H1372.01V643.88H1383.45L1398.01 673H1423.62ZM1389.69 624.38H1372.01V605.79H1389.69C1395.54 605.79 1400.48 609.17 1400.48 615.02C1400.48 621.13 1395.54 624.38 1389.69 624.38ZM1516.19 673V586.29H1493.7V634L1458.6 586.29H1435.59V673H1457.95V622.82L1494.61 673H1516.19ZM1564.06 674.56C1587.33 674.56 1600.2 662.99 1600.2 645.57C1600.2 613.33 1551.19 621.39 1551.19 610.34C1551.19 606.7 1554.05 604.1 1560.55 604.1C1569.13 604.1 1578.62 607.09 1585.9 613.07L1598.12 597.08C1588.89 589.15 1576.8 584.99 1562.89 584.99C1540.66 584.99 1528.31 597.99 1528.31 612.55C1528.31 645.96 1577.45 636.47 1577.45 648.3C1577.45 652.46 1572.77 655.45 1565.1 655.45C1553.27 655.45 1543.65 650.25 1537.41 644.01L1525.58 660.78C1534.29 669.1 1546.51 674.56 1564.06 674.56ZM104.33 803C131.5 803 151.13 786.49 151.13 759.58C151.13 732.67 131.5 716.29 104.2 716.29H67.8V803H104.33ZM104.2 783.5H90.16V735.79H104.33C120.19 735.79 128.25 746.19 128.25 759.58C128.25 772.45 119.41 783.5 104.2 783.5ZM225.823 803V783.5H184.613V768.81H224.913V749.31H184.613V735.79H225.823V716.29H162.253V803H225.823ZM261.166 803V768.81H301.466V749.31H261.166V735.79H302.376V716.29H238.806V803H261.166ZM378.04 803V783.5H336.83V768.81H377.13V749.31H336.83V735.79H378.04V716.29H314.47V803H378.04ZM475.263 803L442.503 716.29H414.423L381.793 803H407.143L411.433 790.52H445.623L449.913 803H475.263ZM439.513 771.02H417.413L428.463 738.39L439.513 771.02ZM515.399 803V735.79H539.579V716.29H468.729V735.79H493.039V803H515.399ZM625.994 804.56C646.924 804.56 658.234 792.47 663.824 781.29L644.584 772.19C641.724 779.08 634.314 784.8 625.994 784.8C611.824 784.8 601.814 773.88 601.814 759.71C601.814 745.54 611.824 734.62 625.994 734.62C634.314 734.62 641.724 740.34 644.584 747.23L663.824 738.13C658.104 726.69 646.924 714.86 625.994 714.86C599.344 714.86 579.064 732.93 579.064 759.71C579.064 786.36 599.344 804.56 625.994 804.56ZM747.463 803L729.783 771.15C737.843 768.29 747.073 760.23 747.073 745.15C747.073 729.03 736.153 716.29 716.913 716.29H673.493V803H695.853V773.88H707.293L721.853 803H747.463ZM713.533 754.38H695.853V735.79H713.533C719.383 735.79 724.323 739.17 724.323 745.02C724.323 751.13 719.383 754.38 713.533 754.38ZM803.049 803V768.03L835.809 716.29H810.459L791.869 748.27L773.019 716.29H747.799L780.689 768.03V803H803.049ZM864.574 803V773.88H885.634C905.134 773.88 915.794 760.75 915.794 745.15C915.794 729.42 905.134 716.29 885.634 716.29H842.214V803H864.574ZM882.644 754.38H864.574V735.79H882.644C888.624 735.79 893.044 739.17 893.044 745.15C893.044 751 888.624 754.38 882.644 754.38ZM967.479 803V735.79H991.659V716.29H920.809V735.79H945.119V803H967.479ZM1041.37 804.56C1067.89 804.56 1087.65 786.1 1087.65 759.71C1087.65 733.32 1067.89 714.86 1041.37 714.86C1014.85 714.86 994.962 733.32 994.962 759.71C994.962 786.1 1014.85 804.56 1041.37 804.56ZM1041.37 784.8C1026.94 784.8 1017.71 773.75 1017.71 759.71C1017.71 745.54 1026.94 734.62 1041.37 734.62C1055.67 734.62 1064.9 745.54 1064.9 759.71C1064.9 773.75 1055.67 784.8 1041.37 784.8ZM1222.01 803L1246.84 716.29H1221.62L1208.62 774.14L1193.8 716.29H1176.64L1161.82 774.14L1148.69 716.29H1123.59L1148.43 803H1172.09L1185.22 748.66L1198.35 803H1222.01ZM1334.53 803V716.29H1312.17V748.66H1276.16V716.29H1253.8V803H1276.16V768.16H1312.17V803H1334.53ZM1434.39 803L1401.63 716.29H1373.55L1340.92 803H1366.27L1370.56 790.52H1404.75L1409.04 803H1434.39ZM1398.64 771.02H1376.54L1387.59 738.39L1398.64 771.02ZM1498 803V783.5H1463.16V716.29H1440.8V803H1498ZM1573.18 803V783.5H1531.97V768.81H1572.27V749.31H1531.97V735.79H1573.18V716.29H1509.61V803H1573.18ZM1618.4 804.56C1641.67 804.56 1654.54 792.99 1654.54 775.57C1654.54 743.33 1605.53 751.39 1605.53 740.34C1605.53 736.7 1608.39 734.1 1614.89 734.1C1623.47 734.1 1632.96 737.09 1640.24 743.07L1652.46 727.08C1643.23 719.15 1631.14 714.99 1617.23 714.99C1595 714.99 1582.65 727.99 1582.65 742.55C1582.65 775.96 1631.79 766.47 1631.79 778.3C1631.79 782.46 1627.11 785.45 1619.44 785.45C1607.61 785.45 1597.99 780.25 1591.75 774.01L1579.92 790.78C1588.63 799.1 1600.85 804.56 1618.4 804.56Z" fill="url(#paint3_linear_9_852)"/>
<defs>
<linearGradient id="paint0_linear_9_852" x1="29.0962" y1="86" x2="1656.03" y2="286.849" gradientUnits="userSpaceOnUse">
<stop stop-color="#352E34"/>
<stop offset="1" stop-color="#453055"/>
</linearGradient>
<linearGradient id="paint1_linear_9_852" x1="29.0962" y1="352" x2="1656.03" y2="552.849" gradientUnits="userSpaceOnUse">
<stop stop-color="#352E34"/>
<stop offset="1" stop-color="#453055"/>
</linearGradient>
<linearGradient id="paint2_linear_9_852" x1="29.0962" y1="884" x2="1656.03" y2="1084.85" gradientUnits="userSpaceOnUse">
<stop stop-color="#352E34"/>
<stop offset="1" stop-color="#453055"/>
</linearGradient>
<linearGradient id="paint3_linear_9_852" x1="29.0962" y1="618" x2="1656.03" y2="818.849" gradientUnits="userSpaceOnUse">
<stop stop-color="#352E34"/>
<stop offset="1" stop-color="#453055"/>
</linearGradient>
</defs>
</svg>
