<svg width="50" height="25" viewBox="0 0 50 25" fill="none" xmlns="http://www.w3.org/2000/svg">
<path d="M7.448 24.8H10.108V22.252C14.196 21.832 16.212 19.452 16.212 16.344C16.212 12.536 12.992 11.416 10.108 10.688V6.74C11.368 7.048 12.572 7.636 13.58 8.56L15.792 5.648C14.28 4.276 12.376 3.408 10.108 3.156V0.496H7.448V3.1C3.668 3.492 1.428 5.9 1.428 8.728C1.428 12.536 4.564 13.6 7.448 14.328V18.752C5.544 18.416 4.032 17.436 2.996 16.344L0.84 19.368C2.352 20.908 4.508 22.028 7.448 22.28V24.8ZM12.18 16.792C12.18 17.66 11.48 18.472 10.108 18.752V15C11.312 15.392 12.18 15.868 12.18 16.792ZM5.488 8.392C5.488 7.44 6.188 6.74 7.448 6.572V9.988C6.272 9.652 5.488 9.204 5.488 8.392ZM30.8072 22V18.136H33.2152V14.636H30.8072V3.324H25.3192L17.8992 15V18.136H26.8312V22H30.8072ZM26.8312 14.636H21.7912L26.8312 6.852V14.636ZM41.2703 22.308C46.7863 22.308 49.9503 18.304 49.9503 12.676C49.9503 7.384 47.5703 3.016 41.9143 3.016C37.6583 3.016 34.7463 5.788 34.7463 9.428C34.7463 13.404 37.7703 15.504 41.1303 15.504C43.1743 15.504 45.0503 14.356 45.9463 13.096C45.9463 13.236 45.9463 13.376 45.9463 13.516C45.9463 16.204 44.3503 18.78 41.2703 18.78C39.6183 18.78 38.5543 18.276 37.5463 17.324L35.7823 20.376C37.0983 21.552 39.0023 22.308 41.2703 22.308ZM42.2503 12.088C40.5143 12.088 38.8063 11.248 38.8063 9.288C38.8063 8 39.9823 6.544 42.1103 6.544C44.7423 6.544 45.7503 8.56 45.9183 10.352C45.0223 11.444 43.6503 12.088 42.2503 12.088Z" fill="white"/>
</svg>
