<svg width="33" height="34" viewBox="0 0 33 34" fill="none" xmlns="http://www.w3.org/2000/svg">
<path d="M32.9999 17.2374C32.9999 16.1275 32.9016 15.0739 32.733 14.0483H16.8582V20.3842H25.9476C25.5401 22.4634 24.346 24.2195 22.5759 25.4136V29.6282H27.9986C31.1736 26.692 32.9999 22.3651 32.9999 17.2374Z" fill="white"/>
<path d="M16.8582 33.7163C21.41 33.7163 25.2171 32.1991 27.9987 29.6282L22.576 25.4136C21.0587 26.4251 19.1341 27.0433 16.8582 27.0433C12.461 27.0433 8.73818 24.079 7.40357 20.0752H1.81226V24.4162C4.57982 29.9232 10.2695 33.7163 16.8582 33.7163Z" fill="white"/>
<path d="M7.40358 20.0755C7.05236 19.064 6.86973 17.9823 6.86973 16.8584C6.86973 15.7345 7.06641 14.6528 7.40358 13.6413V9.30029H1.81226C0.66028 11.5762 0 14.133 0 16.8584C0 19.5838 0.66028 22.1406 1.81226 24.4165L7.40358 20.0755Z" fill="white"/>
<path d="M16.8582 6.67305C19.3448 6.67305 21.5645 7.53002 23.3206 9.20179L28.1252 4.39719C25.2171 1.67178 21.41 0 16.8582 0C10.2695 0 4.57982 3.79311 1.81226 9.30013L7.40357 13.6411C8.73818 9.6373 12.461 6.67305 16.8582 6.67305Z" fill="white"/>
</svg>
