<svg width="35" height="35" viewBox="0 0 35 35" fill="none" xmlns="http://www.w3.org/2000/svg">
<path d="M8.4433 4.23037C8.4433 6.56674 6.5532 8.46074 4.22165 8.46074C1.8901 8.46074 0 6.56674 0 4.23037C0 1.894 1.8901 0 4.22165 0C6.5532 0 8.4433 1.894 8.4433 4.23037Z" fill="white"/>
<path d="M0.57732 11.5702H7.79381V35H0.57732V11.5702Z" fill="white"/>
<path d="M19.4124 11.5702H12.1959V35H19.4124C19.4124 35 19.4124 27.624 19.4124 23.0121C19.4124 20.244 20.2945 17.4638 23.8144 17.4638C27.7924 17.4638 27.7684 21.0863 27.7499 23.8927C27.7256 27.5611 27.7835 31.3046 27.7835 35H35V22.6343C34.9389 14.7384 33.0186 11.1002 26.701 11.1002C22.9493 11.1002 20.6237 12.9252 19.4124 14.5762V11.5702Z" fill="white"/>
</svg>
