<svg width="402" height="523" viewBox="0 0 402 523" fill="none" xmlns="http://www.w3.org/2000/svg">
<rect y="80" width="74" height="71" rx="6" fill="white" fill-opacity="0.05"/>
<rect x="0.5" y="80.5" width="73" height="70" rx="5.5" stroke="white" stroke-opacity="0.1"/>
<rect x="328" y="80" width="74" height="71" rx="6" fill="white" fill-opacity="0.05"/>
<rect x="328.5" y="80.5" width="73" height="70" rx="5.5" stroke="white" stroke-opacity="0.1"/>
<path d="M93.136 110H90.562V95.326H100.616V97.592H93.136V101.398H100.462V103.664H93.136V110ZM111.65 110H109.34V108.856C108.518 109.795 107.374 110.264 105.908 110.264C104.94 110.264 104.082 109.956 103.334 109.34C102.586 108.709 102.212 107.844 102.212 106.744C102.212 105.615 102.578 104.757 103.312 104.17C104.06 103.583 104.925 103.29 105.908 103.29C107.418 103.29 108.562 103.745 109.34 104.654V103.07C109.34 102.454 109.112 101.97 108.658 101.618C108.203 101.266 107.602 101.09 106.854 101.09C105.666 101.09 104.617 101.537 103.708 102.432L102.762 100.826C103.964 99.682 105.453 99.11 107.228 99.11C108.533 99.11 109.596 99.418 110.418 100.034C111.239 100.65 111.65 101.625 111.65 102.96V110ZM106.81 108.68C107.968 108.68 108.812 108.313 109.34 107.58V105.974C108.812 105.241 107.968 104.874 106.81 104.874C106.15 104.874 105.607 105.05 105.182 105.402C104.756 105.754 104.544 106.216 104.544 106.788C104.544 107.36 104.756 107.822 105.182 108.174C105.607 108.511 106.15 108.68 106.81 108.68ZM119.484 110.264C117.871 110.264 116.551 109.743 115.524 108.702C114.498 107.646 113.984 106.304 113.984 104.676C113.984 103.063 114.498 101.735 115.524 100.694C116.551 99.638 117.871 99.11 119.484 99.11C121.259 99.11 122.616 99.7407 123.554 101.002L122.036 102.41C121.45 101.574 120.636 101.156 119.594 101.156C118.626 101.156 117.849 101.486 117.262 102.146C116.676 102.791 116.382 103.635 116.382 104.676C116.382 105.717 116.676 106.568 117.262 107.228C117.849 107.888 118.626 108.218 119.594 108.218C120.606 108.218 121.42 107.8 122.036 106.964L123.554 108.372C122.616 109.633 121.259 110.264 119.484 110.264ZM130.486 110.264C128.873 110.264 127.538 109.751 126.482 108.724C125.441 107.683 124.92 106.333 124.92 104.676C124.92 103.121 125.426 101.809 126.438 100.738C127.465 99.6527 128.755 99.11 130.31 99.11C131.879 99.11 133.141 99.6527 134.094 100.738C135.062 101.823 135.546 103.209 135.546 104.896V105.446H127.34C127.428 106.282 127.773 106.979 128.374 107.536C128.975 108.093 129.76 108.372 130.728 108.372C131.271 108.372 131.813 108.269 132.356 108.064C132.913 107.859 133.375 107.573 133.742 107.206L134.798 108.724C133.727 109.751 132.29 110.264 130.486 110.264ZM133.302 103.818C133.273 103.085 133.001 102.432 132.488 101.86C131.989 101.288 131.263 101.002 130.31 101.002C129.401 101.002 128.689 101.288 128.176 101.86C127.663 102.417 127.377 103.07 127.318 103.818H133.302ZM140.136 106.81C140.385 107.206 140.767 107.543 141.28 107.822C141.808 108.086 142.336 108.218 142.864 108.218C143.773 108.218 144.499 107.895 145.042 107.25C145.599 106.59 145.878 105.739 145.878 104.698C145.878 103.657 145.599 102.806 145.042 102.146C144.499 101.486 143.773 101.156 142.864 101.156C142.336 101.156 141.815 101.295 141.302 101.574C140.789 101.853 140.4 102.197 140.136 102.608V106.81ZM140.136 110H137.826V95.326H140.136V100.848C141.001 99.6893 142.138 99.11 143.546 99.11C144.925 99.11 146.054 99.6233 146.934 100.65C147.814 101.662 148.254 103.011 148.254 104.698C148.254 106.414 147.814 107.771 146.934 108.768C146.054 109.765 144.925 110.264 143.546 110.264C142.153 110.264 141.016 109.692 140.136 108.548V110ZM155.405 110.264C153.763 110.264 152.443 109.729 151.445 108.658C150.448 107.573 149.949 106.245 149.949 104.676C149.949 103.107 150.448 101.787 151.445 100.716C152.443 99.6453 153.763 99.11 155.405 99.11C157.063 99.11 158.39 99.6453 159.387 100.716C160.385 101.787 160.883 103.107 160.883 104.676C160.883 106.26 160.385 107.587 159.387 108.658C158.39 109.729 157.063 110.264 155.405 110.264ZM155.405 108.218C156.359 108.218 157.107 107.881 157.649 107.206C158.207 106.517 158.485 105.673 158.485 104.676C158.485 103.693 158.207 102.865 157.649 102.19C157.107 101.501 156.359 101.156 155.405 101.156C154.467 101.156 153.719 101.501 153.161 102.19C152.619 102.865 152.347 103.693 152.347 104.676C152.347 105.673 152.619 106.517 153.161 107.206C153.719 107.881 154.467 108.218 155.405 108.218ZM168.017 110.264C166.374 110.264 165.054 109.729 164.057 108.658C163.059 107.573 162.561 106.245 162.561 104.676C162.561 103.107 163.059 101.787 164.057 100.716C165.054 99.6453 166.374 99.11 168.017 99.11C169.674 99.11 171.001 99.6453 171.999 100.716C172.996 101.787 173.495 103.107 173.495 104.676C173.495 106.26 172.996 107.587 171.999 108.658C171.001 109.729 169.674 110.264 168.017 110.264ZM168.017 108.218C168.97 108.218 169.718 107.881 170.261 107.206C170.818 106.517 171.097 105.673 171.097 104.676C171.097 103.693 170.818 102.865 170.261 102.19C169.718 101.501 168.97 101.156 168.017 101.156C167.078 101.156 166.33 101.501 165.773 102.19C165.23 102.865 164.959 103.693 164.959 104.676C164.959 105.673 165.23 106.517 165.773 107.206C166.33 107.881 167.078 108.218 168.017 108.218ZM185.776 110H182.872L179.616 105.622L178.142 107.14V110H175.832V95.326H178.142V104.5L182.828 99.374H185.688L181.266 104.192L185.776 110ZM206.328 110H203.402L202.324 107.184H195.592L194.514 110H191.588L197.352 95.326H200.564L206.328 110ZM201.598 104.918L198.958 97.922L196.318 104.918H201.598ZM217.655 110H215.345V108.548C214.465 109.692 213.328 110.264 211.935 110.264C210.542 110.264 209.405 109.765 208.525 108.768C207.645 107.771 207.205 106.414 207.205 104.698C207.205 102.997 207.645 101.64 208.525 100.628C209.405 99.616 210.542 99.11 211.935 99.11C213.328 99.11 214.465 99.6893 215.345 100.848V95.326H217.655V110ZM212.595 108.218C213.138 108.218 213.666 108.086 214.179 107.822C214.692 107.558 215.081 107.221 215.345 106.81V102.586C215.081 102.175 214.692 101.838 214.179 101.574C213.666 101.295 213.138 101.156 212.595 101.156C211.686 101.156 210.96 101.486 210.417 102.146C209.874 102.806 209.603 103.657 209.603 104.698C209.603 105.739 209.874 106.59 210.417 107.25C210.96 107.895 211.686 108.218 212.595 108.218Z" fill="white"/>
<path d="M92.7 139.24C95.08 139.24 96.94 137.88 96.94 134.98V125.66H95.28V134.96C95.28 136.62 94.24 137.76 92.6 137.76C91.44 137.76 90.66 137.14 90.08 136.44L89.22 137.7C90.14 138.78 91.28 139.24 92.7 139.24ZM108.012 139V129.34H106.512V136.44C105.952 137.22 104.832 137.9 103.652 137.9C102.352 137.9 101.492 137.4 101.492 135.7V129.34H99.9922V136.16C99.9922 138.26 101.052 139.24 103.072 139.24C104.512 139.24 105.772 138.48 106.512 137.64V139H108.012ZM119.028 139V132.22C119.028 130.12 117.968 129.1 115.948 129.1C114.508 129.1 113.188 129.94 112.508 130.74V129.34H111.008V139H112.508V131.94C113.068 131.16 114.188 130.44 115.368 130.44C116.668 130.44 117.528 130.98 117.528 132.68V139H119.028ZM126.383 139.24C127.963 139.24 129.263 138.72 130.223 137.76L129.503 136.78C128.743 137.56 127.623 138 126.523 138C124.443 138 123.163 136.48 123.043 134.66H130.863V134.28C130.863 131.38 129.143 129.1 126.223 129.1C123.463 129.1 121.463 131.36 121.463 134.16C121.463 137.18 123.523 139.24 126.383 139.24ZM129.383 133.56H123.043C123.123 132.08 124.143 130.34 126.203 130.34C128.403 130.34 129.363 132.12 129.383 133.56ZM142.269 139.24C145.209 139.24 146.989 137.62 146.989 135.4C146.989 133.26 145.129 132.22 143.909 132.12C145.169 131.9 146.789 130.94 146.789 129.02C146.789 126.76 144.829 125.46 142.269 125.46C140.209 125.46 138.669 126.36 137.709 127.52L138.629 128.56C139.609 127.5 140.689 126.94 142.149 126.94C143.769 126.94 145.129 127.74 145.129 129.22C145.129 130.76 143.709 131.42 142.029 131.42C141.489 131.42 140.869 131.42 140.649 131.4V132.92C140.849 132.9 141.469 132.9 142.029 132.9C143.989 132.9 145.349 133.6 145.349 135.26C145.349 136.8 144.169 137.76 142.229 137.76C140.649 137.76 139.289 137.04 138.509 136L137.529 137.04C138.349 138.24 140.009 139.24 142.269 139.24ZM151.082 139V132.16C151.522 131.38 152.782 130.62 153.702 130.62C153.942 130.62 154.122 130.64 154.302 130.68V129.14C152.982 129.14 151.862 129.88 151.082 130.9V129.34H149.582V139H151.082ZM164.684 139V125.66H163.184V130.8C162.404 129.74 161.224 129.1 159.924 129.1C157.384 129.1 155.624 131.1 155.624 134.18C155.624 137.32 157.404 139.24 159.924 139.24C161.284 139.24 162.464 138.54 163.184 137.56V139H164.684ZM160.284 137.9C158.344 137.9 157.184 136.32 157.184 134.18C157.184 132.04 158.344 130.44 160.284 130.44C161.484 130.44 162.644 131.16 163.184 132V136.38C162.644 137.22 161.484 137.9 160.284 137.9ZM181.584 139V137.52H175.044C178.764 134.58 181.524 132.1 181.524 129.38C181.524 126.72 179.264 125.46 177.044 125.46C175.164 125.46 173.424 126.22 172.404 127.56L173.424 128.62C174.204 127.62 175.444 126.94 177.044 126.94C178.424 126.94 179.824 127.68 179.824 129.38C179.824 131.68 177.224 133.9 172.424 137.68V139H181.584ZM185.402 131.4C186.002 131.4 186.502 130.9 186.502 130.3C186.502 129.7 186.002 129.2 185.402 129.2C184.802 129.2 184.302 129.7 184.302 130.3C184.302 130.9 184.802 131.4 185.402 131.4ZM185.402 139.2C186.002 139.2 186.502 138.7 186.502 138.1C186.502 137.5 186.002 137 185.402 137C184.802 137 184.302 137.5 184.302 138.1C184.302 138.7 184.802 139.2 185.402 139.2ZM193.731 139.24C196.411 139.24 198.471 137.56 198.471 134.84C198.471 132.1 196.451 130.58 194.231 130.58C192.891 130.58 191.751 131.14 191.111 131.78V127.14H197.611V125.66H189.451V132.86L190.671 133.28C191.571 132.4 192.571 132.02 193.751 132.02C195.551 132.02 196.811 133.14 196.811 134.9C196.811 136.52 195.551 137.76 193.731 137.76C192.091 137.76 190.931 137.12 190.051 136L189.031 137.1C190.031 138.42 191.471 139.24 193.731 139.24ZM205.328 139.24C207.948 139.24 210.108 137.88 210.108 135.62C210.108 133.84 208.588 132.62 206.928 132.12C208.468 131.68 209.908 130.68 209.908 128.92C209.908 126.52 207.528 125.46 205.328 125.46C203.108 125.46 200.768 126.52 200.768 128.92C200.768 130.68 202.188 131.68 203.728 132.12C202.068 132.62 200.548 133.84 200.548 135.62C200.548 137.9 202.688 139.24 205.328 139.24ZM205.328 131.44C204.528 131.3 202.428 130.76 202.428 129.14C202.428 127.76 203.708 126.94 205.328 126.94C206.928 126.94 208.228 127.76 208.228 129.14C208.228 130.76 206.148 131.3 205.328 131.44ZM205.328 137.76C203.668 137.76 202.208 136.88 202.208 135.44C202.208 133.7 204.508 132.96 205.328 132.86C206.148 132.96 208.428 133.7 208.428 135.44C208.428 136.88 206.968 137.76 205.328 137.76ZM217.389 139.24C219.929 139.24 221.689 137.28 221.689 134.16C221.689 131.02 219.929 129.1 217.389 129.1C216.029 129.1 214.829 129.8 214.129 130.78V129.34H212.629V142.68H214.129V137.54C214.909 138.62 216.069 139.24 217.389 139.24ZM217.009 137.9C215.829 137.9 214.649 137.18 214.129 136.34V131.98C214.649 131.14 215.829 130.44 217.009 130.44C218.949 130.44 220.109 132.02 220.109 134.16C220.109 136.3 218.949 137.9 217.009 137.9ZM237.234 139V132.02C237.234 130.08 236.294 129.1 234.534 129.1C233.134 129.1 231.834 130.02 231.294 130.9C231.014 129.9 230.174 129.1 228.694 129.1C227.274 129.1 225.974 130.12 225.574 130.74V129.34H224.074V139H225.574V131.94C226.094 131.16 227.134 130.44 228.114 130.44C229.374 130.44 229.894 131.22 229.894 132.44V139H231.394V131.92C231.894 131.16 232.954 130.44 233.954 130.44C235.194 130.44 235.734 131.22 235.734 132.44V139H237.234Z" fill="white"/>
<path d="M45.624 118.33L46.7123 111.146H39.9041V106.485C39.9041 104.519 40.8534 102.602 43.9028 102.602H47V96.4854C47 96.4854 44.1904 96 41.5055 96C35.896 96 32.2329 99.4417 32.2329 105.67V111.146H26V118.33H32.2329V135.699C33.4842 135.898 34.7644 136 36.0685 136C37.3726 136 38.6528 135.898 39.9041 135.699V118.33H45.624Z" fill="white"/>
<path d="M35.7344 182.761L34.6656 181.708L34.6656 181.708L35.7344 182.761ZM34.298 182.749L33.2121 183.784L33.2121 183.784L34.298 182.749ZM48.1909 172.249L36.8032 183.813L34.6656 181.708L46.0533 170.144L48.1909 172.249ZM33.2121 183.784L22.0154 172.035L24.1871 169.965L35.3838 181.714L33.2121 183.784ZM36.8032 183.813C35.8126 184.819 34.1861 184.806 33.2121 183.784L35.3838 181.714C35.189 181.51 34.8637 181.507 34.6656 181.708L36.8032 183.813Z" fill="white" fill-opacity="0.2"/>
<path d="M35.7344 306.761L34.6656 305.708L34.6656 305.708L35.7344 306.761ZM34.298 306.749L33.2121 307.784L33.2121 307.784L34.298 306.749ZM48.1909 296.249L36.8032 307.813L34.6656 305.708L46.0533 294.144L48.1909 296.249ZM33.2121 307.784L22.0154 296.035L24.1871 293.965L35.3838 305.714L33.2121 307.784ZM36.8032 307.813C35.8126 308.819 34.1861 308.806 33.2121 307.784L35.3838 305.714C35.189 305.51 34.8637 305.507 34.6656 305.708L36.8032 307.813Z" fill="white" fill-opacity="0.2"/>
<path d="M35.7344 430.761L34.6656 429.708L34.6656 429.708L35.7344 430.761ZM34.298 430.749L33.2121 431.784L33.2121 431.784L34.298 430.749ZM48.1909 420.249L36.8032 431.813L34.6656 429.708L46.0533 418.144L48.1909 420.249ZM33.2121 431.784L22.0154 420.035L24.1871 417.965L35.3838 429.714L33.2121 431.784ZM36.8032 431.813C35.8126 432.819 34.1861 432.806 33.2121 431.784L35.3838 429.714C35.189 429.51 34.8637 429.507 34.6656 429.708L36.8032 431.813Z" fill="white" fill-opacity="0.2"/>
<rect width="219" height="54" rx="6" fill="white" fill-opacity="0.05"/>
<rect x="0.5" y="0.5" width="218" height="53" rx="5.5" stroke="white" stroke-opacity="0.2"/>
<path d="M63.12 33L68.16 19.66H64.26L60.96 29.28L57.68 19.66H53.78L58.8 33H63.12ZM70.6053 22.48C71.5853 22.48 72.3653 21.68 72.3653 20.7C72.3653 19.72 71.5853 18.94 70.6053 18.94C69.6253 18.94 68.8453 19.72 68.8453 20.7C68.8453 21.68 69.6253 22.48 70.6053 22.48ZM72.1453 33V23.34H69.0653V33H72.1453ZM78.0778 33.24C80.8578 33.24 82.4778 31.88 82.4778 30.04C82.4778 26.08 76.8578 27.18 76.8578 26.06C76.8578 25.66 77.3578 25.36 78.0778 25.36C79.2378 25.36 80.3378 25.86 80.9178 26.42L82.0978 24.38C81.0578 23.62 79.6778 23.1 78.0578 23.1C75.3778 23.1 73.9178 24.58 73.9178 26.28C73.9178 30.16 79.5378 28.92 79.5378 30.18C79.5378 30.62 79.1578 30.92 78.2378 30.92C77.0978 30.92 75.5578 30.28 74.8378 29.64L73.5578 31.76C74.5778 32.66 76.3578 33.24 78.0778 33.24ZM85.6053 22.48C86.5853 22.48 87.3653 21.68 87.3653 20.7C87.3653 19.72 86.5853 18.94 85.6053 18.94C84.6253 18.94 83.8453 19.72 83.8453 20.7C83.8453 21.68 84.6253 22.48 85.6053 22.48ZM87.1453 33V23.34H84.0653V33H87.1453ZM93.0378 33.24C94.1778 33.24 94.9378 32.96 95.3178 32.6L94.7178 30.28C94.6178 30.4 94.2778 30.52 93.9378 30.52C93.3978 30.52 93.0778 30.1 93.0778 29.54V26.02H95.0378V23.34H93.0778V20.7H90.0178V23.34H88.4178V26.02H90.0178V30.4C90.0178 32.26 91.0778 33.24 93.0378 33.24ZM101.205 33.24C104.525 33.24 106.485 30.88 106.485 28.16C106.485 25.44 104.525 23.1 101.205 23.1C97.9248 23.1 95.9448 25.44 95.9448 28.16C95.9448 30.88 97.9248 33.24 101.205 33.24ZM101.205 30.52C99.8648 30.52 99.1248 29.46 99.1248 28.16C99.1248 26.88 99.8648 25.82 101.205 25.82C102.565 25.82 103.325 26.88 103.325 28.16C103.325 29.46 102.565 30.52 101.205 30.52ZM111.188 33V26.84C111.588 26.3 112.648 25.96 113.448 25.96C113.768 25.96 114.028 26 114.208 26.04V23.08C113.048 23.08 111.828 23.74 111.188 24.52V23.34H108.108V33H111.188ZM127.345 33V19.66H124.365L119.705 24.26L121.665 26.32L123.905 24.06V33H127.345ZM134.391 33.24C137.711 33.24 139.911 31.62 139.911 29.28C139.911 27.36 138.191 26.26 136.771 26.12C138.351 25.86 139.691 24.68 139.691 23.12C139.691 20.92 137.791 19.46 134.391 19.46C131.931 19.46 130.171 20.36 129.051 21.62L130.711 23.78C131.651 22.94 132.811 22.5 134.031 22.5C135.311 22.5 136.271 22.88 136.271 23.72C136.271 24.42 135.491 24.76 134.111 24.76C133.611 24.76 132.571 24.76 132.311 24.74V27.8C132.511 27.78 133.531 27.78 134.111 27.78C135.931 27.78 136.491 28.14 136.491 28.9C136.491 29.64 135.731 30.2 134.251 30.2C133.091 30.2 131.571 29.74 130.611 28.8L128.871 31.14C129.911 32.34 131.831 33.24 134.391 33.24ZM150.862 33V30.56H152.482V27.54H150.862V19.66H146.082L141.022 27.88V30.56H147.402V33H150.862ZM147.402 27.54H144.362L147.402 22.66V27.54ZM164.246 33V30H159.366C162.686 27.68 164.146 25.94 164.146 23.9C164.146 21.22 161.886 19.46 158.746 19.46C156.886 19.46 154.766 20.12 153.346 21.68L155.246 23.96C156.206 23.06 157.326 22.5 158.806 22.5C159.786 22.5 160.646 22.98 160.646 23.9C160.646 25.22 159.566 26.14 153.786 30.32V33H164.246Z" fill="white"/>
<path d="M97.602 231.286C95.4313 231.286 93.6053 230.582 92.124 229.174C90.6427 227.766 89.902 225.933 89.902 223.674C89.902 221.415 90.6427 219.589 92.124 218.196C93.6053 216.788 95.4313 216.084 97.602 216.084C100.125 216.084 102.097 217.103 103.52 219.142L101.408 220.33C100.997 219.758 100.455 219.289 99.78 218.922C99.12 218.555 98.394 218.372 97.602 218.372C96.15 218.372 94.94 218.871 93.972 219.868C93.0187 220.865 92.542 222.134 92.542 223.674C92.542 225.214 93.0187 226.49 93.972 227.502C94.94 228.499 96.15 228.998 97.602 228.998C98.2913 228.998 98.944 228.866 99.56 228.602C100.191 228.338 100.697 228.03 101.078 227.678V225.39H96.7V223.124H103.652V228.624C102.053 230.399 100.037 231.286 97.602 231.286ZM111.062 231.264C109.419 231.264 108.099 230.729 107.102 229.658C106.104 228.573 105.606 227.245 105.606 225.676C105.606 224.107 106.104 222.787 107.102 221.716C108.099 220.645 109.419 220.11 111.062 220.11C112.719 220.11 114.046 220.645 115.044 221.716C116.041 222.787 116.54 224.107 116.54 225.676C116.54 227.26 116.041 228.587 115.044 229.658C114.046 230.729 112.719 231.264 111.062 231.264ZM111.062 229.218C112.015 229.218 112.763 228.881 113.306 228.206C113.863 227.517 114.142 226.673 114.142 225.676C114.142 224.693 113.863 223.865 113.306 223.19C112.763 222.501 112.015 222.156 111.062 222.156C110.123 222.156 109.375 222.501 108.818 223.19C108.275 223.865 108.004 224.693 108.004 225.676C108.004 226.673 108.275 227.517 108.818 228.206C109.375 228.881 110.123 229.218 111.062 229.218ZM123.673 231.264C122.03 231.264 120.71 230.729 119.713 229.658C118.716 228.573 118.217 227.245 118.217 225.676C118.217 224.107 118.716 222.787 119.713 221.716C120.71 220.645 122.03 220.11 123.673 220.11C125.33 220.11 126.658 220.645 127.655 221.716C128.652 222.787 129.151 224.107 129.151 225.676C129.151 227.26 128.652 228.587 127.655 229.658C126.658 230.729 125.33 231.264 123.673 231.264ZM123.673 229.218C124.626 229.218 125.374 228.881 125.917 228.206C126.474 227.517 126.753 226.673 126.753 225.676C126.753 224.693 126.474 223.865 125.917 223.19C125.374 222.501 124.626 222.156 123.673 222.156C122.734 222.156 121.986 222.501 121.429 223.19C120.886 223.865 120.615 224.693 120.615 225.676C120.615 226.673 120.886 227.517 121.429 228.206C121.986 228.881 122.734 229.218 123.673 229.218ZM135.8 235.312C133.996 235.312 132.515 234.784 131.356 233.728L132.434 232.056C133.226 232.965 134.348 233.42 135.8 233.42C136.68 233.42 137.421 233.185 138.022 232.716C138.638 232.261 138.946 231.535 138.946 230.538V229.262C138.037 230.435 136.9 231.022 135.536 231.022C134.143 231.022 133.006 230.538 132.126 229.57C131.261 228.602 130.828 227.267 130.828 225.566C130.828 223.879 131.261 222.552 132.126 221.584C133.006 220.601 134.143 220.11 135.536 220.11C136.93 220.11 138.066 220.689 138.946 221.848V220.374H141.256V230.45C141.256 231.359 141.095 232.144 140.772 232.804C140.464 233.479 140.039 233.985 139.496 234.322C138.954 234.674 138.374 234.923 137.758 235.07C137.157 235.231 136.504 235.312 135.8 235.312ZM136.218 228.976C136.746 228.976 137.267 228.837 137.78 228.558C138.294 228.279 138.682 227.942 138.946 227.546V223.586C138.682 223.19 138.294 222.853 137.78 222.574C137.267 222.295 136.746 222.156 136.218 222.156C135.309 222.156 134.583 222.471 134.04 223.102C133.498 223.718 133.226 224.539 133.226 225.566C133.226 226.593 133.498 227.421 134.04 228.052C134.583 228.668 135.309 228.976 136.218 228.976ZM146.56 231H144.25V216.326H146.56V231ZM154.463 231.264C152.849 231.264 151.515 230.751 150.459 229.724C149.417 228.683 148.897 227.333 148.897 225.676C148.897 224.121 149.403 222.809 150.415 221.738C151.441 220.653 152.732 220.11 154.287 220.11C155.856 220.11 157.117 220.653 158.071 221.738C159.039 222.823 159.523 224.209 159.523 225.896V226.446H151.317C151.405 227.282 151.749 227.979 152.351 228.536C152.952 229.093 153.737 229.372 154.705 229.372C155.247 229.372 155.79 229.269 156.333 229.064C156.89 228.859 157.352 228.573 157.719 228.206L158.775 229.724C157.704 230.751 156.267 231.264 154.463 231.264ZM157.279 224.818C157.249 224.085 156.978 223.432 156.465 222.86C155.966 222.288 155.24 222.002 154.287 222.002C153.377 222.002 152.666 222.288 152.153 222.86C151.639 223.417 151.353 224.07 151.295 224.818H157.279ZM172.535 231.264C170.012 231.264 168.025 230.487 166.573 228.932L168.003 226.952C169.264 228.301 170.812 228.976 172.645 228.976C173.628 228.976 174.361 228.778 174.845 228.382C175.344 227.986 175.593 227.517 175.593 226.974C175.593 226.417 175.3 225.977 174.713 225.654C174.126 225.317 173.415 225.053 172.579 224.862C171.743 224.671 170.9 224.444 170.049 224.18C169.213 223.916 168.502 223.469 167.915 222.838C167.328 222.207 167.035 221.393 167.035 220.396C167.035 219.164 167.526 218.145 168.509 217.338C169.506 216.517 170.797 216.106 172.381 216.106C174.64 216.106 176.473 216.788 177.881 218.152L176.407 220.066C175.292 218.951 173.877 218.394 172.161 218.394C171.398 218.394 170.79 218.563 170.335 218.9C169.895 219.223 169.675 219.663 169.675 220.22C169.675 220.587 169.829 220.895 170.137 221.144C170.46 221.393 170.87 221.599 171.369 221.76C171.868 221.907 172.418 222.053 173.019 222.2C173.635 222.347 174.244 222.53 174.845 222.75C175.461 222.955 176.018 223.212 176.517 223.52C177.016 223.828 177.419 224.253 177.727 224.796C178.05 225.339 178.211 225.984 178.211 226.732C178.211 228.052 177.734 229.137 176.781 229.988C175.828 230.839 174.412 231.264 172.535 231.264ZM190.636 231H180.582V216.326H190.636V218.592H183.156V222.398H190.482V224.664H183.156V228.734H190.636V231ZM205.511 229.13C204.103 230.553 202.306 231.264 200.121 231.264C197.935 231.264 196.139 230.553 194.731 229.13C193.323 227.693 192.619 225.874 192.619 223.674C192.619 221.474 193.323 219.663 194.731 218.24C196.139 216.803 197.935 216.084 200.121 216.084C202.306 216.084 204.103 216.803 205.511 218.24C206.919 219.663 207.623 221.474 207.623 223.674C207.623 225.874 206.919 227.693 205.511 229.13ZM200.121 228.976C201.573 228.976 202.746 228.477 203.641 227.48C204.535 226.468 204.983 225.199 204.983 223.674C204.983 222.134 204.535 220.865 203.641 219.868C202.746 218.871 201.573 218.372 200.121 218.372C198.654 218.372 197.473 218.871 196.579 219.868C195.699 220.865 195.259 222.134 195.259 223.674C195.259 225.214 195.699 226.483 196.579 227.48C197.473 228.477 198.654 228.976 200.121 228.976Z" fill="white"/>
<path d="M92.7 260.24C95.08 260.24 96.94 258.88 96.94 255.98V246.66H95.28V255.96C95.28 257.62 94.24 258.76 92.6 258.76C91.44 258.76 90.66 258.14 90.08 257.44L89.22 258.7C90.14 259.78 91.28 260.24 92.7 260.24ZM108.012 260V250.34H106.512V257.44C105.952 258.22 104.832 258.9 103.652 258.9C102.352 258.9 101.492 258.4 101.492 256.7V250.34H99.9922V257.16C99.9922 259.26 101.052 260.24 103.072 260.24C104.512 260.24 105.772 259.48 106.512 258.64V260H108.012ZM119.028 260V253.22C119.028 251.12 117.968 250.1 115.948 250.1C114.508 250.1 113.188 250.94 112.508 251.74V250.34H111.008V260H112.508V252.94C113.068 252.16 114.188 251.44 115.368 251.44C116.668 251.44 117.528 251.98 117.528 253.68V260H119.028ZM126.383 260.24C127.963 260.24 129.263 259.72 130.223 258.76L129.503 257.78C128.743 258.56 127.623 259 126.523 259C124.443 259 123.163 257.48 123.043 255.66H130.863V255.28C130.863 252.38 129.143 250.1 126.223 250.1C123.463 250.1 121.463 252.36 121.463 255.16C121.463 258.18 123.523 260.24 126.383 260.24ZM129.383 254.56H123.043C123.123 253.08 124.143 251.34 126.203 251.34C128.403 251.34 129.363 253.12 129.383 254.56ZM145.589 260V256.62H147.469V255.16H145.589V246.66H143.309L137.589 255.24V256.62H143.929V260H145.589ZM143.929 255.16H139.249L143.929 248.2V255.16ZM152.042 260.24C152.922 260.24 153.462 259.98 153.842 259.62L153.402 258.5C153.202 258.72 152.802 258.9 152.382 258.9C151.722 258.9 151.402 258.38 151.402 257.66V251.66H153.362V250.34H151.402V247.7H149.902V250.34H148.302V251.66H149.902V257.98C149.902 259.42 150.622 260.24 152.042 260.24ZM163.52 260V253.18C163.52 251.08 162.46 250.1 160.44 250.1C158.98 250.1 157.66 250.94 156.98 251.74V246.66H155.48V260H156.98V252.94C157.56 252.16 158.68 251.44 159.84 251.44C161.14 251.44 162.02 251.94 162.02 253.64V260H163.52ZM176.192 260.24C178.872 260.24 180.932 258.56 180.932 255.84C180.932 253.1 178.912 251.58 176.692 251.58C175.352 251.58 174.212 252.14 173.572 252.78V248.14H180.072V246.66H171.912V253.86L173.132 254.28C174.032 253.4 175.032 253.02 176.212 253.02C178.012 253.02 179.272 254.14 179.272 255.9C179.272 257.52 178.012 258.76 176.192 258.76C174.552 258.76 173.392 258.12 172.512 257L171.492 258.1C172.492 259.42 173.932 260.24 176.192 260.24ZM184.269 252.4C184.869 252.4 185.369 251.9 185.369 251.3C185.369 250.7 184.869 250.2 184.269 250.2C183.669 250.2 183.169 250.7 183.169 251.3C183.169 251.9 183.669 252.4 184.269 252.4ZM184.269 260.2C184.869 260.2 185.369 259.7 185.369 259.1C185.369 258.5 184.869 258 184.269 258C183.669 258 183.169 258.5 183.169 259.1C183.169 259.7 183.669 260.2 184.269 260.2ZM195.218 260V256.62H197.098V255.16H195.218V246.66H192.938L187.218 255.24V256.62H193.558V260H195.218ZM193.558 255.16H188.878L193.558 248.2V255.16ZM203.89 260.24C206.81 260.24 208.57 258.2 208.57 255.88C208.57 253.04 206.61 251.62 204.21 251.62C202.49 251.62 201.01 252.78 200.43 253.7C200.41 253.52 200.41 253.36 200.41 253.18C200.41 250.56 201.59 247.94 204.17 247.94C205.57 247.94 206.35 248.5 207.03 249.3L207.87 248.06C207.05 247.12 205.89 246.46 204.17 246.46C200.43 246.46 198.75 249.74 198.75 253.36C198.75 256.98 200.17 260.24 203.89 260.24ZM203.83 258.76C201.51 258.76 200.63 256.72 200.47 255.06C201.21 253.88 202.49 253.06 203.81 253.06C205.53 253.06 206.89 253.98 206.89 255.94C206.89 257.22 205.89 258.76 203.83 258.76ZM215.807 260.24C218.347 260.24 220.107 258.28 220.107 255.16C220.107 252.02 218.347 250.1 215.807 250.1C214.447 250.1 213.247 250.8 212.547 251.78V250.34H211.047V263.68H212.547V258.54C213.327 259.62 214.487 260.24 215.807 260.24ZM215.427 258.9C214.247 258.9 213.067 258.18 212.547 257.34V252.98C213.067 252.14 214.247 251.44 215.427 251.44C217.367 251.44 218.527 253.02 218.527 255.16C218.527 257.3 217.367 258.9 215.427 258.9ZM235.652 260V253.02C235.652 251.08 234.712 250.1 232.952 250.1C231.552 250.1 230.252 251.02 229.712 251.9C229.432 250.9 228.592 250.1 227.112 250.1C225.692 250.1 224.392 251.12 223.992 251.74V250.34H222.492V260H223.992V252.94C224.512 252.16 225.552 251.44 226.532 251.44C227.792 251.44 228.312 252.22 228.312 253.44V260H229.812V252.92C230.312 252.16 231.372 251.44 232.372 251.44C233.612 251.44 234.152 252.22 234.152 253.44V260H235.652Z" fill="white"/>
<rect y="204" width="74" height="71" rx="6" fill="white" fill-opacity="0.05"/>
<rect x="0.5" y="204.5" width="73" height="70" rx="5.5" stroke="white" stroke-opacity="0.1"/>
<path d="M53.0002 240.237C53.0002 239.128 52.9018 238.074 52.7332 237.048H36.8584V243.384H45.9478C45.5404 245.463 44.3463 247.219 42.5762 248.414V252.628H47.9989C51.1739 249.692 53.0002 245.365 53.0002 240.237Z" fill="white"/>
<path d="M36.8585 256.716C41.4102 256.716 45.2174 255.199 47.999 252.628L42.5762 248.414C41.059 249.425 39.1343 250.043 36.8585 250.043C32.4613 250.043 28.7384 247.079 27.4038 243.075H21.8125V247.416C24.5801 252.923 30.2697 256.716 36.8585 256.716Z" fill="white"/>
<path d="M27.4036 243.076C27.0524 242.064 26.8697 240.982 26.8697 239.858C26.8697 238.735 27.0664 237.653 27.4036 236.641V232.3H21.8123C20.6603 234.576 20 237.133 20 239.858C20 242.584 20.6603 245.141 21.8123 247.417L27.4036 243.076Z" fill="white"/>
<path d="M36.8585 229.673C39.3451 229.673 41.5647 230.53 43.3208 232.202L48.1254 227.397C45.2174 224.672 41.4102 223 36.8585 223C30.2697 223 24.5801 226.793 21.8125 232.3L27.4038 236.641C28.7384 232.637 32.4613 229.673 36.8585 229.673Z" fill="white"/>
<path d="M99.604 355H90.562V340.326H93.136V352.734H99.604V355ZM103.005 343.076C102.624 343.076 102.287 342.937 101.993 342.658C101.715 342.379 101.575 342.042 101.575 341.646C101.575 341.25 101.715 340.913 101.993 340.634C102.287 340.355 102.624 340.216 103.005 340.216C103.401 340.216 103.739 340.355 104.017 340.634C104.296 340.913 104.435 341.25 104.435 341.646C104.435 342.042 104.296 342.379 104.017 342.658C103.739 342.937 103.401 343.076 103.005 343.076ZM104.171 355H101.861V344.374H104.171V355ZM116.65 355H114.34V348.356C114.34 346.889 113.629 346.156 112.206 346.156C111.649 346.156 111.128 346.295 110.644 346.574C110.16 346.853 109.771 347.19 109.478 347.586V355H107.168V344.374H109.478V345.826C109.874 345.357 110.402 344.953 111.062 344.616C111.722 344.279 112.441 344.11 113.218 344.11C114.347 344.11 115.198 344.403 115.77 344.99C116.357 345.577 116.65 346.42 116.65 347.52V355ZM129.594 355H126.69L123.434 350.622L121.96 352.14V355H119.65V340.326H121.96V349.5L126.646 344.374H129.506L125.084 349.192L129.594 355ZM136.029 355.264C134.416 355.264 133.081 354.751 132.025 353.724C130.984 352.683 130.463 351.333 130.463 349.676C130.463 348.121 130.969 346.809 131.981 345.738C133.008 344.653 134.298 344.11 135.853 344.11C137.422 344.11 138.684 344.653 139.637 345.738C140.605 346.823 141.089 348.209 141.089 349.896V350.446H132.883C132.971 351.282 133.316 351.979 133.917 352.536C134.518 353.093 135.303 353.372 136.271 353.372C136.814 353.372 137.356 353.269 137.899 353.064C138.456 352.859 138.918 352.573 139.285 352.206L140.341 353.724C139.27 354.751 137.833 355.264 136.029 355.264ZM138.845 348.818C138.816 348.085 138.544 347.432 138.031 346.86C137.532 346.288 136.806 346.002 135.853 346.002C134.944 346.002 134.232 346.288 133.719 346.86C133.206 347.417 132.92 348.07 132.861 348.818H138.845ZM153.159 355H150.849V353.548C149.969 354.692 148.832 355.264 147.439 355.264C146.046 355.264 144.909 354.765 144.029 353.768C143.149 352.771 142.709 351.414 142.709 349.698C142.709 347.997 143.149 346.64 144.029 345.628C144.909 344.616 146.046 344.11 147.439 344.11C148.832 344.11 149.969 344.689 150.849 345.848V340.326H153.159V355ZM148.099 353.218C148.642 353.218 149.17 353.086 149.683 352.822C150.196 352.558 150.585 352.221 150.849 351.81V347.586C150.585 347.175 150.196 346.838 149.683 346.574C149.17 346.295 148.642 346.156 148.099 346.156C147.19 346.156 146.464 346.486 145.921 347.146C145.378 347.806 145.107 348.657 145.107 349.698C145.107 350.739 145.378 351.59 145.921 352.25C146.464 352.895 147.19 353.218 148.099 353.218ZM158.792 355H156.218V340.326H158.792V355ZM171.328 355H169.018V348.356C169.018 346.889 168.306 346.156 166.884 346.156C166.326 346.156 165.806 346.295 165.322 346.574C164.838 346.853 164.449 347.19 164.156 347.586V355H161.846V344.374H164.156V345.826C164.552 345.357 165.08 344.953 165.74 344.616C166.4 344.279 167.118 344.11 167.896 344.11C169.025 344.11 169.876 344.403 170.448 344.99C171.034 345.577 171.328 346.42 171.328 347.52V355ZM193.244 355H190.318L189.24 352.184H182.508L181.43 355H178.504L184.268 340.326H187.48L193.244 355ZM188.514 349.918L185.874 342.922L183.234 349.918H188.514ZM204.571 355H202.261V353.548C201.381 354.692 200.244 355.264 198.851 355.264C197.458 355.264 196.321 354.765 195.441 353.768C194.561 352.771 194.121 351.414 194.121 349.698C194.121 347.997 194.561 346.64 195.441 345.628C196.321 344.616 197.458 344.11 198.851 344.11C200.244 344.11 201.381 344.689 202.261 345.848V340.326H204.571V355ZM199.511 353.218C200.054 353.218 200.582 353.086 201.095 352.822C201.608 352.558 201.997 352.221 202.261 351.81V347.586C201.997 347.175 201.608 346.838 201.095 346.574C200.582 346.295 200.054 346.156 199.511 346.156C198.602 346.156 197.876 346.486 197.333 347.146C196.79 347.806 196.519 348.657 196.519 349.698C196.519 350.739 196.79 351.59 197.333 352.25C197.876 352.895 198.602 353.218 199.511 353.218Z" fill="white"/>
<path d="M92.7 384.24C95.08 384.24 96.94 382.88 96.94 379.98V370.66H95.28V379.96C95.28 381.62 94.24 382.76 92.6 382.76C91.44 382.76 90.66 382.14 90.08 381.44L89.22 382.7C90.14 383.78 91.28 384.24 92.7 384.24ZM108.012 384V374.34H106.512V381.44C105.952 382.22 104.832 382.9 103.652 382.9C102.352 382.9 101.492 382.4 101.492 380.7V374.34H99.9922V381.16C99.9922 383.26 101.052 384.24 103.072 384.24C104.512 384.24 105.772 383.48 106.512 382.64V384H108.012ZM119.028 384V377.22C119.028 375.12 117.968 374.1 115.948 374.1C114.508 374.1 113.188 374.94 112.508 375.74V374.34H111.008V384H112.508V376.94C113.068 376.16 114.188 375.44 115.368 375.44C116.668 375.44 117.528 375.98 117.528 377.68V384H119.028ZM126.383 384.24C127.963 384.24 129.263 383.72 130.223 382.76L129.503 381.78C128.743 382.56 127.623 383 126.523 383C124.443 383 123.163 381.48 123.043 379.66H130.863V379.28C130.863 376.38 129.143 374.1 126.223 374.1C123.463 374.1 121.463 376.36 121.463 379.16C121.463 382.18 123.523 384.24 126.383 384.24ZM129.383 378.56H123.043C123.123 377.08 124.143 375.34 126.203 375.34C128.403 375.34 129.363 377.12 129.383 378.56ZM141.209 384L146.669 371.8V370.66H137.569V372.14H144.749L139.369 384H141.209ZM151.182 384.24C152.062 384.24 152.602 383.98 152.982 383.62L152.542 382.5C152.342 382.72 151.942 382.9 151.522 382.9C150.862 382.9 150.542 382.38 150.542 381.66V375.66H152.502V374.34H150.542V371.7H149.042V374.34H147.442V375.66H149.042V381.98C149.042 383.42 149.762 384.24 151.182 384.24ZM162.661 384V377.18C162.661 375.08 161.601 374.1 159.581 374.1C158.121 374.1 156.801 374.94 156.121 375.74V370.66H154.621V384H156.121V376.94C156.701 376.16 157.821 375.44 158.981 375.44C160.281 375.44 161.161 375.94 161.161 377.64V384H162.661ZM174.533 384V370.66H173.073L169.733 374.1L170.733 375.12L172.873 372.86V384H174.533ZM178.39 376.4C178.99 376.4 179.49 375.9 179.49 375.3C179.49 374.7 178.99 374.2 178.39 374.2C177.79 374.2 177.29 374.7 177.29 375.3C177.29 375.9 177.79 376.4 178.39 376.4ZM178.39 384.2C178.99 384.2 179.49 383.7 179.49 383.1C179.49 382.5 178.99 382 178.39 382C177.79 382 177.29 382.5 177.29 383.1C177.29 383.7 177.79 384.2 178.39 384.2ZM185.919 384V370.66H184.459L181.119 374.1L182.119 375.12L184.259 372.86V384H185.919ZM197.717 384V382.52H191.177C194.897 379.58 197.657 377.1 197.657 374.38C197.657 371.72 195.397 370.46 193.177 370.46C191.297 370.46 189.557 371.22 188.537 372.56L189.557 373.62C190.337 372.62 191.577 371.94 193.177 371.94C194.557 371.94 195.957 372.68 195.957 374.38C195.957 376.68 193.357 378.9 188.557 382.68V384H197.717ZM205.494 384.24C208.034 384.24 209.794 382.28 209.794 379.16C209.794 376.02 208.034 374.1 205.494 374.1C204.134 374.1 202.934 374.8 202.234 375.78V374.34H200.734V387.68H202.234V382.54C203.014 383.62 204.174 384.24 205.494 384.24ZM205.114 382.9C203.934 382.9 202.754 382.18 202.234 381.34V376.98C202.754 376.14 203.934 375.44 205.114 375.44C207.054 375.44 208.214 377.02 208.214 379.16C208.214 381.3 207.054 382.9 205.114 382.9ZM225.34 384V377.02C225.34 375.08 224.4 374.1 222.64 374.1C221.24 374.1 219.94 375.02 219.4 375.9C219.12 374.9 218.28 374.1 216.8 374.1C215.38 374.1 214.08 375.12 213.68 375.74V374.34H212.18V384H213.68V376.94C214.2 376.16 215.24 375.44 216.22 375.44C217.48 375.44 218 376.22 218 377.44V384H219.5V376.92C220 376.16 221.06 375.44 222.06 375.44C223.3 375.44 223.84 376.22 223.84 377.44V384H225.34Z" fill="white"/>
<rect y="328" width="74" height="71" rx="6" fill="white" fill-opacity="0.05"/>
<rect x="0.5" y="328.5" width="73" height="70" rx="5.5" stroke="white" stroke-opacity="0.1"/>
<path d="M27.4433 350.23C27.4433 352.567 25.5532 354.461 23.2216 354.461C20.8901 354.461 19 352.567 19 350.23C19 347.894 20.8901 346 23.2216 346C25.5532 346 27.4433 347.894 27.4433 350.23Z" fill="white"/>
<path d="M19.5773 357.57H26.7938V381H19.5773V357.57Z" fill="white"/>
<path d="M38.4124 357.57H31.1959V381H38.4124C38.4124 381 38.4124 373.624 38.4124 369.012C38.4124 366.244 39.2945 363.464 42.8144 363.464C46.7924 363.464 46.7684 367.086 46.7499 369.893C46.7256 373.561 46.7835 377.305 46.7835 381H54V368.634C53.9389 360.738 52.0186 357.1 45.701 357.1C41.9493 357.1 39.6237 358.925 38.4124 360.576V357.57Z" fill="white"/>
<path d="M104.532 476H101.782L98.922 465.176L96.084 476H93.334L89.132 461.326H92.014L94.874 472.634L97.91 461.326H99.956L102.992 472.634L105.83 461.326H108.712L104.532 476ZM114.394 476.264C112.781 476.264 111.446 475.751 110.39 474.724C109.349 473.683 108.828 472.333 108.828 470.676C108.828 469.121 109.334 467.809 110.346 466.738C111.373 465.653 112.664 465.11 114.218 465.11C115.788 465.11 117.049 465.653 118.002 466.738C118.97 467.823 119.454 469.209 119.454 470.896V471.446H111.248C111.336 472.282 111.681 472.979 112.282 473.536C112.884 474.093 113.668 474.372 114.636 474.372C115.179 474.372 115.722 474.269 116.264 474.064C116.822 473.859 117.284 473.573 117.65 473.206L118.706 474.724C117.636 475.751 116.198 476.264 114.394 476.264ZM117.21 469.818C117.181 469.085 116.91 468.432 116.396 467.86C115.898 467.288 115.172 467.002 114.218 467.002C113.309 467.002 112.598 467.288 112.084 467.86C111.571 468.417 111.285 469.07 111.226 469.818H117.21ZM124.044 472.81C124.294 473.206 124.675 473.543 125.188 473.822C125.716 474.086 126.244 474.218 126.772 474.218C127.682 474.218 128.408 473.895 128.95 473.25C129.508 472.59 129.786 471.739 129.786 470.698C129.786 469.657 129.508 468.806 128.95 468.146C128.408 467.486 127.682 467.156 126.772 467.156C126.244 467.156 125.724 467.295 125.21 467.574C124.697 467.853 124.308 468.197 124.044 468.608V472.81ZM124.044 476H121.734V461.326H124.044V466.848C124.91 465.689 126.046 465.11 127.454 465.11C128.833 465.11 129.962 465.623 130.842 466.65C131.722 467.662 132.162 469.011 132.162 470.698C132.162 472.414 131.722 473.771 130.842 474.768C129.962 475.765 128.833 476.264 127.454 476.264C126.061 476.264 124.924 475.692 124.044 474.548V476ZM138.147 476.264C136.241 476.264 134.723 475.714 133.593 474.614L134.649 472.942C135.045 473.353 135.581 473.705 136.255 473.998C136.93 474.291 137.597 474.438 138.257 474.438C138.932 474.438 139.445 474.306 139.797 474.042C140.164 473.778 140.347 473.433 140.347 473.008C140.347 472.627 140.127 472.333 139.687 472.128C139.247 471.908 138.712 471.739 138.081 471.622C137.451 471.49 136.82 471.336 136.189 471.16C135.559 470.969 135.023 470.639 134.583 470.17C134.143 469.701 133.923 469.092 133.923 468.344C133.923 467.435 134.297 466.672 135.045 466.056C135.793 465.425 136.813 465.11 138.103 465.11C139.731 465.11 141.11 465.609 142.239 466.606L141.271 468.234C140.934 467.853 140.487 467.545 139.929 467.31C139.372 467.075 138.771 466.958 138.125 466.958C137.524 466.958 137.04 467.083 136.673 467.332C136.321 467.567 136.145 467.875 136.145 468.256C136.145 468.549 136.299 468.791 136.607 468.982C136.93 469.158 137.326 469.29 137.795 469.378C138.279 469.466 138.8 469.591 139.357 469.752C139.915 469.899 140.428 470.075 140.897 470.28C141.381 470.485 141.777 470.823 142.085 471.292C142.408 471.747 142.569 472.304 142.569 472.964C142.569 473.932 142.181 474.724 141.403 475.34C140.626 475.956 139.541 476.264 138.147 476.264ZM146.038 464.076C145.657 464.076 145.32 463.937 145.026 463.658C144.748 463.379 144.608 463.042 144.608 462.646C144.608 462.25 144.748 461.913 145.026 461.634C145.32 461.355 145.657 461.216 146.038 461.216C146.434 461.216 146.772 461.355 147.05 461.634C147.329 461.913 147.468 462.25 147.468 462.646C147.468 463.042 147.329 463.379 147.05 463.658C146.772 463.937 146.434 464.076 146.038 464.076ZM147.204 476H144.894V465.374H147.204V476ZM153.391 476.264C152.496 476.264 151.814 476.029 151.345 475.56C150.89 475.091 150.663 474.416 150.663 473.536V467.398H148.903V465.374H150.663V462.47H152.973V465.374H155.129V467.398H152.973V472.964C152.973 473.345 153.061 473.653 153.237 473.888C153.413 474.108 153.662 474.218 153.985 474.218C154.454 474.218 154.799 474.093 155.019 473.844L155.569 475.582C155.085 476.037 154.359 476.264 153.391 476.264ZM162.132 476.264C160.519 476.264 159.184 475.751 158.128 474.724C157.087 473.683 156.566 472.333 156.566 470.676C156.566 469.121 157.072 467.809 158.084 466.738C159.111 465.653 160.402 465.11 161.956 465.11C163.526 465.11 164.787 465.653 165.74 466.738C166.708 467.823 167.192 469.209 167.192 470.896V471.446H158.986C159.074 472.282 159.419 472.979 160.02 473.536C160.622 474.093 161.406 474.372 162.374 474.372C162.917 474.372 163.46 474.269 164.002 474.064C164.56 473.859 165.022 473.573 165.388 473.206L166.444 474.724C165.374 475.751 163.936 476.264 162.132 476.264ZM164.948 469.818C164.919 469.085 164.648 468.432 164.134 467.86C163.636 467.288 162.91 467.002 161.956 467.002C161.047 467.002 160.336 467.288 159.822 467.86C159.309 468.417 159.023 469.07 158.964 469.818H164.948ZM177.763 476H175.189V461.326H181.635C183.116 461.326 184.282 461.766 185.133 462.646C185.998 463.526 186.431 464.619 186.431 465.924C186.431 467.215 185.998 468.307 185.133 469.202C184.282 470.082 183.116 470.522 181.635 470.522H177.763V476ZM181.283 468.256C182.016 468.256 182.618 468.043 183.087 467.618C183.556 467.193 183.791 466.628 183.791 465.924C183.791 465.22 183.556 464.655 183.087 464.23C182.618 463.805 182.016 463.592 181.283 463.592H177.763V468.256H181.283ZM197.99 476H195.68V474.592C194.682 475.707 193.428 476.264 191.918 476.264C189.644 476.264 188.508 475.142 188.508 472.898V465.374H190.818V472.062C190.818 472.839 191.001 473.397 191.368 473.734C191.734 474.057 192.262 474.218 192.952 474.218C193.509 474.218 194.03 474.086 194.514 473.822C194.998 473.558 195.386 473.228 195.68 472.832V465.374H197.99V476ZM203.3 476H200.99V465.374H203.3V466.936C203.711 466.408 204.224 465.975 204.84 465.638C205.456 465.301 206.094 465.132 206.754 465.132V467.42C206.549 467.376 206.307 467.354 206.028 467.354C205.544 467.354 205.023 467.501 204.466 467.794C203.923 468.073 203.535 468.395 203.3 468.762V476ZM213.457 476.264C211.844 476.264 210.524 475.743 209.497 474.702C208.47 473.646 207.957 472.304 207.957 470.676C207.957 469.063 208.47 467.735 209.497 466.694C210.524 465.638 211.844 465.11 213.457 465.11C215.232 465.11 216.588 465.741 217.527 467.002L216.009 468.41C215.422 467.574 214.608 467.156 213.567 467.156C212.599 467.156 211.822 467.486 211.235 468.146C210.648 468.791 210.355 469.635 210.355 470.676C210.355 471.717 210.648 472.568 211.235 473.228C211.822 473.888 212.599 474.218 213.567 474.218C214.579 474.218 215.393 473.8 216.009 472.964L217.527 474.372C216.588 475.633 215.232 476.264 213.457 476.264ZM229.057 476H226.747V469.312C226.747 468.535 226.556 467.985 226.175 467.662C225.808 467.325 225.28 467.156 224.591 467.156C224.048 467.156 223.535 467.295 223.051 467.574C222.567 467.853 222.171 468.19 221.863 468.586V476H219.553V461.326H221.863V466.826C222.259 466.357 222.787 465.953 223.447 465.616C224.121 465.279 224.847 465.11 225.625 465.11C227.913 465.11 229.057 466.232 229.057 468.476V476ZM240.857 476H238.547V474.856C237.725 475.795 236.581 476.264 235.115 476.264C234.147 476.264 233.289 475.956 232.541 475.34C231.793 474.709 231.419 473.844 231.419 472.744C231.419 471.615 231.785 470.757 232.519 470.17C233.267 469.583 234.132 469.29 235.115 469.29C236.625 469.29 237.769 469.745 238.547 470.654V469.07C238.547 468.454 238.319 467.97 237.865 467.618C237.41 467.266 236.809 467.09 236.061 467.09C234.873 467.09 233.824 467.537 232.915 468.432L231.969 466.826C233.171 465.682 234.66 465.11 236.435 465.11C237.74 465.11 238.803 465.418 239.625 466.034C240.446 466.65 240.857 467.625 240.857 468.96V476ZM236.017 474.68C237.175 474.68 238.019 474.313 238.547 473.58V471.974C238.019 471.241 237.175 470.874 236.017 470.874C235.357 470.874 234.814 471.05 234.389 471.402C233.963 471.754 233.751 472.216 233.751 472.788C233.751 473.36 233.963 473.822 234.389 474.174C234.814 474.511 235.357 474.68 236.017 474.68ZM247.481 476.264C245.575 476.264 244.057 475.714 242.927 474.614L243.983 472.942C244.379 473.353 244.915 473.705 245.589 473.998C246.264 474.291 246.931 474.438 247.591 474.438C248.266 474.438 248.779 474.306 249.131 474.042C249.498 473.778 249.681 473.433 249.681 473.008C249.681 472.627 249.461 472.333 249.021 472.128C248.581 471.908 248.046 471.739 247.415 471.622C246.785 471.49 246.154 471.336 245.523 471.16C244.893 470.969 244.357 470.639 243.917 470.17C243.477 469.701 243.257 469.092 243.257 468.344C243.257 467.435 243.631 466.672 244.379 466.056C245.127 465.425 246.147 465.11 247.437 465.11C249.065 465.11 250.444 465.609 251.573 466.606L250.605 468.234C250.268 467.853 249.821 467.545 249.263 467.31C248.706 467.075 248.105 466.958 247.459 466.958C246.858 466.958 246.374 467.083 246.007 467.332C245.655 467.567 245.479 467.875 245.479 468.256C245.479 468.549 245.633 468.791 245.941 468.982C246.264 469.158 246.66 469.29 247.129 469.378C247.613 469.466 248.134 469.591 248.691 469.752C249.249 469.899 249.762 470.075 250.231 470.28C250.715 470.485 251.111 470.823 251.419 471.292C251.742 471.747 251.903 472.304 251.903 472.964C251.903 473.932 251.515 474.724 250.737 475.34C249.96 475.956 248.875 476.264 247.481 476.264ZM259.134 476.264C257.521 476.264 256.186 475.751 255.13 474.724C254.089 473.683 253.568 472.333 253.568 470.676C253.568 469.121 254.074 467.809 255.086 466.738C256.113 465.653 257.404 465.11 258.958 465.11C260.528 465.11 261.789 465.653 262.742 466.738C263.71 467.823 264.194 469.209 264.194 470.896V471.446H255.988C256.076 472.282 256.421 472.979 257.022 473.536C257.624 474.093 258.408 474.372 259.376 474.372C259.919 474.372 260.462 474.269 261.004 474.064C261.562 473.859 262.024 473.573 262.39 473.206L263.446 474.724C262.376 475.751 260.938 476.264 259.134 476.264ZM261.95 469.818C261.921 469.085 261.65 468.432 261.136 467.86C260.638 467.288 259.912 467.002 258.958 467.002C258.049 467.002 257.338 467.288 256.824 467.86C256.311 468.417 256.025 469.07 255.966 469.818H261.95Z" fill="white"/>
<path d="M92.7 505.24C95.08 505.24 96.94 503.88 96.94 500.98V491.66H95.28V500.96C95.28 502.62 94.24 503.76 92.6 503.76C91.44 503.76 90.66 503.14 90.08 502.44L89.22 503.7C90.14 504.78 91.28 505.24 92.7 505.24ZM108.012 505V495.34H106.512V502.44C105.952 503.22 104.832 503.9 103.652 503.9C102.352 503.9 101.492 503.4 101.492 501.7V495.34H99.9922V502.16C99.9922 504.26 101.052 505.24 103.072 505.24C104.512 505.24 105.772 504.48 106.512 503.64V505H108.012ZM119.028 505V498.22C119.028 496.12 117.968 495.1 115.948 495.1C114.508 495.1 113.188 495.94 112.508 496.74V495.34H111.008V505H112.508V497.94C113.068 497.16 114.188 496.44 115.368 496.44C116.668 496.44 117.528 496.98 117.528 498.68V505H119.028ZM126.383 505.24C127.963 505.24 129.263 504.72 130.223 503.76L129.503 502.78C128.743 503.56 127.623 504 126.523 504C124.443 504 123.163 502.48 123.043 500.66H130.863V500.28C130.863 497.38 129.143 495.1 126.223 495.1C123.463 495.1 121.463 497.36 121.463 500.16C121.463 503.18 123.523 505.24 126.383 505.24ZM129.383 499.56H123.043C123.123 498.08 124.143 496.34 126.203 496.34C128.403 496.34 129.363 498.12 129.383 499.56ZM141.209 505L146.669 492.8V491.66H137.569V493.14H144.749L139.369 505H141.209ZM151.182 505.24C152.062 505.24 152.602 504.98 152.982 504.62L152.542 503.5C152.342 503.72 151.942 503.9 151.522 503.9C150.862 503.9 150.542 503.38 150.542 502.66V496.66H152.502V495.34H150.542V492.7H149.042V495.34H147.442V496.66H149.042V502.98C149.042 504.42 149.762 505.24 151.182 505.24ZM162.661 505V498.18C162.661 496.08 161.601 495.1 159.581 495.1C158.121 495.1 156.801 495.94 156.121 496.74V491.66H154.621V505H156.121V497.94C156.701 497.16 157.821 496.44 158.981 496.44C160.281 496.44 161.161 496.94 161.161 498.64V505H162.661ZM174.533 505V491.66H173.073L169.733 495.1L170.733 496.12L172.873 493.86V505H174.533ZM178.39 497.4C178.99 497.4 179.49 496.9 179.49 496.3C179.49 495.7 178.99 495.2 178.39 495.2C177.79 495.2 177.29 495.7 177.29 496.3C177.29 496.9 177.79 497.4 178.39 497.4ZM178.39 505.2C178.99 505.2 179.49 504.7 179.49 504.1C179.49 503.5 178.99 503 178.39 503C177.79 503 177.29 503.5 177.29 504.1C177.29 504.7 177.79 505.2 178.39 505.2ZM185.919 505V491.66H184.459L181.119 495.1L182.119 496.12L184.259 493.86V505H185.919ZM193.637 505.24C196.557 505.24 198.317 503.2 198.317 500.88C198.317 498.04 196.357 496.62 193.957 496.62C192.237 496.62 190.757 497.78 190.177 498.7C190.157 498.52 190.157 498.36 190.157 498.18C190.157 495.56 191.337 492.94 193.917 492.94C195.317 492.94 196.097 493.5 196.777 494.3L197.617 493.06C196.797 492.12 195.637 491.46 193.917 491.46C190.177 491.46 188.497 494.74 188.497 498.36C188.497 501.98 189.917 505.24 193.637 505.24ZM193.577 503.76C191.257 503.76 190.377 501.72 190.217 500.06C190.957 498.88 192.237 498.06 193.557 498.06C195.277 498.06 196.637 498.98 196.637 500.94C196.637 502.22 195.637 503.76 193.577 503.76ZM205.553 505.24C208.093 505.24 209.853 503.28 209.853 500.16C209.853 497.02 208.093 495.1 205.553 495.1C204.193 495.1 202.993 495.8 202.293 496.78V495.34H200.793V508.68H202.293V503.54C203.073 504.62 204.233 505.24 205.553 505.24ZM205.173 503.9C203.993 503.9 202.813 503.18 202.293 502.34V497.98C202.813 497.14 203.993 496.44 205.173 496.44C207.113 496.44 208.273 498.02 208.273 500.16C208.273 502.3 207.113 503.9 205.173 503.9ZM225.398 505V498.02C225.398 496.08 224.458 495.1 222.698 495.1C221.298 495.1 219.998 496.02 219.458 496.9C219.178 495.9 218.338 495.1 216.858 495.1C215.438 495.1 214.138 496.12 213.738 496.74V495.34H212.238V505H213.738V497.94C214.258 497.16 215.298 496.44 216.278 496.44C217.538 496.44 218.058 497.22 218.058 498.44V505H219.558V497.92C220.058 497.16 221.118 496.44 222.118 496.44C223.358 496.44 223.898 497.22 223.898 498.44V505H225.398Z" fill="white"/>
<rect y="452" width="74" height="71" rx="6" fill="white" fill-opacity="0.05"/>
<rect x="0.5" y="452.5" width="73" height="70" rx="5.5" stroke="white" stroke-opacity="0.1"/>
<path d="M18.448 499.8H21.108V497.252C25.196 496.832 27.212 494.452 27.212 491.344C27.212 487.536 23.992 486.416 21.108 485.688V481.74C22.368 482.048 23.572 482.636 24.58 483.56L26.792 480.648C25.28 479.276 23.376 478.408 21.108 478.156V475.496H18.448V478.1C14.668 478.492 12.428 480.9 12.428 483.728C12.428 487.536 15.564 488.6 18.448 489.328V493.752C16.544 493.416 15.032 492.436 13.996 491.344L11.84 494.368C13.352 495.908 15.508 497.028 18.448 497.28V499.8ZM23.18 491.792C23.18 492.66 22.48 493.472 21.108 493.752V490C22.312 490.392 23.18 490.868 23.18 491.792ZM16.488 483.392C16.488 482.44 17.188 481.74 18.448 481.572V484.988C17.272 484.652 16.488 484.204 16.488 483.392ZM41.8072 497V493.136H44.2152V489.636H41.8072V478.324H36.3192L28.8992 490V493.136H37.8312V497H41.8072ZM37.8312 489.636H32.7912L37.8312 481.852V489.636ZM52.2703 497.308C57.7863 497.308 60.9503 493.304 60.9503 487.676C60.9503 482.384 58.5703 478.016 52.9143 478.016C48.6583 478.016 45.7463 480.788 45.7463 484.428C45.7463 488.404 48.7703 490.504 52.1303 490.504C54.1743 490.504 56.0503 489.356 56.9463 488.096C56.9463 488.236 56.9463 488.376 56.9463 488.516C56.9463 491.204 55.3503 493.78 52.2703 493.78C50.6183 493.78 49.5543 493.276 48.5463 492.324L46.7823 495.376C48.0983 496.552 50.0023 497.308 52.2703 497.308ZM53.2503 487.088C51.5143 487.088 49.8063 486.248 49.8063 484.288C49.8063 483 50.9823 481.544 53.1103 481.544C55.7423 481.544 56.7503 483.56 56.9183 485.352C56.0223 486.444 54.6503 487.088 53.2503 487.088Z" fill="white"/>
<rect x="251" width="151" height="54" rx="6" fill="white" fill-opacity="0.05"/>
<rect x="251.5" y="0.5" width="150" height="53" rx="5.5" stroke="white" stroke-opacity="0.2"/>
<path d="M285.34 33V19.66H280.56L277.76 26.9L274.98 19.66H270.2V33H273.64V24.32L277 33H278.52L281.9 24.32V33H285.34ZM296.539 33V30H291.179V19.66H287.739V33H296.539ZM318.582 33V19.66H313.802L311.002 26.9L308.222 19.66H303.442V33H306.882V24.32L310.242 33H311.762L315.142 24.32V33H318.582ZM325.521 33.24C328.841 33.24 330.801 30.88 330.801 28.16C330.801 25.44 328.841 23.1 325.521 23.1C322.241 23.1 320.261 25.44 320.261 28.16C320.261 30.88 322.241 33.24 325.521 33.24ZM325.521 30.52C324.181 30.52 323.441 29.46 323.441 28.16C323.441 26.88 324.181 25.82 325.521 25.82C326.881 25.82 327.641 26.88 327.641 28.16C327.641 29.46 326.881 30.52 325.521 30.52ZM341.985 33V19.66H338.925V24.48C338.145 23.52 337.125 23.1 336.065 23.1C333.645 23.1 331.785 25 331.785 28.16C331.785 31.44 333.685 33.24 336.065 33.24C337.145 33.24 338.125 32.8 338.925 31.88V33H341.985ZM337.065 30.52C335.845 30.52 334.945 29.6 334.945 28.16C334.945 26.72 335.845 25.82 337.065 25.82C337.725 25.82 338.525 26.16 338.925 26.68V29.64C338.525 30.16 337.725 30.52 337.065 30.52ZM348.881 33.24C350.361 33.24 351.961 32.82 352.921 31.96L351.621 30.04C351.081 30.56 349.901 30.86 349.221 30.86C347.821 30.86 346.981 30.04 346.801 29.14H353.681V28.48C353.681 25.2 351.601 23.1 348.741 23.1C345.721 23.1 343.601 25.36 343.601 28.16C343.601 31.3 345.901 33.24 348.881 33.24ZM350.741 27.14H346.761C346.881 26.44 347.401 25.48 348.741 25.48C350.161 25.48 350.661 26.46 350.741 27.14ZM358.278 33V19.66H355.198V33H358.278Z" fill="white"/>
<path d="M380.567 30.4652L379.854 29.764L379.854 29.764L380.567 30.4652ZM380.496 30.4657L381.197 29.7527L381.197 29.7527L380.496 30.4657ZM388.185 24.1433L381.28 31.1663L379.854 29.764L386.759 22.741L388.185 24.1433ZM379.795 31.1788L372.772 24.273L374.174 22.8469L381.197 29.7527L379.795 31.1788ZM381.28 31.1663C380.873 31.5798 380.208 31.5854 379.795 31.1788L381.197 29.7527C380.823 29.3848 380.221 29.3899 379.854 29.764L381.28 31.1663Z" fill="white"/>
<path d="M351.896 125.2V123.22C349.711 123.059 348.002 122.296 346.77 120.932L348.2 118.952C349.212 120.037 350.444 120.69 351.896 120.91V116.664C351.207 116.488 350.635 116.319 350.18 116.158C349.725 115.982 349.249 115.74 348.75 115.432C348.251 115.109 347.87 114.699 347.606 114.2C347.357 113.687 347.232 113.085 347.232 112.396C347.232 111.267 347.657 110.306 348.508 109.514C349.359 108.722 350.488 108.267 351.896 108.15V106.104H353.656V108.172C355.431 108.363 356.905 109.023 358.078 110.152L356.604 112.066C355.797 111.274 354.815 110.761 353.656 110.526V114.31C354.199 114.457 354.661 114.596 355.042 114.728C355.423 114.86 355.841 115.051 356.296 115.3C356.765 115.535 357.139 115.799 357.418 116.092C357.697 116.371 357.931 116.737 358.122 117.192C358.313 117.647 358.408 118.16 358.408 118.732C358.408 119.935 358.005 120.954 357.198 121.79C356.406 122.611 355.225 123.088 353.656 123.22V125.2H351.896ZM355.262 120.206C355.614 119.839 355.79 119.429 355.79 118.974C355.79 118.519 355.607 118.153 355.24 117.874C354.873 117.581 354.345 117.331 353.656 117.126V120.932C354.375 120.815 354.91 120.573 355.262 120.206ZM349.872 112.22C349.872 112.924 350.547 113.467 351.896 113.848V110.416C351.265 110.475 350.767 110.673 350.4 111.01C350.048 111.333 349.872 111.736 349.872 112.22ZM366.118 123H363.544V111.67L361.146 114.156L359.65 112.594L363.874 108.326H366.118V123ZM373.75 123.264C372.503 123.264 371.396 123.044 370.428 122.604C369.474 122.164 368.734 121.592 368.206 120.888L369.592 119.194C370.061 119.737 370.662 120.169 371.396 120.492C372.129 120.815 372.884 120.976 373.662 120.976C374.615 120.976 375.363 120.778 375.906 120.382C376.448 119.971 376.72 119.421 376.72 118.732C376.72 117.353 375.634 116.664 373.464 116.664C372.481 116.664 371.916 116.671 371.77 116.686V114.376C371.946 114.391 372.51 114.398 373.464 114.398C374.373 114.398 375.099 114.237 375.642 113.914C376.199 113.591 376.478 113.107 376.478 112.462C376.478 111.802 376.199 111.296 375.642 110.944C375.084 110.577 374.373 110.394 373.508 110.394C372.07 110.394 370.809 110.937 369.724 112.022L368.404 110.416C369.709 108.876 371.491 108.106 373.75 108.106C375.348 108.106 376.632 108.465 377.6 109.184C378.568 109.888 379.052 110.849 379.052 112.066C379.052 112.975 378.729 113.731 378.084 114.332C377.453 114.919 376.712 115.285 375.862 115.432C376.698 115.505 377.475 115.857 378.194 116.488C378.912 117.119 379.272 117.955 379.272 118.996C379.272 120.257 378.766 121.284 377.754 122.076C376.756 122.868 375.422 123.264 373.75 123.264Z" fill="white"/>
<rect x="328" y="204" width="74" height="71" rx="6" fill="white" fill-opacity="0.05"/>
<rect x="328.5" y="204.5" width="73" height="70" rx="5.5" stroke="white" stroke-opacity="0.1"/>
<path d="M351.896 249.2V247.22C349.711 247.059 348.002 246.296 346.77 244.932L348.2 242.952C349.212 244.037 350.444 244.69 351.896 244.91V240.664C351.207 240.488 350.635 240.319 350.18 240.158C349.725 239.982 349.249 239.74 348.75 239.432C348.251 239.109 347.87 238.699 347.606 238.2C347.357 237.687 347.232 237.085 347.232 236.396C347.232 235.267 347.657 234.306 348.508 233.514C349.359 232.722 350.488 232.267 351.896 232.15V230.104H353.656V232.172C355.431 232.363 356.905 233.023 358.078 234.152L356.604 236.066C355.797 235.274 354.815 234.761 353.656 234.526V238.31C354.199 238.457 354.661 238.596 355.042 238.728C355.423 238.86 355.841 239.051 356.296 239.3C356.765 239.535 357.139 239.799 357.418 240.092C357.697 240.371 357.931 240.737 358.122 241.192C358.313 241.647 358.408 242.16 358.408 242.732C358.408 243.935 358.005 244.954 357.198 245.79C356.406 246.611 355.225 247.088 353.656 247.22V249.2H351.896ZM355.262 244.206C355.614 243.839 355.79 243.429 355.79 242.974C355.79 242.519 355.607 242.153 355.24 241.874C354.873 241.581 354.345 241.331 353.656 241.126V244.932C354.375 244.815 354.91 244.573 355.262 244.206ZM349.872 236.22C349.872 236.924 350.547 237.467 351.896 237.848V234.416C351.265 234.475 350.767 234.673 350.4 235.01C350.048 235.333 349.872 235.736 349.872 236.22ZM371.046 247H360.42V244.976C363.486 242.659 365.568 240.943 366.668 239.828C367.783 238.699 368.34 237.635 368.34 236.638C368.34 235.919 368.076 235.369 367.548 234.988C367.035 234.592 366.412 234.394 365.678 234.394C364.065 234.394 362.745 234.981 361.718 236.154L360.222 234.46C360.853 233.697 361.645 233.118 362.598 232.722C363.566 232.311 364.578 232.106 365.634 232.106C367.13 232.106 368.392 232.509 369.418 233.316C370.445 234.123 370.958 235.23 370.958 236.638C370.958 237.899 370.43 239.153 369.374 240.4C368.318 241.647 366.705 243.091 364.534 244.734H371.046V247ZM381.82 246.604C381.043 247.044 380.163 247.264 379.18 247.264C378.198 247.264 377.318 247.044 376.54 246.604C375.763 246.164 375.147 245.577 374.692 244.844C374.238 244.111 373.893 243.304 373.658 242.424C373.424 241.544 373.306 240.627 373.306 239.674C373.306 238.721 373.424 237.804 373.658 236.924C373.893 236.044 374.238 235.245 374.692 234.526C375.147 233.793 375.763 233.206 376.54 232.766C377.318 232.326 378.198 232.106 379.18 232.106C380.163 232.106 381.043 232.326 381.82 232.766C382.598 233.206 383.214 233.793 383.668 234.526C384.123 235.245 384.468 236.044 384.702 236.924C384.937 237.804 385.054 238.721 385.054 239.674C385.054 240.627 384.937 241.544 384.702 242.424C384.468 243.304 384.123 244.111 383.668 244.844C383.214 245.577 382.598 246.164 381.82 246.604ZM376.716 243.48C377.244 244.477 378.066 244.976 379.18 244.976C380.295 244.976 381.116 244.477 381.644 243.48C382.172 242.483 382.436 241.214 382.436 239.674C382.436 238.691 382.334 237.819 382.128 237.056C381.938 236.293 381.586 235.663 381.072 235.164C380.574 234.651 379.943 234.394 379.18 234.394C378.418 234.394 377.78 234.651 377.266 235.164C376.768 235.663 376.416 236.293 376.21 237.056C376.02 237.819 375.924 238.691 375.924 239.674C375.924 241.214 376.188 242.483 376.716 243.48Z" fill="white"/>
<rect x="328" y="328" width="74" height="71" rx="6" fill="white" fill-opacity="0.05"/>
<rect x="328.5" y="328.5" width="73" height="70" rx="5.5" stroke="white" stroke-opacity="0.1"/>
<path d="M351.896 373.2V371.22C349.711 371.059 348.002 370.296 346.77 368.932L348.2 366.952C349.212 368.037 350.444 368.69 351.896 368.91V364.664C351.207 364.488 350.635 364.319 350.18 364.158C349.725 363.982 349.249 363.74 348.75 363.432C348.251 363.109 347.87 362.699 347.606 362.2C347.357 361.687 347.232 361.085 347.232 360.396C347.232 359.267 347.657 358.306 348.508 357.514C349.359 356.722 350.488 356.267 351.896 356.15V354.104H353.656V356.172C355.431 356.363 356.905 357.023 358.078 358.152L356.604 360.066C355.797 359.274 354.815 358.761 353.656 358.526V362.31C354.199 362.457 354.661 362.596 355.042 362.728C355.423 362.86 355.841 363.051 356.296 363.3C356.765 363.535 357.139 363.799 357.418 364.092C357.697 364.371 357.931 364.737 358.122 365.192C358.313 365.647 358.408 366.16 358.408 366.732C358.408 367.935 358.005 368.954 357.198 369.79C356.406 370.611 355.225 371.088 353.656 371.22V373.2H351.896ZM355.262 368.206C355.614 367.839 355.79 367.429 355.79 366.974C355.79 366.519 355.607 366.153 355.24 365.874C354.873 365.581 354.345 365.331 353.656 365.126V368.932C354.375 368.815 354.91 368.573 355.262 368.206ZM349.872 360.22C349.872 360.924 350.547 361.467 351.896 361.848V358.416C351.265 358.475 350.767 358.673 350.4 359.01C350.048 359.333 349.872 359.736 349.872 360.22ZM366.118 371H363.544V359.67L361.146 362.156L359.65 360.594L363.874 356.326H366.118V371ZM374.63 371.264C373.588 371.264 372.672 371.066 371.88 370.67C371.088 370.259 370.457 369.702 369.988 368.998C369.518 368.294 369.166 367.502 368.932 366.622C368.697 365.727 368.58 364.752 368.58 363.696C368.58 361.481 369.144 359.663 370.274 358.24C371.403 356.817 372.994 356.106 375.048 356.106C376.749 356.106 378.157 356.649 379.272 357.734L378.062 359.692C377.24 358.827 376.236 358.394 375.048 358.394C373.874 358.394 372.936 358.863 372.232 359.802C371.528 360.741 371.176 361.885 371.176 363.234C371.176 363.425 371.183 363.564 371.198 363.652C371.564 363.109 372.107 362.633 372.826 362.222C373.544 361.811 374.314 361.606 375.136 361.606C376.529 361.606 377.695 362.024 378.634 362.86C379.572 363.681 380.042 364.84 380.042 366.336C380.042 367.729 379.543 368.903 378.546 369.856C377.548 370.795 376.243 371.264 374.63 371.264ZM374.498 368.976C375.407 368.976 376.126 368.719 376.654 368.206C377.182 367.678 377.446 367.084 377.446 366.424C377.446 365.573 377.16 364.928 376.588 364.488C376.016 364.033 375.297 363.806 374.432 363.806C373.816 363.806 373.222 363.967 372.65 364.29C372.078 364.598 371.601 365.016 371.22 365.544C371.308 366.483 371.616 367.289 372.144 367.964C372.672 368.639 373.456 368.976 374.498 368.976Z" fill="white"/>
</svg>
