<svg width="995" height="458" viewBox="0 0 995 458" fill="none" xmlns="http://www.w3.org/2000/svg">
<g filter="url(#filter0_i)">
<rect width="994" height="458" rx="10" fill="url(#paint0_radial)"/>
<rect width="994" height="458" rx="10" fill="url(#paint1_linear)"/>
</g>
<rect x="793" y="325" width="47" height="39" rx="10" fill="white" fill-opacity="0.05"/>
<rect x="793.5" y="325.5" width="46" height="38" rx="9.5" stroke="white" stroke-opacity="0.1"/>
<path d="M812.396 350H806.6V348.896C808.272 347.632 809.408 346.696 810.008 346.088C810.616 345.472 810.92 344.892 810.92 344.348C810.92 343.956 810.776 343.656 810.488 343.448C810.208 343.232 809.868 343.124 809.468 343.124C808.588 343.124 807.868 343.444 807.308 344.084L806.492 343.16C806.836 342.744 807.268 342.428 807.788 342.212C808.316 341.988 808.868 341.876 809.444 341.876C810.26 341.876 810.948 342.096 811.508 342.536C812.068 342.976 812.348 343.58 812.348 344.348C812.348 345.036 812.06 345.72 811.484 346.4C810.908 347.08 810.028 347.868 808.844 348.764H812.396V350ZM819.533 350H813.737V348.896C815.409 347.632 816.545 346.696 817.145 346.088C817.753 345.472 818.057 344.892 818.057 344.348C818.057 343.956 817.913 343.656 817.625 343.448C817.345 343.232 817.005 343.124 816.605 343.124C815.725 343.124 815.005 343.444 814.445 344.084L813.629 343.16C813.973 342.744 814.405 342.428 814.925 342.212C815.453 341.988 816.005 341.876 816.581 341.876C817.397 341.876 818.085 342.096 818.645 342.536C819.205 342.976 819.485 343.58 819.485 344.348C819.485 345.036 819.197 345.72 818.621 346.4C818.045 347.08 817.165 347.868 815.981 348.764H819.533V350ZM822.589 345.848C822.005 345.848 821.529 345.664 821.161 345.296C820.793 344.92 820.609 344.448 820.609 343.88C820.609 343.304 820.793 342.828 821.161 342.452C821.529 342.068 822.005 341.876 822.589 341.876C823.181 341.876 823.661 342.068 824.029 342.452C824.405 342.828 824.593 343.304 824.593 343.88C824.593 344.448 824.405 344.92 824.029 345.296C823.661 345.664 823.181 345.848 822.589 345.848ZM822.613 350H821.821L826.933 341.996H827.737L822.613 350ZM828.325 349.592C827.957 349.96 827.481 350.144 826.897 350.144C826.313 350.144 825.837 349.96 825.469 349.592C825.101 349.216 824.917 348.744 824.917 348.176C824.917 347.6 825.101 347.124 825.469 346.748C825.837 346.364 826.313 346.172 826.897 346.172C827.481 346.172 827.957 346.364 828.325 346.748C828.701 347.132 828.889 347.608 828.889 348.176C828.889 348.744 828.701 349.216 828.325 349.592ZM822.589 345.056C822.901 345.056 823.157 344.948 823.357 344.732C823.557 344.508 823.657 344.224 823.657 343.88C823.657 343.52 823.557 343.232 823.357 343.016C823.157 342.792 822.901 342.68 822.589 342.68C822.277 342.68 822.021 342.792 821.821 343.016C821.629 343.232 821.533 343.52 821.533 343.88C821.533 344.224 821.633 344.508 821.833 344.732C822.033 344.948 822.285 345.056 822.589 345.056ZM826.129 349.028C826.329 349.244 826.585 349.352 826.897 349.352C827.209 349.352 827.465 349.244 827.665 349.028C827.865 348.804 827.965 348.52 827.965 348.176C827.965 347.816 827.865 347.528 827.665 347.312C827.465 347.088 827.209 346.976 826.897 346.976C826.585 346.976 826.329 347.088 826.129 347.312C825.937 347.528 825.841 347.816 825.841 348.176C825.841 348.52 825.937 348.804 826.129 349.028Z" fill="white"/>
<rect x="561" y="89" width="92" height="39" rx="10" fill="white" fill-opacity="0.05"/>
<rect x="561.5" y="89.5" width="91" height="38" rx="9.5" stroke="white" stroke-opacity="0.1"/>
<rect x="451" y="89" width="92" height="39" rx="10" fill="white" fill-opacity="0.05"/>
<rect x="451.5" y="89.5" width="91" height="38" rx="9.5" stroke="white" stroke-opacity="0.1"/>
<path d="M194 360L323.513 252.16C325.175 250.776 327.538 250.618 329.37 251.767L406.148 299.954C407.963 301.093 410.303 300.948 411.965 299.594L520.339 211.243C522.934 209.128 526.835 210.111 528.117 213.203L577.091 331.291C578.593 334.914 583.491 335.475 585.774 332.287L631.75 268.097C632.628 266.871 634.011 266.107 635.515 266.017L749.077 259.189C750.822 259.084 752.385 258.075 753.2 256.529L775 215.16" stroke="#DA9BF0" stroke-opacity="0.7" stroke-width="6"/>
<path d="M192 265.622L352.481 341.464C353.225 341.816 354.045 341.978 354.867 341.937L444.509 337.451C445.352 337.409 446.171 337.154 446.89 336.709L531.578 284.311C532.369 283.822 533.28 283.563 534.209 283.563H703.501C705.279 283.563 706.924 282.618 707.82 281.081L779 159" stroke="#EF8E87" stroke-width="6"/>
<path d="M194 314.866L417.147 369.451C418.571 369.799 420.076 369.505 421.264 368.646L602.531 237.62C604.595 236.128 607.45 236.425 609.162 238.31L706.213 345.174C707.161 346.218 708.505 346.813 709.915 346.813H775" stroke="#F0D39B" stroke-opacity="0.7" stroke-width="6"/>
<path d="M417.224 39.192C419.576 39.192 420.92 37.896 421.688 36.568L419.736 35.624C419.288 36.504 418.328 37.176 417.224 37.176C415.288 37.176 413.88 35.688 413.88 33.672C413.88 31.656 415.288 30.168 417.224 30.168C418.328 30.168 419.288 30.856 419.736 31.72L421.688 30.76C420.936 29.432 419.576 28.152 417.224 28.152C414.024 28.152 411.544 30.392 411.544 33.672C411.544 36.952 414.024 39.192 417.224 39.192ZM430.256 39V33.512C430.256 32.008 429.44 31.08 427.744 31.08C426.48 31.08 425.52 31.688 425.024 32.28V28.328H422.992V39H425.024V33.8C425.376 33.336 426 32.888 426.784 32.888C427.664 32.888 428.224 33.224 428.224 34.296V39H430.256ZM438.946 39V34.008C438.946 31.784 437.33 31.08 435.57 31.08C434.354 31.08 433.138 31.464 432.194 32.296L432.962 33.656C433.618 33.048 434.386 32.744 435.218 32.744C436.242 32.744 436.914 33.256 436.914 34.04V35.08C436.402 34.472 435.49 34.136 434.466 34.136C433.234 34.136 431.778 34.824 431.778 36.632C431.778 38.36 433.234 39.192 434.466 39.192C435.474 39.192 436.386 38.824 436.914 38.2V39H438.946ZM435.282 37.816C434.482 37.816 433.826 37.4 433.826 36.68C433.826 35.928 434.482 35.512 435.282 35.512C435.938 35.512 436.578 35.736 436.914 36.184V37.144C436.578 37.592 435.938 37.816 435.282 37.816ZM448.209 39V33.544C448.209 32.04 447.393 31.08 445.697 31.08C444.433 31.08 443.489 31.688 442.993 32.28V31.272H440.961V39H442.993V33.8C443.329 33.336 443.953 32.888 444.753 32.888C445.617 32.888 446.177 33.256 446.177 34.328V39H448.209ZM457.475 39V33.544C457.475 32.04 456.659 31.08 454.963 31.08C453.699 31.08 452.755 31.688 452.259 32.28V31.272H450.227V39H452.259V33.8C452.595 33.336 453.219 32.888 454.019 32.888C454.883 32.888 455.443 33.256 455.443 34.328V39H457.475ZM463.124 39.192C464.324 39.192 465.54 38.824 466.308 38.12L465.412 36.808C464.916 37.288 464.004 37.576 463.348 37.576C462.036 37.576 461.252 36.76 461.124 35.784H466.868V35.336C466.868 32.808 465.3 31.08 462.996 31.08C460.644 31.08 458.996 32.888 458.996 35.128C458.996 37.608 460.772 39.192 463.124 39.192ZM464.9 34.408H461.092C461.188 33.64 461.732 32.696 462.996 32.696C464.34 32.696 464.852 33.672 464.9 34.408ZM470.368 39V28.328H468.336V39H470.368ZM480.317 39.192C483.197 39.192 484.589 37.72 484.589 35.768C484.589 31.784 478.461 32.92 478.461 31.224C478.461 30.584 479.005 30.152 479.981 30.152C481.069 30.152 482.221 30.52 483.085 31.32L484.349 29.656C483.293 28.68 481.885 28.168 480.189 28.168C477.677 28.168 476.141 29.64 476.141 31.416C476.141 35.432 482.285 34.136 482.285 36.024C482.285 36.632 481.677 37.208 480.429 37.208C478.957 37.208 477.789 36.552 477.037 35.768L475.805 37.496C476.797 38.504 478.269 39.192 480.317 39.192ZM493.319 39V31.272H491.287V36.504C490.935 36.952 490.311 37.384 489.527 37.384C488.663 37.384 488.103 37.032 488.103 35.96V31.272H486.071V36.76C486.071 38.264 486.871 39.192 488.567 39.192C489.831 39.192 490.759 38.616 491.287 38.024V39H493.319ZM498.936 39.192C500.52 39.192 501.48 38.504 501.992 37.784L500.664 36.552C500.296 37.064 499.736 37.384 499.032 37.384C497.8 37.384 496.936 36.472 496.936 35.128C496.936 33.784 497.8 32.888 499.032 32.888C499.736 32.888 500.296 33.176 500.664 33.72L501.992 32.472C501.48 31.768 500.52 31.08 498.936 31.08C496.552 31.08 494.84 32.76 494.84 35.128C494.84 37.512 496.552 39.192 498.936 39.192ZM506.921 39.192C508.505 39.192 509.465 38.504 509.977 37.784L508.649 36.552C508.281 37.064 507.721 37.384 507.016 37.384C505.785 37.384 504.921 36.472 504.921 35.128C504.921 33.784 505.785 32.888 507.016 32.888C507.721 32.888 508.281 33.176 508.649 33.72L509.977 32.472C509.465 31.768 508.505 31.08 506.921 31.08C504.537 31.08 502.825 32.76 502.825 35.128C502.825 37.512 504.537 39.192 506.921 39.192ZM514.937 39.192C516.137 39.192 517.353 38.824 518.121 38.12L517.225 36.808C516.729 37.288 515.817 37.576 515.161 37.576C513.849 37.576 513.065 36.76 512.937 35.784H518.681V35.336C518.681 32.808 517.113 31.08 514.809 31.08C512.457 31.08 510.809 32.888 510.809 35.128C510.809 37.608 512.585 39.192 514.937 39.192ZM516.713 34.408H512.905C513.001 33.64 513.545 32.696 514.809 32.696C516.153 32.696 516.665 33.672 516.713 34.408ZM522.933 39.192C525.077 39.192 526.277 38.12 526.277 36.712C526.277 33.592 521.701 34.552 521.701 33.4C521.701 32.968 522.181 32.632 522.917 32.632C523.861 32.632 524.741 33.032 525.205 33.528L526.021 32.136C525.253 31.528 524.213 31.08 522.901 31.08C520.869 31.08 519.733 32.216 519.733 33.512C519.733 36.552 524.325 35.512 524.325 36.792C524.325 37.272 523.909 37.624 523.029 37.624C522.069 37.624 520.917 37.096 520.357 36.568L519.477 37.992C520.293 38.744 521.589 39.192 522.933 39.192ZM530.558 39.192C532.702 39.192 533.902 38.12 533.902 36.712C533.902 33.592 529.326 34.552 529.326 33.4C529.326 32.968 529.806 32.632 530.542 32.632C531.486 32.632 532.366 33.032 532.83 33.528L533.646 32.136C532.878 31.528 531.838 31.08 530.526 31.08C528.494 31.08 527.358 32.216 527.358 33.512C527.358 36.552 531.95 35.512 531.95 36.792C531.95 37.272 531.534 37.624 530.654 37.624C529.694 37.624 528.542 37.096 527.982 36.568L527.102 37.992C527.918 38.744 529.214 39.192 530.558 39.192ZM543.332 39.192C546.212 39.192 547.604 37.72 547.604 35.768C547.604 31.784 541.476 32.92 541.476 31.224C541.476 30.584 542.02 30.152 542.996 30.152C544.084 30.152 545.236 30.52 546.1 31.32L547.364 29.656C546.308 28.68 544.9 28.168 543.204 28.168C540.692 28.168 539.156 29.64 539.156 31.416C539.156 35.432 545.3 34.136 545.3 36.024C545.3 36.632 544.692 37.208 543.444 37.208C541.972 37.208 540.804 36.552 540.052 35.768L538.82 37.496C539.812 38.504 541.284 39.192 543.332 39.192ZM552.686 39.192C554.27 39.192 555.23 38.504 555.742 37.784L554.414 36.552C554.046 37.064 553.486 37.384 552.782 37.384C551.55 37.384 550.686 36.472 550.686 35.128C550.686 33.784 551.55 32.888 552.782 32.888C553.486 32.888 554.046 33.176 554.414 33.72L555.742 32.472C555.23 31.768 554.27 31.08 552.686 31.08C550.302 31.08 548.59 32.76 548.59 35.128C548.59 37.512 550.302 39.192 552.686 39.192ZM560.655 39.192C563.215 39.192 564.751 37.336 564.751 35.128C564.751 32.936 563.215 31.08 560.655 31.08C558.111 31.08 556.575 32.936 556.575 35.128C556.575 37.336 558.111 39.192 560.655 39.192ZM560.655 37.384C559.391 37.384 558.687 36.344 558.687 35.128C558.687 33.928 559.391 32.888 560.655 32.888C561.919 32.888 562.639 33.928 562.639 35.128C562.639 36.344 561.919 37.384 560.655 37.384ZM568.29 39V33.896C568.626 33.4 569.522 33.016 570.194 33.016C570.418 33.016 570.61 33.032 570.754 33.064V31.08C569.794 31.08 568.834 31.64 568.29 32.328V31.272H566.258V39H568.29ZM575.656 39.192C576.856 39.192 578.072 38.824 578.84 38.12L577.944 36.808C577.448 37.288 576.536 37.576 575.88 37.576C574.568 37.576 573.784 36.76 573.656 35.784H579.4V35.336C579.4 32.808 577.832 31.08 575.528 31.08C573.176 31.08 571.528 32.888 571.528 35.128C571.528 37.608 573.304 39.192 575.656 39.192ZM577.432 34.408H573.624C573.72 33.64 574.264 32.696 575.528 32.696C576.872 32.696 577.384 33.672 577.432 34.408Z" fill="white"/>
<circle cx="34.226" cy="31.1908" r="1.5" stroke="white" stroke-width="2.62382"/>
<path fill-rule="evenodd" clip-rule="evenodd" d="M34.3561 32.5703C35.0731 32.5702 35.6691 32.0272 35.7896 31.3125C39.1534 32.2307 41.6362 35.4337 41.6362 39.244C41.6362 43.4595 38.5972 46.9317 34.6884 47.3889C35.13 47.2489 35.4501 46.8357 35.4501 46.3477C35.4501 45.9023 35.1834 45.5192 34.801 45.3493C37.4893 44.8535 39.6362 42.377 39.6362 39.244C39.6362 35.9399 37.2485 33.3659 34.3561 33.0754V32.5703ZM33.2673 46.2963H29.8203C30.9886 47.0228 32.3529 47.4399 33.8101 47.4399C33.9436 47.4399 34.0762 47.4364 34.208 47.4295C33.6759 47.3564 33.2661 46.8999 33.2661 46.3477C33.2661 46.3305 33.2665 46.3133 33.2673 46.2963Z" fill="white"/>
<path fill-rule="evenodd" clip-rule="evenodd" d="M33.7533 16.3206C33.4583 16.1251 33.2637 15.7901 33.2637 15.4097C33.2637 14.8626 33.666 14.4095 34.191 14.33C34.0649 14.3236 33.938 14.3203 33.8104 14.3203C29.4882 14.3203 25.9844 18.0694 25.9844 22.6942C25.9844 26.9898 29.0073 30.53 32.901 31.0121C32.9281 30.1772 33.5692 29.5092 34.3561 29.5092H34.3566V29.0397C34.1761 29.0585 33.9939 29.0681 33.8104 29.0681C30.7181 29.0681 27.9844 26.344 27.9844 22.6942C27.9844 19.0669 30.6845 16.3539 33.7533 16.3206ZM34.7035 14.3742C35.0392 14.487 35.3021 14.7584 35.403 15.0993H37.1111C36.365 14.7274 35.555 14.4777 34.7035 14.3742Z" fill="white"/>
<circle cx="34.226" cy="46.1869" r="1.81191" stroke="white" stroke-width="2"/>
<circle cx="18.9653" cy="31.1215" r="1.96529" stroke="white" stroke-width="2"/>
<circle cx="34.4522" cy="15.6358" r="1.63581" stroke="white" stroke-width="2"/>
<circle cx="49.2221" cy="31.1908" r="1.81191" stroke="white" stroke-width="2"/>
<path fill-rule="evenodd" clip-rule="evenodd" d="M40.3727 16.3242H34.9639C35.2564 16.1283 35.449 15.7948 35.449 15.4162C35.449 14.8131 34.9601 14.3242 34.357 14.3242H40.3727C45.8955 14.3242 50.3727 18.8014 50.3727 24.3242V31.0259C50.3516 30.4414 49.8711 29.974 49.2814 29.974C48.9024 29.974 48.5685 30.1671 48.3727 30.4603V24.3242C48.3727 19.9059 44.791 16.3242 40.3727 16.3242ZM19.9766 30.4579V24.3242C19.9766 19.9059 23.5583 16.3242 27.9766 16.3242H33.7502C33.4576 16.1283 33.265 15.7948 33.265 15.4162C33.265 14.8131 33.7539 14.3242 34.357 14.3242H27.9766C22.4537 14.3242 17.9766 18.8014 17.9766 24.3242V31.0551C17.9817 30.4565 18.4686 29.9727 19.0685 29.9727C19.4471 29.9727 19.7807 30.1654 19.9766 30.4579ZM19.9766 31.6715C19.7807 31.9641 19.4471 32.1567 19.0685 32.1567C18.4686 32.1567 17.9817 31.673 17.9766 31.0743V37.4483C17.9766 42.9712 22.4537 47.4483 27.9766 47.4483H40.3727C45.8955 47.4483 50.3727 42.9712 50.3727 37.4483V31.1062C50.3516 31.6907 49.8711 32.1581 49.2814 32.1581C48.9024 32.1581 48.5685 31.965 48.3727 31.6718V37.4483C48.3727 41.8666 44.791 45.4483 40.3727 45.4483H34.9647C35.2567 45.6443 35.449 45.9776 35.449 46.3558C35.449 46.9589 34.9601 47.4478 34.357 47.4478C33.7539 47.4478 33.265 46.9589 33.265 46.3558C33.265 45.9776 33.4572 45.6443 33.7493 45.4483H27.9766C23.5583 45.4483 19.9766 41.8666 19.9766 37.4483V31.6715Z" fill="white"/>
<line x1="-0.000251256" y1="62.75" x2="995" y2="61.75" stroke="#B8B8B8" stroke-width="0.5"/>
<path d="M893.704 39.192C896.584 39.192 897.64 37.608 897.64 36.056C897.64 32.072 891.32 33.448 891.32 31.048C891.32 30.04 892.232 29.352 893.512 29.352C894.68 29.352 895.8 29.752 896.6 30.632L897.4 29.656C896.504 28.712 895.24 28.168 893.608 28.168C891.512 28.168 889.944 29.368 889.944 31.128C889.944 34.936 896.264 33.416 896.264 36.168C896.264 36.984 895.656 38.008 893.752 38.008C892.248 38.008 891.096 37.272 890.392 36.488L889.608 37.496C890.488 38.488 891.848 39.192 893.704 39.192ZM905.607 39V33.688C905.607 31.816 904.247 31.08 902.615 31.08C901.351 31.08 900.359 31.496 899.527 32.36L900.087 33.192C900.775 32.456 901.527 32.12 902.455 32.12C903.575 32.12 904.407 32.712 904.407 33.752V35.144C903.783 34.424 902.903 34.088 901.847 34.088C900.535 34.088 899.143 34.904 899.143 36.632C899.143 38.312 900.535 39.192 901.847 39.192C902.887 39.192 903.767 38.824 904.407 38.12V39H905.607ZM902.279 38.328C901.159 38.328 900.375 37.624 900.375 36.648C900.375 35.656 901.159 34.952 902.279 34.952C903.127 34.952 903.943 35.272 904.407 35.912V37.368C903.943 38.008 903.127 38.328 902.279 38.328ZM918.541 39V33.416C918.541 31.864 917.789 31.08 916.381 31.08C915.26 31.08 914.221 31.816 913.789 32.52C913.565 31.72 912.893 31.08 911.709 31.08C910.573 31.08 909.533 31.896 909.213 32.392V31.272H908.013V39H909.213V33.352C909.629 32.728 910.461 32.152 911.245 32.152C912.253 32.152 912.669 32.776 912.669 33.752V39H913.869V33.336C914.269 32.728 915.117 32.152 915.917 32.152C916.909 32.152 917.341 32.776 917.341 33.752V39H918.541ZM923.382 39.192C925.382 39.192 926.422 38.152 926.422 36.856C926.422 33.848 921.638 34.968 921.638 33.272C921.638 32.584 922.294 32.056 923.35 32.056C924.342 32.056 925.19 32.472 925.654 33.032L926.214 32.2C925.59 31.576 924.662 31.08 923.35 31.08C921.51 31.08 920.47 32.104 920.47 33.304C920.47 36.168 925.254 35.016 925.254 36.888C925.254 37.656 924.614 38.216 923.43 38.216C922.374 38.216 921.398 37.704 920.886 37.112L920.262 37.976C921.046 38.808 922.118 39.192 923.382 39.192ZM934.404 39V33.688C934.404 31.816 933.044 31.08 931.412 31.08C930.148 31.08 929.156 31.496 928.324 32.36L928.884 33.192C929.572 32.456 930.324 32.12 931.252 32.12C932.372 32.12 933.204 32.712 933.204 33.752V35.144C932.58 34.424 931.7 34.088 930.644 34.088C929.332 34.088 927.94 34.904 927.94 36.632C927.94 38.312 929.332 39.192 930.644 39.192C931.684 39.192 932.564 38.824 933.204 38.12V39H934.404ZM931.076 38.328C929.956 38.328 929.172 37.624 929.172 36.648C929.172 35.656 929.956 34.952 931.076 34.952C931.924 34.952 932.74 35.272 933.204 35.912V37.368C932.74 38.008 931.924 38.328 931.076 38.328ZM943.225 39V33.576C943.225 31.896 942.377 31.08 940.761 31.08C939.609 31.08 938.553 31.752 938.009 32.392V31.272H936.809V39H938.009V33.352C938.457 32.728 939.353 32.152 940.297 32.152C941.337 32.152 942.025 32.584 942.025 33.944V39H943.225ZM953.763 39V29.512H957.155V28.328H949.059V29.512H952.435V39H953.763ZM960.516 39.192C961.78 39.192 962.82 38.776 963.588 38.008L963.012 37.224C962.404 37.848 961.508 38.2 960.628 38.2C958.964 38.2 957.94 36.984 957.844 35.528H964.1V35.224C964.1 32.904 962.724 31.08 960.388 31.08C958.18 31.08 956.58 32.888 956.58 35.128C956.58 37.544 958.228 39.192 960.516 39.192ZM962.916 34.648H957.844C957.908 33.464 958.724 32.072 960.372 32.072C962.132 32.072 962.9 33.496 962.916 34.648ZM969.452 39.192C970.86 39.192 971.692 38.616 972.284 37.848L971.484 37.112C970.972 37.8 970.316 38.12 969.516 38.12C967.868 38.12 966.844 36.84 966.844 35.128C966.844 33.416 967.868 32.152 969.516 32.152C970.316 32.152 970.972 32.456 971.484 33.16L972.284 32.424C971.692 31.656 970.86 31.08 969.452 31.08C967.148 31.08 965.596 32.84 965.596 35.128C965.596 37.432 967.148 39.192 969.452 39.192ZM980.398 39V33.544C980.398 31.864 979.55 31.08 977.934 31.08C976.766 31.08 975.71 31.752 975.166 32.392V28.328H973.966V39H975.166V33.352C975.63 32.728 976.526 32.152 977.454 32.152C978.494 32.152 979.198 32.552 979.198 33.912V39H980.398Z" fill="white"/>
<ellipse cx="867.5" cy="34.0345" rx="13.5" ry="13.0345" fill="#363636"/>
<path d="M868.093 39.9147C866.258 39.9147 864.813 39.3493 863.757 38.2187L864.797 36.7787C865.714 37.76 866.839 38.2507 868.173 38.2507C868.887 38.2507 869.421 38.1067 869.773 37.8187C870.135 37.5307 870.317 37.1893 870.317 36.7947C870.317 36.3893 870.103 36.0693 869.677 35.8347C869.25 35.5893 868.733 35.3973 868.125 35.2587C867.517 35.12 866.903 34.9547 866.285 34.7627C865.677 34.5707 865.159 34.2453 864.733 33.7867C864.306 33.328 864.093 32.736 864.093 32.0107C864.093 31.1147 864.45 30.3733 865.165 29.7867C865.89 29.1893 866.829 28.8907 867.981 28.8907C869.623 28.8907 870.957 29.3867 871.981 30.3787L870.909 31.7707C870.098 30.96 869.069 30.5547 867.821 30.5547C867.266 30.5547 866.823 30.6773 866.493 30.9227C866.173 31.1573 866.013 31.4773 866.013 31.8827C866.013 32.1493 866.125 32.3733 866.349 32.5547C866.583 32.736 866.882 32.8853 867.245 33.0027C867.607 33.1093 868.007 33.216 868.445 33.3227C868.893 33.4293 869.335 33.5627 869.773 33.7227C870.221 33.872 870.626 34.0587 870.989 34.2827C871.351 34.5067 871.645 34.816 871.869 35.2107C872.103 35.6053 872.221 36.0747 872.221 36.6187C872.221 37.5787 871.874 38.368 871.181 38.9867C870.487 39.6053 869.458 39.9147 868.093 39.9147Z" fill="white"/>
<path d="M596.456 112V110.5H592.496V108.688H596.372V107.188H592.496V105.496H596.456V103.996H590.792V112H596.456ZM606.476 112V107.812C606.476 106.624 605.84 106.06 604.772 106.06C603.884 106.06 603.116 106.588 602.78 107.116C602.564 106.456 602.024 106.06 601.172 106.06C600.284 106.06 599.516 106.612 599.276 106.96V106.204H597.752V112H599.276V108.1C599.504 107.776 599.948 107.416 600.476 107.416C601.1 107.416 601.34 107.8 601.34 108.34V112H602.876V108.088C603.092 107.776 603.536 107.416 604.076 107.416C604.7 107.416 604.94 107.8 604.94 108.34V112H606.476ZM612.975 112V108.256C612.975 106.588 611.763 106.06 610.443 106.06C609.531 106.06 608.619 106.348 607.911 106.972L608.487 107.992C608.979 107.536 609.555 107.308 610.179 107.308C610.947 107.308 611.451 107.692 611.451 108.28V109.06C611.067 108.604 610.383 108.352 609.615 108.352C608.691 108.352 607.599 108.868 607.599 110.224C607.599 111.52 608.691 112.144 609.615 112.144C610.371 112.144 611.055 111.868 611.451 111.4V112H612.975ZM610.227 111.112C609.627 111.112 609.135 110.8 609.135 110.26C609.135 109.696 609.627 109.384 610.227 109.384C610.719 109.384 611.199 109.552 611.451 109.888V110.608C611.199 110.944 610.719 111.112 610.227 111.112ZM615.242 105.58C615.746 105.58 616.154 105.172 616.154 104.668C616.154 104.164 615.746 103.768 615.242 103.768C614.75 103.768 614.33 104.164 614.33 104.668C614.33 105.172 614.75 105.58 615.242 105.58ZM616.01 112V106.204H614.486V112H616.01ZM619.046 112V103.996H617.522V112H619.046Z" fill="#DA9BF0"/>
<path d="M468.668 112.156C470.12 112.156 471.26 111.556 472.076 110.644V107.572H468.26V109.06H470.372V110.02C470.048 110.32 469.376 110.632 468.668 110.632C467.216 110.632 466.16 109.516 466.16 108.004C466.16 106.492 467.216 105.376 468.668 105.376C469.52 105.376 470.204 105.856 470.564 106.42L471.98 105.652C471.38 104.704 470.336 103.864 468.668 103.864C466.328 103.864 464.408 105.472 464.408 108.004C464.408 110.524 466.328 112.156 468.668 112.156ZM476.081 112.144C478.001 112.144 479.153 110.752 479.153 109.096C479.153 107.452 478.001 106.06 476.081 106.06C474.173 106.06 473.021 107.452 473.021 109.096C473.021 110.752 474.173 112.144 476.081 112.144ZM476.081 110.788C475.133 110.788 474.605 110.008 474.605 109.096C474.605 108.196 475.133 107.416 476.081 107.416C477.029 107.416 477.569 108.196 477.569 109.096C477.569 110.008 477.029 110.788 476.081 110.788ZM482.971 112.144C484.891 112.144 486.043 110.752 486.043 109.096C486.043 107.452 484.891 106.06 482.971 106.06C481.063 106.06 479.911 107.452 479.911 109.096C479.911 110.752 481.063 112.144 482.971 112.144ZM482.971 110.788C482.023 110.788 481.495 110.008 481.495 109.096C481.495 108.196 482.023 107.416 482.971 107.416C483.919 107.416 484.459 108.196 484.459 109.096C484.459 110.008 483.919 110.788 482.971 110.788ZM489.55 114.352C490.978 114.352 492.682 113.812 492.682 111.604V106.204H491.146V106.948C490.678 106.36 490.054 106.06 489.358 106.06C487.894 106.06 486.802 107.116 486.802 109.012C486.802 110.944 487.906 111.964 489.358 111.964C490.066 111.964 490.69 111.628 491.146 111.052V111.64C491.146 112.78 490.282 113.104 489.55 113.104C488.818 113.104 488.206 112.9 487.738 112.384L487.054 113.488C487.786 114.124 488.554 114.352 489.55 114.352ZM489.838 110.608C488.974 110.608 488.374 110.008 488.374 109.012C488.374 108.016 488.974 107.416 489.838 107.416C490.342 107.416 490.894 107.692 491.146 108.076V109.948C490.894 110.32 490.342 110.608 489.838 110.608ZM495.718 112V103.996H494.194V112H495.718ZM499.953 112.144C500.853 112.144 501.765 111.868 502.341 111.34L501.669 110.356C501.297 110.716 500.613 110.932 500.121 110.932C499.137 110.932 498.549 110.32 498.453 109.588H502.761V109.252C502.761 107.356 501.585 106.06 499.857 106.06C498.093 106.06 496.857 107.416 496.857 109.096C496.857 110.956 498.189 112.144 499.953 112.144ZM501.285 108.556H498.429C498.501 107.98 498.909 107.272 499.857 107.272C500.865 107.272 501.249 108.004 501.285 108.556ZM514.432 112L511.348 103.996H509.212L506.116 112H508.06L508.564 110.644H511.996L512.488 112H514.432ZM511.528 109.144H509.032L510.28 105.7L511.528 109.144ZM520.655 112V103.996H519.119V106.948C518.663 106.36 518.015 106.06 517.331 106.06C515.855 106.06 514.763 107.212 514.763 109.108C514.763 111.04 515.867 112.144 517.331 112.144C518.027 112.144 518.663 111.832 519.119 111.256V112H520.655ZM517.799 110.788C516.935 110.788 516.335 110.104 516.335 109.108C516.335 108.1 516.935 107.416 517.799 107.416C518.315 107.416 518.867 107.692 519.119 108.076V110.128C518.867 110.512 518.315 110.788 517.799 110.788ZM524.254 112.144C525.862 112.144 526.762 111.34 526.762 110.284C526.762 107.944 523.33 108.664 523.33 107.8C523.33 107.476 523.69 107.224 524.242 107.224C524.95 107.224 525.61 107.524 525.958 107.896L526.57 106.852C525.994 106.396 525.214 106.06 524.23 106.06C522.706 106.06 521.854 106.912 521.854 107.884C521.854 110.164 525.298 109.384 525.298 110.344C525.298 110.704 524.986 110.968 524.326 110.968C523.606 110.968 522.742 110.572 522.322 110.176L521.662 111.244C522.274 111.808 523.246 112.144 524.254 112.144Z" fill="#EF8E87"/>
<rect x="341" y="89" width="92" height="39" rx="10" fill="white" fill-opacity="0.05"/>
<rect x="341.5" y="89.5" width="91" height="38" rx="9.5" stroke="white" stroke-opacity="0.1"/>
<path d="M350.496 112V108.688H354.372V107.188H350.496V105.496H354.456V103.996H348.792V112H350.496ZM360.615 112V108.256C360.615 106.588 359.403 106.06 358.083 106.06C357.171 106.06 356.259 106.348 355.551 106.972L356.127 107.992C356.619 107.536 357.195 107.308 357.819 107.308C358.587 107.308 359.091 107.692 359.091 108.28V109.06C358.707 108.604 358.023 108.352 357.255 108.352C356.331 108.352 355.239 108.868 355.239 110.224C355.239 111.52 356.331 112.144 357.255 112.144C358.011 112.144 358.695 111.868 359.091 111.4V112H360.615ZM357.867 111.112C357.267 111.112 356.775 110.8 356.775 110.26C356.775 109.696 357.267 109.384 357.867 109.384C358.359 109.384 358.839 109.552 359.091 109.888V110.608C358.839 110.944 358.359 111.112 357.867 111.112ZM364.827 112.144C366.015 112.144 366.735 111.628 367.119 111.088L366.123 110.164C365.847 110.548 365.427 110.788 364.899 110.788C363.975 110.788 363.327 110.104 363.327 109.096C363.327 108.088 363.975 107.416 364.899 107.416C365.427 107.416 365.847 107.632 366.123 108.04L367.119 107.104C366.735 106.576 366.015 106.06 364.827 106.06C363.039 106.06 361.755 107.32 361.755 109.096C361.755 110.884 363.039 112.144 364.827 112.144ZM370.839 112.144C371.739 112.144 372.651 111.868 373.227 111.34L372.555 110.356C372.183 110.716 371.499 110.932 371.007 110.932C370.023 110.932 369.435 110.32 369.339 109.588H373.647V109.252C373.647 107.356 372.471 106.06 370.743 106.06C368.979 106.06 367.743 107.416 367.743 109.096C367.743 110.956 369.075 112.144 370.839 112.144ZM372.171 108.556H369.315C369.387 107.98 369.795 107.272 370.743 107.272C371.751 107.272 372.135 108.004 372.171 108.556ZM376.272 110.14V108.088C376.524 107.704 377.088 107.416 377.58 107.416C378.468 107.416 379.056 108.1 379.056 109.108C379.056 110.116 378.468 110.788 377.58 110.788C377.088 110.788 376.524 110.512 376.272 110.14ZM376.272 112V111.256C376.728 111.832 377.364 112.144 378.06 112.144C379.524 112.144 380.628 111.04 380.628 109.108C380.628 107.212 379.536 106.06 378.06 106.06C377.376 106.06 376.728 106.36 376.272 106.948V103.996H374.748V112H376.272ZM384.467 112.144C386.387 112.144 387.539 110.752 387.539 109.096C387.539 107.452 386.387 106.06 384.467 106.06C382.559 106.06 381.407 107.452 381.407 109.096C381.407 110.752 382.559 112.144 384.467 112.144ZM384.467 110.788C383.519 110.788 382.991 110.008 382.991 109.096C382.991 108.196 383.519 107.416 384.467 107.416C385.415 107.416 385.955 108.196 385.955 109.096C385.955 110.008 385.415 110.788 384.467 110.788ZM391.358 112.144C393.278 112.144 394.43 110.752 394.43 109.096C394.43 107.452 393.278 106.06 391.358 106.06C389.45 106.06 388.298 107.452 388.298 109.096C388.298 110.752 389.45 112.144 391.358 112.144ZM391.358 110.788C390.41 110.788 389.882 110.008 389.882 109.096C389.882 108.196 390.41 107.416 391.358 107.416C392.306 107.416 392.846 108.196 392.846 109.096C392.846 110.008 392.306 110.788 391.358 110.788ZM401.225 112L398.861 108.832L401.153 106.204H399.281L397.085 108.784V103.996H395.561V112H397.085V110.512L397.781 109.768L399.317 112H401.225ZM412.553 112L409.469 103.996H407.333L404.237 112H406.181L406.685 110.644H410.117L410.609 112H412.553ZM409.649 109.144H407.153L408.401 105.7L409.649 109.144ZM418.776 112V103.996H417.24V106.948C416.784 106.36 416.136 106.06 415.452 106.06C413.976 106.06 412.884 107.212 412.884 109.108C412.884 111.04 413.988 112.144 415.452 112.144C416.148 112.144 416.784 111.832 417.24 111.256V112H418.776ZM415.92 110.788C415.056 110.788 414.456 110.104 414.456 109.108C414.456 108.1 415.056 107.416 415.92 107.416C416.436 107.416 416.988 107.692 417.24 108.076V110.128C416.988 110.512 416.436 110.788 415.92 110.788ZM422.375 112.144C423.983 112.144 424.883 111.34 424.883 110.284C424.883 107.944 421.451 108.664 421.451 107.8C421.451 107.476 421.811 107.224 422.363 107.224C423.071 107.224 423.731 107.524 424.079 107.896L424.691 106.852C424.115 106.396 423.335 106.06 422.351 106.06C420.827 106.06 419.975 106.912 419.975 107.884C419.975 110.164 423.419 109.384 423.419 110.344C423.419 110.704 423.107 110.968 422.447 110.968C421.727 110.968 420.863 110.572 420.443 110.176L419.783 111.244C420.395 111.808 421.367 112.144 422.375 112.144Z" fill="#F0D39B"/>
<rect x="793" y="139" width="47" height="39" rx="10" fill="white" fill-opacity="0.05"/>
<rect x="793.5" y="139.5" width="46" height="38" rx="9.5" stroke="white" stroke-opacity="0.1"/>
<path d="M810.556 163H809.152V161.188H805.336V160.06L808.624 154.996H810.556V159.952H811.624V161.188H810.556V163ZM809.152 159.952V156.256L806.716 159.952H809.152ZM818.357 163H812.561V161.896C814.233 160.632 815.369 159.696 815.969 159.088C816.577 158.472 816.881 157.892 816.881 157.348C816.881 156.956 816.737 156.656 816.449 156.448C816.169 156.232 815.829 156.124 815.429 156.124C814.549 156.124 813.829 156.444 813.269 157.084L812.453 156.16C812.797 155.744 813.229 155.428 813.749 155.212C814.277 154.988 814.829 154.876 815.405 154.876C816.221 154.876 816.909 155.096 817.469 155.536C818.029 155.976 818.309 156.58 818.309 157.348C818.309 158.036 818.021 158.72 817.445 159.4C816.869 160.08 815.989 160.868 814.805 161.764H818.357V163ZM821.414 158.848C820.83 158.848 820.354 158.664 819.986 158.296C819.618 157.92 819.434 157.448 819.434 156.88C819.434 156.304 819.618 155.828 819.986 155.452C820.354 155.068 820.83 154.876 821.414 154.876C822.006 154.876 822.486 155.068 822.854 155.452C823.23 155.828 823.418 156.304 823.418 156.88C823.418 157.448 823.23 157.92 822.854 158.296C822.486 158.664 822.006 158.848 821.414 158.848ZM821.438 163H820.646L825.758 154.996H826.562L821.438 163ZM827.15 162.592C826.782 162.96 826.306 163.144 825.722 163.144C825.138 163.144 824.662 162.96 824.294 162.592C823.926 162.216 823.742 161.744 823.742 161.176C823.742 160.6 823.926 160.124 824.294 159.748C824.662 159.364 825.138 159.172 825.722 159.172C826.306 159.172 826.782 159.364 827.15 159.748C827.526 160.132 827.714 160.608 827.714 161.176C827.714 161.744 827.526 162.216 827.15 162.592ZM821.414 158.056C821.726 158.056 821.982 157.948 822.182 157.732C822.382 157.508 822.482 157.224 822.482 156.88C822.482 156.52 822.382 156.232 822.182 156.016C821.982 155.792 821.726 155.68 821.414 155.68C821.102 155.68 820.846 155.792 820.646 156.016C820.454 156.232 820.358 156.52 820.358 156.88C820.358 157.224 820.458 157.508 820.658 157.732C820.858 157.948 821.11 158.056 821.414 158.056ZM824.954 162.028C825.154 162.244 825.41 162.352 825.722 162.352C826.034 162.352 826.29 162.244 826.49 162.028C826.69 161.804 826.79 161.52 826.79 161.176C826.79 160.816 826.69 160.528 826.49 160.312C826.29 160.088 826.034 159.976 825.722 159.976C825.41 159.976 825.154 160.088 824.954 160.312C824.762 160.528 824.666 160.816 824.666 161.176C824.666 161.52 824.762 161.804 824.954 162.028Z" fill="white"/>
<rect x="793" y="196" width="47" height="39" rx="10" fill="white" fill-opacity="0.05"/>
<rect x="793.5" y="196.5" width="46" height="38" rx="9.5" stroke="white" stroke-opacity="0.1"/>
<path d="M808.312 220.144C807.632 220.144 807.028 220.024 806.5 219.784C805.98 219.544 805.576 219.232 805.288 218.848L806.044 217.924C806.3 218.22 806.628 218.456 807.028 218.632C807.428 218.808 807.84 218.896 808.264 218.896C808.784 218.896 809.192 218.788 809.488 218.572C809.784 218.348 809.932 218.048 809.932 217.672C809.932 216.92 809.34 216.544 808.156 216.544C807.62 216.544 807.312 216.548 807.232 216.556V215.296C807.328 215.304 807.636 215.308 808.156 215.308C808.652 215.308 809.048 215.22 809.344 215.044C809.648 214.868 809.8 214.604 809.8 214.252C809.8 213.892 809.648 213.616 809.344 213.424C809.04 213.224 808.652 213.124 808.18 213.124C807.396 213.124 806.708 213.42 806.116 214.012L805.396 213.136C806.108 212.296 807.08 211.876 808.312 211.876C809.184 211.876 809.884 212.072 810.412 212.464C810.94 212.848 811.204 213.372 811.204 214.036C811.204 214.532 811.028 214.944 810.676 215.272C810.332 215.592 809.928 215.792 809.464 215.872C809.92 215.912 810.344 216.104 810.736 216.448C811.128 216.792 811.324 217.248 811.324 217.816C811.324 218.504 811.048 219.064 810.496 219.496C809.952 219.928 809.224 220.144 808.312 220.144ZM815.683 220.144C815.115 220.144 814.615 220.036 814.183 219.82C813.751 219.596 813.407 219.292 813.151 218.908C812.895 218.524 812.703 218.092 812.575 217.612C812.447 217.124 812.383 216.592 812.383 216.016C812.383 214.808 812.691 213.816 813.307 213.04C813.923 212.264 814.791 211.876 815.911 211.876C816.839 211.876 817.607 212.172 818.215 212.764L817.555 213.832C817.107 213.36 816.559 213.124 815.911 213.124C815.271 213.124 814.759 213.38 814.375 213.892C813.991 214.404 813.799 215.028 813.799 215.764C813.799 215.868 813.803 215.944 813.811 215.992C814.011 215.696 814.307 215.436 814.699 215.212C815.091 214.988 815.511 214.876 815.959 214.876C816.719 214.876 817.355 215.104 817.867 215.56C818.379 216.008 818.635 216.64 818.635 217.456C818.635 218.216 818.363 218.856 817.819 219.376C817.275 219.888 816.563 220.144 815.683 220.144ZM815.611 218.896C816.107 218.896 816.499 218.756 816.787 218.476C817.075 218.188 817.219 217.864 817.219 217.504C817.219 217.04 817.063 216.688 816.751 216.448C816.439 216.2 816.047 216.076 815.575 216.076C815.239 216.076 814.915 216.164 814.603 216.34C814.291 216.508 814.031 216.736 813.823 217.024C813.871 217.536 814.039 217.976 814.327 218.344C814.615 218.712 815.043 218.896 815.611 218.896ZM821.414 215.848C820.83 215.848 820.354 215.664 819.986 215.296C819.618 214.92 819.434 214.448 819.434 213.88C819.434 213.304 819.618 212.828 819.986 212.452C820.354 212.068 820.83 211.876 821.414 211.876C822.006 211.876 822.486 212.068 822.854 212.452C823.23 212.828 823.418 213.304 823.418 213.88C823.418 214.448 823.23 214.92 822.854 215.296C822.486 215.664 822.006 215.848 821.414 215.848ZM821.438 220H820.646L825.758 211.996H826.562L821.438 220ZM827.15 219.592C826.782 219.96 826.306 220.144 825.722 220.144C825.138 220.144 824.662 219.96 824.294 219.592C823.926 219.216 823.742 218.744 823.742 218.176C823.742 217.6 823.926 217.124 824.294 216.748C824.662 216.364 825.138 216.172 825.722 216.172C826.306 216.172 826.782 216.364 827.15 216.748C827.526 217.132 827.714 217.608 827.714 218.176C827.714 218.744 827.526 219.216 827.15 219.592ZM821.414 215.056C821.726 215.056 821.982 214.948 822.182 214.732C822.382 214.508 822.482 214.224 822.482 213.88C822.482 213.52 822.382 213.232 822.182 213.016C821.982 212.792 821.726 212.68 821.414 212.68C821.102 212.68 820.846 212.792 820.646 213.016C820.454 213.232 820.358 213.52 820.358 213.88C820.358 214.224 820.458 214.508 820.658 214.732C820.858 214.948 821.11 215.056 821.414 215.056ZM824.954 219.028C825.154 219.244 825.41 219.352 825.722 219.352C826.034 219.352 826.29 219.244 826.49 219.028C826.69 218.804 826.79 218.52 826.79 218.176C826.79 217.816 826.69 217.528 826.49 217.312C826.29 217.088 826.034 216.976 825.722 216.976C825.41 216.976 825.154 217.088 824.954 217.312C824.762 217.528 824.666 217.816 824.666 218.176C824.666 218.52 824.762 218.804 824.954 219.028Z" fill="white"/>
<defs>
<filter id="filter0_i" x="0" y="0" width="994" height="458" filterUnits="userSpaceOnUse" color-interpolation-filters="sRGB">
<feFlood flood-opacity="0" result="BackgroundImageFix"/>
<feBlend mode="normal" in="SourceGraphic" in2="BackgroundImageFix" result="shape"/>
<feColorMatrix in="SourceAlpha" type="matrix" values="0 0 0 0 0 0 0 0 0 0 0 0 0 0 0 0 0 0 127 0" result="hardAlpha"/>
<feMorphology radius="0.5" operator="erode" in="SourceAlpha" result="effect1_innerShadow"/>
<feOffset/>
<feComposite in2="hardAlpha" operator="arithmetic" k2="-1" k3="1"/>
<feColorMatrix type="matrix" values="0 0 0 0 0.0958333 0 0 0 0 0.0958333 0 0 0 0 0.0958333 0 0 0 0.25 0"/>
<feBlend mode="normal" in2="shape" result="effect1_innerShadow"/>
</filter>
<radialGradient id="paint0_radial" cx="0" cy="0" r="1" gradientUnits="userSpaceOnUse" gradientTransform="translate(5.30514e-05 229) scale(994 2948.13)">
<stop stop-color="#775DF9"/>
<stop offset="0.519341" stop-color="#2564F2"/>
<stop offset="0.96875" stop-color="#33C1FB"/>
</radialGradient>
<linearGradient id="paint1_linear" x1="497" y1="62" x2="497" y2="458" gradientUnits="userSpaceOnUse">
<stop stop-color="white" stop-opacity="0"/>
<stop offset="1" stop-color="#252531" stop-opacity="0.75"/>
</linearGradient>
</defs>
</svg>
