<svg width="1001" height="820" viewBox="0 0 1001 820" fill="none" xmlns="http://www.w3.org/2000/svg">
<path d="M283.491 44V19.184H292.419V11.984H266.259V19.184H275.235V44H283.491ZM316.384 44V20.816H308.992V35.792C308.128 36.896 306.688 38.048 304.576 38.048C302.176 38.048 300.736 37.088 300.736 34.304V20.816H293.344V37.328C293.344 41.6 295.696 44.576 300.976 44.576C304.864 44.576 307.552 42.848 308.992 41.216V44H316.384ZM329.143 44V29.216C330.103 27.92 332.647 27.104 334.567 27.104C335.335 27.104 335.959 27.2 336.391 27.296V20.192C333.607 20.192 330.679 21.776 329.143 23.648V20.816H321.751V44H329.143ZM362.839 44V27.584C362.839 23.312 360.439 20.24 355.159 20.24C351.271 20.24 348.535 22.016 347.143 23.648V20.816H339.751V44H347.143V29.024C348.007 27.968 349.447 26.768 351.655 26.768C353.959 26.768 355.447 27.776 355.447 30.608V44H362.839ZM384.181 18.752C386.533 18.752 388.405 16.832 388.405 14.48C388.405 12.128 386.533 10.256 384.181 10.256C381.829 10.256 379.957 12.128 379.957 14.48C379.957 16.832 381.829 18.752 384.181 18.752ZM387.877 44V20.816H380.485V44H387.877ZM416.323 44V27.584C416.323 23.312 413.923 20.24 408.643 20.24C404.755 20.24 402.019 22.016 400.627 23.648V20.816H393.235V44H400.627V29.024C401.491 27.968 402.931 26.768 405.139 26.768C407.443 26.768 408.931 27.776 408.931 30.608V44H416.323ZM430.568 44.576C437.24 44.576 441.128 41.312 441.128 36.896C441.128 27.392 427.64 30.032 427.64 27.344C427.64 26.384 428.84 25.664 430.568 25.664C433.352 25.664 435.992 26.864 437.384 28.208L440.216 23.312C437.72 21.488 434.408 20.24 430.52 20.24C424.088 20.24 420.584 23.792 420.584 27.872C420.584 37.184 434.072 34.208 434.072 37.232C434.072 38.288 433.16 39.008 430.952 39.008C428.216 39.008 424.52 37.472 422.792 35.936L419.72 41.024C422.168 43.184 426.44 44.576 430.568 44.576ZM448.634 18.752C450.986 18.752 452.858 16.832 452.858 14.48C452.858 12.128 450.986 10.256 448.634 10.256C446.282 10.256 444.41 12.128 444.41 14.48C444.41 16.832 446.282 18.752 448.634 18.752ZM452.33 44V20.816H444.938V44H452.33ZM467.336 53.408C473.096 53.408 480.584 51.392 480.584 41.936V20.816H473.24V23.552C471.368 21.248 468.968 20.24 466.376 20.24C460.568 20.24 456.152 24.272 456.152 31.904C456.152 39.728 460.712 43.616 466.376 43.616C469.016 43.616 471.32 42.512 473.24 40.256V42.032C473.24 46.352 469.784 47.36 467.336 47.36C464.648 47.36 462.056 46.592 460.28 44.672L457.064 49.952C460.04 52.4 463.352 53.408 467.336 53.408ZM468.824 37.088C465.896 37.088 463.736 35.312 463.736 31.904C463.736 28.544 465.896 26.768 468.824 26.768C470.36 26.768 472.328 27.584 473.24 28.832V35.024C472.328 36.272 470.36 37.088 468.824 37.088ZM509.137 44V27.488C509.137 23.216 506.737 20.24 501.457 20.24C497.569 20.24 494.833 22.016 493.441 23.648V11.984H486.049V44H493.441V29.024C494.305 27.968 495.745 26.768 497.905 26.768C500.257 26.768 501.745 27.68 501.745 30.512V44H509.137ZM523.285 44.576C526.021 44.576 527.845 43.904 528.757 43.04L527.317 37.472C527.077 37.76 526.261 38.048 525.445 38.048C524.148 38.048 523.381 37.04 523.381 35.696V27.248H528.085V20.816H523.381V14.48H516.037V20.816H512.197V27.248H516.037V37.76C516.037 42.224 518.581 44.576 523.285 44.576ZM540.677 44.576C547.349 44.576 551.237 41.312 551.237 36.896C551.237 27.392 537.749 30.032 537.749 27.344C537.749 26.384 538.949 25.664 540.677 25.664C543.461 25.664 546.101 26.864 547.493 28.208L550.325 23.312C547.829 21.488 544.517 20.24 540.629 20.24C534.197 20.24 530.693 23.792 530.693 27.872C530.693 37.184 544.181 34.208 544.181 37.232C544.181 38.288 543.269 39.008 541.061 39.008C538.325 39.008 534.629 37.472 532.901 35.936L529.829 41.024C532.277 43.184 536.549 44.576 540.677 44.576ZM571.025 18.752C573.377 18.752 575.249 16.832 575.249 14.48C575.249 12.128 573.377 10.256 571.025 10.256C568.673 10.256 566.801 12.128 566.801 14.48C566.801 16.832 568.673 18.752 571.025 18.752ZM574.721 44V20.816H567.329V44H574.721ZM603.167 44V27.584C603.167 23.312 600.767 20.24 595.487 20.24C591.599 20.24 588.863 22.016 587.471 23.648V20.816H580.079V44H587.471V29.024C588.335 27.968 589.775 26.768 591.983 26.768C594.287 26.768 595.775 27.776 595.775 30.608V44H603.167ZM617.316 44.576C620.052 44.576 621.876 43.904 622.788 43.04L621.348 37.472C621.108 37.76 620.292 38.048 619.476 38.048C618.18 38.048 617.412 37.04 617.412 35.696V27.248H622.116V20.816H617.412V14.48H610.068V20.816H606.228V27.248H610.068V37.76C610.068 42.224 612.612 44.576 617.316 44.576ZM636.917 44.576C644.885 44.576 649.589 38.912 649.589 32.384C649.589 25.856 644.885 20.24 636.917 20.24C629.045 20.24 624.293 25.856 624.293 32.384C624.293 38.912 629.045 44.576 636.917 44.576ZM636.917 38.048C633.701 38.048 631.925 35.504 631.925 32.384C631.925 29.312 633.701 26.768 636.917 26.768C640.181 26.768 642.005 29.312 642.005 32.384C642.005 35.504 640.181 38.048 636.917 38.048ZM391.563 111.408C397.323 111.408 404.811 109.392 404.811 99.936V78.816H397.467V81.552C395.595 79.248 393.195 78.24 390.603 78.24C384.795 78.24 380.379 82.272 380.379 89.904C380.379 97.728 384.939 101.616 390.603 101.616C393.243 101.616 395.547 100.512 397.467 98.256V100.032C397.467 104.352 394.011 105.36 391.563 105.36C388.875 105.36 386.283 104.592 384.507 102.672L381.291 107.952C384.267 110.4 387.579 111.408 391.563 111.408ZM393.051 95.088C390.123 95.088 387.963 93.312 387.963 89.904C387.963 86.544 390.123 84.768 393.051 84.768C394.587 84.768 396.555 85.584 397.467 86.832V93.024C396.555 94.272 394.587 95.088 393.051 95.088ZM417.619 102V87.216C418.579 85.92 421.123 85.104 423.043 85.104C423.811 85.104 424.435 85.2 424.867 85.296V78.192C422.083 78.192 419.155 79.776 417.619 81.648V78.816H410.227V102H417.619ZM439.315 102.576C447.283 102.576 451.987 96.912 451.987 90.384C451.987 83.856 447.283 78.24 439.315 78.24C431.443 78.24 426.691 83.856 426.691 90.384C426.691 96.912 431.443 102.576 439.315 102.576ZM439.315 96.048C436.099 96.048 434.323 93.504 434.323 90.384C434.323 87.312 436.099 84.768 439.315 84.768C442.579 84.768 444.403 87.312 444.403 90.384C444.403 93.504 442.579 96.048 439.315 96.048ZM484.395 102L491.259 78.816H483.627L479.931 93.024L475.371 78.816H468.795L464.235 93.024L460.491 78.816H452.907L459.771 102H467.739L472.059 87.648L476.427 102H484.395ZM502.449 102.576C505.185 102.576 507.009 101.904 507.921 101.04L506.481 95.472C506.241 95.76 505.425 96.048 504.609 96.048C503.313 96.048 502.545 95.04 502.545 93.696V85.248H507.249V78.816H502.545V72.48H495.201V78.816H491.361V85.248H495.201V95.76C495.201 100.224 497.745 102.576 502.449 102.576ZM534.097 102V85.488C534.097 81.216 531.697 78.24 526.417 78.24C522.529 78.24 519.793 80.016 518.401 81.648V69.984H511.009V102H518.401V87.024C519.265 85.968 520.705 84.768 522.865 84.768C525.217 84.768 526.705 85.68 526.705 88.512V102H534.097Z" fill="white"/>
<path d="M285.63 165L280.25 151.66H278.19L272.83 165H274.73L275.91 162.04H282.55L283.73 165H285.63ZM282.05 160.56H276.39L279.23 153.38L282.05 160.56ZM289.54 165.24C290.42 165.24 290.96 164.98 291.34 164.62L290.9 163.5C290.7 163.72 290.3 163.9 289.88 163.9C289.22 163.9 288.9 163.38 288.9 162.66V156.66H290.86V155.34H288.9V152.7H287.4V155.34H285.8V156.66H287.4V162.98C287.4 164.42 288.12 165.24 289.54 165.24ZM295.419 165.24C296.299 165.24 296.839 164.98 297.219 164.62L296.779 163.5C296.579 163.72 296.179 163.9 295.759 163.9C295.099 163.9 294.779 163.38 294.779 162.66V156.66H296.739V155.34H294.779V152.7H293.279V155.34H291.679V156.66H293.279V162.98C293.279 164.42 293.999 165.24 295.419 165.24ZM300.357 165V158.16C300.797 157.38 302.057 156.62 302.977 156.62C303.217 156.62 303.397 156.64 303.577 156.68V155.14C302.257 155.14 301.137 155.88 300.357 156.9V155.34H298.857V165H300.357ZM306.199 153.96C306.759 153.96 307.219 153.52 307.219 152.96C307.219 152.4 306.759 151.94 306.199 151.94C305.659 151.94 305.199 152.4 305.199 152.96C305.199 153.52 305.659 153.96 306.199 153.96ZM306.959 165V155.34H305.459V165H306.959ZM311.451 162.38V158C311.971 157.16 313.151 156.44 314.331 156.44C316.291 156.44 317.451 158.04 317.451 160.18C317.451 162.32 316.291 163.9 314.331 163.9C313.151 163.9 311.971 163.22 311.451 162.38ZM311.451 165V163.56C312.171 164.54 313.351 165.24 314.711 165.24C317.231 165.24 319.011 163.32 319.011 160.18C319.011 157.1 317.231 155.1 314.711 155.1C313.391 155.1 312.231 155.74 311.451 156.8V151.66H309.951V165H311.451ZM329.475 165V155.34H327.975V162.44C327.415 163.22 326.295 163.9 325.115 163.9C323.815 163.9 322.955 163.4 322.955 161.7V155.34H321.455V162.16C321.455 164.26 322.515 165.24 324.535 165.24C325.975 165.24 327.235 164.48 327.975 163.64V165H329.475ZM334.911 165.24C335.791 165.24 336.331 164.98 336.711 164.62L336.271 163.5C336.071 163.72 335.671 163.9 335.251 163.9C334.591 163.9 334.271 163.38 334.271 162.66V156.66H336.231V155.34H334.271V152.7H332.771V155.34H331.171V156.66H332.771V162.98C332.771 164.42 333.491 165.24 334.911 165.24ZM339.09 153.96C339.65 153.96 340.11 153.52 340.11 152.96C340.11 152.4 339.65 151.94 339.09 151.94C338.55 151.94 338.09 152.4 338.09 152.96C338.09 153.52 338.55 153.96 339.09 153.96ZM339.85 165V155.34H338.35V165H339.85ZM350.862 165V158.22C350.862 156.12 349.802 155.1 347.782 155.1C346.342 155.1 345.022 155.94 344.342 156.74V155.34H342.842V165H344.342V157.94C344.902 157.16 346.022 156.44 347.202 156.44C348.502 156.44 349.362 156.98 349.362 158.68V165H350.862ZM357.737 168.92C360.097 168.92 362.337 167.92 362.337 164.72V155.34H360.837V156.8C360.057 155.74 358.897 155.1 357.597 155.1C355.057 155.1 353.297 157.02 353.297 160.12C353.297 163.24 355.077 165.12 357.597 165.12C358.957 165.12 360.137 164.38 360.837 163.4V164.78C360.837 166.9 359.337 167.68 357.737 167.68C356.357 167.68 355.397 167.32 354.597 166.36L353.837 167.48C354.977 168.6 356.097 168.92 357.737 168.92ZM357.957 163.8C356.017 163.8 354.857 162.24 354.857 160.12C354.857 157.98 356.017 156.44 357.957 156.44C359.157 156.44 360.317 157.16 360.837 158V162.22C360.317 163.06 359.157 163.8 357.957 163.8ZM373.558 165.24C376.058 165.24 377.358 163.94 377.358 162.32C377.358 158.56 371.378 159.96 371.378 157.84C371.378 156.98 372.198 156.32 373.518 156.32C374.758 156.32 375.818 156.84 376.398 157.54L377.098 156.5C376.318 155.72 375.158 155.1 373.518 155.1C371.218 155.1 369.918 156.38 369.918 157.88C369.918 161.46 375.898 160.02 375.898 162.36C375.898 163.32 375.098 164.02 373.618 164.02C372.298 164.02 371.078 163.38 370.438 162.64L369.658 163.72C370.638 164.76 371.978 165.24 373.558 165.24ZM387.815 165V155.34H386.315V162.44C385.755 163.22 384.635 163.9 383.455 163.9C382.155 163.9 381.295 163.4 381.295 161.7V155.34H379.795V162.16C379.795 164.26 380.855 165.24 382.875 165.24C384.315 165.24 385.575 164.48 386.315 163.64V165H387.815ZM395.071 165.24C396.831 165.24 397.871 164.52 398.611 163.56L397.611 162.64C396.971 163.5 396.151 163.9 395.151 163.9C393.091 163.9 391.811 162.3 391.811 160.16C391.811 158.02 393.091 156.44 395.151 156.44C396.151 156.44 396.971 156.82 397.611 157.7L398.611 156.78C397.871 155.82 396.831 155.1 395.071 155.1C392.191 155.1 390.251 157.3 390.251 160.16C390.251 163.04 392.191 165.24 395.071 165.24ZM404.973 165.24C406.733 165.24 407.773 164.52 408.513 163.56L407.513 162.64C406.873 163.5 406.053 163.9 405.053 163.9C402.993 163.9 401.713 162.3 401.713 160.16C401.713 158.02 402.993 156.44 405.053 156.44C406.053 156.44 406.873 156.82 407.513 157.7L408.513 156.78C407.773 155.82 406.733 155.1 404.973 155.1C402.093 155.1 400.153 157.3 400.153 160.16C400.153 163.04 402.093 165.24 404.973 165.24ZM414.975 165.24C416.555 165.24 417.855 164.72 418.815 163.76L418.095 162.78C417.335 163.56 416.215 164 415.115 164C413.035 164 411.755 162.48 411.635 160.66H419.455V160.28C419.455 157.38 417.735 155.1 414.815 155.1C412.055 155.1 410.055 157.36 410.055 160.16C410.055 163.18 412.115 165.24 414.975 165.24ZM417.975 159.56H411.635C411.715 158.08 412.735 156.34 414.795 156.34C416.995 156.34 417.955 158.12 417.975 159.56ZM424.945 165.24C427.445 165.24 428.745 163.94 428.745 162.32C428.745 158.56 422.765 159.96 422.765 157.84C422.765 156.98 423.585 156.32 424.905 156.32C426.145 156.32 427.205 156.84 427.785 157.54L428.485 156.5C427.705 155.72 426.545 155.1 424.905 155.1C422.605 155.1 421.305 156.38 421.305 157.88C421.305 161.46 427.285 160.02 427.285 162.36C427.285 163.32 426.485 164.02 425.005 164.02C423.685 164.02 422.465 163.38 421.825 162.64L421.045 163.72C422.025 164.76 423.365 165.24 424.945 165.24ZM434.242 165.24C436.742 165.24 438.042 163.94 438.042 162.32C438.042 158.56 432.062 159.96 432.062 157.84C432.062 156.98 432.882 156.32 434.202 156.32C435.442 156.32 436.502 156.84 437.082 157.54L437.782 156.5C437.002 155.72 435.842 155.1 434.202 155.1C431.902 155.1 430.602 156.38 430.602 157.88C430.602 161.46 436.582 160.02 436.582 162.36C436.582 163.32 435.782 164.02 434.302 164.02C432.982 164.02 431.762 163.38 431.122 162.64L430.342 163.72C431.322 164.76 432.662 165.24 434.242 165.24ZM453.175 165V158.36C453.175 156.02 451.475 155.1 449.435 155.1C447.855 155.1 446.615 155.62 445.575 156.7L446.275 157.74C447.135 156.82 448.075 156.4 449.235 156.4C450.635 156.4 451.675 157.14 451.675 158.44V160.18C450.895 159.28 449.795 158.86 448.475 158.86C446.835 158.86 445.095 159.88 445.095 162.04C445.095 164.14 446.835 165.24 448.475 165.24C449.775 165.24 450.875 164.78 451.675 163.9V165H453.175ZM449.015 164.16C447.615 164.16 446.635 163.28 446.635 162.06C446.635 160.82 447.615 159.94 449.015 159.94C450.075 159.94 451.095 160.34 451.675 161.14V162.96C451.095 163.76 450.075 164.16 449.015 164.16ZM460.442 165.24C462.202 165.24 463.242 164.52 463.982 163.56L462.982 162.64C462.342 163.5 461.522 163.9 460.522 163.9C458.462 163.9 457.182 162.3 457.182 160.16C457.182 158.02 458.462 156.44 460.522 156.44C461.522 156.44 462.342 156.82 462.982 157.7L463.982 156.78C463.242 155.82 462.202 155.1 460.442 155.1C457.562 155.1 455.622 157.3 455.622 160.16C455.622 163.04 457.562 165.24 460.442 165.24ZM467.584 165V158.16C468.024 157.38 469.284 156.62 470.204 156.62C470.444 156.62 470.624 156.64 470.804 156.68V155.14C469.484 155.14 468.364 155.88 467.584 156.9V155.34H466.084V165H467.584ZM476.906 165.24C479.846 165.24 481.686 162.96 481.686 160.16C481.686 157.36 479.846 155.1 476.906 155.1C473.966 155.1 472.126 157.36 472.126 160.16C472.126 162.96 473.966 165.24 476.906 165.24ZM476.906 163.9C474.846 163.9 473.686 162.14 473.686 160.16C473.686 158.2 474.846 156.44 476.906 156.44C478.966 156.44 480.106 158.2 480.106 160.16C480.106 162.14 478.966 163.9 476.906 163.9ZM487.191 165.24C489.691 165.24 490.991 163.94 490.991 162.32C490.991 158.56 485.011 159.96 485.011 157.84C485.011 156.98 485.831 156.32 487.151 156.32C488.391 156.32 489.451 156.84 490.031 157.54L490.731 156.5C489.951 155.72 488.791 155.1 487.151 155.1C484.851 155.1 483.551 156.38 483.551 157.88C483.551 161.46 489.531 160.02 489.531 162.36C489.531 163.32 488.731 164.02 487.251 164.02C485.931 164.02 484.711 163.38 484.071 162.64L483.291 163.72C484.271 164.76 485.611 165.24 487.191 165.24ZM496.488 165.24C498.988 165.24 500.288 163.94 500.288 162.32C500.288 158.56 494.308 159.96 494.308 157.84C494.308 156.98 495.128 156.32 496.448 156.32C497.688 156.32 498.748 156.84 499.328 157.54L500.028 156.5C499.248 155.72 498.088 155.1 496.448 155.1C494.148 155.1 492.848 156.38 492.848 157.88C492.848 161.46 498.828 160.02 498.828 162.36C498.828 163.32 498.028 164.02 496.548 164.02C495.228 164.02 494.008 163.38 493.368 162.64L492.588 163.72C493.568 164.76 494.908 165.24 496.488 165.24ZM521.041 165V158.02C521.041 156.08 520.101 155.1 518.341 155.1C516.941 155.1 515.641 156.02 515.101 156.9C514.821 155.9 513.981 155.1 512.501 155.1C511.081 155.1 509.781 156.12 509.381 156.74V155.34H507.881V165H509.381V157.94C509.901 157.16 510.941 156.44 511.921 156.44C513.181 156.44 513.701 157.22 513.701 158.44V165H515.201V157.92C515.701 157.16 516.761 156.44 517.761 156.44C519.001 156.44 519.541 157.22 519.541 158.44V165H521.041ZM532.053 165V155.34H530.553V162.44C529.993 163.22 528.873 163.9 527.693 163.9C526.393 163.9 525.533 163.4 525.533 161.7V155.34H524.033V162.16C524.033 164.26 525.093 165.24 527.113 165.24C528.553 165.24 529.813 164.48 530.553 163.64V165H532.053ZM536.549 165V151.66H535.049V165H536.549ZM541.981 165.24C542.861 165.24 543.401 164.98 543.781 164.62L543.341 163.5C543.141 163.72 542.741 163.9 542.321 163.9C541.661 163.9 541.341 163.38 541.341 162.66V156.66H543.301V155.34H541.341V152.7H539.841V155.34H538.241V156.66H539.841V162.98C539.841 164.42 540.561 165.24 541.981 165.24ZM546.16 153.96C546.72 153.96 547.18 153.52 547.18 152.96C547.18 152.4 546.72 151.94 546.16 151.94C545.62 151.94 545.16 152.4 545.16 152.96C545.16 153.52 545.62 153.96 546.16 153.96ZM546.92 165V155.34H545.42V165H546.92ZM554.672 165.24C557.212 165.24 558.972 163.28 558.972 160.16C558.972 157.02 557.212 155.1 554.672 155.1C553.312 155.1 552.112 155.8 551.412 156.78V155.34H549.912V168.68H551.412V163.54C552.192 164.62 553.352 165.24 554.672 165.24ZM554.292 163.9C553.112 163.9 551.932 163.18 551.412 162.34V157.98C551.932 157.14 553.112 156.44 554.292 156.44C556.232 156.44 557.392 158.02 557.392 160.16C557.392 162.3 556.232 163.9 554.292 163.9ZM562.857 165V151.66H561.357V165H562.857ZM570.21 165.24C571.79 165.24 573.09 164.72 574.05 163.76L573.33 162.78C572.57 163.56 571.45 164 570.35 164C568.27 164 566.99 162.48 566.87 160.66H574.69V160.28C574.69 157.38 572.97 155.1 570.05 155.1C567.29 155.1 565.29 157.36 565.29 160.16C565.29 163.18 567.35 165.24 570.21 165.24ZM573.21 159.56H566.87C566.95 158.08 567.97 156.34 570.03 156.34C572.23 156.34 573.19 158.12 573.21 159.56ZM586.535 165.24C588.295 165.24 589.335 164.52 590.075 163.56L589.075 162.64C588.435 163.5 587.615 163.9 586.615 163.9C584.555 163.9 583.275 162.3 583.275 160.16C583.275 158.02 584.555 156.44 586.615 156.44C587.615 156.44 588.435 156.82 589.075 157.7L590.075 156.78C589.335 155.82 588.295 155.1 586.535 155.1C583.655 155.1 581.715 157.3 581.715 160.16C581.715 163.04 583.655 165.24 586.535 165.24ZM600.218 165V158.18C600.218 156.08 599.158 155.1 597.138 155.1C595.678 155.1 594.358 155.94 593.678 156.74V151.66H592.178V165H593.678V157.94C594.258 157.16 595.378 156.44 596.538 156.44C597.838 156.44 598.718 156.94 598.718 158.64V165H600.218ZM610.753 165V158.36C610.753 156.02 609.053 155.1 607.013 155.1C605.433 155.1 604.193 155.62 603.153 156.7L603.853 157.74C604.713 156.82 605.653 156.4 606.813 156.4C608.213 156.4 609.253 157.14 609.253 158.44V160.18C608.473 159.28 607.373 158.86 606.053 158.86C604.413 158.86 602.673 159.88 602.673 162.04C602.673 164.14 604.413 165.24 606.053 165.24C607.353 165.24 608.453 164.78 609.253 163.9V165H610.753ZM606.593 164.16C605.193 164.16 604.213 163.28 604.213 162.06C604.213 160.82 605.193 159.94 606.593 159.94C607.653 159.94 608.673 160.34 609.253 161.14V162.96C608.673 163.76 607.653 164.16 606.593 164.16ZM621.78 165V158.22C621.78 156.12 620.72 155.1 618.7 155.1C617.26 155.1 615.94 155.94 615.26 156.74V155.34H613.76V165H615.26V157.94C615.82 157.16 616.94 156.44 618.12 156.44C619.42 156.44 620.28 156.98 620.28 158.68V165H621.78ZM632.795 165V158.22C632.795 156.12 631.735 155.1 629.715 155.1C628.275 155.1 626.955 155.94 626.275 156.74V155.34H624.775V165H626.275V157.94C626.835 157.16 627.955 156.44 629.135 156.44C630.435 156.44 631.295 156.98 631.295 158.68V165H632.795ZM640.151 165.24C641.731 165.24 643.031 164.72 643.991 163.76L643.271 162.78C642.511 163.56 641.391 164 640.291 164C638.211 164 636.931 162.48 636.811 160.66H644.631V160.28C644.631 157.38 642.911 155.1 639.991 155.1C637.231 155.1 635.231 157.36 635.231 160.16C635.231 163.18 637.291 165.24 640.151 165.24ZM643.151 159.56H636.811C636.891 158.08 637.911 156.34 639.971 156.34C642.171 156.34 643.131 158.12 643.151 159.56ZM648.561 165V151.66H647.061V165H648.561ZM654.613 165.24C657.113 165.24 658.413 163.94 658.413 162.32C658.413 158.56 652.433 159.96 652.433 157.84C652.433 156.98 653.253 156.32 654.573 156.32C655.813 156.32 656.873 156.84 657.453 157.54L658.153 156.5C657.373 155.72 656.213 155.1 654.573 155.1C652.273 155.1 650.973 156.38 650.973 157.88C650.973 161.46 656.953 160.02 656.953 162.36C656.953 163.32 656.153 164.02 654.673 164.02C653.353 164.02 652.133 163.38 651.493 162.64L650.713 163.72C651.693 164.76 653.033 165.24 654.613 165.24ZM378.118 197V190.18C378.118 188.08 377.058 187.1 375.038 187.1C373.578 187.1 372.258 187.94 371.578 188.74V183.66H370.078V197H371.578V189.94C372.158 189.16 373.278 188.44 374.438 188.44C375.738 188.44 376.618 188.94 376.618 190.64V197H378.118ZM388.653 197V190.36C388.653 188.02 386.953 187.1 384.913 187.1C383.333 187.1 382.093 187.62 381.053 188.7L381.753 189.74C382.613 188.82 383.553 188.4 384.713 188.4C386.113 188.4 387.153 189.14 387.153 190.44V192.18C386.373 191.28 385.273 190.86 383.953 190.86C382.313 190.86 380.573 191.88 380.573 194.04C380.573 196.14 382.313 197.24 383.953 197.24C385.253 197.24 386.353 196.78 387.153 195.9V197H388.653ZM384.493 196.16C383.093 196.16 382.113 195.28 382.113 194.06C382.113 192.82 383.093 191.94 384.493 191.94C385.553 191.94 386.573 192.34 387.153 193.14V194.96C386.573 195.76 385.553 196.16 384.493 196.16ZM394.72 197.24C397.22 197.24 398.52 195.94 398.52 194.32C398.52 190.56 392.54 191.96 392.54 189.84C392.54 188.98 393.36 188.32 394.68 188.32C395.92 188.32 396.98 188.84 397.56 189.54L398.26 188.5C397.48 187.72 396.32 187.1 394.68 187.1C392.38 187.1 391.08 188.38 391.08 189.88C391.08 193.46 397.06 192.02 397.06 194.36C397.06 195.32 396.26 196.02 394.78 196.02C393.46 196.02 392.24 195.38 391.6 194.64L390.82 195.72C391.8 196.76 393.14 197.24 394.72 197.24ZM414.133 197V190.22C414.133 188.12 413.073 187.1 411.053 187.1C409.613 187.1 408.293 187.94 407.613 188.74V187.34H406.113V197H407.613V189.94C408.173 189.16 409.293 188.44 410.473 188.44C411.773 188.44 412.633 188.98 412.633 190.68V197H414.133ZM421.489 197.24C423.069 197.24 424.369 196.72 425.329 195.76L424.609 194.78C423.849 195.56 422.729 196 421.629 196C419.549 196 418.269 194.48 418.149 192.66H425.969V192.28C425.969 189.38 424.249 187.1 421.329 187.1C418.569 187.1 416.569 189.36 416.569 192.16C416.569 195.18 418.629 197.24 421.489 197.24ZM424.489 191.56H418.149C418.229 190.08 419.249 188.34 421.309 188.34C423.509 188.34 424.469 190.12 424.489 191.56ZM432.618 197L436.638 187.34H434.998L431.798 195.26L428.578 187.34H426.958L430.978 197H432.618ZM442.563 197.24C444.143 197.24 445.443 196.72 446.403 195.76L445.683 194.78C444.923 195.56 443.803 196 442.703 196C440.623 196 439.343 194.48 439.223 192.66H447.043V192.28C447.043 189.38 445.323 187.1 442.403 187.1C439.643 187.1 437.643 189.36 437.643 192.16C437.643 195.18 439.703 197.24 442.563 197.24ZM445.563 191.56H439.223C439.303 190.08 440.323 188.34 442.383 188.34C444.583 188.34 445.543 190.12 445.563 191.56ZM450.973 197V190.16C451.413 189.38 452.673 188.62 453.593 188.62C453.833 188.62 454.013 188.64 454.193 188.68V187.14C452.873 187.14 451.753 187.88 450.973 188.9V187.34H449.473V197H450.973ZM462.73 194.38V190C463.25 189.16 464.43 188.44 465.61 188.44C467.57 188.44 468.73 190.04 468.73 192.18C468.73 194.32 467.57 195.9 465.61 195.9C464.43 195.9 463.25 195.22 462.73 194.38ZM462.73 197V195.56C463.45 196.54 464.63 197.24 465.99 197.24C468.51 197.24 470.29 195.32 470.29 192.18C470.29 189.1 468.51 187.1 465.99 187.1C464.67 187.1 463.51 187.74 462.73 188.8V183.66H461.23V197H462.73ZM477.094 197.24C478.674 197.24 479.974 196.72 480.934 195.76L480.214 194.78C479.454 195.56 478.334 196 477.234 196C475.154 196 473.874 194.48 473.754 192.66H481.574V192.28C481.574 189.38 479.854 187.1 476.934 187.1C474.174 187.1 472.174 189.36 472.174 192.16C472.174 195.18 474.234 197.24 477.094 197.24ZM480.094 191.56H473.754C473.834 190.08 474.854 188.34 476.914 188.34C479.114 188.34 480.074 190.12 480.094 191.56ZM488.364 197.24C489.944 197.24 491.244 196.72 492.204 195.76L491.484 194.78C490.724 195.56 489.604 196 488.504 196C486.424 196 485.144 194.48 485.024 192.66H492.844V192.28C492.844 189.38 491.124 187.1 488.204 187.1C485.444 187.1 483.444 189.36 483.444 192.16C483.444 195.18 485.504 197.24 488.364 197.24ZM491.364 191.56H485.024C485.104 190.08 486.124 188.34 488.184 188.34C490.384 188.34 491.344 190.12 491.364 191.56ZM503.293 197V190.22C503.293 188.12 502.233 187.1 500.213 187.1C498.773 187.1 497.453 187.94 496.773 188.74V187.34H495.273V197H496.773V189.94C497.333 189.16 498.453 188.44 499.633 188.44C500.933 188.44 501.793 188.98 501.793 190.68V197H503.293ZM515.805 197.24C517.385 197.24 518.685 196.72 519.645 195.76L518.925 194.78C518.165 195.56 517.045 196 515.945 196C513.865 196 512.585 194.48 512.465 192.66H520.285V192.28C520.285 189.38 518.565 187.1 515.645 187.1C512.885 187.1 510.885 189.36 510.885 192.16C510.885 195.18 512.945 197.24 515.805 197.24ZM518.805 191.56H512.465C512.545 190.08 513.565 188.34 515.625 188.34C517.825 188.34 518.785 190.12 518.805 191.56ZM530.255 197V190.36C530.255 188.02 528.555 187.1 526.515 187.1C524.935 187.1 523.695 187.62 522.655 188.7L523.355 189.74C524.215 188.82 525.155 188.4 526.315 188.4C527.715 188.4 528.755 189.14 528.755 190.44V192.18C527.975 191.28 526.875 190.86 525.555 190.86C523.915 190.86 522.175 191.88 522.175 194.04C522.175 196.14 523.915 197.24 525.555 197.24C526.855 197.24 527.955 196.78 528.755 195.9V197H530.255ZM526.095 196.16C524.695 196.16 523.715 195.28 523.715 194.06C523.715 192.82 524.695 191.94 526.095 191.94C527.155 191.94 528.175 192.34 528.755 193.14V194.96C528.175 195.76 527.155 196.16 526.095 196.16ZM536.322 197.24C538.822 197.24 540.122 195.94 540.122 194.32C540.122 190.56 534.142 191.96 534.142 189.84C534.142 188.98 534.962 188.32 536.282 188.32C537.522 188.32 538.582 188.84 539.162 189.54L539.862 188.5C539.082 187.72 537.922 187.1 536.282 187.1C533.982 187.1 532.682 188.38 532.682 189.88C532.682 193.46 538.662 192.02 538.662 194.36C538.662 195.32 537.862 196.02 536.382 196.02C535.062 196.02 533.842 195.38 533.202 194.64L532.422 195.72C533.402 196.76 534.742 197.24 536.322 197.24ZM543.299 185.96C543.859 185.96 544.319 185.52 544.319 184.96C544.319 184.4 543.859 183.94 543.299 183.94C542.759 183.94 542.299 184.4 542.299 184.96C542.299 185.52 542.759 185.96 543.299 185.96ZM544.059 197V187.34H542.559V197H544.059ZM551.411 197.24C552.991 197.24 554.291 196.72 555.251 195.76L554.531 194.78C553.771 195.56 552.651 196 551.551 196C549.471 196 548.191 194.48 548.071 192.66H555.891V192.28C555.891 189.38 554.171 187.1 551.251 187.1C548.491 187.1 546.491 189.36 546.491 192.16C546.491 195.18 548.551 197.24 551.411 197.24ZM554.411 191.56H548.071C548.151 190.08 549.171 188.34 551.231 188.34C553.431 188.34 554.391 190.12 554.411 191.56ZM559.82 197V190.16C560.26 189.38 561.52 188.62 562.44 188.62C562.68 188.62 562.86 188.64 563.04 188.68V187.14C561.72 187.14 560.6 187.88 559.82 188.9V187.34H558.32V197H559.82Z" fill="white"/>
<rect x="319" y="236" width="193" height="38" rx="19" fill="#47475E"/>
<rect x="468" y="236" width="129" height="38" rx="19" fill="#2194FF"/>
<path d="M498.884 259H497.134L495.314 252.112L493.508 259H491.758L489.084 249.662H490.918L492.738 256.858L494.67 249.662H495.972L497.904 256.858L499.71 249.662H501.544L498.884 259ZM503.326 251.412C503.084 251.412 502.869 251.323 502.682 251.146C502.505 250.969 502.416 250.754 502.416 250.502C502.416 250.25 502.505 250.035 502.682 249.858C502.869 249.681 503.084 249.592 503.326 249.592C503.578 249.592 503.793 249.681 503.97 249.858C504.148 250.035 504.236 250.25 504.236 250.502C504.236 250.754 504.148 250.969 503.97 251.146C503.793 251.323 503.578 251.412 503.326 251.412ZM504.068 259H502.598V252.238H504.068V259ZM508.005 259.168C507.436 259.168 507.002 259.019 506.703 258.72C506.414 258.421 506.269 257.992 506.269 257.432V253.526H505.149V252.238H506.269V250.39H507.739V252.238H509.111V253.526H507.739V257.068C507.739 257.311 507.795 257.507 507.907 257.656C508.019 257.796 508.178 257.866 508.383 257.866C508.682 257.866 508.901 257.787 509.041 257.628L509.391 258.734C509.083 259.023 508.621 259.168 508.005 259.168ZM516.494 259H515.024V254.744C515.024 254.249 514.903 253.899 514.66 253.694C514.427 253.479 514.091 253.372 513.652 253.372C513.307 253.372 512.98 253.461 512.672 253.638C512.364 253.815 512.112 254.03 511.916 254.282V259H510.446V249.662H511.916V253.162C512.168 252.863 512.504 252.607 512.924 252.392C513.353 252.177 513.815 252.07 514.31 252.07C515.766 252.07 516.494 252.784 516.494 254.212V259ZM525.233 259.168C523.628 259.168 522.363 258.673 521.439 257.684L522.349 256.424C523.152 257.283 524.136 257.712 525.303 257.712C525.928 257.712 526.395 257.586 526.703 257.334C527.02 257.082 527.179 256.783 527.179 256.438C527.179 256.083 526.992 255.803 526.619 255.598C526.246 255.383 525.793 255.215 525.261 255.094C524.729 254.973 524.192 254.828 523.651 254.66C523.119 254.492 522.666 254.207 522.293 253.806C521.92 253.405 521.733 252.887 521.733 252.252C521.733 251.468 522.046 250.819 522.671 250.306C523.306 249.783 524.127 249.522 525.135 249.522C526.572 249.522 527.739 249.956 528.635 250.824L527.697 252.042C526.988 251.333 526.087 250.978 524.995 250.978C524.51 250.978 524.122 251.085 523.833 251.3C523.553 251.505 523.413 251.785 523.413 252.14C523.413 252.373 523.511 252.569 523.707 252.728C523.912 252.887 524.174 253.017 524.491 253.12C524.808 253.213 525.158 253.307 525.541 253.4C525.933 253.493 526.32 253.61 526.703 253.75C527.095 253.881 527.45 254.044 527.767 254.24C528.084 254.436 528.341 254.707 528.537 255.052C528.742 255.397 528.845 255.808 528.845 256.284C528.845 257.124 528.542 257.815 527.935 258.356C527.328 258.897 526.428 259.168 525.233 259.168ZM535.911 259H534.441V258.272C533.919 258.869 533.191 259.168 532.257 259.168C531.641 259.168 531.095 258.972 530.619 258.58C530.143 258.179 529.905 257.628 529.905 256.928C529.905 256.209 530.139 255.663 530.605 255.29C531.081 254.917 531.632 254.73 532.257 254.73C533.219 254.73 533.947 255.019 534.441 255.598V254.59C534.441 254.198 534.297 253.89 534.007 253.666C533.718 253.442 533.335 253.33 532.859 253.33C532.103 253.33 531.436 253.615 530.857 254.184L530.255 253.162C531.021 252.434 531.968 252.07 533.097 252.07C533.928 252.07 534.605 252.266 535.127 252.658C535.65 253.05 535.911 253.671 535.911 254.52V259ZM532.831 258.16C533.569 258.16 534.105 257.927 534.441 257.46V256.438C534.105 255.971 533.569 255.738 532.831 255.738C532.411 255.738 532.066 255.85 531.795 256.074C531.525 256.298 531.389 256.592 531.389 256.956C531.389 257.32 531.525 257.614 531.795 257.838C532.066 258.053 532.411 258.16 532.831 258.16ZM543.851 259H542.381V254.772C542.381 253.839 541.929 253.372 541.023 253.372C540.669 253.372 540.337 253.461 540.029 253.638C539.721 253.815 539.474 254.03 539.287 254.282V259H537.817V252.238H539.287V253.162C539.539 252.863 539.875 252.607 540.295 252.392C540.715 252.177 541.173 252.07 541.667 252.07C542.386 252.07 542.927 252.257 543.291 252.63C543.665 253.003 543.851 253.54 543.851 254.24V259ZM551.991 259H550.521V258.076C549.961 258.804 549.237 259.168 548.351 259.168C547.464 259.168 546.741 258.851 546.181 258.216C545.621 257.581 545.341 256.718 545.341 255.626C545.341 254.543 545.621 253.68 546.181 253.036C546.741 252.392 547.464 252.07 548.351 252.07C549.237 252.07 549.961 252.439 550.521 253.176V249.662H551.991V259ZM548.771 257.866C549.116 257.866 549.452 257.782 549.779 257.614C550.105 257.446 550.353 257.231 550.521 256.97V254.282C550.353 254.021 550.105 253.806 549.779 253.638C549.452 253.461 549.116 253.372 548.771 253.372C548.192 253.372 547.73 253.582 547.385 254.002C547.039 254.422 546.867 254.963 546.867 255.626C546.867 256.289 547.039 256.83 547.385 257.25C547.73 257.661 548.192 257.866 548.771 257.866ZM555.365 256.97C555.524 257.222 555.767 257.437 556.093 257.614C556.429 257.782 556.765 257.866 557.101 257.866C557.68 257.866 558.142 257.661 558.487 257.25C558.842 256.83 559.019 256.289 559.019 255.626C559.019 254.963 558.842 254.422 558.487 254.002C558.142 253.582 557.68 253.372 557.101 253.372C556.765 253.372 556.434 253.461 556.107 253.638C555.781 253.815 555.533 254.035 555.365 254.296V256.97ZM555.365 259H553.895V249.662H555.365V253.176C555.916 252.439 556.639 252.07 557.535 252.07C558.413 252.07 559.131 252.397 559.691 253.05C560.251 253.694 560.531 254.553 560.531 255.626C560.531 256.718 560.251 257.581 559.691 258.216C559.131 258.851 558.413 259.168 557.535 259.168C556.649 259.168 555.925 258.804 555.365 258.076V259ZM565.082 259.168C564.037 259.168 563.197 258.827 562.562 258.146C561.927 257.455 561.61 256.611 561.61 255.612C561.61 254.613 561.927 253.773 562.562 253.092C563.197 252.411 564.037 252.07 565.082 252.07C566.137 252.07 566.981 252.411 567.616 253.092C568.251 253.773 568.568 254.613 568.568 255.612C568.568 256.62 568.251 257.465 567.616 258.146C566.981 258.827 566.137 259.168 565.082 259.168ZM565.082 257.866C565.689 257.866 566.165 257.651 566.51 257.222C566.865 256.783 567.042 256.247 567.042 255.612C567.042 254.987 566.865 254.459 566.51 254.03C566.165 253.591 565.689 253.372 565.082 253.372C564.485 253.372 564.009 253.591 563.654 254.03C563.309 254.459 563.136 254.987 563.136 255.612C563.136 256.247 563.309 256.783 563.654 257.222C564.009 257.651 564.485 257.866 565.082 257.866ZM575.485 259H573.833L572.083 256.508L570.319 259H568.681L571.159 255.528L568.821 252.238H570.473L572.083 254.534L573.679 252.238H575.331L572.993 255.528L575.485 259Z" fill="white"/>
<path d="M353.884 259H352.134L350.314 252.112L348.508 259H346.758L344.084 249.662H345.918L347.738 256.858L349.67 249.662H350.972L352.904 256.858L354.71 249.662H356.544L353.884 259ZM358.326 251.412C358.084 251.412 357.869 251.323 357.682 251.146C357.505 250.969 357.416 250.754 357.416 250.502C357.416 250.25 357.505 250.035 357.682 249.858C357.869 249.681 358.084 249.592 358.326 249.592C358.578 249.592 358.793 249.681 358.97 249.858C359.148 250.035 359.236 250.25 359.236 250.502C359.236 250.754 359.148 250.969 358.97 251.146C358.793 251.323 358.578 251.412 358.326 251.412ZM359.068 259H357.598V252.238H359.068V259ZM363.005 259.168C362.436 259.168 362.002 259.019 361.703 258.72C361.414 258.421 361.269 257.992 361.269 257.432V253.526H360.149V252.238H361.269V250.39H362.739V252.238H364.111V253.526H362.739V257.068C362.739 257.311 362.795 257.507 362.907 257.656C363.019 257.796 363.178 257.866 363.383 257.866C363.682 257.866 363.901 257.787 364.041 257.628L364.391 258.734C364.083 259.023 363.621 259.168 363.005 259.168ZM371.494 259H370.024V254.744C370.024 254.249 369.903 253.899 369.66 253.694C369.427 253.479 369.091 253.372 368.652 253.372C368.307 253.372 367.98 253.461 367.672 253.638C367.364 253.815 367.112 254.03 366.916 254.282V259H365.446V249.662H366.916V253.162C367.168 252.863 367.504 252.607 367.924 252.392C368.353 252.177 368.815 252.07 369.31 252.07C370.766 252.07 371.494 252.784 371.494 254.212V259ZM376.455 259.168C375.41 259.168 374.57 258.827 373.935 258.146C373.301 257.455 372.983 256.611 372.983 255.612C372.983 254.613 373.301 253.773 373.935 253.092C374.57 252.411 375.41 252.07 376.455 252.07C377.51 252.07 378.355 252.411 378.989 253.092C379.624 253.773 379.941 254.613 379.941 255.612C379.941 256.62 379.624 257.465 378.989 258.146C378.355 258.827 377.51 259.168 376.455 259.168ZM376.455 257.866C377.062 257.866 377.538 257.651 377.883 257.222C378.238 256.783 378.415 256.247 378.415 255.612C378.415 254.987 378.238 254.459 377.883 254.03C377.538 253.591 377.062 253.372 376.455 253.372C375.858 253.372 375.382 253.591 375.027 254.03C374.682 254.459 374.509 254.987 374.509 255.612C374.509 256.247 374.682 256.783 375.027 257.222C375.382 257.651 375.858 257.866 376.455 257.866ZM387.463 259H385.993V258.104C385.358 258.813 384.56 259.168 383.599 259.168C382.152 259.168 381.429 258.454 381.429 257.026V252.238H382.899V256.494C382.899 256.989 383.015 257.343 383.249 257.558C383.482 257.763 383.818 257.866 384.257 257.866C384.611 257.866 384.943 257.782 385.251 257.614C385.559 257.446 385.806 257.236 385.993 256.984V252.238H387.463V259ZM391.402 259.168C390.833 259.168 390.399 259.019 390.1 258.72C389.811 258.421 389.666 257.992 389.666 257.432V253.526H388.546V252.238H389.666V250.39H391.136V252.238H392.508V253.526H391.136V257.068C391.136 257.311 391.192 257.507 391.304 257.656C391.416 257.796 391.575 257.866 391.78 257.866C392.079 257.866 392.298 257.787 392.438 257.628L392.788 258.734C392.48 259.023 392.018 259.168 391.402 259.168ZM400.672 259.168C399.067 259.168 397.802 258.673 396.878 257.684L397.788 256.424C398.591 257.283 399.576 257.712 400.742 257.712C401.368 257.712 401.834 257.586 402.142 257.334C402.46 257.082 402.618 256.783 402.618 256.438C402.618 256.083 402.432 255.803 402.058 255.598C401.685 255.383 401.232 255.215 400.7 255.094C400.168 254.973 399.632 254.828 399.09 254.66C398.558 254.492 398.106 254.207 397.732 253.806C397.359 253.405 397.172 252.887 397.172 252.252C397.172 251.468 397.485 250.819 398.11 250.306C398.745 249.783 399.566 249.522 400.574 249.522C402.012 249.522 403.178 249.956 404.074 250.824L403.136 252.042C402.427 251.333 401.526 250.978 400.434 250.978C399.949 250.978 399.562 251.085 399.272 251.3C398.992 251.505 398.852 251.785 398.852 252.14C398.852 252.373 398.95 252.569 399.146 252.728C399.352 252.887 399.613 253.017 399.93 253.12C400.248 253.213 400.598 253.307 400.98 253.4C401.372 253.493 401.76 253.61 402.142 253.75C402.534 253.881 402.889 254.044 403.206 254.24C403.524 254.436 403.78 254.707 403.976 255.052C404.182 255.397 404.284 255.808 404.284 256.284C404.284 257.124 403.981 257.815 403.374 258.356C402.768 258.897 401.867 259.168 400.672 259.168ZM411.351 259H409.881V258.272C409.358 258.869 408.63 259.168 407.697 259.168C407.081 259.168 406.535 258.972 406.059 258.58C405.583 258.179 405.345 257.628 405.345 256.928C405.345 256.209 405.578 255.663 406.045 255.29C406.521 254.917 407.071 254.73 407.697 254.73C408.658 254.73 409.386 255.019 409.881 255.598V254.59C409.881 254.198 409.736 253.89 409.447 253.666C409.157 253.442 408.775 253.33 408.299 253.33C407.543 253.33 406.875 253.615 406.297 254.184L405.695 253.162C406.46 252.434 407.407 252.07 408.537 252.07C409.367 252.07 410.044 252.266 410.567 252.658C411.089 253.05 411.351 253.671 411.351 254.52V259ZM408.271 258.16C409.008 258.16 409.545 257.927 409.881 257.46V256.438C409.545 255.971 409.008 255.738 408.271 255.738C407.851 255.738 407.505 255.85 407.235 256.074C406.964 256.298 406.829 256.592 406.829 256.956C406.829 257.32 406.964 257.614 407.235 257.838C407.505 258.053 407.851 258.16 408.271 258.16ZM419.291 259H417.821V254.772C417.821 253.839 417.368 253.372 416.463 253.372C416.108 253.372 415.777 253.461 415.469 253.638C415.161 253.815 414.913 254.03 414.727 254.282V259H413.257V252.238H414.727V253.162C414.979 252.863 415.315 252.607 415.735 252.392C416.155 252.177 416.612 252.07 417.107 252.07C417.825 252.07 418.367 252.257 418.731 252.63C419.104 253.003 419.291 253.54 419.291 254.24V259ZM427.43 259H425.96V258.076C425.4 258.804 424.677 259.168 423.79 259.168C422.903 259.168 422.18 258.851 421.62 258.216C421.06 257.581 420.78 256.718 420.78 255.626C420.78 254.543 421.06 253.68 421.62 253.036C422.18 252.392 422.903 252.07 423.79 252.07C424.677 252.07 425.4 252.439 425.96 253.176V249.662H427.43V259ZM424.21 257.866C424.555 257.866 424.891 257.782 425.218 257.614C425.545 257.446 425.792 257.231 425.96 256.97V254.282C425.792 254.021 425.545 253.806 425.218 253.638C424.891 253.461 424.555 253.372 424.21 253.372C423.631 253.372 423.169 253.582 422.824 254.002C422.479 254.422 422.306 254.963 422.306 255.626C422.306 256.289 422.479 256.83 422.824 257.25C423.169 257.661 423.631 257.866 424.21 257.866ZM430.805 256.97C430.963 257.222 431.206 257.437 431.533 257.614C431.869 257.782 432.205 257.866 432.541 257.866C433.119 257.866 433.581 257.661 433.927 257.25C434.281 256.83 434.459 256.289 434.459 255.626C434.459 254.963 434.281 254.422 433.927 254.002C433.581 253.582 433.119 253.372 432.541 253.372C432.205 253.372 431.873 253.461 431.547 253.638C431.22 253.815 430.973 254.035 430.805 254.296V256.97ZM430.805 259H429.335V249.662H430.805V253.176C431.355 252.439 432.079 252.07 432.975 252.07C433.852 252.07 434.571 252.397 435.131 253.05C435.691 253.694 435.971 254.553 435.971 255.626C435.971 256.718 435.691 257.581 435.131 258.216C434.571 258.851 433.852 259.168 432.975 259.168C432.088 259.168 431.365 258.804 430.805 258.076V259ZM440.522 259.168C439.476 259.168 438.636 258.827 438.002 258.146C437.367 257.455 437.05 256.611 437.05 255.612C437.05 254.613 437.367 253.773 438.002 253.092C438.636 252.411 439.476 252.07 440.522 252.07C441.576 252.07 442.421 252.411 443.056 253.092C443.69 253.773 444.008 254.613 444.008 255.612C444.008 256.62 443.69 257.465 443.056 258.146C442.421 258.827 441.576 259.168 440.522 259.168ZM440.522 257.866C441.128 257.866 441.604 257.651 441.95 257.222C442.304 256.783 442.482 256.247 442.482 255.612C442.482 254.987 442.304 254.459 441.95 254.03C441.604 253.591 441.128 253.372 440.522 253.372C439.924 253.372 439.448 253.591 439.094 254.03C438.748 254.459 438.576 254.987 438.576 255.612C438.576 256.247 438.748 256.783 439.094 257.222C439.448 257.651 439.924 257.866 440.522 257.866ZM450.925 259H449.273L447.523 256.508L445.759 259H444.121L446.599 255.528L444.261 252.238H445.913L447.523 254.534L449.119 252.238H450.771L448.433 255.528L450.925 259Z" fill="white"/>
<rect x="319" y="236" width="193" height="38" rx="19" fill="#47475E"/>
<rect x="468" y="236" width="129" height="38" rx="19" fill="#2194FF"/>
<path d="M498.884 259H497.134L495.314 252.112L493.508 259H491.758L489.084 249.662H490.918L492.738 256.858L494.67 249.662H495.972L497.904 256.858L499.71 249.662H501.544L498.884 259ZM503.326 251.412C503.084 251.412 502.869 251.323 502.682 251.146C502.505 250.969 502.416 250.754 502.416 250.502C502.416 250.25 502.505 250.035 502.682 249.858C502.869 249.681 503.084 249.592 503.326 249.592C503.578 249.592 503.793 249.681 503.97 249.858C504.148 250.035 504.236 250.25 504.236 250.502C504.236 250.754 504.148 250.969 503.97 251.146C503.793 251.323 503.578 251.412 503.326 251.412ZM504.068 259H502.598V252.238H504.068V259ZM508.005 259.168C507.436 259.168 507.002 259.019 506.703 258.72C506.414 258.421 506.269 257.992 506.269 257.432V253.526H505.149V252.238H506.269V250.39H507.739V252.238H509.111V253.526H507.739V257.068C507.739 257.311 507.795 257.507 507.907 257.656C508.019 257.796 508.178 257.866 508.383 257.866C508.682 257.866 508.901 257.787 509.041 257.628L509.391 258.734C509.083 259.023 508.621 259.168 508.005 259.168ZM516.494 259H515.024V254.744C515.024 254.249 514.903 253.899 514.66 253.694C514.427 253.479 514.091 253.372 513.652 253.372C513.307 253.372 512.98 253.461 512.672 253.638C512.364 253.815 512.112 254.03 511.916 254.282V259H510.446V249.662H511.916V253.162C512.168 252.863 512.504 252.607 512.924 252.392C513.353 252.177 513.815 252.07 514.31 252.07C515.766 252.07 516.494 252.784 516.494 254.212V259ZM525.233 259.168C523.628 259.168 522.363 258.673 521.439 257.684L522.349 256.424C523.152 257.283 524.136 257.712 525.303 257.712C525.928 257.712 526.395 257.586 526.703 257.334C527.02 257.082 527.179 256.783 527.179 256.438C527.179 256.083 526.992 255.803 526.619 255.598C526.246 255.383 525.793 255.215 525.261 255.094C524.729 254.973 524.192 254.828 523.651 254.66C523.119 254.492 522.666 254.207 522.293 253.806C521.92 253.405 521.733 252.887 521.733 252.252C521.733 251.468 522.046 250.819 522.671 250.306C523.306 249.783 524.127 249.522 525.135 249.522C526.572 249.522 527.739 249.956 528.635 250.824L527.697 252.042C526.988 251.333 526.087 250.978 524.995 250.978C524.51 250.978 524.122 251.085 523.833 251.3C523.553 251.505 523.413 251.785 523.413 252.14C523.413 252.373 523.511 252.569 523.707 252.728C523.912 252.887 524.174 253.017 524.491 253.12C524.808 253.213 525.158 253.307 525.541 253.4C525.933 253.493 526.32 253.61 526.703 253.75C527.095 253.881 527.45 254.044 527.767 254.24C528.084 254.436 528.341 254.707 528.537 255.052C528.742 255.397 528.845 255.808 528.845 256.284C528.845 257.124 528.542 257.815 527.935 258.356C527.328 258.897 526.428 259.168 525.233 259.168ZM535.911 259H534.441V258.272C533.919 258.869 533.191 259.168 532.257 259.168C531.641 259.168 531.095 258.972 530.619 258.58C530.143 258.179 529.905 257.628 529.905 256.928C529.905 256.209 530.139 255.663 530.605 255.29C531.081 254.917 531.632 254.73 532.257 254.73C533.219 254.73 533.947 255.019 534.441 255.598V254.59C534.441 254.198 534.297 253.89 534.007 253.666C533.718 253.442 533.335 253.33 532.859 253.33C532.103 253.33 531.436 253.615 530.857 254.184L530.255 253.162C531.021 252.434 531.968 252.07 533.097 252.07C533.928 252.07 534.605 252.266 535.127 252.658C535.65 253.05 535.911 253.671 535.911 254.52V259ZM532.831 258.16C533.569 258.16 534.105 257.927 534.441 257.46V256.438C534.105 255.971 533.569 255.738 532.831 255.738C532.411 255.738 532.066 255.85 531.795 256.074C531.525 256.298 531.389 256.592 531.389 256.956C531.389 257.32 531.525 257.614 531.795 257.838C532.066 258.053 532.411 258.16 532.831 258.16ZM543.851 259H542.381V254.772C542.381 253.839 541.929 253.372 541.023 253.372C540.669 253.372 540.337 253.461 540.029 253.638C539.721 253.815 539.474 254.03 539.287 254.282V259H537.817V252.238H539.287V253.162C539.539 252.863 539.875 252.607 540.295 252.392C540.715 252.177 541.173 252.07 541.667 252.07C542.386 252.07 542.927 252.257 543.291 252.63C543.665 253.003 543.851 253.54 543.851 254.24V259ZM551.991 259H550.521V258.076C549.961 258.804 549.237 259.168 548.351 259.168C547.464 259.168 546.741 258.851 546.181 258.216C545.621 257.581 545.341 256.718 545.341 255.626C545.341 254.543 545.621 253.68 546.181 253.036C546.741 252.392 547.464 252.07 548.351 252.07C549.237 252.07 549.961 252.439 550.521 253.176V249.662H551.991V259ZM548.771 257.866C549.116 257.866 549.452 257.782 549.779 257.614C550.105 257.446 550.353 257.231 550.521 256.97V254.282C550.353 254.021 550.105 253.806 549.779 253.638C549.452 253.461 549.116 253.372 548.771 253.372C548.192 253.372 547.73 253.582 547.385 254.002C547.039 254.422 546.867 254.963 546.867 255.626C546.867 256.289 547.039 256.83 547.385 257.25C547.73 257.661 548.192 257.866 548.771 257.866ZM555.365 256.97C555.524 257.222 555.767 257.437 556.093 257.614C556.429 257.782 556.765 257.866 557.101 257.866C557.68 257.866 558.142 257.661 558.487 257.25C558.842 256.83 559.019 256.289 559.019 255.626C559.019 254.963 558.842 254.422 558.487 254.002C558.142 253.582 557.68 253.372 557.101 253.372C556.765 253.372 556.434 253.461 556.107 253.638C555.781 253.815 555.533 254.035 555.365 254.296V256.97ZM555.365 259H553.895V249.662H555.365V253.176C555.916 252.439 556.639 252.07 557.535 252.07C558.413 252.07 559.131 252.397 559.691 253.05C560.251 253.694 560.531 254.553 560.531 255.626C560.531 256.718 560.251 257.581 559.691 258.216C559.131 258.851 558.413 259.168 557.535 259.168C556.649 259.168 555.925 258.804 555.365 258.076V259ZM565.082 259.168C564.037 259.168 563.197 258.827 562.562 258.146C561.927 257.455 561.61 256.611 561.61 255.612C561.61 254.613 561.927 253.773 562.562 253.092C563.197 252.411 564.037 252.07 565.082 252.07C566.137 252.07 566.981 252.411 567.616 253.092C568.251 253.773 568.568 254.613 568.568 255.612C568.568 256.62 568.251 257.465 567.616 258.146C566.981 258.827 566.137 259.168 565.082 259.168ZM565.082 257.866C565.689 257.866 566.165 257.651 566.51 257.222C566.865 256.783 567.042 256.247 567.042 255.612C567.042 254.987 566.865 254.459 566.51 254.03C566.165 253.591 565.689 253.372 565.082 253.372C564.485 253.372 564.009 253.591 563.654 254.03C563.309 254.459 563.136 254.987 563.136 255.612C563.136 256.247 563.309 256.783 563.654 257.222C564.009 257.651 564.485 257.866 565.082 257.866ZM575.485 259H573.833L572.083 256.508L570.319 259H568.681L571.159 255.528L568.821 252.238H570.473L572.083 254.534L573.679 252.238H575.331L572.993 255.528L575.485 259Z" fill="white"/>
<path d="M353.884 259H352.134L350.314 252.112L348.508 259H346.758L344.084 249.662H345.918L347.738 256.858L349.67 249.662H350.972L352.904 256.858L354.71 249.662H356.544L353.884 259ZM358.326 251.412C358.084 251.412 357.869 251.323 357.682 251.146C357.505 250.969 357.416 250.754 357.416 250.502C357.416 250.25 357.505 250.035 357.682 249.858C357.869 249.681 358.084 249.592 358.326 249.592C358.578 249.592 358.793 249.681 358.97 249.858C359.148 250.035 359.236 250.25 359.236 250.502C359.236 250.754 359.148 250.969 358.97 251.146C358.793 251.323 358.578 251.412 358.326 251.412ZM359.068 259H357.598V252.238H359.068V259ZM363.005 259.168C362.436 259.168 362.002 259.019 361.703 258.72C361.414 258.421 361.269 257.992 361.269 257.432V253.526H360.149V252.238H361.269V250.39H362.739V252.238H364.111V253.526H362.739V257.068C362.739 257.311 362.795 257.507 362.907 257.656C363.019 257.796 363.178 257.866 363.383 257.866C363.682 257.866 363.901 257.787 364.041 257.628L364.391 258.734C364.083 259.023 363.621 259.168 363.005 259.168ZM371.494 259H370.024V254.744C370.024 254.249 369.903 253.899 369.66 253.694C369.427 253.479 369.091 253.372 368.652 253.372C368.307 253.372 367.98 253.461 367.672 253.638C367.364 253.815 367.112 254.03 366.916 254.282V259H365.446V249.662H366.916V253.162C367.168 252.863 367.504 252.607 367.924 252.392C368.353 252.177 368.815 252.07 369.31 252.07C370.766 252.07 371.494 252.784 371.494 254.212V259ZM376.455 259.168C375.41 259.168 374.57 258.827 373.935 258.146C373.301 257.455 372.983 256.611 372.983 255.612C372.983 254.613 373.301 253.773 373.935 253.092C374.57 252.411 375.41 252.07 376.455 252.07C377.51 252.07 378.355 252.411 378.989 253.092C379.624 253.773 379.941 254.613 379.941 255.612C379.941 256.62 379.624 257.465 378.989 258.146C378.355 258.827 377.51 259.168 376.455 259.168ZM376.455 257.866C377.062 257.866 377.538 257.651 377.883 257.222C378.238 256.783 378.415 256.247 378.415 255.612C378.415 254.987 378.238 254.459 377.883 254.03C377.538 253.591 377.062 253.372 376.455 253.372C375.858 253.372 375.382 253.591 375.027 254.03C374.682 254.459 374.509 254.987 374.509 255.612C374.509 256.247 374.682 256.783 375.027 257.222C375.382 257.651 375.858 257.866 376.455 257.866ZM387.463 259H385.993V258.104C385.358 258.813 384.56 259.168 383.599 259.168C382.152 259.168 381.429 258.454 381.429 257.026V252.238H382.899V256.494C382.899 256.989 383.015 257.343 383.249 257.558C383.482 257.763 383.818 257.866 384.257 257.866C384.611 257.866 384.943 257.782 385.251 257.614C385.559 257.446 385.806 257.236 385.993 256.984V252.238H387.463V259ZM391.402 259.168C390.833 259.168 390.399 259.019 390.1 258.72C389.811 258.421 389.666 257.992 389.666 257.432V253.526H388.546V252.238H389.666V250.39H391.136V252.238H392.508V253.526H391.136V257.068C391.136 257.311 391.192 257.507 391.304 257.656C391.416 257.796 391.575 257.866 391.78 257.866C392.079 257.866 392.298 257.787 392.438 257.628L392.788 258.734C392.48 259.023 392.018 259.168 391.402 259.168ZM400.672 259.168C399.067 259.168 397.802 258.673 396.878 257.684L397.788 256.424C398.591 257.283 399.576 257.712 400.742 257.712C401.368 257.712 401.834 257.586 402.142 257.334C402.46 257.082 402.618 256.783 402.618 256.438C402.618 256.083 402.432 255.803 402.058 255.598C401.685 255.383 401.232 255.215 400.7 255.094C400.168 254.973 399.632 254.828 399.09 254.66C398.558 254.492 398.106 254.207 397.732 253.806C397.359 253.405 397.172 252.887 397.172 252.252C397.172 251.468 397.485 250.819 398.11 250.306C398.745 249.783 399.566 249.522 400.574 249.522C402.012 249.522 403.178 249.956 404.074 250.824L403.136 252.042C402.427 251.333 401.526 250.978 400.434 250.978C399.949 250.978 399.562 251.085 399.272 251.3C398.992 251.505 398.852 251.785 398.852 252.14C398.852 252.373 398.95 252.569 399.146 252.728C399.352 252.887 399.613 253.017 399.93 253.12C400.248 253.213 400.598 253.307 400.98 253.4C401.372 253.493 401.76 253.61 402.142 253.75C402.534 253.881 402.889 254.044 403.206 254.24C403.524 254.436 403.78 254.707 403.976 255.052C404.182 255.397 404.284 255.808 404.284 256.284C404.284 257.124 403.981 257.815 403.374 258.356C402.768 258.897 401.867 259.168 400.672 259.168ZM411.351 259H409.881V258.272C409.358 258.869 408.63 259.168 407.697 259.168C407.081 259.168 406.535 258.972 406.059 258.58C405.583 258.179 405.345 257.628 405.345 256.928C405.345 256.209 405.578 255.663 406.045 255.29C406.521 254.917 407.071 254.73 407.697 254.73C408.658 254.73 409.386 255.019 409.881 255.598V254.59C409.881 254.198 409.736 253.89 409.447 253.666C409.157 253.442 408.775 253.33 408.299 253.33C407.543 253.33 406.875 253.615 406.297 254.184L405.695 253.162C406.46 252.434 407.407 252.07 408.537 252.07C409.367 252.07 410.044 252.266 410.567 252.658C411.089 253.05 411.351 253.671 411.351 254.52V259ZM408.271 258.16C409.008 258.16 409.545 257.927 409.881 257.46V256.438C409.545 255.971 409.008 255.738 408.271 255.738C407.851 255.738 407.505 255.85 407.235 256.074C406.964 256.298 406.829 256.592 406.829 256.956C406.829 257.32 406.964 257.614 407.235 257.838C407.505 258.053 407.851 258.16 408.271 258.16ZM419.291 259H417.821V254.772C417.821 253.839 417.368 253.372 416.463 253.372C416.108 253.372 415.777 253.461 415.469 253.638C415.161 253.815 414.913 254.03 414.727 254.282V259H413.257V252.238H414.727V253.162C414.979 252.863 415.315 252.607 415.735 252.392C416.155 252.177 416.612 252.07 417.107 252.07C417.825 252.07 418.367 252.257 418.731 252.63C419.104 253.003 419.291 253.54 419.291 254.24V259ZM427.43 259H425.96V258.076C425.4 258.804 424.677 259.168 423.79 259.168C422.903 259.168 422.18 258.851 421.62 258.216C421.06 257.581 420.78 256.718 420.78 255.626C420.78 254.543 421.06 253.68 421.62 253.036C422.18 252.392 422.903 252.07 423.79 252.07C424.677 252.07 425.4 252.439 425.96 253.176V249.662H427.43V259ZM424.21 257.866C424.555 257.866 424.891 257.782 425.218 257.614C425.545 257.446 425.792 257.231 425.96 256.97V254.282C425.792 254.021 425.545 253.806 425.218 253.638C424.891 253.461 424.555 253.372 424.21 253.372C423.631 253.372 423.169 253.582 422.824 254.002C422.479 254.422 422.306 254.963 422.306 255.626C422.306 256.289 422.479 256.83 422.824 257.25C423.169 257.661 423.631 257.866 424.21 257.866ZM430.805 256.97C430.963 257.222 431.206 257.437 431.533 257.614C431.869 257.782 432.205 257.866 432.541 257.866C433.119 257.866 433.581 257.661 433.927 257.25C434.281 256.83 434.459 256.289 434.459 255.626C434.459 254.963 434.281 254.422 433.927 254.002C433.581 253.582 433.119 253.372 432.541 253.372C432.205 253.372 431.873 253.461 431.547 253.638C431.22 253.815 430.973 254.035 430.805 254.296V256.97ZM430.805 259H429.335V249.662H430.805V253.176C431.355 252.439 432.079 252.07 432.975 252.07C433.852 252.07 434.571 252.397 435.131 253.05C435.691 253.694 435.971 254.553 435.971 255.626C435.971 256.718 435.691 257.581 435.131 258.216C434.571 258.851 433.852 259.168 432.975 259.168C432.088 259.168 431.365 258.804 430.805 258.076V259ZM440.522 259.168C439.476 259.168 438.636 258.827 438.002 258.146C437.367 257.455 437.05 256.611 437.05 255.612C437.05 254.613 437.367 253.773 438.002 253.092C438.636 252.411 439.476 252.07 440.522 252.07C441.576 252.07 442.421 252.411 443.056 253.092C443.69 253.773 444.008 254.613 444.008 255.612C444.008 256.62 443.69 257.465 443.056 258.146C442.421 258.827 441.576 259.168 440.522 259.168ZM440.522 257.866C441.128 257.866 441.604 257.651 441.95 257.222C442.304 256.783 442.482 256.247 442.482 255.612C442.482 254.987 442.304 254.459 441.95 254.03C441.604 253.591 441.128 253.372 440.522 253.372C439.924 253.372 439.448 253.591 439.094 254.03C438.748 254.459 438.576 254.987 438.576 255.612C438.576 256.247 438.748 256.783 439.094 257.222C439.448 257.651 439.924 257.866 440.522 257.866ZM450.925 259H449.273L447.523 256.508L445.759 259H444.121L446.599 255.528L444.261 252.238H445.913L447.523 254.534L449.119 252.238H450.771L448.433 255.528L450.925 259Z" fill="white"/>
<circle cx="273" cy="564" r="72" fill="#47475D" fill-opacity="0.6"/>
<circle cx="273.5" cy="564.5" r="63.5" fill="#47475D" fill-opacity="0.8"/>
<circle cx="273" cy="565" r="54" fill="url(#paint0_linear)" fill-opacity="0.6"/>
<circle cx="273.877" cy="565.815" r="3.57235" stroke="white" stroke-width="3"/>
<path fill-rule="evenodd" clip-rule="evenodd" d="M274.111 568.297C275.408 568.297 276.485 567.313 276.699 566.02C282.766 567.676 287.244 573.454 287.244 580.327C287.244 587.923 281.773 594.182 274.732 595.017C275.514 594.756 276.078 594.017 276.078 593.147C276.078 592.404 275.667 591.757 275.059 591.422C279.903 590.465 283.744 585.979 283.744 580.327C283.744 574.31 279.392 569.615 274.111 569.091V568.297H274.111ZM272.141 593.048H265.93C268.037 594.359 270.498 595.111 273.127 595.111C273.355 595.111 273.581 595.105 273.806 595.094C272.862 594.949 272.139 594.133 272.139 593.147C272.139 593.114 272.139 593.081 272.141 593.048Z" fill="white"/>
<path fill-rule="evenodd" clip-rule="evenodd" d="M272.88 538.886C272.43 538.525 272.142 537.971 272.142 537.349C272.142 536.361 272.87 535.543 273.818 535.401C273.587 535.389 273.355 535.383 273.121 535.383C265.324 535.383 259.004 542.146 259.004 550.488C259.004 558.237 264.457 564.624 271.481 565.493C271.531 563.989 272.684 562.786 274.101 562.783V562.044C273.778 562.077 273.45 562.094 273.121 562.094C267.477 562.094 262.504 557.125 262.504 550.488C262.504 543.947 267.336 539.025 272.88 538.886ZM274.738 535.481C276.27 535.668 277.728 536.117 279.07 536.786H276C275.817 536.172 275.343 535.684 274.738 535.481Z" fill="white"/>
<circle cx="273.877" cy="592.869" r="3.57235" stroke="white" stroke-width="3"/>
<circle cx="246.349" cy="565.689" r="3.84902" stroke="white" stroke-width="3"/>
<circle cx="274.286" cy="537.755" r="3.25468" stroke="white" stroke-width="3"/>
<circle cx="300.928" cy="565.815" r="3.57235" stroke="white" stroke-width="3"/>
<path fill-rule="evenodd" clip-rule="evenodd" d="M292.997 538.875H275.346C275.791 538.514 276.075 537.963 276.075 537.345C276.075 536.257 275.193 535.375 274.105 535.375H292.997C298.52 535.375 302.997 539.852 302.997 545.375V565.54C302.974 564.472 302.101 563.613 301.028 563.613C300.41 563.613 299.858 563.898 299.497 564.343V545.375C299.497 541.785 296.587 538.875 292.997 538.875ZM248.059 564.341V545.375C248.059 541.785 250.969 538.875 254.559 538.875H272.865C272.42 538.514 272.135 537.963 272.135 537.345C272.135 536.257 273.017 535.375 274.105 535.375H254.559C249.036 535.375 244.559 539.852 244.559 545.375V585.127C244.559 590.65 249.036 595.127 254.559 595.127H274.04C272.982 595.093 272.135 594.224 272.135 593.158C272.135 592.54 272.42 591.988 272.866 591.627H254.559C250.969 591.627 248.059 588.717 248.059 585.127V566.829C247.697 567.272 247.147 567.555 246.531 567.555C245.444 567.555 244.562 566.673 244.562 565.585C244.562 564.497 245.444 563.615 246.531 563.615C247.147 563.615 247.697 563.898 248.059 564.341ZM301.028 567.553C302.101 567.553 302.974 566.694 302.997 565.626V585.127C302.997 590.65 298.52 595.127 292.997 595.127H274.169C275.228 595.093 276.075 594.224 276.075 593.158C276.075 592.54 275.79 591.988 275.344 591.627H292.997C296.587 591.627 299.497 588.717 299.497 585.127V566.823C299.858 567.268 300.41 567.553 301.028 567.553Z" fill="white"/>
<g filter="url(#filter0_d)">
<rect x="452" y="504" width="464" height="124" rx="30" fill="url(#paint1_linear)"/>
</g>
<path d="M434.046 566.115C434.639 565.538 434.652 564.588 434.074 563.994L424.658 554.32C424.08 553.727 423.131 553.714 422.537 554.292C421.943 554.869 421.931 555.819 422.508 556.413L430.878 565.012L422.279 573.382C421.686 573.96 421.673 574.909 422.251 575.503C422.828 576.096 423.778 576.109 424.372 575.532L434.046 566.115ZM355.98 565.5L432.979 566.54L433.02 563.541L356.02 562.5L355.98 565.5Z" fill="#9A9AC6" fill-opacity="0.6"/>
<path d="M482.034 527L485.632 517.662H483.364L480.788 524.844L478.198 517.662H475.93L479.542 527H482.034ZM487.334 519.51C487.922 519.51 488.398 519.034 488.398 518.446C488.398 517.858 487.922 517.396 487.334 517.396C486.76 517.396 486.27 517.858 486.27 518.446C486.27 519.034 486.76 519.51 487.334 519.51ZM488.23 527V520.238H486.452V527H488.23ZM492.429 527.168C494.305 527.168 495.355 526.23 495.355 524.998C495.355 522.268 491.351 523.108 491.351 522.1C491.351 521.722 491.771 521.428 492.415 521.428C493.241 521.428 494.011 521.778 494.417 522.212L495.131 520.994C494.459 520.462 493.549 520.07 492.401 520.07C490.623 520.07 489.629 521.064 489.629 522.198C489.629 524.858 493.647 523.948 493.647 525.068C493.647 525.488 493.283 525.796 492.513 525.796C491.673 525.796 490.665 525.334 490.175 524.872L489.405 526.118C490.119 526.776 491.253 527.168 492.429 527.168ZM497.547 519.51C498.135 519.51 498.611 519.034 498.611 518.446C498.611 517.858 498.135 517.396 497.547 517.396C496.973 517.396 496.483 517.858 496.483 518.446C496.483 519.034 496.973 519.51 497.547 519.51ZM498.443 527V520.238H496.665V527H498.443ZM502.474 527.168C503.216 527.168 503.692 526.972 503.958 526.734L503.58 525.39C503.482 525.488 503.23 525.586 502.964 525.586C502.572 525.586 502.348 525.264 502.348 524.844V521.792H503.72V520.238H502.348V518.39H500.556V520.238H499.436V521.792H500.556V525.32C500.556 526.524 501.228 527.168 502.474 527.168ZM508.073 527.168C510.313 527.168 511.657 525.544 511.657 523.612C511.657 521.694 510.313 520.07 508.073 520.07C505.847 520.07 504.503 521.694 504.503 523.612C504.503 525.544 505.847 527.168 508.073 527.168ZM508.073 525.586C506.967 525.586 506.351 524.676 506.351 523.612C506.351 522.562 506.967 521.652 508.073 521.652C509.179 521.652 509.809 522.562 509.809 523.612C509.809 524.676 509.179 525.586 508.073 525.586ZM514.754 527V522.534C515.048 522.1 515.832 521.764 516.42 521.764C516.616 521.764 516.784 521.778 516.91 521.806V520.07C516.07 520.07 515.23 520.56 514.754 521.162V520.238H512.976V527H514.754ZM525.061 527.168C527.721 527.168 528.925 524.746 528.925 522.338C528.925 519.93 527.721 517.522 525.061 517.522C522.387 517.522 521.197 519.93 521.197 522.338C521.197 524.746 522.387 527.168 525.061 527.168ZM525.061 525.404C523.717 525.404 523.213 524.06 523.213 522.338C523.213 520.616 523.717 519.286 525.061 519.286C526.391 519.286 526.895 520.616 526.895 522.338C526.895 524.06 526.391 525.404 525.061 525.404ZM533.084 527.154C535.842 527.154 537.424 525.152 537.424 522.338C537.424 519.692 536.234 517.508 533.406 517.508C531.278 517.508 529.822 518.894 529.822 520.714C529.822 522.702 531.334 523.752 533.014 523.752C534.036 523.752 534.974 523.178 535.422 522.548C535.422 522.618 535.422 522.688 535.422 522.758C535.422 524.102 534.624 525.39 533.084 525.39C532.258 525.39 531.726 525.138 531.222 524.662L530.34 526.188C530.998 526.776 531.95 527.154 533.084 527.154ZM533.574 522.044C532.706 522.044 531.852 521.624 531.852 520.644C531.852 520 532.44 519.272 533.504 519.272C534.82 519.272 535.324 520.28 535.408 521.176C534.96 521.722 534.274 522.044 533.574 522.044ZM542.162 527.168C544.122 527.168 545.914 526.314 545.914 524.578C545.914 523.444 545.018 522.576 543.898 522.184C544.934 521.82 545.76 521.148 545.76 519.986C545.76 518.236 543.884 517.522 542.162 517.522C540.426 517.522 538.564 518.236 538.564 519.986C538.564 521.148 539.376 521.82 540.412 522.184C539.292 522.576 538.41 523.444 538.41 524.578C538.41 526.328 540.202 527.168 542.162 527.168ZM542.162 521.4C541.588 521.316 540.58 520.994 540.58 520.294C540.58 519.622 541.238 519.23 542.162 519.23C543.072 519.23 543.73 519.622 543.73 520.294C543.73 520.994 542.736 521.316 542.162 521.4ZM542.162 525.46C541.182 525.46 540.426 525.012 540.426 524.326C540.426 523.542 541.574 523.164 542.162 523.08C542.736 523.164 543.898 523.542 543.898 524.326C543.898 525.012 543.114 525.46 542.162 525.46ZM551.24 527V517.662H549.504L546.564 520.616L547.698 521.806L549.252 520.224V527H551.24ZM556.506 527.168C559.166 527.168 560.37 524.746 560.37 522.338C560.37 519.93 559.166 517.522 556.506 517.522C553.832 517.522 552.642 519.93 552.642 522.338C552.642 524.746 553.832 527.168 556.506 527.168ZM556.506 525.404C555.162 525.404 554.658 524.06 554.658 522.338C554.658 520.616 555.162 519.286 556.506 519.286C557.836 519.286 558.34 520.616 558.34 522.338C558.34 524.06 557.836 525.404 556.506 525.404ZM568.534 527V525.25H564.726C567.148 523.486 568.464 522.1 568.464 520.504C568.464 518.642 566.882 517.522 564.894 517.522C563.592 517.522 562.206 517.998 561.296 519.048L562.43 520.364C563.06 519.706 563.872 519.286 564.936 519.286C565.706 519.286 566.448 519.692 566.448 520.504C566.448 521.652 565.328 522.618 561.506 525.446V527H568.534Z" fill="white"/>
<rect x="476" y="534" width="93" height="2" rx="1" fill="white"/>
<path d="M590.789 578C587.554 578 584.538 577.059 582 575.436C584.155 575.575 587.958 575.241 590.324 572.985C586.765 572.822 585.16 570.092 584.951 568.926C585.253 569.043 586.695 569.183 587.509 568.856C583.416 567.83 582.788 564.237 582.927 563.141C583.695 563.677 584.997 563.864 585.509 563.817C581.695 561.088 583.067 556.983 583.742 556.096C586.479 559.889 590.581 562.019 595.656 562.137C595.561 561.717 595.51 561.28 595.51 560.832C595.51 557.611 598.113 555 601.325 555C603.003 555 604.514 555.713 605.576 556.853C606.697 556.59 608.384 555.975 609.209 555.443C608.793 556.936 607.499 558.181 606.716 558.643C606.722 558.659 606.71 558.627 606.716 558.643C607.404 558.539 609.265 558.181 610 557.683C609.636 558.521 608.264 559.916 607.138 560.696C607.347 569.938 600.276 578 590.789 578Z" fill="white"/>
<path d="M763.584 557.176C763.584 558.377 762.557 559.351 761.292 559.351C760.026 559.351 759 558.377 759 557.176C759 555.974 760.026 555 761.292 555C762.557 555 763.584 555.974 763.584 557.176Z" fill="white"/>
<path d="M759.313 560.95H763.231V573H759.313V560.95Z" fill="white"/>
<path d="M769.538 560.95H765.621V573H769.538C769.538 573 769.538 569.207 769.538 566.835C769.538 565.411 770.017 563.981 771.928 563.981C774.087 563.981 774.074 565.844 774.064 567.288C774.051 569.174 774.082 571.1 774.082 573H778V566.64C777.967 562.58 776.924 560.709 773.495 560.709C771.458 560.709 770.196 561.647 769.538 562.496V560.95Z" fill="white"/>
<path d="M865 560.5C865 561.328 864.328 562 863.5 562C862.672 562 862 561.328 862 560.5C862 559.672 862.672 559 863.5 559C864.328 559 865 559.672 865 560.5Z" fill="white"/>
<path fill-rule="evenodd" clip-rule="evenodd" d="M858 571C860.761 571 863 568.761 863 566C863 563.239 860.761 561 858 561C855.239 561 853 563.239 853 566C853 568.761 855.239 571 858 571ZM858 569C859.657 569 861 567.657 861 566C861 564.343 859.657 563 858 563C856.343 563 855 564.343 855 566C855 567.657 856.343 569 858 569Z" fill="white"/>
<path fill-rule="evenodd" clip-rule="evenodd" d="M848 565.6C848 562.24 848 560.56 848.654 559.276C849.229 558.147 850.147 557.229 851.276 556.654C852.56 556 854.24 556 857.6 556H858.4C861.76 556 863.44 556 864.724 556.654C865.853 557.229 866.771 558.147 867.346 559.276C868 560.56 868 562.24 868 565.6V566.4C868 569.76 868 571.44 867.346 572.724C866.771 573.853 865.853 574.771 864.724 575.346C863.44 576 861.76 576 858.4 576H857.6C854.24 576 852.56 576 851.276 575.346C850.147 574.771 849.229 573.853 848.654 572.724C848 571.44 848 569.76 848 566.4V565.6ZM857.6 558H858.4C860.113 558 861.278 558.002 862.178 558.075C863.055 558.147 863.503 558.277 863.816 558.436C864.569 558.819 865.181 559.431 865.564 560.184C865.723 560.497 865.853 560.945 865.925 561.822C865.998 562.722 866 563.887 866 565.6V566.4C866 568.113 865.998 569.278 865.925 570.178C865.853 571.055 865.723 571.503 865.564 571.816C865.181 572.569 864.569 573.181 863.816 573.564C863.503 573.723 863.055 573.853 862.178 573.925C861.278 573.998 860.113 574 858.4 574H857.6C855.887 574 854.722 573.998 853.822 573.925C852.945 573.853 852.497 573.723 852.184 573.564C851.431 573.181 850.819 572.569 850.436 571.816C850.277 571.503 850.147 571.055 850.075 570.178C850.002 569.278 850 568.113 850 566.4V565.6C850 563.887 850.002 562.722 850.075 561.822C850.147 560.945 850.277 560.497 850.436 560.184C850.819 559.431 851.431 558.819 852.184 558.436C852.497 558.277 852.945 558.147 853.822 558.075C854.722 558.002 855.887 558 857.6 558Z" fill="white"/>
<path d="M512.083 566.956L512.808 562.466H508.269V559.553C508.269 558.325 508.902 557.126 510.935 557.126H513V553.303C513 553.303 511.127 553 509.337 553C505.597 553 503.155 555.151 503.155 559.044V562.466H499V566.956H503.155V577.812C503.989 577.936 504.843 578 505.712 578C506.582 578 507.435 577.936 508.269 577.812V566.956H512.083Z" fill="white"/>
<path d="M685.387 559.917C686.467 558.031 685.826 555.618 683.955 554.529C682.084 553.44 679.691 554.086 678.611 555.973L670.533 570.081C669.452 571.967 670.093 574.379 671.964 575.469C673.836 576.558 676.228 575.911 677.308 574.025L685.387 559.917Z" fill="white" fill-opacity="0.6"/>
<path d="M677.826 572.055C677.826 574.234 676.074 576 673.913 576C671.752 576 670 574.234 670 572.055C670 569.876 671.752 568.109 673.913 568.109C676.074 568.109 677.826 569.876 677.826 572.055Z" fill="white" fill-opacity="0.8"/>
<path d="M678.622 559.917C677.542 558.031 678.183 555.618 680.054 554.529C681.925 553.44 684.318 554.086 685.398 555.973L693.477 570.081C694.557 571.967 693.916 574.379 692.045 575.469C690.174 576.558 687.781 575.911 686.701 574.025L678.622 559.917Z" fill="white"/>
<rect x="476" y="585" width="60" height="19" rx="6" fill="white" fill-opacity="0.05"/>
<rect x="476.5" y="585.5" width="59" height="18" rx="5.5" stroke="white" stroke-opacity="0.1"/>
<path d="M486.22 598.144C487.648 598.144 488.764 597.328 488.764 595.588V589.996H487.768V595.576C487.768 596.572 487.144 597.256 486.16 597.256C485.464 597.256 484.996 596.884 484.648 596.464L484.132 597.22C484.684 597.868 485.368 598.144 486.22 598.144ZM495.407 598V592.204H494.507V596.464C494.171 596.932 493.499 597.34 492.791 597.34C492.011 597.34 491.495 597.04 491.495 596.02V592.204H490.595V596.296C490.595 597.556 491.231 598.144 492.443 598.144C493.307 598.144 494.063 597.688 494.507 597.184V598H495.407ZM502.017 598V593.932C502.017 592.672 501.381 592.06 500.169 592.06C499.305 592.06 498.513 592.564 498.105 593.044V592.204H497.205V598H498.105V593.764C498.441 593.296 499.113 592.864 499.821 592.864C500.601 592.864 501.117 593.188 501.117 594.208V598H502.017ZM506.43 598.144C507.378 598.144 508.158 597.832 508.734 597.256L508.302 596.668C507.846 597.136 507.174 597.4 506.514 597.4C505.266 597.4 504.498 596.488 504.426 595.396H509.118V595.168C509.118 593.428 508.086 592.06 506.334 592.06C504.678 592.06 503.478 593.416 503.478 595.096C503.478 596.908 504.714 598.144 506.43 598.144ZM508.23 594.736H504.426C504.474 593.848 505.086 592.804 506.322 592.804C507.642 592.804 508.218 593.872 508.23 594.736ZM515.902 598V589.996H515.026L513.022 592.06L513.622 592.672L514.906 591.316V598H515.902ZM519.572 598.144C521.072 598.144 521.852 597.364 521.852 596.392C521.852 594.136 518.264 594.976 518.264 593.704C518.264 593.188 518.756 592.792 519.548 592.792C520.292 592.792 520.928 593.104 521.276 593.524L521.696 592.9C521.228 592.432 520.532 592.06 519.548 592.06C518.168 592.06 517.388 592.828 517.388 593.728C517.388 595.876 520.976 595.012 520.976 596.416C520.976 596.992 520.496 597.412 519.608 597.412C518.816 597.412 518.084 597.028 517.7 596.584L517.232 597.232C517.82 597.856 518.624 598.144 519.572 598.144ZM524.778 598.144C525.306 598.144 525.63 597.988 525.858 597.772L525.594 597.1C525.474 597.232 525.234 597.34 524.982 597.34C524.586 597.34 524.394 597.028 524.394 596.596V592.996H525.57V592.204H524.394V590.62H523.494V592.204H522.534V592.996H523.494V596.788C523.494 597.652 523.926 598.144 524.778 598.144Z" fill="white"/>
<rect x="560" y="585" width="60" height="19" rx="6" fill="white" fill-opacity="0.05"/>
<rect x="560.5" y="585.5" width="59" height="18" rx="5.5" stroke="white" stroke-opacity="0.1"/>
<path d="M568.22 598.144C569.648 598.144 570.764 597.328 570.764 595.588V589.996H569.768V595.576C569.768 596.572 569.144 597.256 568.16 597.256C567.464 597.256 566.996 596.884 566.648 596.464L566.132 597.22C566.684 597.868 567.368 598.144 568.22 598.144ZM577.407 598V592.204H576.507V596.464C576.171 596.932 575.499 597.34 574.791 597.34C574.011 597.34 573.495 597.04 573.495 596.02V592.204H572.595V596.296C572.595 597.556 573.231 598.144 574.443 598.144C575.307 598.144 576.063 597.688 576.507 597.184V598H577.407ZM584.017 598V593.932C584.017 592.672 583.381 592.06 582.169 592.06C581.305 592.06 580.513 592.564 580.105 593.044V592.204H579.205V598H580.105V593.764C580.441 593.296 581.113 592.864 581.821 592.864C582.601 592.864 583.117 593.188 583.117 594.208V598H584.017ZM588.43 598.144C589.378 598.144 590.158 597.832 590.734 597.256L590.302 596.668C589.846 597.136 589.174 597.4 588.514 597.4C587.266 597.4 586.498 596.488 586.426 595.396H591.118V595.168C591.118 593.428 590.086 592.06 588.334 592.06C586.678 592.06 585.478 593.416 585.478 595.096C585.478 596.908 586.714 598.144 588.43 598.144ZM590.23 594.736H586.426C586.474 593.848 587.086 592.804 588.322 592.804C589.642 592.804 590.218 593.872 590.23 594.736ZM599.954 598V595.972H601.082V595.096H599.954V589.996H598.586L595.154 595.144V595.972H598.958V598H599.954ZM598.958 595.096H596.15L598.958 590.92V595.096ZM603.825 598.144C604.353 598.144 604.677 597.988 604.905 597.772L604.641 597.1C604.521 597.232 604.281 597.34 604.029 597.34C603.633 597.34 603.441 597.028 603.441 596.596V592.996H604.617V592.204H603.441V590.62H602.541V592.204H601.581V592.996H602.541V596.788C602.541 597.652 602.973 598.144 603.825 598.144ZM610.712 598V593.908C610.712 592.648 610.076 592.06 608.864 592.06C607.988 592.06 607.196 592.564 606.788 593.044V589.996H605.888V598H606.788V593.764C607.136 593.296 607.808 592.864 608.504 592.864C609.284 592.864 609.812 593.164 609.812 594.184V598H610.712Z" fill="white"/>
<rect x="652" y="585" width="60" height="19" rx="6" fill="white" fill-opacity="0.05"/>
<rect x="652.5" y="585.5" width="59" height="18" rx="5.5" stroke="white" stroke-opacity="0.1"/>
<path d="M660.22 598.144C661.648 598.144 662.764 597.328 662.764 595.588V589.996H661.768V595.576C661.768 596.572 661.144 597.256 660.16 597.256C659.464 597.256 658.996 596.884 658.648 596.464L658.132 597.22C658.684 597.868 659.368 598.144 660.22 598.144ZM669.407 598V592.204H668.507V596.464C668.171 596.932 667.499 597.34 666.791 597.34C666.011 597.34 665.495 597.04 665.495 596.02V592.204H664.595V596.296C664.595 597.556 665.231 598.144 666.443 598.144C667.307 598.144 668.063 597.688 668.507 597.184V598H669.407ZM676.017 598V593.932C676.017 592.672 675.381 592.06 674.169 592.06C673.305 592.06 672.513 592.564 672.105 593.044V592.204H671.205V598H672.105V593.764C672.441 593.296 673.113 592.864 673.821 592.864C674.601 592.864 675.117 593.188 675.117 594.208V598H676.017ZM680.43 598.144C681.378 598.144 682.158 597.832 682.734 597.256L682.302 596.668C681.846 597.136 681.174 597.4 680.514 597.4C679.266 597.4 678.498 596.488 678.426 595.396H683.118V595.168C683.118 593.428 682.086 592.06 680.334 592.06C678.678 592.06 677.478 593.416 677.478 595.096C677.478 596.908 678.714 598.144 680.43 598.144ZM682.23 594.736H678.426C678.474 593.848 679.086 592.804 680.322 592.804C681.642 592.804 682.218 593.872 682.23 594.736ZM690.382 598.144C691.99 598.144 693.226 597.136 693.226 595.504C693.226 593.86 692.014 592.948 690.682 592.948C689.878 592.948 689.194 593.284 688.81 593.668V590.884H692.71V589.996H687.814V594.316L688.546 594.568C689.086 594.04 689.686 593.812 690.394 593.812C691.474 593.812 692.23 594.484 692.23 595.54C692.23 596.512 691.474 597.256 690.382 597.256C689.398 597.256 688.702 596.872 688.174 596.2L687.562 596.86C688.162 597.652 689.026 598.144 690.382 598.144ZM696.212 598.144C696.74 598.144 697.064 597.988 697.292 597.772L697.028 597.1C696.908 597.232 696.668 597.34 696.416 597.34C696.02 597.34 695.828 597.028 695.828 596.596V592.996H697.004V592.204H695.828V590.62H694.928V592.204H693.968V592.996H694.928V596.788C694.928 597.652 695.36 598.144 696.212 598.144ZM703.099 598V593.908C703.099 592.648 702.463 592.06 701.251 592.06C700.375 592.06 699.583 592.564 699.175 593.044V589.996H698.275V598H699.175V593.764C699.523 593.296 700.195 592.864 700.891 592.864C701.671 592.864 702.199 593.164 702.199 594.184V598H703.099Z" fill="white"/>
<rect x="739" y="585" width="60" height="19" rx="6" fill="white" fill-opacity="0.05"/>
<rect x="739.5" y="585.5" width="59" height="18" rx="5.5" stroke="white" stroke-opacity="0.1"/>
<path d="M746.22 598.144C747.648 598.144 748.764 597.328 748.764 595.588V589.996H747.768V595.576C747.768 596.572 747.144 597.256 746.16 597.256C745.464 597.256 744.996 596.884 744.648 596.464L744.132 597.22C744.684 597.868 745.368 598.144 746.22 598.144ZM755.407 598V592.204H754.507V596.464C754.171 596.932 753.499 597.34 752.791 597.34C752.011 597.34 751.495 597.04 751.495 596.02V592.204H750.595V596.296C750.595 597.556 751.231 598.144 752.443 598.144C753.307 598.144 754.063 597.688 754.507 597.184V598H755.407ZM762.017 598V593.932C762.017 592.672 761.381 592.06 760.169 592.06C759.305 592.06 758.513 592.564 758.105 593.044V592.204H757.205V598H758.105V593.764C758.441 593.296 759.113 592.864 759.821 592.864C760.601 592.864 761.117 593.188 761.117 594.208V598H762.017ZM766.43 598.144C767.378 598.144 768.158 597.832 768.734 597.256L768.302 596.668C767.846 597.136 767.174 597.4 766.514 597.4C765.266 597.4 764.498 596.488 764.426 595.396H769.118V595.168C769.118 593.428 768.086 592.06 766.334 592.06C764.678 592.06 763.478 593.416 763.478 595.096C763.478 596.908 764.714 598.144 766.43 598.144ZM768.23 594.736H764.426C764.474 593.848 765.086 592.804 766.322 592.804C767.642 592.804 768.218 593.872 768.23 594.736ZM778.914 598V597.112H774.99C777.222 595.348 778.878 593.86 778.878 592.228C778.878 590.632 777.522 589.876 776.19 589.876C775.062 589.876 774.018 590.332 773.406 591.136L774.018 591.772C774.486 591.172 775.23 590.764 776.19 590.764C777.018 590.764 777.858 591.208 777.858 592.228C777.858 593.608 776.298 594.94 773.418 597.208V598H778.914ZM782.956 598V589.996H782.08L780.076 592.06L780.676 592.672L781.96 591.316V598H782.956ZM786.627 598.144C788.127 598.144 788.907 597.364 788.907 596.392C788.907 594.136 785.319 594.976 785.319 593.704C785.319 593.188 785.811 592.792 786.603 592.792C787.347 592.792 787.983 593.104 788.331 593.524L788.751 592.9C788.283 592.432 787.587 592.06 786.603 592.06C785.223 592.06 784.443 592.828 784.443 593.728C784.443 595.876 788.031 595.012 788.031 596.416C788.031 596.992 787.551 597.412 786.663 597.412C785.871 597.412 785.139 597.028 784.755 596.584L784.287 597.232C784.875 597.856 785.679 598.144 786.627 598.144ZM791.833 598.144C792.361 598.144 792.685 597.988 792.913 597.772L792.649 597.1C792.529 597.232 792.289 597.34 792.037 597.34C791.641 597.34 791.449 597.028 791.449 596.596V592.996H792.625V592.204H791.449V590.62H790.549V592.204H789.589V592.996H790.549V596.788C790.549 597.652 790.981 598.144 791.833 598.144Z" fill="white"/>
<rect x="828" y="585" width="60" height="19" rx="6" fill="white" fill-opacity="0.05"/>
<rect x="828.5" y="585.5" width="59" height="18" rx="5.5" stroke="white" stroke-opacity="0.1"/>
<path d="M833.22 598.144C834.648 598.144 835.764 597.328 835.764 595.588V589.996H834.768V595.576C834.768 596.572 834.144 597.256 833.16 597.256C832.464 597.256 831.996 596.884 831.648 596.464L831.132 597.22C831.684 597.868 832.368 598.144 833.22 598.144ZM842.407 598V592.204H841.507V596.464C841.171 596.932 840.499 597.34 839.791 597.34C839.011 597.34 838.495 597.04 838.495 596.02V592.204H837.595V596.296C837.595 597.556 838.231 598.144 839.443 598.144C840.307 598.144 841.063 597.688 841.507 597.184V598H842.407ZM849.017 598V593.932C849.017 592.672 848.381 592.06 847.169 592.06C846.305 592.06 845.513 592.564 845.105 593.044V592.204H844.205V598H845.105V593.764C845.441 593.296 846.113 592.864 846.821 592.864C847.601 592.864 848.117 593.188 848.117 594.208V598H849.017ZM853.43 598.144C854.378 598.144 855.158 597.832 855.734 597.256L855.302 596.668C854.846 597.136 854.174 597.4 853.514 597.4C852.266 597.4 851.498 596.488 851.426 595.396H856.118V595.168C856.118 593.428 855.086 592.06 853.334 592.06C851.678 592.06 850.478 593.416 850.478 595.096C850.478 596.908 851.714 598.144 853.43 598.144ZM855.23 594.736H851.426C851.474 593.848 852.086 592.804 853.322 592.804C854.642 592.804 855.218 593.872 855.23 594.736ZM865.914 598V597.112H861.99C864.222 595.348 865.878 593.86 865.878 592.228C865.878 590.632 864.522 589.876 863.19 589.876C862.062 589.876 861.018 590.332 860.406 591.136L861.018 591.772C861.486 591.172 862.23 590.764 863.19 590.764C864.018 590.764 864.858 591.208 864.858 592.228C864.858 593.608 863.298 594.94 860.418 597.208V598H865.914ZM872.008 598V595.972H873.136V595.096H872.008V589.996H870.64L867.208 595.144V595.972H871.012V598H872.008ZM871.012 595.096H868.204L871.012 590.92V595.096ZM875.88 598.144C876.408 598.144 876.732 597.988 876.96 597.772L876.696 597.1C876.576 597.232 876.336 597.34 876.084 597.34C875.688 597.34 875.496 597.028 875.496 596.596V592.996H876.672V592.204H875.496V590.62H874.596V592.204H873.636V592.996H874.596V596.788C874.596 597.652 875.028 598.144 875.88 598.144ZM882.767 598V593.908C882.767 592.648 882.131 592.06 880.919 592.06C880.043 592.06 879.251 592.564 878.843 593.044V589.996H877.943V598H878.843V593.764C879.191 593.296 879.863 592.864 880.559 592.864C881.339 592.864 881.867 593.164 881.867 594.184V598H882.767Z" fill="white"/>
<rect x="68.5195" y="343.23" width="2" height="230.817" transform="rotate(-47.0868 68.5195 343.23)" fill="#9A9AC6" fill-opacity="0.6"/>
<rect x="69" y="450.695" width="2" height="160.152" transform="rotate(-57.8542 69 450.695)" fill="#9A9AC6" fill-opacity="0.6"/>
<rect width="1.85455" height="233.345" transform="matrix(0.810449 0.58581 0.700675 -0.71348 66.1797 788.074)" fill="#9A9AC6" fill-opacity="0.6"/>
<rect width="1.80297" height="159.207" transform="matrix(0.590223 0.80724 0.879866 -0.475221 68 673.656)" fill="#9A9AC6" fill-opacity="0.6"/>
<rect y="307" width="72" height="73" rx="10" fill="#47475D"/>
<path d="M42.0171 345.073L42.7945 340.223H37.9315V337.078C37.9315 335.751 38.6096 334.456 40.7877 334.456H43V330.328C43 330.328 40.9931 330 39.0753 330C35.0685 330 32.4521 332.323 32.4521 336.527V340.223H28V345.073H32.4521V356.797C33.3459 356.931 34.2603 357 35.1918 357C36.1233 357 37.0377 356.931 37.9315 356.797V345.073H42.0171Z" fill="white" fill-opacity="0.6"/>
<rect y="417" width="72" height="73" rx="10" fill="#47475D"/>
<path d="M30.7887 465C27.5537 465 24.5382 464.059 22 462.436C24.155 462.575 27.9581 462.241 30.3236 459.985C26.7651 459.822 25.1603 457.092 24.9509 455.926C25.2533 456.043 26.6953 456.183 27.5093 455.856C23.4159 454.83 22.7879 451.237 22.9275 450.141C23.695 450.677 24.9975 450.864 25.5091 450.817C21.6948 448.088 23.067 443.983 23.7415 443.096C26.4788 446.889 30.5812 449.019 35.6564 449.137C35.5607 448.717 35.5102 448.28 35.5102 447.832C35.5102 444.611 38.1134 442 41.3247 442C43.0025 442 44.5144 442.713 45.5757 443.853C46.6969 443.59 48.3843 442.975 49.2092 442.443C48.7934 443.936 47.4989 445.181 46.7159 445.643C46.7224 445.659 46.7095 445.627 46.7159 445.643C47.4037 445.539 49.2648 445.181 50 444.683C49.6364 445.521 48.264 446.916 47.1377 447.696C47.3473 456.938 40.2765 465 30.7887 465Z" fill="white" fill-opacity="0.6"/>
<rect x="68.6719" y="565.996" width="2" height="131.327" transform="rotate(-89.9607 68.6719 565.996)" fill="#9A9AC6" fill-opacity="0.6"/>
<rect y="527" width="72" height="73" rx="10" fill="#47475D"/>
<path d="M39.3868 561.917C40.4671 560.031 39.826 557.618 37.9549 556.529C36.0838 555.44 33.6913 556.086 32.611 557.973L24.5326 572.081C23.4523 573.967 24.0934 576.379 25.9645 577.469C27.8356 578.558 30.2281 577.911 31.3084 576.025L39.3868 561.917Z" fill="white" fill-opacity="0.4"/>
<path d="M31.8263 574.055C31.8263 576.234 30.0743 578 27.9131 578C25.752 578 24 576.234 24 574.055C24 571.876 25.752 570.109 27.9131 570.109C30.0743 570.109 31.8263 571.876 31.8263 574.055Z" fill="white" fill-opacity="0.6"/>
<path d="M32.6224 561.917C31.5421 560.031 32.1832 557.618 34.0543 556.529C35.9254 555.44 38.318 556.086 39.3983 557.973L47.4767 572.081C48.557 573.967 47.9159 576.379 46.0448 577.469C44.1737 578.558 41.7811 577.911 40.7009 576.025L32.6224 561.917Z" fill="white" fill-opacity="0.8"/>
<rect y="747" width="72" height="73" rx="10" fill="#47475D"/>
<path d="M43 778.5C43 779.328 42.3284 780 41.5 780C40.6716 780 40 779.328 40 778.5C40 777.672 40.6716 777 41.5 777C42.3284 777 43 777.672 43 778.5Z" fill="white" fill-opacity="0.6"/>
<path fill-rule="evenodd" clip-rule="evenodd" d="M36 789C38.7614 789 41 786.761 41 784C41 781.239 38.7614 779 36 779C33.2386 779 31 781.239 31 784C31 786.761 33.2386 789 36 789ZM36 787C37.6569 787 39 785.657 39 784C39 782.343 37.6569 781 36 781C34.3431 781 33 782.343 33 784C33 785.657 34.3431 787 36 787Z" fill="white" fill-opacity="0.6"/>
<path fill-rule="evenodd" clip-rule="evenodd" d="M26 783.6C26 780.24 26 778.56 26.654 777.276C27.2292 776.147 28.1471 775.229 29.2761 774.654C30.5595 774 32.2397 774 35.6 774H36.4C39.7603 774 41.4405 774 42.7239 774.654C43.8529 775.229 44.7708 776.147 45.346 777.276C46 778.56 46 780.24 46 783.6V784.4C46 787.76 46 789.44 45.346 790.724C44.7708 791.853 43.8529 792.771 42.7239 793.346C41.4405 794 39.7603 794 36.4 794H35.6C32.2397 794 30.5595 794 29.2761 793.346C28.1471 792.771 27.2292 791.853 26.654 790.724C26 789.44 26 787.76 26 784.4V783.6ZM35.6 776H36.4C38.1132 776 39.2777 776.002 40.1779 776.075C41.0548 776.147 41.5032 776.277 41.816 776.436C42.5686 776.819 43.1805 777.431 43.564 778.184C43.7234 778.497 43.8533 778.945 43.9249 779.822C43.9984 780.722 44 781.887 44 783.6V784.4C44 786.113 43.9984 787.278 43.9249 788.178C43.8533 789.055 43.7234 789.503 43.564 789.816C43.1805 790.569 42.5686 791.181 41.816 791.564C41.5032 791.723 41.0548 791.853 40.1779 791.925C39.2777 791.998 38.1132 792 36.4 792H35.6C33.8868 792 32.7223 791.998 31.8221 791.925C30.9452 791.853 30.4968 791.723 30.184 791.564C29.4314 791.181 28.8195 790.569 28.436 789.816C28.2766 789.503 28.1467 789.055 28.0751 788.178C28.0016 787.278 28 786.113 28 784.4V783.6C28 781.887 28.0016 780.722 28.0751 779.822C28.1467 778.945 28.2766 778.497 28.436 778.184C28.8195 777.431 29.4314 776.819 30.184 776.436C30.4968 776.277 30.9452 776.147 31.8221 776.075C32.7223 776.002 33.8868 776 35.6 776Z" fill="white" fill-opacity="0.6"/>
<rect y="637" width="72" height="73" rx="10" fill="#47475D"/>
<path d="M30.5835 667.176C30.5835 668.377 29.5575 669.351 28.2918 669.351C27.0261 669.351 26 668.377 26 667.176C26 665.974 27.0261 665 28.2918 665C29.5575 665 30.5835 665.974 30.5835 667.176Z" fill="white" fill-opacity="0.6"/>
<path d="M26.3134 670.95H30.2309V683H26.3134V670.95Z" fill="white" fill-opacity="0.6"/>
<path d="M36.5381 670.95H32.6206V683H36.5381C36.5381 683 36.5381 679.207 36.5381 676.835C36.5381 675.411 37.017 673.981 38.9278 673.981C41.0873 673.981 41.0743 675.844 41.0642 677.288C41.0511 679.174 41.0825 681.1 41.0825 683H45V676.64C44.9668 672.58 43.9244 670.709 40.4948 670.709C38.4582 670.709 37.1957 671.647 36.5381 672.496V670.95Z" fill="white" fill-opacity="0.6"/>
<defs>
<filter id="filter0_d" x="367" y="419" width="634" height="294" filterUnits="userSpaceOnUse" color-interpolation-filters="sRGB">
<feFlood flood-opacity="0" result="BackgroundImageFix"/>
<feColorMatrix in="SourceAlpha" type="matrix" values="0 0 0 0 0 0 0 0 0 0 0 0 0 0 0 0 0 0 127 0" result="hardAlpha"/>
<feMorphology radius="5" operator="dilate" in="SourceAlpha" result="effect1_dropShadow"/>
<feOffset/>
<feGaussianBlur stdDeviation="40"/>
<feComposite in2="hardAlpha" operator="out"/>
<feColorMatrix type="matrix" values="0 0 0 0 0.466667 0 0 0 0 0.411765 0 0 0 0 0.956863 0 0 0 0.5 0"/>
<feBlend mode="normal" in2="BackgroundImageFix" result="effect1_dropShadow"/>
<feBlend mode="normal" in="SourceGraphic" in2="effect1_dropShadow" result="shape"/>
</filter>
<linearGradient id="paint0_linear" x1="239.01" y1="570.268" x2="303.65" y2="567.834" gradientUnits="userSpaceOnUse">
<stop stop-color="#265DE3"/>
<stop offset="1" stop-color="#AF71FF"/>
</linearGradient>
<linearGradient id="paint1_linear" x1="452" y1="630.974" x2="675.669" y2="327.102" gradientUnits="userSpaceOnUse">
<stop stop-color="#265DE3"/>
<stop offset="1" stop-color="#AF71FF"/>
</linearGradient>
</defs>
</svg>
