<svg width="1016" height="513" viewBox="0 0 1016 513" fill="none" xmlns="http://www.w3.org/2000/svg">
<circle cx="273" cy="257" r="72" fill="#47475D" fill-opacity="0.6"/>
<circle cx="273.5" cy="257.5" r="63.5" fill="#47475D" fill-opacity="0.8"/>
<circle cx="273" cy="258" r="54" fill="url(#paint0_linear)" fill-opacity="0.6"/>
<path d="M434.046 259.115C434.639 258.538 434.652 257.588 434.074 256.994L424.658 247.32C424.08 246.727 423.131 246.714 422.537 247.292C421.943 247.869 421.931 248.819 422.508 249.413L430.878 258.012L422.279 266.382C421.686 266.96 421.673 267.909 422.251 268.503C422.828 269.096 423.778 269.109 424.372 268.532L434.046 259.115ZM355.98 258.5L432.979 259.54L433.02 256.541L356.02 255.5L355.98 258.5Z" fill="#9A9AC6" fill-opacity="0.6"/>
<g filter="url(#filter0_d)">
<rect x="467" y="162" width="464" height="190" rx="30" fill="url(#paint1_linear)"/>
<rect x="468" y="163" width="462" height="188" rx="29" stroke="url(#paint2_linear)" stroke-width="2"/>
</g>
<path d="M496.034 202L499.632 192.662H497.364L494.788 199.844L492.198 192.662H489.93L493.542 202H496.034ZM501.334 194.51C501.922 194.51 502.398 194.034 502.398 193.446C502.398 192.858 501.922 192.396 501.334 192.396C500.76 192.396 500.27 192.858 500.27 193.446C500.27 194.034 500.76 194.51 501.334 194.51ZM502.23 202V195.238H500.452V202H502.23ZM506.429 202.168C508.305 202.168 509.355 201.23 509.355 199.998C509.355 197.268 505.351 198.108 505.351 197.1C505.351 196.722 505.771 196.428 506.415 196.428C507.241 196.428 508.011 196.778 508.417 197.212L509.131 195.994C508.459 195.462 507.549 195.07 506.401 195.07C504.623 195.07 503.629 196.064 503.629 197.198C503.629 199.858 507.647 198.948 507.647 200.068C507.647 200.488 507.283 200.796 506.513 200.796C505.673 200.796 504.665 200.334 504.175 199.872L503.405 201.118C504.119 201.776 505.253 202.168 506.429 202.168ZM511.547 194.51C512.135 194.51 512.611 194.034 512.611 193.446C512.611 192.858 512.135 192.396 511.547 192.396C510.973 192.396 510.483 192.858 510.483 193.446C510.483 194.034 510.973 194.51 511.547 194.51ZM512.443 202V195.238H510.665V202H512.443ZM516.474 202.168C517.216 202.168 517.692 201.972 517.958 201.734L517.58 200.39C517.482 200.488 517.23 200.586 516.964 200.586C516.572 200.586 516.348 200.264 516.348 199.844V196.792H517.72V195.238H516.348V193.39H514.556V195.238H513.436V196.792H514.556V200.32C514.556 201.524 515.228 202.168 516.474 202.168ZM522.073 202.168C524.313 202.168 525.657 200.544 525.657 198.612C525.657 196.694 524.313 195.07 522.073 195.07C519.847 195.07 518.503 196.694 518.503 198.612C518.503 200.544 519.847 202.168 522.073 202.168ZM522.073 200.586C520.967 200.586 520.351 199.676 520.351 198.612C520.351 197.562 520.967 196.652 522.073 196.652C523.179 196.652 523.809 197.562 523.809 198.612C523.809 199.676 523.179 200.586 522.073 200.586ZM528.754 202V197.534C529.048 197.1 529.832 196.764 530.42 196.764C530.616 196.764 530.784 196.778 530.91 196.806V195.07C530.07 195.07 529.23 195.56 528.754 196.162V195.238H526.976V202H528.754ZM539.061 202.168C541.721 202.168 542.925 199.746 542.925 197.338C542.925 194.93 541.721 192.522 539.061 192.522C536.387 192.522 535.197 194.93 535.197 197.338C535.197 199.746 536.387 202.168 539.061 202.168ZM539.061 200.404C537.717 200.404 537.213 199.06 537.213 197.338C537.213 195.616 537.717 194.286 539.061 194.286C540.391 194.286 540.895 195.616 540.895 197.338C540.895 199.06 540.391 200.404 539.061 200.404ZM547.084 202.154C549.842 202.154 551.424 200.152 551.424 197.338C551.424 194.692 550.234 192.508 547.406 192.508C545.278 192.508 543.822 193.894 543.822 195.714C543.822 197.702 545.334 198.752 547.014 198.752C548.036 198.752 548.974 198.178 549.422 197.548C549.422 197.618 549.422 197.688 549.422 197.758C549.422 199.102 548.624 200.39 547.084 200.39C546.258 200.39 545.726 200.138 545.222 199.662L544.34 201.188C544.998 201.776 545.95 202.154 547.084 202.154ZM547.574 197.044C546.706 197.044 545.852 196.624 545.852 195.644C545.852 195 546.44 194.272 547.504 194.272C548.82 194.272 549.324 195.28 549.408 196.176C548.96 196.722 548.274 197.044 547.574 197.044ZM556.162 202.168C558.122 202.168 559.914 201.314 559.914 199.578C559.914 198.444 559.018 197.576 557.898 197.184C558.934 196.82 559.76 196.148 559.76 194.986C559.76 193.236 557.884 192.522 556.162 192.522C554.426 192.522 552.564 193.236 552.564 194.986C552.564 196.148 553.376 196.82 554.412 197.184C553.292 197.576 552.41 198.444 552.41 199.578C552.41 201.328 554.202 202.168 556.162 202.168ZM556.162 196.4C555.588 196.316 554.58 195.994 554.58 195.294C554.58 194.622 555.238 194.23 556.162 194.23C557.072 194.23 557.73 194.622 557.73 195.294C557.73 195.994 556.736 196.316 556.162 196.4ZM556.162 200.46C555.182 200.46 554.426 200.012 554.426 199.326C554.426 198.542 555.574 198.164 556.162 198.08C556.736 198.164 557.898 198.542 557.898 199.326C557.898 200.012 557.114 200.46 556.162 200.46ZM565.24 202V192.662H563.504L560.564 195.616L561.698 196.806L563.252 195.224V202H565.24ZM570.506 202.168C573.166 202.168 574.37 199.746 574.37 197.338C574.37 194.93 573.166 192.522 570.506 192.522C567.832 192.522 566.642 194.93 566.642 197.338C566.642 199.746 567.832 202.168 570.506 202.168ZM570.506 200.404C569.162 200.404 568.658 199.06 568.658 197.338C568.658 195.616 569.162 194.286 570.506 194.286C571.836 194.286 572.34 195.616 572.34 197.338C572.34 199.06 571.836 200.404 570.506 200.404ZM582.534 202V200.25H578.726C581.148 198.486 582.464 197.1 582.464 195.504C582.464 193.642 580.882 192.522 578.894 192.522C577.592 192.522 576.206 192.998 575.296 194.048L576.43 195.364C577.06 194.706 577.872 194.286 578.936 194.286C579.706 194.286 580.448 194.692 580.448 195.504C580.448 196.652 579.328 197.618 575.506 200.446V202H582.534Z" fill="white"/>
<rect x="490" y="209" width="93" height="2" rx="1" fill="white"/>
<path d="M607.789 253C604.554 253 601.538 252.059 599 250.436C601.155 250.575 604.958 250.241 607.324 247.985C603.765 247.822 602.16 245.092 601.951 243.926C602.253 244.043 603.695 244.183 604.509 243.856C600.416 242.83 599.788 239.237 599.927 238.141C600.695 238.677 601.997 238.864 602.509 238.817C598.695 236.088 600.067 231.983 600.742 231.096C603.479 234.889 607.581 237.019 612.656 237.137C612.561 236.717 612.51 236.28 612.51 235.832C612.51 232.611 615.113 230 618.325 230C620.003 230 621.514 230.713 622.576 231.853C623.697 231.59 625.384 230.975 626.209 230.443C625.793 231.936 624.499 233.181 623.716 233.643C623.722 233.659 623.71 233.627 623.716 233.643C624.404 233.539 626.265 233.181 627 232.683C626.636 233.521 625.264 234.916 624.138 235.696C624.347 244.938 617.276 253 607.789 253Z" fill="white"/>
<path d="M779.584 232.176C779.584 233.377 778.557 234.351 777.292 234.351C776.026 234.351 775 233.377 775 232.176C775 230.974 776.026 230 777.292 230C778.557 230 779.584 230.974 779.584 232.176Z" fill="white"/>
<path d="M775.313 235.95H779.231V248H775.313V235.95Z" fill="white"/>
<path d="M785.538 235.95H781.621V248H785.538C785.538 248 785.538 244.207 785.538 241.835C785.538 240.411 786.017 238.981 787.928 238.981C790.087 238.981 790.074 240.844 790.064 242.288C790.051 244.174 790.082 246.1 790.082 248H794V241.64C793.967 237.58 792.924 235.709 789.495 235.709C787.458 235.709 786.196 236.647 785.538 237.496V235.95Z" fill="white"/>
<path d="M879 235.5C879 236.328 878.328 237 877.5 237C876.672 237 876 236.328 876 235.5C876 234.672 876.672 234 877.5 234C878.328 234 879 234.672 879 235.5Z" fill="white"/>
<path fill-rule="evenodd" clip-rule="evenodd" d="M872 246C874.761 246 877 243.761 877 241C877 238.239 874.761 236 872 236C869.239 236 867 238.239 867 241C867 243.761 869.239 246 872 246ZM872 244C873.657 244 875 242.657 875 241C875 239.343 873.657 238 872 238C870.343 238 869 239.343 869 241C869 242.657 870.343 244 872 244Z" fill="white"/>
<path fill-rule="evenodd" clip-rule="evenodd" d="M862 240.6C862 237.24 862 235.56 862.654 234.276C863.229 233.147 864.147 232.229 865.276 231.654C866.56 231 868.24 231 871.6 231H872.4C875.76 231 877.44 231 878.724 231.654C879.853 232.229 880.771 233.147 881.346 234.276C882 235.56 882 237.24 882 240.6V241.4C882 244.76 882 246.44 881.346 247.724C880.771 248.853 879.853 249.771 878.724 250.346C877.44 251 875.76 251 872.4 251H871.6C868.24 251 866.56 251 865.276 250.346C864.147 249.771 863.229 248.853 862.654 247.724C862 246.44 862 244.76 862 241.4V240.6ZM871.6 233H872.4C874.113 233 875.278 233.002 876.178 233.075C877.055 233.147 877.503 233.277 877.816 233.436C878.569 233.819 879.181 234.431 879.564 235.184C879.723 235.497 879.853 235.945 879.925 236.822C879.998 237.722 880 238.887 880 240.6V241.4C880 243.113 879.998 244.278 879.925 245.178C879.853 246.055 879.723 246.503 879.564 246.816C879.181 247.569 878.569 248.181 877.816 248.564C877.503 248.723 877.055 248.853 876.178 248.925C875.278 248.998 874.113 249 872.4 249H871.6C869.887 249 868.722 248.998 867.822 248.925C866.945 248.853 866.497 248.723 866.184 248.564C865.431 248.181 864.819 247.569 864.436 246.816C864.277 246.503 864.147 246.055 864.075 245.178C864.002 244.278 864 243.113 864 241.4V240.6C864 238.887 864.002 237.722 864.075 236.822C864.147 235.945 864.277 235.497 864.436 235.184C864.819 234.431 865.431 233.819 866.184 233.436C866.497 233.277 866.945 233.147 867.822 233.075C868.722 233.002 869.887 233 871.6 233Z" fill="white"/>
<path d="M526.083 241.956L526.808 237.466H522.269V234.553C522.269 233.325 522.902 232.126 524.935 232.126H527V228.303C527 228.303 525.127 228 523.337 228C519.597 228 517.155 230.151 517.155 234.044V237.466H513V241.956H517.155V252.812C517.989 252.936 518.843 253 519.712 253C520.582 253 521.435 252.936 522.269 252.812V241.956H526.083Z" fill="white"/>
<path d="M699.385 234.917C700.465 233.031 699.824 230.618 697.953 229.529C696.082 228.44 693.689 229.086 692.609 230.973L684.531 245.081C683.45 246.967 684.091 249.379 685.963 250.469C687.834 251.558 690.226 250.911 691.306 249.025L699.385 234.917Z" fill="white" fill-opacity="0.6"/>
<path d="M691.826 247.055C691.826 249.234 690.074 251 687.913 251C685.752 251 684 249.234 684 247.055C684 244.876 685.752 243.109 687.913 243.109C690.074 243.109 691.826 244.876 691.826 247.055Z" fill="white" fill-opacity="0.8"/>
<path d="M692.621 234.917C691.541 233.031 692.182 230.618 694.053 229.529C695.924 228.44 698.317 229.086 699.397 230.973L707.476 245.081C708.556 246.967 707.915 249.379 706.044 250.469C704.173 251.558 701.78 250.911 700.7 249.025L692.621 234.917Z" fill="white"/>
<rect x="490" y="260" width="60" height="20" rx="6" fill="white" fill-opacity="0.05"/>
<rect x="490.5" y="260.5" width="59" height="19" rx="5.5" stroke="white" stroke-opacity="0.1"/>
<path d="M500.22 274.144C501.648 274.144 502.764 273.328 502.764 271.588V265.996H501.768V271.576C501.768 272.572 501.144 273.256 500.16 273.256C499.464 273.256 498.996 272.884 498.648 272.464L498.132 273.22C498.684 273.868 499.368 274.144 500.22 274.144ZM509.407 274V268.204H508.507V272.464C508.171 272.932 507.499 273.34 506.791 273.34C506.011 273.34 505.495 273.04 505.495 272.02V268.204H504.595V272.296C504.595 273.556 505.231 274.144 506.443 274.144C507.307 274.144 508.063 273.688 508.507 273.184V274H509.407ZM516.017 274V269.932C516.017 268.672 515.381 268.06 514.169 268.06C513.305 268.06 512.513 268.564 512.105 269.044V268.204H511.205V274H512.105V269.764C512.441 269.296 513.113 268.864 513.821 268.864C514.601 268.864 515.117 269.188 515.117 270.208V274H516.017ZM520.43 274.144C521.378 274.144 522.158 273.832 522.734 273.256L522.302 272.668C521.846 273.136 521.174 273.4 520.514 273.4C519.266 273.4 518.498 272.488 518.426 271.396H523.118V271.168C523.118 269.428 522.086 268.06 520.334 268.06C518.678 268.06 517.478 269.416 517.478 271.096C517.478 272.908 518.714 274.144 520.43 274.144ZM522.23 270.736H518.426C518.474 269.848 519.086 268.804 520.322 268.804C521.642 268.804 522.218 269.872 522.23 270.736ZM529.902 274V265.996H529.026L527.022 268.06L527.622 268.672L528.906 267.316V274H529.902ZM533.572 274.144C535.072 274.144 535.852 273.364 535.852 272.392C535.852 270.136 532.264 270.976 532.264 269.704C532.264 269.188 532.756 268.792 533.548 268.792C534.292 268.792 534.928 269.104 535.276 269.524L535.696 268.9C535.228 268.432 534.532 268.06 533.548 268.06C532.168 268.06 531.388 268.828 531.388 269.728C531.388 271.876 534.976 271.012 534.976 272.416C534.976 272.992 534.496 273.412 533.608 273.412C532.816 273.412 532.084 273.028 531.7 272.584L531.232 273.232C531.82 273.856 532.624 274.144 533.572 274.144ZM538.778 274.144C539.306 274.144 539.63 273.988 539.858 273.772L539.594 273.1C539.474 273.232 539.234 273.34 538.982 273.34C538.586 273.34 538.394 273.028 538.394 272.596V268.996H539.57V268.204H538.394V266.62H537.494V268.204H536.534V268.996H537.494V272.788C537.494 273.652 537.926 274.144 538.778 274.144Z" fill="white" fill-opacity="0.85"/>
<rect x="577" y="260" width="60" height="20" rx="6" fill="white" fill-opacity="0.05"/>
<rect x="577.5" y="260.5" width="59" height="19" rx="5.5" stroke="white" stroke-opacity="0.1"/>
<path d="M587.22 274.144C588.648 274.144 589.764 273.328 589.764 271.588V265.996H588.768V271.576C588.768 272.572 588.144 273.256 587.16 273.256C586.464 273.256 585.996 272.884 585.648 272.464L585.132 273.22C585.684 273.868 586.368 274.144 587.22 274.144ZM596.407 274V268.204H595.507V272.464C595.171 272.932 594.499 273.34 593.791 273.34C593.011 273.34 592.495 273.04 592.495 272.02V268.204H591.595V272.296C591.595 273.556 592.231 274.144 593.443 274.144C594.307 274.144 595.063 273.688 595.507 273.184V274H596.407ZM603.017 274V269.932C603.017 268.672 602.381 268.06 601.169 268.06C600.305 268.06 599.513 268.564 599.105 269.044V268.204H598.205V274H599.105V269.764C599.441 269.296 600.113 268.864 600.821 268.864C601.601 268.864 602.117 269.188 602.117 270.208V274H603.017ZM607.43 274.144C608.378 274.144 609.158 273.832 609.734 273.256L609.302 272.668C608.846 273.136 608.174 273.4 607.514 273.4C606.266 273.4 605.498 272.488 605.426 271.396H610.118V271.168C610.118 269.428 609.086 268.06 607.334 268.06C605.678 268.06 604.478 269.416 604.478 271.096C604.478 272.908 605.714 274.144 607.43 274.144ZM609.23 270.736H605.426C605.474 269.848 606.086 268.804 607.322 268.804C608.642 268.804 609.218 269.872 609.23 270.736ZM618.954 274V271.972H620.082V271.096H618.954V265.996H617.586L614.154 271.144V271.972H617.958V274H618.954ZM617.958 271.096H615.15L617.958 266.92V271.096ZM622.825 274.144C623.353 274.144 623.677 273.988 623.905 273.772L623.641 273.1C623.521 273.232 623.281 273.34 623.029 273.34C622.633 273.34 622.441 273.028 622.441 272.596V268.996H623.617V268.204H622.441V266.62H621.541V268.204H620.581V268.996H621.541V272.788C621.541 273.652 621.973 274.144 622.825 274.144ZM629.712 274V269.908C629.712 268.648 629.076 268.06 627.864 268.06C626.988 268.06 626.196 268.564 625.788 269.044V265.996H624.888V274H625.788V269.764C626.136 269.296 626.808 268.864 627.504 268.864C628.284 268.864 628.812 269.164 628.812 270.184V274H629.712Z" fill="white" fill-opacity="0.85"/>
<rect x="666" y="260" width="60" height="20" rx="6" fill="white" fill-opacity="0.05"/>
<rect x="666.5" y="260.5" width="59" height="19" rx="5.5" stroke="white" stroke-opacity="0.1"/>
<path d="M676.22 274.144C677.648 274.144 678.764 273.328 678.764 271.588V265.996H677.768V271.576C677.768 272.572 677.144 273.256 676.16 273.256C675.464 273.256 674.996 272.884 674.648 272.464L674.132 273.22C674.684 273.868 675.368 274.144 676.22 274.144ZM685.407 274V268.204H684.507V272.464C684.171 272.932 683.499 273.34 682.791 273.34C682.011 273.34 681.495 273.04 681.495 272.02V268.204H680.595V272.296C680.595 273.556 681.231 274.144 682.443 274.144C683.307 274.144 684.063 273.688 684.507 273.184V274H685.407ZM692.017 274V269.932C692.017 268.672 691.381 268.06 690.169 268.06C689.305 268.06 688.513 268.564 688.105 269.044V268.204H687.205V274H688.105V269.764C688.441 269.296 689.113 268.864 689.821 268.864C690.601 268.864 691.117 269.188 691.117 270.208V274H692.017ZM696.43 274.144C697.378 274.144 698.158 273.832 698.734 273.256L698.302 272.668C697.846 273.136 697.174 273.4 696.514 273.4C695.266 273.4 694.498 272.488 694.426 271.396H699.118V271.168C699.118 269.428 698.086 268.06 696.334 268.06C694.678 268.06 693.478 269.416 693.478 271.096C693.478 272.908 694.714 274.144 696.43 274.144ZM698.23 270.736H694.426C694.474 269.848 695.086 268.804 696.322 268.804C697.642 268.804 698.218 269.872 698.23 270.736ZM706.382 274.144C707.99 274.144 709.226 273.136 709.226 271.504C709.226 269.86 708.014 268.948 706.682 268.948C705.878 268.948 705.194 269.284 704.81 269.668V266.884H708.71V265.996H703.814V270.316L704.546 270.568C705.086 270.04 705.686 269.812 706.394 269.812C707.474 269.812 708.23 270.484 708.23 271.54C708.23 272.512 707.474 273.256 706.382 273.256C705.398 273.256 704.702 272.872 704.174 272.2L703.562 272.86C704.162 273.652 705.026 274.144 706.382 274.144ZM712.212 274.144C712.74 274.144 713.064 273.988 713.292 273.772L713.028 273.1C712.908 273.232 712.668 273.34 712.416 273.34C712.02 273.34 711.828 273.028 711.828 272.596V268.996H713.004V268.204H711.828V266.62H710.928V268.204H709.968V268.996H710.928V272.788C710.928 273.652 711.36 274.144 712.212 274.144ZM719.099 274V269.908C719.099 268.648 718.463 268.06 717.251 268.06C716.375 268.06 715.583 268.564 715.175 269.044V265.996H714.275V274H715.175V269.764C715.523 269.296 716.195 268.864 716.891 268.864C717.671 268.864 718.199 269.164 718.199 270.184V274H719.099Z" fill="white" fill-opacity="0.85"/>
<rect x="755" y="260" width="60" height="20" rx="6" fill="white" fill-opacity="0.05"/>
<rect x="755.5" y="260.5" width="59" height="19" rx="5.5" stroke="white" stroke-opacity="0.1"/>
<path d="M763.22 274.144C764.648 274.144 765.764 273.328 765.764 271.588V265.996H764.768V271.576C764.768 272.572 764.144 273.256 763.16 273.256C762.464 273.256 761.996 272.884 761.648 272.464L761.132 273.22C761.684 273.868 762.368 274.144 763.22 274.144ZM772.407 274V268.204H771.507V272.464C771.171 272.932 770.499 273.34 769.791 273.34C769.011 273.34 768.495 273.04 768.495 272.02V268.204H767.595V272.296C767.595 273.556 768.231 274.144 769.443 274.144C770.307 274.144 771.063 273.688 771.507 273.184V274H772.407ZM779.017 274V269.932C779.017 268.672 778.381 268.06 777.169 268.06C776.305 268.06 775.513 268.564 775.105 269.044V268.204H774.205V274H775.105V269.764C775.441 269.296 776.113 268.864 776.821 268.864C777.601 268.864 778.117 269.188 778.117 270.208V274H779.017ZM783.43 274.144C784.378 274.144 785.158 273.832 785.734 273.256L785.302 272.668C784.846 273.136 784.174 273.4 783.514 273.4C782.266 273.4 781.498 272.488 781.426 271.396H786.118V271.168C786.118 269.428 785.086 268.06 783.334 268.06C781.678 268.06 780.478 269.416 780.478 271.096C780.478 272.908 781.714 274.144 783.43 274.144ZM785.23 270.736H781.426C781.474 269.848 782.086 268.804 783.322 268.804C784.642 268.804 785.218 269.872 785.23 270.736ZM795.914 274V273.112H791.99C794.222 271.348 795.878 269.86 795.878 268.228C795.878 266.632 794.522 265.876 793.19 265.876C792.062 265.876 791.018 266.332 790.406 267.136L791.018 267.772C791.486 267.172 792.23 266.764 793.19 266.764C794.018 266.764 794.858 267.208 794.858 268.228C794.858 269.608 793.298 270.94 790.418 273.208V274H795.914ZM799.956 274V265.996H799.08L797.076 268.06L797.676 268.672L798.96 267.316V274H799.956ZM803.627 274.144C805.127 274.144 805.907 273.364 805.907 272.392C805.907 270.136 802.319 270.976 802.319 269.704C802.319 269.188 802.811 268.792 803.603 268.792C804.347 268.792 804.983 269.104 805.331 269.524L805.751 268.9C805.283 268.432 804.587 268.06 803.603 268.06C802.223 268.06 801.443 268.828 801.443 269.728C801.443 271.876 805.031 271.012 805.031 272.416C805.031 272.992 804.551 273.412 803.663 273.412C802.871 273.412 802.139 273.028 801.755 272.584L801.287 273.232C801.875 273.856 802.679 274.144 803.627 274.144ZM808.833 274.144C809.361 274.144 809.685 273.988 809.913 273.772L809.649 273.1C809.529 273.232 809.289 273.34 809.037 273.34C808.641 273.34 808.449 273.028 808.449 272.596V268.996H809.625V268.204H808.449V266.62H807.549V268.204H806.589V268.996H807.549V272.788C807.549 273.652 807.981 274.144 808.833 274.144Z" fill="white" fill-opacity="0.85"/>
<rect x="842" y="260" width="60" height="20" rx="6" fill="white" fill-opacity="0.05"/>
<rect x="842.5" y="260.5" width="59" height="19" rx="5.5" stroke="white" stroke-opacity="0.1"/>
<path d="M849.22 274.144C850.648 274.144 851.764 273.328 851.764 271.588V265.996H850.768V271.576C850.768 272.572 850.144 273.256 849.16 273.256C848.464 273.256 847.996 272.884 847.648 272.464L847.132 273.22C847.684 273.868 848.368 274.144 849.22 274.144ZM858.407 274V268.204H857.507V272.464C857.171 272.932 856.499 273.34 855.791 273.34C855.011 273.34 854.495 273.04 854.495 272.02V268.204H853.595V272.296C853.595 273.556 854.231 274.144 855.443 274.144C856.307 274.144 857.063 273.688 857.507 273.184V274H858.407ZM865.017 274V269.932C865.017 268.672 864.381 268.06 863.169 268.06C862.305 268.06 861.513 268.564 861.105 269.044V268.204H860.205V274H861.105V269.764C861.441 269.296 862.113 268.864 862.821 268.864C863.601 268.864 864.117 269.188 864.117 270.208V274H865.017ZM869.43 274.144C870.378 274.144 871.158 273.832 871.734 273.256L871.302 272.668C870.846 273.136 870.174 273.4 869.514 273.4C868.266 273.4 867.498 272.488 867.426 271.396H872.118V271.168C872.118 269.428 871.086 268.06 869.334 268.06C867.678 268.06 866.478 269.416 866.478 271.096C866.478 272.908 867.714 274.144 869.43 274.144ZM871.23 270.736H867.426C867.474 269.848 868.086 268.804 869.322 268.804C870.642 268.804 871.218 269.872 871.23 270.736ZM881.914 274V273.112H877.99C880.222 271.348 881.878 269.86 881.878 268.228C881.878 266.632 880.522 265.876 879.19 265.876C878.062 265.876 877.018 266.332 876.406 267.136L877.018 267.772C877.486 267.172 878.23 266.764 879.19 266.764C880.018 266.764 880.858 267.208 880.858 268.228C880.858 269.608 879.298 270.94 876.418 273.208V274H881.914ZM888.008 274V271.972H889.136V271.096H888.008V265.996H886.64L883.208 271.144V271.972H887.012V274H888.008ZM887.012 271.096H884.204L887.012 266.92V271.096ZM891.88 274.144C892.408 274.144 892.732 273.988 892.96 273.772L892.696 273.1C892.576 273.232 892.336 273.34 892.084 273.34C891.688 273.34 891.496 273.028 891.496 272.596V268.996H892.672V268.204H891.496V266.62H890.596V268.204H889.636V268.996H890.596V272.788C890.596 273.652 891.028 274.144 891.88 274.144ZM898.767 274V269.908C898.767 268.648 898.131 268.06 896.919 268.06C896.043 268.06 895.251 268.564 894.843 269.044V265.996H893.943V274H894.843V269.764C895.191 269.296 895.863 268.864 896.559 268.864C897.339 268.864 897.867 269.164 897.867 270.184V274H898.767Z" fill="white" fill-opacity="0.85"/>
<rect x="490" y="288" width="60" height="29" rx="6" fill="white" fill-opacity="0.05"/>
<rect x="490.5" y="288.5" width="59" height="28" rx="5.5" stroke="white" stroke-opacity="0.1"/>
<rect x="577" y="288" width="60" height="29" rx="6" fill="white" fill-opacity="0.05"/>
<rect x="577.5" y="288.5" width="59" height="28" rx="5.5" stroke="white" stroke-opacity="0.1"/>
<rect x="666" y="288" width="60" height="29" rx="6" fill="white" fill-opacity="0.05"/>
<rect x="666.5" y="288.5" width="59" height="28" rx="5.5" stroke="white" stroke-opacity="0.1"/>
<rect x="755" y="288" width="60" height="29" rx="6" fill="white" fill-opacity="0.05"/>
<rect x="755.5" y="288.5" width="59" height="28" rx="5.5" stroke="white" stroke-opacity="0.1"/>
<rect x="842" y="288" width="60" height="29" rx="6" fill="white" fill-opacity="0.05"/>
<rect x="842.5" y="288.5" width="59" height="28" rx="5.5" stroke="white" stroke-opacity="0.1"/>
<rect x="68.5195" y="36.2305" width="2" height="230.817" transform="rotate(-47.0868 68.5195 36.2305)" fill="#9A9AC6" fill-opacity="0.6"/>
<rect x="69" y="143.695" width="2" height="160.152" transform="rotate(-57.8542 69 143.695)" fill="#9A9AC6" fill-opacity="0.6"/>
<rect width="1.85455" height="233.345" transform="matrix(0.810449 0.58581 0.700675 -0.71348 66.1797 481.074)" fill="#9A9AC6" fill-opacity="0.6"/>
<rect width="1.80297" height="159.207" transform="matrix(0.590223 0.80724 0.879866 -0.475221 68 366.656)" fill="#9A9AC6" fill-opacity="0.6"/>
<rect width="72" height="73" rx="10" fill="#47475D"/>
<path d="M42.0171 38.0728L42.7945 33.2233H37.9315V30.0777C37.9315 28.7506 38.6096 27.4563 40.7877 27.4563H43V23.3277C43 23.3277 40.9931 23 39.0753 23C35.0685 23 32.4521 25.3232 32.4521 29.5272V33.2233H28V38.0728H32.4521V49.7969C33.3459 49.9312 34.2603 50 35.1918 50C36.1233 50 37.0377 49.9312 37.9315 49.7969V38.0728H42.0171Z" fill="white" fill-opacity="0.6"/>
<rect y="110" width="72" height="73" rx="10" fill="#47475D"/>
<path d="M30.7887 158C27.5537 158 24.5382 157.059 22 155.436C24.155 155.575 27.9581 155.241 30.3236 152.985C26.7651 152.822 25.1603 150.092 24.9509 148.926C25.2533 149.043 26.6953 149.183 27.5093 148.856C23.4159 147.83 22.7879 144.237 22.9275 143.141C23.695 143.677 24.9975 143.864 25.5091 143.817C21.6948 141.088 23.067 136.983 23.7415 136.096C26.4788 139.889 30.5812 142.019 35.6564 142.137C35.5607 141.717 35.5102 141.28 35.5102 140.832C35.5102 137.611 38.1134 135 41.3247 135C43.0025 135 44.5144 135.713 45.5757 136.853C46.6969 136.59 48.3843 135.975 49.2092 135.443C48.7934 136.936 47.4989 138.181 46.7159 138.643C46.7224 138.659 46.7095 138.627 46.7159 138.643C47.4037 138.539 49.2648 138.181 50 137.683C49.6364 138.521 48.264 139.916 47.1377 140.696C47.3473 149.938 40.2765 158 30.7887 158Z" fill="white" fill-opacity="0.6"/>
<rect x="68.6719" y="258.996" width="2" height="131.327" transform="rotate(-89.9607 68.6719 258.996)" fill="#9A9AC6" fill-opacity="0.6"/>
<rect y="220" width="72" height="73" rx="10" fill="#47475D"/>
<path d="M39.3849 254.917C40.4652 253.031 39.8241 250.618 37.953 249.529C36.0819 248.44 33.6893 249.086 32.6091 250.973L24.5306 265.081C23.4503 266.967 24.0914 269.379 25.9625 270.469C27.8336 271.558 30.2262 270.911 31.3065 269.025L39.3849 254.917Z" fill="white" fill-opacity="0.4"/>
<path d="M31.8263 267.055C31.8263 269.234 30.0743 271 27.9131 271C25.752 271 24 269.234 24 267.055C24 264.876 25.752 263.109 27.9131 263.109C30.0743 263.109 31.8263 264.876 31.8263 267.055Z" fill="white" fill-opacity="0.6"/>
<path d="M32.6214 254.917C31.5412 253.031 32.1823 250.618 34.0533 249.529C35.9244 248.44 38.317 249.086 39.3973 250.973L47.4757 265.081C48.556 266.967 47.9149 269.379 46.0438 270.469C44.1727 271.558 41.7802 270.911 40.6999 269.025L32.6214 254.917Z" fill="white" fill-opacity="0.8"/>
<rect y="440" width="72" height="73" rx="10" fill="#47475D"/>
<path d="M43 471.5C43 472.328 42.3284 473 41.5 473C40.6716 473 40 472.328 40 471.5C40 470.672 40.6716 470 41.5 470C42.3284 470 43 470.672 43 471.5Z" fill="white" fill-opacity="0.6"/>
<path fill-rule="evenodd" clip-rule="evenodd" d="M36 482C38.7614 482 41 479.761 41 477C41 474.239 38.7614 472 36 472C33.2386 472 31 474.239 31 477C31 479.761 33.2386 482 36 482ZM36 480C37.6569 480 39 478.657 39 477C39 475.343 37.6569 474 36 474C34.3431 474 33 475.343 33 477C33 478.657 34.3431 480 36 480Z" fill="white" fill-opacity="0.6"/>
<path fill-rule="evenodd" clip-rule="evenodd" d="M26 476.6C26 473.24 26 471.56 26.654 470.276C27.2292 469.147 28.1471 468.229 29.2761 467.654C30.5595 467 32.2397 467 35.6 467H36.4C39.7603 467 41.4405 467 42.7239 467.654C43.8529 468.229 44.7708 469.147 45.346 470.276C46 471.56 46 473.24 46 476.6V477.4C46 480.76 46 482.44 45.346 483.724C44.7708 484.853 43.8529 485.771 42.7239 486.346C41.4405 487 39.7603 487 36.4 487H35.6C32.2397 487 30.5595 487 29.2761 486.346C28.1471 485.771 27.2292 484.853 26.654 483.724C26 482.44 26 480.76 26 477.4V476.6ZM35.6 469H36.4C38.1132 469 39.2777 469.002 40.1779 469.075C41.0548 469.147 41.5032 469.277 41.816 469.436C42.5686 469.819 43.1805 470.431 43.564 471.184C43.7234 471.497 43.8533 471.945 43.9249 472.822C43.9984 473.722 44 474.887 44 476.6V477.4C44 479.113 43.9984 480.278 43.9249 481.178C43.8533 482.055 43.7234 482.503 43.564 482.816C43.1805 483.569 42.5686 484.181 41.816 484.564C41.5032 484.723 41.0548 484.853 40.1779 484.925C39.2777 484.998 38.1132 485 36.4 485H35.6C33.8868 485 32.7223 484.998 31.8221 484.925C30.9452 484.853 30.4968 484.723 30.184 484.564C29.4314 484.181 28.8195 483.569 28.436 482.816C28.2766 482.503 28.1467 482.055 28.0751 481.178C28.0016 480.278 28 479.113 28 477.4V476.6C28 474.887 28.0016 473.722 28.0751 472.822C28.1467 471.945 28.2766 471.497 28.436 471.184C28.8195 470.431 29.4314 469.819 30.184 469.436C30.4968 469.277 30.9452 469.147 31.8221 469.075C32.7223 469.002 33.8868 469 35.6 469Z" fill="white" fill-opacity="0.6"/>
<rect y="330" width="72" height="73" rx="10" fill="#47475D"/>
<path d="M30.5835 360.176C30.5835 361.377 29.5575 362.351 28.2918 362.351C27.0261 362.351 26 361.377 26 360.176C26 358.974 27.0261 358 28.2918 358C29.5575 358 30.5835 358.974 30.5835 360.176Z" fill="white" fill-opacity="0.6"/>
<path d="M26.3134 363.95H30.2309V376H26.3134V363.95Z" fill="white" fill-opacity="0.6"/>
<path d="M36.5381 363.95H32.6206V376H36.5381C36.5381 376 36.5381 372.207 36.5381 369.835C36.5381 368.411 37.017 366.981 38.9278 366.981C41.0873 366.981 41.0743 368.844 41.0642 370.288C41.0511 372.174 41.0825 374.1 41.0825 376H45V369.64C44.9668 365.58 43.9244 363.709 40.4948 363.709C38.4582 363.709 37.1957 364.647 36.5381 365.496V363.95Z" fill="white" fill-opacity="0.6"/>
<path d="M281.583 285.988C281.583 285.995 281.577 286 281.57 286H256C255.448 286 255 285.552 255 285V229C255 228.448 255.448 228 256 228H280.97C283.357 228.002 285.68 228.902 287.587 230.563C289.494 232.224 290.883 234.557 291.545 237.21C292.206 239.864 292.103 242.694 291.253 245.274C290.588 247.292 289.494 249.072 288.082 250.456C287.547 250.98 287.626 251.925 288.254 252.334C290.364 253.71 292.168 255.654 293.506 258.011C295.135 260.883 296.002 264.244 296 267.678V268.388C296.003 272.898 294.509 277.237 291.826 280.51C289.146 283.779 285.484 285.735 281.594 285.975C281.588 285.976 281.583 285.981 281.583 285.988V285.988ZM257.924 281.618C257.924 282.17 258.372 282.618 258.924 282.618H269.065C269.996 282.618 270.471 281.398 269.87 280.686C268.552 279.122 267.49 277.282 266.745 275.256C265.95 273.09 265.541 270.76 265.543 268.406V267.696C265.539 263.25 266.99 258.966 269.604 255.706C272.218 252.445 275.801 250.448 279.635 250.116C280.026 250.082 280.426 250.066 280.82 250.068C280.976 250.068 281.131 250.071 281.286 250.077C283.376 249.982 285.353 248.954 286.802 247.209C288.251 245.464 289.058 243.138 289.055 240.718C289.049 235.57 285.421 231.382 280.969 231.382H258.924C258.372 231.382 257.924 231.829 257.924 232.382V281.618ZM280.77 253.448C280.463 253.448 280.154 253.461 279.85 253.489C273.46 254.035 268.46 260.275 268.467 267.695V268.405C268.473 276.243 273.993 282.62 280.771 282.62C287.555 282.62 293.075 276.236 293.075 268.39V267.678C293.075 260.039 287.824 253.769 281.276 253.46C281.176 253.464 281.076 253.465 280.975 253.465C280.971 253.465 280.968 253.462 280.968 253.458V253.458C280.968 253.453 280.964 253.45 280.96 253.45C280.91 253.45 280.859 253.45 280.809 253.45L280.77 253.448Z" fill="white" stroke="white" stroke-width="0.3"/>
<path d="M862.14 308.18C861.29 308.18 860.535 308.03 859.875 307.73C859.225 307.43 858.72 307.04 858.36 306.56L859.305 305.405C859.625 305.775 860.035 306.07 860.535 306.29C861.035 306.51 861.55 306.62 862.08 306.62C862.73 306.62 863.24 306.485 863.61 306.215C863.98 305.935 864.165 305.56 864.165 305.09C864.165 304.15 863.425 303.68 861.945 303.68C861.275 303.68 860.89 303.685 860.79 303.695V302.12C860.91 302.13 861.295 302.135 861.945 302.135C862.565 302.135 863.06 302.025 863.43 301.805C863.81 301.585 864 301.255 864 300.815C864 300.365 863.81 300.02 863.43 299.78C863.05 299.53 862.565 299.405 861.975 299.405C860.995 299.405 860.135 299.775 859.395 300.515L858.495 299.42C859.385 298.37 860.6 297.845 862.14 297.845C863.23 297.845 864.105 298.09 864.765 298.58C865.425 299.06 865.755 299.715 865.755 300.545C865.755 301.165 865.535 301.68 865.095 302.09C864.665 302.49 864.16 302.74 863.58 302.84C864.15 302.89 864.68 303.13 865.17 303.56C865.66 303.99 865.905 304.56 865.905 305.27C865.905 306.13 865.56 306.83 864.87 307.37C864.19 307.91 863.28 308.18 862.14 308.18ZM871.173 308.18C869.563 308.18 868.323 307.665 867.453 306.635L868.458 305.435C869.158 306.225 870.058 306.62 871.158 306.62C871.778 306.62 872.273 306.455 872.643 306.125C873.023 305.785 873.213 305.365 873.213 304.865C873.213 304.325 873.028 303.895 872.658 303.575C872.298 303.245 871.813 303.08 871.203 303.08C870.353 303.08 869.623 303.37 869.013 303.95L867.768 303.59V297.995H874.323V299.54H869.523V302.435C870.103 301.855 870.858 301.565 871.788 301.565C872.668 301.565 873.418 301.86 874.038 302.45C874.668 303.03 874.983 303.81 874.983 304.79C874.983 305.82 874.628 306.645 873.918 307.265C873.218 307.875 872.303 308.18 871.173 308.18ZM878.502 302.81C877.772 302.81 877.177 302.58 876.717 302.12C876.257 301.65 876.027 301.06 876.027 300.35C876.027 299.63 876.257 299.035 876.717 298.565C877.177 298.085 877.772 297.845 878.502 297.845C879.242 297.845 879.842 298.085 880.302 298.565C880.772 299.035 881.007 299.63 881.007 300.35C881.007 301.06 880.772 301.65 880.302 302.12C879.842 302.58 879.242 302.81 878.502 302.81ZM878.532 308H877.542L883.932 297.995H884.937L878.532 308ZM885.672 307.49C885.212 307.95 884.617 308.18 883.887 308.18C883.157 308.18 882.562 307.95 882.102 307.49C881.642 307.02 881.412 306.43 881.412 305.72C881.412 305 881.642 304.405 882.102 303.935C882.562 303.455 883.157 303.215 883.887 303.215C884.617 303.215 885.212 303.455 885.672 303.935C886.142 304.415 886.377 305.01 886.377 305.72C886.377 306.43 886.142 307.02 885.672 307.49ZM878.502 301.82C878.892 301.82 879.212 301.685 879.462 301.415C879.712 301.135 879.837 300.78 879.837 300.35C879.837 299.9 879.712 299.54 879.462 299.27C879.212 298.99 878.892 298.85 878.502 298.85C878.112 298.85 877.792 298.99 877.542 299.27C877.302 299.54 877.182 299.9 877.182 300.35C877.182 300.78 877.307 301.135 877.557 301.415C877.807 301.685 878.122 301.82 878.502 301.82ZM882.927 306.785C883.177 307.055 883.497 307.19 883.887 307.19C884.277 307.19 884.597 307.055 884.847 306.785C885.097 306.505 885.222 306.15 885.222 305.72C885.222 305.27 885.097 304.91 884.847 304.64C884.597 304.36 884.277 304.22 883.887 304.22C883.497 304.22 883.177 304.36 882.927 304.64C882.687 304.91 882.567 305.27 882.567 305.72C882.567 306.15 882.687 306.505 882.927 306.785Z" fill="white"/>
<path d="M777.995 308H770.75V306.62C772.84 305.04 774.26 303.87 775.01 303.11C775.77 302.34 776.15 301.615 776.15 300.935C776.15 300.445 775.97 300.07 775.61 299.81C775.26 299.54 774.835 299.405 774.335 299.405C773.235 299.405 772.335 299.805 771.635 300.605L770.615 299.45C771.045 298.93 771.585 298.535 772.235 298.265C772.895 297.985 773.585 297.845 774.305 297.845C775.325 297.845 776.185 298.12 776.885 298.67C777.585 299.22 777.935 299.975 777.935 300.935C777.935 301.795 777.575 302.65 776.855 303.5C776.135 304.35 775.035 305.335 773.555 306.455H777.995V308ZM783.481 308.18C781.871 308.18 780.631 307.665 779.761 306.635L780.766 305.435C781.466 306.225 782.366 306.62 783.466 306.62C784.086 306.62 784.581 306.455 784.951 306.125C785.331 305.785 785.521 305.365 785.521 304.865C785.521 304.325 785.336 303.895 784.966 303.575C784.606 303.245 784.121 303.08 783.511 303.08C782.661 303.08 781.931 303.37 781.321 303.95L780.076 303.59V297.995H786.631V299.54H781.831V302.435C782.411 301.855 783.166 301.565 784.096 301.565C784.976 301.565 785.726 301.86 786.346 302.45C786.976 303.03 787.291 303.81 787.291 304.79C787.291 305.82 786.936 306.645 786.226 307.265C785.526 307.875 784.611 308.18 783.481 308.18ZM790.81 302.81C790.08 302.81 789.485 302.58 789.025 302.12C788.565 301.65 788.335 301.06 788.335 300.35C788.335 299.63 788.565 299.035 789.025 298.565C789.485 298.085 790.08 297.845 790.81 297.845C791.55 297.845 792.15 298.085 792.61 298.565C793.08 299.035 793.315 299.63 793.315 300.35C793.315 301.06 793.08 301.65 792.61 302.12C792.15 302.58 791.55 302.81 790.81 302.81ZM790.84 308H789.85L796.24 297.995H797.245L790.84 308ZM797.98 307.49C797.52 307.95 796.925 308.18 796.195 308.18C795.465 308.18 794.87 307.95 794.41 307.49C793.95 307.02 793.72 306.43 793.72 305.72C793.72 305 793.95 304.405 794.41 303.935C794.87 303.455 795.465 303.215 796.195 303.215C796.925 303.215 797.52 303.455 797.98 303.935C798.45 304.415 798.685 305.01 798.685 305.72C798.685 306.43 798.45 307.02 797.98 307.49ZM790.81 301.82C791.2 301.82 791.52 301.685 791.77 301.415C792.02 301.135 792.145 300.78 792.145 300.35C792.145 299.9 792.02 299.54 791.77 299.27C791.52 298.99 791.2 298.85 790.81 298.85C790.42 298.85 790.1 298.99 789.85 299.27C789.61 299.54 789.49 299.9 789.49 300.35C789.49 300.78 789.615 301.135 789.865 301.415C790.115 301.685 790.43 301.82 790.81 301.82ZM795.235 306.785C795.485 307.055 795.805 307.19 796.195 307.19C796.585 307.19 796.905 307.055 797.155 306.785C797.405 306.505 797.53 306.15 797.53 305.72C797.53 305.27 797.405 304.91 797.155 304.64C796.905 304.36 796.585 304.22 796.195 304.22C795.805 304.22 795.485 304.36 795.235 304.64C794.995 304.91 794.875 305.27 794.875 305.72C794.875 306.15 794.995 306.505 795.235 306.785Z" fill="white"/>
<path d="M512.995 308H505.75V306.62C507.84 305.04 509.26 303.87 510.01 303.11C510.77 302.34 511.15 301.615 511.15 300.935C511.15 300.445 510.97 300.07 510.61 299.81C510.26 299.54 509.835 299.405 509.335 299.405C508.235 299.405 507.335 299.805 506.635 300.605L505.615 299.45C506.045 298.93 506.585 298.535 507.235 298.265C507.895 297.985 508.585 297.845 509.305 297.845C510.325 297.845 511.185 298.12 511.885 298.67C512.585 299.22 512.935 299.975 512.935 300.935C512.935 301.795 512.575 302.65 511.855 303.5C511.135 304.35 510.035 305.335 508.555 306.455H512.995V308ZM520.341 307.73C519.811 308.03 519.211 308.18 518.541 308.18C517.871 308.18 517.271 308.03 516.741 307.73C516.211 307.43 515.791 307.03 515.481 306.53C515.171 306.03 514.936 305.48 514.776 304.88C514.616 304.28 514.536 303.655 514.536 303.005C514.536 302.355 514.616 301.73 514.776 301.13C514.936 300.53 515.171 299.985 515.481 299.495C515.791 298.995 516.211 298.595 516.741 298.295C517.271 297.995 517.871 297.845 518.541 297.845C519.211 297.845 519.811 297.995 520.341 298.295C520.871 298.595 521.291 298.995 521.601 299.495C521.911 299.985 522.146 300.53 522.306 301.13C522.466 301.73 522.546 302.355 522.546 303.005C522.546 303.655 522.466 304.28 522.306 304.88C522.146 305.48 521.911 306.03 521.601 306.53C521.291 307.03 520.871 307.43 520.341 307.73ZM516.861 305.6C517.221 306.28 517.781 306.62 518.541 306.62C519.301 306.62 519.861 306.28 520.221 305.6C520.581 304.92 520.761 304.055 520.761 303.005C520.761 302.335 520.691 301.74 520.551 301.22C520.421 300.7 520.181 300.27 519.831 299.93C519.491 299.58 519.061 299.405 518.541 299.405C518.021 299.405 517.586 299.58 517.236 299.93C516.896 300.27 516.656 300.7 516.516 301.22C516.386 301.74 516.321 302.335 516.321 303.005C516.321 304.055 516.501 304.92 516.861 305.6ZM526.059 302.81C525.329 302.81 524.734 302.58 524.274 302.12C523.814 301.65 523.584 301.06 523.584 300.35C523.584 299.63 523.814 299.035 524.274 298.565C524.734 298.085 525.329 297.845 526.059 297.845C526.799 297.845 527.399 298.085 527.859 298.565C528.329 299.035 528.564 299.63 528.564 300.35C528.564 301.06 528.329 301.65 527.859 302.12C527.399 302.58 526.799 302.81 526.059 302.81ZM526.089 308H525.099L531.489 297.995H532.494L526.089 308ZM533.229 307.49C532.769 307.95 532.174 308.18 531.444 308.18C530.714 308.18 530.119 307.95 529.659 307.49C529.199 307.02 528.969 306.43 528.969 305.72C528.969 305 529.199 304.405 529.659 303.935C530.119 303.455 530.714 303.215 531.444 303.215C532.174 303.215 532.769 303.455 533.229 303.935C533.699 304.415 533.934 305.01 533.934 305.72C533.934 306.43 533.699 307.02 533.229 307.49ZM526.059 301.82C526.449 301.82 526.769 301.685 527.019 301.415C527.269 301.135 527.394 300.78 527.394 300.35C527.394 299.9 527.269 299.54 527.019 299.27C526.769 298.99 526.449 298.85 526.059 298.85C525.669 298.85 525.349 298.99 525.099 299.27C524.859 299.54 524.739 299.9 524.739 300.35C524.739 300.78 524.864 301.135 525.114 301.415C525.364 301.685 525.679 301.82 526.059 301.82ZM530.484 306.785C530.734 307.055 531.054 307.19 531.444 307.19C531.834 307.19 532.154 307.055 532.404 306.785C532.654 306.505 532.779 306.15 532.779 305.72C532.779 305.27 532.654 304.91 532.404 304.64C532.154 304.36 531.834 304.22 531.444 304.22C531.054 304.22 530.734 304.36 530.484 304.64C530.244 304.91 530.124 305.27 530.124 305.72C530.124 306.15 530.244 306.505 530.484 306.785Z" fill="white"/>
<path d="M598.635 308H596.88V300.275L595.245 301.97L594.225 300.905L597.105 297.995H598.635V308ZM607.693 308H600.448V306.62C602.538 305.04 603.958 303.87 604.708 303.11C605.468 302.34 605.848 301.615 605.848 300.935C605.848 300.445 605.668 300.07 605.308 299.81C604.958 299.54 604.533 299.405 604.033 299.405C602.933 299.405 602.033 299.805 601.333 300.605L600.313 299.45C600.743 298.93 601.283 298.535 601.933 298.265C602.593 297.985 603.283 297.845 604.003 297.845C605.023 297.845 605.883 298.12 606.583 298.67C607.283 299.22 607.633 299.975 607.633 300.935C607.633 301.795 607.273 302.65 606.553 303.5C605.833 304.35 604.733 305.335 603.253 306.455H607.693V308ZM611.514 302.81C610.784 302.81 610.189 302.58 609.729 302.12C609.269 301.65 609.039 301.06 609.039 300.35C609.039 299.63 609.269 299.035 609.729 298.565C610.189 298.085 610.784 297.845 611.514 297.845C612.254 297.845 612.854 298.085 613.314 298.565C613.784 299.035 614.019 299.63 614.019 300.35C614.019 301.06 613.784 301.65 613.314 302.12C612.854 302.58 612.254 302.81 611.514 302.81ZM611.544 308H610.554L616.944 297.995H617.949L611.544 308ZM618.684 307.49C618.224 307.95 617.629 308.18 616.899 308.18C616.169 308.18 615.574 307.95 615.114 307.49C614.654 307.02 614.424 306.43 614.424 305.72C614.424 305 614.654 304.405 615.114 303.935C615.574 303.455 616.169 303.215 616.899 303.215C617.629 303.215 618.224 303.455 618.684 303.935C619.154 304.415 619.389 305.01 619.389 305.72C619.389 306.43 619.154 307.02 618.684 307.49ZM611.514 301.82C611.904 301.82 612.224 301.685 612.474 301.415C612.724 301.135 612.849 300.78 612.849 300.35C612.849 299.9 612.724 299.54 612.474 299.27C612.224 298.99 611.904 298.85 611.514 298.85C611.124 298.85 610.804 298.99 610.554 299.27C610.314 299.54 610.194 299.9 610.194 300.35C610.194 300.78 610.319 301.135 610.569 301.415C610.819 301.685 611.134 301.82 611.514 301.82ZM615.939 306.785C616.189 307.055 616.509 307.19 616.899 307.19C617.289 307.19 617.609 307.055 617.859 306.785C618.109 306.505 618.234 306.15 618.234 305.72C618.234 305.27 618.109 304.91 617.859 304.64C617.609 304.36 617.289 304.22 616.899 304.22C616.509 304.22 616.189 304.36 615.939 304.64C615.699 304.91 615.579 305.27 615.579 305.72C615.579 306.15 615.699 306.505 615.939 306.785Z" fill="white"/>
<path d="M692.185 307.46C691.455 307.94 690.55 308.18 689.47 308.18C688.39 308.18 687.48 307.94 686.74 307.46C686 306.97 685.63 306.295 685.63 305.435C685.63 304.825 685.84 304.295 686.26 303.845C686.69 303.395 687.23 303.06 687.88 302.84C687.26 302.64 686.755 302.345 686.365 301.955C685.985 301.565 685.795 301.07 685.795 300.47C685.795 300.03 685.9 299.635 686.11 299.285C686.33 298.935 686.615 298.66 686.965 298.46C687.325 298.26 687.715 298.11 688.135 298.01C688.565 297.9 689.01 297.845 689.47 297.845C689.93 297.845 690.37 297.9 690.79 298.01C691.21 298.11 691.6 298.26 691.96 298.46C692.32 298.66 692.605 298.935 692.815 299.285C693.035 299.635 693.145 300.03 693.145 300.47C693.145 301.6 692.445 302.39 691.045 302.84C691.695 303.06 692.23 303.395 692.65 303.845C693.08 304.295 693.295 304.825 693.295 305.435C693.295 306.295 692.925 306.97 692.185 307.46ZM689.47 302.15C689.74 302.1 690 302.035 690.25 301.955C690.5 301.865 690.745 301.715 690.985 301.505C691.235 301.285 691.36 301.03 691.36 300.74C691.36 300.33 691.18 300.005 690.82 299.765C690.47 299.525 690.02 299.405 689.47 299.405C688.91 299.405 688.45 299.525 688.09 299.765C687.74 300.005 687.565 300.33 687.565 300.74C687.565 301.03 687.69 301.285 687.94 301.505C688.19 301.715 688.44 301.865 688.69 301.955C688.94 302.035 689.2 302.1 689.47 302.15ZM689.47 306.62C690.04 306.62 690.525 306.49 690.925 306.23C691.325 305.97 691.525 305.63 691.525 305.21C691.525 304.76 691.29 304.4 690.82 304.13C690.36 303.85 689.91 303.685 689.47 303.635C689.21 303.665 688.935 303.735 688.645 303.845C688.355 303.945 688.075 304.12 687.805 304.37C687.535 304.61 687.4 304.89 687.4 305.21C687.4 305.63 687.595 305.97 687.985 306.23C688.385 306.49 688.88 306.62 689.47 306.62ZM696.816 302.81C696.086 302.81 695.491 302.58 695.031 302.12C694.571 301.65 694.341 301.06 694.341 300.35C694.341 299.63 694.571 299.035 695.031 298.565C695.491 298.085 696.086 297.845 696.816 297.845C697.556 297.845 698.156 298.085 698.616 298.565C699.086 299.035 699.321 299.63 699.321 300.35C699.321 301.06 699.086 301.65 698.616 302.12C698.156 302.58 697.556 302.81 696.816 302.81ZM696.846 308H695.856L702.246 297.995H703.251L696.846 308ZM703.986 307.49C703.526 307.95 702.931 308.18 702.201 308.18C701.471 308.18 700.876 307.95 700.416 307.49C699.956 307.02 699.726 306.43 699.726 305.72C699.726 305 699.956 304.405 700.416 303.935C700.876 303.455 701.471 303.215 702.201 303.215C702.931 303.215 703.526 303.455 703.986 303.935C704.456 304.415 704.691 305.01 704.691 305.72C704.691 306.43 704.456 307.02 703.986 307.49ZM696.816 301.82C697.206 301.82 697.526 301.685 697.776 301.415C698.026 301.135 698.151 300.78 698.151 300.35C698.151 299.9 698.026 299.54 697.776 299.27C697.526 298.99 697.206 298.85 696.816 298.85C696.426 298.85 696.106 298.99 695.856 299.27C695.616 299.54 695.496 299.9 695.496 300.35C695.496 300.78 695.621 301.135 695.871 301.415C696.121 301.685 696.436 301.82 696.816 301.82ZM701.241 306.785C701.491 307.055 701.811 307.19 702.201 307.19C702.591 307.19 702.911 307.055 703.161 306.785C703.411 306.505 703.536 306.15 703.536 305.72C703.536 305.27 703.411 304.91 703.161 304.64C702.911 304.36 702.591 304.22 702.201 304.22C701.811 304.22 701.491 304.36 701.241 304.64C701.001 304.91 700.881 305.27 700.881 305.72C700.881 306.15 701.001 306.505 701.241 306.785Z" fill="white"/>
<defs>
<filter id="filter0_d" x="382" y="77" width="634" height="360" filterUnits="userSpaceOnUse" color-interpolation-filters="sRGB">
<feFlood flood-opacity="0" result="BackgroundImageFix"/>
<feColorMatrix in="SourceAlpha" type="matrix" values="0 0 0 0 0 0 0 0 0 0 0 0 0 0 0 0 0 0 127 0" result="hardAlpha"/>
<feMorphology radius="5" operator="dilate" in="SourceAlpha" result="effect1_dropShadow"/>
<feOffset/>
<feGaussianBlur stdDeviation="40"/>
<feComposite in2="hardAlpha" operator="out"/>
<feColorMatrix type="matrix" values="0 0 0 0 0.466667 0 0 0 0 0.411765 0 0 0 0 0.956863 0 0 0 0.5 0"/>
<feBlend mode="normal" in2="BackgroundImageFix" result="effect1_dropShadow"/>
<feBlend mode="normal" in="SourceGraphic" in2="effect1_dropShadow" result="shape"/>
</filter>
<linearGradient id="paint0_linear" x1="239.01" y1="263.268" x2="303.65" y2="260.834" gradientUnits="userSpaceOnUse">
<stop stop-color="#265DE3"/>
<stop offset="1" stop-color="#AF71FF"/>
</linearGradient>
<linearGradient id="paint1_linear" x1="467" y1="356.557" x2="823.355" y2="40.594" gradientUnits="userSpaceOnUse">
<stop stop-color="#265DE3"/>
<stop offset="1" stop-color="#AF71FF"/>
</linearGradient>
<linearGradient id="paint2_linear" x1="467" y1="356.557" x2="823.355" y2="40.594" gradientUnits="userSpaceOnUse">
<stop stop-color="#5A83E7"/>
<stop offset="1" stop-color="#CAA0FF"/>
</linearGradient>
</defs>
</svg>
