<svg width="490" height="503" viewBox="0 0 490 503" fill="none" xmlns="http://www.w3.org/2000/svg">
<rect width="72" height="73" rx="10" fill="#47475D"/>
<path d="M42.0171 38.0728L42.7945 33.2233H37.9315V30.0777C37.9315 28.7506 38.6096 27.4563 40.7877 27.4563H43V23.3277C43 23.3277 40.9931 23 39.0753 23C35.0685 23 32.4521 25.3232 32.4521 29.5272V33.2233H28V38.0728H32.4521V49.7969C33.3459 49.9312 34.2603 50 35.1918 50C36.1233 50 37.0377 49.9312 37.9315 49.7969V38.0728H42.0171Z" fill="white" fill-opacity="0.6"/>
<rect x="418" y="73" width="72" height="73" rx="10" fill="#47475D"/>
<path d="M448.789 121C445.554 121 442.538 120.059 440 118.436C442.155 118.575 445.958 118.241 448.324 115.985C444.765 115.822 443.16 113.092 442.951 111.926C443.253 112.043 444.695 112.183 445.509 111.856C441.416 110.83 440.788 107.237 440.927 106.141C441.695 106.677 442.997 106.864 443.509 106.817C439.695 104.088 441.067 99.9828 441.742 99.0963C444.479 102.889 448.581 105.019 453.656 105.137C453.561 104.717 453.51 104.28 453.51 103.832C453.51 100.611 456.113 98 459.325 98C461.003 98 462.514 98.7128 463.576 99.8528C464.697 99.5901 466.384 98.9751 467.209 98.4432C466.793 99.9361 465.499 101.181 464.716 101.643C464.722 101.659 464.71 101.627 464.716 101.643C465.404 101.539 467.265 101.181 468 100.683C467.636 101.521 466.264 102.916 465.138 103.696C465.347 112.938 458.276 121 448.789 121Z" fill="white" fill-opacity="0.6"/>
<rect x="219" y="192" width="72" height="73" rx="10" fill="#47475D"/>
<path d="M258.385 226.917C259.465 225.031 258.824 222.618 256.953 221.529C255.082 220.44 252.689 221.086 251.609 222.973L243.531 237.081C242.45 238.967 243.091 241.379 244.963 242.469C246.834 243.558 249.226 242.911 250.306 241.025L258.385 226.917Z" fill="white" fill-opacity="0.4"/>
<path d="M250.826 239.055C250.826 241.234 249.074 243 246.913 243C244.752 243 243 241.234 243 239.055C243 236.876 244.752 235.109 246.913 235.109C249.074 235.109 250.826 236.876 250.826 239.055Z" fill="white" fill-opacity="0.6"/>
<path d="M251.62 226.917C250.54 225.031 251.181 222.618 253.052 221.529C254.923 220.44 257.316 221.086 258.396 222.973L266.475 237.081C267.555 238.967 266.914 241.379 265.043 242.469C263.172 243.558 260.779 242.911 259.699 241.025L251.62 226.917Z" fill="white" fill-opacity="0.8"/>
<rect y="357" width="72" height="73" rx="10" fill="#47475D"/>
<path d="M43 388.5C43 389.328 42.3284 390 41.5 390C40.6716 390 40 389.328 40 388.5C40 387.672 40.6716 387 41.5 387C42.3284 387 43 387.672 43 388.5Z" fill="white" fill-opacity="0.6"/>
<path fill-rule="evenodd" clip-rule="evenodd" d="M36 399C38.7614 399 41 396.761 41 394C41 391.239 38.7614 389 36 389C33.2386 389 31 391.239 31 394C31 396.761 33.2386 399 36 399ZM36 397C37.6569 397 39 395.657 39 394C39 392.343 37.6569 391 36 391C34.3431 391 33 392.343 33 394C33 395.657 34.3431 397 36 397Z" fill="white" fill-opacity="0.6"/>
<path fill-rule="evenodd" clip-rule="evenodd" d="M26 393.6C26 390.24 26 388.56 26.654 387.276C27.2292 386.147 28.1471 385.229 29.2761 384.654C30.5595 384 32.2397 384 35.6 384H36.4C39.7603 384 41.4405 384 42.7239 384.654C43.8529 385.229 44.7708 386.147 45.346 387.276C46 388.56 46 390.24 46 393.6V394.4C46 397.76 46 399.44 45.346 400.724C44.7708 401.853 43.8529 402.771 42.7239 403.346C41.4405 404 39.7603 404 36.4 404H35.6C32.2397 404 30.5595 404 29.2761 403.346C28.1471 402.771 27.2292 401.853 26.654 400.724C26 399.44 26 397.76 26 394.4V393.6ZM35.6 386H36.4C38.1132 386 39.2777 386.002 40.1779 386.075C41.0548 386.147 41.5032 386.277 41.816 386.436C42.5686 386.819 43.1805 387.431 43.564 388.184C43.7234 388.497 43.8533 388.945 43.9249 389.822C43.9984 390.722 44 391.887 44 393.6V394.4C44 396.113 43.9984 397.278 43.9249 398.178C43.8533 399.055 43.7234 399.503 43.564 399.816C43.1805 400.569 42.5686 401.181 41.816 401.564C41.5032 401.723 41.0548 401.853 40.1779 401.925C39.2777 401.998 38.1132 402 36.4 402H35.6C33.8868 402 32.7223 401.998 31.8221 401.925C30.9452 401.853 30.4968 401.723 30.184 401.564C29.4314 401.181 28.8195 400.569 28.436 399.816C28.2766 399.503 28.1467 399.055 28.0751 398.178C28.0016 397.278 28 396.113 28 394.4V393.6C28 391.887 28.0016 390.722 28.0751 389.822C28.1467 388.945 28.2766 388.497 28.436 388.184C28.8195 387.431 29.4314 386.819 30.184 386.436C30.4968 386.277 30.9452 386.147 31.8221 386.075C32.7223 386.002 33.8868 386 35.6 386Z" fill="white" fill-opacity="0.6"/>
<rect x="418" y="430" width="72" height="73" rx="10" fill="#47475D"/>
<path d="M448.584 460.176C448.584 461.377 447.557 462.351 446.292 462.351C445.026 462.351 444 461.377 444 460.176C444 458.974 445.026 458 446.292 458C447.557 458 448.584 458.974 448.584 460.176Z" fill="white" fill-opacity="0.6"/>
<path d="M444.313 463.95H448.231V476H444.313V463.95Z" fill="white" fill-opacity="0.6"/>
<path d="M454.538 463.95H450.621V476H454.538C454.538 476 454.538 472.207 454.538 469.835C454.538 468.411 455.017 466.981 456.928 466.981C459.087 466.981 459.074 468.844 459.064 470.288C459.051 472.174 459.082 474.1 459.082 476H463V469.64C462.967 465.58 461.924 463.709 458.495 463.709C456.458 463.709 455.196 464.647 454.538 465.496V463.95Z" fill="white" fill-opacity="0.6"/>
<line x1="57.0379" y1="96.917" x2="191.333" y2="225.621" stroke="#9A9AC6" stroke-opacity="0.6" stroke-width="3" stroke-dasharray="2 2"/>
<line x1="263.038" y1="315.917" x2="397.333" y2="444.621" stroke="#9A9AC6" stroke-opacity="0.6" stroke-width="3" stroke-dasharray="2 2"/>
<line x1="258.382" y1="174.633" x2="404.382" y2="108.633" stroke="#9A9AC6" stroke-opacity="0.6" stroke-width="3" stroke-dasharray="2 2"/>
<line x1="33.5" y1="316.999" x2="34.6367" y2="130.991" stroke="#9A9AC6" stroke-opacity="0.6" stroke-width="3" stroke-dasharray="2 2"/>
<line x1="451.5" y1="380.999" x2="452.637" y2="194.991" stroke="#9A9AC6" stroke-opacity="0.6" stroke-width="3" stroke-dasharray="2 2"/>
</svg>
