<svg width="490" height="860" viewBox="0 0 490 860" fill="none" xmlns="http://www.w3.org/2000/svg">
<path d="M77.4911 44V19.184H86.4191V11.984H60.2591V19.184H69.2351V44H77.4911ZM110.384 44V20.816H102.992V35.792C102.128 36.896 100.688 38.048 98.5763 38.048C96.1763 38.048 94.7363 37.088 94.7363 34.304V20.816H87.3443V37.328C87.3443 41.6 89.6963 44.576 94.9763 44.576C98.8643 44.576 101.552 42.848 102.992 41.216V44H110.384ZM123.143 44V29.216C124.103 27.92 126.647 27.104 128.567 27.104C129.335 27.104 129.959 27.2 130.391 27.296V20.192C127.607 20.192 124.679 21.776 123.143 23.648V20.816H115.751V44H123.143ZM156.839 44V27.584C156.839 23.312 154.439 20.24 149.159 20.24C145.271 20.24 142.535 22.016 141.143 23.648V20.816H133.751V44H141.143V29.024C142.007 27.968 143.447 26.768 145.655 26.768C147.959 26.768 149.447 27.776 149.447 30.608V44H156.839ZM178.181 18.752C180.533 18.752 182.405 16.832 182.405 14.48C182.405 12.128 180.533 10.256 178.181 10.256C175.829 10.256 173.957 12.128 173.957 14.48C173.957 16.832 175.829 18.752 178.181 18.752ZM181.877 44V20.816H174.485V44H181.877ZM210.323 44V27.584C210.323 23.312 207.923 20.24 202.643 20.24C198.755 20.24 196.019 22.016 194.627 23.648V20.816H187.235V44H194.627V29.024C195.491 27.968 196.931 26.768 199.139 26.768C201.443 26.768 202.931 27.776 202.931 30.608V44H210.323ZM224.568 44.576C231.24 44.576 235.128 41.312 235.128 36.896C235.128 27.392 221.64 30.032 221.64 27.344C221.64 26.384 222.84 25.664 224.568 25.664C227.352 25.664 229.992 26.864 231.384 28.208L234.216 23.312C231.72 21.488 228.408 20.24 224.52 20.24C218.088 20.24 214.584 23.792 214.584 27.872C214.584 37.184 228.072 34.208 228.072 37.232C228.072 38.288 227.16 39.008 224.952 39.008C222.216 39.008 218.52 37.472 216.792 35.936L213.72 41.024C216.168 43.184 220.44 44.576 224.568 44.576ZM242.634 18.752C244.986 18.752 246.858 16.832 246.858 14.48C246.858 12.128 244.986 10.256 242.634 10.256C240.282 10.256 238.41 12.128 238.41 14.48C238.41 16.832 240.282 18.752 242.634 18.752ZM246.33 44V20.816H238.938V44H246.33ZM261.336 53.408C267.096 53.408 274.584 51.392 274.584 41.936V20.816H267.24V23.552C265.368 21.248 262.968 20.24 260.376 20.24C254.568 20.24 250.152 24.272 250.152 31.904C250.152 39.728 254.712 43.616 260.376 43.616C263.016 43.616 265.32 42.512 267.24 40.256V42.032C267.24 46.352 263.784 47.36 261.336 47.36C258.648 47.36 256.056 46.592 254.28 44.672L251.064 49.952C254.04 52.4 257.352 53.408 261.336 53.408ZM262.824 37.088C259.896 37.088 257.736 35.312 257.736 31.904C257.736 28.544 259.896 26.768 262.824 26.768C264.36 26.768 266.328 27.584 267.24 28.832V35.024C266.328 36.272 264.36 37.088 262.824 37.088ZM303.137 44V27.488C303.137 23.216 300.737 20.24 295.457 20.24C291.569 20.24 288.833 22.016 287.441 23.648V11.984H280.049V44H287.441V29.024C288.305 27.968 289.745 26.768 291.905 26.768C294.257 26.768 295.745 27.68 295.745 30.512V44H303.137ZM317.285 44.576C320.021 44.576 321.845 43.904 322.757 43.04L321.317 37.472C321.077 37.76 320.261 38.048 319.445 38.048C318.148 38.048 317.381 37.04 317.381 35.696V27.248H322.085V20.816H317.381V14.48H310.037V20.816H306.197V27.248H310.037V37.76C310.037 42.224 312.581 44.576 317.285 44.576ZM334.677 44.576C341.349 44.576 345.237 41.312 345.237 36.896C345.237 27.392 331.749 30.032 331.749 27.344C331.749 26.384 332.949 25.664 334.677 25.664C337.461 25.664 340.101 26.864 341.493 28.208L344.325 23.312C341.829 21.488 338.517 20.24 334.629 20.24C328.197 20.24 324.693 23.792 324.693 27.872C324.693 37.184 338.181 34.208 338.181 37.232C338.181 38.288 337.269 39.008 335.061 39.008C332.325 39.008 328.629 37.472 326.901 35.936L323.829 41.024C326.277 43.184 330.549 44.576 334.677 44.576ZM365.025 18.752C367.377 18.752 369.249 16.832 369.249 14.48C369.249 12.128 367.377 10.256 365.025 10.256C362.673 10.256 360.801 12.128 360.801 14.48C360.801 16.832 362.673 18.752 365.025 18.752ZM368.721 44V20.816H361.329V44H368.721ZM397.167 44V27.584C397.167 23.312 394.767 20.24 389.487 20.24C385.599 20.24 382.863 22.016 381.471 23.648V20.816H374.079V44H381.471V29.024C382.335 27.968 383.775 26.768 385.983 26.768C388.287 26.768 389.775 27.776 389.775 30.608V44H397.167ZM411.316 44.576C414.052 44.576 415.876 43.904 416.788 43.04L415.348 37.472C415.108 37.76 414.292 38.048 413.476 38.048C412.18 38.048 411.412 37.04 411.412 35.696V27.248H416.116V20.816H411.412V14.48H404.068V20.816H400.228V27.248H404.068V37.76C404.068 42.224 406.612 44.576 411.316 44.576ZM430.917 44.576C438.885 44.576 443.589 38.912 443.589 32.384C443.589 25.856 438.885 20.24 430.917 20.24C423.045 20.24 418.293 25.856 418.293 32.384C418.293 38.912 423.045 44.576 430.917 44.576ZM430.917 38.048C427.701 38.048 425.925 35.504 425.925 32.384C425.925 29.312 427.701 26.768 430.917 26.768C434.181 26.768 436.005 29.312 436.005 32.384C436.005 35.504 434.181 38.048 430.917 38.048ZM185.563 111.408C191.323 111.408 198.811 109.392 198.811 99.936V78.816H191.467V81.552C189.595 79.248 187.195 78.24 184.603 78.24C178.795 78.24 174.379 82.272 174.379 89.904C174.379 97.728 178.939 101.616 184.603 101.616C187.243 101.616 189.547 100.512 191.467 98.256V100.032C191.467 104.352 188.011 105.36 185.563 105.36C182.875 105.36 180.283 104.592 178.507 102.672L175.291 107.952C178.267 110.4 181.579 111.408 185.563 111.408ZM187.051 95.088C184.123 95.088 181.963 93.312 181.963 89.904C181.963 86.544 184.123 84.768 187.051 84.768C188.587 84.768 190.555 85.584 191.467 86.832V93.024C190.555 94.272 188.587 95.088 187.051 95.088ZM211.619 102V87.216C212.579 85.92 215.123 85.104 217.043 85.104C217.811 85.104 218.435 85.2 218.867 85.296V78.192C216.083 78.192 213.155 79.776 211.619 81.648V78.816H204.227V102H211.619ZM233.315 102.576C241.283 102.576 245.987 96.912 245.987 90.384C245.987 83.856 241.283 78.24 233.315 78.24C225.443 78.24 220.691 83.856 220.691 90.384C220.691 96.912 225.443 102.576 233.315 102.576ZM233.315 96.048C230.099 96.048 228.323 93.504 228.323 90.384C228.323 87.312 230.099 84.768 233.315 84.768C236.579 84.768 238.403 87.312 238.403 90.384C238.403 93.504 236.579 96.048 233.315 96.048ZM278.395 102L285.259 78.816H277.627L273.931 93.024L269.371 78.816H262.795L258.235 93.024L254.491 78.816H246.907L253.771 102H261.739L266.059 87.648L270.427 102H278.395ZM296.449 102.576C299.185 102.576 301.009 101.904 301.921 101.04L300.481 95.472C300.241 95.76 299.425 96.048 298.609 96.048C297.313 96.048 296.545 95.04 296.545 93.696V85.248H301.249V78.816H296.545V72.48H289.201V78.816H285.361V85.248H289.201V95.76C289.201 100.224 291.745 102.576 296.449 102.576ZM328.097 102V85.488C328.097 81.216 325.697 78.24 320.417 78.24C316.529 78.24 313.793 80.016 312.401 81.648V69.984H305.009V102H312.401V87.024C313.265 85.968 314.705 84.768 316.865 84.768C319.217 84.768 320.705 85.68 320.705 88.512V102H328.097Z" fill="white"/>
<path d="M79.6304 165L74.2504 151.66H72.1904L66.8304 165H68.7304L69.9104 162.04H76.5504L77.7304 165H79.6304ZM76.0504 160.56H70.3904L73.2304 153.38L76.0504 160.56ZM83.5396 165.24C84.4196 165.24 84.9596 164.98 85.3396 164.62L84.8996 163.5C84.6996 163.72 84.2996 163.9 83.8796 163.9C83.2196 163.9 82.8996 163.38 82.8996 162.66V156.66H84.8596V155.34H82.8996V152.7H81.3996V155.34H79.7996V156.66H81.3996V162.98C81.3996 164.42 82.1196 165.24 83.5396 165.24ZM89.4185 165.24C90.2985 165.24 90.8385 164.98 91.2185 164.62L90.7785 163.5C90.5785 163.72 90.1785 163.9 89.7585 163.9C89.0985 163.9 88.7785 163.38 88.7785 162.66V156.66H90.7385V155.34H88.7785V152.7H87.2785V155.34H85.6785V156.66H87.2785V162.98C87.2785 164.42 87.9985 165.24 89.4185 165.24ZM94.3574 165V158.16C94.7974 157.38 96.0574 156.62 96.9774 156.62C97.2174 156.62 97.3974 156.64 97.5774 156.68V155.14C96.2574 155.14 95.1374 155.88 94.3574 156.9V155.34H92.8574V165H94.3574ZM100.199 153.96C100.759 153.96 101.219 153.52 101.219 152.96C101.219 152.4 100.759 151.94 100.199 151.94C99.659 151.94 99.199 152.4 99.199 152.96C99.199 153.52 99.659 153.96 100.199 153.96ZM100.959 165V155.34H99.459V165H100.959ZM105.451 162.38V158C105.971 157.16 107.151 156.44 108.331 156.44C110.291 156.44 111.451 158.04 111.451 160.18C111.451 162.32 110.291 163.9 108.331 163.9C107.151 163.9 105.971 163.22 105.451 162.38ZM105.451 165V163.56C106.171 164.54 107.351 165.24 108.711 165.24C111.231 165.24 113.011 163.32 113.011 160.18C113.011 157.1 111.231 155.1 108.711 155.1C107.391 155.1 106.231 155.74 105.451 156.8V151.66H103.951V165H105.451ZM123.475 165V155.34H121.975V162.44C121.415 163.22 120.295 163.9 119.115 163.9C117.815 163.9 116.955 163.4 116.955 161.7V155.34H115.455V162.16C115.455 164.26 116.515 165.24 118.535 165.24C119.975 165.24 121.235 164.48 121.975 163.64V165H123.475ZM128.911 165.24C129.791 165.24 130.331 164.98 130.711 164.62L130.271 163.5C130.071 163.72 129.671 163.9 129.251 163.9C128.591 163.9 128.271 163.38 128.271 162.66V156.66H130.231V155.34H128.271V152.7H126.771V155.34H125.171V156.66H126.771V162.98C126.771 164.42 127.491 165.24 128.911 165.24ZM133.09 153.96C133.65 153.96 134.11 153.52 134.11 152.96C134.11 152.4 133.65 151.94 133.09 151.94C132.55 151.94 132.09 152.4 132.09 152.96C132.09 153.52 132.55 153.96 133.09 153.96ZM133.85 165V155.34H132.35V165H133.85ZM144.862 165V158.22C144.862 156.12 143.802 155.1 141.782 155.1C140.342 155.1 139.022 155.94 138.342 156.74V155.34H136.842V165H138.342V157.94C138.902 157.16 140.022 156.44 141.202 156.44C142.502 156.44 143.362 156.98 143.362 158.68V165H144.862ZM151.737 168.92C154.097 168.92 156.337 167.92 156.337 164.72V155.34H154.837V156.8C154.057 155.74 152.897 155.1 151.597 155.1C149.057 155.1 147.297 157.02 147.297 160.12C147.297 163.24 149.077 165.12 151.597 165.12C152.957 165.12 154.137 164.38 154.837 163.4V164.78C154.837 166.9 153.337 167.68 151.737 167.68C150.357 167.68 149.397 167.32 148.597 166.36L147.837 167.48C148.977 168.6 150.097 168.92 151.737 168.92ZM151.957 163.8C150.017 163.8 148.857 162.24 148.857 160.12C148.857 157.98 150.017 156.44 151.957 156.44C153.157 156.44 154.317 157.16 154.837 158V162.22C154.317 163.06 153.157 163.8 151.957 163.8ZM167.558 165.24C170.058 165.24 171.358 163.94 171.358 162.32C171.358 158.56 165.378 159.96 165.378 157.84C165.378 156.98 166.198 156.32 167.518 156.32C168.758 156.32 169.818 156.84 170.398 157.54L171.098 156.5C170.318 155.72 169.158 155.1 167.518 155.1C165.218 155.1 163.918 156.38 163.918 157.88C163.918 161.46 169.898 160.02 169.898 162.36C169.898 163.32 169.098 164.02 167.618 164.02C166.298 164.02 165.078 163.38 164.438 162.64L163.658 163.72C164.638 164.76 165.978 165.24 167.558 165.24ZM181.815 165V155.34H180.315V162.44C179.755 163.22 178.635 163.9 177.455 163.9C176.155 163.9 175.295 163.4 175.295 161.7V155.34H173.795V162.16C173.795 164.26 174.855 165.24 176.875 165.24C178.315 165.24 179.575 164.48 180.315 163.64V165H181.815ZM189.071 165.24C190.831 165.24 191.871 164.52 192.611 163.56L191.611 162.64C190.971 163.5 190.151 163.9 189.151 163.9C187.091 163.9 185.811 162.3 185.811 160.16C185.811 158.02 187.091 156.44 189.151 156.44C190.151 156.44 190.971 156.82 191.611 157.7L192.611 156.78C191.871 155.82 190.831 155.1 189.071 155.1C186.191 155.1 184.251 157.3 184.251 160.16C184.251 163.04 186.191 165.24 189.071 165.24ZM198.973 165.24C200.733 165.24 201.773 164.52 202.513 163.56L201.513 162.64C200.873 163.5 200.053 163.9 199.053 163.9C196.993 163.9 195.713 162.3 195.713 160.16C195.713 158.02 196.993 156.44 199.053 156.44C200.053 156.44 200.873 156.82 201.513 157.7L202.513 156.78C201.773 155.82 200.733 155.1 198.973 155.1C196.093 155.1 194.153 157.3 194.153 160.16C194.153 163.04 196.093 165.24 198.973 165.24ZM208.975 165.24C210.555 165.24 211.855 164.72 212.815 163.76L212.095 162.78C211.335 163.56 210.215 164 209.115 164C207.035 164 205.755 162.48 205.635 160.66H213.455V160.28C213.455 157.38 211.735 155.1 208.815 155.1C206.055 155.1 204.055 157.36 204.055 160.16C204.055 163.18 206.115 165.24 208.975 165.24ZM211.975 159.56H205.635C205.715 158.08 206.735 156.34 208.795 156.34C210.995 156.34 211.955 158.12 211.975 159.56ZM218.945 165.24C221.445 165.24 222.745 163.94 222.745 162.32C222.745 158.56 216.765 159.96 216.765 157.84C216.765 156.98 217.585 156.32 218.905 156.32C220.145 156.32 221.205 156.84 221.785 157.54L222.485 156.5C221.705 155.72 220.545 155.1 218.905 155.1C216.605 155.1 215.305 156.38 215.305 157.88C215.305 161.46 221.285 160.02 221.285 162.36C221.285 163.32 220.485 164.02 219.005 164.02C217.685 164.02 216.465 163.38 215.825 162.64L215.045 163.72C216.025 164.76 217.365 165.24 218.945 165.24ZM228.242 165.24C230.742 165.24 232.042 163.94 232.042 162.32C232.042 158.56 226.062 159.96 226.062 157.84C226.062 156.98 226.882 156.32 228.202 156.32C229.442 156.32 230.502 156.84 231.082 157.54L231.782 156.5C231.002 155.72 229.842 155.1 228.202 155.1C225.902 155.1 224.602 156.38 224.602 157.88C224.602 161.46 230.582 160.02 230.582 162.36C230.582 163.32 229.782 164.02 228.302 164.02C226.982 164.02 225.762 163.38 225.122 162.64L224.342 163.72C225.322 164.76 226.662 165.24 228.242 165.24ZM247.175 165V158.36C247.175 156.02 245.475 155.1 243.435 155.1C241.855 155.1 240.615 155.62 239.575 156.7L240.275 157.74C241.135 156.82 242.075 156.4 243.235 156.4C244.635 156.4 245.675 157.14 245.675 158.44V160.18C244.895 159.28 243.795 158.86 242.475 158.86C240.835 158.86 239.095 159.88 239.095 162.04C239.095 164.14 240.835 165.24 242.475 165.24C243.775 165.24 244.875 164.78 245.675 163.9V165H247.175ZM243.015 164.16C241.615 164.16 240.635 163.28 240.635 162.06C240.635 160.82 241.615 159.94 243.015 159.94C244.075 159.94 245.095 160.34 245.675 161.14V162.96C245.095 163.76 244.075 164.16 243.015 164.16ZM254.442 165.24C256.202 165.24 257.242 164.52 257.982 163.56L256.982 162.64C256.342 163.5 255.522 163.9 254.522 163.9C252.462 163.9 251.182 162.3 251.182 160.16C251.182 158.02 252.462 156.44 254.522 156.44C255.522 156.44 256.342 156.82 256.982 157.7L257.982 156.78C257.242 155.82 256.202 155.1 254.442 155.1C251.562 155.1 249.622 157.3 249.622 160.16C249.622 163.04 251.562 165.24 254.442 165.24ZM261.584 165V158.16C262.024 157.38 263.284 156.62 264.204 156.62C264.444 156.62 264.624 156.64 264.804 156.68V155.14C263.484 155.14 262.364 155.88 261.584 156.9V155.34H260.084V165H261.584ZM270.906 165.24C273.846 165.24 275.686 162.96 275.686 160.16C275.686 157.36 273.846 155.1 270.906 155.1C267.966 155.1 266.126 157.36 266.126 160.16C266.126 162.96 267.966 165.24 270.906 165.24ZM270.906 163.9C268.846 163.9 267.686 162.14 267.686 160.16C267.686 158.2 268.846 156.44 270.906 156.44C272.966 156.44 274.106 158.2 274.106 160.16C274.106 162.14 272.966 163.9 270.906 163.9ZM281.191 165.24C283.691 165.24 284.991 163.94 284.991 162.32C284.991 158.56 279.011 159.96 279.011 157.84C279.011 156.98 279.831 156.32 281.151 156.32C282.391 156.32 283.451 156.84 284.031 157.54L284.731 156.5C283.951 155.72 282.791 155.1 281.151 155.1C278.851 155.1 277.551 156.38 277.551 157.88C277.551 161.46 283.531 160.02 283.531 162.36C283.531 163.32 282.731 164.02 281.251 164.02C279.931 164.02 278.711 163.38 278.071 162.64L277.291 163.72C278.271 164.76 279.611 165.24 281.191 165.24ZM290.488 165.24C292.988 165.24 294.288 163.94 294.288 162.32C294.288 158.56 288.308 159.96 288.308 157.84C288.308 156.98 289.128 156.32 290.448 156.32C291.688 156.32 292.748 156.84 293.328 157.54L294.028 156.5C293.248 155.72 292.088 155.1 290.448 155.1C288.148 155.1 286.848 156.38 286.848 157.88C286.848 161.46 292.828 160.02 292.828 162.36C292.828 163.32 292.028 164.02 290.548 164.02C289.228 164.02 288.008 163.38 287.368 162.64L286.588 163.72C287.568 164.76 288.908 165.24 290.488 165.24ZM315.041 165V158.02C315.041 156.08 314.101 155.1 312.341 155.1C310.941 155.1 309.641 156.02 309.101 156.9C308.821 155.9 307.981 155.1 306.501 155.1C305.081 155.1 303.781 156.12 303.381 156.74V155.34H301.881V165H303.381V157.94C303.901 157.16 304.941 156.44 305.921 156.44C307.181 156.44 307.701 157.22 307.701 158.44V165H309.201V157.92C309.701 157.16 310.761 156.44 311.761 156.44C313.001 156.44 313.541 157.22 313.541 158.44V165H315.041ZM326.053 165V155.34H324.553V162.44C323.993 163.22 322.873 163.9 321.693 163.9C320.393 163.9 319.533 163.4 319.533 161.7V155.34H318.033V162.16C318.033 164.26 319.093 165.24 321.113 165.24C322.553 165.24 323.813 164.48 324.553 163.64V165H326.053ZM330.549 165V151.66H329.049V165H330.549ZM335.981 165.24C336.861 165.24 337.401 164.98 337.781 164.62L337.341 163.5C337.141 163.72 336.741 163.9 336.321 163.9C335.661 163.9 335.341 163.38 335.341 162.66V156.66H337.301V155.34H335.341V152.7H333.841V155.34H332.241V156.66H333.841V162.98C333.841 164.42 334.561 165.24 335.981 165.24ZM340.16 153.96C340.72 153.96 341.18 153.52 341.18 152.96C341.18 152.4 340.72 151.94 340.16 151.94C339.62 151.94 339.16 152.4 339.16 152.96C339.16 153.52 339.62 153.96 340.16 153.96ZM340.92 165V155.34H339.42V165H340.92ZM348.672 165.24C351.212 165.24 352.972 163.28 352.972 160.16C352.972 157.02 351.212 155.1 348.672 155.1C347.312 155.1 346.112 155.8 345.412 156.78V155.34H343.912V168.68H345.412V163.54C346.192 164.62 347.352 165.24 348.672 165.24ZM348.292 163.9C347.112 163.9 345.932 163.18 345.412 162.34V157.98C345.932 157.14 347.112 156.44 348.292 156.44C350.232 156.44 351.392 158.02 351.392 160.16C351.392 162.3 350.232 163.9 348.292 163.9ZM356.857 165V151.66H355.357V165H356.857ZM364.21 165.24C365.79 165.24 367.09 164.72 368.05 163.76L367.33 162.78C366.57 163.56 365.45 164 364.35 164C362.27 164 360.99 162.48 360.87 160.66H368.69V160.28C368.69 157.38 366.97 155.1 364.05 155.1C361.29 155.1 359.29 157.36 359.29 160.16C359.29 163.18 361.35 165.24 364.21 165.24ZM367.21 159.56H360.87C360.95 158.08 361.97 156.34 364.03 156.34C366.23 156.34 367.19 158.12 367.21 159.56ZM380.535 165.24C382.295 165.24 383.335 164.52 384.075 163.56L383.075 162.64C382.435 163.5 381.615 163.9 380.615 163.9C378.555 163.9 377.275 162.3 377.275 160.16C377.275 158.02 378.555 156.44 380.615 156.44C381.615 156.44 382.435 156.82 383.075 157.7L384.075 156.78C383.335 155.82 382.295 155.1 380.535 155.1C377.655 155.1 375.715 157.3 375.715 160.16C375.715 163.04 377.655 165.24 380.535 165.24ZM394.218 165V158.18C394.218 156.08 393.158 155.1 391.138 155.1C389.678 155.1 388.358 155.94 387.678 156.74V151.66H386.178V165H387.678V157.94C388.258 157.16 389.378 156.44 390.538 156.44C391.838 156.44 392.718 156.94 392.718 158.64V165H394.218ZM404.753 165V158.36C404.753 156.02 403.053 155.1 401.013 155.1C399.433 155.1 398.193 155.62 397.153 156.7L397.853 157.74C398.713 156.82 399.653 156.4 400.813 156.4C402.213 156.4 403.253 157.14 403.253 158.44V160.18C402.473 159.28 401.373 158.86 400.053 158.86C398.413 158.86 396.673 159.88 396.673 162.04C396.673 164.14 398.413 165.24 400.053 165.24C401.353 165.24 402.453 164.78 403.253 163.9V165H404.753ZM400.593 164.16C399.193 164.16 398.213 163.28 398.213 162.06C398.213 160.82 399.193 159.94 400.593 159.94C401.653 159.94 402.673 160.34 403.253 161.14V162.96C402.673 163.76 401.653 164.16 400.593 164.16ZM415.78 165V158.22C415.78 156.12 414.72 155.1 412.7 155.1C411.26 155.1 409.94 155.94 409.26 156.74V155.34H407.76V165H409.26V157.94C409.82 157.16 410.94 156.44 412.12 156.44C413.42 156.44 414.28 156.98 414.28 158.68V165H415.78ZM426.795 165V158.22C426.795 156.12 425.735 155.1 423.715 155.1C422.275 155.1 420.955 155.94 420.275 156.74V155.34H418.775V165H420.275V157.94C420.835 157.16 421.955 156.44 423.135 156.44C424.435 156.44 425.295 156.98 425.295 158.68V165H426.795ZM434.151 165.24C435.731 165.24 437.031 164.72 437.991 163.76L437.271 162.78C436.511 163.56 435.391 164 434.291 164C432.211 164 430.931 162.48 430.811 160.66H438.631V160.28C438.631 157.38 436.911 155.1 433.991 155.1C431.231 155.1 429.231 157.36 429.231 160.16C429.231 163.18 431.291 165.24 434.151 165.24ZM437.151 159.56H430.811C430.891 158.08 431.911 156.34 433.971 156.34C436.171 156.34 437.131 158.12 437.151 159.56ZM442.561 165V151.66H441.061V165H442.561ZM448.613 165.24C451.113 165.24 452.413 163.94 452.413 162.32C452.413 158.56 446.433 159.96 446.433 157.84C446.433 156.98 447.253 156.32 448.573 156.32C449.813 156.32 450.873 156.84 451.453 157.54L452.153 156.5C451.373 155.72 450.213 155.1 448.573 155.1C446.273 155.1 444.973 156.38 444.973 157.88C444.973 161.46 450.953 160.02 450.953 162.36C450.953 163.32 450.153 164.02 448.673 164.02C447.353 164.02 446.133 163.38 445.493 162.64L444.713 163.72C445.693 164.76 447.033 165.24 448.613 165.24ZM172.118 197V190.18C172.118 188.08 171.058 187.1 169.038 187.1C167.578 187.1 166.258 187.94 165.578 188.74V183.66H164.078V197H165.578V189.94C166.158 189.16 167.278 188.44 168.438 188.44C169.738 188.44 170.618 188.94 170.618 190.64V197H172.118ZM182.653 197V190.36C182.653 188.02 180.953 187.1 178.913 187.1C177.333 187.1 176.093 187.62 175.053 188.7L175.753 189.74C176.613 188.82 177.553 188.4 178.713 188.4C180.113 188.4 181.153 189.14 181.153 190.44V192.18C180.373 191.28 179.273 190.86 177.953 190.86C176.313 190.86 174.573 191.88 174.573 194.04C174.573 196.14 176.313 197.24 177.953 197.24C179.253 197.24 180.353 196.78 181.153 195.9V197H182.653ZM178.493 196.16C177.093 196.16 176.113 195.28 176.113 194.06C176.113 192.82 177.093 191.94 178.493 191.94C179.553 191.94 180.573 192.34 181.153 193.14V194.96C180.573 195.76 179.553 196.16 178.493 196.16ZM188.72 197.24C191.22 197.24 192.52 195.94 192.52 194.32C192.52 190.56 186.54 191.96 186.54 189.84C186.54 188.98 187.36 188.32 188.68 188.32C189.92 188.32 190.98 188.84 191.56 189.54L192.26 188.5C191.48 187.72 190.32 187.1 188.68 187.1C186.38 187.1 185.08 188.38 185.08 189.88C185.08 193.46 191.06 192.02 191.06 194.36C191.06 195.32 190.26 196.02 188.78 196.02C187.46 196.02 186.24 195.38 185.6 194.64L184.82 195.72C185.8 196.76 187.14 197.24 188.72 197.24ZM208.133 197V190.22C208.133 188.12 207.073 187.1 205.053 187.1C203.613 187.1 202.293 187.94 201.613 188.74V187.34H200.113V197H201.613V189.94C202.173 189.16 203.293 188.44 204.473 188.44C205.773 188.44 206.633 188.98 206.633 190.68V197H208.133ZM215.489 197.24C217.069 197.24 218.369 196.72 219.329 195.76L218.609 194.78C217.849 195.56 216.729 196 215.629 196C213.549 196 212.269 194.48 212.149 192.66H219.969V192.28C219.969 189.38 218.249 187.1 215.329 187.1C212.569 187.1 210.569 189.36 210.569 192.16C210.569 195.18 212.629 197.24 215.489 197.24ZM218.489 191.56H212.149C212.229 190.08 213.249 188.34 215.309 188.34C217.509 188.34 218.469 190.12 218.489 191.56ZM226.618 197L230.638 187.34H228.998L225.798 195.26L222.578 187.34H220.958L224.978 197H226.618ZM236.563 197.24C238.143 197.24 239.443 196.72 240.403 195.76L239.683 194.78C238.923 195.56 237.803 196 236.703 196C234.623 196 233.343 194.48 233.223 192.66H241.043V192.28C241.043 189.38 239.323 187.1 236.403 187.1C233.643 187.1 231.643 189.36 231.643 192.16C231.643 195.18 233.703 197.24 236.563 197.24ZM239.563 191.56H233.223C233.303 190.08 234.323 188.34 236.383 188.34C238.583 188.34 239.543 190.12 239.563 191.56ZM244.973 197V190.16C245.413 189.38 246.673 188.62 247.593 188.62C247.833 188.62 248.013 188.64 248.193 188.68V187.14C246.873 187.14 245.753 187.88 244.973 188.9V187.34H243.473V197H244.973ZM256.73 194.38V190C257.25 189.16 258.43 188.44 259.61 188.44C261.57 188.44 262.73 190.04 262.73 192.18C262.73 194.32 261.57 195.9 259.61 195.9C258.43 195.9 257.25 195.22 256.73 194.38ZM256.73 197V195.56C257.45 196.54 258.63 197.24 259.99 197.24C262.51 197.24 264.29 195.32 264.29 192.18C264.29 189.1 262.51 187.1 259.99 187.1C258.67 187.1 257.51 187.74 256.73 188.8V183.66H255.23V197H256.73ZM271.094 197.24C272.674 197.24 273.974 196.72 274.934 195.76L274.214 194.78C273.454 195.56 272.334 196 271.234 196C269.154 196 267.874 194.48 267.754 192.66H275.574V192.28C275.574 189.38 273.854 187.1 270.934 187.1C268.174 187.1 266.174 189.36 266.174 192.16C266.174 195.18 268.234 197.24 271.094 197.24ZM274.094 191.56H267.754C267.834 190.08 268.854 188.34 270.914 188.34C273.114 188.34 274.074 190.12 274.094 191.56ZM282.364 197.24C283.944 197.24 285.244 196.72 286.204 195.76L285.484 194.78C284.724 195.56 283.604 196 282.504 196C280.424 196 279.144 194.48 279.024 192.66H286.844V192.28C286.844 189.38 285.124 187.1 282.204 187.1C279.444 187.1 277.444 189.36 277.444 192.16C277.444 195.18 279.504 197.24 282.364 197.24ZM285.364 191.56H279.024C279.104 190.08 280.124 188.34 282.184 188.34C284.384 188.34 285.344 190.12 285.364 191.56ZM297.293 197V190.22C297.293 188.12 296.233 187.1 294.213 187.1C292.773 187.1 291.453 187.94 290.773 188.74V187.34H289.273V197H290.773V189.94C291.333 189.16 292.453 188.44 293.633 188.44C294.933 188.44 295.793 188.98 295.793 190.68V197H297.293ZM309.805 197.24C311.385 197.24 312.685 196.72 313.645 195.76L312.925 194.78C312.165 195.56 311.045 196 309.945 196C307.865 196 306.585 194.48 306.465 192.66H314.285V192.28C314.285 189.38 312.565 187.1 309.645 187.1C306.885 187.1 304.885 189.36 304.885 192.16C304.885 195.18 306.945 197.24 309.805 197.24ZM312.805 191.56H306.465C306.545 190.08 307.565 188.34 309.625 188.34C311.825 188.34 312.785 190.12 312.805 191.56ZM324.255 197V190.36C324.255 188.02 322.555 187.1 320.515 187.1C318.935 187.1 317.695 187.62 316.655 188.7L317.355 189.74C318.215 188.82 319.155 188.4 320.315 188.4C321.715 188.4 322.755 189.14 322.755 190.44V192.18C321.975 191.28 320.875 190.86 319.555 190.86C317.915 190.86 316.175 191.88 316.175 194.04C316.175 196.14 317.915 197.24 319.555 197.24C320.855 197.24 321.955 196.78 322.755 195.9V197H324.255ZM320.095 196.16C318.695 196.16 317.715 195.28 317.715 194.06C317.715 192.82 318.695 191.94 320.095 191.94C321.155 191.94 322.175 192.34 322.755 193.14V194.96C322.175 195.76 321.155 196.16 320.095 196.16ZM330.322 197.24C332.822 197.24 334.122 195.94 334.122 194.32C334.122 190.56 328.142 191.96 328.142 189.84C328.142 188.98 328.962 188.32 330.282 188.32C331.522 188.32 332.582 188.84 333.162 189.54L333.862 188.5C333.082 187.72 331.922 187.1 330.282 187.1C327.982 187.1 326.682 188.38 326.682 189.88C326.682 193.46 332.662 192.02 332.662 194.36C332.662 195.32 331.862 196.02 330.382 196.02C329.062 196.02 327.842 195.38 327.202 194.64L326.422 195.72C327.402 196.76 328.742 197.24 330.322 197.24ZM337.299 185.96C337.859 185.96 338.319 185.52 338.319 184.96C338.319 184.4 337.859 183.94 337.299 183.94C336.759 183.94 336.299 184.4 336.299 184.96C336.299 185.52 336.759 185.96 337.299 185.96ZM338.059 197V187.34H336.559V197H338.059ZM345.411 197.24C346.991 197.24 348.291 196.72 349.251 195.76L348.531 194.78C347.771 195.56 346.651 196 345.551 196C343.471 196 342.191 194.48 342.071 192.66H349.891V192.28C349.891 189.38 348.171 187.1 345.251 187.1C342.491 187.1 340.491 189.36 340.491 192.16C340.491 195.18 342.551 197.24 345.411 197.24ZM348.411 191.56H342.071C342.151 190.08 343.171 188.34 345.231 188.34C347.431 188.34 348.391 190.12 348.411 191.56ZM353.82 197V190.16C354.26 189.38 355.52 188.62 356.44 188.62C356.68 188.62 356.86 188.64 357.04 188.68V187.14C355.72 187.14 354.6 187.88 353.82 188.9V187.34H352.32V197H353.82Z" fill="white"/>
<rect x="113" y="236" width="193" height="38" rx="19" fill="#47475E"/>
<rect x="262" y="236" width="129" height="38" rx="19" fill="#2194FF"/>
<path d="M292.884 259H291.134L289.314 252.112L287.508 259H285.758L283.084 249.662H284.918L286.738 256.858L288.67 249.662H289.972L291.904 256.858L293.71 249.662H295.544L292.884 259ZM297.326 251.412C297.084 251.412 296.869 251.323 296.682 251.146C296.505 250.969 296.416 250.754 296.416 250.502C296.416 250.25 296.505 250.035 296.682 249.858C296.869 249.681 297.084 249.592 297.326 249.592C297.578 249.592 297.793 249.681 297.97 249.858C298.148 250.035 298.236 250.25 298.236 250.502C298.236 250.754 298.148 250.969 297.97 251.146C297.793 251.323 297.578 251.412 297.326 251.412ZM298.068 259H296.598V252.238H298.068V259ZM302.005 259.168C301.436 259.168 301.002 259.019 300.703 258.72C300.414 258.421 300.269 257.992 300.269 257.432V253.526H299.149V252.238H300.269V250.39H301.739V252.238H303.111V253.526H301.739V257.068C301.739 257.311 301.795 257.507 301.907 257.656C302.019 257.796 302.178 257.866 302.383 257.866C302.682 257.866 302.901 257.787 303.041 257.628L303.391 258.734C303.083 259.023 302.621 259.168 302.005 259.168ZM310.494 259H309.024V254.744C309.024 254.249 308.903 253.899 308.66 253.694C308.427 253.479 308.091 253.372 307.652 253.372C307.307 253.372 306.98 253.461 306.672 253.638C306.364 253.815 306.112 254.03 305.916 254.282V259H304.446V249.662H305.916V253.162C306.168 252.863 306.504 252.607 306.924 252.392C307.353 252.177 307.815 252.07 308.31 252.07C309.766 252.07 310.494 252.784 310.494 254.212V259ZM319.233 259.168C317.628 259.168 316.363 258.673 315.439 257.684L316.349 256.424C317.152 257.283 318.136 257.712 319.303 257.712C319.928 257.712 320.395 257.586 320.703 257.334C321.02 257.082 321.179 256.783 321.179 256.438C321.179 256.083 320.992 255.803 320.619 255.598C320.246 255.383 319.793 255.215 319.261 255.094C318.729 254.973 318.192 254.828 317.651 254.66C317.119 254.492 316.666 254.207 316.293 253.806C315.92 253.405 315.733 252.887 315.733 252.252C315.733 251.468 316.046 250.819 316.671 250.306C317.306 249.783 318.127 249.522 319.135 249.522C320.572 249.522 321.739 249.956 322.635 250.824L321.697 252.042C320.988 251.333 320.087 250.978 318.995 250.978C318.51 250.978 318.122 251.085 317.833 251.3C317.553 251.505 317.413 251.785 317.413 252.14C317.413 252.373 317.511 252.569 317.707 252.728C317.912 252.887 318.174 253.017 318.491 253.12C318.808 253.213 319.158 253.307 319.541 253.4C319.933 253.493 320.32 253.61 320.703 253.75C321.095 253.881 321.45 254.044 321.767 254.24C322.084 254.436 322.341 254.707 322.537 255.052C322.742 255.397 322.845 255.808 322.845 256.284C322.845 257.124 322.542 257.815 321.935 258.356C321.328 258.897 320.428 259.168 319.233 259.168ZM329.911 259H328.441V258.272C327.919 258.869 327.191 259.168 326.257 259.168C325.641 259.168 325.095 258.972 324.619 258.58C324.143 258.179 323.905 257.628 323.905 256.928C323.905 256.209 324.139 255.663 324.605 255.29C325.081 254.917 325.632 254.73 326.257 254.73C327.219 254.73 327.947 255.019 328.441 255.598V254.59C328.441 254.198 328.297 253.89 328.007 253.666C327.718 253.442 327.335 253.33 326.859 253.33C326.103 253.33 325.436 253.615 324.857 254.184L324.255 253.162C325.021 252.434 325.968 252.07 327.097 252.07C327.928 252.07 328.605 252.266 329.127 252.658C329.65 253.05 329.911 253.671 329.911 254.52V259ZM326.831 258.16C327.569 258.16 328.105 257.927 328.441 257.46V256.438C328.105 255.971 327.569 255.738 326.831 255.738C326.411 255.738 326.066 255.85 325.795 256.074C325.525 256.298 325.389 256.592 325.389 256.956C325.389 257.32 325.525 257.614 325.795 257.838C326.066 258.053 326.411 258.16 326.831 258.16ZM337.851 259H336.381V254.772C336.381 253.839 335.929 253.372 335.023 253.372C334.669 253.372 334.337 253.461 334.029 253.638C333.721 253.815 333.474 254.03 333.287 254.282V259H331.817V252.238H333.287V253.162C333.539 252.863 333.875 252.607 334.295 252.392C334.715 252.177 335.173 252.07 335.667 252.07C336.386 252.07 336.927 252.257 337.291 252.63C337.665 253.003 337.851 253.54 337.851 254.24V259ZM345.991 259H344.521V258.076C343.961 258.804 343.237 259.168 342.351 259.168C341.464 259.168 340.741 258.851 340.181 258.216C339.621 257.581 339.341 256.718 339.341 255.626C339.341 254.543 339.621 253.68 340.181 253.036C340.741 252.392 341.464 252.07 342.351 252.07C343.237 252.07 343.961 252.439 344.521 253.176V249.662H345.991V259ZM342.771 257.866C343.116 257.866 343.452 257.782 343.779 257.614C344.105 257.446 344.353 257.231 344.521 256.97V254.282C344.353 254.021 344.105 253.806 343.779 253.638C343.452 253.461 343.116 253.372 342.771 253.372C342.192 253.372 341.73 253.582 341.385 254.002C341.039 254.422 340.867 254.963 340.867 255.626C340.867 256.289 341.039 256.83 341.385 257.25C341.73 257.661 342.192 257.866 342.771 257.866ZM349.365 256.97C349.524 257.222 349.767 257.437 350.093 257.614C350.429 257.782 350.765 257.866 351.101 257.866C351.68 257.866 352.142 257.661 352.487 257.25C352.842 256.83 353.019 256.289 353.019 255.626C353.019 254.963 352.842 254.422 352.487 254.002C352.142 253.582 351.68 253.372 351.101 253.372C350.765 253.372 350.434 253.461 350.107 253.638C349.781 253.815 349.533 254.035 349.365 254.296V256.97ZM349.365 259H347.895V249.662H349.365V253.176C349.916 252.439 350.639 252.07 351.535 252.07C352.413 252.07 353.131 252.397 353.691 253.05C354.251 253.694 354.531 254.553 354.531 255.626C354.531 256.718 354.251 257.581 353.691 258.216C353.131 258.851 352.413 259.168 351.535 259.168C350.649 259.168 349.925 258.804 349.365 258.076V259ZM359.082 259.168C358.037 259.168 357.197 258.827 356.562 258.146C355.927 257.455 355.61 256.611 355.61 255.612C355.61 254.613 355.927 253.773 356.562 253.092C357.197 252.411 358.037 252.07 359.082 252.07C360.137 252.07 360.981 252.411 361.616 253.092C362.251 253.773 362.568 254.613 362.568 255.612C362.568 256.62 362.251 257.465 361.616 258.146C360.981 258.827 360.137 259.168 359.082 259.168ZM359.082 257.866C359.689 257.866 360.165 257.651 360.51 257.222C360.865 256.783 361.042 256.247 361.042 255.612C361.042 254.987 360.865 254.459 360.51 254.03C360.165 253.591 359.689 253.372 359.082 253.372C358.485 253.372 358.009 253.591 357.654 254.03C357.309 254.459 357.136 254.987 357.136 255.612C357.136 256.247 357.309 256.783 357.654 257.222C358.009 257.651 358.485 257.866 359.082 257.866ZM369.485 259H367.833L366.083 256.508L364.319 259H362.681L365.159 255.528L362.821 252.238H364.473L366.083 254.534L367.679 252.238H369.331L366.993 255.528L369.485 259Z" fill="white"/>
<path d="M147.884 259H146.134L144.314 252.112L142.508 259H140.758L138.084 249.662H139.918L141.738 256.858L143.67 249.662H144.972L146.904 256.858L148.71 249.662H150.544L147.884 259ZM152.326 251.412C152.084 251.412 151.869 251.323 151.682 251.146C151.505 250.969 151.416 250.754 151.416 250.502C151.416 250.25 151.505 250.035 151.682 249.858C151.869 249.681 152.084 249.592 152.326 249.592C152.578 249.592 152.793 249.681 152.97 249.858C153.148 250.035 153.236 250.25 153.236 250.502C153.236 250.754 153.148 250.969 152.97 251.146C152.793 251.323 152.578 251.412 152.326 251.412ZM153.068 259H151.598V252.238H153.068V259ZM157.005 259.168C156.436 259.168 156.002 259.019 155.703 258.72C155.414 258.421 155.269 257.992 155.269 257.432V253.526H154.149V252.238H155.269V250.39H156.739V252.238H158.111V253.526H156.739V257.068C156.739 257.311 156.795 257.507 156.907 257.656C157.019 257.796 157.178 257.866 157.383 257.866C157.682 257.866 157.901 257.787 158.041 257.628L158.391 258.734C158.083 259.023 157.621 259.168 157.005 259.168ZM165.494 259H164.024V254.744C164.024 254.249 163.903 253.899 163.66 253.694C163.427 253.479 163.091 253.372 162.652 253.372C162.307 253.372 161.98 253.461 161.672 253.638C161.364 253.815 161.112 254.03 160.916 254.282V259H159.446V249.662H160.916V253.162C161.168 252.863 161.504 252.607 161.924 252.392C162.353 252.177 162.815 252.07 163.31 252.07C164.766 252.07 165.494 252.784 165.494 254.212V259ZM170.455 259.168C169.41 259.168 168.57 258.827 167.935 258.146C167.301 257.455 166.983 256.611 166.983 255.612C166.983 254.613 167.301 253.773 167.935 253.092C168.57 252.411 169.41 252.07 170.455 252.07C171.51 252.07 172.355 252.411 172.989 253.092C173.624 253.773 173.941 254.613 173.941 255.612C173.941 256.62 173.624 257.465 172.989 258.146C172.355 258.827 171.51 259.168 170.455 259.168ZM170.455 257.866C171.062 257.866 171.538 257.651 171.883 257.222C172.238 256.783 172.415 256.247 172.415 255.612C172.415 254.987 172.238 254.459 171.883 254.03C171.538 253.591 171.062 253.372 170.455 253.372C169.858 253.372 169.382 253.591 169.027 254.03C168.682 254.459 168.509 254.987 168.509 255.612C168.509 256.247 168.682 256.783 169.027 257.222C169.382 257.651 169.858 257.866 170.455 257.866ZM181.463 259H179.993V258.104C179.358 258.813 178.56 259.168 177.599 259.168C176.152 259.168 175.429 258.454 175.429 257.026V252.238H176.899V256.494C176.899 256.989 177.015 257.343 177.249 257.558C177.482 257.763 177.818 257.866 178.257 257.866C178.611 257.866 178.943 257.782 179.251 257.614C179.559 257.446 179.806 257.236 179.993 256.984V252.238H181.463V259ZM185.402 259.168C184.833 259.168 184.399 259.019 184.1 258.72C183.811 258.421 183.666 257.992 183.666 257.432V253.526H182.546V252.238H183.666V250.39H185.136V252.238H186.508V253.526H185.136V257.068C185.136 257.311 185.192 257.507 185.304 257.656C185.416 257.796 185.575 257.866 185.78 257.866C186.079 257.866 186.298 257.787 186.438 257.628L186.788 258.734C186.48 259.023 186.018 259.168 185.402 259.168ZM194.672 259.168C193.067 259.168 191.802 258.673 190.878 257.684L191.788 256.424C192.591 257.283 193.576 257.712 194.742 257.712C195.368 257.712 195.834 257.586 196.142 257.334C196.46 257.082 196.618 256.783 196.618 256.438C196.618 256.083 196.432 255.803 196.058 255.598C195.685 255.383 195.232 255.215 194.7 255.094C194.168 254.973 193.632 254.828 193.09 254.66C192.558 254.492 192.106 254.207 191.732 253.806C191.359 253.405 191.172 252.887 191.172 252.252C191.172 251.468 191.485 250.819 192.11 250.306C192.745 249.783 193.566 249.522 194.574 249.522C196.012 249.522 197.178 249.956 198.074 250.824L197.136 252.042C196.427 251.333 195.526 250.978 194.434 250.978C193.949 250.978 193.562 251.085 193.272 251.3C192.992 251.505 192.852 251.785 192.852 252.14C192.852 252.373 192.95 252.569 193.146 252.728C193.352 252.887 193.613 253.017 193.93 253.12C194.248 253.213 194.598 253.307 194.98 253.4C195.372 253.493 195.76 253.61 196.142 253.75C196.534 253.881 196.889 254.044 197.206 254.24C197.524 254.436 197.78 254.707 197.976 255.052C198.182 255.397 198.284 255.808 198.284 256.284C198.284 257.124 197.981 257.815 197.374 258.356C196.768 258.897 195.867 259.168 194.672 259.168ZM205.351 259H203.881V258.272C203.358 258.869 202.63 259.168 201.697 259.168C201.081 259.168 200.535 258.972 200.059 258.58C199.583 258.179 199.345 257.628 199.345 256.928C199.345 256.209 199.578 255.663 200.045 255.29C200.521 254.917 201.071 254.73 201.697 254.73C202.658 254.73 203.386 255.019 203.881 255.598V254.59C203.881 254.198 203.736 253.89 203.447 253.666C203.157 253.442 202.775 253.33 202.299 253.33C201.543 253.33 200.875 253.615 200.297 254.184L199.695 253.162C200.46 252.434 201.407 252.07 202.537 252.07C203.367 252.07 204.044 252.266 204.567 252.658C205.089 253.05 205.351 253.671 205.351 254.52V259ZM202.271 258.16C203.008 258.16 203.545 257.927 203.881 257.46V256.438C203.545 255.971 203.008 255.738 202.271 255.738C201.851 255.738 201.505 255.85 201.235 256.074C200.964 256.298 200.829 256.592 200.829 256.956C200.829 257.32 200.964 257.614 201.235 257.838C201.505 258.053 201.851 258.16 202.271 258.16ZM213.291 259H211.821V254.772C211.821 253.839 211.368 253.372 210.463 253.372C210.108 253.372 209.777 253.461 209.469 253.638C209.161 253.815 208.913 254.03 208.727 254.282V259H207.257V252.238H208.727V253.162C208.979 252.863 209.315 252.607 209.735 252.392C210.155 252.177 210.612 252.07 211.107 252.07C211.825 252.07 212.367 252.257 212.731 252.63C213.104 253.003 213.291 253.54 213.291 254.24V259ZM221.43 259H219.96V258.076C219.4 258.804 218.677 259.168 217.79 259.168C216.903 259.168 216.18 258.851 215.62 258.216C215.06 257.581 214.78 256.718 214.78 255.626C214.78 254.543 215.06 253.68 215.62 253.036C216.18 252.392 216.903 252.07 217.79 252.07C218.677 252.07 219.4 252.439 219.96 253.176V249.662H221.43V259ZM218.21 257.866C218.555 257.866 218.891 257.782 219.218 257.614C219.545 257.446 219.792 257.231 219.96 256.97V254.282C219.792 254.021 219.545 253.806 219.218 253.638C218.891 253.461 218.555 253.372 218.21 253.372C217.631 253.372 217.169 253.582 216.824 254.002C216.479 254.422 216.306 254.963 216.306 255.626C216.306 256.289 216.479 256.83 216.824 257.25C217.169 257.661 217.631 257.866 218.21 257.866ZM224.805 256.97C224.963 257.222 225.206 257.437 225.533 257.614C225.869 257.782 226.205 257.866 226.541 257.866C227.119 257.866 227.581 257.661 227.927 257.25C228.281 256.83 228.459 256.289 228.459 255.626C228.459 254.963 228.281 254.422 227.927 254.002C227.581 253.582 227.119 253.372 226.541 253.372C226.205 253.372 225.873 253.461 225.547 253.638C225.22 253.815 224.973 254.035 224.805 254.296V256.97ZM224.805 259H223.335V249.662H224.805V253.176C225.355 252.439 226.079 252.07 226.975 252.07C227.852 252.07 228.571 252.397 229.131 253.05C229.691 253.694 229.971 254.553 229.971 255.626C229.971 256.718 229.691 257.581 229.131 258.216C228.571 258.851 227.852 259.168 226.975 259.168C226.088 259.168 225.365 258.804 224.805 258.076V259ZM234.522 259.168C233.476 259.168 232.636 258.827 232.002 258.146C231.367 257.455 231.05 256.611 231.05 255.612C231.05 254.613 231.367 253.773 232.002 253.092C232.636 252.411 233.476 252.07 234.522 252.07C235.576 252.07 236.421 252.411 237.056 253.092C237.69 253.773 238.008 254.613 238.008 255.612C238.008 256.62 237.69 257.465 237.056 258.146C236.421 258.827 235.576 259.168 234.522 259.168ZM234.522 257.866C235.128 257.866 235.604 257.651 235.95 257.222C236.304 256.783 236.482 256.247 236.482 255.612C236.482 254.987 236.304 254.459 235.95 254.03C235.604 253.591 235.128 253.372 234.522 253.372C233.924 253.372 233.448 253.591 233.094 254.03C232.748 254.459 232.576 254.987 232.576 255.612C232.576 256.247 232.748 256.783 233.094 257.222C233.448 257.651 233.924 257.866 234.522 257.866ZM244.925 259H243.273L241.523 256.508L239.759 259H238.121L240.599 255.528L238.261 252.238H239.913L241.523 254.534L243.119 252.238H244.771L242.433 255.528L244.925 259Z" fill="white"/>
<rect x="113" y="236" width="193" height="38" rx="19" fill="#2194FF"/>
<rect x="262" y="236" width="129" height="38" rx="19" fill="#47475E"/>
<path d="M292.884 259H291.134L289.314 252.112L287.508 259H285.758L283.084 249.662H284.918L286.738 256.858L288.67 249.662H289.972L291.904 256.858L293.71 249.662H295.544L292.884 259ZM297.326 251.412C297.084 251.412 296.869 251.323 296.682 251.146C296.505 250.969 296.416 250.754 296.416 250.502C296.416 250.25 296.505 250.035 296.682 249.858C296.869 249.681 297.084 249.592 297.326 249.592C297.578 249.592 297.793 249.681 297.97 249.858C298.148 250.035 298.236 250.25 298.236 250.502C298.236 250.754 298.148 250.969 297.97 251.146C297.793 251.323 297.578 251.412 297.326 251.412ZM298.068 259H296.598V252.238H298.068V259ZM302.005 259.168C301.436 259.168 301.002 259.019 300.703 258.72C300.414 258.421 300.269 257.992 300.269 257.432V253.526H299.149V252.238H300.269V250.39H301.739V252.238H303.111V253.526H301.739V257.068C301.739 257.311 301.795 257.507 301.907 257.656C302.019 257.796 302.178 257.866 302.383 257.866C302.682 257.866 302.901 257.787 303.041 257.628L303.391 258.734C303.083 259.023 302.621 259.168 302.005 259.168ZM310.494 259H309.024V254.744C309.024 254.249 308.903 253.899 308.66 253.694C308.427 253.479 308.091 253.372 307.652 253.372C307.307 253.372 306.98 253.461 306.672 253.638C306.364 253.815 306.112 254.03 305.916 254.282V259H304.446V249.662H305.916V253.162C306.168 252.863 306.504 252.607 306.924 252.392C307.353 252.177 307.815 252.07 308.31 252.07C309.766 252.07 310.494 252.784 310.494 254.212V259ZM319.233 259.168C317.628 259.168 316.363 258.673 315.439 257.684L316.349 256.424C317.152 257.283 318.136 257.712 319.303 257.712C319.928 257.712 320.395 257.586 320.703 257.334C321.02 257.082 321.179 256.783 321.179 256.438C321.179 256.083 320.992 255.803 320.619 255.598C320.246 255.383 319.793 255.215 319.261 255.094C318.729 254.973 318.192 254.828 317.651 254.66C317.119 254.492 316.666 254.207 316.293 253.806C315.92 253.405 315.733 252.887 315.733 252.252C315.733 251.468 316.046 250.819 316.671 250.306C317.306 249.783 318.127 249.522 319.135 249.522C320.572 249.522 321.739 249.956 322.635 250.824L321.697 252.042C320.988 251.333 320.087 250.978 318.995 250.978C318.51 250.978 318.122 251.085 317.833 251.3C317.553 251.505 317.413 251.785 317.413 252.14C317.413 252.373 317.511 252.569 317.707 252.728C317.912 252.887 318.174 253.017 318.491 253.12C318.808 253.213 319.158 253.307 319.541 253.4C319.933 253.493 320.32 253.61 320.703 253.75C321.095 253.881 321.45 254.044 321.767 254.24C322.084 254.436 322.341 254.707 322.537 255.052C322.742 255.397 322.845 255.808 322.845 256.284C322.845 257.124 322.542 257.815 321.935 258.356C321.328 258.897 320.428 259.168 319.233 259.168ZM329.911 259H328.441V258.272C327.919 258.869 327.191 259.168 326.257 259.168C325.641 259.168 325.095 258.972 324.619 258.58C324.143 258.179 323.905 257.628 323.905 256.928C323.905 256.209 324.139 255.663 324.605 255.29C325.081 254.917 325.632 254.73 326.257 254.73C327.219 254.73 327.947 255.019 328.441 255.598V254.59C328.441 254.198 328.297 253.89 328.007 253.666C327.718 253.442 327.335 253.33 326.859 253.33C326.103 253.33 325.436 253.615 324.857 254.184L324.255 253.162C325.021 252.434 325.968 252.07 327.097 252.07C327.928 252.07 328.605 252.266 329.127 252.658C329.65 253.05 329.911 253.671 329.911 254.52V259ZM326.831 258.16C327.569 258.16 328.105 257.927 328.441 257.46V256.438C328.105 255.971 327.569 255.738 326.831 255.738C326.411 255.738 326.066 255.85 325.795 256.074C325.525 256.298 325.389 256.592 325.389 256.956C325.389 257.32 325.525 257.614 325.795 257.838C326.066 258.053 326.411 258.16 326.831 258.16ZM337.851 259H336.381V254.772C336.381 253.839 335.929 253.372 335.023 253.372C334.669 253.372 334.337 253.461 334.029 253.638C333.721 253.815 333.474 254.03 333.287 254.282V259H331.817V252.238H333.287V253.162C333.539 252.863 333.875 252.607 334.295 252.392C334.715 252.177 335.173 252.07 335.667 252.07C336.386 252.07 336.927 252.257 337.291 252.63C337.665 253.003 337.851 253.54 337.851 254.24V259ZM345.991 259H344.521V258.076C343.961 258.804 343.237 259.168 342.351 259.168C341.464 259.168 340.741 258.851 340.181 258.216C339.621 257.581 339.341 256.718 339.341 255.626C339.341 254.543 339.621 253.68 340.181 253.036C340.741 252.392 341.464 252.07 342.351 252.07C343.237 252.07 343.961 252.439 344.521 253.176V249.662H345.991V259ZM342.771 257.866C343.116 257.866 343.452 257.782 343.779 257.614C344.105 257.446 344.353 257.231 344.521 256.97V254.282C344.353 254.021 344.105 253.806 343.779 253.638C343.452 253.461 343.116 253.372 342.771 253.372C342.192 253.372 341.73 253.582 341.385 254.002C341.039 254.422 340.867 254.963 340.867 255.626C340.867 256.289 341.039 256.83 341.385 257.25C341.73 257.661 342.192 257.866 342.771 257.866ZM349.365 256.97C349.524 257.222 349.767 257.437 350.093 257.614C350.429 257.782 350.765 257.866 351.101 257.866C351.68 257.866 352.142 257.661 352.487 257.25C352.842 256.83 353.019 256.289 353.019 255.626C353.019 254.963 352.842 254.422 352.487 254.002C352.142 253.582 351.68 253.372 351.101 253.372C350.765 253.372 350.434 253.461 350.107 253.638C349.781 253.815 349.533 254.035 349.365 254.296V256.97ZM349.365 259H347.895V249.662H349.365V253.176C349.916 252.439 350.639 252.07 351.535 252.07C352.413 252.07 353.131 252.397 353.691 253.05C354.251 253.694 354.531 254.553 354.531 255.626C354.531 256.718 354.251 257.581 353.691 258.216C353.131 258.851 352.413 259.168 351.535 259.168C350.649 259.168 349.925 258.804 349.365 258.076V259ZM359.082 259.168C358.037 259.168 357.197 258.827 356.562 258.146C355.927 257.455 355.61 256.611 355.61 255.612C355.61 254.613 355.927 253.773 356.562 253.092C357.197 252.411 358.037 252.07 359.082 252.07C360.137 252.07 360.981 252.411 361.616 253.092C362.251 253.773 362.568 254.613 362.568 255.612C362.568 256.62 362.251 257.465 361.616 258.146C360.981 258.827 360.137 259.168 359.082 259.168ZM359.082 257.866C359.689 257.866 360.165 257.651 360.51 257.222C360.865 256.783 361.042 256.247 361.042 255.612C361.042 254.987 360.865 254.459 360.51 254.03C360.165 253.591 359.689 253.372 359.082 253.372C358.485 253.372 358.009 253.591 357.654 254.03C357.309 254.459 357.136 254.987 357.136 255.612C357.136 256.247 357.309 256.783 357.654 257.222C358.009 257.651 358.485 257.866 359.082 257.866ZM369.485 259H367.833L366.083 256.508L364.319 259H362.681L365.159 255.528L362.821 252.238H364.473L366.083 254.534L367.679 252.238H369.331L366.993 255.528L369.485 259Z" fill="white"/>
<path d="M147.884 259H146.134L144.314 252.112L142.508 259H140.758L138.084 249.662H139.918L141.738 256.858L143.67 249.662H144.972L146.904 256.858L148.71 249.662H150.544L147.884 259ZM152.326 251.412C152.084 251.412 151.869 251.323 151.682 251.146C151.505 250.969 151.416 250.754 151.416 250.502C151.416 250.25 151.505 250.035 151.682 249.858C151.869 249.681 152.084 249.592 152.326 249.592C152.578 249.592 152.793 249.681 152.97 249.858C153.148 250.035 153.236 250.25 153.236 250.502C153.236 250.754 153.148 250.969 152.97 251.146C152.793 251.323 152.578 251.412 152.326 251.412ZM153.068 259H151.598V252.238H153.068V259ZM157.005 259.168C156.436 259.168 156.002 259.019 155.703 258.72C155.414 258.421 155.269 257.992 155.269 257.432V253.526H154.149V252.238H155.269V250.39H156.739V252.238H158.111V253.526H156.739V257.068C156.739 257.311 156.795 257.507 156.907 257.656C157.019 257.796 157.178 257.866 157.383 257.866C157.682 257.866 157.901 257.787 158.041 257.628L158.391 258.734C158.083 259.023 157.621 259.168 157.005 259.168ZM165.494 259H164.024V254.744C164.024 254.249 163.903 253.899 163.66 253.694C163.427 253.479 163.091 253.372 162.652 253.372C162.307 253.372 161.98 253.461 161.672 253.638C161.364 253.815 161.112 254.03 160.916 254.282V259H159.446V249.662H160.916V253.162C161.168 252.863 161.504 252.607 161.924 252.392C162.353 252.177 162.815 252.07 163.31 252.07C164.766 252.07 165.494 252.784 165.494 254.212V259ZM170.455 259.168C169.41 259.168 168.57 258.827 167.935 258.146C167.301 257.455 166.983 256.611 166.983 255.612C166.983 254.613 167.301 253.773 167.935 253.092C168.57 252.411 169.41 252.07 170.455 252.07C171.51 252.07 172.355 252.411 172.989 253.092C173.624 253.773 173.941 254.613 173.941 255.612C173.941 256.62 173.624 257.465 172.989 258.146C172.355 258.827 171.51 259.168 170.455 259.168ZM170.455 257.866C171.062 257.866 171.538 257.651 171.883 257.222C172.238 256.783 172.415 256.247 172.415 255.612C172.415 254.987 172.238 254.459 171.883 254.03C171.538 253.591 171.062 253.372 170.455 253.372C169.858 253.372 169.382 253.591 169.027 254.03C168.682 254.459 168.509 254.987 168.509 255.612C168.509 256.247 168.682 256.783 169.027 257.222C169.382 257.651 169.858 257.866 170.455 257.866ZM181.463 259H179.993V258.104C179.358 258.813 178.56 259.168 177.599 259.168C176.152 259.168 175.429 258.454 175.429 257.026V252.238H176.899V256.494C176.899 256.989 177.015 257.343 177.249 257.558C177.482 257.763 177.818 257.866 178.257 257.866C178.611 257.866 178.943 257.782 179.251 257.614C179.559 257.446 179.806 257.236 179.993 256.984V252.238H181.463V259ZM185.402 259.168C184.833 259.168 184.399 259.019 184.1 258.72C183.811 258.421 183.666 257.992 183.666 257.432V253.526H182.546V252.238H183.666V250.39H185.136V252.238H186.508V253.526H185.136V257.068C185.136 257.311 185.192 257.507 185.304 257.656C185.416 257.796 185.575 257.866 185.78 257.866C186.079 257.866 186.298 257.787 186.438 257.628L186.788 258.734C186.48 259.023 186.018 259.168 185.402 259.168ZM194.672 259.168C193.067 259.168 191.802 258.673 190.878 257.684L191.788 256.424C192.591 257.283 193.576 257.712 194.742 257.712C195.368 257.712 195.834 257.586 196.142 257.334C196.46 257.082 196.618 256.783 196.618 256.438C196.618 256.083 196.432 255.803 196.058 255.598C195.685 255.383 195.232 255.215 194.7 255.094C194.168 254.973 193.632 254.828 193.09 254.66C192.558 254.492 192.106 254.207 191.732 253.806C191.359 253.405 191.172 252.887 191.172 252.252C191.172 251.468 191.485 250.819 192.11 250.306C192.745 249.783 193.566 249.522 194.574 249.522C196.012 249.522 197.178 249.956 198.074 250.824L197.136 252.042C196.427 251.333 195.526 250.978 194.434 250.978C193.949 250.978 193.562 251.085 193.272 251.3C192.992 251.505 192.852 251.785 192.852 252.14C192.852 252.373 192.95 252.569 193.146 252.728C193.352 252.887 193.613 253.017 193.93 253.12C194.248 253.213 194.598 253.307 194.98 253.4C195.372 253.493 195.76 253.61 196.142 253.75C196.534 253.881 196.889 254.044 197.206 254.24C197.524 254.436 197.78 254.707 197.976 255.052C198.182 255.397 198.284 255.808 198.284 256.284C198.284 257.124 197.981 257.815 197.374 258.356C196.768 258.897 195.867 259.168 194.672 259.168ZM205.351 259H203.881V258.272C203.358 258.869 202.63 259.168 201.697 259.168C201.081 259.168 200.535 258.972 200.059 258.58C199.583 258.179 199.345 257.628 199.345 256.928C199.345 256.209 199.578 255.663 200.045 255.29C200.521 254.917 201.071 254.73 201.697 254.73C202.658 254.73 203.386 255.019 203.881 255.598V254.59C203.881 254.198 203.736 253.89 203.447 253.666C203.157 253.442 202.775 253.33 202.299 253.33C201.543 253.33 200.875 253.615 200.297 254.184L199.695 253.162C200.46 252.434 201.407 252.07 202.537 252.07C203.367 252.07 204.044 252.266 204.567 252.658C205.089 253.05 205.351 253.671 205.351 254.52V259ZM202.271 258.16C203.008 258.16 203.545 257.927 203.881 257.46V256.438C203.545 255.971 203.008 255.738 202.271 255.738C201.851 255.738 201.505 255.85 201.235 256.074C200.964 256.298 200.829 256.592 200.829 256.956C200.829 257.32 200.964 257.614 201.235 257.838C201.505 258.053 201.851 258.16 202.271 258.16ZM213.291 259H211.821V254.772C211.821 253.839 211.368 253.372 210.463 253.372C210.108 253.372 209.777 253.461 209.469 253.638C209.161 253.815 208.913 254.03 208.727 254.282V259H207.257V252.238H208.727V253.162C208.979 252.863 209.315 252.607 209.735 252.392C210.155 252.177 210.612 252.07 211.107 252.07C211.825 252.07 212.367 252.257 212.731 252.63C213.104 253.003 213.291 253.54 213.291 254.24V259ZM221.43 259H219.96V258.076C219.4 258.804 218.677 259.168 217.79 259.168C216.903 259.168 216.18 258.851 215.62 258.216C215.06 257.581 214.78 256.718 214.78 255.626C214.78 254.543 215.06 253.68 215.62 253.036C216.18 252.392 216.903 252.07 217.79 252.07C218.677 252.07 219.4 252.439 219.96 253.176V249.662H221.43V259ZM218.21 257.866C218.555 257.866 218.891 257.782 219.218 257.614C219.545 257.446 219.792 257.231 219.96 256.97V254.282C219.792 254.021 219.545 253.806 219.218 253.638C218.891 253.461 218.555 253.372 218.21 253.372C217.631 253.372 217.169 253.582 216.824 254.002C216.479 254.422 216.306 254.963 216.306 255.626C216.306 256.289 216.479 256.83 216.824 257.25C217.169 257.661 217.631 257.866 218.21 257.866ZM224.805 256.97C224.963 257.222 225.206 257.437 225.533 257.614C225.869 257.782 226.205 257.866 226.541 257.866C227.119 257.866 227.581 257.661 227.927 257.25C228.281 256.83 228.459 256.289 228.459 255.626C228.459 254.963 228.281 254.422 227.927 254.002C227.581 253.582 227.119 253.372 226.541 253.372C226.205 253.372 225.873 253.461 225.547 253.638C225.22 253.815 224.973 254.035 224.805 254.296V256.97ZM224.805 259H223.335V249.662H224.805V253.176C225.355 252.439 226.079 252.07 226.975 252.07C227.852 252.07 228.571 252.397 229.131 253.05C229.691 253.694 229.971 254.553 229.971 255.626C229.971 256.718 229.691 257.581 229.131 258.216C228.571 258.851 227.852 259.168 226.975 259.168C226.088 259.168 225.365 258.804 224.805 258.076V259ZM234.522 259.168C233.476 259.168 232.636 258.827 232.002 258.146C231.367 257.455 231.05 256.611 231.05 255.612C231.05 254.613 231.367 253.773 232.002 253.092C232.636 252.411 233.476 252.07 234.522 252.07C235.576 252.07 236.421 252.411 237.056 253.092C237.69 253.773 238.008 254.613 238.008 255.612C238.008 256.62 237.69 257.465 237.056 258.146C236.421 258.827 235.576 259.168 234.522 259.168ZM234.522 257.866C235.128 257.866 235.604 257.651 235.95 257.222C236.304 256.783 236.482 256.247 236.482 255.612C236.482 254.987 236.304 254.459 235.95 254.03C235.604 253.591 235.128 253.372 234.522 253.372C233.924 253.372 233.448 253.591 233.094 254.03C232.748 254.459 232.576 254.987 232.576 255.612C232.576 256.247 232.748 256.783 233.094 257.222C233.448 257.651 233.924 257.866 234.522 257.866ZM244.925 259H243.273L241.523 256.508L239.759 259H238.121L240.599 255.528L238.261 252.238H239.913L241.523 254.534L243.119 252.238H244.771L242.433 255.528L244.925 259Z" fill="white"/>
<rect y="357" width="72" height="73" rx="10" fill="#47475D"/>
<path d="M42.0171 395.073L42.7945 390.223H37.9315V387.078C37.9315 385.751 38.6096 384.456 40.7877 384.456H43V380.328C43 380.328 40.9931 380 39.0753 380C35.0685 380 32.4521 382.323 32.4521 386.527V390.223H28V395.073H32.4521V406.797C33.3459 406.931 34.2603 407 35.1918 407C36.1233 407 37.0377 406.931 37.9315 406.797V395.073H42.0171Z" fill="white" fill-opacity="0.6"/>
<rect x="418" y="430" width="72" height="73" rx="10" fill="#47475D"/>
<path d="M448.789 478C445.554 478 442.538 477.059 440 475.436C442.155 475.575 445.958 475.241 448.324 472.985C444.765 472.822 443.16 470.092 442.951 468.926C443.253 469.043 444.695 469.183 445.509 468.856C441.416 467.83 440.788 464.237 440.927 463.141C441.695 463.677 442.997 463.864 443.509 463.817C439.695 461.088 441.067 456.983 441.742 456.096C444.479 459.889 448.581 462.019 453.656 462.137C453.561 461.717 453.51 461.28 453.51 460.832C453.51 457.611 456.113 455 459.325 455C461.003 455 462.514 455.713 463.576 456.853C464.697 456.59 466.384 455.975 467.209 455.443C466.793 456.936 465.499 458.181 464.716 458.643C464.722 458.659 464.71 458.627 464.716 458.643C465.404 458.539 467.265 458.181 468 457.683C467.636 458.521 466.264 459.916 465.138 460.696C465.347 469.938 458.276 478 448.789 478Z" fill="white" fill-opacity="0.6"/>
<rect x="219" y="549" width="72" height="73" rx="10" fill="#47475D"/>
<path d="M258.387 583.917C259.467 582.031 258.826 579.618 256.955 578.529C255.084 577.44 252.691 578.086 251.611 579.973L243.533 594.081C242.452 595.967 243.093 598.379 244.964 599.469C246.836 600.558 249.228 599.911 250.308 598.025L258.387 583.917Z" fill="white" fill-opacity="0.4"/>
<path d="M250.826 596.055C250.826 598.234 249.074 600 246.913 600C244.752 600 243 598.234 243 596.055C243 593.876 244.752 592.109 246.913 592.109C249.074 592.109 250.826 593.876 250.826 596.055Z" fill="white" fill-opacity="0.6"/>
<path d="M251.622 583.917C250.542 582.031 251.183 579.618 253.054 578.529C254.925 577.44 257.318 578.086 258.398 579.973L266.477 594.081C267.557 595.967 266.916 598.379 265.045 599.469C263.174 600.558 260.781 599.911 259.701 598.025L251.622 583.917Z" fill="white" fill-opacity="0.8"/>
<rect y="714" width="72" height="73" rx="10" fill="#47475D"/>
<path d="M43 745.5C43 746.328 42.3284 747 41.5 747C40.6716 747 40 746.328 40 745.5C40 744.672 40.6716 744 41.5 744C42.3284 744 43 744.672 43 745.5Z" fill="white" fill-opacity="0.6"/>
<path fill-rule="evenodd" clip-rule="evenodd" d="M36 756C38.7614 756 41 753.761 41 751C41 748.239 38.7614 746 36 746C33.2386 746 31 748.239 31 751C31 753.761 33.2386 756 36 756ZM36 754C37.6569 754 39 752.657 39 751C39 749.343 37.6569 748 36 748C34.3431 748 33 749.343 33 751C33 752.657 34.3431 754 36 754Z" fill="white" fill-opacity="0.6"/>
<path fill-rule="evenodd" clip-rule="evenodd" d="M26 750.6C26 747.24 26 745.56 26.654 744.276C27.2292 743.147 28.1471 742.229 29.2761 741.654C30.5595 741 32.2397 741 35.6 741H36.4C39.7603 741 41.4405 741 42.7239 741.654C43.8529 742.229 44.7708 743.147 45.346 744.276C46 745.56 46 747.24 46 750.6V751.4C46 754.76 46 756.44 45.346 757.724C44.7708 758.853 43.8529 759.771 42.7239 760.346C41.4405 761 39.7603 761 36.4 761H35.6C32.2397 761 30.5595 761 29.2761 760.346C28.1471 759.771 27.2292 758.853 26.654 757.724C26 756.44 26 754.76 26 751.4V750.6ZM35.6 743H36.4C38.1132 743 39.2777 743.002 40.1779 743.075C41.0548 743.147 41.5032 743.277 41.816 743.436C42.5686 743.819 43.1805 744.431 43.564 745.184C43.7234 745.497 43.8533 745.945 43.9249 746.822C43.9984 747.722 44 748.887 44 750.6V751.4C44 753.113 43.9984 754.278 43.9249 755.178C43.8533 756.055 43.7234 756.503 43.564 756.816C43.1805 757.569 42.5686 758.181 41.816 758.564C41.5032 758.723 41.0548 758.853 40.1779 758.925C39.2777 758.998 38.1132 759 36.4 759H35.6C33.8868 759 32.7223 758.998 31.8221 758.925C30.9452 758.853 30.4968 758.723 30.184 758.564C29.4314 758.181 28.8195 757.569 28.436 756.816C28.2766 756.503 28.1467 756.055 28.0751 755.178C28.0016 754.278 28 753.113 28 751.4V750.6C28 748.887 28.0016 747.722 28.0751 746.822C28.1467 745.945 28.2766 745.497 28.436 745.184C28.8195 744.431 29.4314 743.819 30.184 743.436C30.4968 743.277 30.9452 743.147 31.8221 743.075C32.7223 743.002 33.8868 743 35.6 743Z" fill="white" fill-opacity="0.6"/>
<rect x="418" y="787" width="72" height="73" rx="10" fill="#47475D"/>
<path d="M448.584 817.176C448.584 818.377 447.557 819.351 446.292 819.351C445.026 819.351 444 818.377 444 817.176C444 815.974 445.026 815 446.292 815C447.557 815 448.584 815.974 448.584 817.176Z" fill="white" fill-opacity="0.6"/>
<path d="M444.313 820.95H448.231V833H444.313V820.95Z" fill="white" fill-opacity="0.6"/>
<path d="M454.538 820.95H450.621V833H454.538C454.538 833 454.538 829.207 454.538 826.835C454.538 825.411 455.017 823.981 456.928 823.981C459.087 823.981 459.074 825.844 459.064 827.288C459.051 829.174 459.082 831.1 459.082 833H463V826.64C462.967 822.58 461.924 820.709 458.495 820.709C456.458 820.709 455.196 821.647 454.538 822.496V820.95Z" fill="white" fill-opacity="0.6"/>
<line x1="57.0379" y1="453.917" x2="191.333" y2="582.621" stroke="#9A9AC6" stroke-opacity="0.6" stroke-width="3" stroke-dasharray="2 2"/>
<line x1="263.038" y1="672.917" x2="397.333" y2="801.621" stroke="#9A9AC6" stroke-opacity="0.6" stroke-width="3" stroke-dasharray="2 2"/>
<line x1="258.382" y1="531.633" x2="404.382" y2="465.633" stroke="#9A9AC6" stroke-opacity="0.6" stroke-width="3" stroke-dasharray="2 2"/>
<line x1="33.5" y1="673.999" x2="34.6367" y2="487.991" stroke="#9A9AC6" stroke-opacity="0.6" stroke-width="3" stroke-dasharray="2 2"/>
<line x1="451.5" y1="737.999" x2="452.637" y2="551.991" stroke="#9A9AC6" stroke-opacity="0.6" stroke-width="3" stroke-dasharray="2 2"/>
</svg>
